<?xml version="1.0" encoding="UTF-8" standalone="no"?>
<!-- Created with Inkscape (http://www.inkscape.org/) -->

<svg version="1.1" id="svg7509" xml:space="preserve" width="172.17999mm" height="20.979445mm" viewBox="0 0 650.75904 79.292394" xmlns="http://www.w3.org/2000/svg" xmlns:svg="http://www.w3.org/2000/svg" xmlns:rdf="http://www.w3.org/1999/02/22-rdf-syntax-ns#" xmlns:cc="http://creativecommons.org/ns#" xmlns:dc="http://purl.org/dc/elements/1.1/"><title id="title10718">Лучшие конфигурации модели, полученные для 2-мерной задачи</title><defs id="defs7513"><clipPath clipPathUnits="userSpaceOnUse" id="clipPath7523"><path d="M 0,0.028 H 595.275 V 841.889 H 0 Z" clip-rule="evenodd" id="path7521" /></clipPath><clipPath clipPathUnits="userSpaceOnUse" id="clipPath8451"><path d="M 0,0.028 H 595.275 V 841.889 H 0 Z" clip-rule="evenodd" id="path8449" /></clipPath><clipPath clipPathUnits="userSpaceOnUse" id="clipPath8465"><path d="M 56.7,147.689 H 538.6 V 328.788 H 56.7 Z" clip-rule="evenodd" id="path8463" /></clipPath><clipPath clipPathUnits="userSpaceOnUse" id="clipPath8677"><path d="M 97.581,180.541 H 294.654 V 324.489 H 97.581 Z" clip-rule="evenodd" id="path8675" /></clipPath><clipPath clipPathUnits="userSpaceOnUse" id="clipPath8689"><path d="M 56.7,147.689 H 538.6 V 328.788 H 56.7 Z" clip-rule="evenodd" id="path8687" /></clipPath><clipPath clipPathUnits="userSpaceOnUse" id="clipPath9069"><path d="M 338.156,180.551 H 535.229 V 324.489 H 338.156 Z" clip-rule="evenodd" id="path9067" /></clipPath><clipPath clipPathUnits="userSpaceOnUse" id="clipPath9081"><path d="M 56.7,147.689 H 538.6 V 328.788 H 56.7 Z" clip-rule="evenodd" id="path9079" /></clipPath></defs><g id="g7515" transform="matrix(1.3333333,0,0,-1.3333333,-71.487137,604.69818)"><g id="g7555" /><g id="g7563" /><g id="g7961"><path d="M 56.45,450.439 H 538.85" style="fill:none;stroke:#000000;stroke-width:0.5;stroke-linecap:butt;stroke-linejoin:round;stroke-miterlimit:10;stroke-dasharray:none;stroke-opacity:1" id="path7963" /></g><g id="g7965"><path d="M 56.95,437.239 H 538.35" style="fill:none;stroke:#000000;stroke-width:1.5;stroke-linecap:butt;stroke-linejoin:round;stroke-miterlimit:10;stroke-dasharray:none;stroke-opacity:1" id="path7967" /></g><g id="g7969"><path d="M 56.95,435.339 H 538.35" style="fill:none;stroke:#000000;stroke-width:0.75;stroke-linecap:butt;stroke-linejoin:round;stroke-miterlimit:10;stroke-dasharray:none;stroke-opacity:1" id="path7971" /></g><g id="g7973"><path d="M 84.85,422.539 H 538.35" style="fill:none;stroke:#000000;stroke-width:0.5;stroke-linecap:butt;stroke-linejoin:round;stroke-miterlimit:10;stroke-dasharray:none;stroke-opacity:1" id="path7975" /></g><g id="g7977"><path d="M 84.85,409.839 H 538.35" style="fill:none;stroke:#000000;stroke-width:0.5;stroke-linecap:butt;stroke-linejoin:round;stroke-miterlimit:10;stroke-dasharray:none;stroke-opacity:1" id="path7979" /></g><g id="g7981"><path d="M 56.95,397.139 H 538.85" style="fill:none;stroke:#000000;stroke-width:0.5;stroke-linecap:butt;stroke-linejoin:round;stroke-miterlimit:10;stroke-dasharray:none;stroke-opacity:1" id="path7983" /></g><g id="g7985"><path d="M 56.7,450.689 V 396.889" style="fill:none;stroke:#000000;stroke-width:0.5;stroke-linecap:butt;stroke-linejoin:round;stroke-miterlimit:10;stroke-dasharray:none;stroke-opacity:1" id="path7987" /></g><g id="g7989"><path d="M 85.1,450.189 V 397.389" style="fill:none;stroke:#000000;stroke-width:0.5;stroke-linecap:butt;stroke-linejoin:round;stroke-miterlimit:10;stroke-dasharray:none;stroke-opacity:1" id="path7991" /></g><g id="g7993"><path d="M 113.4,450.189 V 397.389" style="fill:none;stroke:#000000;stroke-width:0.5;stroke-linecap:butt;stroke-linejoin:round;stroke-miterlimit:10;stroke-dasharray:none;stroke-opacity:1" id="path7995" /></g><g id="g7997"><path d="M 141.8,450.189 V 397.389" style="fill:none;stroke:#000000;stroke-width:0.5;stroke-linecap:butt;stroke-linejoin:round;stroke-miterlimit:10;stroke-dasharray:none;stroke-opacity:1" id="path7999" /></g><g id="g8001"><path d="M 175.8,450.189 V 397.389" style="fill:none;stroke:#000000;stroke-width:0.5;stroke-linecap:butt;stroke-linejoin:round;stroke-miterlimit:10;stroke-dasharray:none;stroke-opacity:1" id="path8003" /></g><g id="g8005"><path d="M 215.5,450.189 V 397.389" style="fill:none;stroke:#000000;stroke-width:0.5;stroke-linecap:butt;stroke-linejoin:round;stroke-miterlimit:10;stroke-dasharray:none;stroke-opacity:1" id="path8007" /></g><g id="g8009"><path d="M 255.2,450.189 V 397.389" style="fill:none;stroke:#000000;stroke-width:0.5;stroke-linecap:butt;stroke-linejoin:round;stroke-miterlimit:10;stroke-dasharray:none;stroke-opacity:1" id="path8011" /></g><g id="g8013"><path d="M 283.5,450.189 V 397.389" style="fill:none;stroke:#000000;stroke-width:0.5;stroke-linecap:butt;stroke-linejoin:round;stroke-miterlimit:10;stroke-dasharray:none;stroke-opacity:1" id="path8015" /></g><g id="g8017"><path d="M 306.2,450.189 V 397.389" style="fill:none;stroke:#000000;stroke-width:0.5;stroke-linecap:butt;stroke-linejoin:round;stroke-miterlimit:10;stroke-dasharray:none;stroke-opacity:1" id="path8019" /></g><g id="g8021"><path d="M 334.6,450.189 V 397.389" style="fill:none;stroke:#000000;stroke-width:0.5;stroke-linecap:butt;stroke-linejoin:round;stroke-miterlimit:10;stroke-dasharray:none;stroke-opacity:1" id="path8023" /></g><g id="g8025"><path d="M 360.1,450.189 V 397.389" style="fill:none;stroke:#000000;stroke-width:0.5;stroke-linecap:butt;stroke-linejoin:round;stroke-miterlimit:10;stroke-dasharray:none;stroke-opacity:1" id="path8027" /></g><g id="g8029"><path d="M 388.4,450.189 V 397.389" style="fill:none;stroke:#000000;stroke-width:0.5;stroke-linecap:butt;stroke-linejoin:round;stroke-miterlimit:10;stroke-dasharray:none;stroke-opacity:1" id="path8031" /></g><g id="g8033"><path d="M 428.1,450.189 V 397.389" style="fill:none;stroke:#000000;stroke-width:0.5;stroke-linecap:butt;stroke-linejoin:round;stroke-miterlimit:10;stroke-dasharray:none;stroke-opacity:1" id="path8035" /></g><g id="g8037"><path d="M 538.6,450.689 V 396.889" style="fill:none;stroke:#000000;stroke-width:0.5;stroke-linecap:butt;stroke-linejoin:round;stroke-miterlimit:10;stroke-dasharray:none;stroke-opacity:1" id="path8039" /></g><g id="g8041"><text transform="matrix(1,0,0,-1,61.2,440.589)" style="font-style:italic;font-variant:normal;font-size:10px;font-family:'Liberation Serif';-inkscape-font-specification:LiberationSerif-Italic;writing-mode:lr-tb;fill:#000000;fill-opacity:1;fill-rule:nonzero;stroke:none" id="text8045"><tspan x="0 2.74" y="0" id="tspan8043">|N</tspan></text></g><g id="g8047"><text transform="matrix(1,0,0,-1,70.6,439.689)" style="font-variant:normal;font-weight:normal;font-size:5.8px;font-family:'Liberation Serif';-inkscape-font-specification:LiberationSerif;writing-mode:lr-tb;fill:#000000;fill-opacity:1;fill-rule:nonzero;stroke:none" id="text8051"><tspan x="0 2.5694001 4.5008001" y="0" id="tspan8049">cfg</tspan></text></g><g id="g8053"><text transform="matrix(1,0,0,-1,78,440.589)" style="font-style:italic;font-variant:normal;font-size:10px;font-family:'Liberation Serif';-inkscape-font-specification:LiberationSerif-Italic;writing-mode:lr-tb;fill:#000000;fill-opacity:1;fill-rule:nonzero;stroke:none" id="text8057"><tspan x="0" y="0" id="tspan8055">|</tspan></text></g><g id="g8059"><text transform="matrix(1,0,0,-1,94.2,440.539)" style="font-variant:normal;font-weight:normal;font-size:10px;font-family:Calibri;-inkscape-font-specification:Calibri;writing-mode:lr-tb;fill:#000000;fill-opacity:1;fill-rule:nonzero;stroke:none" id="text8063"><tspan x="0" y="0" id="tspan8061">№</tspan></text></g><g id="g8065"><text transform="matrix(1,0,0,-1,126.3,440.589)" style="font-style:italic;font-variant:normal;font-size:10px;font-family:'Liberation Serif';-inkscape-font-specification:LiberationSerif-Italic;writing-mode:lr-tb;fill:#000000;fill-opacity:1;fill-rule:nonzero;stroke:none" id="text8069"><tspan x="0" y="0" id="tspan8067">i</tspan></text></g><g id="g8071"><text transform="matrix(1,0,0,-1,148.05,440.589)" style="font-style:italic;font-variant:normal;font-size:10px;font-family:'Liberation Serif';-inkscape-font-specification:LiberationSerif-Italic;writing-mode:lr-tb;fill:#000000;fill-opacity:1;fill-rule:nonzero;stroke:none" id="text8075"><tspan x="0" y="0" id="tspan8073">t</tspan></text></g><g id="g8077"><text transform="matrix(1,0,0,-1,150.85,440.589)" style="font-variant:normal;font-weight:normal;font-size:10px;font-family:'Liberation Serif';-inkscape-font-specification:LiberationSerif;writing-mode:lr-tb;fill:#000000;fill-opacity:1;fill-rule:nonzero;stroke:none" id="text8081"><tspan x="0 2.5 5 9.5500002 13.98" y="0" id="tspan8079">, сек</tspan></text></g><g id="g8083"><text transform="matrix(1,0,0,-1,184.65,440.589)" style="font-variant:normal;font-weight:normal;font-size:10px;font-family:'Liberation Serif';-inkscape-font-specification:LiberationSerif;writing-mode:lr-tb;fill:#000000;fill-opacity:1;fill-rule:nonzero;stroke:none" id="text8087"><tspan x="0 8.8900003 14.45" y="0" id="tspan8085">MSE</tspan></text></g><g id="g8089"><text transform="matrix(1,0,0,-1,205.2,439.689)" style="font-style:italic;font-variant:normal;font-size:5.8px;font-family:'Liberation Serif';-inkscape-font-specification:LiberationSerif-Italic;writing-mode:lr-tb;fill:#000000;fill-opacity:1;fill-rule:nonzero;stroke:none" id="text8093"><tspan x="0" y="0" id="tspan8091">f</tspan></text></g><g id="g8095"><text transform="matrix(1,0,0,-1,220.35,440.589)" style="font-variant:normal;font-weight:normal;font-size:10px;font-family:'Liberation Serif';-inkscape-font-specification:LiberationSerif;writing-mode:lr-tb;fill:#000000;fill-opacity:1;fill-rule:nonzero;stroke:none" id="text8099"><tspan x="0 6.6599998 15.55 21.110001" y="0" id="tspan8097">RMSE</tspan></text></g><g id="g8101"><text transform="matrix(1,0,0,-1,247.6,439.689)" style="font-style:italic;font-variant:normal;font-size:5.8px;font-family:'Liberation Serif';-inkscape-font-specification:LiberationSerif-Italic;writing-mode:lr-tb;fill:#000000;fill-opacity:1;fill-rule:nonzero;stroke:none" id="text8105"><tspan x="0" y="0" id="tspan8103">u</tspan></text></g><g id="g8107"><text transform="matrix(1,0,0,-1,266.1,440.589)" style="font-style:italic;font-variant:normal;font-size:10px;font-family:'Liberation Serif';-inkscape-font-specification:LiberationSerif-Italic;writing-mode:lr-tb;fill:#000000;fill-opacity:1;fill-rule:nonzero;stroke:none" id="text8111"><tspan x="0" y="0" id="tspan8109">N</tspan></text></g><g id="g8113"><text transform="matrix(1,0,0,-1,292.2,440.589)" style="font-style:italic;font-variant:normal;font-size:10px;font-family:'Liberation Serif';-inkscape-font-specification:LiberationSerif-Italic;writing-mode:lr-tb;fill:#000000;fill-opacity:1;fill-rule:nonzero;stroke:none" id="text8117"><tspan x="0" y="0" id="tspan8115">L</tspan></text></g><g id="g8119"><text transform="matrix(1,0,0,-1,318,440.589)" style="font-style:italic;font-variant:normal;font-size:10px;font-family:'Liberation Serif';-inkscape-font-specification:LiberationSerif-Italic;writing-mode:lr-tb;fill:#000000;fill-opacity:1;fill-rule:nonzero;stroke:none" id="text8123"><tspan x="0" y="0" id="tspan8121">σ</tspan></text></g><g id="g8125"><text transform="matrix(1,0,0,-1,340.55,440.589)" style="font-style:italic;font-variant:normal;font-size:10px;font-family:'Liberation Serif';-inkscape-font-specification:LiberationSerif-Italic;writing-mode:lr-tb;fill:#000000;fill-opacity:1;fill-rule:nonzero;stroke:none" id="text8129"><tspan x="0 2.74" y="0" id="tspan8127">|N</tspan></text></g><g id="g8131"><text transform="matrix(1,0,0,-1,349.95,439.689)" style="font-style:italic;font-variant:normal;font-size:5.8px;font-family:'Liberation Serif';-inkscape-font-specification:LiberationSerif-Italic;writing-mode:lr-tb;fill:#000000;fill-opacity:1;fill-rule:nonzero;stroke:none" id="text8135"><tspan x="0" y="0" id="tspan8133">f</tspan></text></g><g id="g8137"><text transform="matrix(1,0,0,-1,351.55,440.589)" style="font-style:italic;font-variant:normal;font-size:10px;font-family:'Liberation Serif';-inkscape-font-specification:LiberationSerif-Italic;writing-mode:lr-tb;fill:#000000;fill-opacity:1;fill-rule:nonzero;stroke:none" id="text8141"><tspan x="0" y="0" id="tspan8139">|</tspan></text></g><g id="g8143"><text transform="matrix(1,0,0,-1,362,440.589)" style="font-style:italic;font-variant:normal;font-size:10px;font-family:'Liberation Serif';-inkscape-font-specification:LiberationSerif-Italic;writing-mode:lr-tb;fill:#000000;fill-opacity:1;fill-rule:nonzero;stroke:none" id="text8147"><tspan x="0 2.74" y="0" id="tspan8145">|N</tspan></text></g><g id="g8149"><text transform="matrix(1,0,0,-1,371.4,439.689)" style="font-variant:normal;font-weight:normal;font-size:5.8px;font-family:'Liberation Serif';-inkscape-font-specification:LiberationSerif;writing-mode:lr-tb;fill:#000000;fill-opacity:1;fill-rule:nonzero;stroke:none" id="text8153"><tspan x="0 2.9000001 5.4693999 7.0760002 9.6454" y="0" id="tspan8151">batch</tspan></text></g><g id="g8155"><text transform="matrix(1,0,0,-1,383.95,440.589)" style="font-style:italic;font-variant:normal;font-size:10px;font-family:'Liberation Serif';-inkscape-font-specification:LiberationSerif-Italic;writing-mode:lr-tb;fill:#000000;fill-opacity:1;fill-rule:nonzero;stroke:none" id="text8159"><tspan x="0" y="0" id="tspan8157">|</tspan></text></g><g id="g8161"><text transform="matrix(1,0,0,-1,405.05,440.589)" style="font-style:italic;font-variant:normal;font-size:10px;font-family:'Liberation Serif';-inkscape-font-specification:LiberationSerif-Italic;writing-mode:lr-tb;fill:#000000;fill-opacity:1;fill-rule:nonzero;stroke:none" id="text8165"><tspan x="0 2.77" y="0" id="tspan8163">lr</tspan></text></g><g id="g8167"><text transform="matrix(1,0,0,-1,459.2,440.539)" style="font-style:italic;font-variant:normal;font-size:10px;font-family:'Liberation Serif';-inkscape-font-specification:LiberationSerif-Italic;writing-mode:lr-tb;fill:#000000;fill-opacity:1;fill-rule:nonzero;stroke:none" id="text8171"><tspan x="0 2.77" y="0" id="tspan8169">lr</tspan></text></g><g id="g8173"><text transform="matrix(1,0,0,-1,468.11,440.539)" style="font-variant:normal;font-weight:normal;font-size:10px;font-family:Calibri;-inkscape-font-specification:Calibri;writing-mode:lr-tb;fill:#000000;fill-opacity:1;fill-rule:nonzero;stroke:none" id="text8177"><tspan x="0 3.9100001 8.1300001 13.38 18.35 23.6 28.85 31.139999 36.110001" y="0" id="tspan8175">scheduler</tspan></text></g><g id="g8179"><text transform="matrix(1,0,0,-1,63.4,412.639)" style="font-variant:normal;font-weight:normal;font-size:10px;font-family:Calibri;-inkscape-font-specification:Calibri;writing-mode:lr-tb;fill:#000000;fill-opacity:1;fill-rule:nonzero;stroke:none" id="text8183"><tspan x="0 5.0599999 10.12" y="0" id="tspan8181">665</tspan></text></g><g id="g8185"><text transform="matrix(1,0,0,-1,91.75,425.339)" style="font-variant:normal;font-weight:normal;font-size:10px;font-family:Calibri;-inkscape-font-specification:Calibri;writing-mode:lr-tb;fill:#000000;fill-opacity:1;fill-rule:nonzero;stroke:none" id="text8189"><tspan x="0 5.0599999 10.12" y="0" id="tspan8187">457</tspan></text></g><g id="g8191"><text transform="matrix(1,0,0,-1,117.55,425.339)" style="font-variant:normal;font-weight:normal;font-size:10px;font-family:Calibri;-inkscape-font-specification:Calibri;writing-mode:lr-tb;fill:#000000;fill-opacity:1;fill-rule:nonzero;stroke:none" id="text8195"><tspan x="0 5.0599999 10.12 15.18" y="0" id="tspan8193">1306</tspan></text></g><g id="g8197"><text transform="matrix(1,0,0,-1,150,425.339)" style="font-variant:normal;font-weight:normal;font-size:10px;font-family:Calibri;-inkscape-font-specification:Calibri;writing-mode:lr-tb;fill:#000000;fill-opacity:1;fill-rule:nonzero;stroke:none" id="text8201"><tspan x="0 5.0599999 10.12 12.64" y="0" id="tspan8199">30.0</tspan></text></g><g id="g8203"><text transform="matrix(1,0,0,-1,179.4,425.339)" style="font-variant:normal;font-weight:normal;font-size:10px;font-family:Calibri;-inkscape-font-specification:Calibri;writing-mode:lr-tb;fill:#000000;fill-opacity:1;fill-rule:nonzero;stroke:none" id="text8207"><tspan x="0 5.0599999 7.5799999 12.64 17.52 22.5 27.559999" y="0" id="tspan8205">5.6E−05</tspan></text></g><g id="g8209"><text transform="matrix(1,0,0,-1,219.1,425.339)" style="font-variant:normal;font-weight:normal;font-size:10px;font-family:Calibri;-inkscape-font-specification:Calibri;writing-mode:lr-tb;fill:#000000;fill-opacity:1;fill-rule:nonzero;stroke:none" id="text8213"><tspan x="0 5.0599999 7.5799999 12.64 17.52 22.5 27.559999" y="0" id="tspan8211">1.4E−05</tspan></text></g><g id="g8215"><text transform="matrix(1,0,0,-1,261.85,425.339)" style="font-variant:normal;font-weight:normal;font-size:10px;font-family:Calibri;-inkscape-font-specification:Calibri;writing-mode:lr-tb;fill:#000000;fill-opacity:1;fill-rule:nonzero;stroke:none" id="text8219"><tspan x="0 5.0599999 10.12" y="0" id="tspan8217">416</tspan></text></g><g id="g8221"><text transform="matrix(1,0,0,-1,292.45,425.339)" style="font-variant:normal;font-weight:normal;font-size:10px;font-family:Calibri;-inkscape-font-specification:Calibri;writing-mode:lr-tb;fill:#000000;fill-opacity:1;fill-rule:nonzero;stroke:none" id="text8225"><tspan x="0" y="0" id="tspan8223">2</tspan></text></g><g id="g8227"><text transform="matrix(1,0,0,-1,314.75,425.339)" style="font-variant:normal;font-weight:normal;font-size:10px;font-family:Calibri;-inkscape-font-specification:Calibri;writing-mode:lr-tb;fill:#000000;fill-opacity:1;fill-rule:nonzero;stroke:none" id="text8231"><tspan x="0 3.9100001 6.1999998" y="0" id="tspan8229">sin</tspan></text></g><g id="g8233"><text transform="matrix(1,0,0,-1,337.3,425.339)" style="font-variant:normal;font-weight:normal;font-size:10px;font-family:Calibri;-inkscape-font-specification:Calibri;writing-mode:lr-tb;fill:#000000;fill-opacity:1;fill-rule:nonzero;stroke:none" id="text8237"><tspan x="0 5.0599999 10.12 15.18" y="0" id="tspan8235">1000</tspan></text></g><g id="g8239"><text transform="matrix(1,0,0,-1,366.75,425.339)" style="font-variant:normal;font-weight:normal;font-size:10px;font-family:Calibri;-inkscape-font-specification:Calibri;writing-mode:lr-tb;fill:#000000;fill-opacity:1;fill-rule:nonzero;stroke:none" id="text8243"><tspan x="0 5.0599999 10.12" y="0" id="tspan8241">640</tspan></text></g><g id="g8245"><text transform="matrix(1,0,0,-1,392.05,425.339)" style="font-variant:normal;font-weight:normal;font-size:10px;font-family:Calibri;-inkscape-font-specification:Calibri;writing-mode:lr-tb;fill:#000000;fill-opacity:1;fill-rule:nonzero;stroke:none" id="text8249"><tspan x="0 5.0599999 7.5799999 12.64 17.52 22.5 27.559999" y="0" id="tspan8247">2.8E−02</tspan></text></g><g id="g8251"><text transform="matrix(1,0,0,-1,432.85,426.339)" style="font-variant:normal;font-weight:normal;font-size:8px;font-family:Consolas;-inkscape-font-specification:Consolas;writing-mode:lr-tb;fill:#000000;fill-opacity:1;fill-rule:nonzero;stroke:none" id="text8255"><tspan x="0 4.3920002 8.7840004 13.176 17.568001 21.959999 26.351999 30.743999 35.136002 39.528 43.919998 48.312 52.703999 57.096001 61.487999 65.879997 70.272003 74.664001 79.056 83.447998 87.839996 92.232002 96.624001" y="0" id="tspan8253">ReduceLROnPlateau-0.5-2</tspan></text></g><g id="g8257"><text transform="matrix(1,0,0,-1,91.75,412.639)" style="font-variant:normal;font-weight:normal;font-size:10px;font-family:Calibri;-inkscape-font-specification:Calibri;writing-mode:lr-tb;fill:#000000;fill-opacity:1;fill-rule:nonzero;stroke:none" id="text8261"><tspan x="0 5.0599999 10.12" y="0" id="tspan8259">594</tspan></text></g><g id="g8263"><text transform="matrix(1,0,0,-1,117.55,412.639)" style="font-variant:normal;font-weight:normal;font-size:10px;font-family:Calibri;-inkscape-font-specification:Calibri;writing-mode:lr-tb;fill:#000000;fill-opacity:1;fill-rule:nonzero;stroke:none" id="text8267"><tspan x="0 5.0599999 10.12 15.18" y="0" id="tspan8265">1286</tspan></text></g><g id="g8269"><text transform="matrix(1,0,0,-1,150,412.639)" style="font-variant:normal;font-weight:normal;font-size:10px;font-family:Calibri;-inkscape-font-specification:Calibri;writing-mode:lr-tb;fill:#000000;fill-opacity:1;fill-rule:nonzero;stroke:none" id="text8273"><tspan x="0 5.0599999 10.12 12.64" y="0" id="tspan8271">30.0</tspan></text></g><g id="g8275"><text transform="matrix(1,0,0,-1,179.4,412.639)" style="font-variant:normal;font-weight:normal;font-size:10px;font-family:Calibri;-inkscape-font-specification:Calibri;writing-mode:lr-tb;fill:#000000;fill-opacity:1;fill-rule:nonzero;stroke:none" id="text8279"><tspan x="0 5.0599999 7.5799999 12.64 17.52 22.5 27.559999" y="0" id="tspan8277">7.8E−05</tspan></text></g><g id="g8281"><text transform="matrix(1,0,0,-1,219.1,412.639)" style="font-variant:normal;font-weight:normal;font-size:10px;font-family:Calibri;-inkscape-font-specification:Calibri;writing-mode:lr-tb;fill:#000000;fill-opacity:1;fill-rule:nonzero;stroke:none" id="text8285"><tspan x="0 5.0599999 7.5799999 12.64 17.52 22.5 27.559999" y="0" id="tspan8283">1.1E−05</tspan></text></g><g id="g8287"><text transform="matrix(1,0,0,-1,261.85,412.639)" style="font-variant:normal;font-weight:normal;font-size:10px;font-family:Calibri;-inkscape-font-specification:Calibri;writing-mode:lr-tb;fill:#000000;fill-opacity:1;fill-rule:nonzero;stroke:none" id="text8291"><tspan x="0 5.0599999 10.12" y="0" id="tspan8289">672</tspan></text></g><g id="g8293"><text transform="matrix(1,0,0,-1,292.45,412.639)" style="font-variant:normal;font-weight:normal;font-size:10px;font-family:Calibri;-inkscape-font-specification:Calibri;writing-mode:lr-tb;fill:#000000;fill-opacity:1;fill-rule:nonzero;stroke:none" id="text8297"><tspan x="0" y="0" id="tspan8295">2</tspan></text></g><g id="g8299"><text transform="matrix(1,0,0,-1,314.75,412.639)" style="font-variant:normal;font-weight:normal;font-size:10px;font-family:Calibri;-inkscape-font-specification:Calibri;writing-mode:lr-tb;fill:#000000;fill-opacity:1;fill-rule:nonzero;stroke:none" id="text8303"><tspan x="0 3.9100001 6.1999998" y="0" id="tspan8301">sin</tspan></text></g><g id="g8305"><text transform="matrix(1,0,0,-1,337.3,412.639)" style="font-variant:normal;font-weight:normal;font-size:10px;font-family:Calibri;-inkscape-font-specification:Calibri;writing-mode:lr-tb;fill:#000000;fill-opacity:1;fill-rule:nonzero;stroke:none" id="text8309"><tspan x="0 5.0599999 10.12 15.18" y="0" id="tspan8307">1000</tspan></text></g><g id="g8311"><text transform="matrix(1,0,0,-1,366.75,412.639)" style="font-variant:normal;font-weight:normal;font-size:10px;font-family:Calibri;-inkscape-font-specification:Calibri;writing-mode:lr-tb;fill:#000000;fill-opacity:1;fill-rule:nonzero;stroke:none" id="text8315"><tspan x="0 5.0599999 10.12" y="0" id="tspan8313">384</tspan></text></g><g id="g8317"><text transform="matrix(1,0,0,-1,392.05,412.639)" style="font-variant:normal;font-weight:normal;font-size:10px;font-family:Calibri;-inkscape-font-specification:Calibri;writing-mode:lr-tb;fill:#000000;fill-opacity:1;fill-rule:nonzero;stroke:none" id="text8321"><tspan x="0 5.0599999 7.5799999 12.64 17.52 22.5 27.559999" y="0" id="tspan8319">1.5E−02</tspan></text></g><g id="g8323"><text transform="matrix(1,0,0,-1,432.85,413.639)" style="font-variant:normal;font-weight:normal;font-size:8px;font-family:Consolas;-inkscape-font-specification:Consolas;writing-mode:lr-tb;fill:#000000;fill-opacity:1;fill-rule:nonzero;stroke:none" id="text8327"><tspan x="0 4.3920002 8.7840004 13.176 17.568001 21.959999 26.351999 30.743999 35.136002 39.528 43.919998 48.312 52.703999 57.096001 61.487999 65.879997 70.272003 74.664001 79.056 83.447998 87.839996 92.232002 96.624001" y="0" id="tspan8325">ReduceLROnPlateau-0.5-2</tspan></text></g><g id="g8329"><text transform="matrix(1,0,0,-1,91.75,399.939)" style="font-variant:normal;font-weight:normal;font-size:10px;font-family:Calibri;-inkscape-font-specification:Calibri;writing-mode:lr-tb;fill:#000000;fill-opacity:1;fill-rule:nonzero;stroke:none" id="text8333"><tspan x="0 5.0599999 10.12" y="0" id="tspan8331">596</tspan></text></g><g id="g8335"><text transform="matrix(1,0,0,-1,117.55,399.939)" style="font-variant:normal;font-weight:normal;font-size:10px;font-family:Calibri;-inkscape-font-specification:Calibri;writing-mode:lr-tb;fill:#000000;fill-opacity:1;fill-rule:nonzero;stroke:none" id="text8339"><tspan x="0 5.0599999 10.12 15.18" y="0" id="tspan8337">1720</tspan></text></g><g id="g8341"><text transform="matrix(1,0,0,-1,150,399.939)" style="font-variant:normal;font-weight:normal;font-size:10px;font-family:Calibri;-inkscape-font-specification:Calibri;writing-mode:lr-tb;fill:#000000;fill-opacity:1;fill-rule:nonzero;stroke:none" id="text8345"><tspan x="0 5.0599999 10.12 12.64" y="0" id="tspan8343">30.0</tspan></text></g><g id="g8347"><text transform="matrix(1,0,0,-1,179.4,399.939)" style="font-variant:normal;font-weight:normal;font-size:10px;font-family:Calibri;-inkscape-font-specification:Calibri;writing-mode:lr-tb;fill:#000000;fill-opacity:1;fill-rule:nonzero;stroke:none" id="text8351"><tspan x="0 5.0599999 7.5799999 12.64 17.52 22.5 27.559999" y="0" id="tspan8349">8.8E−05</tspan></text></g><g id="g8353"><text transform="matrix(1,0,0,-1,219.1,399.939)" style="font-variant:normal;font-weight:normal;font-size:10px;font-family:Calibri;-inkscape-font-specification:Calibri;writing-mode:lr-tb;fill:#000000;fill-opacity:1;fill-rule:nonzero;stroke:none" id="text8357"><tspan x="0 5.0599999 7.5799999 12.64 17.52 22.5 27.559999" y="0" id="tspan8355">1.2E−05</tspan></text></g><g id="g8359"><text transform="matrix(1,0,0,-1,261.85,399.939)" style="font-variant:normal;font-weight:normal;font-size:10px;font-family:Calibri;-inkscape-font-specification:Calibri;writing-mode:lr-tb;fill:#000000;fill-opacity:1;fill-rule:nonzero;stroke:none" id="text8363"><tspan x="0 5.0599999 10.12" y="0" id="tspan8361">640</tspan></text></g><g id="g8365"><text transform="matrix(1,0,0,-1,292.45,399.939)" style="font-variant:normal;font-weight:normal;font-size:10px;font-family:Calibri;-inkscape-font-specification:Calibri;writing-mode:lr-tb;fill:#000000;fill-opacity:1;fill-rule:nonzero;stroke:none" id="text8369"><tspan x="0" y="0" id="tspan8367">2</tspan></text></g><g id="g8371"><text transform="matrix(1,0,0,-1,314.75,399.939)" style="font-variant:normal;font-weight:normal;font-size:10px;font-family:Calibri;-inkscape-font-specification:Calibri;writing-mode:lr-tb;fill:#000000;fill-opacity:1;fill-rule:nonzero;stroke:none" id="text8375"><tspan x="0 3.9100001 6.1999998" y="0" id="tspan8373">sin</tspan></text></g><g id="g8377"><text transform="matrix(1,0,0,-1,337.3,399.939)" style="font-variant:normal;font-weight:normal;font-size:10px;font-family:Calibri;-inkscape-font-specification:Calibri;writing-mode:lr-tb;fill:#000000;fill-opacity:1;fill-rule:nonzero;stroke:none" id="text8381"><tspan x="0 5.0599999 10.12 15.18" y="0" id="tspan8379">1000</tspan></text></g><g id="g8383"><text transform="matrix(1,0,0,-1,366.75,399.939)" style="font-variant:normal;font-weight:normal;font-size:10px;font-family:Calibri;-inkscape-font-specification:Calibri;writing-mode:lr-tb;fill:#000000;fill-opacity:1;fill-rule:nonzero;stroke:none" id="text8387"><tspan x="0 5.0599999 10.12" y="0" id="tspan8385">544</tspan></text></g><g id="g8389"><text transform="matrix(1,0,0,-1,392.05,399.939)" style="font-variant:normal;font-weight:normal;font-size:10px;font-family:Calibri;-inkscape-font-specification:Calibri;writing-mode:lr-tb;fill:#000000;fill-opacity:1;fill-rule:nonzero;stroke:none" id="text8393"><tspan x="0 5.0599999 7.5799999 12.64 17.52 22.5 27.559999" y="0" id="tspan8391">2.0E−02</tspan></text></g><g id="g8395"><text transform="matrix(1,0,0,-1,432.85,400.939)" style="font-variant:normal;font-weight:normal;font-size:8px;font-family:Consolas;-inkscape-font-specification:Consolas;writing-mode:lr-tb;fill:#000000;fill-opacity:1;fill-rule:nonzero;stroke:none" id="text8399"><tspan x="0 4.3920002 8.7840004 13.176 17.568001 21.959999 26.351999 30.743999 35.136002 39.528 43.919998 48.312 52.703999 57.096001 61.487999 65.879997 70.272003 74.664001 79.056 83.447998 87.839996 92.232002 96.624001" y="0" id="tspan8397">ReduceLROnPlateau-0.5-2</tspan></text></g></g><metadata id="metadata10716"><rdf:RDF><cc:Work rdf:about=""><dc:title>Лучшие конфигурации модели, полученные для 2-мерной задачи</dc:title></cc:Work></rdf:RDF></metadata></svg>
