<?xml version="1.0" encoding="UTF-8" standalone="no"?>
<!-- Created with Inkscape (http://www.inkscape.org/) -->

<svg version="1.1" id="svg2" xml:space="preserve" width="172.17999mm" height="20.979445mm" viewBox="0 0 650.75905 79.29239" xmlns="http://www.w3.org/2000/svg" xmlns:svg="http://www.w3.org/2000/svg" xmlns:rdf="http://www.w3.org/1999/02/22-rdf-syntax-ns#" xmlns:cc="http://creativecommons.org/ns#" xmlns:dc="http://purl.org/dc/elements/1.1/"><title id="title3915">Лучшие конфигурации модели, полученные для 2-мерной задачи на области [0; 2]</title><defs id="defs6"><clipPath clipPathUnits="userSpaceOnUse" id="clipPath16"><path d="M 0,0.028 H 595.275 V 841.889 H 0 Z" clip-rule="evenodd" id="path14" /></clipPath><clipPath clipPathUnits="userSpaceOnUse" id="clipPath928"><path d="M 0,0.028 H 595.275 V 841.889 H 0 Z" clip-rule="evenodd" id="path926" /></clipPath><clipPath clipPathUnits="userSpaceOnUse" id="clipPath942"><path d="M 56.7,186.989 H 538.6 V 368.088 H 56.7 Z" clip-rule="evenodd" id="path940" /></clipPath><clipPath clipPathUnits="userSpaceOnUse" id="clipPath1180"><path d="M 97.581,219.885 H 294.654 V 363.243 H 97.581 Z" clip-rule="evenodd" id="path1178" /></clipPath><clipPath clipPathUnits="userSpaceOnUse" id="clipPath1192"><path d="M 56.7,186.989 H 538.6 V 368.088 H 56.7 Z" clip-rule="evenodd" id="path1190" /></clipPath><clipPath clipPathUnits="userSpaceOnUse" id="clipPath1606"><path d="M 338.156,219.883 H 535.229 V 363.243 H 338.156 Z" clip-rule="evenodd" id="path1604" /></clipPath><clipPath clipPathUnits="userSpaceOnUse" id="clipPath1618"><path d="M 56.7,186.989 H 538.6 V 368.088 H 56.7 Z" clip-rule="evenodd" id="path1616" /></clipPath></defs><g id="g8" transform="matrix(1.3333333,0,0,-1.3333333,-71.487137,657.23151)"><g id="g420"><path d="M 56.45,489.839 H 538.85" style="fill:none;stroke:#000000;stroke-width:0.5;stroke-linecap:butt;stroke-linejoin:round;stroke-miterlimit:10;stroke-dasharray:none;stroke-opacity:1" id="path422" /></g><g id="g424"><path d="M 56.95,476.639 H 538.35" style="fill:none;stroke:#000000;stroke-width:1.5;stroke-linecap:butt;stroke-linejoin:round;stroke-miterlimit:10;stroke-dasharray:none;stroke-opacity:1" id="path426" /></g><g id="g428"><path d="M 56.95,474.739 H 538.35" style="fill:none;stroke:#000000;stroke-width:0.75;stroke-linecap:butt;stroke-linejoin:round;stroke-miterlimit:10;stroke-dasharray:none;stroke-opacity:1" id="path430" /></g><g id="g432"><path d="M 84.85,461.939 H 538.35" style="fill:none;stroke:#000000;stroke-width:0.5;stroke-linecap:butt;stroke-linejoin:round;stroke-miterlimit:10;stroke-dasharray:none;stroke-opacity:1" id="path434" /></g><g id="g436"><path d="M 84.85,449.239 H 538.35" style="fill:none;stroke:#000000;stroke-width:0.5;stroke-linecap:butt;stroke-linejoin:round;stroke-miterlimit:10;stroke-dasharray:none;stroke-opacity:1" id="path438" /></g><g id="g440"><path d="M 56.95,436.539 H 538.85" style="fill:none;stroke:#000000;stroke-width:0.5;stroke-linecap:butt;stroke-linejoin:round;stroke-miterlimit:10;stroke-dasharray:none;stroke-opacity:1" id="path442" /></g><g id="g444"><path d="M 56.7,490.089 V 436.289" style="fill:none;stroke:#000000;stroke-width:0.5;stroke-linecap:butt;stroke-linejoin:round;stroke-miterlimit:10;stroke-dasharray:none;stroke-opacity:1" id="path446" /></g><g id="g448"><path d="M 85.1,489.589 V 436.789" style="fill:none;stroke:#000000;stroke-width:0.5;stroke-linecap:butt;stroke-linejoin:round;stroke-miterlimit:10;stroke-dasharray:none;stroke-opacity:1" id="path450" /></g><g id="g452"><path d="M 113.5,489.589 V 436.789" style="fill:none;stroke:#000000;stroke-width:0.5;stroke-linecap:butt;stroke-linejoin:round;stroke-miterlimit:10;stroke-dasharray:none;stroke-opacity:1" id="path454" /></g><g id="g456"><path d="M 141.8,489.589 V 436.789" style="fill:none;stroke:#000000;stroke-width:0.5;stroke-linecap:butt;stroke-linejoin:round;stroke-miterlimit:10;stroke-dasharray:none;stroke-opacity:1" id="path458" /></g><g id="g460"><path d="M 175.8,489.589 V 436.789" style="fill:none;stroke:#000000;stroke-width:0.5;stroke-linecap:butt;stroke-linejoin:round;stroke-miterlimit:10;stroke-dasharray:none;stroke-opacity:1" id="path462" /></g><g id="g464"><path d="M 215.5,489.589 V 436.789" style="fill:none;stroke:#000000;stroke-width:0.5;stroke-linecap:butt;stroke-linejoin:round;stroke-miterlimit:10;stroke-dasharray:none;stroke-opacity:1" id="path466" /></g><g id="g468"><path d="M 255.2,489.589 V 436.789" style="fill:none;stroke:#000000;stroke-width:0.5;stroke-linecap:butt;stroke-linejoin:round;stroke-miterlimit:10;stroke-dasharray:none;stroke-opacity:1" id="path470" /></g><g id="g472"><path d="M 283.6,489.589 V 436.789" style="fill:none;stroke:#000000;stroke-width:0.5;stroke-linecap:butt;stroke-linejoin:round;stroke-miterlimit:10;stroke-dasharray:none;stroke-opacity:1" id="path474" /></g><g id="g476"><path d="M 306.3,489.589 V 436.789" style="fill:none;stroke:#000000;stroke-width:0.5;stroke-linecap:butt;stroke-linejoin:round;stroke-miterlimit:10;stroke-dasharray:none;stroke-opacity:1" id="path478" /></g><g id="g480"><path d="M 334.6,489.589 V 436.789" style="fill:none;stroke:#000000;stroke-width:0.5;stroke-linecap:butt;stroke-linejoin:round;stroke-miterlimit:10;stroke-dasharray:none;stroke-opacity:1" id="path482" /></g><g id="g484"><path d="M 360.1,489.589 V 436.789" style="fill:none;stroke:#000000;stroke-width:0.5;stroke-linecap:butt;stroke-linejoin:round;stroke-miterlimit:10;stroke-dasharray:none;stroke-opacity:1" id="path486" /></g><g id="g488"><path d="M 388.5,489.589 V 436.789" style="fill:none;stroke:#000000;stroke-width:0.5;stroke-linecap:butt;stroke-linejoin:round;stroke-miterlimit:10;stroke-dasharray:none;stroke-opacity:1" id="path490" /></g><g id="g492"><path d="M 428.2,489.589 V 436.789" style="fill:none;stroke:#000000;stroke-width:0.5;stroke-linecap:butt;stroke-linejoin:round;stroke-miterlimit:10;stroke-dasharray:none;stroke-opacity:1" id="path494" /></g><g id="g496"><path d="M 538.6,490.089 V 436.289" style="fill:none;stroke:#000000;stroke-width:0.5;stroke-linecap:butt;stroke-linejoin:round;stroke-miterlimit:10;stroke-dasharray:none;stroke-opacity:1" id="path498" /></g><g id="g500"><text transform="matrix(1,0,0,-1,61.25,479.939)" style="font-style:italic;font-variant:normal;font-size:10px;font-family:'Liberation Serif';-inkscape-font-specification:LiberationSerif-Italic;writing-mode:lr-tb;fill:#000000;fill-opacity:1;fill-rule:nonzero;stroke:none" id="text504"><tspan x="0 2.74" y="0" id="tspan502">|N</tspan></text></g><g id="g506"><text transform="matrix(1,0,0,-1,70.65,479.039)" style="font-variant:normal;font-weight:normal;font-size:5.8px;font-family:'Liberation Serif';-inkscape-font-specification:LiberationSerif;writing-mode:lr-tb;fill:#000000;fill-opacity:1;fill-rule:nonzero;stroke:none" id="text510"><tspan x="0 2.5694001 4.5008001" y="0" id="tspan508">cfg</tspan></text></g><g id="g512"><text transform="matrix(1,0,0,-1,78.05,479.939)" style="font-style:italic;font-variant:normal;font-size:10px;font-family:'Liberation Serif';-inkscape-font-specification:LiberationSerif-Italic;writing-mode:lr-tb;fill:#000000;fill-opacity:1;fill-rule:nonzero;stroke:none" id="text516"><tspan x="0" y="0" id="tspan514">|</tspan></text></g><g id="g518"><text transform="matrix(1,0,0,-1,94.25,479.889)" style="font-variant:normal;font-weight:normal;font-size:10px;font-family:Calibri;-inkscape-font-specification:Calibri;writing-mode:lr-tb;fill:#000000;fill-opacity:1;fill-rule:nonzero;stroke:none" id="text522"><tspan x="0" y="0" id="tspan520">№</tspan></text></g><g id="g524"><text transform="matrix(1,0,0,-1,126.35,479.939)" style="font-style:italic;font-variant:normal;font-size:10px;font-family:'Liberation Serif';-inkscape-font-specification:LiberationSerif-Italic;writing-mode:lr-tb;fill:#000000;fill-opacity:1;fill-rule:nonzero;stroke:none" id="text528"><tspan x="0" y="0" id="tspan526">i</tspan></text></g><g id="g530"><text transform="matrix(1,0,0,-1,148.1,479.939)" style="font-style:italic;font-variant:normal;font-size:10px;font-family:'Liberation Serif';-inkscape-font-specification:LiberationSerif-Italic;writing-mode:lr-tb;fill:#000000;fill-opacity:1;fill-rule:nonzero;stroke:none" id="text534"><tspan x="0" y="0" id="tspan532">t</tspan></text></g><g id="g536"><text transform="matrix(1,0,0,-1,150.9,479.939)" style="font-variant:normal;font-weight:normal;font-size:10px;font-family:'Liberation Serif';-inkscape-font-specification:LiberationSerif;writing-mode:lr-tb;fill:#000000;fill-opacity:1;fill-rule:nonzero;stroke:none" id="text540"><tspan x="0 2.5 5 9.5500002 13.98" y="0" id="tspan538">, сек</tspan></text></g><g id="g542"><text transform="matrix(1,0,0,-1,184.7,479.939)" style="font-variant:normal;font-weight:normal;font-size:10px;font-family:'Liberation Serif';-inkscape-font-specification:LiberationSerif;writing-mode:lr-tb;fill:#000000;fill-opacity:1;fill-rule:nonzero;stroke:none" id="text546"><tspan x="0 8.8900003 14.45" y="0" id="tspan544">MSE</tspan></text></g><g id="g548"><text transform="matrix(1,0,0,-1,205.25,479.039)" style="font-style:italic;font-variant:normal;font-size:5.8px;font-family:'Liberation Serif';-inkscape-font-specification:LiberationSerif-Italic;writing-mode:lr-tb;fill:#000000;fill-opacity:1;fill-rule:nonzero;stroke:none" id="text552"><tspan x="0" y="0" id="tspan550">f</tspan></text></g><g id="g554"><text transform="matrix(1,0,0,-1,220.4,479.939)" style="font-variant:normal;font-weight:normal;font-size:10px;font-family:'Liberation Serif';-inkscape-font-specification:LiberationSerif;writing-mode:lr-tb;fill:#000000;fill-opacity:1;fill-rule:nonzero;stroke:none" id="text558"><tspan x="0 6.6599998 15.55 21.110001" y="0" id="tspan556">RMSE</tspan></text></g><g id="g560"><text transform="matrix(1,0,0,-1,247.65,479.039)" style="font-style:italic;font-variant:normal;font-size:5.8px;font-family:'Liberation Serif';-inkscape-font-specification:LiberationSerif-Italic;writing-mode:lr-tb;fill:#000000;fill-opacity:1;fill-rule:nonzero;stroke:none" id="text564"><tspan x="0" y="0" id="tspan562">u</tspan></text></g><g id="g566"><text transform="matrix(1,0,0,-1,266.15,479.939)" style="font-style:italic;font-variant:normal;font-size:10px;font-family:'Liberation Serif';-inkscape-font-specification:LiberationSerif-Italic;writing-mode:lr-tb;fill:#000000;fill-opacity:1;fill-rule:nonzero;stroke:none" id="text570"><tspan x="0" y="0" id="tspan568">N</tspan></text></g><g id="g572"><text transform="matrix(1,0,0,-1,292.25,479.939)" style="font-style:italic;font-variant:normal;font-size:10px;font-family:'Liberation Serif';-inkscape-font-specification:LiberationSerif-Italic;writing-mode:lr-tb;fill:#000000;fill-opacity:1;fill-rule:nonzero;stroke:none" id="text576"><tspan x="0" y="0" id="tspan574">L</tspan></text></g><g id="g578"><text transform="matrix(1,0,0,-1,318.05,479.939)" style="font-style:italic;font-variant:normal;font-size:10px;font-family:'Liberation Serif';-inkscape-font-specification:LiberationSerif-Italic;writing-mode:lr-tb;fill:#000000;fill-opacity:1;fill-rule:nonzero;stroke:none" id="text582"><tspan x="0" y="0" id="tspan580">σ</tspan></text></g><g id="g584"><text transform="matrix(1,0,0,-1,340.6,479.939)" style="font-style:italic;font-variant:normal;font-size:10px;font-family:'Liberation Serif';-inkscape-font-specification:LiberationSerif-Italic;writing-mode:lr-tb;fill:#000000;fill-opacity:1;fill-rule:nonzero;stroke:none" id="text588"><tspan x="0 2.74" y="0" id="tspan586">|N</tspan></text></g><g id="g590"><text transform="matrix(1,0,0,-1,350,479.039)" style="font-style:italic;font-variant:normal;font-size:5.8px;font-family:'Liberation Serif';-inkscape-font-specification:LiberationSerif-Italic;writing-mode:lr-tb;fill:#000000;fill-opacity:1;fill-rule:nonzero;stroke:none" id="text594"><tspan x="0" y="0" id="tspan592">f</tspan></text></g><g id="g596"><text transform="matrix(1,0,0,-1,351.6,479.939)" style="font-style:italic;font-variant:normal;font-size:10px;font-family:'Liberation Serif';-inkscape-font-specification:LiberationSerif-Italic;writing-mode:lr-tb;fill:#000000;fill-opacity:1;fill-rule:nonzero;stroke:none" id="text600"><tspan x="0" y="0" id="tspan598">|</tspan></text></g><g id="g602"><text transform="matrix(1,0,0,-1,362.05,479.939)" style="font-style:italic;font-variant:normal;font-size:10px;font-family:'Liberation Serif';-inkscape-font-specification:LiberationSerif-Italic;writing-mode:lr-tb;fill:#000000;fill-opacity:1;fill-rule:nonzero;stroke:none" id="text606"><tspan x="0 2.74" y="0" id="tspan604">|N</tspan></text></g><g id="g608"><text transform="matrix(1,0,0,-1,371.45,479.039)" style="font-variant:normal;font-weight:normal;font-size:5.8px;font-family:'Liberation Serif';-inkscape-font-specification:LiberationSerif;writing-mode:lr-tb;fill:#000000;fill-opacity:1;fill-rule:nonzero;stroke:none" id="text612"><tspan x="0 2.9000001 5.4693999 7.0760002 9.6454" y="0" id="tspan610">batch</tspan></text></g><g id="g614"><text transform="matrix(1,0,0,-1,384,479.939)" style="font-style:italic;font-variant:normal;font-size:10px;font-family:'Liberation Serif';-inkscape-font-specification:LiberationSerif-Italic;writing-mode:lr-tb;fill:#000000;fill-opacity:1;fill-rule:nonzero;stroke:none" id="text618"><tspan x="0" y="0" id="tspan616">|</tspan></text></g><g id="g620"><text transform="matrix(1,0,0,-1,405.1,479.939)" style="font-style:italic;font-variant:normal;font-size:10px;font-family:'Liberation Serif';-inkscape-font-specification:LiberationSerif-Italic;writing-mode:lr-tb;fill:#000000;fill-opacity:1;fill-rule:nonzero;stroke:none" id="text624"><tspan x="0 2.77" y="0" id="tspan622">lr</tspan></text></g><g id="g626"><text transform="matrix(1,0,0,-1,459.25,479.889)" style="font-style:italic;font-variant:normal;font-size:10px;font-family:'Liberation Serif';-inkscape-font-specification:LiberationSerif-Italic;writing-mode:lr-tb;fill:#000000;fill-opacity:1;fill-rule:nonzero;stroke:none" id="text630"><tspan x="0 2.77" y="0" id="tspan628">lr</tspan></text></g><g id="g632"><text transform="matrix(1,0,0,-1,468.16,479.889)" style="font-variant:normal;font-weight:normal;font-size:10px;font-family:Calibri;-inkscape-font-specification:Calibri;writing-mode:lr-tb;fill:#000000;fill-opacity:1;fill-rule:nonzero;stroke:none" id="text636"><tspan x="0 3.9100001 8.1300001 13.38 18.35 23.6 28.85 31.139999 36.110001" y="0" id="tspan634">scheduler</tspan></text></g><g id="g638"><text transform="matrix(1,0,0,-1,63.4,451.989)" style="font-variant:normal;font-weight:normal;font-size:10px;font-family:Calibri;-inkscape-font-specification:Calibri;writing-mode:lr-tb;fill:#000000;fill-opacity:1;fill-rule:nonzero;stroke:none" id="text642"><tspan x="0 5.0599999 10.12" y="0" id="tspan640">660</tspan></text></g><g id="g644"><text transform="matrix(1,0,0,-1,91.8,464.689)" style="font-variant:normal;font-weight:normal;font-size:10px;font-family:Calibri;-inkscape-font-specification:Calibri;writing-mode:lr-tb;fill:#000000;fill-opacity:1;fill-rule:nonzero;stroke:none" id="text648"><tspan x="0 5.0599999 10.12" y="0" id="tspan646">492</tspan></text></g><g id="g650"><text transform="matrix(1,0,0,-1,120.15,464.689)" style="font-variant:normal;font-weight:normal;font-size:10px;font-family:Calibri;-inkscape-font-specification:Calibri;writing-mode:lr-tb;fill:#000000;fill-opacity:1;fill-rule:nonzero;stroke:none" id="text654"><tspan x="0 5.0599999 10.12" y="0" id="tspan652">196</tspan></text></g><g id="g656"><text transform="matrix(1,0,0,-1,150.05,464.689)" style="font-variant:normal;font-weight:normal;font-size:10px;font-family:Calibri;-inkscape-font-specification:Calibri;writing-mode:lr-tb;fill:#000000;fill-opacity:1;fill-rule:nonzero;stroke:none" id="text660"><tspan x="0 5.0599999 10.12 12.64" y="0" id="tspan658">30.0</tspan></text></g><g id="g662"><text transform="matrix(1,0,0,-1,179.45,464.689)" style="font-variant:normal;font-weight:normal;font-size:10px;font-family:Calibri;-inkscape-font-specification:Calibri;writing-mode:lr-tb;fill:#000000;fill-opacity:1;fill-rule:nonzero;stroke:none" id="text666"><tspan x="0 5.0599999 7.5799999 12.64 17.52 22.5 27.559999" y="0" id="tspan664">1.2E−03</tspan></text></g><g id="g668"><text transform="matrix(1,0,0,-1,219.15,464.689)" style="font-variant:normal;font-weight:normal;font-size:10px;font-family:Calibri;-inkscape-font-specification:Calibri;writing-mode:lr-tb;fill:#000000;fill-opacity:1;fill-rule:nonzero;stroke:none" id="text672"><tspan x="0 5.0599999 7.5799999 12.64 17.52 22.5 27.559999" y="0" id="tspan670">2.4E−04</tspan></text></g><g id="g674"><text transform="matrix(1,0,0,-1,259.35,464.689)" style="font-variant:normal;font-weight:normal;font-size:10px;font-family:Calibri;-inkscape-font-specification:Calibri;writing-mode:lr-tb;fill:#000000;fill-opacity:1;fill-rule:nonzero;stroke:none" id="text678"><tspan x="0 5.0599999 10.12 15.18" y="0" id="tspan676">1504</tspan></text></g><g id="g680"><text transform="matrix(1,0,0,-1,292.5,464.689)" style="font-variant:normal;font-weight:normal;font-size:10px;font-family:Calibri;-inkscape-font-specification:Calibri;writing-mode:lr-tb;fill:#000000;fill-opacity:1;fill-rule:nonzero;stroke:none" id="text684"><tspan x="0" y="0" id="tspan682">2</tspan></text></g><g id="g686"><text transform="matrix(1,0,0,-1,314.8,464.689)" style="font-variant:normal;font-weight:normal;font-size:10px;font-family:Calibri;-inkscape-font-specification:Calibri;writing-mode:lr-tb;fill:#000000;fill-opacity:1;fill-rule:nonzero;stroke:none" id="text690"><tspan x="0 3.9100001 6.1999998" y="0" id="tspan688">sin</tspan></text></g><g id="g692"><text transform="matrix(1,0,0,-1,340.9,464.689)" style="font-variant:normal;font-weight:normal;font-size:10px;font-family:Calibri;-inkscape-font-specification:Calibri;writing-mode:lr-tb;fill:#000000;fill-opacity:1;fill-rule:nonzero;stroke:none" id="text696"><tspan x="0 5.0599999" y="0" id="tspan694">10</tspan></text></g><g id="g698"><text transform="matrix(1,0,0,-1,351.05,468.689)" style="font-variant:normal;font-weight:normal;font-size:5.8px;font-family:Calibri;-inkscape-font-specification:Calibri;writing-mode:lr-tb;fill:#000000;fill-opacity:1;fill-rule:nonzero;stroke:none" id="text702"><tspan x="0" y="0" id="tspan700">5</tspan></text></g><g id="g704"><text transform="matrix(1,0,0,-1,366.8,464.689)" style="font-variant:normal;font-weight:normal;font-size:10px;font-family:Calibri;-inkscape-font-specification:Calibri;writing-mode:lr-tb;fill:#000000;fill-opacity:1;fill-rule:nonzero;stroke:none" id="text708"><tspan x="0 5.0599999 10.12" y="0" id="tspan706">640</tspan></text></g><g id="g710"><text transform="matrix(1,0,0,-1,392.1,464.689)" style="font-variant:normal;font-weight:normal;font-size:10px;font-family:Calibri;-inkscape-font-specification:Calibri;writing-mode:lr-tb;fill:#000000;fill-opacity:1;fill-rule:nonzero;stroke:none" id="text714"><tspan x="0 5.0599999 7.5799999 12.64 17.52 22.5 27.559999" y="0" id="tspan712">7.1E−03</tspan></text></g><g id="g716"><text transform="matrix(1,0,0,-1,432.9,465.689)" style="font-variant:normal;font-weight:normal;font-size:8px;font-family:Consolas;-inkscape-font-specification:Consolas;writing-mode:lr-tb;fill:#000000;fill-opacity:1;fill-rule:nonzero;stroke:none" id="text720"><tspan x="0 4.3920002 8.7840004 13.176 17.568001 21.959999 26.351999 30.743999 35.136002 39.528 43.919998 48.312 52.703999 57.096001 61.487999 65.879997 70.272003 74.664001 79.056 83.447998 87.839996 92.232002 96.624001" y="0" id="tspan718">ReduceLROnPlateau-0.5-2</tspan></text></g><g id="g722"><text transform="matrix(1,0,0,-1,91.8,451.989)" style="font-variant:normal;font-weight:normal;font-size:10px;font-family:Calibri;-inkscape-font-specification:Calibri;writing-mode:lr-tb;fill:#000000;fill-opacity:1;fill-rule:nonzero;stroke:none" id="text726"><tspan x="0 5.0599999 10.12" y="0" id="tspan724">629</tspan></text></g><g id="g728"><text transform="matrix(1,0,0,-1,122.65,451.989)" style="font-variant:normal;font-weight:normal;font-size:10px;font-family:Calibri;-inkscape-font-specification:Calibri;writing-mode:lr-tb;fill:#000000;fill-opacity:1;fill-rule:nonzero;stroke:none" id="text732"><tspan x="0 5.0599999" y="0" id="tspan730">77</tspan></text></g><g id="g734"><text transform="matrix(1,0,0,-1,150.05,451.989)" style="font-variant:normal;font-weight:normal;font-size:10px;font-family:Calibri;-inkscape-font-specification:Calibri;writing-mode:lr-tb;fill:#000000;fill-opacity:1;fill-rule:nonzero;stroke:none" id="text738"><tspan x="0 5.0599999 10.12 12.64" y="0" id="tspan736">30.0</tspan></text></g><g id="g740"><text transform="matrix(1,0,0,-1,179.45,451.989)" style="font-variant:normal;font-weight:normal;font-size:10px;font-family:Calibri;-inkscape-font-specification:Calibri;writing-mode:lr-tb;fill:#000000;fill-opacity:1;fill-rule:nonzero;stroke:none" id="text744"><tspan x="0 5.0599999 7.5799999 12.64 17.52 22.5 27.559999" y="0" id="tspan742">1.3E−03</tspan></text></g><g id="g746"><text transform="matrix(1,0,0,-1,219.15,451.989)" style="font-variant:normal;font-weight:normal;font-size:10px;font-family:Calibri;-inkscape-font-specification:Calibri;writing-mode:lr-tb;fill:#000000;fill-opacity:1;fill-rule:nonzero;stroke:none" id="text750"><tspan x="0 5.0599999 7.5799999 12.64 17.52 22.5 27.559999" y="0" id="tspan748">2.0E−04</tspan></text></g><g id="g752"><text transform="matrix(1,0,0,-1,259.35,451.989)" style="font-variant:normal;font-weight:normal;font-size:10px;font-family:Calibri;-inkscape-font-specification:Calibri;writing-mode:lr-tb;fill:#000000;fill-opacity:1;fill-rule:nonzero;stroke:none" id="text756"><tspan x="0 5.0599999 10.12 15.18" y="0" id="tspan754">1568</tspan></text></g><g id="g758"><text transform="matrix(1,0,0,-1,292.5,451.989)" style="font-variant:normal;font-weight:normal;font-size:10px;font-family:Calibri;-inkscape-font-specification:Calibri;writing-mode:lr-tb;fill:#000000;fill-opacity:1;fill-rule:nonzero;stroke:none" id="text762"><tspan x="0" y="0" id="tspan760">2</tspan></text></g><g id="g764"><text transform="matrix(1,0,0,-1,314.8,451.989)" style="font-variant:normal;font-weight:normal;font-size:10px;font-family:Calibri;-inkscape-font-specification:Calibri;writing-mode:lr-tb;fill:#000000;fill-opacity:1;fill-rule:nonzero;stroke:none" id="text768"><tspan x="0 3.9100001 6.1999998" y="0" id="tspan766">sin</tspan></text></g><g id="g770"><text transform="matrix(1,0,0,-1,340.9,451.989)" style="font-variant:normal;font-weight:normal;font-size:10px;font-family:Calibri;-inkscape-font-specification:Calibri;writing-mode:lr-tb;fill:#000000;fill-opacity:1;fill-rule:nonzero;stroke:none" id="text774"><tspan x="0 5.0599999" y="0" id="tspan772">10</tspan></text></g><g id="g776"><text transform="matrix(1,0,0,-1,351.05,455.989)" style="font-variant:normal;font-weight:normal;font-size:5.8px;font-family:Calibri;-inkscape-font-specification:Calibri;writing-mode:lr-tb;fill:#000000;fill-opacity:1;fill-rule:nonzero;stroke:none" id="text780"><tspan x="0" y="0" id="tspan778">5</tspan></text></g><g id="g782"><text transform="matrix(1,0,0,-1,366.8,451.989)" style="font-variant:normal;font-weight:normal;font-size:10px;font-family:Calibri;-inkscape-font-specification:Calibri;writing-mode:lr-tb;fill:#000000;fill-opacity:1;fill-rule:nonzero;stroke:none" id="text786"><tspan x="0 5.0599999 10.12" y="0" id="tspan784">160</tspan></text></g><g id="g788"><text transform="matrix(1,0,0,-1,392.1,451.989)" style="font-variant:normal;font-weight:normal;font-size:10px;font-family:Calibri;-inkscape-font-specification:Calibri;writing-mode:lr-tb;fill:#000000;fill-opacity:1;fill-rule:nonzero;stroke:none" id="text792"><tspan x="0 5.0599999 7.5799999 12.64 17.52 22.5 27.559999" y="0" id="tspan790">8.1E−03</tspan></text></g><g id="g794"><text transform="matrix(1,0,0,-1,432.9,452.989)" style="font-variant:normal;font-weight:normal;font-size:8px;font-family:Consolas;-inkscape-font-specification:Consolas;writing-mode:lr-tb;fill:#000000;fill-opacity:1;fill-rule:nonzero;stroke:none" id="text798"><tspan x="0 4.3920002 8.7840004 13.176 17.568001 21.959999 26.351999 30.743999 35.136002 39.528 43.919998 48.312 52.703999 57.096001 61.487999 65.879997 70.272003 74.664001 79.056 83.447998 87.839996 92.232002 96.624001" y="0" id="tspan796">ReduceLROnPlateau-0.5-2</tspan></text></g><g id="g800"><text transform="matrix(1,0,0,-1,91.8,439.289)" style="font-variant:normal;font-weight:normal;font-size:10px;font-family:Calibri;-inkscape-font-specification:Calibri;writing-mode:lr-tb;fill:#000000;fill-opacity:1;fill-rule:nonzero;stroke:none" id="text804"><tspan x="0 5.0599999 10.12" y="0" id="tspan802">404</tspan></text></g><g id="g806"><text transform="matrix(1,0,0,-1,120.15,439.289)" style="font-variant:normal;font-weight:normal;font-size:10px;font-family:Calibri;-inkscape-font-specification:Calibri;writing-mode:lr-tb;fill:#000000;fill-opacity:1;fill-rule:nonzero;stroke:none" id="text810"><tspan x="0 5.0599999 10.12" y="0" id="tspan808">267</tspan></text></g><g id="g812"><text transform="matrix(1,0,0,-1,150.05,439.289)" style="font-variant:normal;font-weight:normal;font-size:10px;font-family:Calibri;-inkscape-font-specification:Calibri;writing-mode:lr-tb;fill:#000000;fill-opacity:1;fill-rule:nonzero;stroke:none" id="text816"><tspan x="0 5.0599999 10.12 12.64" y="0" id="tspan814">30.0</tspan></text></g><g id="g818"><text transform="matrix(1,0,0,-1,179.45,439.289)" style="font-variant:normal;font-weight:normal;font-size:10px;font-family:Calibri;-inkscape-font-specification:Calibri;writing-mode:lr-tb;fill:#000000;fill-opacity:1;fill-rule:nonzero;stroke:none" id="text822"><tspan x="0 5.0599999 7.5799999 12.64 17.52 22.5 27.559999" y="0" id="tspan820">1.3E−03</tspan></text></g><g id="g824"><text transform="matrix(1,0,0,-1,219.15,439.289)" style="font-variant:normal;font-weight:normal;font-size:10px;font-family:Calibri;-inkscape-font-specification:Calibri;writing-mode:lr-tb;fill:#000000;fill-opacity:1;fill-rule:nonzero;stroke:none" id="text828"><tspan x="0 5.0599999 7.5799999 12.64 17.52 22.5 27.559999" y="0" id="tspan826">1.6E−04</tspan></text></g><g id="g830"><text transform="matrix(1,0,0,-1,261.9,439.289)" style="font-variant:normal;font-weight:normal;font-size:10px;font-family:Calibri;-inkscape-font-specification:Calibri;writing-mode:lr-tb;fill:#000000;fill-opacity:1;fill-rule:nonzero;stroke:none" id="text834"><tspan x="0 5.0599999 10.12" y="0" id="tspan832">896</tspan></text></g><g id="g836"><text transform="matrix(1,0,0,-1,292.5,439.289)" style="font-variant:normal;font-weight:normal;font-size:10px;font-family:Calibri;-inkscape-font-specification:Calibri;writing-mode:lr-tb;fill:#000000;fill-opacity:1;fill-rule:nonzero;stroke:none" id="text840"><tspan x="0" y="0" id="tspan838">2</tspan></text></g><g id="g842"><text transform="matrix(1,0,0,-1,314.8,439.289)" style="font-variant:normal;font-weight:normal;font-size:10px;font-family:Calibri;-inkscape-font-specification:Calibri;writing-mode:lr-tb;fill:#000000;fill-opacity:1;fill-rule:nonzero;stroke:none" id="text846"><tspan x="0 3.9100001 6.1999998" y="0" id="tspan844">sin</tspan></text></g><g id="g848"><text transform="matrix(1,0,0,-1,340.9,439.289)" style="font-variant:normal;font-weight:normal;font-size:10px;font-family:Calibri;-inkscape-font-specification:Calibri;writing-mode:lr-tb;fill:#000000;fill-opacity:1;fill-rule:nonzero;stroke:none" id="text852"><tspan x="0 5.0599999" y="0" id="tspan850">10</tspan></text></g><g id="g854"><text transform="matrix(1,0,0,-1,351.05,443.289)" style="font-variant:normal;font-weight:normal;font-size:5.8px;font-family:Calibri;-inkscape-font-specification:Calibri;writing-mode:lr-tb;fill:#000000;fill-opacity:1;fill-rule:nonzero;stroke:none" id="text858"><tspan x="0" y="0" id="tspan856">5</tspan></text></g><g id="g860"><text transform="matrix(1,0,0,-1,366.8,439.289)" style="font-variant:normal;font-weight:normal;font-size:10px;font-family:Calibri;-inkscape-font-specification:Calibri;writing-mode:lr-tb;fill:#000000;fill-opacity:1;fill-rule:nonzero;stroke:none" id="text864"><tspan x="0 5.0599999 10.12" y="0" id="tspan862">608</tspan></text></g><g id="g866"><text transform="matrix(1,0,0,-1,392.1,439.289)" style="font-variant:normal;font-weight:normal;font-size:10px;font-family:Calibri;-inkscape-font-specification:Calibri;writing-mode:lr-tb;fill:#000000;fill-opacity:1;fill-rule:nonzero;stroke:none" id="text870"><tspan x="0 5.0599999 7.5799999 12.64 17.52 22.5 27.559999" y="0" id="tspan868">1.2E−02</tspan></text></g><g id="g872"><text transform="matrix(1,0,0,-1,432.9,440.289)" style="font-variant:normal;font-weight:normal;font-size:8px;font-family:Consolas;-inkscape-font-specification:Consolas;writing-mode:lr-tb;fill:#000000;fill-opacity:1;fill-rule:nonzero;stroke:none" id="text876"><tspan x="0 4.3920002 8.7840004 13.176 17.568001 21.959999 26.351999 30.743999 35.136002 39.528 43.919998 48.312 52.703999 57.096001 61.487999 65.879997 70.272003 74.664001 79.056 83.447998 87.839996 92.232002 96.624001" y="0" id="tspan874">ReduceLROnPlateau-0.5-2</tspan></text></g></g><metadata id="metadata3913"><rdf:RDF><cc:Work rdf:about=""><dc:title>Лучшие конфигурации модели, полученные для 2-мерной задачи на области [0; 2]</dc:title></cc:Work></rdf:RDF></metadata></svg>
