<?xml version="1.0" encoding="UTF-8" standalone="no"?>
<!-- Created with Inkscape (http://www.inkscape.org/) -->

<svg version="1.1" id="svg2" xml:space="preserve" width="172.17999mm" height="20.979445mm" viewBox="0 0 650.75905 79.29239" xmlns="http://www.w3.org/2000/svg" xmlns:svg="http://www.w3.org/2000/svg" xmlns:rdf="http://www.w3.org/1999/02/22-rdf-syntax-ns#" xmlns:cc="http://creativecommons.org/ns#" xmlns:dc="http://purl.org/dc/elements/1.1/"><title id="title6217">Лучшие конфигурации модели, полученные для 5-мерной задачи</title><defs id="defs6"><clipPath clipPathUnits="userSpaceOnUse" id="clipPath16"><path d="M 0,0.028 H 595.275 V 841.889 H 0 Z" clip-rule="evenodd" id="path14" /></clipPath><clipPath clipPathUnits="userSpaceOnUse" id="clipPath922"><path d="M 0,0.028 H 595.275 V 841.889 H 0 Z" clip-rule="evenodd" id="path920" /></clipPath><clipPath clipPathUnits="userSpaceOnUse" id="clipPath978"><path d="M 56.7,178.489 H 538.6 V 359.588 H 56.7 Z" clip-rule="evenodd" id="path976" /></clipPath><clipPath clipPathUnits="userSpaceOnUse" id="clipPath1414"><path d="M 97.581,211.389 H 294.654 V 355.339 H 97.581 Z" clip-rule="evenodd" id="path1412" /></clipPath><clipPath clipPathUnits="userSpaceOnUse" id="clipPath1426"><path d="M 56.7,178.489 H 538.6 V 359.588 H 56.7 Z" clip-rule="evenodd" id="path1424" /></clipPath><clipPath clipPathUnits="userSpaceOnUse" id="clipPath1792"><path d="M 338.156,211.389 H 535.229 V 355.339 H 338.156 Z" clip-rule="evenodd" id="path1790" /></clipPath><clipPath clipPathUnits="userSpaceOnUse" id="clipPath1804"><path d="M 56.7,178.489 H 538.6 V 359.588 H 56.7 Z" clip-rule="evenodd" id="path1802" /></clipPath></defs><g id="g8" transform="matrix(1.3333333,0,0,-1.3333333,-71.487137,691.49818)"><g id="g396" /><g id="g402"><path d="M 56.45,515.539 H 538.85" style="fill:none;stroke:#000000;stroke-width:0.5;stroke-linecap:butt;stroke-linejoin:round;stroke-miterlimit:10;stroke-dasharray:none;stroke-opacity:1" id="path404" /></g><g id="g406"><path d="M 56.95,502.339 H 538.35" style="fill:none;stroke:#000000;stroke-width:1.5;stroke-linecap:butt;stroke-linejoin:round;stroke-miterlimit:10;stroke-dasharray:none;stroke-opacity:1" id="path408" /></g><g id="g410"><path d="M 56.95,500.439 H 538.35" style="fill:none;stroke:#000000;stroke-width:0.75;stroke-linecap:butt;stroke-linejoin:round;stroke-miterlimit:10;stroke-dasharray:none;stroke-opacity:1" id="path412" /></g><g id="g414"><path d="M 84.85,487.639 H 538.35" style="fill:none;stroke:#000000;stroke-width:0.5;stroke-linecap:butt;stroke-linejoin:round;stroke-miterlimit:10;stroke-dasharray:none;stroke-opacity:1" id="path416" /></g><g id="g418"><path d="M 84.85,474.939 H 538.35" style="fill:none;stroke:#000000;stroke-width:0.5;stroke-linecap:butt;stroke-linejoin:round;stroke-miterlimit:10;stroke-dasharray:none;stroke-opacity:1" id="path420" /></g><g id="g422"><path d="M 56.95,462.239 H 538.85" style="fill:none;stroke:#000000;stroke-width:0.5;stroke-linecap:butt;stroke-linejoin:round;stroke-miterlimit:10;stroke-dasharray:none;stroke-opacity:1" id="path424" /></g><g id="g426"><path d="M 56.7,515.789 V 461.989" style="fill:none;stroke:#000000;stroke-width:0.5;stroke-linecap:butt;stroke-linejoin:round;stroke-miterlimit:10;stroke-dasharray:none;stroke-opacity:1" id="path428" /></g><g id="g430"><path d="M 85.1,515.289 V 462.489" style="fill:none;stroke:#000000;stroke-width:0.5;stroke-linecap:butt;stroke-linejoin:round;stroke-miterlimit:10;stroke-dasharray:none;stroke-opacity:1" id="path432" /></g><g id="g434"><path d="M 113.5,515.289 V 462.489" style="fill:none;stroke:#000000;stroke-width:0.5;stroke-linecap:butt;stroke-linejoin:round;stroke-miterlimit:10;stroke-dasharray:none;stroke-opacity:1" id="path436" /></g><g id="g438"><path d="M 141.8,515.289 V 462.489" style="fill:none;stroke:#000000;stroke-width:0.5;stroke-linecap:butt;stroke-linejoin:round;stroke-miterlimit:10;stroke-dasharray:none;stroke-opacity:1" id="path440" /></g><g id="g442"><path d="M 175.8,515.289 V 462.489" style="fill:none;stroke:#000000;stroke-width:0.5;stroke-linecap:butt;stroke-linejoin:round;stroke-miterlimit:10;stroke-dasharray:none;stroke-opacity:1" id="path444" /></g><g id="g446"><path d="M 215.5,515.289 V 462.489" style="fill:none;stroke:#000000;stroke-width:0.5;stroke-linecap:butt;stroke-linejoin:round;stroke-miterlimit:10;stroke-dasharray:none;stroke-opacity:1" id="path448" /></g><g id="g450"><path d="M 255.2,515.289 V 462.489" style="fill:none;stroke:#000000;stroke-width:0.5;stroke-linecap:butt;stroke-linejoin:round;stroke-miterlimit:10;stroke-dasharray:none;stroke-opacity:1" id="path452" /></g><g id="g454"><path d="M 283.6,515.289 V 462.489" style="fill:none;stroke:#000000;stroke-width:0.5;stroke-linecap:butt;stroke-linejoin:round;stroke-miterlimit:10;stroke-dasharray:none;stroke-opacity:1" id="path456" /></g><g id="g458"><path d="M 306.3,515.289 V 462.489" style="fill:none;stroke:#000000;stroke-width:0.5;stroke-linecap:butt;stroke-linejoin:round;stroke-miterlimit:10;stroke-dasharray:none;stroke-opacity:1" id="path460" /></g><g id="g462"><path d="M 334.6,515.289 V 462.489" style="fill:none;stroke:#000000;stroke-width:0.5;stroke-linecap:butt;stroke-linejoin:round;stroke-miterlimit:10;stroke-dasharray:none;stroke-opacity:1" id="path464" /></g><g id="g466"><path d="M 360.1,515.289 V 462.489" style="fill:none;stroke:#000000;stroke-width:0.5;stroke-linecap:butt;stroke-linejoin:round;stroke-miterlimit:10;stroke-dasharray:none;stroke-opacity:1" id="path468" /></g><g id="g470"><path d="M 388.5,515.289 V 462.489" style="fill:none;stroke:#000000;stroke-width:0.5;stroke-linecap:butt;stroke-linejoin:round;stroke-miterlimit:10;stroke-dasharray:none;stroke-opacity:1" id="path472" /></g><g id="g474"><path d="M 428.2,515.289 V 462.489" style="fill:none;stroke:#000000;stroke-width:0.5;stroke-linecap:butt;stroke-linejoin:round;stroke-miterlimit:10;stroke-dasharray:none;stroke-opacity:1" id="path476" /></g><g id="g478"><path d="M 538.6,515.789 V 461.989" style="fill:none;stroke:#000000;stroke-width:0.5;stroke-linecap:butt;stroke-linejoin:round;stroke-miterlimit:10;stroke-dasharray:none;stroke-opacity:1" id="path480" /></g><g id="g482"><text transform="matrix(1,0,0,-1,61.25,505.639)" style="font-style:italic;font-variant:normal;font-size:10px;font-family:'Liberation Serif';-inkscape-font-specification:LiberationSerif-Italic;writing-mode:lr-tb;fill:#000000;fill-opacity:1;fill-rule:nonzero;stroke:none" id="text486"><tspan x="0 2.74" y="0" id="tspan484">|N</tspan></text></g><g id="g488"><text transform="matrix(1,0,0,-1,70.65,504.739)" style="font-variant:normal;font-weight:normal;font-size:5.8px;font-family:'Liberation Serif';-inkscape-font-specification:LiberationSerif;writing-mode:lr-tb;fill:#000000;fill-opacity:1;fill-rule:nonzero;stroke:none" id="text492"><tspan x="0 2.5694001 4.5008001" y="0" id="tspan490">cfg</tspan></text></g><g id="g494"><text transform="matrix(1,0,0,-1,78.05,505.639)" style="font-style:italic;font-variant:normal;font-size:10px;font-family:'Liberation Serif';-inkscape-font-specification:LiberationSerif-Italic;writing-mode:lr-tb;fill:#000000;fill-opacity:1;fill-rule:nonzero;stroke:none" id="text498"><tspan x="0" y="0" id="tspan496">|</tspan></text></g><g id="g500"><text transform="matrix(1,0,0,-1,94.25,505.589)" style="font-variant:normal;font-weight:normal;font-size:10px;font-family:Calibri;-inkscape-font-specification:Calibri;writing-mode:lr-tb;fill:#000000;fill-opacity:1;fill-rule:nonzero;stroke:none" id="text504"><tspan x="0" y="0" id="tspan502">№</tspan></text></g><g id="g506"><text transform="matrix(1,0,0,-1,126.35,505.639)" style="font-style:italic;font-variant:normal;font-size:10px;font-family:'Liberation Serif';-inkscape-font-specification:LiberationSerif-Italic;writing-mode:lr-tb;fill:#000000;fill-opacity:1;fill-rule:nonzero;stroke:none" id="text510"><tspan x="0" y="0" id="tspan508">i</tspan></text></g><g id="g512"><text transform="matrix(1,0,0,-1,148.1,505.639)" style="font-style:italic;font-variant:normal;font-size:10px;font-family:'Liberation Serif';-inkscape-font-specification:LiberationSerif-Italic;writing-mode:lr-tb;fill:#000000;fill-opacity:1;fill-rule:nonzero;stroke:none" id="text516"><tspan x="0" y="0" id="tspan514">t</tspan></text></g><g id="g518"><text transform="matrix(1,0,0,-1,150.9,505.639)" style="font-variant:normal;font-weight:normal;font-size:10px;font-family:'Liberation Serif';-inkscape-font-specification:LiberationSerif;writing-mode:lr-tb;fill:#000000;fill-opacity:1;fill-rule:nonzero;stroke:none" id="text522"><tspan x="0 2.5 5 9.5500002 13.98" y="0" id="tspan520">, сек</tspan></text></g><g id="g524"><text transform="matrix(1,0,0,-1,184.7,505.639)" style="font-variant:normal;font-weight:normal;font-size:10px;font-family:'Liberation Serif';-inkscape-font-specification:LiberationSerif;writing-mode:lr-tb;fill:#000000;fill-opacity:1;fill-rule:nonzero;stroke:none" id="text528"><tspan x="0 8.8900003 14.45" y="0" id="tspan526">MSE</tspan></text></g><g id="g530"><text transform="matrix(1,0,0,-1,205.25,504.739)" style="font-style:italic;font-variant:normal;font-size:5.8px;font-family:'Liberation Serif';-inkscape-font-specification:LiberationSerif-Italic;writing-mode:lr-tb;fill:#000000;fill-opacity:1;fill-rule:nonzero;stroke:none" id="text534"><tspan x="0" y="0" id="tspan532">f</tspan></text></g><g id="g536"><text transform="matrix(1,0,0,-1,220.4,505.639)" style="font-variant:normal;font-weight:normal;font-size:10px;font-family:'Liberation Serif';-inkscape-font-specification:LiberationSerif;writing-mode:lr-tb;fill:#000000;fill-opacity:1;fill-rule:nonzero;stroke:none" id="text540"><tspan x="0 6.6599998 15.55 21.110001" y="0" id="tspan538">RMSE</tspan></text></g><g id="g542"><text transform="matrix(1,0,0,-1,247.65,504.739)" style="font-style:italic;font-variant:normal;font-size:5.8px;font-family:'Liberation Serif';-inkscape-font-specification:LiberationSerif-Italic;writing-mode:lr-tb;fill:#000000;fill-opacity:1;fill-rule:nonzero;stroke:none" id="text546"><tspan x="0" y="0" id="tspan544">u</tspan></text></g><g id="g548"><text transform="matrix(1,0,0,-1,266.15,505.639)" style="font-style:italic;font-variant:normal;font-size:10px;font-family:'Liberation Serif';-inkscape-font-specification:LiberationSerif-Italic;writing-mode:lr-tb;fill:#000000;fill-opacity:1;fill-rule:nonzero;stroke:none" id="text552"><tspan x="0" y="0" id="tspan550">N</tspan></text></g><g id="g554"><text transform="matrix(1,0,0,-1,292.25,505.639)" style="font-style:italic;font-variant:normal;font-size:10px;font-family:'Liberation Serif';-inkscape-font-specification:LiberationSerif-Italic;writing-mode:lr-tb;fill:#000000;fill-opacity:1;fill-rule:nonzero;stroke:none" id="text558"><tspan x="0" y="0" id="tspan556">L</tspan></text></g><g id="g560"><text transform="matrix(1,0,0,-1,318.05,505.639)" style="font-style:italic;font-variant:normal;font-size:10px;font-family:'Liberation Serif';-inkscape-font-specification:LiberationSerif-Italic;writing-mode:lr-tb;fill:#000000;fill-opacity:1;fill-rule:nonzero;stroke:none" id="text564"><tspan x="0" y="0" id="tspan562">σ</tspan></text></g><g id="g566"><text transform="matrix(1,0,0,-1,340.6,505.639)" style="font-style:italic;font-variant:normal;font-size:10px;font-family:'Liberation Serif';-inkscape-font-specification:LiberationSerif-Italic;writing-mode:lr-tb;fill:#000000;fill-opacity:1;fill-rule:nonzero;stroke:none" id="text570"><tspan x="0 2.74" y="0" id="tspan568">|N</tspan></text></g><g id="g572"><text transform="matrix(1,0,0,-1,350,504.739)" style="font-style:italic;font-variant:normal;font-size:5.8px;font-family:'Liberation Serif';-inkscape-font-specification:LiberationSerif-Italic;writing-mode:lr-tb;fill:#000000;fill-opacity:1;fill-rule:nonzero;stroke:none" id="text576"><tspan x="0" y="0" id="tspan574">f</tspan></text></g><g id="g578"><text transform="matrix(1,0,0,-1,351.6,505.639)" style="font-style:italic;font-variant:normal;font-size:10px;font-family:'Liberation Serif';-inkscape-font-specification:LiberationSerif-Italic;writing-mode:lr-tb;fill:#000000;fill-opacity:1;fill-rule:nonzero;stroke:none" id="text582"><tspan x="0" y="0" id="tspan580">|</tspan></text></g><g id="g584"><text transform="matrix(1,0,0,-1,362.05,505.639)" style="font-style:italic;font-variant:normal;font-size:10px;font-family:'Liberation Serif';-inkscape-font-specification:LiberationSerif-Italic;writing-mode:lr-tb;fill:#000000;fill-opacity:1;fill-rule:nonzero;stroke:none" id="text588"><tspan x="0 2.74" y="0" id="tspan586">|N</tspan></text></g><g id="g590"><text transform="matrix(1,0,0,-1,371.45,504.739)" style="font-variant:normal;font-weight:normal;font-size:5.8px;font-family:'Liberation Serif';-inkscape-font-specification:LiberationSerif;writing-mode:lr-tb;fill:#000000;fill-opacity:1;fill-rule:nonzero;stroke:none" id="text594"><tspan x="0 2.9000001 5.4693999 7.0760002 9.6454" y="0" id="tspan592">batch</tspan></text></g><g id="g596"><text transform="matrix(1,0,0,-1,384,505.639)" style="font-style:italic;font-variant:normal;font-size:10px;font-family:'Liberation Serif';-inkscape-font-specification:LiberationSerif-Italic;writing-mode:lr-tb;fill:#000000;fill-opacity:1;fill-rule:nonzero;stroke:none" id="text600"><tspan x="0" y="0" id="tspan598">|</tspan></text></g><g id="g602"><text transform="matrix(1,0,0,-1,405.1,505.639)" style="font-style:italic;font-variant:normal;font-size:10px;font-family:'Liberation Serif';-inkscape-font-specification:LiberationSerif-Italic;writing-mode:lr-tb;fill:#000000;fill-opacity:1;fill-rule:nonzero;stroke:none" id="text606"><tspan x="0 2.77" y="0" id="tspan604">lr</tspan></text></g><g id="g608"><text transform="matrix(1,0,0,-1,459.25,505.589)" style="font-style:italic;font-variant:normal;font-size:10px;font-family:'Liberation Serif';-inkscape-font-specification:LiberationSerif-Italic;writing-mode:lr-tb;fill:#000000;fill-opacity:1;fill-rule:nonzero;stroke:none" id="text612"><tspan x="0 2.77" y="0" id="tspan610">lr</tspan></text></g><g id="g614"><text transform="matrix(1,0,0,-1,468.16,505.589)" style="font-variant:normal;font-weight:normal;font-size:10px;font-family:Calibri;-inkscape-font-specification:Calibri;writing-mode:lr-tb;fill:#000000;fill-opacity:1;fill-rule:nonzero;stroke:none" id="text618"><tspan x="0 3.9100001 8.1300001 13.38 18.35 23.6 28.85 31.139999 36.110001" y="0" id="tspan616">scheduler</tspan></text></g><g id="g620"><text transform="matrix(1,0,0,-1,60.9,477.689)" style="font-variant:normal;font-weight:normal;font-size:10px;font-family:Calibri;-inkscape-font-specification:Calibri;writing-mode:lr-tb;fill:#000000;fill-opacity:1;fill-rule:nonzero;stroke:none" id="text624"><tspan x="0 5.0599999 10.12 15.18" y="0" id="tspan622">1053</tspan></text></g><g id="g626"><text transform="matrix(1,0,0,-1,91.8,490.389)" style="font-variant:normal;font-weight:normal;font-size:10px;font-family:Calibri;-inkscape-font-specification:Calibri;writing-mode:lr-tb;fill:#000000;fill-opacity:1;fill-rule:nonzero;stroke:none" id="text630"><tspan x="0 5.0599999 10.12" y="0" id="tspan628">817</tspan></text></g><g id="g632"><text transform="matrix(1,0,0,-1,120.15,490.389)" style="font-variant:normal;font-weight:normal;font-size:10px;font-family:Calibri;-inkscape-font-specification:Calibri;writing-mode:lr-tb;fill:#000000;fill-opacity:1;fill-rule:nonzero;stroke:none" id="text636"><tspan x="0 5.0599999 10.12" y="0" id="tspan634">624</tspan></text></g><g id="g638"><text transform="matrix(1,0,0,-1,147.5,490.389)" style="font-variant:normal;font-weight:normal;font-size:10px;font-family:Calibri;-inkscape-font-specification:Calibri;writing-mode:lr-tb;fill:#000000;fill-opacity:1;fill-rule:nonzero;stroke:none" id="text642"><tspan x="0 5.0599999 10.12 15.18 17.700001" y="0" id="tspan640">300.1</tspan></text></g><g id="g644"><text transform="matrix(1,0,0,-1,179.45,490.389)" style="font-variant:normal;font-weight:normal;font-size:10px;font-family:Calibri;-inkscape-font-specification:Calibri;writing-mode:lr-tb;fill:#000000;fill-opacity:1;fill-rule:nonzero;stroke:none" id="text648"><tspan x="0 5.0599999 7.5799999 12.64 17.52 22.5 27.559999" y="0" id="tspan646">1.1E−02</tspan></text></g><g id="g650"><text transform="matrix(1,0,0,-1,219.15,490.389)" style="font-variant:normal;font-weight:normal;font-size:10px;font-family:Calibri;-inkscape-font-specification:Calibri;writing-mode:lr-tb;fill:#000000;fill-opacity:1;fill-rule:nonzero;stroke:none" id="text654"><tspan x="0 5.0599999 7.5799999 12.64 17.52 22.5 27.559999" y="0" id="tspan652">1.7E−04</tspan></text></g><g id="g656"><text transform="matrix(1,0,0,-1,261.9,490.389)" style="font-variant:normal;font-weight:normal;font-size:10px;font-family:Calibri;-inkscape-font-specification:Calibri;writing-mode:lr-tb;fill:#000000;fill-opacity:1;fill-rule:nonzero;stroke:none" id="text660"><tspan x="0 5.0599999 10.12" y="0" id="tspan658">928</tspan></text></g><g id="g662"><text transform="matrix(1,0,0,-1,292.5,490.389)" style="font-variant:normal;font-weight:normal;font-size:10px;font-family:Calibri;-inkscape-font-specification:Calibri;writing-mode:lr-tb;fill:#000000;fill-opacity:1;fill-rule:nonzero;stroke:none" id="text666"><tspan x="0" y="0" id="tspan664">1</tspan></text></g><g id="g668"><text transform="matrix(1,0,0,-1,313.95,491.389)" style="font-variant:normal;font-weight:normal;font-size:8px;font-family:Consolas;-inkscape-font-specification:Consolas;writing-mode:lr-tb;fill:#000000;fill-opacity:1;fill-rule:nonzero;stroke:none" id="text672"><tspan x="0 4.3920002 8.7840004" y="0" id="tspan670">sin</tspan></text></g><g id="g674"><text transform="matrix(1,0,0,-1,340.9,490.389)" style="font-variant:normal;font-weight:normal;font-size:10px;font-family:Calibri;-inkscape-font-specification:Calibri;writing-mode:lr-tb;fill:#000000;fill-opacity:1;fill-rule:nonzero;stroke:none" id="text678"><tspan x="0 5.0599999" y="0" id="tspan676">10</tspan></text></g><g id="g680"><text transform="matrix(1,0,0,-1,351.05,494.389)" style="font-variant:normal;font-weight:normal;font-size:5.8px;font-family:Calibri;-inkscape-font-specification:Calibri;writing-mode:lr-tb;fill:#000000;fill-opacity:1;fill-rule:nonzero;stroke:none" id="text684"><tspan x="0" y="0" id="tspan682">5</tspan></text></g><g id="g686"><text transform="matrix(1,0,0,-1,364.25,490.389)" style="font-variant:normal;font-weight:normal;font-size:10px;font-family:Calibri;-inkscape-font-specification:Calibri;writing-mode:lr-tb;fill:#000000;fill-opacity:1;fill-rule:nonzero;stroke:none" id="text690"><tspan x="0 5.0599999 10.12 15.18" y="0" id="tspan688">2016</tspan></text></g><g id="g692"><text transform="matrix(1,0,0,-1,392.1,490.389)" style="font-variant:normal;font-weight:normal;font-size:10px;font-family:Calibri;-inkscape-font-specification:Calibri;writing-mode:lr-tb;fill:#000000;fill-opacity:1;fill-rule:nonzero;stroke:none" id="text696"><tspan x="0 5.0599999 7.5799999 12.64 17.52 22.5 27.559999" y="0" id="tspan694">1.0E+00</tspan></text></g><g id="g698"><text transform="matrix(1,0,0,-1,432.9,491.389)" style="font-variant:normal;font-weight:normal;font-size:8px;font-family:Consolas;-inkscape-font-specification:Consolas;writing-mode:lr-tb;fill:#000000;fill-opacity:1;fill-rule:nonzero;stroke:none" id="text702"><tspan x="0 4.3920002 8.7840004 13.176 17.568001 21.959999 26.351999 30.743999 35.136002 39.528 43.919998 48.312 52.703999 57.096001 61.487999 65.879997 70.272003 74.664001 79.056 83.447998 87.839996 92.232002 96.624001" y="0" id="tspan700">ReduceLROnPlateau-0.5-2</tspan></text></g><g id="g704"><text transform="matrix(1,0,0,-1,91.8,477.689)" style="font-variant:normal;font-weight:normal;font-size:10px;font-family:Calibri;-inkscape-font-specification:Calibri;writing-mode:lr-tb;fill:#000000;fill-opacity:1;fill-rule:nonzero;stroke:none" id="text708"><tspan x="0 5.0599999 10.12" y="0" id="tspan706">548</tspan></text></g><g id="g710"><text transform="matrix(1,0,0,-1,120.15,477.689)" style="font-variant:normal;font-weight:normal;font-size:10px;font-family:Calibri;-inkscape-font-specification:Calibri;writing-mode:lr-tb;fill:#000000;fill-opacity:1;fill-rule:nonzero;stroke:none" id="text714"><tspan x="0 5.0599999 10.12" y="0" id="tspan712">696</tspan></text></g><g id="g716"><text transform="matrix(1,0,0,-1,147.5,477.689)" style="font-variant:normal;font-weight:normal;font-size:10px;font-family:Calibri;-inkscape-font-specification:Calibri;writing-mode:lr-tb;fill:#000000;fill-opacity:1;fill-rule:nonzero;stroke:none" id="text720"><tspan x="0 5.0599999 10.12 15.18 17.700001" y="0" id="tspan718">300.1</tspan></text></g><g id="g722"><text transform="matrix(1,0,0,-1,179.45,477.689)" style="font-variant:normal;font-weight:normal;font-size:10px;font-family:Calibri;-inkscape-font-specification:Calibri;writing-mode:lr-tb;fill:#000000;fill-opacity:1;fill-rule:nonzero;stroke:none" id="text726"><tspan x="0 5.0599999 7.5799999 12.64 17.52 22.5 27.559999" y="0" id="tspan724">1.1E−02</tspan></text></g><g id="g728"><text transform="matrix(1,0,0,-1,219.15,477.689)" style="font-variant:normal;font-weight:normal;font-size:10px;font-family:Calibri;-inkscape-font-specification:Calibri;writing-mode:lr-tb;fill:#000000;fill-opacity:1;fill-rule:nonzero;stroke:none" id="text732"><tspan x="0 5.0599999 7.5799999 12.64 17.52 22.5 27.559999" y="0" id="tspan730">2.3E−04</tspan></text></g><g id="g734"><text transform="matrix(1,0,0,-1,261.9,477.689)" style="font-variant:normal;font-weight:normal;font-size:10px;font-family:Calibri;-inkscape-font-specification:Calibri;writing-mode:lr-tb;fill:#000000;fill-opacity:1;fill-rule:nonzero;stroke:none" id="text738"><tspan x="0 5.0599999 10.12" y="0" id="tspan736">736</tspan></text></g><g id="g740"><text transform="matrix(1,0,0,-1,292.5,477.689)" style="font-variant:normal;font-weight:normal;font-size:10px;font-family:Calibri;-inkscape-font-specification:Calibri;writing-mode:lr-tb;fill:#000000;fill-opacity:1;fill-rule:nonzero;stroke:none" id="text744"><tspan x="0" y="0" id="tspan742">1</tspan></text></g><g id="g746"><text transform="matrix(1,0,0,-1,313.95,478.689)" style="font-variant:normal;font-weight:normal;font-size:8px;font-family:Consolas;-inkscape-font-specification:Consolas;writing-mode:lr-tb;fill:#000000;fill-opacity:1;fill-rule:nonzero;stroke:none" id="text750"><tspan x="0 4.3920002 8.7840004" y="0" id="tspan748">sin</tspan></text></g><g id="g752"><text transform="matrix(1,0,0,-1,340.9,477.689)" style="font-variant:normal;font-weight:normal;font-size:10px;font-family:Calibri;-inkscape-font-specification:Calibri;writing-mode:lr-tb;fill:#000000;fill-opacity:1;fill-rule:nonzero;stroke:none" id="text756"><tspan x="0 5.0599999" y="0" id="tspan754">10</tspan></text></g><g id="g758"><text transform="matrix(1,0,0,-1,351.05,481.689)" style="font-variant:normal;font-weight:normal;font-size:5.8px;font-family:Calibri;-inkscape-font-specification:Calibri;writing-mode:lr-tb;fill:#000000;fill-opacity:1;fill-rule:nonzero;stroke:none" id="text762"><tspan x="0" y="0" id="tspan760">5</tspan></text></g><g id="g764"><text transform="matrix(1,0,0,-1,364.25,477.689)" style="font-variant:normal;font-weight:normal;font-size:10px;font-family:Calibri;-inkscape-font-specification:Calibri;writing-mode:lr-tb;fill:#000000;fill-opacity:1;fill-rule:nonzero;stroke:none" id="text768"><tspan x="0 5.0599999 10.12 15.18" y="0" id="tspan766">1824</tspan></text></g><g id="g770"><text transform="matrix(1,0,0,-1,392.1,477.689)" style="font-variant:normal;font-weight:normal;font-size:10px;font-family:Calibri;-inkscape-font-specification:Calibri;writing-mode:lr-tb;fill:#000000;fill-opacity:1;fill-rule:nonzero;stroke:none" id="text774"><tspan x="0 5.0599999 7.5799999 12.64 17.52 22.5 27.559999" y="0" id="tspan772">8.6E−01</tspan></text></g><g id="g776"><text transform="matrix(1,0,0,-1,432.9,478.689)" style="font-variant:normal;font-weight:normal;font-size:8px;font-family:Consolas;-inkscape-font-specification:Consolas;writing-mode:lr-tb;fill:#000000;fill-opacity:1;fill-rule:nonzero;stroke:none" id="text780"><tspan x="0 4.3920002 8.7840004 13.176 17.568001 21.959999 26.351999 30.743999 35.136002 39.528 43.919998 48.312 52.703999 57.096001 61.487999 65.879997 70.272003 74.664001 79.056 83.447998 87.839996 92.232002 96.624001" y="0" id="tspan778">ReduceLROnPlateau-0.5-2</tspan></text></g><g id="g782"><text transform="matrix(1,0,0,-1,91.8,464.989)" style="font-variant:normal;font-weight:normal;font-size:10px;font-family:Calibri;-inkscape-font-specification:Calibri;writing-mode:lr-tb;fill:#000000;fill-opacity:1;fill-rule:nonzero;stroke:none" id="text786"><tspan x="0 5.0599999 10.12" y="0" id="tspan784">607</tspan></text></g><g id="g788"><text transform="matrix(1,0,0,-1,120.15,464.989)" style="font-variant:normal;font-weight:normal;font-size:10px;font-family:Calibri;-inkscape-font-specification:Calibri;writing-mode:lr-tb;fill:#000000;fill-opacity:1;fill-rule:nonzero;stroke:none" id="text792"><tspan x="0 5.0599999 10.12" y="0" id="tspan790">690</tspan></text></g><g id="g794"><text transform="matrix(1,0,0,-1,147.5,464.989)" style="font-variant:normal;font-weight:normal;font-size:10px;font-family:Calibri;-inkscape-font-specification:Calibri;writing-mode:lr-tb;fill:#000000;fill-opacity:1;fill-rule:nonzero;stroke:none" id="text798"><tspan x="0 5.0599999 10.12 15.18 17.700001" y="0" id="tspan796">300.1</tspan></text></g><g id="g800"><text transform="matrix(1,0,0,-1,179.45,464.989)" style="font-variant:normal;font-weight:normal;font-size:10px;font-family:Calibri;-inkscape-font-specification:Calibri;writing-mode:lr-tb;fill:#000000;fill-opacity:1;fill-rule:nonzero;stroke:none" id="text804"><tspan x="0 5.0599999 7.5799999 12.64 17.52 22.5 27.559999" y="0" id="tspan802">1.1E−02</tspan></text></g><g id="g806"><text transform="matrix(1,0,0,-1,219.15,464.989)" style="font-variant:normal;font-weight:normal;font-size:10px;font-family:Calibri;-inkscape-font-specification:Calibri;writing-mode:lr-tb;fill:#000000;fill-opacity:1;fill-rule:nonzero;stroke:none" id="text810"><tspan x="0 5.0599999 7.5799999 12.64 17.52 22.5 27.559999" y="0" id="tspan808">1.7E−04</tspan></text></g><g id="g812"><text transform="matrix(1,0,0,-1,261.9,464.989)" style="font-variant:normal;font-weight:normal;font-size:10px;font-family:Calibri;-inkscape-font-specification:Calibri;writing-mode:lr-tb;fill:#000000;fill-opacity:1;fill-rule:nonzero;stroke:none" id="text816"><tspan x="0 5.0599999 10.12" y="0" id="tspan814">704</tspan></text></g><g id="g818"><text transform="matrix(1,0,0,-1,292.5,464.989)" style="font-variant:normal;font-weight:normal;font-size:10px;font-family:Calibri;-inkscape-font-specification:Calibri;writing-mode:lr-tb;fill:#000000;fill-opacity:1;fill-rule:nonzero;stroke:none" id="text822"><tspan x="0" y="0" id="tspan820">1</tspan></text></g><g id="g824"><text transform="matrix(1,0,0,-1,313.95,465.989)" style="font-variant:normal;font-weight:normal;font-size:8px;font-family:Consolas;-inkscape-font-specification:Consolas;writing-mode:lr-tb;fill:#000000;fill-opacity:1;fill-rule:nonzero;stroke:none" id="text828"><tspan x="0 4.3920002 8.7840004" y="0" id="tspan826">sin</tspan></text></g><g id="g830"><text transform="matrix(1,0,0,-1,340.9,464.989)" style="font-variant:normal;font-weight:normal;font-size:10px;font-family:Calibri;-inkscape-font-specification:Calibri;writing-mode:lr-tb;fill:#000000;fill-opacity:1;fill-rule:nonzero;stroke:none" id="text834"><tspan x="0 5.0599999" y="0" id="tspan832">10</tspan></text></g><g id="g836"><text transform="matrix(1,0,0,-1,351.05,468.989)" style="font-variant:normal;font-weight:normal;font-size:5.8px;font-family:Calibri;-inkscape-font-specification:Calibri;writing-mode:lr-tb;fill:#000000;fill-opacity:1;fill-rule:nonzero;stroke:none" id="text840"><tspan x="0" y="0" id="tspan838">5</tspan></text></g><g id="g842"><text transform="matrix(1,0,0,-1,364.25,464.989)" style="font-variant:normal;font-weight:normal;font-size:10px;font-family:Calibri;-inkscape-font-specification:Calibri;writing-mode:lr-tb;fill:#000000;fill-opacity:1;fill-rule:nonzero;stroke:none" id="text846"><tspan x="0 5.0599999 10.12 15.18" y="0" id="tspan844">1728</tspan></text></g><g id="g848"><text transform="matrix(1,0,0,-1,393.1,464.989)" style="font-variant:normal;font-weight:normal;font-size:10px;font-family:Calibri;-inkscape-font-specification:Calibri;writing-mode:lr-tb;fill:#000000;fill-opacity:1;fill-rule:nonzero;stroke:none" id="text852"><tspan x="0 5.0599999 7.5799999 12.64 17.389999 20.450001 25.51" y="0" id="tspan850">9.9E-01</tspan></text></g><g id="g854"><text transform="matrix(1,0,0,-1,432.9,465.989)" style="font-variant:normal;font-weight:normal;font-size:8px;font-family:Consolas;-inkscape-font-specification:Consolas;writing-mode:lr-tb;fill:#000000;fill-opacity:1;fill-rule:nonzero;stroke:none" id="text858"><tspan x="0 4.3920002 8.7840004 13.176 17.568001 21.959999 26.351999 30.743999 35.136002 39.528 43.919998 48.312 52.703999 57.096001 61.487999 65.879997 70.272003 74.664001 79.056 83.447998 87.839996 92.232002 96.624001" y="0" id="tspan856">ReduceLROnPlateau-0.5-2</tspan></text></g></g><metadata id="metadata6215"><rdf:RDF><cc:Work rdf:about=""><dc:title>Лучшие конфигурации модели, полученные для 5-мерной задачи</dc:title></cc:Work></rdf:RDF></metadata></svg>
