<?xml version="1.0" encoding="UTF-8" standalone="no"?>
<!-- Created with Inkscape (http://www.inkscape.org/) -->

<svg version="1.1" id="svg2" xml:space="preserve" width="138.17221mm" height="12.018888mm" viewBox="0 0 522.22569 45.425721" xmlns="http://www.w3.org/2000/svg" xmlns:svg="http://www.w3.org/2000/svg" xmlns:rdf="http://www.w3.org/1999/02/22-rdf-syntax-ns#" xmlns:cc="http://creativecommons.org/ns#" xmlns:dc="http://purl.org/dc/elements/1.1/"><title id="title1198">Лучшая конфигурация модели для решения 5-мерной задачи, полученная вручную</title><defs id="defs6"><clipPath clipPathUnits="userSpaceOnUse" id="clipPath16"><path d="M 0,0.028 H 595.275 V 841.889 H 0 Z" clip-rule="evenodd" id="path14" /></clipPath></defs><g id="g48" transform="matrix(1.3333333,0,0,-1.3333333,-135.7538,997.49817)"><path d="M 104.65,745.039 H 490.65" style="fill:none;stroke:#000000;stroke-width:0.5;stroke-linecap:butt;stroke-linejoin:round;stroke-miterlimit:10;stroke-dasharray:none;stroke-opacity:1" id="path50" /></g><g id="g52" transform="matrix(1.3333333,0,0,-1.3333333,-135.7538,997.49817)"><path d="M 105.15,731.839 H 490.15" style="fill:none;stroke:#000000;stroke-width:1.5;stroke-linecap:butt;stroke-linejoin:round;stroke-miterlimit:10;stroke-dasharray:none;stroke-opacity:1" id="path54" /></g><g id="g56" transform="matrix(1.3333333,0,0,-1.3333333,-135.7538,997.49817)"><path d="M 105.15,729.939 H 490.15" style="fill:none;stroke:#000000;stroke-width:0.75;stroke-linecap:butt;stroke-linejoin:round;stroke-miterlimit:10;stroke-dasharray:none;stroke-opacity:1" id="path58" /></g><g id="g60" transform="matrix(1.3333333,0,0,-1.3333333,-135.7538,997.49817)"><path d="M 104.65,717.139 H 490.65" style="fill:none;stroke:#000000;stroke-width:0.5;stroke-linecap:butt;stroke-linejoin:round;stroke-miterlimit:10;stroke-dasharray:none;stroke-opacity:1" id="path62" /></g><g id="g64" transform="matrix(1.3333333,0,0,-1.3333333,-135.7538,997.49817)"><path d="M 104.9,745.289 V 716.889" style="fill:none;stroke:#000000;stroke-width:0.5;stroke-linecap:butt;stroke-linejoin:round;stroke-miterlimit:10;stroke-dasharray:none;stroke-opacity:1" id="path66" /></g><g id="g68" transform="matrix(1.3333333,0,0,-1.3333333,-135.7538,997.49817)"><path d="M 138.9,744.789 V 717.389" style="fill:none;stroke:#000000;stroke-width:0.5;stroke-linecap:butt;stroke-linejoin:round;stroke-miterlimit:10;stroke-dasharray:none;stroke-opacity:1" id="path70" /></g><g id="g72" transform="matrix(1.3333333,0,0,-1.3333333,-135.7538,997.49817)"><path d="M 181.4,744.789 V 717.389" style="fill:none;stroke:#000000;stroke-width:0.5;stroke-linecap:butt;stroke-linejoin:round;stroke-miterlimit:10;stroke-dasharray:none;stroke-opacity:1" id="path74" /></g><g id="g76" transform="matrix(1.3333333,0,0,-1.3333333,-135.7538,997.49817)"><path d="M 223.9,744.789 V 717.389" style="fill:none;stroke:#000000;stroke-width:0.5;stroke-linecap:butt;stroke-linejoin:round;stroke-miterlimit:10;stroke-dasharray:none;stroke-opacity:1" id="path78" /></g><g id="g80" transform="matrix(1.3333333,0,0,-1.3333333,-135.7538,997.49817)"><path d="M 252.3,744.789 V 717.389" style="fill:none;stroke:#000000;stroke-width:0.5;stroke-linecap:butt;stroke-linejoin:round;stroke-miterlimit:10;stroke-dasharray:none;stroke-opacity:1" id="path82" /></g><g id="g84" transform="matrix(1.3333333,0,0,-1.3333333,-135.7538,997.49817)"><path d="M 272.1,744.789 V 717.389" style="fill:none;stroke:#000000;stroke-width:0.5;stroke-linecap:butt;stroke-linejoin:round;stroke-miterlimit:10;stroke-dasharray:none;stroke-opacity:1" id="path86" /></g><g id="g88" transform="matrix(1.3333333,0,0,-1.3333333,-135.7538,997.49817)"><path d="M 309,744.789 V 717.389" style="fill:none;stroke:#000000;stroke-width:0.5;stroke-linecap:butt;stroke-linejoin:round;stroke-miterlimit:10;stroke-dasharray:none;stroke-opacity:1" id="path90" /></g><g id="g92" transform="matrix(1.3333333,0,0,-1.3333333,-135.7538,997.49817)"><path d="M 331.7,744.789 V 717.389" style="fill:none;stroke:#000000;stroke-width:0.5;stroke-linecap:butt;stroke-linejoin:round;stroke-miterlimit:10;stroke-dasharray:none;stroke-opacity:1" id="path94" /></g><g id="g96" transform="matrix(1.3333333,0,0,-1.3333333,-135.7538,997.49817)"><path d="M 371.4,744.789 V 717.389" style="fill:none;stroke:#000000;stroke-width:0.5;stroke-linecap:butt;stroke-linejoin:round;stroke-miterlimit:10;stroke-dasharray:none;stroke-opacity:1" id="path98" /></g><g id="g100" transform="matrix(1.3333333,0,0,-1.3333333,-135.7538,997.49817)"><path d="M 399.7,744.789 V 717.389" style="fill:none;stroke:#000000;stroke-width:0.5;stroke-linecap:butt;stroke-linejoin:round;stroke-miterlimit:10;stroke-dasharray:none;stroke-opacity:1" id="path102" /></g><g id="g104" transform="matrix(1.3333333,0,0,-1.3333333,-135.7538,997.49817)"><path d="M 425.2,744.789 V 717.389" style="fill:none;stroke:#000000;stroke-width:0.5;stroke-linecap:butt;stroke-linejoin:round;stroke-miterlimit:10;stroke-dasharray:none;stroke-opacity:1" id="path106" /></g><g id="g108" transform="matrix(1.3333333,0,0,-1.3333333,-135.7538,997.49817)"><path d="M 490.4,745.289 V 716.889" style="fill:none;stroke:#000000;stroke-width:0.5;stroke-linecap:butt;stroke-linejoin:round;stroke-miterlimit:10;stroke-dasharray:none;stroke-opacity:1" id="path110" /></g><g id="g112" transform="matrix(1.3333333,0,0,-1.3333333,-135.7538,997.49817)"><text transform="matrix(1,0,0,-1,111.2,735.189)" style="font-style:italic;font-variant:normal;font-size:10px;font-family:'Liberation Serif';-inkscape-font-specification:LiberationSerif-Italic;writing-mode:lr-tb;fill:#000000;fill-opacity:1;fill-rule:nonzero;stroke:none" id="text116"><tspan x="0" y="0" id="tspan114">t</tspan></text></g><g id="g118" transform="matrix(1.3333333,0,0,-1.3333333,-135.7538,997.49817)"><text transform="matrix(1,0,0,-1,114,735.189)" style="font-variant:normal;font-weight:normal;font-size:10px;font-family:'Liberation Serif';-inkscape-font-specification:LiberationSerif;writing-mode:lr-tb;fill:#000000;fill-opacity:1;fill-rule:nonzero;stroke:none" id="text122"><tspan x="0 2.5 5 9.5500002 13.98" y="0" id="tspan120">, сек</tspan></text></g><g id="g124" transform="matrix(1.3333333,0,0,-1.3333333,-135.7538,997.49817)"><text transform="matrix(1,0,0,-1,149.2,735.189)" style="font-variant:normal;font-weight:normal;font-size:10px;font-family:'Liberation Serif';-inkscape-font-specification:LiberationSerif;writing-mode:lr-tb;fill:#000000;fill-opacity:1;fill-rule:nonzero;stroke:none" id="text128"><tspan x="0 8.8900003 14.45" y="0" id="tspan126">MSE</tspan></text></g><g id="g130" transform="matrix(1.3333333,0,0,-1.3333333,-135.7538,997.49817)"><text transform="matrix(1,0,0,-1,169.75,734.289)" style="font-style:italic;font-variant:normal;font-size:5.8px;font-family:'Liberation Serif';-inkscape-font-specification:LiberationSerif-Italic;writing-mode:lr-tb;fill:#000000;fill-opacity:1;fill-rule:nonzero;stroke:none" id="text134"><tspan x="0" y="0" id="tspan132">f</tspan></text></g><g id="g136" transform="matrix(1.3333333,0,0,-1.3333333,-135.7538,997.49817)"><text transform="matrix(1,0,0,-1,187.7,735.189)" style="font-variant:normal;font-weight:normal;font-size:10px;font-family:'Liberation Serif';-inkscape-font-specification:LiberationSerif;writing-mode:lr-tb;fill:#000000;fill-opacity:1;fill-rule:nonzero;stroke:none" id="text140"><tspan x="0 6.6599998 15.55 21.110001" y="0" id="tspan138">RMSE</tspan></text></g><g id="g142" transform="matrix(1.3333333,0,0,-1.3333333,-135.7538,997.49817)"><text transform="matrix(1,0,0,-1,214.95,734.289)" style="font-style:italic;font-variant:normal;font-size:5.8px;font-family:'Liberation Serif';-inkscape-font-specification:LiberationSerif-Italic;writing-mode:lr-tb;fill:#000000;fill-opacity:1;fill-rule:nonzero;stroke:none" id="text146"><tspan x="0" y="0" id="tspan144">u</tspan></text></g><g id="g148" transform="matrix(1.3333333,0,0,-1.3333333,-135.7538,997.49817)"><text transform="matrix(1,0,0,-1,234.85,735.189)" style="font-style:italic;font-variant:normal;font-size:10px;font-family:'Liberation Serif';-inkscape-font-specification:LiberationSerif-Italic;writing-mode:lr-tb;fill:#000000;fill-opacity:1;fill-rule:nonzero;stroke:none" id="text152"><tspan x="0" y="0" id="tspan150">N</tspan></text></g><g id="g154" transform="matrix(1.3333333,0,0,-1.3333333,-135.7538,997.49817)"><text transform="matrix(1,0,0,-1,259.5,735.189)" style="font-style:italic;font-variant:normal;font-size:10px;font-family:'Liberation Serif';-inkscape-font-specification:LiberationSerif-Italic;writing-mode:lr-tb;fill:#000000;fill-opacity:1;fill-rule:nonzero;stroke:none" id="text158"><tspan x="0" y="0" id="tspan156">L</tspan></text></g><g id="g160" transform="matrix(1.3333333,0,0,-1.3333333,-135.7538,997.49817)"><text transform="matrix(1,0,0,-1,288.15,735.189)" style="font-style:italic;font-variant:normal;font-size:10px;font-family:'Liberation Serif';-inkscape-font-specification:LiberationSerif-Italic;writing-mode:lr-tb;fill:#000000;fill-opacity:1;fill-rule:nonzero;stroke:none" id="text164"><tspan x="0" y="0" id="tspan162">σ</tspan></text></g><g id="g166" transform="matrix(1.3333333,0,0,-1.3333333,-135.7538,997.49817)"><text transform="matrix(1,0,0,-1,313.55,735.189)" style="font-style:italic;font-variant:normal;font-size:10px;font-family:'Liberation Serif';-inkscape-font-specification:LiberationSerif-Italic;writing-mode:lr-tb;fill:#000000;fill-opacity:1;fill-rule:nonzero;stroke:none" id="text170"><tspan x="0 2.74" y="0" id="tspan168">|N</tspan></text></g><g id="g172" transform="matrix(1.3333333,0,0,-1.3333333,-135.7538,997.49817)"><text transform="matrix(1,0,0,-1,322.95,734.289)" style="font-style:italic;font-variant:normal;font-size:5.8px;font-family:'Liberation Serif';-inkscape-font-specification:LiberationSerif-Italic;writing-mode:lr-tb;fill:#000000;fill-opacity:1;fill-rule:nonzero;stroke:none" id="text176"><tspan x="0" y="0" id="tspan174">f</tspan></text></g><g id="g178" transform="matrix(1.3333333,0,0,-1.3333333,-135.7538,997.49817)"><text transform="matrix(1,0,0,-1,324.55,735.189)" style="font-style:italic;font-variant:normal;font-size:10px;font-family:'Liberation Serif';-inkscape-font-specification:LiberationSerif-Italic;writing-mode:lr-tb;fill:#000000;fill-opacity:1;fill-rule:nonzero;stroke:none" id="text182"><tspan x="0" y="0" id="tspan180">|</tspan></text></g><g id="g184" transform="matrix(1.3333333,0,0,-1.3333333,-135.7538,997.49817)"><text transform="matrix(1,0,0,-1,341.05,735.189)" style="font-variant:normal;font-weight:normal;font-size:10px;font-family:'Liberation Serif';-inkscape-font-specification:LiberationSerif;writing-mode:lr-tb;fill:#000000;fill-opacity:1;fill-rule:nonzero;stroke:none" id="text188"><tspan x="0 6.6599998 13.88" y="0" id="tspan186">RNG</tspan></text></g><g id="g190" transform="matrix(1.3333333,0,0,-1.3333333,-135.7538,997.49817)"><text transform="matrix(1,0,0,-1,373.3,735.189)" style="font-style:italic;font-variant:normal;font-size:10px;font-family:'Liberation Serif';-inkscape-font-specification:LiberationSerif-Italic;writing-mode:lr-tb;fill:#000000;fill-opacity:1;fill-rule:nonzero;stroke:none" id="text194"><tspan x="0 2.74" y="0" id="tspan192">|N</tspan></text></g><g id="g196" transform="matrix(1.3333333,0,0,-1.3333333,-135.7538,997.49817)"><text transform="matrix(1,0,0,-1,382.7,734.289)" style="font-variant:normal;font-weight:normal;font-size:5.8px;font-family:'Liberation Serif';-inkscape-font-specification:LiberationSerif;writing-mode:lr-tb;fill:#000000;fill-opacity:1;fill-rule:nonzero;stroke:none" id="text200"><tspan x="0 2.9000001 5.4693999 7.0760002 9.6454" y="0" id="tspan198">batch</tspan></text></g><g id="g202" transform="matrix(1.3333333,0,0,-1.3333333,-135.7538,997.49817)"><text transform="matrix(1,0,0,-1,395.25,735.189)" style="font-style:italic;font-variant:normal;font-size:10px;font-family:'Liberation Serif';-inkscape-font-specification:LiberationSerif-Italic;writing-mode:lr-tb;fill:#000000;fill-opacity:1;fill-rule:nonzero;stroke:none" id="text206"><tspan x="0" y="0" id="tspan204">|</tspan></text></g><g id="g208" transform="matrix(1.3333333,0,0,-1.3333333,-135.7538,997.49817)"><text transform="matrix(1,0,0,-1,409.25,735.189)" style="font-style:italic;font-variant:normal;font-size:10px;font-family:'Liberation Serif';-inkscape-font-specification:LiberationSerif-Italic;writing-mode:lr-tb;fill:#000000;fill-opacity:1;fill-rule:nonzero;stroke:none" id="text212"><tspan x="0 2.77" y="0" id="tspan210">lr</tspan></text></g><g id="g214" transform="matrix(1.3333333,0,0,-1.3333333,-135.7538,997.49817)"><text transform="matrix(1,0,0,-1,433.65,735.139)" style="font-style:italic;font-variant:normal;font-size:10px;font-family:'Liberation Serif';-inkscape-font-specification:LiberationSerif-Italic;writing-mode:lr-tb;fill:#000000;fill-opacity:1;fill-rule:nonzero;stroke:none" id="text218"><tspan x="0 2.77" y="0" id="tspan216">lr</tspan></text></g><g id="g220" transform="matrix(1.3333333,0,0,-1.3333333,-135.7538,997.49817)"><text transform="matrix(1,0,0,-1,442.56,735.139)" style="font-variant:normal;font-weight:normal;font-size:10px;font-family:Calibri;-inkscape-font-specification:Calibri;writing-mode:lr-tb;fill:#000000;fill-opacity:1;fill-rule:nonzero;stroke:none" id="text224"><tspan x="0 3.9100001 8.1300001 13.38 18.35 23.6 28.85 31.139999 36.110001" y="0" id="tspan222">scheduler</tspan></text></g><g id="g226" transform="matrix(1.3333333,0,0,-1.3333333,-135.7538,997.49817)"><text transform="matrix(1,0,0,-1,114.4,719.939)" style="font-variant:normal;font-weight:normal;font-size:10px;font-family:Calibri;-inkscape-font-specification:Calibri;writing-mode:lr-tb;fill:#000000;fill-opacity:1;fill-rule:nonzero;stroke:none" id="text230"><tspan x="0 5.0599999 10.12" y="0" id="tspan228">300</tspan></text></g><g id="g232" transform="matrix(1.3333333,0,0,-1.3333333,-135.7538,997.49817)"><text transform="matrix(1,0,0,-1,141.4,719.939)" style="font-variant:normal;font-weight:normal;font-size:10px;font-family:Calibri;-inkscape-font-specification:Calibri;writing-mode:lr-tb;fill:#000000;fill-opacity:1;fill-rule:nonzero;stroke:none" id="text236"><tspan x="0 5.0599999 7.5799999 12.64 17.700001 22.58 27.559999 32.619999" y="0" id="tspan234">8.92E−02</tspan></text></g><g id="g238" transform="matrix(1.3333333,0,0,-1.3333333,-135.7538,997.49817)"><text transform="matrix(1,0,0,-1,183.9,719.939)" style="font-variant:normal;font-weight:normal;font-size:10px;font-family:Calibri;-inkscape-font-specification:Calibri;writing-mode:lr-tb;fill:#000000;fill-opacity:1;fill-rule:nonzero;stroke:none" id="text242"><tspan x="0 5.0599999 7.5799999 12.64 17.700001 22.58 27.559999 32.619999" y="0" id="tspan240">1.52E−03</tspan></text></g><g id="g244" transform="matrix(1.3333333,0,0,-1.3333333,-135.7538,997.49817)"><text transform="matrix(1,0,0,-1,230.6,719.939)" style="font-variant:normal;font-weight:normal;font-size:10px;font-family:Calibri;-inkscape-font-specification:Calibri;writing-mode:lr-tb;fill:#000000;fill-opacity:1;fill-rule:nonzero;stroke:none" id="text248"><tspan x="0 5.0599999 10.12" y="0" id="tspan246">512</tspan></text></g><g id="g250" transform="matrix(1.3333333,0,0,-1.3333333,-135.7538,997.49817)"><text transform="matrix(1,0,0,-1,259.75,719.939)" style="font-variant:normal;font-weight:normal;font-size:10px;font-family:Calibri;-inkscape-font-specification:Calibri;writing-mode:lr-tb;fill:#000000;fill-opacity:1;fill-rule:nonzero;stroke:none" id="text254"><tspan x="0" y="0" id="tspan252">1</tspan></text></g><g id="g256" transform="matrix(1.3333333,0,0,-1.3333333,-135.7538,997.49817)"><text transform="matrix(1,0,0,-1,284.05,720.939)" style="font-variant:normal;font-weight:normal;font-size:8px;font-family:Consolas;-inkscape-font-specification:Consolas;writing-mode:lr-tb;fill:#000000;fill-opacity:1;fill-rule:nonzero;stroke:none" id="text260"><tspan x="0 4.3920002 8.7840004" y="0" id="tspan258">sin</tspan></text></g><g id="g262" transform="matrix(1.3333333,0,0,-1.3333333,-135.7538,997.49817)"><text transform="matrix(1,0,0,-1,313.85,719.939)" style="font-variant:normal;font-weight:normal;font-size:10px;font-family:Calibri;-inkscape-font-specification:Calibri;writing-mode:lr-tb;fill:#000000;fill-opacity:1;fill-rule:nonzero;stroke:none" id="text266"><tspan x="0 5.0599999" y="0" id="tspan264">10</tspan></text></g><g id="g268" transform="matrix(1.3333333,0,0,-1.3333333,-135.7538,997.49817)"><text transform="matrix(1,0,0,-1,324,723.939)" style="font-variant:normal;font-weight:normal;font-size:5.8px;font-family:Calibri;-inkscape-font-specification:Calibri;writing-mode:lr-tb;fill:#000000;fill-opacity:1;fill-rule:nonzero;stroke:none" id="text272"><tspan x="0" y="0" id="tspan270">4</tspan></text></g><g id="g274" transform="matrix(1.3333333,0,0,-1.3333333,-135.7538,997.49817)"><text transform="matrix(1,0,0,-1,333.75,719.939)" style="font-variant:normal;font-weight:normal;font-size:10px;font-family:Calibri;-inkscape-font-specification:Calibri;writing-mode:lr-tb;fill:#000000;fill-opacity:1;fill-rule:nonzero;stroke:none" id="text278"><tspan x="0 4.6300001 9.4200001 14.21 18.43 23.83 28.049999 33.150002" y="0" id="tspan276">квазисл.</tspan></text></g><g id="g280" transform="matrix(1.3333333,0,0,-1.3333333,-135.7538,997.49817)"><text transform="matrix(1,0,0,-1,375.5,719.939)" style="font-variant:normal;font-weight:normal;font-size:10px;font-family:Calibri;-inkscape-font-specification:Calibri;writing-mode:lr-tb;fill:#000000;fill-opacity:1;fill-rule:nonzero;stroke:none" id="text284"><tspan x="0 5.0599999 10.12 15.18" y="0" id="tspan282">2048</tspan></text></g><g id="g286" transform="matrix(1.3333333,0,0,-1.3333333,-135.7538,997.49817)"><text transform="matrix(1,0,0,-1,404.55,719.939)" style="font-variant:normal;font-weight:normal;font-size:10px;font-family:Calibri;-inkscape-font-specification:Calibri;writing-mode:lr-tb;fill:#000000;fill-opacity:1;fill-rule:nonzero;stroke:none" id="text290"><tspan x="0 5.0599999" y="0" id="tspan288">10</tspan></text></g><g id="g292" transform="matrix(1.3333333,0,0,-1.3333333,-135.7538,997.49817)"><text transform="matrix(1,0,0,-1,414.7,723.939)" style="font-variant:normal;font-weight:normal;font-size:5.8px;font-family:Calibri;-inkscape-font-specification:Calibri;writing-mode:lr-tb;fill:#000000;fill-opacity:1;fill-rule:nonzero;stroke:none" id="text296"><tspan x="0" y="0" id="tspan294">−</tspan></text></g><g id="g298" transform="matrix(1.3333333,0,0,-1.3333333,-135.7538,997.49817)"><text transform="matrix(1,0,0,-1,417.6,723.939)" style="font-variant:normal;font-weight:normal;font-size:5.8px;font-family:Calibri;-inkscape-font-specification:Calibri;writing-mode:lr-tb;fill:#000000;fill-opacity:1;fill-rule:nonzero;stroke:none" id="text302"><tspan x="0" y="0" id="tspan300">2</tspan></text></g><g id="g304" transform="matrix(1.3333333,0,0,-1.3333333,-135.7538,997.49817)"><text transform="matrix(1,0,0,-1,449.1,720.939)" style="font-variant:normal;font-weight:normal;font-size:8px;font-family:Consolas;-inkscape-font-specification:Consolas;writing-mode:lr-tb;fill:#000000;fill-opacity:1;fill-rule:nonzero;stroke:none" id="text308"><tspan x="0 4.3920002 8.7840004 13.176" y="0" id="tspan306">None</tspan></text></g><metadata id="metadata1196"><rdf:RDF><cc:Work rdf:about=""><dc:title>Лучшая конфигурация модели для решения 5-мерной задачи, полученная вручную</dc:title></cc:Work></rdf:RDF></metadata></svg>
