<?xml version="1.0" encoding="UTF-8" standalone="no"?>
<!-- Created with Inkscape (http://www.inkscape.org/) -->

<svg version="1.1" id="svg2" xml:space="preserve" width="172.17999mm" height="61.972221mm" viewBox="0 0 650.75905 234.22572" xmlns="http://www.w3.org/2000/svg" xmlns:svg="http://www.w3.org/2000/svg" xmlns:rdf="http://www.w3.org/1999/02/22-rdf-syntax-ns#" xmlns:cc="http://creativecommons.org/ns#" xmlns:dc="http://purl.org/dc/elements/1.1/"><title id="title6104">Область поиска и ограничение по времени для всех алгоритмов HPO</title><defs id="defs6"><clipPath clipPathUnits="userSpaceOnUse" id="clipPath16"><path d="M 0,0.028 H 595.275 V 841.889 H 0 Z" clip-rule="evenodd" id="path14" /></clipPath></defs><g id="g8" transform="matrix(1.3333333,0,0,-1.3333333,-71.487137,873.36484)"><g id="g438"><path d="M 56.45,651.939 H 538.85" style="fill:none;stroke:#000000;stroke-width:0.5;stroke-linecap:butt;stroke-linejoin:round;stroke-miterlimit:10;stroke-dasharray:none;stroke-opacity:1" id="path440" /></g><g id="g442"><path d="M 56.95,635.339 H 538.35" style="fill:none;stroke:#000000;stroke-width:0.5;stroke-linecap:butt;stroke-linejoin:round;stroke-miterlimit:10;stroke-dasharray:none;stroke-opacity:1" id="path444" /></g><g id="g446"><path d="M 56.95,618.739 H 538.35" style="fill:none;stroke:#000000;stroke-width:0.5;stroke-linecap:butt;stroke-linejoin:round;stroke-miterlimit:10;stroke-dasharray:none;stroke-opacity:1" id="path448" /></g><g id="g450"><path d="M 56.95,602.139 H 538.35" style="fill:none;stroke:#000000;stroke-width:0.5;stroke-linecap:butt;stroke-linejoin:round;stroke-miterlimit:10;stroke-dasharray:none;stroke-opacity:1" id="path452" /></g><g id="g454"><path d="M 56.95,584.539 H 538.35" style="fill:none;stroke:#000000;stroke-width:0.5;stroke-linecap:butt;stroke-linejoin:round;stroke-miterlimit:10;stroke-dasharray:none;stroke-opacity:1" id="path456" /></g><g id="g458"><path d="M 56.95,567.939 H 538.35" style="fill:none;stroke:#000000;stroke-width:0.5;stroke-linecap:butt;stroke-linejoin:round;stroke-miterlimit:10;stroke-dasharray:none;stroke-opacity:1" id="path460" /></g><g id="g462"><path d="M 56.95,551.339 H 538.35" style="fill:none;stroke:#000000;stroke-width:0.5;stroke-linecap:butt;stroke-linejoin:round;stroke-miterlimit:10;stroke-dasharray:none;stroke-opacity:1" id="path464" /></g><g id="g466"><path d="M 56.95,517.639 H 538.35" style="fill:none;stroke:#000000;stroke-width:0.5;stroke-linecap:butt;stroke-linejoin:round;stroke-miterlimit:10;stroke-dasharray:none;stroke-opacity:1" id="path468" /></g><g id="g470"><path d="M 56.95,500.039 H 538.35" style="fill:none;stroke:#000000;stroke-width:0.5;stroke-linecap:butt;stroke-linejoin:round;stroke-miterlimit:10;stroke-dasharray:none;stroke-opacity:1" id="path472" /></g><g id="g474"><path d="M 56.45,482.439 H 538.85" style="fill:none;stroke:#000000;stroke-width:0.5;stroke-linecap:butt;stroke-linejoin:round;stroke-miterlimit:10;stroke-dasharray:none;stroke-opacity:1" id="path476" /></g><g id="g478"><path d="M 56.7,652.189 V 482.189" style="fill:none;stroke:#000000;stroke-width:0.5;stroke-linecap:butt;stroke-linejoin:round;stroke-miterlimit:10;stroke-dasharray:none;stroke-opacity:1" id="path480" /></g><g id="g482"><path d="M 141.7,651.689 V 482.689" style="fill:none;stroke:#000000;stroke-width:0.5;stroke-linecap:butt;stroke-linejoin:round;stroke-miterlimit:10;stroke-dasharray:none;stroke-opacity:1" id="path484" /></g><g id="g486"><path d="M 538.6,652.189 V 482.189" style="fill:none;stroke:#000000;stroke-width:0.5;stroke-linecap:butt;stroke-linejoin:round;stroke-miterlimit:10;stroke-dasharray:none;stroke-opacity:1" id="path488" /></g><g id="g490"><text transform="matrix(1,0,0,-1,94.65,638.639)" style="font-style:italic;font-variant:normal;font-size:14px;font-family:'Liberation Serif';-inkscape-font-specification:LiberationSerif-Italic;writing-mode:lr-tb;fill:#000000;fill-opacity:1;fill-rule:nonzero;stroke:none" id="text494"><tspan x="0" y="0" id="tspan492">N</tspan></text></g><g id="g496"><text transform="matrix(1,0,0,-1,257.75,639.789)" style="font-variant:normal;font-weight:normal;font-size:12px;font-family:Consolas;-inkscape-font-specification:Consolas;writing-mode:lr-tb;fill:#000000;fill-opacity:1;fill-rule:nonzero;stroke:none" id="text500"><tspan x="0 6.5879998 13.176 19.764 26.351999 32.939999 39.528 46.116001 52.703999 59.292 65.879997 72.468002 79.056 85.643997 92.232002" y="0" id="tspan498">qlograndint(64,</tspan></text><text transform="matrix(1,0,0,-1,356.75,639.789)" style="font-variant:normal;font-weight:normal;font-size:12px;font-family:Consolas;-inkscape-font-specification:Consolas;writing-mode:lr-tb;fill:#000000;fill-opacity:1;fill-rule:nonzero;stroke:none" id="text504"><tspan x="0" y="0" id="tspan502"> </tspan></text><text transform="matrix(1,0,0,-1,363.35,639.789)" style="font-variant:normal;font-weight:normal;font-size:12px;font-family:Consolas;-inkscape-font-specification:Consolas;writing-mode:lr-tb;fill:#000000;fill-opacity:1;fill-rule:nonzero;stroke:none" id="text508"><tspan x="0 6.5879998 13.176 19.764 26.351999" y="0" id="tspan506">2048,</tspan></text><text transform="matrix(1,0,0,-1,396.35,639.789)" style="font-variant:normal;font-weight:normal;font-size:12px;font-family:Consolas;-inkscape-font-specification:Consolas;writing-mode:lr-tb;fill:#000000;fill-opacity:1;fill-rule:nonzero;stroke:none" id="text512"><tspan x="0" y="0" id="tspan510"> </tspan></text><text transform="matrix(1,0,0,-1,402.95,639.789)" style="font-variant:normal;font-weight:normal;font-size:12px;font-family:Consolas;-inkscape-font-specification:Consolas;writing-mode:lr-tb;fill:#000000;fill-opacity:1;fill-rule:nonzero;stroke:none" id="text516"><tspan x="0 6.5879998 13.176" y="0" id="tspan514">32)</tspan></text></g><g id="g518"><text transform="matrix(1,0,0,-1,95.4,622.039)" style="font-style:italic;font-variant:normal;font-size:14px;font-family:'Liberation Serif';-inkscape-font-specification:LiberationSerif-Italic;writing-mode:lr-tb;fill:#000000;fill-opacity:1;fill-rule:nonzero;stroke:none" id="text522"><tspan x="0" y="0" id="tspan520">L</tspan></text></g><g id="g524"><text transform="matrix(1,0,0,-1,297.35,623.189)" style="font-variant:normal;font-weight:normal;font-size:12px;font-family:Consolas;-inkscape-font-specification:Consolas;writing-mode:lr-tb;fill:#000000;fill-opacity:1;fill-rule:nonzero;stroke:none" id="text528"><tspan x="0 6.5879998 13.176 19.764 26.351999 32.939999 39.528 46.116001 52.703999 59.292" y="0" id="tspan526">randint(1,</tspan></text><text transform="matrix(1,0,0,-1,363.35,623.189)" style="font-variant:normal;font-weight:normal;font-size:12px;font-family:Consolas;-inkscape-font-specification:Consolas;writing-mode:lr-tb;fill:#000000;fill-opacity:1;fill-rule:nonzero;stroke:none" id="text532"><tspan x="0" y="0" id="tspan530"> </tspan></text><text transform="matrix(1,0,0,-1,369.95,623.189)" style="font-variant:normal;font-weight:normal;font-size:12px;font-family:Consolas;-inkscape-font-specification:Consolas;writing-mode:lr-tb;fill:#000000;fill-opacity:1;fill-rule:nonzero;stroke:none" id="text536"><tspan x="0 6.5879998" y="0" id="tspan534">5)</tspan></text></g><g id="g538"><text transform="matrix(1,0,0,-1,95.85,605.439)" style="font-style:italic;font-variant:normal;font-size:14px;font-family:'Liberation Serif';-inkscape-font-specification:LiberationSerif-Italic;writing-mode:lr-tb;fill:#000000;fill-opacity:1;fill-rule:nonzero;stroke:none" id="text542"><tspan x="0" y="0" id="tspan540">σ</tspan></text></g><g id="g544"><text transform="matrix(1,0,0,-1,244.55,606.589)" style="font-variant:normal;font-weight:normal;font-size:12px;font-family:Consolas;-inkscape-font-specification:Consolas;writing-mode:lr-tb;fill:#000000;fill-opacity:1;fill-rule:nonzero;stroke:none" id="text548"><tspan x="0 6.5879998 13.176 19.764" y="0" id="tspan546">ELU,</tspan></text><text transform="matrix(1,0,0,-1,270.95,606.589)" style="font-variant:normal;font-weight:normal;font-size:12px;font-family:Consolas;-inkscape-font-specification:Consolas;writing-mode:lr-tb;fill:#000000;fill-opacity:1;fill-rule:nonzero;stroke:none" id="text552"><tspan x="0" y="0" id="tspan550"> </tspan></text><text transform="matrix(1,0,0,-1,277.55,606.589)" style="font-variant:normal;font-weight:normal;font-size:12px;font-family:Consolas;-inkscape-font-specification:Consolas;writing-mode:lr-tb;fill:#000000;fill-opacity:1;fill-rule:nonzero;stroke:none" id="text556"><tspan x="0 6.5879998 13.176 19.764 26.351999 32.939999 39.528 46.116001" y="0" id="tspan554">sigmoid,</tspan></text><text transform="matrix(1,0,0,-1,330.35,606.589)" style="font-variant:normal;font-weight:normal;font-size:12px;font-family:Consolas;-inkscape-font-specification:Consolas;writing-mode:lr-tb;fill:#000000;fill-opacity:1;fill-rule:nonzero;stroke:none" id="text560"><tspan x="0" y="0" id="tspan558"> </tspan></text><text transform="matrix(1,0,0,-1,336.95,606.589)" style="font-variant:normal;font-weight:normal;font-size:12px;font-family:Consolas;-inkscape-font-specification:Consolas;writing-mode:lr-tb;fill:#000000;fill-opacity:1;fill-rule:nonzero;stroke:none" id="text564"><tspan x="0 6.5879998 13.176 19.764 26.351999" y="0" id="tspan562">tanh,</tspan></text><text transform="matrix(1,0,0,-1,369.95,606.589)" style="font-variant:normal;font-weight:normal;font-size:12px;font-family:Consolas;-inkscape-font-specification:Consolas;writing-mode:lr-tb;fill:#000000;fill-opacity:1;fill-rule:nonzero;stroke:none" id="text568"><tspan x="0" y="0" id="tspan566"> </tspan></text><text transform="matrix(1,0,0,-1,376.55,606.589)" style="font-variant:normal;font-weight:normal;font-size:12px;font-family:Consolas;-inkscape-font-specification:Consolas;writing-mode:lr-tb;fill:#000000;fill-opacity:1;fill-rule:nonzero;stroke:none" id="text572"><tspan x="0 6.5879998 13.176 19.764" y="0" id="tspan570">sin,</tspan></text><text transform="matrix(1,0,0,-1,402.95,606.589)" style="font-variant:normal;font-weight:normal;font-size:12px;font-family:Consolas;-inkscape-font-specification:Consolas;writing-mode:lr-tb;fill:#000000;fill-opacity:1;fill-rule:nonzero;stroke:none" id="text576"><tspan x="0" y="0" id="tspan574"> </tspan></text><text transform="matrix(1,0,0,-1,409.55,606.589)" style="font-variant:normal;font-weight:normal;font-size:12px;font-family:Consolas;-inkscape-font-specification:Consolas;writing-mode:lr-tb;fill:#000000;fill-opacity:1;fill-rule:nonzero;stroke:none" id="text580"><tspan x="0 6.5879998 13.176 19.764" y="0" id="tspan578">atan</tspan></text></g><g id="g582"><text transform="matrix(1,0,0,-1,89.65,588.339)" style="font-style:italic;font-variant:normal;font-size:14px;font-family:'Liberation Serif';-inkscape-font-specification:LiberationSerif-Italic;writing-mode:lr-tb;fill:#000000;fill-opacity:1;fill-rule:nonzero;stroke:none" id="text586"><tspan x="0 3.836" y="0" id="tspan584">|N</tspan></text></g><g id="g588"><text transform="matrix(1,0,0,-1,102.85,587.139)" style="font-style:italic;font-variant:normal;font-size:8.1px;font-family:'Liberation Serif';-inkscape-font-specification:LiberationSerif-Italic;writing-mode:lr-tb;fill:#000000;fill-opacity:1;fill-rule:nonzero;stroke:none" id="text592"><tspan x="0" y="0" id="tspan590">f</tspan></text></g><g id="g594"><text transform="matrix(1,0,0,-1,105.1,588.339)" style="font-style:italic;font-variant:normal;font-size:14px;font-family:'Liberation Serif';-inkscape-font-specification:LiberationSerif-Italic;writing-mode:lr-tb;fill:#000000;fill-opacity:1;fill-rule:nonzero;stroke:none" id="text598"><tspan x="0" y="0" id="tspan596">|</tspan></text></g><g id="g600"><text transform="matrix(1,0,0,-1,306.15,588.339)" style="font-variant:normal;font-weight:normal;font-size:14px;font-family:Calibri;-inkscape-font-specification:Calibri;writing-mode:lr-tb;fill:#000000;fill-opacity:1;fill-rule:nonzero;stroke:none" id="text604"><tspan x="0 7.0840001" y="0" id="tspan602">10</tspan></text></g><g id="g606"><text transform="matrix(1,0,0,-1,320.35,594.039)" style="font-variant:normal;font-weight:normal;font-size:8.1px;font-family:Calibri;-inkscape-font-specification:Calibri;writing-mode:lr-tb;fill:#000000;fill-opacity:1;fill-rule:nonzero;stroke:none" id="text610"><tspan x="0" y="0" id="tspan608">4</tspan></text></g><g id="g612"><text transform="matrix(1,0,0,-1,324.45,588.339)" style="font-variant:normal;font-weight:normal;font-size:14px;font-family:Calibri;-inkscape-font-specification:Calibri;writing-mode:lr-tb;fill:#000000;fill-opacity:1;fill-rule:nonzero;stroke:none" id="text616"><tspan x="0 3.4860001 6.6500001 13.734" y="0" id="tspan614">, 10</tspan></text></g><g id="g618"><text transform="matrix(1,0,0,-1,345.3,594.039)" style="font-variant:normal;font-weight:normal;font-size:8.1px;font-family:Calibri;-inkscape-font-specification:Calibri;writing-mode:lr-tb;fill:#000000;fill-opacity:1;fill-rule:nonzero;stroke:none" id="text622"><tspan x="0" y="0" id="tspan620">5</tspan></text></g><g id="g624"><text transform="matrix(1,0,0,-1,349.4,588.339)" style="font-variant:normal;font-weight:normal;font-size:14px;font-family:Calibri;-inkscape-font-specification:Calibri;writing-mode:lr-tb;fill:#000000;fill-opacity:1;fill-rule:nonzero;stroke:none" id="text628"><tspan x="0 3.4860001 6.6500001 13.734" y="0" id="tspan626">, 10</tspan></text></g><g id="g630"><text transform="matrix(1,0,0,-1,370.25,594.039)" style="font-variant:normal;font-weight:normal;font-size:8.1px;font-family:Calibri;-inkscape-font-specification:Calibri;writing-mode:lr-tb;fill:#000000;fill-opacity:1;fill-rule:nonzero;stroke:none" id="text634"><tspan x="0" y="0" id="tspan632">6</tspan></text></g><g id="g636"><text transform="matrix(1,0,0,-1,82,571.239)" style="font-style:italic;font-variant:normal;font-size:14px;font-family:'Liberation Serif';-inkscape-font-specification:LiberationSerif-Italic;writing-mode:lr-tb;fill:#000000;fill-opacity:1;fill-rule:nonzero;stroke:none" id="text640"><tspan x="0 3.836" y="0" id="tspan638">|N</tspan></text></g><g id="g642"><text transform="matrix(1,0,0,-1,95.2,570.039)" style="font-variant:normal;font-weight:normal;font-size:8.1px;font-family:'Liberation Serif';-inkscape-font-specification:LiberationSerif;writing-mode:lr-tb;fill:#000000;fill-opacity:1;fill-rule:nonzero;stroke:none" id="text646"><tspan x="0 4.0500002 7.6382999 9.882 13.4703" y="0" id="tspan644">batch</tspan></text></g><g id="g648"><text transform="matrix(1,0,0,-1,112.75,571.239)" style="font-style:italic;font-variant:normal;font-size:14px;font-family:'Liberation Serif';-inkscape-font-specification:LiberationSerif-Italic;writing-mode:lr-tb;fill:#000000;fill-opacity:1;fill-rule:nonzero;stroke:none" id="text652"><tspan x="0" y="0" id="tspan650">|</tspan></text></g><g id="g654"><text transform="matrix(1,0,0,-1,254.45,572.389)" style="font-variant:normal;font-weight:normal;font-size:12px;font-family:Consolas;-inkscape-font-specification:Consolas;writing-mode:lr-tb;fill:#000000;fill-opacity:1;fill-rule:nonzero;stroke:none" id="text658"><tspan x="0 6.5879998 13.176 19.764 26.351999 32.939999 39.528 46.116001 52.703999 59.292 65.879997 72.468002 79.056 85.643997 92.232002" y="0" id="tspan656">qlograndint(64,</tspan></text><text transform="matrix(1,0,0,-1,353.45,572.389)" style="font-variant:normal;font-weight:normal;font-size:12px;font-family:Consolas;-inkscape-font-specification:Consolas;writing-mode:lr-tb;fill:#000000;fill-opacity:1;fill-rule:nonzero;stroke:none" id="text662"><tspan x="0" y="0" id="tspan660"> </tspan></text><text transform="matrix(1,0,0,-1,360.05,572.389)" style="font-variant:normal;font-weight:normal;font-size:12px;font-family:Consolas;-inkscape-font-specification:Consolas;writing-mode:lr-tb;fill:#000000;fill-opacity:1;fill-rule:nonzero;stroke:none" id="text666"><tspan x="0 6.5879998 13.176 19.764 26.351999 32.939999" y="0" id="tspan664">32768,</tspan></text><text transform="matrix(1,0,0,-1,399.65,572.389)" style="font-variant:normal;font-weight:normal;font-size:12px;font-family:Consolas;-inkscape-font-specification:Consolas;writing-mode:lr-tb;fill:#000000;fill-opacity:1;fill-rule:nonzero;stroke:none" id="text670"><tspan x="0" y="0" id="tspan668"> </tspan></text><text transform="matrix(1,0,0,-1,406.25,572.389)" style="font-variant:normal;font-weight:normal;font-size:12px;font-family:Consolas;-inkscape-font-specification:Consolas;writing-mode:lr-tb;fill:#000000;fill-opacity:1;fill-rule:nonzero;stroke:none" id="text674"><tspan x="0 6.5879998 13.176" y="0" id="tspan672">32)</tspan></text></g><g id="g676"><text transform="matrix(1,0,0,-1,94.65,554.639)" style="font-style:italic;font-variant:normal;font-size:14px;font-family:'Liberation Serif';-inkscape-font-specification:LiberationSerif-Italic;writing-mode:lr-tb;fill:#000000;fill-opacity:1;fill-rule:nonzero;stroke:none" id="text680"><tspan x="0 3.878" y="0" id="tspan678">lr</tspan></text></g><g id="g682"><text transform="matrix(1,0,0,-1,254.45,555.789)" style="font-variant:normal;font-weight:normal;font-size:12px;font-family:Consolas;-inkscape-font-specification:Consolas;writing-mode:lr-tb;fill:#000000;fill-opacity:1;fill-rule:nonzero;stroke:none" id="text686"><tspan x="0 6.5879998 13.176 19.764 26.351999 32.939999 39.528 46.116001 52.703999 59.292 65.879997 72.468002 79.056 85.643997 92.232002 98.82 105.408" y="0" id="tspan684">qloguniform(1e-4,</tspan></text><text transform="matrix(1,0,0,-1,366.65,555.789)" style="font-variant:normal;font-weight:normal;font-size:12px;font-family:Consolas;-inkscape-font-specification:Consolas;writing-mode:lr-tb;fill:#000000;fill-opacity:1;fill-rule:nonzero;stroke:none" id="text690"><tspan x="0" y="0" id="tspan688"> </tspan></text><text transform="matrix(1,0,0,-1,373.25,555.789)" style="font-variant:normal;font-weight:normal;font-size:12px;font-family:Consolas;-inkscape-font-specification:Consolas;writing-mode:lr-tb;fill:#000000;fill-opacity:1;fill-rule:nonzero;stroke:none" id="text694"><tspan x="0 6.5879998" y="0" id="tspan692">1,</tspan></text><text transform="matrix(1,0,0,-1,386.45,555.789)" style="font-variant:normal;font-weight:normal;font-size:12px;font-family:Consolas;-inkscape-font-specification:Consolas;writing-mode:lr-tb;fill:#000000;fill-opacity:1;fill-rule:nonzero;stroke:none" id="text698"><tspan x="0" y="0" id="tspan696"> </tspan></text><text transform="matrix(1,0,0,-1,393.05,555.789)" style="font-variant:normal;font-weight:normal;font-size:12px;font-family:Consolas;-inkscape-font-specification:Consolas;writing-mode:lr-tb;fill:#000000;fill-opacity:1;fill-rule:nonzero;stroke:none" id="text702"><tspan x="0 6.5879998 13.176 19.764 26.351999" y="0" id="tspan700">1e-4)</tspan></text></g><g id="g704"><text transform="matrix(1,0,0,-1,94.65,538.039)" style="font-style:italic;font-variant:normal;font-size:14px;font-family:'Liberation Serif';-inkscape-font-specification:LiberationSerif-Italic;writing-mode:lr-tb;fill:#000000;fill-opacity:1;fill-rule:nonzero;stroke:none" id="text708"><tspan x="0 3.878" y="0" id="tspan706">lr</tspan></text></g><g id="g710"><text transform="matrix(1,0,0,-1,71.55,521.439)" style="font-variant:normal;font-weight:normal;font-size:14px;font-family:Calibri;-inkscape-font-specification:Calibri;writing-mode:lr-tb;fill:#000000;fill-opacity:1;fill-rule:nonzero;stroke:none" id="text714"><tspan x="0 5.474 11.382 18.732 25.690001 33.040001 40.389999 43.596001 50.554001" y="0" id="tspan712">scheduler</tspan></text></g><g id="g716"><text transform="matrix(1,0,0,-1,257.75,537.639)" style="font-variant:normal;font-weight:normal;font-size:12px;font-family:Consolas;-inkscape-font-specification:Consolas;writing-mode:lr-tb;fill:#000000;fill-opacity:1;fill-rule:nonzero;stroke:none" id="text720"><tspan x="0 6.5879998 13.176 19.764 26.351999" y="0" id="tspan718">None,</tspan></text><text transform="matrix(1,0,0,-1,290.75,537.639)" style="font-variant:normal;font-weight:normal;font-size:12px;font-family:Consolas;-inkscape-font-specification:Consolas;writing-mode:lr-tb;fill:#000000;fill-opacity:1;fill-rule:nonzero;stroke:none" id="text724"><tspan x="0" y="0" id="tspan722"> </tspan></text><text transform="matrix(1,0,0,-1,297.35,537.639)" style="font-variant:normal;font-weight:normal;font-size:12px;font-family:Consolas;-inkscape-font-specification:Consolas;writing-mode:lr-tb;fill:#000000;fill-opacity:1;fill-rule:nonzero;stroke:none" id="text728"><tspan x="0 6.5879998 13.176 19.764 26.351999 32.939999 39.528 46.116001 52.703999 59.292 65.879997 72.468002 79.056 85.643997 92.232002 98.82 105.408 111.996 118.584" y="0" id="tspan726">ExponentialLR-0.95,</tspan></text></g><g id="g730"><text transform="matrix(1,0,0,-1,178.55,523.589)" style="font-variant:normal;font-weight:normal;font-size:12px;font-family:Consolas;-inkscape-font-specification:Consolas;writing-mode:lr-tb;fill:#000000;fill-opacity:1;fill-rule:nonzero;stroke:none" id="text734"><tspan x="0 6.5879998 13.176 19.764 26.351999 32.939999 39.528 46.116001 52.703999 59.292 65.879997 72.468002 79.056 85.643997 92.232002 98.82 105.408 111.996 118.584 125.172 131.75999 138.34801 144.936 151.524 158.112" y="0" id="tspan732">ReduceLROnPlateau-0.1-10,</tspan></text><text transform="matrix(1,0,0,-1,343.55,523.589)" style="font-variant:normal;font-weight:normal;font-size:12px;font-family:Consolas;-inkscape-font-specification:Consolas;writing-mode:lr-tb;fill:#000000;fill-opacity:1;fill-rule:nonzero;stroke:none" id="text738"><tspan x="0" y="0" id="tspan736"> </tspan></text><text transform="matrix(1,0,0,-1,350.15,523.589)" style="font-variant:normal;font-weight:normal;font-size:12px;font-family:Consolas;-inkscape-font-specification:Consolas;writing-mode:lr-tb;fill:#000000;fill-opacity:1;fill-rule:nonzero;stroke:none" id="text742"><tspan x="0 6.5879998 13.176 19.764 26.351999 32.939999 39.528 46.116001 52.703999 59.292 65.879997 72.468002 79.056 85.643997 92.232002 98.82 105.408 111.996 118.584 125.172 131.75999 138.34801 144.936" y="0" id="tspan740">ReduceLROnPlateau-0.5-2</tspan></text></g><g id="g744"><text transform="matrix(1,0,0,-1,97.35,503.839)" style="font-style:italic;font-variant:normal;font-size:14px;font-family:'Liberation Serif';-inkscape-font-specification:LiberationSerif-Italic;writing-mode:lr-tb;fill:#000000;fill-opacity:1;fill-rule:nonzero;stroke:none" id="text748"><tspan x="0" y="0" id="tspan746">t</tspan></text></g><g id="g750"><text transform="matrix(1,0,0,-1,318.35,503.839)" style="font-variant:normal;font-weight:normal;font-size:14px;font-family:Calibri;-inkscape-font-specification:Calibri;writing-mode:lr-tb;fill:#000000;fill-opacity:1;fill-rule:nonzero;stroke:none" id="text754"><tspan x="0 7.0840001 14.168 21.252001 24.416 30.323999 37.282001" y="0" id="tspan752">300 сек</tspan></text></g><g id="g756"><text transform="matrix(1,0,0,-1,95.4,486.239)" style="font-style:italic;font-variant:normal;font-size:14px;font-family:'Liberation Serif';-inkscape-font-specification:LiberationSerif-Italic;writing-mode:lr-tb;fill:#000000;fill-opacity:1;fill-rule:nonzero;stroke:none" id="text760"><tspan x="0" y="0" id="tspan758">T</tspan></text></g><g id="g762"><text transform="matrix(1,0,0,-1,318.5,486.239)" style="font-variant:normal;font-weight:normal;font-size:14px;font-family:Calibri;-inkscape-font-specification:Calibri;writing-mode:lr-tb;fill:#000000;fill-opacity:1;fill-rule:nonzero;stroke:none" id="text766"><tspan x="0 7.0840001 10.248 16.799999 23.506001 29.414 36.792" y="0" id="tspan764">8 часов</tspan></text></g></g><metadata id="metadata6102"><rdf:RDF><cc:Work rdf:about=""><dc:title>Область поиска и ограничение по времени для всех алгоритмов HPO</dc:title></cc:Work></rdf:RDF></metadata></svg>
