<?xml version="1.0" encoding="UTF-8" standalone="no"?>
<!-- Created with Inkscape (http://www.inkscape.org/) -->

<svg version="1.1" id="svg7509" xml:space="preserve" width="172.17999mm" height="61.972221mm" viewBox="0 0 650.75905 234.22572" xmlns="http://www.w3.org/2000/svg" xmlns:svg="http://www.w3.org/2000/svg" xmlns:rdf="http://www.w3.org/1999/02/22-rdf-syntax-ns#" xmlns:cc="http://creativecommons.org/ns#" xmlns:dc="http://purl.org/dc/elements/1.1/"><title id="title10287">Область поиска и ограничение по времени для 2-мерной задачи</title><defs id="defs7513"><clipPath clipPathUnits="userSpaceOnUse" id="clipPath7523"><path d="M 0,0.028 H 595.275 V 841.889 H 0 Z" clip-rule="evenodd" id="path7521" /></clipPath><clipPath clipPathUnits="userSpaceOnUse" id="clipPath8451"><path d="M 0,0.028 H 595.275 V 841.889 H 0 Z" clip-rule="evenodd" id="path8449" /></clipPath><clipPath clipPathUnits="userSpaceOnUse" id="clipPath8465"><path d="M 56.7,147.689 H 538.6 V 328.788 H 56.7 Z" clip-rule="evenodd" id="path8463" /></clipPath><clipPath clipPathUnits="userSpaceOnUse" id="clipPath8677"><path d="M 97.581,180.541 H 294.654 V 324.489 H 97.581 Z" clip-rule="evenodd" id="path8675" /></clipPath><clipPath clipPathUnits="userSpaceOnUse" id="clipPath8689"><path d="M 56.7,147.689 H 538.6 V 328.788 H 56.7 Z" clip-rule="evenodd" id="path8687" /></clipPath><clipPath clipPathUnits="userSpaceOnUse" id="clipPath9069"><path d="M 338.156,180.551 H 535.229 V 324.489 H 338.156 Z" clip-rule="evenodd" id="path9067" /></clipPath><clipPath clipPathUnits="userSpaceOnUse" id="clipPath9081"><path d="M 56.7,147.689 H 538.6 V 328.788 H 56.7 Z" clip-rule="evenodd" id="path9079" /></clipPath></defs><g id="g7515" transform="matrix(1.3333333,0,0,-1.3333333,-71.487137,880.56484)"><g id="g7555" /><g id="g7563" /><g id="g7607"><path d="M 56.45,657.339 H 538.85" style="fill:none;stroke:#000000;stroke-width:0.5;stroke-linecap:butt;stroke-linejoin:round;stroke-miterlimit:10;stroke-dasharray:none;stroke-opacity:1" id="path7609" /></g><g id="g7611"><path d="M 56.95,640.739 H 538.35" style="fill:none;stroke:#000000;stroke-width:0.5;stroke-linecap:butt;stroke-linejoin:round;stroke-miterlimit:10;stroke-dasharray:none;stroke-opacity:1" id="path7613" /></g><g id="g7615"><path d="M 56.95,624.139 H 538.35" style="fill:none;stroke:#000000;stroke-width:0.5;stroke-linecap:butt;stroke-linejoin:round;stroke-miterlimit:10;stroke-dasharray:none;stroke-opacity:1" id="path7617" /></g><g id="g7619"><path d="M 56.95,607.539 H 538.35" style="fill:none;stroke:#000000;stroke-width:0.5;stroke-linecap:butt;stroke-linejoin:round;stroke-miterlimit:10;stroke-dasharray:none;stroke-opacity:1" id="path7621" /></g><g id="g7623"><path d="M 56.95,589.939 H 538.35" style="fill:none;stroke:#000000;stroke-width:0.5;stroke-linecap:butt;stroke-linejoin:round;stroke-miterlimit:10;stroke-dasharray:none;stroke-opacity:1" id="path7625" /></g><g id="g7627"><path d="M 56.95,573.339 H 538.35" style="fill:none;stroke:#000000;stroke-width:0.5;stroke-linecap:butt;stroke-linejoin:round;stroke-miterlimit:10;stroke-dasharray:none;stroke-opacity:1" id="path7629" /></g><g id="g7631"><path d="M 56.95,556.739 H 538.35" style="fill:none;stroke:#000000;stroke-width:0.5;stroke-linecap:butt;stroke-linejoin:round;stroke-miterlimit:10;stroke-dasharray:none;stroke-opacity:1" id="path7633" /></g><g id="g7635"><path d="M 56.95,523.039 H 538.35" style="fill:none;stroke:#000000;stroke-width:0.5;stroke-linecap:butt;stroke-linejoin:round;stroke-miterlimit:10;stroke-dasharray:none;stroke-opacity:1" id="path7637" /></g><g id="g7639"><path d="M 56.95,505.439 H 538.35" style="fill:none;stroke:#000000;stroke-width:0.5;stroke-linecap:butt;stroke-linejoin:round;stroke-miterlimit:10;stroke-dasharray:none;stroke-opacity:1" id="path7641" /></g><g id="g7643"><path d="M 56.45,487.839 H 538.85" style="fill:none;stroke:#000000;stroke-width:0.5;stroke-linecap:butt;stroke-linejoin:round;stroke-miterlimit:10;stroke-dasharray:none;stroke-opacity:1" id="path7645" /></g><g id="g7647"><path d="M 56.7,657.589 V 487.589" style="fill:none;stroke:#000000;stroke-width:0.5;stroke-linecap:butt;stroke-linejoin:round;stroke-miterlimit:10;stroke-dasharray:none;stroke-opacity:1" id="path7649" /></g><g id="g7651"><path d="M 141.7,657.089 V 488.089" style="fill:none;stroke:#000000;stroke-width:0.5;stroke-linecap:butt;stroke-linejoin:round;stroke-miterlimit:10;stroke-dasharray:none;stroke-opacity:1" id="path7653" /></g><g id="g7655"><path d="M 538.6,657.589 V 487.589" style="fill:none;stroke:#000000;stroke-width:0.5;stroke-linecap:butt;stroke-linejoin:round;stroke-miterlimit:10;stroke-dasharray:none;stroke-opacity:1" id="path7657" /></g><g id="g7659"><text transform="matrix(1,0,0,-1,94.65,644.039)" style="font-style:italic;font-variant:normal;font-size:14px;font-family:'Liberation Serif';-inkscape-font-specification:LiberationSerif-Italic;writing-mode:lr-tb;fill:#000000;fill-opacity:1;fill-rule:nonzero;stroke:none" id="text7663"><tspan x="0" y="0" id="tspan7661">N</tspan></text></g><g id="g7665"><text transform="matrix(1,0,0,-1,257.75,645.189)" style="font-variant:normal;font-weight:normal;font-size:12px;font-family:Consolas;-inkscape-font-specification:Consolas;writing-mode:lr-tb;fill:#000000;fill-opacity:1;fill-rule:nonzero;stroke:none" id="text7669"><tspan x="0 6.5879998 13.176 19.764 26.351999 32.939999 39.528 46.116001 52.703999 59.292 65.879997 72.468002 79.056 85.643997 92.232002" y="0" id="tspan7667">qlograndint(64,</tspan></text><text transform="matrix(1,0,0,-1,356.75,645.189)" style="font-variant:normal;font-weight:normal;font-size:12px;font-family:Consolas;-inkscape-font-specification:Consolas;writing-mode:lr-tb;fill:#000000;fill-opacity:1;fill-rule:nonzero;stroke:none" id="text7673"><tspan x="0" y="0" id="tspan7671"> </tspan></text><text transform="matrix(1,0,0,-1,363.35,645.189)" style="font-variant:normal;font-weight:normal;font-size:12px;font-family:Consolas;-inkscape-font-specification:Consolas;writing-mode:lr-tb;fill:#000000;fill-opacity:1;fill-rule:nonzero;stroke:none" id="text7677"><tspan x="0 6.5879998 13.176 19.764 26.351999" y="0" id="tspan7675">2048,</tspan></text><text transform="matrix(1,0,0,-1,396.35,645.189)" style="font-variant:normal;font-weight:normal;font-size:12px;font-family:Consolas;-inkscape-font-specification:Consolas;writing-mode:lr-tb;fill:#000000;fill-opacity:1;fill-rule:nonzero;stroke:none" id="text7681"><tspan x="0" y="0" id="tspan7679"> </tspan></text><text transform="matrix(1,0,0,-1,402.95,645.189)" style="font-variant:normal;font-weight:normal;font-size:12px;font-family:Consolas;-inkscape-font-specification:Consolas;writing-mode:lr-tb;fill:#000000;fill-opacity:1;fill-rule:nonzero;stroke:none" id="text7685"><tspan x="0 6.5879998 13.176" y="0" id="tspan7683">32)</tspan></text></g><g id="g7687"><text transform="matrix(1,0,0,-1,95.4,627.439)" style="font-style:italic;font-variant:normal;font-size:14px;font-family:'Liberation Serif';-inkscape-font-specification:LiberationSerif-Italic;writing-mode:lr-tb;fill:#000000;fill-opacity:1;fill-rule:nonzero;stroke:none" id="text7691"><tspan x="0" y="0" id="tspan7689">L</tspan></text></g><g id="g7693"><text transform="matrix(1,0,0,-1,297.35,628.589)" style="font-variant:normal;font-weight:normal;font-size:12px;font-family:Consolas;-inkscape-font-specification:Consolas;writing-mode:lr-tb;fill:#000000;fill-opacity:1;fill-rule:nonzero;stroke:none" id="text7697"><tspan x="0 6.5879998 13.176 19.764 26.351999 32.939999 39.528 46.116001 52.703999 59.292" y="0" id="tspan7695">randint(1,</tspan></text><text transform="matrix(1,0,0,-1,363.35,628.589)" style="font-variant:normal;font-weight:normal;font-size:12px;font-family:Consolas;-inkscape-font-specification:Consolas;writing-mode:lr-tb;fill:#000000;fill-opacity:1;fill-rule:nonzero;stroke:none" id="text7701"><tspan x="0" y="0" id="tspan7699"> </tspan></text><text transform="matrix(1,0,0,-1,369.95,628.589)" style="font-variant:normal;font-weight:normal;font-size:12px;font-family:Consolas;-inkscape-font-specification:Consolas;writing-mode:lr-tb;fill:#000000;fill-opacity:1;fill-rule:nonzero;stroke:none" id="text7705"><tspan x="0 6.5879998" y="0" id="tspan7703">5)</tspan></text></g><g id="g7707"><text transform="matrix(1,0,0,-1,95.85,610.839)" style="font-style:italic;font-variant:normal;font-size:14px;font-family:'Liberation Serif';-inkscape-font-specification:LiberationSerif-Italic;writing-mode:lr-tb;fill:#000000;fill-opacity:1;fill-rule:nonzero;stroke:none" id="text7711"><tspan x="0" y="0" id="tspan7709">σ</tspan></text></g><g id="g7713"><text transform="matrix(1,0,0,-1,244.55,611.989)" style="font-variant:normal;font-weight:normal;font-size:12px;font-family:Consolas;-inkscape-font-specification:Consolas;writing-mode:lr-tb;fill:#000000;fill-opacity:1;fill-rule:nonzero;stroke:none" id="text7717"><tspan x="0 6.5879998 13.176 19.764" y="0" id="tspan7715">ELU,</tspan></text><text transform="matrix(1,0,0,-1,270.95,611.989)" style="font-variant:normal;font-weight:normal;font-size:12px;font-family:Consolas;-inkscape-font-specification:Consolas;writing-mode:lr-tb;fill:#000000;fill-opacity:1;fill-rule:nonzero;stroke:none" id="text7721"><tspan x="0" y="0" id="tspan7719"> </tspan></text><text transform="matrix(1,0,0,-1,277.55,611.989)" style="font-variant:normal;font-weight:normal;font-size:12px;font-family:Consolas;-inkscape-font-specification:Consolas;writing-mode:lr-tb;fill:#000000;fill-opacity:1;fill-rule:nonzero;stroke:none" id="text7725"><tspan x="0 6.5879998 13.176 19.764 26.351999 32.939999 39.528 46.116001" y="0" id="tspan7723">sigmoid,</tspan></text><text transform="matrix(1,0,0,-1,330.35,611.989)" style="font-variant:normal;font-weight:normal;font-size:12px;font-family:Consolas;-inkscape-font-specification:Consolas;writing-mode:lr-tb;fill:#000000;fill-opacity:1;fill-rule:nonzero;stroke:none" id="text7729"><tspan x="0" y="0" id="tspan7727"> </tspan></text><text transform="matrix(1,0,0,-1,336.95,611.989)" style="font-variant:normal;font-weight:normal;font-size:12px;font-family:Consolas;-inkscape-font-specification:Consolas;writing-mode:lr-tb;fill:#000000;fill-opacity:1;fill-rule:nonzero;stroke:none" id="text7733"><tspan x="0 6.5879998 13.176 19.764 26.351999" y="0" id="tspan7731">tanh,</tspan></text><text transform="matrix(1,0,0,-1,369.95,611.989)" style="font-variant:normal;font-weight:normal;font-size:12px;font-family:Consolas;-inkscape-font-specification:Consolas;writing-mode:lr-tb;fill:#000000;fill-opacity:1;fill-rule:nonzero;stroke:none" id="text7737"><tspan x="0" y="0" id="tspan7735"> </tspan></text><text transform="matrix(1,0,0,-1,376.55,611.989)" style="font-variant:normal;font-weight:normal;font-size:12px;font-family:Consolas;-inkscape-font-specification:Consolas;writing-mode:lr-tb;fill:#000000;fill-opacity:1;fill-rule:nonzero;stroke:none" id="text7741"><tspan x="0 6.5879998 13.176 19.764" y="0" id="tspan7739">sin,</tspan></text><text transform="matrix(1,0,0,-1,402.95,611.989)" style="font-variant:normal;font-weight:normal;font-size:12px;font-family:Consolas;-inkscape-font-specification:Consolas;writing-mode:lr-tb;fill:#000000;fill-opacity:1;fill-rule:nonzero;stroke:none" id="text7745"><tspan x="0" y="0" id="tspan7743"> </tspan></text><text transform="matrix(1,0,0,-1,409.55,611.989)" style="font-variant:normal;font-weight:normal;font-size:12px;font-family:Consolas;-inkscape-font-specification:Consolas;writing-mode:lr-tb;fill:#000000;fill-opacity:1;fill-rule:nonzero;stroke:none" id="text7749"><tspan x="0 6.5879998 13.176 19.764" y="0" id="tspan7747">atan</tspan></text></g><g id="g7751"><text transform="matrix(1,0,0,-1,89.65,593.739)" style="font-style:italic;font-variant:normal;font-size:14px;font-family:'Liberation Serif';-inkscape-font-specification:LiberationSerif-Italic;writing-mode:lr-tb;fill:#000000;fill-opacity:1;fill-rule:nonzero;stroke:none" id="text7755"><tspan x="0 3.836" y="0" id="tspan7753">|N</tspan></text></g><g id="g7757"><text transform="matrix(1,0,0,-1,102.85,592.539)" style="font-style:italic;font-variant:normal;font-size:8.1px;font-family:'Liberation Serif';-inkscape-font-specification:LiberationSerif-Italic;writing-mode:lr-tb;fill:#000000;fill-opacity:1;fill-rule:nonzero;stroke:none" id="text7761"><tspan x="0" y="0" id="tspan7759">f</tspan></text></g><g id="g7763"><text transform="matrix(1,0,0,-1,105.1,593.739)" style="font-style:italic;font-variant:normal;font-size:14px;font-family:'Liberation Serif';-inkscape-font-specification:LiberationSerif-Italic;writing-mode:lr-tb;fill:#000000;fill-opacity:1;fill-rule:nonzero;stroke:none" id="text7767"><tspan x="0" y="0" id="tspan7765">|</tspan></text></g><g id="g7769"><text transform="matrix(1,0,0,-1,306.15,593.739)" style="font-variant:normal;font-weight:normal;font-size:14px;font-family:Calibri;-inkscape-font-specification:Calibri;writing-mode:lr-tb;fill:#000000;fill-opacity:1;fill-rule:nonzero;stroke:none" id="text7773"><tspan x="0 7.0840001" y="0" id="tspan7771">10</tspan></text></g><g id="g7775"><text transform="matrix(1,0,0,-1,320.35,599.439)" style="font-variant:normal;font-weight:normal;font-size:8.1px;font-family:Calibri;-inkscape-font-specification:Calibri;writing-mode:lr-tb;fill:#000000;fill-opacity:1;fill-rule:nonzero;stroke:none" id="text7779"><tspan x="0" y="0" id="tspan7777">2</tspan></text></g><g id="g7781"><text transform="matrix(1,0,0,-1,324.45,593.739)" style="font-variant:normal;font-weight:normal;font-size:14px;font-family:Calibri;-inkscape-font-specification:Calibri;writing-mode:lr-tb;fill:#000000;fill-opacity:1;fill-rule:nonzero;stroke:none" id="text7785"><tspan x="0 3.4860001 6.6500001 13.734" y="0" id="tspan7783">, 10</tspan></text></g><g id="g7787"><text transform="matrix(1,0,0,-1,345.3,599.439)" style="font-variant:normal;font-weight:normal;font-size:8.1px;font-family:Calibri;-inkscape-font-specification:Calibri;writing-mode:lr-tb;fill:#000000;fill-opacity:1;fill-rule:nonzero;stroke:none" id="text7791"><tspan x="0" y="0" id="tspan7789">3</tspan></text></g><g id="g7793"><text transform="matrix(1,0,0,-1,349.4,593.739)" style="font-variant:normal;font-weight:normal;font-size:14px;font-family:Calibri;-inkscape-font-specification:Calibri;writing-mode:lr-tb;fill:#000000;fill-opacity:1;fill-rule:nonzero;stroke:none" id="text7797"><tspan x="0 3.4860001 6.6500001 13.734" y="0" id="tspan7795">, 10</tspan></text></g><g id="g7799"><text transform="matrix(1,0,0,-1,370.25,599.439)" style="font-variant:normal;font-weight:normal;font-size:8.1px;font-family:Calibri;-inkscape-font-specification:Calibri;writing-mode:lr-tb;fill:#000000;fill-opacity:1;fill-rule:nonzero;stroke:none" id="text7803"><tspan x="0" y="0" id="tspan7801">4</tspan></text></g><g id="g7805"><text transform="matrix(1,0,0,-1,82,576.639)" style="font-style:italic;font-variant:normal;font-size:14px;font-family:'Liberation Serif';-inkscape-font-specification:LiberationSerif-Italic;writing-mode:lr-tb;fill:#000000;fill-opacity:1;fill-rule:nonzero;stroke:none" id="text7809"><tspan x="0 3.836" y="0" id="tspan7807">|N</tspan></text></g><g id="g7811"><text transform="matrix(1,0,0,-1,95.2,575.439)" style="font-variant:normal;font-weight:normal;font-size:8.1px;font-family:'Liberation Serif';-inkscape-font-specification:LiberationSerif;writing-mode:lr-tb;fill:#000000;fill-opacity:1;fill-rule:nonzero;stroke:none" id="text7815"><tspan x="0 4.0500002 7.6382999 9.882 13.4703" y="0" id="tspan7813">batch</tspan></text></g><g id="g7817"><text transform="matrix(1,0,0,-1,112.75,576.639)" style="font-style:italic;font-variant:normal;font-size:14px;font-family:'Liberation Serif';-inkscape-font-specification:LiberationSerif-Italic;writing-mode:lr-tb;fill:#000000;fill-opacity:1;fill-rule:nonzero;stroke:none" id="text7821"><tspan x="0" y="0" id="tspan7819">|</tspan></text></g><g id="g7823"><text transform="matrix(1,0,0,-1,254.45,577.789)" style="font-variant:normal;font-weight:normal;font-size:12px;font-family:Consolas;-inkscape-font-specification:Consolas;writing-mode:lr-tb;fill:#000000;fill-opacity:1;fill-rule:nonzero;stroke:none" id="text7827"><tspan x="0 6.5879998 13.176 19.764 26.351999 32.939999 39.528 46.116001 52.703999 59.292 65.879997 72.468002 79.056 85.643997 92.232002" y="0" id="tspan7825">qlograndint(64,</tspan></text><text transform="matrix(1,0,0,-1,353.45,577.789)" style="font-variant:normal;font-weight:normal;font-size:12px;font-family:Consolas;-inkscape-font-specification:Consolas;writing-mode:lr-tb;fill:#000000;fill-opacity:1;fill-rule:nonzero;stroke:none" id="text7831"><tspan x="0" y="0" id="tspan7829"> </tspan></text><text transform="matrix(1,0,0,-1,360.05,577.789)" style="font-variant:normal;font-weight:normal;font-size:12px;font-family:Consolas;-inkscape-font-specification:Consolas;writing-mode:lr-tb;fill:#000000;fill-opacity:1;fill-rule:nonzero;stroke:none" id="text7835"><tspan x="0 6.5879998 13.176 19.764 26.351999 32.939999" y="0" id="tspan7833">32768,</tspan></text><text transform="matrix(1,0,0,-1,399.65,577.789)" style="font-variant:normal;font-weight:normal;font-size:12px;font-family:Consolas;-inkscape-font-specification:Consolas;writing-mode:lr-tb;fill:#000000;fill-opacity:1;fill-rule:nonzero;stroke:none" id="text7839"><tspan x="0" y="0" id="tspan7837"> </tspan></text><text transform="matrix(1,0,0,-1,406.25,577.789)" style="font-variant:normal;font-weight:normal;font-size:12px;font-family:Consolas;-inkscape-font-specification:Consolas;writing-mode:lr-tb;fill:#000000;fill-opacity:1;fill-rule:nonzero;stroke:none" id="text7843"><tspan x="0 6.5879998 13.176" y="0" id="tspan7841">32)</tspan></text></g><g id="g7845"><text transform="matrix(1,0,0,-1,94.65,560.039)" style="font-style:italic;font-variant:normal;font-size:14px;font-family:'Liberation Serif';-inkscape-font-specification:LiberationSerif-Italic;writing-mode:lr-tb;fill:#000000;fill-opacity:1;fill-rule:nonzero;stroke:none" id="text7849"><tspan x="0 3.878" y="0" id="tspan7847">lr</tspan></text></g><g id="g7851"><text transform="matrix(1,0,0,-1,254.45,561.189)" style="font-variant:normal;font-weight:normal;font-size:12px;font-family:Consolas;-inkscape-font-specification:Consolas;writing-mode:lr-tb;fill:#000000;fill-opacity:1;fill-rule:nonzero;stroke:none" id="text7855"><tspan x="0 6.5879998 13.176 19.764 26.351999 32.939999 39.528 46.116001 52.703999 59.292 65.879997 72.468002 79.056 85.643997 92.232002 98.82 105.408" y="0" id="tspan7853">qloguniform(1e-4,</tspan></text><text transform="matrix(1,0,0,-1,366.65,561.189)" style="font-variant:normal;font-weight:normal;font-size:12px;font-family:Consolas;-inkscape-font-specification:Consolas;writing-mode:lr-tb;fill:#000000;fill-opacity:1;fill-rule:nonzero;stroke:none" id="text7859"><tspan x="0" y="0" id="tspan7857"> </tspan></text><text transform="matrix(1,0,0,-1,373.25,561.189)" style="font-variant:normal;font-weight:normal;font-size:12px;font-family:Consolas;-inkscape-font-specification:Consolas;writing-mode:lr-tb;fill:#000000;fill-opacity:1;fill-rule:nonzero;stroke:none" id="text7863"><tspan x="0 6.5879998" y="0" id="tspan7861">1,</tspan></text><text transform="matrix(1,0,0,-1,386.45,561.189)" style="font-variant:normal;font-weight:normal;font-size:12px;font-family:Consolas;-inkscape-font-specification:Consolas;writing-mode:lr-tb;fill:#000000;fill-opacity:1;fill-rule:nonzero;stroke:none" id="text7867"><tspan x="0" y="0" id="tspan7865"> </tspan></text><text transform="matrix(1,0,0,-1,393.05,561.189)" style="font-variant:normal;font-weight:normal;font-size:12px;font-family:Consolas;-inkscape-font-specification:Consolas;writing-mode:lr-tb;fill:#000000;fill-opacity:1;fill-rule:nonzero;stroke:none" id="text7871"><tspan x="0 6.5879998 13.176 19.764 26.351999" y="0" id="tspan7869">1e-4)</tspan></text></g><g id="g7873"><text transform="matrix(1,0,0,-1,94.65,543.439)" style="font-style:italic;font-variant:normal;font-size:14px;font-family:'Liberation Serif';-inkscape-font-specification:LiberationSerif-Italic;writing-mode:lr-tb;fill:#000000;fill-opacity:1;fill-rule:nonzero;stroke:none" id="text7877"><tspan x="0 3.878" y="0" id="tspan7875">lr</tspan></text></g><g id="g7879"><text transform="matrix(1,0,0,-1,71.55,526.839)" style="font-variant:normal;font-weight:normal;font-size:14px;font-family:Calibri;-inkscape-font-specification:Calibri;writing-mode:lr-tb;fill:#000000;fill-opacity:1;fill-rule:nonzero;stroke:none" id="text7883"><tspan x="0 5.474 11.382 18.732 25.690001 33.040001 40.389999 43.596001 50.554001" y="0" id="tspan7881">scheduler</tspan></text></g><g id="g7885"><text transform="matrix(1,0,0,-1,257.75,543.039)" style="font-variant:normal;font-weight:normal;font-size:12px;font-family:Consolas;-inkscape-font-specification:Consolas;writing-mode:lr-tb;fill:#000000;fill-opacity:1;fill-rule:nonzero;stroke:none" id="text7889"><tspan x="0 6.5879998 13.176 19.764 26.351999" y="0" id="tspan7887">None,</tspan></text><text transform="matrix(1,0,0,-1,290.75,543.039)" style="font-variant:normal;font-weight:normal;font-size:12px;font-family:Consolas;-inkscape-font-specification:Consolas;writing-mode:lr-tb;fill:#000000;fill-opacity:1;fill-rule:nonzero;stroke:none" id="text7893"><tspan x="0" y="0" id="tspan7891"> </tspan></text><text transform="matrix(1,0,0,-1,297.35,543.039)" style="font-variant:normal;font-weight:normal;font-size:12px;font-family:Consolas;-inkscape-font-specification:Consolas;writing-mode:lr-tb;fill:#000000;fill-opacity:1;fill-rule:nonzero;stroke:none" id="text7897"><tspan x="0 6.5879998 13.176 19.764 26.351999 32.939999 39.528 46.116001 52.703999 59.292 65.879997 72.468002 79.056 85.643997 92.232002 98.82 105.408 111.996 118.584" y="0" id="tspan7895">ExponentialLR-0.95,</tspan></text></g><g id="g7899"><text transform="matrix(1,0,0,-1,178.55,528.989)" style="font-variant:normal;font-weight:normal;font-size:12px;font-family:Consolas;-inkscape-font-specification:Consolas;writing-mode:lr-tb;fill:#000000;fill-opacity:1;fill-rule:nonzero;stroke:none" id="text7903"><tspan x="0 6.5879998 13.176 19.764 26.351999 32.939999 39.528 46.116001 52.703999 59.292 65.879997 72.468002 79.056 85.643997 92.232002 98.82 105.408 111.996 118.584 125.172 131.75999 138.34801 144.936 151.524 158.112" y="0" id="tspan7901">ReduceLROnPlateau-0.1-10,</tspan></text><text transform="matrix(1,0,0,-1,343.55,528.989)" style="font-variant:normal;font-weight:normal;font-size:12px;font-family:Consolas;-inkscape-font-specification:Consolas;writing-mode:lr-tb;fill:#000000;fill-opacity:1;fill-rule:nonzero;stroke:none" id="text7907"><tspan x="0" y="0" id="tspan7905"> </tspan></text><text transform="matrix(1,0,0,-1,350.15,528.989)" style="font-variant:normal;font-weight:normal;font-size:12px;font-family:Consolas;-inkscape-font-specification:Consolas;writing-mode:lr-tb;fill:#000000;fill-opacity:1;fill-rule:nonzero;stroke:none" id="text7911"><tspan x="0 6.5879998 13.176 19.764 26.351999 32.939999 39.528 46.116001 52.703999 59.292 65.879997 72.468002 79.056 85.643997 92.232002 98.82 105.408 111.996 118.584 125.172 131.75999 138.34801 144.936" y="0" id="tspan7909">ReduceLROnPlateau-0.5-2</tspan></text></g><g id="g7913"><text transform="matrix(1,0,0,-1,97.35,509.239)" style="font-style:italic;font-variant:normal;font-size:14px;font-family:'Liberation Serif';-inkscape-font-specification:LiberationSerif-Italic;writing-mode:lr-tb;fill:#000000;fill-opacity:1;fill-rule:nonzero;stroke:none" id="text7917"><tspan x="0" y="0" id="tspan7915">t</tspan></text></g><g id="g7919"><text transform="matrix(1,0,0,-1,321.9,509.239)" style="font-variant:normal;font-weight:normal;font-size:14px;font-family:Calibri;-inkscape-font-specification:Calibri;writing-mode:lr-tb;fill:#000000;fill-opacity:1;fill-rule:nonzero;stroke:none" id="text7923"><tspan x="0 7.0840001 14.168 17.332001 23.24 30.198" y="0" id="tspan7921">30 сек</tspan></text></g><g id="g7925"><text transform="matrix(1,0,0,-1,95.4,491.639)" style="font-style:italic;font-variant:normal;font-size:14px;font-family:'Liberation Serif';-inkscape-font-specification:LiberationSerif-Italic;writing-mode:lr-tb;fill:#000000;fill-opacity:1;fill-rule:nonzero;stroke:none" id="text7929"><tspan x="0" y="0" id="tspan7927">T</tspan></text></g><g id="g7931"><text transform="matrix(1,0,0,-1,325.55,491.639)" style="font-variant:normal;font-weight:normal;font-size:14px;font-family:Calibri;-inkscape-font-specification:Calibri;writing-mode:lr-tb;fill:#000000;fill-opacity:1;fill-rule:nonzero;stroke:none" id="text7935"><tspan x="0 7.0840001 10.248 16.799999 23.506001" y="0" id="tspan7933">1 час</tspan></text></g></g><metadata id="metadata10285"><rdf:RDF><cc:Work rdf:about=""><dc:title>Область поиска и ограничение по времени для 2-мерной задачи</dc:title></cc:Work></rdf:RDF></metadata></svg>
