<?xml version="1.0" encoding="UTF-8" standalone="no"?>
<!-- Created with Inkscape (http://www.inkscape.org/) -->

<svg version="1.1" id="svg2" xml:space="preserve" width="172.17999mm" height="61.972221mm" viewBox="0 0 650.75905 234.22572" xmlns="http://www.w3.org/2000/svg" xmlns:svg="http://www.w3.org/2000/svg" xmlns:rdf="http://www.w3.org/1999/02/22-rdf-syntax-ns#" xmlns:cc="http://creativecommons.org/ns#" xmlns:dc="http://purl.org/dc/elements/1.1/"><title id="title3666">Область поиска и ограничение по времени для 5-мерной задачи</title><defs id="defs6"><clipPath clipPathUnits="userSpaceOnUse" id="clipPath16"><path d="M 0,0.028 H 595.275 V 841.889 H 0 Z" clip-rule="evenodd" id="path14" /></clipPath><clipPath clipPathUnits="userSpaceOnUse" id="clipPath922"><path d="M 0,0.028 H 595.275 V 841.889 H 0 Z" clip-rule="evenodd" id="path920" /></clipPath><clipPath clipPathUnits="userSpaceOnUse" id="clipPath978"><path d="M 56.7,178.489 H 538.6 V 359.588 H 56.7 Z" clip-rule="evenodd" id="path976" /></clipPath><clipPath clipPathUnits="userSpaceOnUse" id="clipPath1414"><path d="M 97.581,211.389 H 294.654 V 355.339 H 97.581 Z" clip-rule="evenodd" id="path1412" /></clipPath><clipPath clipPathUnits="userSpaceOnUse" id="clipPath1426"><path d="M 56.7,178.489 H 538.6 V 359.588 H 56.7 Z" clip-rule="evenodd" id="path1424" /></clipPath><clipPath clipPathUnits="userSpaceOnUse" id="clipPath1792"><path d="M 338.156,211.389 H 535.229 V 355.339 H 338.156 Z" clip-rule="evenodd" id="path1790" /></clipPath><clipPath clipPathUnits="userSpaceOnUse" id="clipPath1804"><path d="M 56.7,178.489 H 538.6 V 359.588 H 56.7 Z" clip-rule="evenodd" id="path1802" /></clipPath></defs><g id="g8" transform="matrix(1.3333333,0,0,-1.3333333,-71.487137,967.36484)"><g id="g48"><path d="M 56.45,722.439 H 538.85" style="fill:none;stroke:#000000;stroke-width:0.5;stroke-linecap:butt;stroke-linejoin:round;stroke-miterlimit:10;stroke-dasharray:none;stroke-opacity:1" id="path50" /></g><g id="g52"><path d="M 56.95,705.839 H 538.35" style="fill:none;stroke:#000000;stroke-width:0.5;stroke-linecap:butt;stroke-linejoin:round;stroke-miterlimit:10;stroke-dasharray:none;stroke-opacity:1" id="path54" /></g><g id="g56"><path d="M 56.95,689.239 H 538.35" style="fill:none;stroke:#000000;stroke-width:0.5;stroke-linecap:butt;stroke-linejoin:round;stroke-miterlimit:10;stroke-dasharray:none;stroke-opacity:1" id="path58" /></g><g id="g60"><path d="M 56.95,672.639 H 538.35" style="fill:none;stroke:#000000;stroke-width:0.5;stroke-linecap:butt;stroke-linejoin:round;stroke-miterlimit:10;stroke-dasharray:none;stroke-opacity:1" id="path62" /></g><g id="g64"><path d="M 56.95,655.039 H 538.35" style="fill:none;stroke:#000000;stroke-width:0.5;stroke-linecap:butt;stroke-linejoin:round;stroke-miterlimit:10;stroke-dasharray:none;stroke-opacity:1" id="path66" /></g><g id="g68"><path d="M 56.95,638.439 H 538.35" style="fill:none;stroke:#000000;stroke-width:0.5;stroke-linecap:butt;stroke-linejoin:round;stroke-miterlimit:10;stroke-dasharray:none;stroke-opacity:1" id="path70" /></g><g id="g72"><path d="M 56.95,621.839 H 538.35" style="fill:none;stroke:#000000;stroke-width:0.5;stroke-linecap:butt;stroke-linejoin:round;stroke-miterlimit:10;stroke-dasharray:none;stroke-opacity:1" id="path74" /></g><g id="g76"><path d="M 56.95,588.139 H 538.35" style="fill:none;stroke:#000000;stroke-width:0.5;stroke-linecap:butt;stroke-linejoin:round;stroke-miterlimit:10;stroke-dasharray:none;stroke-opacity:1" id="path78" /></g><g id="g80"><path d="M 56.95,570.539 H 538.35" style="fill:none;stroke:#000000;stroke-width:0.5;stroke-linecap:butt;stroke-linejoin:round;stroke-miterlimit:10;stroke-dasharray:none;stroke-opacity:1" id="path82" /></g><g id="g84"><path d="M 56.45,552.939 H 538.85" style="fill:none;stroke:#000000;stroke-width:0.5;stroke-linecap:butt;stroke-linejoin:round;stroke-miterlimit:10;stroke-dasharray:none;stroke-opacity:1" id="path86" /></g><g id="g88"><path d="M 56.7,722.689 V 552.689" style="fill:none;stroke:#000000;stroke-width:0.5;stroke-linecap:butt;stroke-linejoin:round;stroke-miterlimit:10;stroke-dasharray:none;stroke-opacity:1" id="path90" /></g><g id="g92"><path d="M 141.7,722.189 V 553.189" style="fill:none;stroke:#000000;stroke-width:0.5;stroke-linecap:butt;stroke-linejoin:round;stroke-miterlimit:10;stroke-dasharray:none;stroke-opacity:1" id="path94" /></g><g id="g96"><path d="M 538.6,722.689 V 552.689" style="fill:none;stroke:#000000;stroke-width:0.5;stroke-linecap:butt;stroke-linejoin:round;stroke-miterlimit:10;stroke-dasharray:none;stroke-opacity:1" id="path98" /></g><g id="g100"><text transform="matrix(1,0,0,-1,94.65,709.089)" style="font-style:italic;font-variant:normal;font-size:14px;font-family:'Liberation Serif';-inkscape-font-specification:LiberationSerif-Italic;writing-mode:lr-tb;fill:#000000;fill-opacity:1;fill-rule:nonzero;stroke:none" id="text104"><tspan x="0" y="0" id="tspan102">N</tspan></text></g><g id="g106"><text transform="matrix(1,0,0,-1,257.75,710.239)" style="font-variant:normal;font-weight:normal;font-size:12px;font-family:Consolas;-inkscape-font-specification:Consolas;writing-mode:lr-tb;fill:#000000;fill-opacity:1;fill-rule:nonzero;stroke:none" id="text110"><tspan x="0 6.5879998 13.176 19.764 26.351999 32.939999 39.528 46.116001 52.703999 59.292 65.879997 72.468002 79.056 85.643997 92.232002" y="0" id="tspan108">qlograndint(64,</tspan></text><text transform="matrix(1,0,0,-1,356.75,710.239)" style="font-variant:normal;font-weight:normal;font-size:12px;font-family:Consolas;-inkscape-font-specification:Consolas;writing-mode:lr-tb;fill:#000000;fill-opacity:1;fill-rule:nonzero;stroke:none" id="text114"><tspan x="0" y="0" id="tspan112"> </tspan></text><text transform="matrix(1,0,0,-1,363.35,710.239)" style="font-variant:normal;font-weight:normal;font-size:12px;font-family:Consolas;-inkscape-font-specification:Consolas;writing-mode:lr-tb;fill:#000000;fill-opacity:1;fill-rule:nonzero;stroke:none" id="text118"><tspan x="0 6.5879998 13.176 19.764 26.351999" y="0" id="tspan116">2048,</tspan></text><text transform="matrix(1,0,0,-1,396.35,710.239)" style="font-variant:normal;font-weight:normal;font-size:12px;font-family:Consolas;-inkscape-font-specification:Consolas;writing-mode:lr-tb;fill:#000000;fill-opacity:1;fill-rule:nonzero;stroke:none" id="text122"><tspan x="0" y="0" id="tspan120"> </tspan></text><text transform="matrix(1,0,0,-1,402.95,710.239)" style="font-variant:normal;font-weight:normal;font-size:12px;font-family:Consolas;-inkscape-font-specification:Consolas;writing-mode:lr-tb;fill:#000000;fill-opacity:1;fill-rule:nonzero;stroke:none" id="text126"><tspan x="0 6.5879998 13.176" y="0" id="tspan124">32)</tspan></text></g><g id="g128"><text transform="matrix(1,0,0,-1,95.4,692.489)" style="font-style:italic;font-variant:normal;font-size:14px;font-family:'Liberation Serif';-inkscape-font-specification:LiberationSerif-Italic;writing-mode:lr-tb;fill:#000000;fill-opacity:1;fill-rule:nonzero;stroke:none" id="text132"><tspan x="0" y="0" id="tspan130">L</tspan></text></g><g id="g134"><text transform="matrix(1,0,0,-1,297.35,693.639)" style="font-variant:normal;font-weight:normal;font-size:12px;font-family:Consolas;-inkscape-font-specification:Consolas;writing-mode:lr-tb;fill:#000000;fill-opacity:1;fill-rule:nonzero;stroke:none" id="text138"><tspan x="0 6.5879998 13.176 19.764 26.351999 32.939999 39.528 46.116001 52.703999 59.292" y="0" id="tspan136">randint(1,</tspan></text><text transform="matrix(1,0,0,-1,363.35,693.639)" style="font-variant:normal;font-weight:normal;font-size:12px;font-family:Consolas;-inkscape-font-specification:Consolas;writing-mode:lr-tb;fill:#000000;fill-opacity:1;fill-rule:nonzero;stroke:none" id="text142"><tspan x="0" y="0" id="tspan140"> </tspan></text><text transform="matrix(1,0,0,-1,369.95,693.639)" style="font-variant:normal;font-weight:normal;font-size:12px;font-family:Consolas;-inkscape-font-specification:Consolas;writing-mode:lr-tb;fill:#000000;fill-opacity:1;fill-rule:nonzero;stroke:none" id="text146"><tspan x="0 6.5879998" y="0" id="tspan144">5)</tspan></text></g><g id="g148"><text transform="matrix(1,0,0,-1,95.85,675.889)" style="font-style:italic;font-variant:normal;font-size:14px;font-family:'Liberation Serif';-inkscape-font-specification:LiberationSerif-Italic;writing-mode:lr-tb;fill:#000000;fill-opacity:1;fill-rule:nonzero;stroke:none" id="text152"><tspan x="0" y="0" id="tspan150">σ</tspan></text></g><g id="g154"><text transform="matrix(1,0,0,-1,244.55,677.039)" style="font-variant:normal;font-weight:normal;font-size:12px;font-family:Consolas;-inkscape-font-specification:Consolas;writing-mode:lr-tb;fill:#000000;fill-opacity:1;fill-rule:nonzero;stroke:none" id="text158"><tspan x="0 6.5879998 13.176 19.764" y="0" id="tspan156">ELU,</tspan></text><text transform="matrix(1,0,0,-1,270.95,677.039)" style="font-variant:normal;font-weight:normal;font-size:12px;font-family:Consolas;-inkscape-font-specification:Consolas;writing-mode:lr-tb;fill:#000000;fill-opacity:1;fill-rule:nonzero;stroke:none" id="text162"><tspan x="0" y="0" id="tspan160"> </tspan></text><text transform="matrix(1,0,0,-1,277.55,677.039)" style="font-variant:normal;font-weight:normal;font-size:12px;font-family:Consolas;-inkscape-font-specification:Consolas;writing-mode:lr-tb;fill:#000000;fill-opacity:1;fill-rule:nonzero;stroke:none" id="text166"><tspan x="0 6.5879998 13.176 19.764 26.351999 32.939999 39.528 46.116001" y="0" id="tspan164">sigmoid,</tspan></text><text transform="matrix(1,0,0,-1,330.35,677.039)" style="font-variant:normal;font-weight:normal;font-size:12px;font-family:Consolas;-inkscape-font-specification:Consolas;writing-mode:lr-tb;fill:#000000;fill-opacity:1;fill-rule:nonzero;stroke:none" id="text170"><tspan x="0" y="0" id="tspan168"> </tspan></text><text transform="matrix(1,0,0,-1,336.95,677.039)" style="font-variant:normal;font-weight:normal;font-size:12px;font-family:Consolas;-inkscape-font-specification:Consolas;writing-mode:lr-tb;fill:#000000;fill-opacity:1;fill-rule:nonzero;stroke:none" id="text174"><tspan x="0 6.5879998 13.176 19.764 26.351999" y="0" id="tspan172">tanh,</tspan></text><text transform="matrix(1,0,0,-1,369.95,677.039)" style="font-variant:normal;font-weight:normal;font-size:12px;font-family:Consolas;-inkscape-font-specification:Consolas;writing-mode:lr-tb;fill:#000000;fill-opacity:1;fill-rule:nonzero;stroke:none" id="text178"><tspan x="0" y="0" id="tspan176"> </tspan></text><text transform="matrix(1,0,0,-1,376.55,677.039)" style="font-variant:normal;font-weight:normal;font-size:12px;font-family:Consolas;-inkscape-font-specification:Consolas;writing-mode:lr-tb;fill:#000000;fill-opacity:1;fill-rule:nonzero;stroke:none" id="text182"><tspan x="0 6.5879998 13.176 19.764" y="0" id="tspan180">sin,</tspan></text><text transform="matrix(1,0,0,-1,402.95,677.039)" style="font-variant:normal;font-weight:normal;font-size:12px;font-family:Consolas;-inkscape-font-specification:Consolas;writing-mode:lr-tb;fill:#000000;fill-opacity:1;fill-rule:nonzero;stroke:none" id="text186"><tspan x="0" y="0" id="tspan184"> </tspan></text><text transform="matrix(1,0,0,-1,409.55,677.039)" style="font-variant:normal;font-weight:normal;font-size:12px;font-family:Consolas;-inkscape-font-specification:Consolas;writing-mode:lr-tb;fill:#000000;fill-opacity:1;fill-rule:nonzero;stroke:none" id="text190"><tspan x="0 6.5879998 13.176 19.764" y="0" id="tspan188">atan</tspan></text></g><g id="g192"><text transform="matrix(1,0,0,-1,89.65,658.789)" style="font-style:italic;font-variant:normal;font-size:14px;font-family:'Liberation Serif';-inkscape-font-specification:LiberationSerif-Italic;writing-mode:lr-tb;fill:#000000;fill-opacity:1;fill-rule:nonzero;stroke:none" id="text196"><tspan x="0 3.836" y="0" id="tspan194">|N</tspan></text></g><g id="g198"><text transform="matrix(1,0,0,-1,102.85,657.589)" style="font-style:italic;font-variant:normal;font-size:8.1px;font-family:'Liberation Serif';-inkscape-font-specification:LiberationSerif-Italic;writing-mode:lr-tb;fill:#000000;fill-opacity:1;fill-rule:nonzero;stroke:none" id="text202"><tspan x="0" y="0" id="tspan200">f</tspan></text></g><g id="g204"><text transform="matrix(1,0,0,-1,105.1,658.789)" style="font-style:italic;font-variant:normal;font-size:14px;font-family:'Liberation Serif';-inkscape-font-specification:LiberationSerif-Italic;writing-mode:lr-tb;fill:#000000;fill-opacity:1;fill-rule:nonzero;stroke:none" id="text208"><tspan x="0" y="0" id="tspan206">|</tspan></text></g><g id="g210"><text transform="matrix(1,0,0,-1,306.15,658.789)" style="font-variant:normal;font-weight:normal;font-size:14px;font-family:Calibri;-inkscape-font-specification:Calibri;writing-mode:lr-tb;fill:#000000;fill-opacity:1;fill-rule:nonzero;stroke:none" id="text214"><tspan x="0 7.0840001" y="0" id="tspan212">10</tspan></text></g><g id="g216"><text transform="matrix(1,0,0,-1,320.35,664.489)" style="font-variant:normal;font-weight:normal;font-size:8.1px;font-family:Calibri;-inkscape-font-specification:Calibri;writing-mode:lr-tb;fill:#000000;fill-opacity:1;fill-rule:nonzero;stroke:none" id="text220"><tspan x="0" y="0" id="tspan218">4</tspan></text></g><g id="g222"><text transform="matrix(1,0,0,-1,324.45,658.789)" style="font-variant:normal;font-weight:normal;font-size:14px;font-family:Calibri;-inkscape-font-specification:Calibri;writing-mode:lr-tb;fill:#000000;fill-opacity:1;fill-rule:nonzero;stroke:none" id="text226"><tspan x="0 3.4860001 6.6500001 13.734" y="0" id="tspan224">, 10</tspan></text></g><g id="g228"><text transform="matrix(1,0,0,-1,345.3,664.489)" style="font-variant:normal;font-weight:normal;font-size:8.1px;font-family:Calibri;-inkscape-font-specification:Calibri;writing-mode:lr-tb;fill:#000000;fill-opacity:1;fill-rule:nonzero;stroke:none" id="text232"><tspan x="0" y="0" id="tspan230">5</tspan></text></g><g id="g234"><text transform="matrix(1,0,0,-1,349.4,658.789)" style="font-variant:normal;font-weight:normal;font-size:14px;font-family:Calibri;-inkscape-font-specification:Calibri;writing-mode:lr-tb;fill:#000000;fill-opacity:1;fill-rule:nonzero;stroke:none" id="text238"><tspan x="0 3.4860001 6.6500001 13.734" y="0" id="tspan236">, 10</tspan></text></g><g id="g240"><text transform="matrix(1,0,0,-1,370.25,664.489)" style="font-variant:normal;font-weight:normal;font-size:8.1px;font-family:Calibri;-inkscape-font-specification:Calibri;writing-mode:lr-tb;fill:#000000;fill-opacity:1;fill-rule:nonzero;stroke:none" id="text244"><tspan x="0" y="0" id="tspan242">6</tspan></text></g><g id="g246"><text transform="matrix(1,0,0,-1,82,641.689)" style="font-style:italic;font-variant:normal;font-size:14px;font-family:'Liberation Serif';-inkscape-font-specification:LiberationSerif-Italic;writing-mode:lr-tb;fill:#000000;fill-opacity:1;fill-rule:nonzero;stroke:none" id="text250"><tspan x="0 3.836" y="0" id="tspan248">|N</tspan></text></g><g id="g252"><text transform="matrix(1,0,0,-1,95.2,640.489)" style="font-variant:normal;font-weight:normal;font-size:8.1px;font-family:'Liberation Serif';-inkscape-font-specification:LiberationSerif;writing-mode:lr-tb;fill:#000000;fill-opacity:1;fill-rule:nonzero;stroke:none" id="text256"><tspan x="0 4.0500002 7.6382999 9.882 13.4703" y="0" id="tspan254">batch</tspan></text></g><g id="g258"><text transform="matrix(1,0,0,-1,112.75,641.689)" style="font-style:italic;font-variant:normal;font-size:14px;font-family:'Liberation Serif';-inkscape-font-specification:LiberationSerif-Italic;writing-mode:lr-tb;fill:#000000;fill-opacity:1;fill-rule:nonzero;stroke:none" id="text262"><tspan x="0" y="0" id="tspan260">|</tspan></text></g><g id="g264"><text transform="matrix(1,0,0,-1,254.45,642.839)" style="font-variant:normal;font-weight:normal;font-size:12px;font-family:Consolas;-inkscape-font-specification:Consolas;writing-mode:lr-tb;fill:#000000;fill-opacity:1;fill-rule:nonzero;stroke:none" id="text268"><tspan x="0 6.5879998 13.176 19.764 26.351999 32.939999 39.528 46.116001 52.703999 59.292 65.879997 72.468002 79.056 85.643997 92.232002" y="0" id="tspan266">qlograndint(64,</tspan></text><text transform="matrix(1,0,0,-1,353.45,642.839)" style="font-variant:normal;font-weight:normal;font-size:12px;font-family:Consolas;-inkscape-font-specification:Consolas;writing-mode:lr-tb;fill:#000000;fill-opacity:1;fill-rule:nonzero;stroke:none" id="text272"><tspan x="0" y="0" id="tspan270"> </tspan></text><text transform="matrix(1,0,0,-1,360.05,642.839)" style="font-variant:normal;font-weight:normal;font-size:12px;font-family:Consolas;-inkscape-font-specification:Consolas;writing-mode:lr-tb;fill:#000000;fill-opacity:1;fill-rule:nonzero;stroke:none" id="text276"><tspan x="0 6.5879998 13.176 19.764 26.351999 32.939999" y="0" id="tspan274">32768,</tspan></text><text transform="matrix(1,0,0,-1,399.65,642.839)" style="font-variant:normal;font-weight:normal;font-size:12px;font-family:Consolas;-inkscape-font-specification:Consolas;writing-mode:lr-tb;fill:#000000;fill-opacity:1;fill-rule:nonzero;stroke:none" id="text280"><tspan x="0" y="0" id="tspan278"> </tspan></text><text transform="matrix(1,0,0,-1,406.25,642.839)" style="font-variant:normal;font-weight:normal;font-size:12px;font-family:Consolas;-inkscape-font-specification:Consolas;writing-mode:lr-tb;fill:#000000;fill-opacity:1;fill-rule:nonzero;stroke:none" id="text284"><tspan x="0 6.5879998 13.176" y="0" id="tspan282">32)</tspan></text></g><g id="g286"><text transform="matrix(1,0,0,-1,94.65,625.089)" style="font-style:italic;font-variant:normal;font-size:14px;font-family:'Liberation Serif';-inkscape-font-specification:LiberationSerif-Italic;writing-mode:lr-tb;fill:#000000;fill-opacity:1;fill-rule:nonzero;stroke:none" id="text290"><tspan x="0 3.878" y="0" id="tspan288">lr</tspan></text></g><g id="g292"><text transform="matrix(1,0,0,-1,254.45,626.239)" style="font-variant:normal;font-weight:normal;font-size:12px;font-family:Consolas;-inkscape-font-specification:Consolas;writing-mode:lr-tb;fill:#000000;fill-opacity:1;fill-rule:nonzero;stroke:none" id="text296"><tspan x="0 6.5879998 13.176 19.764 26.351999 32.939999 39.528 46.116001 52.703999 59.292 65.879997 72.468002 79.056 85.643997 92.232002 98.82 105.408" y="0" id="tspan294">qloguniform(1e-4,</tspan></text><text transform="matrix(1,0,0,-1,366.65,626.239)" style="font-variant:normal;font-weight:normal;font-size:12px;font-family:Consolas;-inkscape-font-specification:Consolas;writing-mode:lr-tb;fill:#000000;fill-opacity:1;fill-rule:nonzero;stroke:none" id="text300"><tspan x="0" y="0" id="tspan298"> </tspan></text><text transform="matrix(1,0,0,-1,373.25,626.239)" style="font-variant:normal;font-weight:normal;font-size:12px;font-family:Consolas;-inkscape-font-specification:Consolas;writing-mode:lr-tb;fill:#000000;fill-opacity:1;fill-rule:nonzero;stroke:none" id="text304"><tspan x="0 6.5879998" y="0" id="tspan302">1,</tspan></text><text transform="matrix(1,0,0,-1,386.45,626.239)" style="font-variant:normal;font-weight:normal;font-size:12px;font-family:Consolas;-inkscape-font-specification:Consolas;writing-mode:lr-tb;fill:#000000;fill-opacity:1;fill-rule:nonzero;stroke:none" id="text308"><tspan x="0" y="0" id="tspan306"> </tspan></text><text transform="matrix(1,0,0,-1,393.05,626.239)" style="font-variant:normal;font-weight:normal;font-size:12px;font-family:Consolas;-inkscape-font-specification:Consolas;writing-mode:lr-tb;fill:#000000;fill-opacity:1;fill-rule:nonzero;stroke:none" id="text312"><tspan x="0 6.5879998 13.176 19.764 26.351999" y="0" id="tspan310">1e-4)</tspan></text></g><g id="g314"><text transform="matrix(1,0,0,-1,94.65,608.489)" style="font-style:italic;font-variant:normal;font-size:14px;font-family:'Liberation Serif';-inkscape-font-specification:LiberationSerif-Italic;writing-mode:lr-tb;fill:#000000;fill-opacity:1;fill-rule:nonzero;stroke:none" id="text318"><tspan x="0 3.878" y="0" id="tspan316">lr</tspan></text></g><g id="g320"><text transform="matrix(1,0,0,-1,71.55,591.889)" style="font-variant:normal;font-weight:normal;font-size:14px;font-family:Calibri;-inkscape-font-specification:Calibri;writing-mode:lr-tb;fill:#000000;fill-opacity:1;fill-rule:nonzero;stroke:none" id="text324"><tspan x="0 5.474 11.382 18.732 25.690001 33.040001 40.389999 43.596001 50.554001" y="0" id="tspan322">scheduler</tspan></text></g><g id="g326"><text transform="matrix(1,0,0,-1,257.75,608.089)" style="font-variant:normal;font-weight:normal;font-size:12px;font-family:Consolas;-inkscape-font-specification:Consolas;writing-mode:lr-tb;fill:#000000;fill-opacity:1;fill-rule:nonzero;stroke:none" id="text330"><tspan x="0 6.5879998 13.176 19.764 26.351999" y="0" id="tspan328">None,</tspan></text><text transform="matrix(1,0,0,-1,290.75,608.089)" style="font-variant:normal;font-weight:normal;font-size:12px;font-family:Consolas;-inkscape-font-specification:Consolas;writing-mode:lr-tb;fill:#000000;fill-opacity:1;fill-rule:nonzero;stroke:none" id="text334"><tspan x="0" y="0" id="tspan332"> </tspan></text><text transform="matrix(1,0,0,-1,297.35,608.089)" style="font-variant:normal;font-weight:normal;font-size:12px;font-family:Consolas;-inkscape-font-specification:Consolas;writing-mode:lr-tb;fill:#000000;fill-opacity:1;fill-rule:nonzero;stroke:none" id="text338"><tspan x="0 6.5879998 13.176 19.764 26.351999 32.939999 39.528 46.116001 52.703999 59.292 65.879997 72.468002 79.056 85.643997 92.232002 98.82 105.408 111.996 118.584" y="0" id="tspan336">ExponentialLR-0.95,</tspan></text></g><g id="g340"><text transform="matrix(1,0,0,-1,178.55,594.039)" style="font-variant:normal;font-weight:normal;font-size:12px;font-family:Consolas;-inkscape-font-specification:Consolas;writing-mode:lr-tb;fill:#000000;fill-opacity:1;fill-rule:nonzero;stroke:none" id="text344"><tspan x="0 6.5879998 13.176 19.764 26.351999 32.939999 39.528 46.116001 52.703999 59.292 65.879997 72.468002 79.056 85.643997 92.232002 98.82 105.408 111.996 118.584 125.172 131.75999 138.34801 144.936 151.524 158.112" y="0" id="tspan342">ReduceLROnPlateau-0.1-10,</tspan></text><text transform="matrix(1,0,0,-1,343.55,594.039)" style="font-variant:normal;font-weight:normal;font-size:12px;font-family:Consolas;-inkscape-font-specification:Consolas;writing-mode:lr-tb;fill:#000000;fill-opacity:1;fill-rule:nonzero;stroke:none" id="text348"><tspan x="0" y="0" id="tspan346"> </tspan></text><text transform="matrix(1,0,0,-1,350.15,594.039)" style="font-variant:normal;font-weight:normal;font-size:12px;font-family:Consolas;-inkscape-font-specification:Consolas;writing-mode:lr-tb;fill:#000000;fill-opacity:1;fill-rule:nonzero;stroke:none" id="text352"><tspan x="0 6.5879998 13.176 19.764 26.351999 32.939999 39.528 46.116001 52.703999 59.292 65.879997 72.468002 79.056 85.643997 92.232002 98.82 105.408 111.996 118.584 125.172 131.75999 138.34801 144.936" y="0" id="tspan350">ReduceLROnPlateau-0.5-2</tspan></text></g><g id="g354"><text transform="matrix(1,0,0,-1,97.35,574.289)" style="font-style:italic;font-variant:normal;font-size:14px;font-family:'Liberation Serif';-inkscape-font-specification:LiberationSerif-Italic;writing-mode:lr-tb;fill:#000000;fill-opacity:1;fill-rule:nonzero;stroke:none" id="text358"><tspan x="0" y="0" id="tspan356">t</tspan></text></g><g id="g360"><text transform="matrix(1,0,0,-1,318.35,574.289)" style="font-variant:normal;font-weight:normal;font-size:14px;font-family:Calibri;-inkscape-font-specification:Calibri;writing-mode:lr-tb;fill:#000000;fill-opacity:1;fill-rule:nonzero;stroke:none" id="text364"><tspan x="0 7.0840001 14.168 21.252001 24.416 30.323999 37.282001" y="0" id="tspan362">300 сек</tspan></text></g><g id="g366"><text transform="matrix(1,0,0,-1,95.4,556.689)" style="font-style:italic;font-variant:normal;font-size:14px;font-family:'Liberation Serif';-inkscape-font-specification:LiberationSerif-Italic;writing-mode:lr-tb;fill:#000000;fill-opacity:1;fill-rule:nonzero;stroke:none" id="text370"><tspan x="0" y="0" id="tspan368">T</tspan></text></g><g id="g372"><text transform="matrix(1,0,0,-1,318.5,556.689)" style="font-variant:normal;font-weight:normal;font-size:14px;font-family:Calibri;-inkscape-font-specification:Calibri;writing-mode:lr-tb;fill:#000000;fill-opacity:1;fill-rule:nonzero;stroke:none" id="text376"><tspan x="0 7.0840001 10.248 16.799999 23.506001 29.414 36.792" y="0" id="tspan374">8 часов</tspan></text></g></g><metadata id="metadata3664"><rdf:RDF><cc:Work rdf:about=""><dc:title>Область поиска и ограничение по времени для 5-мерной задачи</dc:title></cc:Work></rdf:RDF></metadata></svg>
