<?xml version="1.0" encoding="UTF-8" standalone="no"?>
<!-- Created with Inkscape (http://www.inkscape.org/) -->

<svg version="1.1" id="svg2" xml:space="preserve" width="172.17999mm" height="61.972221mm" viewBox="0 0 650.75905 234.22572" xmlns="http://www.w3.org/2000/svg" xmlns:svg="http://www.w3.org/2000/svg" xmlns:rdf="http://www.w3.org/1999/02/22-rdf-syntax-ns#" xmlns:cc="http://creativecommons.org/ns#" xmlns:dc="http://purl.org/dc/elements/1.1/"><title id="title3486">Область поиска и ограничение по времени для 2-мерной задачи на области [0; 2]</title><defs id="defs6"><clipPath clipPathUnits="userSpaceOnUse" id="clipPath16"><path d="M 0,0.028 H 595.275 V 841.889 H 0 Z" clip-rule="evenodd" id="path14" /></clipPath><clipPath clipPathUnits="userSpaceOnUse" id="clipPath928"><path d="M 0,0.028 H 595.275 V 841.889 H 0 Z" clip-rule="evenodd" id="path926" /></clipPath><clipPath clipPathUnits="userSpaceOnUse" id="clipPath942"><path d="M 56.7,186.989 H 538.6 V 368.088 H 56.7 Z" clip-rule="evenodd" id="path940" /></clipPath><clipPath clipPathUnits="userSpaceOnUse" id="clipPath1180"><path d="M 97.581,219.885 H 294.654 V 363.243 H 97.581 Z" clip-rule="evenodd" id="path1178" /></clipPath><clipPath clipPathUnits="userSpaceOnUse" id="clipPath1192"><path d="M 56.7,186.989 H 538.6 V 368.088 H 56.7 Z" clip-rule="evenodd" id="path1190" /></clipPath><clipPath clipPathUnits="userSpaceOnUse" id="clipPath1606"><path d="M 338.156,219.883 H 535.229 V 363.243 H 338.156 Z" clip-rule="evenodd" id="path1604" /></clipPath><clipPath clipPathUnits="userSpaceOnUse" id="clipPath1618"><path d="M 56.7,186.989 H 538.6 V 368.088 H 56.7 Z" clip-rule="evenodd" id="path1616" /></clipPath></defs><g id="g8" transform="matrix(1.3333333,0,0,-1.3333333,-71.487137,955.89817)"><g id="g60"><path d="M 56.45,713.839 H 538.85" style="fill:none;stroke:#000000;stroke-width:0.5;stroke-linecap:butt;stroke-linejoin:round;stroke-miterlimit:10;stroke-dasharray:none;stroke-opacity:1" id="path62" /></g><g id="g64"><path d="M 56.95,697.239 H 538.35" style="fill:none;stroke:#000000;stroke-width:0.5;stroke-linecap:butt;stroke-linejoin:round;stroke-miterlimit:10;stroke-dasharray:none;stroke-opacity:1" id="path66" /></g><g id="g68"><path d="M 56.95,680.639 H 538.35" style="fill:none;stroke:#000000;stroke-width:0.5;stroke-linecap:butt;stroke-linejoin:round;stroke-miterlimit:10;stroke-dasharray:none;stroke-opacity:1" id="path70" /></g><g id="g72"><path d="M 56.95,664.039 H 538.35" style="fill:none;stroke:#000000;stroke-width:0.5;stroke-linecap:butt;stroke-linejoin:round;stroke-miterlimit:10;stroke-dasharray:none;stroke-opacity:1" id="path74" /></g><g id="g76"><path d="M 56.95,646.439 H 538.35" style="fill:none;stroke:#000000;stroke-width:0.5;stroke-linecap:butt;stroke-linejoin:round;stroke-miterlimit:10;stroke-dasharray:none;stroke-opacity:1" id="path78" /></g><g id="g80"><path d="M 56.95,629.839 H 538.35" style="fill:none;stroke:#000000;stroke-width:0.5;stroke-linecap:butt;stroke-linejoin:round;stroke-miterlimit:10;stroke-dasharray:none;stroke-opacity:1" id="path82" /></g><g id="g84"><path d="M 56.95,613.239 H 538.35" style="fill:none;stroke:#000000;stroke-width:0.5;stroke-linecap:butt;stroke-linejoin:round;stroke-miterlimit:10;stroke-dasharray:none;stroke-opacity:1" id="path86" /></g><g id="g88"><path d="M 56.95,579.539 H 538.35" style="fill:none;stroke:#000000;stroke-width:0.5;stroke-linecap:butt;stroke-linejoin:round;stroke-miterlimit:10;stroke-dasharray:none;stroke-opacity:1" id="path90" /></g><g id="g92"><path d="M 56.95,561.939 H 538.35" style="fill:none;stroke:#000000;stroke-width:0.5;stroke-linecap:butt;stroke-linejoin:round;stroke-miterlimit:10;stroke-dasharray:none;stroke-opacity:1" id="path94" /></g><g id="g96"><path d="M 56.45,544.339 H 538.85" style="fill:none;stroke:#000000;stroke-width:0.5;stroke-linecap:butt;stroke-linejoin:round;stroke-miterlimit:10;stroke-dasharray:none;stroke-opacity:1" id="path98" /></g><g id="g100"><path d="M 56.7,714.089 V 544.089" style="fill:none;stroke:#000000;stroke-width:0.5;stroke-linecap:butt;stroke-linejoin:round;stroke-miterlimit:10;stroke-dasharray:none;stroke-opacity:1" id="path102" /></g><g id="g104"><path d="M 141.7,713.589 V 544.589" style="fill:none;stroke:#000000;stroke-width:0.5;stroke-linecap:butt;stroke-linejoin:round;stroke-miterlimit:10;stroke-dasharray:none;stroke-opacity:1" id="path106" /></g><g id="g108"><path d="M 538.6,714.089 V 544.089" style="fill:none;stroke:#000000;stroke-width:0.5;stroke-linecap:butt;stroke-linejoin:round;stroke-miterlimit:10;stroke-dasharray:none;stroke-opacity:1" id="path110" /></g><g id="g112"><text transform="matrix(1,0,0,-1,94.65,700.489)" style="font-style:italic;font-variant:normal;font-size:14px;font-family:'Liberation Serif';-inkscape-font-specification:LiberationSerif-Italic;writing-mode:lr-tb;fill:#000000;fill-opacity:1;fill-rule:nonzero;stroke:none" id="text116"><tspan x="0" y="0" id="tspan114">N</tspan></text></g><g id="g118"><text transform="matrix(1,0,0,-1,257.75,701.639)" style="font-variant:normal;font-weight:normal;font-size:12px;font-family:Consolas;-inkscape-font-specification:Consolas;writing-mode:lr-tb;fill:#000000;fill-opacity:1;fill-rule:nonzero;stroke:none" id="text122"><tspan x="0 6.5879998 13.176 19.764 26.351999 32.939999 39.528 46.116001 52.703999 59.292 65.879997 72.468002 79.056 85.643997 92.232002" y="0" id="tspan120">qlograndint(64,</tspan></text><text transform="matrix(1,0,0,-1,356.75,701.639)" style="font-variant:normal;font-weight:normal;font-size:12px;font-family:Consolas;-inkscape-font-specification:Consolas;writing-mode:lr-tb;fill:#000000;fill-opacity:1;fill-rule:nonzero;stroke:none" id="text126"><tspan x="0" y="0" id="tspan124"> </tspan></text><text transform="matrix(1,0,0,-1,363.35,701.639)" style="font-variant:normal;font-weight:normal;font-size:12px;font-family:Consolas;-inkscape-font-specification:Consolas;writing-mode:lr-tb;fill:#000000;fill-opacity:1;fill-rule:nonzero;stroke:none" id="text130"><tspan x="0 6.5879998 13.176 19.764 26.351999" y="0" id="tspan128">2048,</tspan></text><text transform="matrix(1,0,0,-1,396.35,701.639)" style="font-variant:normal;font-weight:normal;font-size:12px;font-family:Consolas;-inkscape-font-specification:Consolas;writing-mode:lr-tb;fill:#000000;fill-opacity:1;fill-rule:nonzero;stroke:none" id="text134"><tspan x="0" y="0" id="tspan132"> </tspan></text><text transform="matrix(1,0,0,-1,402.95,701.639)" style="font-variant:normal;font-weight:normal;font-size:12px;font-family:Consolas;-inkscape-font-specification:Consolas;writing-mode:lr-tb;fill:#000000;fill-opacity:1;fill-rule:nonzero;stroke:none" id="text138"><tspan x="0 6.5879998 13.176" y="0" id="tspan136">32)</tspan></text></g><g id="g140"><text transform="matrix(1,0,0,-1,95.4,683.889)" style="font-style:italic;font-variant:normal;font-size:14px;font-family:'Liberation Serif';-inkscape-font-specification:LiberationSerif-Italic;writing-mode:lr-tb;fill:#000000;fill-opacity:1;fill-rule:nonzero;stroke:none" id="text144"><tspan x="0" y="0" id="tspan142">L</tspan></text></g><g id="g146"><text transform="matrix(1,0,0,-1,297.35,685.039)" style="font-variant:normal;font-weight:normal;font-size:12px;font-family:Consolas;-inkscape-font-specification:Consolas;writing-mode:lr-tb;fill:#000000;fill-opacity:1;fill-rule:nonzero;stroke:none" id="text150"><tspan x="0 6.5879998 13.176 19.764 26.351999 32.939999 39.528 46.116001 52.703999 59.292" y="0" id="tspan148">randint(1,</tspan></text><text transform="matrix(1,0,0,-1,363.35,685.039)" style="font-variant:normal;font-weight:normal;font-size:12px;font-family:Consolas;-inkscape-font-specification:Consolas;writing-mode:lr-tb;fill:#000000;fill-opacity:1;fill-rule:nonzero;stroke:none" id="text154"><tspan x="0" y="0" id="tspan152"> </tspan></text><text transform="matrix(1,0,0,-1,369.95,685.039)" style="font-variant:normal;font-weight:normal;font-size:12px;font-family:Consolas;-inkscape-font-specification:Consolas;writing-mode:lr-tb;fill:#000000;fill-opacity:1;fill-rule:nonzero;stroke:none" id="text158"><tspan x="0 6.5879998" y="0" id="tspan156">5)</tspan></text></g><g id="g160"><text transform="matrix(1,0,0,-1,95.85,667.289)" style="font-style:italic;font-variant:normal;font-size:14px;font-family:'Liberation Serif';-inkscape-font-specification:LiberationSerif-Italic;writing-mode:lr-tb;fill:#000000;fill-opacity:1;fill-rule:nonzero;stroke:none" id="text164"><tspan x="0" y="0" id="tspan162">σ</tspan></text></g><g id="g166"><text transform="matrix(1,0,0,-1,244.55,668.439)" style="font-variant:normal;font-weight:normal;font-size:12px;font-family:Consolas;-inkscape-font-specification:Consolas;writing-mode:lr-tb;fill:#000000;fill-opacity:1;fill-rule:nonzero;stroke:none" id="text170"><tspan x="0 6.5879998 13.176 19.764" y="0" id="tspan168">ELU,</tspan></text><text transform="matrix(1,0,0,-1,270.95,668.439)" style="font-variant:normal;font-weight:normal;font-size:12px;font-family:Consolas;-inkscape-font-specification:Consolas;writing-mode:lr-tb;fill:#000000;fill-opacity:1;fill-rule:nonzero;stroke:none" id="text174"><tspan x="0" y="0" id="tspan172"> </tspan></text><text transform="matrix(1,0,0,-1,277.55,668.439)" style="font-variant:normal;font-weight:normal;font-size:12px;font-family:Consolas;-inkscape-font-specification:Consolas;writing-mode:lr-tb;fill:#000000;fill-opacity:1;fill-rule:nonzero;stroke:none" id="text178"><tspan x="0 6.5879998 13.176 19.764 26.351999 32.939999 39.528 46.116001" y="0" id="tspan176">sigmoid,</tspan></text><text transform="matrix(1,0,0,-1,330.35,668.439)" style="font-variant:normal;font-weight:normal;font-size:12px;font-family:Consolas;-inkscape-font-specification:Consolas;writing-mode:lr-tb;fill:#000000;fill-opacity:1;fill-rule:nonzero;stroke:none" id="text182"><tspan x="0" y="0" id="tspan180"> </tspan></text><text transform="matrix(1,0,0,-1,336.95,668.439)" style="font-variant:normal;font-weight:normal;font-size:12px;font-family:Consolas;-inkscape-font-specification:Consolas;writing-mode:lr-tb;fill:#000000;fill-opacity:1;fill-rule:nonzero;stroke:none" id="text186"><tspan x="0 6.5879998 13.176 19.764 26.351999" y="0" id="tspan184">tanh,</tspan></text><text transform="matrix(1,0,0,-1,369.95,668.439)" style="font-variant:normal;font-weight:normal;font-size:12px;font-family:Consolas;-inkscape-font-specification:Consolas;writing-mode:lr-tb;fill:#000000;fill-opacity:1;fill-rule:nonzero;stroke:none" id="text190"><tspan x="0" y="0" id="tspan188"> </tspan></text><text transform="matrix(1,0,0,-1,376.55,668.439)" style="font-variant:normal;font-weight:normal;font-size:12px;font-family:Consolas;-inkscape-font-specification:Consolas;writing-mode:lr-tb;fill:#000000;fill-opacity:1;fill-rule:nonzero;stroke:none" id="text194"><tspan x="0 6.5879998 13.176 19.764" y="0" id="tspan192">sin,</tspan></text><text transform="matrix(1,0,0,-1,402.95,668.439)" style="font-variant:normal;font-weight:normal;font-size:12px;font-family:Consolas;-inkscape-font-specification:Consolas;writing-mode:lr-tb;fill:#000000;fill-opacity:1;fill-rule:nonzero;stroke:none" id="text198"><tspan x="0" y="0" id="tspan196"> </tspan></text><text transform="matrix(1,0,0,-1,409.55,668.439)" style="font-variant:normal;font-weight:normal;font-size:12px;font-family:Consolas;-inkscape-font-specification:Consolas;writing-mode:lr-tb;fill:#000000;fill-opacity:1;fill-rule:nonzero;stroke:none" id="text202"><tspan x="0 6.5879998 13.176 19.764" y="0" id="tspan200">atan</tspan></text></g><g id="g204"><text transform="matrix(1,0,0,-1,89.65,650.189)" style="font-style:italic;font-variant:normal;font-size:14px;font-family:'Liberation Serif';-inkscape-font-specification:LiberationSerif-Italic;writing-mode:lr-tb;fill:#000000;fill-opacity:1;fill-rule:nonzero;stroke:none" id="text208"><tspan x="0 3.836" y="0" id="tspan206">|N</tspan></text></g><g id="g210"><text transform="matrix(1,0,0,-1,102.85,648.989)" style="font-style:italic;font-variant:normal;font-size:8.1px;font-family:'Liberation Serif';-inkscape-font-specification:LiberationSerif-Italic;writing-mode:lr-tb;fill:#000000;fill-opacity:1;fill-rule:nonzero;stroke:none" id="text214"><tspan x="0" y="0" id="tspan212">f</tspan></text></g><g id="g216"><text transform="matrix(1,0,0,-1,105.1,650.189)" style="font-style:italic;font-variant:normal;font-size:14px;font-family:'Liberation Serif';-inkscape-font-specification:LiberationSerif-Italic;writing-mode:lr-tb;fill:#000000;fill-opacity:1;fill-rule:nonzero;stroke:none" id="text220"><tspan x="0" y="0" id="tspan218">|</tspan></text></g><g id="g222"><text transform="matrix(1,0,0,-1,306.15,650.189)" style="font-variant:normal;font-weight:normal;font-size:14px;font-family:Calibri;-inkscape-font-specification:Calibri;writing-mode:lr-tb;fill:#000000;fill-opacity:1;fill-rule:nonzero;stroke:none" id="text226"><tspan x="0 7.0840001" y="0" id="tspan224">10</tspan></text></g><g id="g228"><text transform="matrix(1,0,0,-1,320.35,655.889)" style="font-variant:normal;font-weight:normal;font-size:8.1px;font-family:Calibri;-inkscape-font-specification:Calibri;writing-mode:lr-tb;fill:#000000;fill-opacity:1;fill-rule:nonzero;stroke:none" id="text232"><tspan x="0" y="0" id="tspan230">2</tspan></text></g><g id="g234"><text transform="matrix(1,0,0,-1,324.45,650.189)" style="font-variant:normal;font-weight:normal;font-size:14px;font-family:Calibri;-inkscape-font-specification:Calibri;writing-mode:lr-tb;fill:#000000;fill-opacity:1;fill-rule:nonzero;stroke:none" id="text238"><tspan x="0 3.4860001 6.6500001 13.734" y="0" id="tspan236">, 10</tspan></text></g><g id="g240"><text transform="matrix(1,0,0,-1,345.3,655.889)" style="font-variant:normal;font-weight:normal;font-size:8.1px;font-family:Calibri;-inkscape-font-specification:Calibri;writing-mode:lr-tb;fill:#000000;fill-opacity:1;fill-rule:nonzero;stroke:none" id="text244"><tspan x="0" y="0" id="tspan242">3</tspan></text></g><g id="g246"><text transform="matrix(1,0,0,-1,349.4,650.189)" style="font-variant:normal;font-weight:normal;font-size:14px;font-family:Calibri;-inkscape-font-specification:Calibri;writing-mode:lr-tb;fill:#000000;fill-opacity:1;fill-rule:nonzero;stroke:none" id="text250"><tspan x="0 3.4860001 6.6500001 13.734" y="0" id="tspan248">, 10</tspan></text></g><g id="g252"><text transform="matrix(1,0,0,-1,370.25,655.889)" style="font-variant:normal;font-weight:normal;font-size:8.1px;font-family:Calibri;-inkscape-font-specification:Calibri;writing-mode:lr-tb;fill:#000000;fill-opacity:1;fill-rule:nonzero;stroke:none" id="text256"><tspan x="0" y="0" id="tspan254">4</tspan></text></g><g id="g258"><text transform="matrix(1,0,0,-1,82,633.089)" style="font-style:italic;font-variant:normal;font-size:14px;font-family:'Liberation Serif';-inkscape-font-specification:LiberationSerif-Italic;writing-mode:lr-tb;fill:#000000;fill-opacity:1;fill-rule:nonzero;stroke:none" id="text262"><tspan x="0 3.836" y="0" id="tspan260">|N</tspan></text></g><g id="g264"><text transform="matrix(1,0,0,-1,95.2,631.889)" style="font-variant:normal;font-weight:normal;font-size:8.1px;font-family:'Liberation Serif';-inkscape-font-specification:LiberationSerif;writing-mode:lr-tb;fill:#000000;fill-opacity:1;fill-rule:nonzero;stroke:none" id="text268"><tspan x="0 4.0500002 7.6382999 9.882 13.4703" y="0" id="tspan266">batch</tspan></text></g><g id="g270"><text transform="matrix(1,0,0,-1,112.75,633.089)" style="font-style:italic;font-variant:normal;font-size:14px;font-family:'Liberation Serif';-inkscape-font-specification:LiberationSerif-Italic;writing-mode:lr-tb;fill:#000000;fill-opacity:1;fill-rule:nonzero;stroke:none" id="text274"><tspan x="0" y="0" id="tspan272">|</tspan></text></g><g id="g276"><text transform="matrix(1,0,0,-1,254.45,634.239)" style="font-variant:normal;font-weight:normal;font-size:12px;font-family:Consolas;-inkscape-font-specification:Consolas;writing-mode:lr-tb;fill:#000000;fill-opacity:1;fill-rule:nonzero;stroke:none" id="text280"><tspan x="0 6.5879998 13.176 19.764 26.351999 32.939999 39.528 46.116001 52.703999 59.292 65.879997 72.468002 79.056 85.643997 92.232002" y="0" id="tspan278">qlograndint(64,</tspan></text><text transform="matrix(1,0,0,-1,353.45,634.239)" style="font-variant:normal;font-weight:normal;font-size:12px;font-family:Consolas;-inkscape-font-specification:Consolas;writing-mode:lr-tb;fill:#000000;fill-opacity:1;fill-rule:nonzero;stroke:none" id="text284"><tspan x="0" y="0" id="tspan282"> </tspan></text><text transform="matrix(1,0,0,-1,360.05,634.239)" style="font-variant:normal;font-weight:normal;font-size:12px;font-family:Consolas;-inkscape-font-specification:Consolas;writing-mode:lr-tb;fill:#000000;fill-opacity:1;fill-rule:nonzero;stroke:none" id="text288"><tspan x="0 6.5879998 13.176 19.764 26.351999 32.939999" y="0" id="tspan286">32768,</tspan></text><text transform="matrix(1,0,0,-1,399.65,634.239)" style="font-variant:normal;font-weight:normal;font-size:12px;font-family:Consolas;-inkscape-font-specification:Consolas;writing-mode:lr-tb;fill:#000000;fill-opacity:1;fill-rule:nonzero;stroke:none" id="text292"><tspan x="0" y="0" id="tspan290"> </tspan></text><text transform="matrix(1,0,0,-1,406.25,634.239)" style="font-variant:normal;font-weight:normal;font-size:12px;font-family:Consolas;-inkscape-font-specification:Consolas;writing-mode:lr-tb;fill:#000000;fill-opacity:1;fill-rule:nonzero;stroke:none" id="text296"><tspan x="0 6.5879998 13.176" y="0" id="tspan294">32)</tspan></text></g><g id="g298"><text transform="matrix(1,0,0,-1,94.65,616.489)" style="font-style:italic;font-variant:normal;font-size:14px;font-family:'Liberation Serif';-inkscape-font-specification:LiberationSerif-Italic;writing-mode:lr-tb;fill:#000000;fill-opacity:1;fill-rule:nonzero;stroke:none" id="text302"><tspan x="0 3.878" y="0" id="tspan300">lr</tspan></text></g><g id="g304"><text transform="matrix(1,0,0,-1,254.45,617.639)" style="font-variant:normal;font-weight:normal;font-size:12px;font-family:Consolas;-inkscape-font-specification:Consolas;writing-mode:lr-tb;fill:#000000;fill-opacity:1;fill-rule:nonzero;stroke:none" id="text308"><tspan x="0 6.5879998 13.176 19.764 26.351999 32.939999 39.528 46.116001 52.703999 59.292 65.879997 72.468002 79.056 85.643997 92.232002 98.82 105.408" y="0" id="tspan306">qloguniform(1e-4,</tspan></text><text transform="matrix(1,0,0,-1,366.65,617.639)" style="font-variant:normal;font-weight:normal;font-size:12px;font-family:Consolas;-inkscape-font-specification:Consolas;writing-mode:lr-tb;fill:#000000;fill-opacity:1;fill-rule:nonzero;stroke:none" id="text312"><tspan x="0" y="0" id="tspan310"> </tspan></text><text transform="matrix(1,0,0,-1,373.25,617.639)" style="font-variant:normal;font-weight:normal;font-size:12px;font-family:Consolas;-inkscape-font-specification:Consolas;writing-mode:lr-tb;fill:#000000;fill-opacity:1;fill-rule:nonzero;stroke:none" id="text316"><tspan x="0 6.5879998" y="0" id="tspan314">1,</tspan></text><text transform="matrix(1,0,0,-1,386.45,617.639)" style="font-variant:normal;font-weight:normal;font-size:12px;font-family:Consolas;-inkscape-font-specification:Consolas;writing-mode:lr-tb;fill:#000000;fill-opacity:1;fill-rule:nonzero;stroke:none" id="text320"><tspan x="0" y="0" id="tspan318"> </tspan></text><text transform="matrix(1,0,0,-1,393.05,617.639)" style="font-variant:normal;font-weight:normal;font-size:12px;font-family:Consolas;-inkscape-font-specification:Consolas;writing-mode:lr-tb;fill:#000000;fill-opacity:1;fill-rule:nonzero;stroke:none" id="text324"><tspan x="0 6.5879998 13.176 19.764 26.351999" y="0" id="tspan322">1e-4)</tspan></text></g><g id="g326"><text transform="matrix(1,0,0,-1,94.65,599.889)" style="font-style:italic;font-variant:normal;font-size:14px;font-family:'Liberation Serif';-inkscape-font-specification:LiberationSerif-Italic;writing-mode:lr-tb;fill:#000000;fill-opacity:1;fill-rule:nonzero;stroke:none" id="text330"><tspan x="0 3.878" y="0" id="tspan328">lr</tspan></text></g><g id="g332"><text transform="matrix(1,0,0,-1,71.55,583.289)" style="font-variant:normal;font-weight:normal;font-size:14px;font-family:Calibri;-inkscape-font-specification:Calibri;writing-mode:lr-tb;fill:#000000;fill-opacity:1;fill-rule:nonzero;stroke:none" id="text336"><tspan x="0 5.474 11.382 18.732 25.690001 33.040001 40.389999 43.596001 50.554001" y="0" id="tspan334">scheduler</tspan></text></g><g id="g338"><text transform="matrix(1,0,0,-1,257.75,599.489)" style="font-variant:normal;font-weight:normal;font-size:12px;font-family:Consolas;-inkscape-font-specification:Consolas;writing-mode:lr-tb;fill:#000000;fill-opacity:1;fill-rule:nonzero;stroke:none" id="text342"><tspan x="0 6.5879998 13.176 19.764 26.351999" y="0" id="tspan340">None,</tspan></text><text transform="matrix(1,0,0,-1,290.75,599.489)" style="font-variant:normal;font-weight:normal;font-size:12px;font-family:Consolas;-inkscape-font-specification:Consolas;writing-mode:lr-tb;fill:#000000;fill-opacity:1;fill-rule:nonzero;stroke:none" id="text346"><tspan x="0" y="0" id="tspan344"> </tspan></text><text transform="matrix(1,0,0,-1,297.35,599.489)" style="font-variant:normal;font-weight:normal;font-size:12px;font-family:Consolas;-inkscape-font-specification:Consolas;writing-mode:lr-tb;fill:#000000;fill-opacity:1;fill-rule:nonzero;stroke:none" id="text350"><tspan x="0 6.5879998 13.176 19.764 26.351999 32.939999 39.528 46.116001 52.703999 59.292 65.879997 72.468002 79.056 85.643997 92.232002 98.82 105.408 111.996 118.584" y="0" id="tspan348">ExponentialLR-0.95,</tspan></text></g><g id="g352"><text transform="matrix(1,0,0,-1,178.55,585.439)" style="font-variant:normal;font-weight:normal;font-size:12px;font-family:Consolas;-inkscape-font-specification:Consolas;writing-mode:lr-tb;fill:#000000;fill-opacity:1;fill-rule:nonzero;stroke:none" id="text356"><tspan x="0 6.5879998 13.176 19.764 26.351999 32.939999 39.528 46.116001 52.703999 59.292 65.879997 72.468002 79.056 85.643997 92.232002 98.82 105.408 111.996 118.584 125.172 131.75999 138.34801 144.936 151.524 158.112" y="0" id="tspan354">ReduceLROnPlateau-0.1-10,</tspan></text><text transform="matrix(1,0,0,-1,343.55,585.439)" style="font-variant:normal;font-weight:normal;font-size:12px;font-family:Consolas;-inkscape-font-specification:Consolas;writing-mode:lr-tb;fill:#000000;fill-opacity:1;fill-rule:nonzero;stroke:none" id="text360"><tspan x="0" y="0" id="tspan358"> </tspan></text><text transform="matrix(1,0,0,-1,350.15,585.439)" style="font-variant:normal;font-weight:normal;font-size:12px;font-family:Consolas;-inkscape-font-specification:Consolas;writing-mode:lr-tb;fill:#000000;fill-opacity:1;fill-rule:nonzero;stroke:none" id="text364"><tspan x="0 6.5879998 13.176 19.764 26.351999 32.939999 39.528 46.116001 52.703999 59.292 65.879997 72.468002 79.056 85.643997 92.232002 98.82 105.408 111.996 118.584 125.172 131.75999 138.34801 144.936" y="0" id="tspan362">ReduceLROnPlateau-0.5-2</tspan></text></g><g id="g366"><text transform="matrix(1,0,0,-1,97.35,565.689)" style="font-style:italic;font-variant:normal;font-size:14px;font-family:'Liberation Serif';-inkscape-font-specification:LiberationSerif-Italic;writing-mode:lr-tb;fill:#000000;fill-opacity:1;fill-rule:nonzero;stroke:none" id="text370"><tspan x="0" y="0" id="tspan368">t</tspan></text></g><g id="g372"><text transform="matrix(1,0,0,-1,321.9,565.689)" style="font-variant:normal;font-weight:normal;font-size:14px;font-family:Calibri;-inkscape-font-specification:Calibri;writing-mode:lr-tb;fill:#000000;fill-opacity:1;fill-rule:nonzero;stroke:none" id="text376"><tspan x="0 7.0840001 14.168 17.332001 23.24 30.198" y="0" id="tspan374">30 сек</tspan></text></g><g id="g378"><text transform="matrix(1,0,0,-1,95.4,548.089)" style="font-style:italic;font-variant:normal;font-size:14px;font-family:'Liberation Serif';-inkscape-font-specification:LiberationSerif-Italic;writing-mode:lr-tb;fill:#000000;fill-opacity:1;fill-rule:nonzero;stroke:none" id="text382"><tspan x="0" y="0" id="tspan380">T</tspan></text></g><g id="g384"><text transform="matrix(1,0,0,-1,325.55,548.089)" style="font-variant:normal;font-weight:normal;font-size:14px;font-family:Calibri;-inkscape-font-specification:Calibri;writing-mode:lr-tb;fill:#000000;fill-opacity:1;fill-rule:nonzero;stroke:none" id="text388"><tspan x="0 7.0840001 10.248 16.799999 23.506001" y="0" id="tspan386">1 час</tspan></text></g></g><metadata id="metadata3484"><rdf:RDF><cc:Work rdf:about=""><dc:title>Область поиска и ограничение по времени для 2-мерной задачи на области [0; 2]</dc:title></cc:Work></rdf:RDF></metadata></svg>
