<?xml version="1.0" encoding="utf-8" standalone="no"?>
<!DOCTYPE svg PUBLIC "-//W3C//DTD SVG 1.1//EN"
  "http://www.w3.org/Graphics/SVG/1.1/DTD/svg11.dtd">
<svg xmlns:xlink="http://www.w3.org/1999/xlink" width="481.889764pt" height="180.708661pt" viewBox="0 0 481.889764 180.708661" xmlns="http://www.w3.org/2000/svg" version="1.1">
 <metadata>
  <rdf:RDF xmlns:dc="http://purl.org/dc/elements/1.1/" xmlns:cc="http://creativecommons.org/ns#" xmlns:rdf="http://www.w3.org/1999/02/22-rdf-syntax-ns#">
   <cc:Work>
    <dc:type rdf:resource="http://purl.org/dc/dcmitype/StillImage"/>
    <dc:date>2023-06-08T14:30:44.446832</dc:date>
    <dc:format>image/svg+xml</dc:format>
    <dc:creator>
     <cc:Agent>
      <dc:title>Matplotlib v3.7.1, https://matplotlib.org/</dc:title>
     </cc:Agent>
    </dc:creator>
   </cc:Work>
  </rdf:RDF>
 </metadata>
 <defs>
  <style type="text/css">*{stroke-linejoin: round; stroke-linecap: butt}</style>
 </defs>
 <g id="figure_1">
  <g id="patch_1">
   <path d="M 0 180.708661 
L 481.889764 180.708661 
L 481.889764 0 
L 0 0 
z
" style="fill: #ffffff"/>
  </g>
  <g id="axes_1">
   <g id="patch_2">
    <path d="M 37.06899 149.059984 
L 236.194642 149.059984 
L 236.194642 3.00024 
L 37.06899 3.00024 
z
" style="fill: #ffffff"/>
   </g>
   <g id="matplotlib.axis_1">
    <g id="xtick_1">
     <g id="line2d_1">
      <defs>
       <path id="m5e8d771f6c" d="M 0 0 
L 0 3.5 
" style="stroke: #000000; stroke-width: 0.8"/>
      </defs>
      <g>
       <use xlink:href="#m5e8d771f6c" x="67.729133" y="149.059984" style="stroke: #000000; stroke-width: 0.8"/>
      </g>
     </g>
     <g id="text_1">
      <!-- $\mathdefault{10^{2}}$ -->
      <g transform="translate(60.729133 162.861546) scale(0.1 -0.1)">
       <defs>
        <path id="Calibri-31" d="M 2897 213 
Q 2897 153 2887 112 
Q 2878 72 2862 47 
Q 2847 22 2826 11 
Q 2806 0 2784 0 
L 672 0 
Q 650 0 631 11 
Q 613 22 595 47 
Q 578 72 568 112 
Q 559 153 559 213 
Q 559 269 568 309 
Q 578 350 592 376 
Q 606 403 626 417 
Q 647 431 672 431 
L 1516 431 
L 1516 3506 
L 734 3041 
Q 675 3009 639 3003 
Q 603 2997 581 3017 
Q 559 3038 551 3084 
Q 544 3131 544 3203 
Q 544 3256 548 3293 
Q 553 3331 562 3356 
Q 572 3381 589 3400 
Q 606 3419 634 3438 
L 1566 4034 
Q 1578 4044 1597 4050 
Q 1616 4056 1644 4062 
Q 1672 4069 1709 4070 
Q 1747 4072 1803 4072 
Q 1878 4072 1928 4065 
Q 1978 4059 2006 4048 
Q 2034 4038 2043 4020 
Q 2053 4003 2053 3984 
L 2053 431 
L 2784 431 
Q 2809 431 2831 417 
Q 2853 403 2867 376 
Q 2881 350 2889 309 
Q 2897 269 2897 213 
z
" transform="scale(0.015625)"/>
        <path id="Calibri-30" d="M 3022 2031 
Q 3022 1566 2948 1181 
Q 2875 797 2704 520 
Q 2534 244 2259 92 
Q 1984 -59 1581 -59 
Q 1200 -59 939 77 
Q 678 213 518 477 
Q 359 741 292 1127 
Q 225 1513 225 2013 
Q 225 2475 300 2861 
Q 375 3247 544 3523 
Q 713 3800 988 3951 
Q 1263 4103 1663 4103 
Q 2047 4103 2308 3967 
Q 2569 3831 2728 3567 
Q 2888 3303 2955 2917 
Q 3022 2531 3022 2031 
z
M 2472 1994 
Q 2472 2297 2450 2537 
Q 2428 2778 2386 2962 
Q 2344 3147 2276 3280 
Q 2209 3413 2115 3498 
Q 2022 3584 1901 3623 
Q 1781 3663 1631 3663 
Q 1366 3663 1200 3538 
Q 1034 3413 939 3194 
Q 844 2975 809 2681 
Q 775 2388 775 2050 
Q 775 1597 822 1280 
Q 869 963 970 763 
Q 1072 563 1230 472 
Q 1388 381 1613 381 
Q 1788 381 1920 437 
Q 2053 494 2148 598 
Q 2244 703 2306 850 
Q 2369 997 2406 1175 
Q 2444 1353 2458 1561 
Q 2472 1769 2472 1994 
z
" transform="scale(0.015625)"/>
        <path id="Calibri-32" d="M 2888 231 
Q 2888 175 2880 131 
Q 2872 88 2858 58 
Q 2844 28 2820 14 
Q 2797 0 2769 0 
L 534 0 
Q 491 0 458 11 
Q 425 22 401 47 
Q 378 72 367 119 
Q 356 166 356 234 
Q 356 297 361 344 
Q 366 391 381 427 
Q 397 463 420 498 
Q 444 534 481 575 
L 1266 1406 
Q 1538 1694 1702 1922 
Q 1866 2150 1955 2337 
Q 2044 2525 2072 2678 
Q 2100 2831 2100 2966 
Q 2100 3100 2056 3220 
Q 2013 3341 1930 3431 
Q 1847 3522 1722 3575 
Q 1597 3628 1434 3628 
Q 1244 3628 1092 3575 
Q 941 3522 827 3459 
Q 713 3397 636 3344 
Q 559 3291 522 3291 
Q 500 3291 483 3303 
Q 466 3316 455 3344 
Q 444 3372 437 3419 
Q 431 3466 431 3531 
Q 431 3578 434 3612 
Q 438 3647 445 3672 
Q 453 3697 465 3719 
Q 478 3741 515 3773 
Q 553 3806 645 3862 
Q 738 3919 877 3973 
Q 1016 4028 1183 4065 
Q 1350 4103 1534 4103 
Q 1828 4103 2048 4020 
Q 2269 3938 2414 3794 
Q 2559 3650 2631 3459 
Q 2703 3269 2703 3053 
Q 2703 2859 2668 2667 
Q 2634 2475 2523 2251 
Q 2413 2028 2203 1754 
Q 1994 1481 1647 1125 
L 1006 456 
L 2766 456 
Q 2791 456 2814 442 
Q 2838 428 2855 400 
Q 2872 372 2880 330 
Q 2888 288 2888 231 
z
" transform="scale(0.015625)"/>
       </defs>
       <use xlink:href="#Calibri-31" transform="translate(0 0.442188)"/>
       <use xlink:href="#Calibri-30" transform="translate(50.683594 0.442188)"/>
       <use xlink:href="#Calibri-32" transform="translate(102.184219 33.123438) scale(0.7)"/>
      </g>
     </g>
    </g>
    <g id="xtick_2">
     <g id="line2d_2">
      <g>
       <use xlink:href="#m5e8d771f6c" x="119.764024" y="149.059984" style="stroke: #000000; stroke-width: 0.8"/>
      </g>
     </g>
     <g id="text_2">
      <!-- $\mathdefault{10^{3}}$ -->
      <g transform="translate(112.764024 162.861546) scale(0.1 -0.1)">
       <defs>
        <path id="Calibri-33" d="M 2856 1156 
Q 2856 878 2759 654 
Q 2663 431 2481 272 
Q 2300 113 2034 27 
Q 1769 -59 1434 -59 
Q 1231 -59 1054 -26 
Q 878 6 740 51 
Q 603 97 512 145 
Q 422 194 398 216 
Q 375 238 362 259 
Q 350 281 340 312 
Q 331 344 326 389 
Q 322 434 322 500 
Q 322 613 344 656 
Q 366 700 406 700 
Q 434 700 517 650 
Q 600 600 729 542 
Q 859 484 1032 434 
Q 1206 384 1419 384 
Q 1625 384 1781 437 
Q 1938 491 2044 587 
Q 2150 684 2203 817 
Q 2256 950 2256 1106 
Q 2256 1278 2189 1415 
Q 2122 1553 1992 1653 
Q 1863 1753 1673 1806 
Q 1484 1859 1244 1859 
L 859 1859 
Q 834 1859 811 1870 
Q 788 1881 770 1906 
Q 753 1931 742 1972 
Q 731 2013 731 2078 
Q 731 2138 740 2177 
Q 750 2216 767 2239 
Q 784 2263 806 2273 
Q 828 2284 856 2284 
L 1209 2284 
Q 1416 2284 1580 2337 
Q 1744 2391 1858 2491 
Q 1972 2591 2033 2730 
Q 2094 2869 2094 3041 
Q 2094 3166 2053 3280 
Q 2013 3394 1931 3478 
Q 1850 3563 1723 3611 
Q 1597 3659 1431 3659 
Q 1250 3659 1098 3604 
Q 947 3550 828 3487 
Q 709 3425 631 3370 
Q 553 3316 522 3316 
Q 500 3316 483 3323 
Q 466 3331 455 3354 
Q 444 3378 439 3420 
Q 434 3463 434 3531 
Q 434 3578 437 3614 
Q 441 3650 450 3676 
Q 459 3703 471 3725 
Q 484 3747 514 3776 
Q 544 3806 634 3862 
Q 725 3919 858 3973 
Q 991 4028 1164 4065 
Q 1338 4103 1538 4103 
Q 1819 4103 2031 4031 
Q 2244 3959 2386 3828 
Q 2528 3697 2598 3514 
Q 2669 3331 2669 3109 
Q 2669 2919 2619 2755 
Q 2569 2591 2472 2464 
Q 2375 2338 2234 2248 
Q 2094 2159 1909 2125 
L 1909 2119 
Q 2119 2097 2292 2014 
Q 2466 1931 2591 1806 
Q 2716 1681 2786 1514 
Q 2856 1347 2856 1156 
z
" transform="scale(0.015625)"/>
       </defs>
       <use xlink:href="#Calibri-31" transform="translate(0 0.442188)"/>
       <use xlink:href="#Calibri-30" transform="translate(50.683594 0.442188)"/>
       <use xlink:href="#Calibri-33" transform="translate(102.184219 33.123438) scale(0.7)"/>
      </g>
     </g>
    </g>
    <g id="xtick_3">
     <g id="line2d_3">
      <g>
       <use xlink:href="#m5e8d771f6c" x="171.798915" y="149.059984" style="stroke: #000000; stroke-width: 0.8"/>
      </g>
     </g>
     <g id="text_3">
      <!-- $\mathdefault{10^{4}}$ -->
      <g transform="translate(164.798915 162.861546) scale(0.1 -0.1)">
       <defs>
        <path id="Calibri-34" d="M 3059 1150 
Q 3059 1047 3028 987 
Q 2997 928 2941 928 
L 2484 928 
L 2484 78 
Q 2484 53 2471 36 
Q 2459 19 2428 6 
Q 2397 -6 2347 -12 
Q 2297 -19 2219 -19 
Q 2144 -19 2094 -12 
Q 2044 -6 2014 6 
Q 1984 19 1973 36 
Q 1963 53 1963 78 
L 1963 928 
L 294 928 
Q 256 928 231 937 
Q 206 947 186 972 
Q 166 997 158 1044 
Q 150 1091 150 1166 
Q 150 1225 153 1272 
Q 156 1319 165 1358 
Q 175 1397 190 1433 
Q 206 1469 228 1509 
L 1684 3966 
Q 1700 3991 1729 4009 
Q 1759 4028 1806 4040 
Q 1853 4053 1922 4058 
Q 1991 4063 2084 4063 
Q 2188 4063 2264 4055 
Q 2341 4047 2387 4034 
Q 2434 4022 2459 4001 
Q 2484 3981 2484 3953 
L 2484 1372 
L 2941 1372 
Q 2994 1372 3026 1317 
Q 3059 1263 3059 1150 
z
M 1963 3591 
L 1956 3591 
L 641 1372 
L 1963 1372 
L 1963 3591 
z
" transform="scale(0.015625)"/>
       </defs>
       <use xlink:href="#Calibri-31" transform="translate(0 0.879688)"/>
       <use xlink:href="#Calibri-30" transform="translate(50.683594 0.879688)"/>
       <use xlink:href="#Calibri-34" transform="translate(102.184219 33.560938) scale(0.7)"/>
      </g>
     </g>
    </g>
    <g id="xtick_4">
     <g id="line2d_4">
      <g>
       <use xlink:href="#m5e8d771f6c" x="223.833806" y="149.059984" style="stroke: #000000; stroke-width: 0.8"/>
      </g>
     </g>
     <g id="text_4">
      <!-- $\mathdefault{10^{5}}$ -->
      <g transform="translate(216.833806 162.861546) scale(0.1 -0.1)">
       <defs>
        <path id="Calibri-35" d="M 2869 1300 
Q 2869 975 2759 722 
Q 2650 469 2450 295 
Q 2250 122 1973 31 
Q 1697 -59 1359 -59 
Q 1172 -59 1003 -32 
Q 834 -6 703 33 
Q 572 72 487 109 
Q 403 147 379 169 
Q 356 191 347 209 
Q 338 228 330 254 
Q 322 281 319 322 
Q 316 363 316 419 
Q 316 472 320 514 
Q 325 556 337 582 
Q 350 609 367 621 
Q 384 634 406 634 
Q 438 634 503 595 
Q 569 556 680 511 
Q 791 466 955 425 
Q 1119 384 1344 384 
Q 1553 384 1728 434 
Q 1903 484 2029 590 
Q 2156 697 2228 858 
Q 2300 1019 2300 1250 
Q 2300 1444 2239 1592 
Q 2178 1741 2051 1839 
Q 1925 1938 1731 1986 
Q 1538 2034 1269 2034 
Q 1078 2034 940 2015 
Q 803 1997 684 1997 
Q 597 1997 559 2037 
Q 522 2078 522 2194 
L 522 3841 
Q 522 3944 570 3994 
Q 619 4044 709 4044 
L 2500 4044 
Q 2525 4044 2548 4030 
Q 2572 4016 2587 3987 
Q 2603 3959 2611 3915 
Q 2619 3872 2619 3813 
Q 2619 3700 2587 3637 
Q 2556 3575 2500 3575 
L 991 3575 
L 991 2441 
Q 1100 2456 1214 2459 
Q 1328 2463 1478 2463 
Q 1825 2463 2084 2380 
Q 2344 2297 2517 2145 
Q 2691 1994 2780 1778 
Q 2869 1563 2869 1300 
z
" transform="scale(0.015625)"/>
       </defs>
       <use xlink:href="#Calibri-31" transform="translate(0 0.0875)"/>
       <use xlink:href="#Calibri-30" transform="translate(50.683594 0.0875)"/>
       <use xlink:href="#Calibri-35" transform="translate(102.184219 32.76875) scale(0.7)"/>
      </g>
     </g>
    </g>
    <g id="xtick_5">
     <g id="line2d_5">
      <defs>
       <path id="m39cac5a393" d="M 0 0 
L 0 2 
" style="stroke: #000000; stroke-width: 0.6"/>
      </defs>
      <g>
       <use xlink:href="#m39cac5a393" x="40.521194" y="149.059984" style="stroke: #000000; stroke-width: 0.6"/>
      </g>
     </g>
    </g>
    <g id="xtick_6">
     <g id="line2d_6">
      <g>
       <use xlink:href="#m39cac5a393" x="47.022367" y="149.059984" style="stroke: #000000; stroke-width: 0.6"/>
      </g>
     </g>
    </g>
    <g id="xtick_7">
     <g id="line2d_7">
      <g>
       <use xlink:href="#m39cac5a393" x="52.065069" y="149.059984" style="stroke: #000000; stroke-width: 0.6"/>
      </g>
     </g>
    </g>
    <g id="xtick_8">
     <g id="line2d_8">
      <g>
       <use xlink:href="#m39cac5a393" x="56.185257" y="149.059984" style="stroke: #000000; stroke-width: 0.6"/>
      </g>
     </g>
    </g>
    <g id="xtick_9">
     <g id="line2d_9">
      <g>
       <use xlink:href="#m39cac5a393" x="59.668826" y="149.059984" style="stroke: #000000; stroke-width: 0.6"/>
      </g>
     </g>
    </g>
    <g id="xtick_10">
     <g id="line2d_10">
      <g>
       <use xlink:href="#m39cac5a393" x="62.686431" y="149.059984" style="stroke: #000000; stroke-width: 0.6"/>
      </g>
     </g>
    </g>
    <g id="xtick_11">
     <g id="line2d_11">
      <g>
       <use xlink:href="#m39cac5a393" x="65.348146" y="149.059984" style="stroke: #000000; stroke-width: 0.6"/>
      </g>
     </g>
    </g>
    <g id="xtick_12">
     <g id="line2d_12">
      <g>
       <use xlink:href="#m39cac5a393" x="83.393196" y="149.059984" style="stroke: #000000; stroke-width: 0.6"/>
      </g>
     </g>
    </g>
    <g id="xtick_13">
     <g id="line2d_13">
      <g>
       <use xlink:href="#m39cac5a393" x="92.556085" y="149.059984" style="stroke: #000000; stroke-width: 0.6"/>
      </g>
     </g>
    </g>
    <g id="xtick_14">
     <g id="line2d_14">
      <g>
       <use xlink:href="#m39cac5a393" x="99.057259" y="149.059984" style="stroke: #000000; stroke-width: 0.6"/>
      </g>
     </g>
    </g>
    <g id="xtick_15">
     <g id="line2d_15">
      <g>
       <use xlink:href="#m39cac5a393" x="104.099961" y="149.059984" style="stroke: #000000; stroke-width: 0.6"/>
      </g>
     </g>
    </g>
    <g id="xtick_16">
     <g id="line2d_16">
      <g>
       <use xlink:href="#m39cac5a393" x="108.220148" y="149.059984" style="stroke: #000000; stroke-width: 0.6"/>
      </g>
     </g>
    </g>
    <g id="xtick_17">
     <g id="line2d_17">
      <g>
       <use xlink:href="#m39cac5a393" x="111.703717" y="149.059984" style="stroke: #000000; stroke-width: 0.6"/>
      </g>
     </g>
    </g>
    <g id="xtick_18">
     <g id="line2d_18">
      <g>
       <use xlink:href="#m39cac5a393" x="114.721322" y="149.059984" style="stroke: #000000; stroke-width: 0.6"/>
      </g>
     </g>
    </g>
    <g id="xtick_19">
     <g id="line2d_19">
      <g>
       <use xlink:href="#m39cac5a393" x="117.383038" y="149.059984" style="stroke: #000000; stroke-width: 0.6"/>
      </g>
     </g>
    </g>
    <g id="xtick_20">
     <g id="line2d_20">
      <g>
       <use xlink:href="#m39cac5a393" x="135.428087" y="149.059984" style="stroke: #000000; stroke-width: 0.6"/>
      </g>
     </g>
    </g>
    <g id="xtick_21">
     <g id="line2d_21">
      <g>
       <use xlink:href="#m39cac5a393" x="144.590976" y="149.059984" style="stroke: #000000; stroke-width: 0.6"/>
      </g>
     </g>
    </g>
    <g id="xtick_22">
     <g id="line2d_22">
      <g>
       <use xlink:href="#m39cac5a393" x="151.09215" y="149.059984" style="stroke: #000000; stroke-width: 0.6"/>
      </g>
     </g>
    </g>
    <g id="xtick_23">
     <g id="line2d_23">
      <g>
       <use xlink:href="#m39cac5a393" x="156.134852" y="149.059984" style="stroke: #000000; stroke-width: 0.6"/>
      </g>
     </g>
    </g>
    <g id="xtick_24">
     <g id="line2d_24">
      <g>
       <use xlink:href="#m39cac5a393" x="160.255039" y="149.059984" style="stroke: #000000; stroke-width: 0.6"/>
      </g>
     </g>
    </g>
    <g id="xtick_25">
     <g id="line2d_25">
      <g>
       <use xlink:href="#m39cac5a393" x="163.738608" y="149.059984" style="stroke: #000000; stroke-width: 0.6"/>
      </g>
     </g>
    </g>
    <g id="xtick_26">
     <g id="line2d_26">
      <g>
       <use xlink:href="#m39cac5a393" x="166.756213" y="149.059984" style="stroke: #000000; stroke-width: 0.6"/>
      </g>
     </g>
    </g>
    <g id="xtick_27">
     <g id="line2d_27">
      <g>
       <use xlink:href="#m39cac5a393" x="169.417929" y="149.059984" style="stroke: #000000; stroke-width: 0.6"/>
      </g>
     </g>
    </g>
    <g id="xtick_28">
     <g id="line2d_28">
      <g>
       <use xlink:href="#m39cac5a393" x="187.462978" y="149.059984" style="stroke: #000000; stroke-width: 0.6"/>
      </g>
     </g>
    </g>
    <g id="xtick_29">
     <g id="line2d_29">
      <g>
       <use xlink:href="#m39cac5a393" x="196.625867" y="149.059984" style="stroke: #000000; stroke-width: 0.6"/>
      </g>
     </g>
    </g>
    <g id="xtick_30">
     <g id="line2d_30">
      <g>
       <use xlink:href="#m39cac5a393" x="203.127041" y="149.059984" style="stroke: #000000; stroke-width: 0.6"/>
      </g>
     </g>
    </g>
    <g id="xtick_31">
     <g id="line2d_31">
      <g>
       <use xlink:href="#m39cac5a393" x="208.169743" y="149.059984" style="stroke: #000000; stroke-width: 0.6"/>
      </g>
     </g>
    </g>
    <g id="xtick_32">
     <g id="line2d_32">
      <g>
       <use xlink:href="#m39cac5a393" x="212.28993" y="149.059984" style="stroke: #000000; stroke-width: 0.6"/>
      </g>
     </g>
    </g>
    <g id="xtick_33">
     <g id="line2d_33">
      <g>
       <use xlink:href="#m39cac5a393" x="215.773499" y="149.059984" style="stroke: #000000; stroke-width: 0.6"/>
      </g>
     </g>
    </g>
    <g id="xtick_34">
     <g id="line2d_34">
      <g>
       <use xlink:href="#m39cac5a393" x="218.791104" y="149.059984" style="stroke: #000000; stroke-width: 0.6"/>
      </g>
     </g>
    </g>
    <g id="xtick_35">
     <g id="line2d_35">
      <g>
       <use xlink:href="#m39cac5a393" x="221.45282" y="149.059984" style="stroke: #000000; stroke-width: 0.6"/>
      </g>
     </g>
    </g>
    <g id="text_5">
     <!-- time [sec] -->
     <g transform="translate(116.780253 175.578734) scale(0.1 -0.1)">
      <defs>
       <path id="LiberationSerif-74" d="M 1044 -63 
Q 744 -63 595 115 
Q 447 294 447 616 
L 447 2675 
L 63 2675 
L 63 2816 
L 453 2938 
L 769 3603 
L 966 3603 
L 966 2938 
L 1638 2938 
L 1638 2675 
L 966 2675 
L 966 672 
Q 966 469 1058 366 
Q 1150 263 1300 263 
Q 1481 263 1741 313 
L 1741 109 
Q 1631 34 1425 -14 
Q 1219 -63 1044 -63 
z
" transform="scale(0.015625)"/>
       <path id="LiberationSerif-69" d="M 1184 3897 
Q 1184 3759 1084 3659 
Q 984 3559 844 3559 
Q 706 3559 606 3659 
Q 506 3759 506 3897 
Q 506 4038 606 4138 
Q 706 4238 844 4238 
Q 984 4238 1084 4138 
Q 1184 4038 1184 3897 
z
M 1153 219 
L 1656 141 
L 1656 0 
L 134 0 
L 134 141 
L 634 219 
L 634 2719 
L 219 2797 
L 219 2938 
L 1153 2938 
L 1153 219 
z
" transform="scale(0.015625)"/>
       <path id="LiberationSerif-6d" d="M 1019 2700 
Q 1253 2834 1515 2925 
Q 1778 3016 1978 3016 
Q 2194 3016 2376 2934 
Q 2559 2853 2650 2675 
Q 2891 2809 3214 2912 
Q 3538 3016 3750 3016 
Q 4500 3016 4500 2150 
L 4500 219 
L 4878 141 
L 4878 0 
L 3544 0 
L 3544 141 
L 3981 219 
L 3981 2094 
Q 3981 2631 3481 2631 
Q 3400 2631 3292 2618 
Q 3184 2606 3076 2590 
Q 2969 2575 2870 2554 
Q 2772 2534 2706 2522 
Q 2759 2353 2759 2150 
L 2759 219 
L 3200 141 
L 3200 0 
L 1806 0 
L 1806 141 
L 2241 219 
L 2241 2094 
Q 2241 2353 2108 2492 
Q 1975 2631 1709 2631 
Q 1434 2631 1025 2541 
L 1025 219 
L 1466 141 
L 1466 0 
L 134 0 
L 134 141 
L 506 219 
L 506 2719 
L 134 2797 
L 134 2938 
L 994 2938 
L 1019 2700 
z
" transform="scale(0.015625)"/>
       <path id="LiberationSerif-65" d="M 813 1478 
L 813 1422 
Q 813 991 908 752 
Q 1003 513 1201 388 
Q 1400 263 1722 263 
Q 1891 263 2122 291 
Q 2353 319 2503 353 
L 2503 178 
Q 2353 81 2095 9 
Q 1838 -63 1569 -63 
Q 884 -63 567 306 
Q 250 675 250 1491 
Q 250 2259 572 2637 
Q 894 3016 1491 3016 
Q 2619 3016 2619 1734 
L 2619 1478 
L 813 1478 
z
M 1491 2766 
Q 1166 2766 992 2503 
Q 819 2241 819 1728 
L 2075 1728 
Q 2075 2288 1931 2527 
Q 1788 2766 1491 2766 
z
" transform="scale(0.015625)"/>
       <path id="LiberationSerif-20" transform="scale(0.015625)"/>
       <path id="LiberationSerif-5b" d="M 475 -856 
L 475 4441 
L 1900 4441 
L 1900 4294 
L 972 4166 
L 972 -581 
L 1900 -709 
L 1900 -856 
L 475 -856 
z
" transform="scale(0.015625)"/>
       <path id="LiberationSerif-73" d="M 2259 825 
Q 2259 388 1982 162 
Q 1706 -63 1166 -63 
Q 947 -63 683 -17 
Q 419 28 269 84 
L 269 806 
L 409 806 
L 563 397 
Q 797 184 1172 184 
Q 1778 184 1778 703 
Q 1778 1084 1300 1247 
L 1022 1338 
Q 706 1441 562 1547 
Q 419 1653 341 1808 
Q 263 1963 263 2181 
Q 263 2569 527 2792 
Q 791 3016 1241 3016 
Q 1563 3016 2047 2919 
L 2047 2278 
L 1900 2278 
L 1769 2619 
Q 1603 2766 1247 2766 
Q 994 2766 861 2641 
Q 728 2516 728 2303 
Q 728 2125 848 2003 
Q 969 1881 1213 1800 
Q 1672 1644 1812 1572 
Q 1953 1500 2051 1395 
Q 2150 1291 2204 1156 
Q 2259 1022 2259 825 
z
" transform="scale(0.015625)"/>
       <path id="LiberationSerif-63" d="M 2644 178 
Q 2491 66 2222 1 
Q 1953 -63 1672 -63 
Q 244 -63 244 1491 
Q 244 2225 608 2620 
Q 972 3016 1650 3016 
Q 2072 3016 2572 2919 
L 2572 2100 
L 2400 2100 
L 2266 2619 
Q 2006 2766 1644 2766 
Q 806 2766 806 1491 
Q 806 828 1061 545 
Q 1316 263 1850 263 
Q 2306 263 2644 366 
L 2644 178 
z
" transform="scale(0.015625)"/>
       <path id="LiberationSerif-5d" d="M 231 -856 
L 231 -709 
L 1159 -581 
L 1159 4166 
L 231 4294 
L 231 4441 
L 1656 4441 
L 1656 -856 
L 231 -856 
z
" transform="scale(0.015625)"/>
      </defs>
      <use xlink:href="#LiberationSerif-74"/>
      <use xlink:href="#LiberationSerif-69" x="27.783203"/>
      <use xlink:href="#LiberationSerif-6d" x="55.566406"/>
      <use xlink:href="#LiberationSerif-65" x="133.349609"/>
      <use xlink:href="#LiberationSerif-20" x="177.734375"/>
      <use xlink:href="#LiberationSerif-5b" x="202.734375"/>
      <use xlink:href="#LiberationSerif-73" x="236.035156"/>
      <use xlink:href="#LiberationSerif-65" x="274.951172"/>
      <use xlink:href="#LiberationSerif-63" x="319.335938"/>
      <use xlink:href="#LiberationSerif-5d" x="363.720703"/>
     </g>
    </g>
   </g>
   <g id="matplotlib.axis_2">
    <g id="ytick_1">
     <g id="line2d_36">
      <defs>
       <path id="mb69a5f94ec" d="M 0 0 
L -3.5 0 
" style="stroke: #000000; stroke-width: 0.8"/>
      </defs>
      <g>
       <use xlink:href="#mb69a5f94ec" x="37.06899" y="128.548009" style="stroke: #000000; stroke-width: 0.8"/>
      </g>
     </g>
     <g id="text_6">
      <!-- $\mathdefault{10^{0}}$ -->
      <g transform="translate(16.06899 131.94879) scale(0.1 -0.1)">
       <use xlink:href="#Calibri-31" transform="translate(0 0.442188)"/>
       <use xlink:href="#Calibri-30" transform="translate(50.683594 0.442188)"/>
       <use xlink:href="#Calibri-30" transform="translate(102.184219 33.123438) scale(0.7)"/>
      </g>
     </g>
    </g>
    <g id="ytick_2">
     <g id="line2d_37">
      <g>
       <use xlink:href="#mb69a5f94ec" x="37.06899" y="80.206836" style="stroke: #000000; stroke-width: 0.8"/>
      </g>
     </g>
     <g id="text_7">
      <!-- $\mathdefault{10^{1}}$ -->
      <g transform="translate(16.06899 83.607617) scale(0.1 -0.1)">
       <use xlink:href="#Calibri-31" transform="translate(0 0.78125)"/>
       <use xlink:href="#Calibri-30" transform="translate(50.683594 0.78125)"/>
       <use xlink:href="#Calibri-31" transform="translate(102.184219 33.4625) scale(0.7)"/>
      </g>
     </g>
    </g>
    <g id="ytick_3">
     <g id="line2d_38">
      <g>
       <use xlink:href="#mb69a5f94ec" x="37.06899" y="31.865663" style="stroke: #000000; stroke-width: 0.8"/>
      </g>
     </g>
     <g id="text_8">
      <!-- $\mathdefault{10^{2}}$ -->
      <g transform="translate(16.06899 35.266445) scale(0.1 -0.1)">
       <use xlink:href="#Calibri-31" transform="translate(0 0.442188)"/>
       <use xlink:href="#Calibri-30" transform="translate(50.683594 0.442188)"/>
       <use xlink:href="#Calibri-32" transform="translate(102.184219 33.123438) scale(0.7)"/>
      </g>
     </g>
    </g>
    <g id="ytick_4">
     <g id="line2d_39">
      <defs>
       <path id="mba1dafc6e7" d="M 0 0 
L -2 0 
" style="stroke: #000000; stroke-width: 0.6"/>
      </defs>
      <g>
       <use xlink:href="#mba1dafc6e7" x="37.06899" y="147.784895" style="stroke: #000000; stroke-width: 0.6"/>
      </g>
     </g>
    </g>
    <g id="ytick_5">
     <g id="line2d_40">
      <g>
       <use xlink:href="#mba1dafc6e7" x="37.06899" y="143.100152" style="stroke: #000000; stroke-width: 0.6"/>
      </g>
     </g>
    </g>
    <g id="ytick_6">
     <g id="line2d_41">
      <g>
       <use xlink:href="#mba1dafc6e7" x="37.06899" y="139.272437" style="stroke: #000000; stroke-width: 0.6"/>
      </g>
     </g>
    </g>
    <g id="ytick_7">
     <g id="line2d_42">
      <g>
       <use xlink:href="#mba1dafc6e7" x="37.06899" y="136.036151" style="stroke: #000000; stroke-width: 0.6"/>
      </g>
     </g>
    </g>
    <g id="ytick_8">
     <g id="line2d_43">
      <g>
       <use xlink:href="#mba1dafc6e7" x="37.06899" y="133.232752" style="stroke: #000000; stroke-width: 0.6"/>
      </g>
     </g>
    </g>
    <g id="ytick_9">
     <g id="line2d_44">
      <g>
       <use xlink:href="#mba1dafc6e7" x="37.06899" y="130.759979" style="stroke: #000000; stroke-width: 0.6"/>
      </g>
     </g>
    </g>
    <g id="ytick_10">
     <g id="line2d_45">
      <g>
       <use xlink:href="#mba1dafc6e7" x="37.06899" y="113.995866" style="stroke: #000000; stroke-width: 0.6"/>
      </g>
     </g>
    </g>
    <g id="ytick_11">
     <g id="line2d_46">
      <g>
       <use xlink:href="#mba1dafc6e7" x="37.06899" y="105.483408" style="stroke: #000000; stroke-width: 0.6"/>
      </g>
     </g>
    </g>
    <g id="ytick_12">
     <g id="line2d_47">
      <g>
       <use xlink:href="#mba1dafc6e7" x="37.06899" y="99.443723" style="stroke: #000000; stroke-width: 0.6"/>
      </g>
     </g>
    </g>
    <g id="ytick_13">
     <g id="line2d_48">
      <g>
       <use xlink:href="#mba1dafc6e7" x="37.06899" y="94.758979" style="stroke: #000000; stroke-width: 0.6"/>
      </g>
     </g>
    </g>
    <g id="ytick_14">
     <g id="line2d_49">
      <g>
       <use xlink:href="#mba1dafc6e7" x="37.06899" y="90.931265" style="stroke: #000000; stroke-width: 0.6"/>
      </g>
     </g>
    </g>
    <g id="ytick_15">
     <g id="line2d_50">
      <g>
       <use xlink:href="#mba1dafc6e7" x="37.06899" y="87.694978" style="stroke: #000000; stroke-width: 0.6"/>
      </g>
     </g>
    </g>
    <g id="ytick_16">
     <g id="line2d_51">
      <g>
       <use xlink:href="#mba1dafc6e7" x="37.06899" y="84.89158" style="stroke: #000000; stroke-width: 0.6"/>
      </g>
     </g>
    </g>
    <g id="ytick_17">
     <g id="line2d_52">
      <g>
       <use xlink:href="#mba1dafc6e7" x="37.06899" y="82.418807" style="stroke: #000000; stroke-width: 0.6"/>
      </g>
     </g>
    </g>
    <g id="ytick_18">
     <g id="line2d_53">
      <g>
       <use xlink:href="#mba1dafc6e7" x="37.06899" y="65.654693" style="stroke: #000000; stroke-width: 0.6"/>
      </g>
     </g>
    </g>
    <g id="ytick_19">
     <g id="line2d_54">
      <g>
       <use xlink:href="#mba1dafc6e7" x="37.06899" y="57.142235" style="stroke: #000000; stroke-width: 0.6"/>
      </g>
     </g>
    </g>
    <g id="ytick_20">
     <g id="line2d_55">
      <g>
       <use xlink:href="#mba1dafc6e7" x="37.06899" y="51.10255" style="stroke: #000000; stroke-width: 0.6"/>
      </g>
     </g>
    </g>
    <g id="ytick_21">
     <g id="line2d_56">
      <g>
       <use xlink:href="#mba1dafc6e7" x="37.06899" y="46.417806" style="stroke: #000000; stroke-width: 0.6"/>
      </g>
     </g>
    </g>
    <g id="ytick_22">
     <g id="line2d_57">
      <g>
       <use xlink:href="#mba1dafc6e7" x="37.06899" y="42.590092" style="stroke: #000000; stroke-width: 0.6"/>
      </g>
     </g>
    </g>
    <g id="ytick_23">
     <g id="line2d_58">
      <g>
       <use xlink:href="#mba1dafc6e7" x="37.06899" y="39.353806" style="stroke: #000000; stroke-width: 0.6"/>
      </g>
     </g>
    </g>
    <g id="ytick_24">
     <g id="line2d_59">
      <g>
       <use xlink:href="#mba1dafc6e7" x="37.06899" y="36.550407" style="stroke: #000000; stroke-width: 0.6"/>
      </g>
     </g>
    </g>
    <g id="ytick_25">
     <g id="line2d_60">
      <g>
       <use xlink:href="#mba1dafc6e7" x="37.06899" y="34.077634" style="stroke: #000000; stroke-width: 0.6"/>
      </g>
     </g>
    </g>
    <g id="ytick_26">
     <g id="line2d_61">
      <g>
       <use xlink:href="#mba1dafc6e7" x="37.06899" y="17.31352" style="stroke: #000000; stroke-width: 0.6"/>
      </g>
     </g>
    </g>
    <g id="ytick_27">
     <g id="line2d_62">
      <g>
       <use xlink:href="#mba1dafc6e7" x="37.06899" y="8.801063" style="stroke: #000000; stroke-width: 0.6"/>
      </g>
     </g>
    </g>
    <g id="text_9">
     <!-- $\mathdefault{MSE_f}$ -->
     <g transform="translate(9.939303 87.680112) rotate(-90) scale(0.1 -0.1)">
      <defs>
       <path id="LiberationSerif-4d" d="M 2694 0 
L 2584 0 
L 1050 3603 
L 1050 250 
L 1613 166 
L 1613 0 
L 184 0 
L 184 166 
L 722 250 
L 722 3944 
L 184 4025 
L 184 4191 
L 1453 4191 
L 2816 1003 
L 4303 4191 
L 5503 4191 
L 5503 4025 
L 4966 3944 
L 4966 250 
L 5503 166 
L 5503 0 
L 3803 0 
L 3803 166 
L 4366 250 
L 4366 3603 
L 2694 0 
z
" transform="scale(0.015625)"/>
       <path id="LiberationSerif-53" d="M 434 1128 
L 638 1128 
L 747 563 
Q 863 416 1145 303 
Q 1428 191 1703 191 
Q 2141 191 2386 414 
Q 2631 638 2631 1031 
Q 2631 1256 2536 1403 
Q 2441 1550 2286 1651 
Q 2131 1753 1934 1823 
Q 1738 1894 1530 1966 
Q 1322 2038 1125 2125 
Q 928 2213 773 2347 
Q 619 2481 523 2679 
Q 428 2878 428 3169 
Q 428 3669 803 3953 
Q 1178 4238 1844 4238 
Q 2350 4238 2944 4103 
L 2944 3231 
L 2741 3231 
L 2631 3744 
Q 2313 3975 1844 3975 
Q 1425 3975 1189 3804 
Q 953 3634 953 3334 
Q 953 3131 1048 2997 
Q 1144 2863 1298 2767 
Q 1453 2672 1651 2603 
Q 1850 2534 2058 2461 
Q 2266 2388 2464 2295 
Q 2663 2203 2817 2061 
Q 2972 1919 3067 1714 
Q 3163 1509 3163 1209 
Q 3163 603 2791 270 
Q 2419 -63 1719 -63 
Q 1381 -63 1040 -3 
Q 700 56 434 159 
L 434 1128 
z
" transform="scale(0.015625)"/>
       <path id="LiberationSerif-45" d="M 184 166 
L 722 250 
L 722 3944 
L 184 4025 
L 184 4191 
L 3328 4191 
L 3328 3188 
L 3122 3188 
L 3022 3866 
Q 2672 3909 2009 3909 
L 1325 3909 
L 1325 2272 
L 2456 2272 
L 2553 2772 
L 2753 2772 
L 2753 1484 
L 2553 1484 
L 2456 1991 
L 1325 1991 
L 1325 281 
L 2150 281 
Q 2956 281 3206 331 
L 3384 1106 
L 3591 1106 
L 3531 0 
L 184 0 
L 184 166 
z
" transform="scale(0.015625)"/>
       <path id="LiberationSerif-66" d="M 703 2675 
L 197 2675 
L 197 2828 
L 703 2950 
L 703 3156 
Q 703 3806 961 4156 
Q 1219 4506 1684 4506 
Q 1925 4506 2131 4447 
L 2131 3806 
L 1978 3806 
L 1838 4191 
Q 1731 4256 1581 4256 
Q 1384 4256 1303 4081 
Q 1222 3906 1222 3425 
L 1222 2938 
L 2003 2938 
L 2003 2675 
L 1222 2675 
L 1222 244 
L 1856 141 
L 1856 0 
L 269 0 
L 269 141 
L 703 244 
L 703 2675 
z
" transform="scale(0.015625)"/>
      </defs>
      <use xlink:href="#LiberationSerif-4d" transform="translate(0 0.78125)"/>
      <use xlink:href="#LiberationSerif-53" transform="translate(88.916016 0.78125)"/>
      <use xlink:href="#LiberationSerif-45" transform="translate(144.53125 0.78125)"/>
      <use xlink:href="#LiberationSerif-66" transform="translate(206.418594 -12.990625) scale(0.7)"/>
     </g>
    </g>
   </g>
   <g id="line2d_63">
    <path d="M 37.06899 4.432198 
L 52.539149 6.998243 
L 61.639992 9.789718 
L 73.125209 14.627229 
L 77.23887 15.68806 
L 80.711415 17.10462 
L 83.720748 17.229711 
L 88.767904 18.159618 
L 90.916099 17.88816 
L 92.88438 16.743973 
L 94.694193 15.160416 
L 96.363388 22.937463 
L 99.374786 26.276916 
L 100.73255 28.125608 
L 102.01681 28.231284 
L 103.228705 29.826556 
L 104.377566 31.573782 
L 105.470835 31.867763 
L 106.519738 31.573782 
L 107.516668 29.096408 
L 108.470727 34.997936 
L 109.387921 33.463863 
L 110.26865 34.175837 
L 111.117 33.382463 
L 111.933054 38.045779 
L 112.721281 38.495817 
L 113.488011 38.13615 
L 114.223515 39.410868 
L 114.936673 39.637639 
L 115.628554 40.819408 
L 116.298301 41.192549 
L 116.948512 39.555719 
L 117.581283 41.519174 
L 118.196334 41.192549 
L 118.79438 40.649647 
L 119.378386 42.506282 
L 119.947006 38.539048 
L 120.502107 38.63447 
L 121.044113 39.58299 
L 121.571962 46.18813 
L 122.087967 46.747899 
L 122.593449 47.048621 
L 124.504241 48.629777 
L 124.958079 48.760817 
L 126.268191 50.319551 
L 126.689265 50.522789 
L 127.101656 50.971744 
L 127.507137 51.170893 
L 128.298919 51.731201 
L 128.683502 51.774511 
L 129.062249 52.569761 
L 129.79991 53.169231 
L 130.16026 53.822139 
L 130.514392 53.30869 
L 130.86306 53.396325 
L 131.206975 54.123008 
L 131.545601 54.415957 
L 131.879624 55.046052 
L 132.209433 55.052386 
L 132.533341 53.390471 
L 132.852167 55.332994 
L 133.167056 55.390857 
L 133.478603 56.447064 
L 133.785549 56.788332 
L 134.088501 56.774574 
L 134.387328 55.806985 
L 134.682605 55.552427 
L 134.973612 58.471067 
L 136.103419 59.276593 
L 140.354606 62.65669 
L 142.313871 64.332581 
L 146.138255 67.473804 
L 147.503064 68.195809 
L 147.831765 68.290806 
L 147.99421 68.687276 
L 148.316534 68.350398 
L 148.475543 68.578403 
L 148.633442 70.247787 
L 149.860987 71.128236 
L 156.311512 75.997712 
L 157.617237 77.054695 
L 159.05176 78.167728 
L 162.961707 81.321306 
L 168.22876 85.806094 
L 171.199683 88.614584 
L 176.451933 93.452643 
L 176.497832 92.865161 
L 176.543694 93.642889 
L 176.725961 93.702697 
L 176.771362 92.215412 
L 176.816564 93.899263 
L 176.861657 93.86302 
L 176.906985 93.646871 
L 176.952007 92.830659 
L 177.086339 95.774059 
L 177.528672 96.223938 
L 181.012068 98.874175 
L 183.667068 101.188557 
L 187.538061 104.592814 
L 189.734908 106.516123 
L 192.815478 109.277558 
L 193.742045 110.141925 
L 194.571831 110.943332 
L 195.28669 111.701131 
L 196.178539 112.673754 
L 196.659341 113.212867 
L 198.36518 115.172416 
L 200.147847 117.247904 
L 200.759528 117.844585 
L 200.822997 117.945701 
L 200.807133 117.806791 
L 200.838801 117.869818 
L 200.854593 117.581448 
L 200.917683 118.047308 
L 200.949178 117.743953 
L 201.059063 118.239154 
L 201.074733 118.060043 
L 201.090368 118.060043 
L 201.137231 118.009148 
L 201.416245 120.689455 
L 202.09898 121.186212 
L 202.261533 121.289961 
L 202.702124 121.589243 
L 202.875852 121.695008 
L 203.319078 122.000163 
L 203.488523 122.108024 
L 203.879004 122.387952 
L 204.044567 122.497829 
L 204.43941 122.783039 
L 204.587426 122.878977 
L 204.972873 123.169448 
L 205.115491 123.267172 
L 205.464417 123.530015 
L 205.605531 123.629436 
L 205.948769 123.896883 
L 206.099766 123.99806 
L 206.422825 124.253158 
L 206.570407 124.356072 
L 206.872789 124.598183 
L 207.017514 124.702806 
L 207.304532 124.931294 
L 207.45709 125.037595 
L 207.735425 125.269776 
L 207.886516 125.377808 
L 208.15149 125.595556 
L 208.299928 125.705283 
L 208.559677 125.926471 
L 208.682834 126.019326 
L 208.949638 126.262686 
L 209.070655 126.357043 
L 209.383777 126.681065 
L 209.491012 126.777325 
L 209.746089 127.010166 
L 209.872259 127.107951 
L 210.112184 127.324694 
L 210.247585 127.423958 
L 210.475565 127.623905 
L 210.609405 127.724597 
L 210.834375 127.927442 
L 210.966497 128.029605 
L 211.177709 128.214759 
L 211.307364 128.318332 
L 211.51463 128.506062 
L 211.641143 128.608981 
L 216.479054 132.925348 
L 225.444533 141.912518 
L 225.562028 143.992201 
L 225.784474 144.146103 
L 226.192726 144.256727 
L 226.419701 144.305587 
L 227.002233 144.412588 
L 227.211265 144.452854 
L 227.783587 144.560609 
L 227.990549 144.605671 
L 228.551457 144.714216 
L 228.74655 144.750522 
L 229.353693 144.859821 
L 229.541683 144.89638 
L 230.115278 145.006442 
L 230.306126 145.047865 
L 230.88466 145.158726 
L 231.073414 145.20045 
L 231.62481 145.307458 
L 231.803569 145.344806 
L 232.339291 145.452553 
L 232.516369 145.49016 
L 232.765199 145.541981 
L 232.877411 146.640954 
L 233.050308 146.710653 
L 233.164983 147.200029 
L 233.343171 147.251135 
L 233.456455 147.44648 
L 233.527785 147.53965 
L 233.643834 147.628026 
L 236.194642 147.628026 
L 236.194642 147.628026 
" clip-path="url(#pe4a03806ef)" style="fill: none; stroke: #1f77b4; stroke-linecap: square"/>
   </g>
   <g id="patch_3">
    <path d="M 37.06899 149.059984 
L 37.06899 3.00024 
" style="fill: none; stroke: #000000; stroke-width: 0.8; stroke-linejoin: miter; stroke-linecap: square"/>
   </g>
   <g id="patch_4">
    <path d="M 236.194642 149.059984 
L 236.194642 3.00024 
" style="fill: none; stroke: #000000; stroke-width: 0.8; stroke-linejoin: miter; stroke-linecap: square"/>
   </g>
   <g id="patch_5">
    <path d="M 37.06899 149.059984 
L 236.194642 149.059984 
" style="fill: none; stroke: #000000; stroke-width: 0.8; stroke-linejoin: miter; stroke-linecap: square"/>
   </g>
   <g id="patch_6">
    <path d="M 37.06899 3.00024 
L 236.194642 3.00024 
" style="fill: none; stroke: #000000; stroke-width: 0.8; stroke-linejoin: miter; stroke-linecap: square"/>
   </g>
  </g>
  <g id="axes_2">
   <g id="patch_7">
    <path d="M 279.763872 149.059984 
L 478.889524 149.059984 
L 478.889524 3.00024 
L 279.763872 3.00024 
z
" style="fill: #ffffff"/>
   </g>
   <g id="matplotlib.axis_3">
    <g id="xtick_36">
     <g id="line2d_64">
      <g>
       <use xlink:href="#m5e8d771f6c" x="310.424014" y="149.059984" style="stroke: #000000; stroke-width: 0.8"/>
      </g>
     </g>
     <g id="text_10">
      <!-- $\mathdefault{10^{2}}$ -->
      <g transform="translate(303.424014 162.861546) scale(0.1 -0.1)">
       <use xlink:href="#Calibri-31" transform="translate(0 0.442188)"/>
       <use xlink:href="#Calibri-30" transform="translate(50.683594 0.442188)"/>
       <use xlink:href="#Calibri-32" transform="translate(102.184219 33.123438) scale(0.7)"/>
      </g>
     </g>
    </g>
    <g id="xtick_37">
     <g id="line2d_65">
      <g>
       <use xlink:href="#m5e8d771f6c" x="362.458906" y="149.059984" style="stroke: #000000; stroke-width: 0.8"/>
      </g>
     </g>
     <g id="text_11">
      <!-- $\mathdefault{10^{3}}$ -->
      <g transform="translate(355.458906 162.861546) scale(0.1 -0.1)">
       <use xlink:href="#Calibri-31" transform="translate(0 0.442188)"/>
       <use xlink:href="#Calibri-30" transform="translate(50.683594 0.442188)"/>
       <use xlink:href="#Calibri-33" transform="translate(102.184219 33.123438) scale(0.7)"/>
      </g>
     </g>
    </g>
    <g id="xtick_38">
     <g id="line2d_66">
      <g>
       <use xlink:href="#m5e8d771f6c" x="414.493797" y="149.059984" style="stroke: #000000; stroke-width: 0.8"/>
      </g>
     </g>
     <g id="text_12">
      <!-- $\mathdefault{10^{4}}$ -->
      <g transform="translate(407.493797 162.861546) scale(0.1 -0.1)">
       <use xlink:href="#Calibri-31" transform="translate(0 0.879688)"/>
       <use xlink:href="#Calibri-30" transform="translate(50.683594 0.879688)"/>
       <use xlink:href="#Calibri-34" transform="translate(102.184219 33.560938) scale(0.7)"/>
      </g>
     </g>
    </g>
    <g id="xtick_39">
     <g id="line2d_67">
      <g>
       <use xlink:href="#m5e8d771f6c" x="466.528688" y="149.059984" style="stroke: #000000; stroke-width: 0.8"/>
      </g>
     </g>
     <g id="text_13">
      <!-- $\mathdefault{10^{5}}$ -->
      <g transform="translate(459.528688 162.861546) scale(0.1 -0.1)">
       <use xlink:href="#Calibri-31" transform="translate(0 0.0875)"/>
       <use xlink:href="#Calibri-30" transform="translate(50.683594 0.0875)"/>
       <use xlink:href="#Calibri-35" transform="translate(102.184219 32.76875) scale(0.7)"/>
      </g>
     </g>
    </g>
    <g id="xtick_40">
     <g id="line2d_68">
      <g>
       <use xlink:href="#m39cac5a393" x="283.216076" y="149.059984" style="stroke: #000000; stroke-width: 0.6"/>
      </g>
     </g>
    </g>
    <g id="xtick_41">
     <g id="line2d_69">
      <g>
       <use xlink:href="#m39cac5a393" x="289.717249" y="149.059984" style="stroke: #000000; stroke-width: 0.6"/>
      </g>
     </g>
    </g>
    <g id="xtick_42">
     <g id="line2d_70">
      <g>
       <use xlink:href="#m39cac5a393" x="294.759951" y="149.059984" style="stroke: #000000; stroke-width: 0.6"/>
      </g>
     </g>
    </g>
    <g id="xtick_43">
     <g id="line2d_71">
      <g>
       <use xlink:href="#m39cac5a393" x="298.880139" y="149.059984" style="stroke: #000000; stroke-width: 0.6"/>
      </g>
     </g>
    </g>
    <g id="xtick_44">
     <g id="line2d_72">
      <g>
       <use xlink:href="#m39cac5a393" x="302.363708" y="149.059984" style="stroke: #000000; stroke-width: 0.6"/>
      </g>
     </g>
    </g>
    <g id="xtick_45">
     <g id="line2d_73">
      <g>
       <use xlink:href="#m39cac5a393" x="305.381312" y="149.059984" style="stroke: #000000; stroke-width: 0.6"/>
      </g>
     </g>
    </g>
    <g id="xtick_46">
     <g id="line2d_74">
      <g>
       <use xlink:href="#m39cac5a393" x="308.043028" y="149.059984" style="stroke: #000000; stroke-width: 0.6"/>
      </g>
     </g>
    </g>
    <g id="xtick_47">
     <g id="line2d_75">
      <g>
       <use xlink:href="#m39cac5a393" x="326.088077" y="149.059984" style="stroke: #000000; stroke-width: 0.6"/>
      </g>
     </g>
    </g>
    <g id="xtick_48">
     <g id="line2d_76">
      <g>
       <use xlink:href="#m39cac5a393" x="335.250967" y="149.059984" style="stroke: #000000; stroke-width: 0.6"/>
      </g>
     </g>
    </g>
    <g id="xtick_49">
     <g id="line2d_77">
      <g>
       <use xlink:href="#m39cac5a393" x="341.752141" y="149.059984" style="stroke: #000000; stroke-width: 0.6"/>
      </g>
     </g>
    </g>
    <g id="xtick_50">
     <g id="line2d_78">
      <g>
       <use xlink:href="#m39cac5a393" x="346.794843" y="149.059984" style="stroke: #000000; stroke-width: 0.6"/>
      </g>
     </g>
    </g>
    <g id="xtick_51">
     <g id="line2d_79">
      <g>
       <use xlink:href="#m39cac5a393" x="350.91503" y="149.059984" style="stroke: #000000; stroke-width: 0.6"/>
      </g>
     </g>
    </g>
    <g id="xtick_52">
     <g id="line2d_80">
      <g>
       <use xlink:href="#m39cac5a393" x="354.398599" y="149.059984" style="stroke: #000000; stroke-width: 0.6"/>
      </g>
     </g>
    </g>
    <g id="xtick_53">
     <g id="line2d_81">
      <g>
       <use xlink:href="#m39cac5a393" x="357.416204" y="149.059984" style="stroke: #000000; stroke-width: 0.6"/>
      </g>
     </g>
    </g>
    <g id="xtick_54">
     <g id="line2d_82">
      <g>
       <use xlink:href="#m39cac5a393" x="360.07792" y="149.059984" style="stroke: #000000; stroke-width: 0.6"/>
      </g>
     </g>
    </g>
    <g id="xtick_55">
     <g id="line2d_83">
      <g>
       <use xlink:href="#m39cac5a393" x="378.122969" y="149.059984" style="stroke: #000000; stroke-width: 0.6"/>
      </g>
     </g>
    </g>
    <g id="xtick_56">
     <g id="line2d_84">
      <g>
       <use xlink:href="#m39cac5a393" x="387.285858" y="149.059984" style="stroke: #000000; stroke-width: 0.6"/>
      </g>
     </g>
    </g>
    <g id="xtick_57">
     <g id="line2d_85">
      <g>
       <use xlink:href="#m39cac5a393" x="393.787032" y="149.059984" style="stroke: #000000; stroke-width: 0.6"/>
      </g>
     </g>
    </g>
    <g id="xtick_58">
     <g id="line2d_86">
      <g>
       <use xlink:href="#m39cac5a393" x="398.829734" y="149.059984" style="stroke: #000000; stroke-width: 0.6"/>
      </g>
     </g>
    </g>
    <g id="xtick_59">
     <g id="line2d_87">
      <g>
       <use xlink:href="#m39cac5a393" x="402.949921" y="149.059984" style="stroke: #000000; stroke-width: 0.6"/>
      </g>
     </g>
    </g>
    <g id="xtick_60">
     <g id="line2d_88">
      <g>
       <use xlink:href="#m39cac5a393" x="406.43349" y="149.059984" style="stroke: #000000; stroke-width: 0.6"/>
      </g>
     </g>
    </g>
    <g id="xtick_61">
     <g id="line2d_89">
      <g>
       <use xlink:href="#m39cac5a393" x="409.451095" y="149.059984" style="stroke: #000000; stroke-width: 0.6"/>
      </g>
     </g>
    </g>
    <g id="xtick_62">
     <g id="line2d_90">
      <g>
       <use xlink:href="#m39cac5a393" x="412.112811" y="149.059984" style="stroke: #000000; stroke-width: 0.6"/>
      </g>
     </g>
    </g>
    <g id="xtick_63">
     <g id="line2d_91">
      <g>
       <use xlink:href="#m39cac5a393" x="430.15786" y="149.059984" style="stroke: #000000; stroke-width: 0.6"/>
      </g>
     </g>
    </g>
    <g id="xtick_64">
     <g id="line2d_92">
      <g>
       <use xlink:href="#m39cac5a393" x="439.320749" y="149.059984" style="stroke: #000000; stroke-width: 0.6"/>
      </g>
     </g>
    </g>
    <g id="xtick_65">
     <g id="line2d_93">
      <g>
       <use xlink:href="#m39cac5a393" x="445.821923" y="149.059984" style="stroke: #000000; stroke-width: 0.6"/>
      </g>
     </g>
    </g>
    <g id="xtick_66">
     <g id="line2d_94">
      <g>
       <use xlink:href="#m39cac5a393" x="450.864625" y="149.059984" style="stroke: #000000; stroke-width: 0.6"/>
      </g>
     </g>
    </g>
    <g id="xtick_67">
     <g id="line2d_95">
      <g>
       <use xlink:href="#m39cac5a393" x="454.984812" y="149.059984" style="stroke: #000000; stroke-width: 0.6"/>
      </g>
     </g>
    </g>
    <g id="xtick_68">
     <g id="line2d_96">
      <g>
       <use xlink:href="#m39cac5a393" x="458.468381" y="149.059984" style="stroke: #000000; stroke-width: 0.6"/>
      </g>
     </g>
    </g>
    <g id="xtick_69">
     <g id="line2d_97">
      <g>
       <use xlink:href="#m39cac5a393" x="461.485986" y="149.059984" style="stroke: #000000; stroke-width: 0.6"/>
      </g>
     </g>
    </g>
    <g id="xtick_70">
     <g id="line2d_98">
      <g>
       <use xlink:href="#m39cac5a393" x="464.147702" y="149.059984" style="stroke: #000000; stroke-width: 0.6"/>
      </g>
     </g>
    </g>
    <g id="text_14">
     <!-- time [sec] -->
     <g transform="translate(359.475135 175.578734) scale(0.1 -0.1)">
      <use xlink:href="#LiberationSerif-74"/>
      <use xlink:href="#LiberationSerif-69" x="27.783203"/>
      <use xlink:href="#LiberationSerif-6d" x="55.566406"/>
      <use xlink:href="#LiberationSerif-65" x="133.349609"/>
      <use xlink:href="#LiberationSerif-20" x="177.734375"/>
      <use xlink:href="#LiberationSerif-5b" x="202.734375"/>
      <use xlink:href="#LiberationSerif-73" x="236.035156"/>
      <use xlink:href="#LiberationSerif-65" x="274.951172"/>
      <use xlink:href="#LiberationSerif-63" x="319.335938"/>
      <use xlink:href="#LiberationSerif-5d" x="363.720703"/>
     </g>
    </g>
   </g>
   <g id="matplotlib.axis_4">
    <g id="ytick_28">
     <g id="line2d_99">
      <g>
       <use xlink:href="#mb69a5f94ec" x="279.763872" y="148.390209" style="stroke: #000000; stroke-width: 0.8"/>
      </g>
     </g>
     <g id="text_15">
      <!-- $\mathdefault{10^{-3}}$ -->
      <g transform="translate(255.263872 151.790991) scale(0.1 -0.1)">
       <defs>
        <path id="Calibri-2212" d="M 2934 1797 
Q 2934 1681 2904 1628 
Q 2875 1575 2819 1575 
L 356 1575 
Q 297 1575 267 1628 
Q 238 1681 238 1797 
Q 238 1909 267 1964 
Q 297 2019 356 2019 
L 2819 2019 
Q 2875 2019 2904 1966 
Q 2934 1913 2934 1797 
z
" transform="scale(0.015625)"/>
       </defs>
       <use xlink:href="#Calibri-31" transform="translate(0 0.442188)"/>
       <use xlink:href="#Calibri-30" transform="translate(50.683594 0.442188)"/>
       <use xlink:href="#Calibri-2212" transform="translate(102.184219 33.123438) scale(0.7)"/>
       <use xlink:href="#Calibri-33" transform="translate(137.0475 33.123438) scale(0.7)"/>
      </g>
     </g>
    </g>
    <g id="ytick_29">
     <g id="line2d_100">
      <g>
       <use xlink:href="#mb69a5f94ec" x="279.763872" y="67.743495" style="stroke: #000000; stroke-width: 0.8"/>
      </g>
     </g>
     <g id="text_16">
      <!-- $\mathdefault{10^{-2}}$ -->
      <g transform="translate(255.263872 71.144276) scale(0.1 -0.1)">
       <use xlink:href="#Calibri-31" transform="translate(0 0.442188)"/>
       <use xlink:href="#Calibri-30" transform="translate(50.683594 0.442188)"/>
       <use xlink:href="#Calibri-2212" transform="translate(102.184219 33.123438) scale(0.7)"/>
       <use xlink:href="#Calibri-32" transform="translate(137.0475 33.123438) scale(0.7)"/>
      </g>
     </g>
    </g>
    <g id="ytick_30">
     <g id="line2d_101">
      <g>
       <use xlink:href="#mba1dafc6e7" x="279.763872" y="124.113129" style="stroke: #000000; stroke-width: 0.6"/>
      </g>
     </g>
    </g>
    <g id="ytick_31">
     <g id="line2d_102">
      <g>
       <use xlink:href="#mba1dafc6e7" x="279.763872" y="109.911948" style="stroke: #000000; stroke-width: 0.6"/>
      </g>
     </g>
    </g>
    <g id="ytick_32">
     <g id="line2d_103">
      <g>
       <use xlink:href="#mba1dafc6e7" x="279.763872" y="99.836049" style="stroke: #000000; stroke-width: 0.6"/>
      </g>
     </g>
    </g>
    <g id="ytick_33">
     <g id="line2d_104">
      <g>
       <use xlink:href="#mba1dafc6e7" x="279.763872" y="92.020575" style="stroke: #000000; stroke-width: 0.6"/>
      </g>
     </g>
    </g>
    <g id="ytick_34">
     <g id="line2d_105">
      <g>
       <use xlink:href="#mba1dafc6e7" x="279.763872" y="85.634868" style="stroke: #000000; stroke-width: 0.6"/>
      </g>
     </g>
    </g>
    <g id="ytick_35">
     <g id="line2d_106">
      <g>
       <use xlink:href="#mba1dafc6e7" x="279.763872" y="80.235829" style="stroke: #000000; stroke-width: 0.6"/>
      </g>
     </g>
    </g>
    <g id="ytick_36">
     <g id="line2d_107">
      <g>
       <use xlink:href="#mba1dafc6e7" x="279.763872" y="75.558969" style="stroke: #000000; stroke-width: 0.6"/>
      </g>
     </g>
    </g>
    <g id="ytick_37">
     <g id="line2d_108">
      <g>
       <use xlink:href="#mba1dafc6e7" x="279.763872" y="71.433686" style="stroke: #000000; stroke-width: 0.6"/>
      </g>
     </g>
    </g>
    <g id="ytick_38">
     <g id="line2d_109">
      <g>
       <use xlink:href="#mba1dafc6e7" x="279.763872" y="43.466415" style="stroke: #000000; stroke-width: 0.6"/>
      </g>
     </g>
    </g>
    <g id="ytick_39">
     <g id="line2d_110">
      <g>
       <use xlink:href="#mba1dafc6e7" x="279.763872" y="29.265233" style="stroke: #000000; stroke-width: 0.6"/>
      </g>
     </g>
    </g>
    <g id="ytick_40">
     <g id="line2d_111">
      <g>
       <use xlink:href="#mba1dafc6e7" x="279.763872" y="19.189335" style="stroke: #000000; stroke-width: 0.6"/>
      </g>
     </g>
    </g>
    <g id="ytick_41">
     <g id="line2d_112">
      <g>
       <use xlink:href="#mba1dafc6e7" x="279.763872" y="11.373861" style="stroke: #000000; stroke-width: 0.6"/>
      </g>
     </g>
    </g>
    <g id="ytick_42">
     <g id="line2d_113">
      <g>
       <use xlink:href="#mba1dafc6e7" x="279.763872" y="4.988153" style="stroke: #000000; stroke-width: 0.6"/>
      </g>
     </g>
    </g>
    <g id="text_17">
     <!-- $\mathdefault{RMSE_u}$ -->
     <g transform="translate(249.134184 91.580112) rotate(-90) scale(0.1 -0.1)">
      <defs>
       <path id="LiberationSerif-52" d="M 1325 1838 
L 1325 250 
L 1959 166 
L 1959 0 
L 225 0 
L 225 166 
L 722 250 
L 722 3944 
L 184 4025 
L 184 4191 
L 1994 4191 
Q 2781 4191 3156 3925 
Q 3531 3659 3531 3072 
Q 3531 2653 3303 2348 
Q 3075 2044 2672 1925 
L 3806 250 
L 4259 166 
L 4259 0 
L 3256 0 
L 2078 1838 
L 1325 1838 
z
M 2909 3028 
Q 2909 3506 2676 3707 
Q 2444 3909 1859 3909 
L 1325 3909 
L 1325 2119 
L 1878 2119 
Q 2438 2119 2673 2326 
Q 2909 2534 2909 3028 
z
" transform="scale(0.015625)"/>
       <path id="LiberationSerif-75" d="M 978 838 
Q 978 300 1478 300 
Q 1866 300 2203 397 
L 2203 2719 
L 1759 2797 
L 1759 2938 
L 2719 2938 
L 2719 219 
L 3091 141 
L 3091 0 
L 2234 0 
L 2209 238 
Q 1988 116 1697 26 
Q 1406 -63 1209 -63 
Q 459 -63 459 800 
L 459 2719 
L 84 2797 
L 84 2938 
L 978 2938 
L 978 838 
z
" transform="scale(0.015625)"/>
      </defs>
      <use xlink:href="#LiberationSerif-52" transform="translate(0 0.78125)"/>
      <use xlink:href="#LiberationSerif-4d" transform="translate(66.699219 0.78125)"/>
      <use xlink:href="#LiberationSerif-53" transform="translate(155.615234 0.78125)"/>
      <use xlink:href="#LiberationSerif-45" transform="translate(211.230469 0.78125)"/>
      <use xlink:href="#LiberationSerif-75" transform="translate(273.117813 -12.990625) scale(0.7)"/>
     </g>
    </g>
   </g>
   <g id="line2d_114">
    <path d="M 279.763872 4.432198 
L 295.234031 6.729413 
L 304.334873 9.253815 
L 315.820091 13.675404 
L 319.933751 14.684736 
L 323.406296 15.96277 
L 329.073881 16.591244 
L 331.462786 17.198098 
L 333.610981 17.322401 
L 337.389075 15.329686 
L 339.05827 22.062172 
L 342.069668 24.829998 
L 343.427432 26.526504 
L 344.711691 26.504917 
L 347.072447 29.901416 
L 348.165717 29.925202 
L 349.214619 29.25356 
L 350.21155 26.043992 
L 351.165609 33.294331 
L 352.082803 31.135565 
L 352.963532 31.995791 
L 353.811882 30.452616 
L 354.627936 36.301393 
L 355.416163 36.631205 
L 356.182893 35.974657 
L 356.918397 37.153751 
L 357.631555 37.270939 
L 358.323436 38.449721 
L 358.993182 38.831171 
L 359.643393 36.616801 
L 360.276165 38.89259 
L 360.891216 38.207755 
L 361.489262 37.359087 
L 362.073268 39.497143 
L 362.641888 34.250326 
L 363.196989 34.290731 
L 363.738995 35.37186 
L 364.266844 44.174003 
L 364.782849 44.805091 
L 365.288331 45.042422 
L 367.199123 46.53942 
L 367.652961 46.520307 
L 368.963073 48.283653 
L 369.384147 48.384269 
L 369.796538 48.871291 
L 370.202019 48.953124 
L 370.60256 49.323756 
L 370.993801 49.406654 
L 371.378384 49.199776 
L 371.75713 50.374358 
L 372.494792 50.933384 
L 372.855142 51.855711 
L 373.209274 50.760424 
L 373.557942 50.652756 
L 373.901857 51.611792 
L 374.240483 51.989477 
L 374.574506 52.802984 
L 374.904314 52.620565 
L 375.228223 49.593896 
L 375.547049 52.643315 
L 375.861938 52.416472 
L 376.173485 54.107236 
L 376.480431 54.536989 
L 376.783383 54.345336 
L 377.08221 52.393869 
L 377.377486 51.789019 
L 377.668494 56.71743 
L 378.239614 57.025565 
L 383.049488 60.664212 
L 385.008753 62.274477 
L 387.001978 63.836823 
L 388.118524 64.660965 
L 388.299522 64.725171 
L 388.47894 64.918498 
L 388.833136 65.015564 
L 390.032051 65.243101 
L 390.526647 65.015564 
L 390.689092 65.70266 
L 391.011415 64.564876 
L 391.170425 64.918498 
L 391.328324 68.404653 
L 394.828624 70.831798 
L 396.140725 71.813221 
L 404.101665 77.355487 
L 407.804668 79.709435 
L 410.857327 81.613515 
L 412.396516 82.912337 
L 414.297128 84.373623 
L 415.890667 85.658225 
L 417.428633 86.605529 
L 417.674966 86.798103 
L 417.773124 86.773974 
L 417.967859 87.04032 
L 418.06437 86.955354 
L 418.112596 87.052475 
L 418.39928 87.308708 
L 418.446684 87.149867 
L 418.494235 87.345466 
L 418.541478 87.455973 
L 418.588641 87.425242 
L 418.682523 87.425242 
L 418.77611 87.480577 
L 418.822768 87.290343 
L 418.915778 87.752373 
L 418.962111 87.603859 
L 419.008387 87.333209 
L 419.054735 87.913977 
L 419.146815 87.783393 
L 419.192714 86.063612 
L 419.238576 88.026295 
L 419.375404 88.095111 
L 419.420843 87.963851 
L 419.466244 83.959393 
L 419.511446 88.101374 
L 419.556539 88.001304 
L 419.646889 85.147926 
L 419.781221 92.592617 
L 420.398024 93.044089 
L 421.209599 93.567285 
L 430.65618 100.055639 
L 431.154131 100.320977 
L 432.248194 100.902865 
L 433.217313 101.348001 
L 433.710162 101.577309 
L 434.659427 102.049805 
L 435.215391 102.349562 
L 436.176567 102.861291 
L 436.631766 103.119987 
L 437.287517 103.52624 
L 439.713564 105.631346 
L 440.066859 105.942676 
L 441.564261 107.476838 
L 441.869297 107.7941 
L 442.368367 108.269877 
L 443.438526 108.876668 
L 443.470277 108.922036 
L 443.48612 108.797414 
L 443.549475 107.64058 
L 443.517879 109.024331 
L 443.596823 108.583197 
L 443.64406 107.893148 
L 443.706925 109.195488 
L 443.738251 107.7941 
L 443.753945 109.310059 
L 443.832113 108.269877 
L 444.04961 115.480682 
L 444.823742 115.590347 
L 445.089371 115.686587 
L 445.440543 115.7969 
L 445.714796 115.907562 
L 445.985446 116.018575 
L 446.281708 116.157837 
L 446.490811 116.255651 
L 446.794265 116.409913 
L 446.985069 116.508435 
L 447.309096 116.692142 
L 447.495509 116.791462 
L 447.810373 116.976664 
L 448.004304 117.076795 
L 448.313188 117.263515 
L 448.504309 117.364471 
L 448.794648 117.538218 
L 448.981999 117.63997 
L 449.265289 117.815093 
L 449.447263 117.917653 
L 449.712396 118.079429 
L 449.904236 118.182768 
L 450.186984 118.360632 
L 450.372678 118.464805 
L 450.650834 118.644112 
L 450.846371 118.749133 
L 451.11957 118.929904 
L 451.299404 119.035787 
L 451.622398 119.294271 
L 451.754564 119.401262 
L 452.228973 119.879051 
L 452.409327 119.987846 
L 452.629942 120.128225 
L 452.817478 120.237799 
L 453.036014 120.379185 
L 453.221975 120.489548 
L 453.437645 120.631956 
L 453.590281 120.727217 
L 453.822566 120.886564 
L 453.992244 120.982522 
L 454.209512 121.126952 
L 454.375066 121.223572 
L 454.589545 121.369002 
L 454.76375 121.466292 
L 454.965075 121.596434 
L 455.135609 121.694359 
L 455.331115 121.825353 
L 455.50652 121.92392 
L 455.698802 122.055777 
L 455.871383 122.154997 
L 456.069561 122.287728 
L 456.230463 122.387608 
L 456.434458 122.537963 
L 456.601581 122.63856 
L 456.793488 122.77314 
L 456.957921 122.874415 
L 457.1383 122.992942 
L 457.317182 123.094856 
L 457.477845 123.180011 
L 458.150226 123.282472 
L 458.305188 123.350946 
L 458.531559 123.453908 
L 458.699824 123.557174 
L 458.906498 123.660746 
L 459.07207 123.764625 
L 459.251923 123.868812 
L 459.422796 123.990758 
L 459.615386 124.095621 
L 459.7759 124.2008 
L 459.965549 124.306295 
L 460.123552 124.394451 
L 460.317652 124.500533 
L 460.473204 124.58918 
L 460.686252 124.695853 
L 460.839371 124.784996 
L 461.0276 124.892269 
L 461.185468 124.999871 
L 461.377854 125.107804 
L 461.533458 125.216072 
L 461.701852 125.324675 
L 461.869095 125.451805 
L 462.02827 125.561143 
L 462.193126 125.689136 
L 462.349938 125.799218 
L 462.512505 125.928086 
L 462.687219 126.038923 
L 462.840571 126.150112 
L 462.993029 126.243039 
L 463.131343 126.317559 
L 463.324731 126.410933 
L 463.46418 126.485812 
L 463.678886 126.579635 
L 463.815854 126.654876 
L 464.02899 126.749154 
L 464.176785 126.843687 
L 464.346995 126.938476 
L 464.498646 127.052562 
L 464.668245 127.147919 
L 464.817687 127.26269 
L 464.946114 127.358621 
L 465.098086 127.474087 
L 465.224984 127.570599 
L 465.375774 127.686767 
L 465.520634 127.783868 
L 465.669175 127.900746 
L 465.851229 127.998443 
L 465.991301 128.096414 
L 466.242518 128.194659 
L 466.370215 128.253739 
L 466.692333 128.352427 
L 466.81763 128.39198 
L 467.071766 128.491059 
L 467.211123 128.590419 
L 467.338262 128.690062 
L 467.493095 128.850083 
L 467.581193 128.950468 
L 467.80511 129.354912 
L 467.859453 129.436364 
L 468.010626 129.76408 
L 468.069701 129.84649 
L 468.128709 130.011895 
L 468.139415 129.929095 
L 468.144782 136.15802 
L 468.251569 136.108655 
L 468.373785 136.207454 
L 468.526866 136.405893 
L 468.652823 136.505536 
L 468.783454 136.605463 
L 468.944629 136.705676 
L 469.068336 136.781025 
L 469.374784 136.881742 
L 469.496185 136.93221 
L 469.975168 137.033363 
L 470.088524 137.058697 
L 470.603901 137.160217 
L 470.723455 137.211088 
L 471.413607 137.313052 
L 471.529146 137.338589 
L 472.294513 137.440925 
L 472.410119 137.466555 
L 472.97061 137.569266 
L 473.091488 137.620735 
L 473.734815 137.7239 
L 473.847559 137.749739 
L 474.336065 137.853285 
L 474.453896 137.905173 
L 474.97104 138.00918 
L 475.089501 138.0613 
L 475.460081 138.139625 
L 475.572293 142.921192 
L 475.74519 142.981165 
L 475.859865 145.468416 
L 476.038053 145.532917 
L 476.151336 146.548189 
L 476.196423 146.548189 
L 476.312581 147.628026 
L 478.889524 147.628026 
L 478.889524 147.628026 
" clip-path="url(#pb4530d195d)" style="fill: none; stroke: #1f77b4; stroke-linecap: square"/>
   </g>
   <g id="patch_8">
    <path d="M 279.763872 149.059984 
L 279.763872 3.00024 
" style="fill: none; stroke: #000000; stroke-width: 0.8; stroke-linejoin: miter; stroke-linecap: square"/>
   </g>
   <g id="patch_9">
    <path d="M 478.889524 149.059984 
L 478.889524 3.00024 
" style="fill: none; stroke: #000000; stroke-width: 0.8; stroke-linejoin: miter; stroke-linecap: square"/>
   </g>
   <g id="patch_10">
    <path d="M 279.763872 149.059984 
L 478.889524 149.059984 
" style="fill: none; stroke: #000000; stroke-width: 0.8; stroke-linejoin: miter; stroke-linecap: square"/>
   </g>
   <g id="patch_11">
    <path d="M 279.763872 3.00024 
L 478.889524 3.00024 
" style="fill: none; stroke: #000000; stroke-width: 0.8; stroke-linejoin: miter; stroke-linecap: square"/>
   </g>
  </g>
 </g>
 <defs>
  <clipPath id="pe4a03806ef">
   <rect x="37.06899" y="3.00024" width="199.125652" height="146.059744"/>
  </clipPath>
  <clipPath id="pb4530d195d">
   <rect x="279.763872" y="3.00024" width="199.125652" height="146.059744"/>
  </clipPath>
 </defs>
</svg>
