<?xml version="1.0" encoding="utf-8" standalone="no"?>
<!DOCTYPE svg PUBLIC "-//W3C//DTD SVG 1.1//EN"
  "http://www.w3.org/Graphics/SVG/1.1/DTD/svg11.dtd">
<svg xmlns:xlink="http://www.w3.org/1999/xlink" width="481.889764pt" height="180.708661pt" viewBox="0 0 481.889764 180.708661" xmlns="http://www.w3.org/2000/svg" version="1.1">
 <metadata>
  <rdf:RDF xmlns:dc="http://purl.org/dc/elements/1.1/" xmlns:cc="http://creativecommons.org/ns#" xmlns:rdf="http://www.w3.org/1999/02/22-rdf-syntax-ns#">
   <cc:Work>
    <dc:type rdf:resource="http://purl.org/dc/dcmitype/StillImage"/>
    <dc:date>2023-06-06T18:35:46.002241</dc:date>
    <dc:format>image/svg+xml</dc:format>
    <dc:creator>
     <cc:Agent>
      <dc:title>Matplotlib v3.7.1, https://matplotlib.org/</dc:title>
     </cc:Agent>
    </dc:creator>
   </cc:Work>
  </rdf:RDF>
 </metadata>
 <defs>
  <style type="text/css">*{stroke-linejoin: round; stroke-linecap: butt}</style>
 </defs>
 <g id="figure_1">
  <g id="patch_1">
   <path d="M 0 180.708661 
L 481.889764 180.708661 
L 481.889764 0 
L 0 0 
z
" style="fill: #ffffff"/>
  </g>
  <g id="axes_1">
   <g id="patch_2">
    <path d="M 40.56899 149.059984 
L 237.944642 149.059984 
L 237.944642 3.00024 
L 40.56899 3.00024 
z
" style="fill: #ffffff"/>
   </g>
   <g id="matplotlib.axis_1">
    <g id="xtick_1">
     <g id="line2d_1">
      <defs>
       <path id="m1c06c1d3a1" d="M 0 0 
L 0 3.5 
" style="stroke: #000000; stroke-width: 0.8"/>
      </defs>
      <g>
       <use xlink:href="#m1c06c1d3a1" x="57.910803" y="149.059984" style="stroke: #000000; stroke-width: 0.8"/>
      </g>
     </g>
     <g id="text_1">
      <!-- $\mathdefault{10^{0}}$ -->
      <g transform="translate(50.910803 162.861546) scale(0.1 -0.1)">
       <defs>
        <path id="Calibri-31" d="M 2897 213 
Q 2897 153 2887 112 
Q 2878 72 2862 47 
Q 2847 22 2826 11 
Q 2806 0 2784 0 
L 672 0 
Q 650 0 631 11 
Q 613 22 595 47 
Q 578 72 568 112 
Q 559 153 559 213 
Q 559 269 568 309 
Q 578 350 592 376 
Q 606 403 626 417 
Q 647 431 672 431 
L 1516 431 
L 1516 3506 
L 734 3041 
Q 675 3009 639 3003 
Q 603 2997 581 3017 
Q 559 3038 551 3084 
Q 544 3131 544 3203 
Q 544 3256 548 3293 
Q 553 3331 562 3356 
Q 572 3381 589 3400 
Q 606 3419 634 3438 
L 1566 4034 
Q 1578 4044 1597 4050 
Q 1616 4056 1644 4062 
Q 1672 4069 1709 4070 
Q 1747 4072 1803 4072 
Q 1878 4072 1928 4065 
Q 1978 4059 2006 4048 
Q 2034 4038 2043 4020 
Q 2053 4003 2053 3984 
L 2053 431 
L 2784 431 
Q 2809 431 2831 417 
Q 2853 403 2867 376 
Q 2881 350 2889 309 
Q 2897 269 2897 213 
z
" transform="scale(0.015625)"/>
        <path id="Calibri-30" d="M 3022 2031 
Q 3022 1566 2948 1181 
Q 2875 797 2704 520 
Q 2534 244 2259 92 
Q 1984 -59 1581 -59 
Q 1200 -59 939 77 
Q 678 213 518 477 
Q 359 741 292 1127 
Q 225 1513 225 2013 
Q 225 2475 300 2861 
Q 375 3247 544 3523 
Q 713 3800 988 3951 
Q 1263 4103 1663 4103 
Q 2047 4103 2308 3967 
Q 2569 3831 2728 3567 
Q 2888 3303 2955 2917 
Q 3022 2531 3022 2031 
z
M 2472 1994 
Q 2472 2297 2450 2537 
Q 2428 2778 2386 2962 
Q 2344 3147 2276 3280 
Q 2209 3413 2115 3498 
Q 2022 3584 1901 3623 
Q 1781 3663 1631 3663 
Q 1366 3663 1200 3538 
Q 1034 3413 939 3194 
Q 844 2975 809 2681 
Q 775 2388 775 2050 
Q 775 1597 822 1280 
Q 869 963 970 763 
Q 1072 563 1230 472 
Q 1388 381 1613 381 
Q 1788 381 1920 437 
Q 2053 494 2148 598 
Q 2244 703 2306 850 
Q 2369 997 2406 1175 
Q 2444 1353 2458 1561 
Q 2472 1769 2472 1994 
z
" transform="scale(0.015625)"/>
       </defs>
       <use xlink:href="#Calibri-31" transform="translate(0 0.442188)"/>
       <use xlink:href="#Calibri-30" transform="translate(50.683594 0.442188)"/>
       <use xlink:href="#Calibri-30" transform="translate(102.184219 33.123438) scale(0.7)"/>
      </g>
     </g>
    </g>
    <g id="xtick_2">
     <g id="line2d_2">
      <g>
       <use xlink:href="#m1c06c1d3a1" x="122.714272" y="149.059984" style="stroke: #000000; stroke-width: 0.8"/>
      </g>
     </g>
     <g id="text_2">
      <!-- $\mathdefault{10^{1}}$ -->
      <g transform="translate(115.714272 162.861546) scale(0.1 -0.1)">
       <use xlink:href="#Calibri-31" transform="translate(0 0.78125)"/>
       <use xlink:href="#Calibri-30" transform="translate(50.683594 0.78125)"/>
       <use xlink:href="#Calibri-31" transform="translate(102.184219 33.4625) scale(0.7)"/>
      </g>
     </g>
    </g>
    <g id="xtick_3">
     <g id="line2d_3">
      <g>
       <use xlink:href="#m1c06c1d3a1" x="187.517741" y="149.059984" style="stroke: #000000; stroke-width: 0.8"/>
      </g>
     </g>
     <g id="text_3">
      <!-- $\mathdefault{10^{2}}$ -->
      <g transform="translate(180.517741 162.861546) scale(0.1 -0.1)">
       <defs>
        <path id="Calibri-32" d="M 2888 231 
Q 2888 175 2880 131 
Q 2872 88 2858 58 
Q 2844 28 2820 14 
Q 2797 0 2769 0 
L 534 0 
Q 491 0 458 11 
Q 425 22 401 47 
Q 378 72 367 119 
Q 356 166 356 234 
Q 356 297 361 344 
Q 366 391 381 427 
Q 397 463 420 498 
Q 444 534 481 575 
L 1266 1406 
Q 1538 1694 1702 1922 
Q 1866 2150 1955 2337 
Q 2044 2525 2072 2678 
Q 2100 2831 2100 2966 
Q 2100 3100 2056 3220 
Q 2013 3341 1930 3431 
Q 1847 3522 1722 3575 
Q 1597 3628 1434 3628 
Q 1244 3628 1092 3575 
Q 941 3522 827 3459 
Q 713 3397 636 3344 
Q 559 3291 522 3291 
Q 500 3291 483 3303 
Q 466 3316 455 3344 
Q 444 3372 437 3419 
Q 431 3466 431 3531 
Q 431 3578 434 3612 
Q 438 3647 445 3672 
Q 453 3697 465 3719 
Q 478 3741 515 3773 
Q 553 3806 645 3862 
Q 738 3919 877 3973 
Q 1016 4028 1183 4065 
Q 1350 4103 1534 4103 
Q 1828 4103 2048 4020 
Q 2269 3938 2414 3794 
Q 2559 3650 2631 3459 
Q 2703 3269 2703 3053 
Q 2703 2859 2668 2667 
Q 2634 2475 2523 2251 
Q 2413 2028 2203 1754 
Q 1994 1481 1647 1125 
L 1006 456 
L 2766 456 
Q 2791 456 2814 442 
Q 2838 428 2855 400 
Q 2872 372 2880 330 
Q 2888 288 2888 231 
z
" transform="scale(0.015625)"/>
       </defs>
       <use xlink:href="#Calibri-31" transform="translate(0 0.442188)"/>
       <use xlink:href="#Calibri-30" transform="translate(50.683594 0.442188)"/>
       <use xlink:href="#Calibri-32" transform="translate(102.184219 33.123438) scale(0.7)"/>
      </g>
     </g>
    </g>
    <g id="xtick_4">
     <g id="line2d_4">
      <defs>
       <path id="m76aede05cc" d="M 0 0 
L 0 2 
" style="stroke: #000000; stroke-width: 0.6"/>
      </defs>
      <g>
       <use xlink:href="#m76aede05cc" x="43.534234" y="149.059984" style="stroke: #000000; stroke-width: 0.6"/>
      </g>
     </g>
    </g>
    <g id="xtick_5">
     <g id="line2d_5">
      <g>
       <use xlink:href="#m76aede05cc" x="47.872618" y="149.059984" style="stroke: #000000; stroke-width: 0.6"/>
      </g>
     </g>
    </g>
    <g id="xtick_6">
     <g id="line2d_6">
      <g>
       <use xlink:href="#m76aede05cc" x="51.630698" y="149.059984" style="stroke: #000000; stroke-width: 0.6"/>
      </g>
     </g>
    </g>
    <g id="xtick_7">
     <g id="line2d_7">
      <g>
       <use xlink:href="#m76aede05cc" x="54.945559" y="149.059984" style="stroke: #000000; stroke-width: 0.6"/>
      </g>
     </g>
    </g>
    <g id="xtick_8">
     <g id="line2d_8">
      <g>
       <use xlink:href="#m76aede05cc" x="77.418591" y="149.059984" style="stroke: #000000; stroke-width: 0.6"/>
      </g>
     </g>
    </g>
    <g id="xtick_9">
     <g id="line2d_9">
      <g>
       <use xlink:href="#m76aede05cc" x="88.829915" y="149.059984" style="stroke: #000000; stroke-width: 0.6"/>
      </g>
     </g>
    </g>
    <g id="xtick_10">
     <g id="line2d_10">
      <g>
       <use xlink:href="#m76aede05cc" x="96.926379" y="149.059984" style="stroke: #000000; stroke-width: 0.6"/>
      </g>
     </g>
    </g>
    <g id="xtick_11">
     <g id="line2d_11">
      <g>
       <use xlink:href="#m76aede05cc" x="103.206484" y="149.059984" style="stroke: #000000; stroke-width: 0.6"/>
      </g>
     </g>
    </g>
    <g id="xtick_12">
     <g id="line2d_12">
      <g>
       <use xlink:href="#m76aede05cc" x="108.337703" y="149.059984" style="stroke: #000000; stroke-width: 0.6"/>
      </g>
     </g>
    </g>
    <g id="xtick_13">
     <g id="line2d_13">
      <g>
       <use xlink:href="#m76aede05cc" x="112.676088" y="149.059984" style="stroke: #000000; stroke-width: 0.6"/>
      </g>
     </g>
    </g>
    <g id="xtick_14">
     <g id="line2d_14">
      <g>
       <use xlink:href="#m76aede05cc" x="116.434167" y="149.059984" style="stroke: #000000; stroke-width: 0.6"/>
      </g>
     </g>
    </g>
    <g id="xtick_15">
     <g id="line2d_15">
      <g>
       <use xlink:href="#m76aede05cc" x="119.749028" y="149.059984" style="stroke: #000000; stroke-width: 0.6"/>
      </g>
     </g>
    </g>
    <g id="xtick_16">
     <g id="line2d_16">
      <g>
       <use xlink:href="#m76aede05cc" x="142.22206" y="149.059984" style="stroke: #000000; stroke-width: 0.6"/>
      </g>
     </g>
    </g>
    <g id="xtick_17">
     <g id="line2d_17">
      <g>
       <use xlink:href="#m76aede05cc" x="153.633385" y="149.059984" style="stroke: #000000; stroke-width: 0.6"/>
      </g>
     </g>
    </g>
    <g id="xtick_18">
     <g id="line2d_18">
      <g>
       <use xlink:href="#m76aede05cc" x="161.729848" y="149.059984" style="stroke: #000000; stroke-width: 0.6"/>
      </g>
     </g>
    </g>
    <g id="xtick_19">
     <g id="line2d_19">
      <g>
       <use xlink:href="#m76aede05cc" x="168.009953" y="149.059984" style="stroke: #000000; stroke-width: 0.6"/>
      </g>
     </g>
    </g>
    <g id="xtick_20">
     <g id="line2d_20">
      <g>
       <use xlink:href="#m76aede05cc" x="173.141173" y="149.059984" style="stroke: #000000; stroke-width: 0.6"/>
      </g>
     </g>
    </g>
    <g id="xtick_21">
     <g id="line2d_21">
      <g>
       <use xlink:href="#m76aede05cc" x="177.479557" y="149.059984" style="stroke: #000000; stroke-width: 0.6"/>
      </g>
     </g>
    </g>
    <g id="xtick_22">
     <g id="line2d_22">
      <g>
       <use xlink:href="#m76aede05cc" x="181.237636" y="149.059984" style="stroke: #000000; stroke-width: 0.6"/>
      </g>
     </g>
    </g>
    <g id="xtick_23">
     <g id="line2d_23">
      <g>
       <use xlink:href="#m76aede05cc" x="184.552497" y="149.059984" style="stroke: #000000; stroke-width: 0.6"/>
      </g>
     </g>
    </g>
    <g id="xtick_24">
     <g id="line2d_24">
      <g>
       <use xlink:href="#m76aede05cc" x="207.025529" y="149.059984" style="stroke: #000000; stroke-width: 0.6"/>
      </g>
     </g>
    </g>
    <g id="xtick_25">
     <g id="line2d_25">
      <g>
       <use xlink:href="#m76aede05cc" x="218.436854" y="149.059984" style="stroke: #000000; stroke-width: 0.6"/>
      </g>
     </g>
    </g>
    <g id="xtick_26">
     <g id="line2d_26">
      <g>
       <use xlink:href="#m76aede05cc" x="226.533317" y="149.059984" style="stroke: #000000; stroke-width: 0.6"/>
      </g>
     </g>
    </g>
    <g id="xtick_27">
     <g id="line2d_27">
      <g>
       <use xlink:href="#m76aede05cc" x="232.813422" y="149.059984" style="stroke: #000000; stroke-width: 0.6"/>
      </g>
     </g>
    </g>
    <g id="xtick_28">
     <g id="line2d_28">
      <g>
       <use xlink:href="#m76aede05cc" x="237.944642" y="149.059984" style="stroke: #000000; stroke-width: 0.6"/>
      </g>
     </g>
    </g>
    <g id="text_4">
     <!-- time [sec] -->
     <g transform="translate(119.405253 175.578734) scale(0.1 -0.1)">
      <defs>
       <path id="LiberationSerif-74" d="M 1044 -63 
Q 744 -63 595 115 
Q 447 294 447 616 
L 447 2675 
L 63 2675 
L 63 2816 
L 453 2938 
L 769 3603 
L 966 3603 
L 966 2938 
L 1638 2938 
L 1638 2675 
L 966 2675 
L 966 672 
Q 966 469 1058 366 
Q 1150 263 1300 263 
Q 1481 263 1741 313 
L 1741 109 
Q 1631 34 1425 -14 
Q 1219 -63 1044 -63 
z
" transform="scale(0.015625)"/>
       <path id="LiberationSerif-69" d="M 1184 3897 
Q 1184 3759 1084 3659 
Q 984 3559 844 3559 
Q 706 3559 606 3659 
Q 506 3759 506 3897 
Q 506 4038 606 4138 
Q 706 4238 844 4238 
Q 984 4238 1084 4138 
Q 1184 4038 1184 3897 
z
M 1153 219 
L 1656 141 
L 1656 0 
L 134 0 
L 134 141 
L 634 219 
L 634 2719 
L 219 2797 
L 219 2938 
L 1153 2938 
L 1153 219 
z
" transform="scale(0.015625)"/>
       <path id="LiberationSerif-6d" d="M 1019 2700 
Q 1253 2834 1515 2925 
Q 1778 3016 1978 3016 
Q 2194 3016 2376 2934 
Q 2559 2853 2650 2675 
Q 2891 2809 3214 2912 
Q 3538 3016 3750 3016 
Q 4500 3016 4500 2150 
L 4500 219 
L 4878 141 
L 4878 0 
L 3544 0 
L 3544 141 
L 3981 219 
L 3981 2094 
Q 3981 2631 3481 2631 
Q 3400 2631 3292 2618 
Q 3184 2606 3076 2590 
Q 2969 2575 2870 2554 
Q 2772 2534 2706 2522 
Q 2759 2353 2759 2150 
L 2759 219 
L 3200 141 
L 3200 0 
L 1806 0 
L 1806 141 
L 2241 219 
L 2241 2094 
Q 2241 2353 2108 2492 
Q 1975 2631 1709 2631 
Q 1434 2631 1025 2541 
L 1025 219 
L 1466 141 
L 1466 0 
L 134 0 
L 134 141 
L 506 219 
L 506 2719 
L 134 2797 
L 134 2938 
L 994 2938 
L 1019 2700 
z
" transform="scale(0.015625)"/>
       <path id="LiberationSerif-65" d="M 813 1478 
L 813 1422 
Q 813 991 908 752 
Q 1003 513 1201 388 
Q 1400 263 1722 263 
Q 1891 263 2122 291 
Q 2353 319 2503 353 
L 2503 178 
Q 2353 81 2095 9 
Q 1838 -63 1569 -63 
Q 884 -63 567 306 
Q 250 675 250 1491 
Q 250 2259 572 2637 
Q 894 3016 1491 3016 
Q 2619 3016 2619 1734 
L 2619 1478 
L 813 1478 
z
M 1491 2766 
Q 1166 2766 992 2503 
Q 819 2241 819 1728 
L 2075 1728 
Q 2075 2288 1931 2527 
Q 1788 2766 1491 2766 
z
" transform="scale(0.015625)"/>
       <path id="LiberationSerif-20" transform="scale(0.015625)"/>
       <path id="LiberationSerif-5b" d="M 475 -856 
L 475 4441 
L 1900 4441 
L 1900 4294 
L 972 4166 
L 972 -581 
L 1900 -709 
L 1900 -856 
L 475 -856 
z
" transform="scale(0.015625)"/>
       <path id="LiberationSerif-73" d="M 2259 825 
Q 2259 388 1982 162 
Q 1706 -63 1166 -63 
Q 947 -63 683 -17 
Q 419 28 269 84 
L 269 806 
L 409 806 
L 563 397 
Q 797 184 1172 184 
Q 1778 184 1778 703 
Q 1778 1084 1300 1247 
L 1022 1338 
Q 706 1441 562 1547 
Q 419 1653 341 1808 
Q 263 1963 263 2181 
Q 263 2569 527 2792 
Q 791 3016 1241 3016 
Q 1563 3016 2047 2919 
L 2047 2278 
L 1900 2278 
L 1769 2619 
Q 1603 2766 1247 2766 
Q 994 2766 861 2641 
Q 728 2516 728 2303 
Q 728 2125 848 2003 
Q 969 1881 1213 1800 
Q 1672 1644 1812 1572 
Q 1953 1500 2051 1395 
Q 2150 1291 2204 1156 
Q 2259 1022 2259 825 
z
" transform="scale(0.015625)"/>
       <path id="LiberationSerif-63" d="M 2644 178 
Q 2491 66 2222 1 
Q 1953 -63 1672 -63 
Q 244 -63 244 1491 
Q 244 2225 608 2620 
Q 972 3016 1650 3016 
Q 2072 3016 2572 2919 
L 2572 2100 
L 2400 2100 
L 2266 2619 
Q 2006 2766 1644 2766 
Q 806 2766 806 1491 
Q 806 828 1061 545 
Q 1316 263 1850 263 
Q 2306 263 2644 366 
L 2644 178 
z
" transform="scale(0.015625)"/>
       <path id="LiberationSerif-5d" d="M 231 -856 
L 231 -709 
L 1159 -581 
L 1159 4166 
L 231 4294 
L 231 4441 
L 1656 4441 
L 1656 -856 
L 231 -856 
z
" transform="scale(0.015625)"/>
      </defs>
      <use xlink:href="#LiberationSerif-74"/>
      <use xlink:href="#LiberationSerif-69" x="27.783203"/>
      <use xlink:href="#LiberationSerif-6d" x="55.566406"/>
      <use xlink:href="#LiberationSerif-65" x="133.349609"/>
      <use xlink:href="#LiberationSerif-20" x="177.734375"/>
      <use xlink:href="#LiberationSerif-5b" x="202.734375"/>
      <use xlink:href="#LiberationSerif-73" x="236.035156"/>
      <use xlink:href="#LiberationSerif-65" x="274.951172"/>
      <use xlink:href="#LiberationSerif-63" x="319.335938"/>
      <use xlink:href="#LiberationSerif-5d" x="363.720703"/>
     </g>
    </g>
   </g>
   <g id="matplotlib.axis_2">
    <g id="ytick_1">
     <g id="line2d_29">
      <defs>
       <path id="m51018af2a2" d="M 0 0 
L -3.5 0 
" style="stroke: #000000; stroke-width: 0.8"/>
      </defs>
      <g>
       <use xlink:href="#m51018af2a2" x="40.56899" y="121.23369" style="stroke: #000000; stroke-width: 0.8"/>
      </g>
     </g>
     <g id="text_5">
      <!-- $\mathdefault{10^{-3}}$ -->
      <g transform="translate(16.06899 124.634471) scale(0.1 -0.1)">
       <defs>
        <path id="Calibri-2212" d="M 2934 1797 
Q 2934 1681 2904 1628 
Q 2875 1575 2819 1575 
L 356 1575 
Q 297 1575 267 1628 
Q 238 1681 238 1797 
Q 238 1909 267 1964 
Q 297 2019 356 2019 
L 2819 2019 
Q 2875 2019 2904 1966 
Q 2934 1913 2934 1797 
z
" transform="scale(0.015625)"/>
        <path id="Calibri-33" d="M 2856 1156 
Q 2856 878 2759 654 
Q 2663 431 2481 272 
Q 2300 113 2034 27 
Q 1769 -59 1434 -59 
Q 1231 -59 1054 -26 
Q 878 6 740 51 
Q 603 97 512 145 
Q 422 194 398 216 
Q 375 238 362 259 
Q 350 281 340 312 
Q 331 344 326 389 
Q 322 434 322 500 
Q 322 613 344 656 
Q 366 700 406 700 
Q 434 700 517 650 
Q 600 600 729 542 
Q 859 484 1032 434 
Q 1206 384 1419 384 
Q 1625 384 1781 437 
Q 1938 491 2044 587 
Q 2150 684 2203 817 
Q 2256 950 2256 1106 
Q 2256 1278 2189 1415 
Q 2122 1553 1992 1653 
Q 1863 1753 1673 1806 
Q 1484 1859 1244 1859 
L 859 1859 
Q 834 1859 811 1870 
Q 788 1881 770 1906 
Q 753 1931 742 1972 
Q 731 2013 731 2078 
Q 731 2138 740 2177 
Q 750 2216 767 2239 
Q 784 2263 806 2273 
Q 828 2284 856 2284 
L 1209 2284 
Q 1416 2284 1580 2337 
Q 1744 2391 1858 2491 
Q 1972 2591 2033 2730 
Q 2094 2869 2094 3041 
Q 2094 3166 2053 3280 
Q 2013 3394 1931 3478 
Q 1850 3563 1723 3611 
Q 1597 3659 1431 3659 
Q 1250 3659 1098 3604 
Q 947 3550 828 3487 
Q 709 3425 631 3370 
Q 553 3316 522 3316 
Q 500 3316 483 3323 
Q 466 3331 455 3354 
Q 444 3378 439 3420 
Q 434 3463 434 3531 
Q 434 3578 437 3614 
Q 441 3650 450 3676 
Q 459 3703 471 3725 
Q 484 3747 514 3776 
Q 544 3806 634 3862 
Q 725 3919 858 3973 
Q 991 4028 1164 4065 
Q 1338 4103 1538 4103 
Q 1819 4103 2031 4031 
Q 2244 3959 2386 3828 
Q 2528 3697 2598 3514 
Q 2669 3331 2669 3109 
Q 2669 2919 2619 2755 
Q 2569 2591 2472 2464 
Q 2375 2338 2234 2248 
Q 2094 2159 1909 2125 
L 1909 2119 
Q 2119 2097 2292 2014 
Q 2466 1931 2591 1806 
Q 2716 1681 2786 1514 
Q 2856 1347 2856 1156 
z
" transform="scale(0.015625)"/>
       </defs>
       <use xlink:href="#Calibri-31" transform="translate(0 0.442188)"/>
       <use xlink:href="#Calibri-30" transform="translate(50.683594 0.442188)"/>
       <use xlink:href="#Calibri-2212" transform="translate(102.184219 33.123438) scale(0.7)"/>
       <use xlink:href="#Calibri-33" transform="translate(137.0475 33.123438) scale(0.7)"/>
      </g>
     </g>
    </g>
    <g id="ytick_2">
     <g id="line2d_30">
      <g>
       <use xlink:href="#m51018af2a2" x="40.56899" y="83.814044" style="stroke: #000000; stroke-width: 0.8"/>
      </g>
     </g>
     <g id="text_6">
      <!-- $\mathdefault{10^{-1}}$ -->
      <g transform="translate(16.06899 87.214825) scale(0.1 -0.1)">
       <use xlink:href="#Calibri-31" transform="translate(0 0.78125)"/>
       <use xlink:href="#Calibri-30" transform="translate(50.683594 0.78125)"/>
       <use xlink:href="#Calibri-2212" transform="translate(102.184219 33.4625) scale(0.7)"/>
       <use xlink:href="#Calibri-31" transform="translate(137.0475 33.4625) scale(0.7)"/>
      </g>
     </g>
    </g>
    <g id="ytick_3">
     <g id="line2d_31">
      <g>
       <use xlink:href="#m51018af2a2" x="40.56899" y="46.394398" style="stroke: #000000; stroke-width: 0.8"/>
      </g>
     </g>
     <g id="text_7">
      <!-- $\mathdefault{10^{1}}$ -->
      <g transform="translate(19.56899 49.79518) scale(0.1 -0.1)">
       <use xlink:href="#Calibri-31" transform="translate(0 0.78125)"/>
       <use xlink:href="#Calibri-30" transform="translate(50.683594 0.78125)"/>
       <use xlink:href="#Calibri-31" transform="translate(102.184219 33.4625) scale(0.7)"/>
      </g>
     </g>
    </g>
    <g id="ytick_4">
     <g id="line2d_32">
      <g>
       <use xlink:href="#m51018af2a2" x="40.56899" y="8.974753" style="stroke: #000000; stroke-width: 0.8"/>
      </g>
     </g>
     <g id="text_8">
      <!-- $\mathdefault{10^{3}}$ -->
      <g transform="translate(19.56899 12.375534) scale(0.1 -0.1)">
       <use xlink:href="#Calibri-31" transform="translate(0 0.442188)"/>
       <use xlink:href="#Calibri-30" transform="translate(50.683594 0.442188)"/>
       <use xlink:href="#Calibri-33" transform="translate(102.184219 33.123438) scale(0.7)"/>
      </g>
     </g>
    </g>
    <g id="text_9">
     <!-- $\mathdefault{MSE_f}$ -->
     <g transform="translate(9.939303 87.680112) rotate(-90) scale(0.1 -0.1)">
      <defs>
       <path id="LiberationSerif-4d" d="M 2694 0 
L 2584 0 
L 1050 3603 
L 1050 250 
L 1613 166 
L 1613 0 
L 184 0 
L 184 166 
L 722 250 
L 722 3944 
L 184 4025 
L 184 4191 
L 1453 4191 
L 2816 1003 
L 4303 4191 
L 5503 4191 
L 5503 4025 
L 4966 3944 
L 4966 250 
L 5503 166 
L 5503 0 
L 3803 0 
L 3803 166 
L 4366 250 
L 4366 3603 
L 2694 0 
z
" transform="scale(0.015625)"/>
       <path id="LiberationSerif-53" d="M 434 1128 
L 638 1128 
L 747 563 
Q 863 416 1145 303 
Q 1428 191 1703 191 
Q 2141 191 2386 414 
Q 2631 638 2631 1031 
Q 2631 1256 2536 1403 
Q 2441 1550 2286 1651 
Q 2131 1753 1934 1823 
Q 1738 1894 1530 1966 
Q 1322 2038 1125 2125 
Q 928 2213 773 2347 
Q 619 2481 523 2679 
Q 428 2878 428 3169 
Q 428 3669 803 3953 
Q 1178 4238 1844 4238 
Q 2350 4238 2944 4103 
L 2944 3231 
L 2741 3231 
L 2631 3744 
Q 2313 3975 1844 3975 
Q 1425 3975 1189 3804 
Q 953 3634 953 3334 
Q 953 3131 1048 2997 
Q 1144 2863 1298 2767 
Q 1453 2672 1651 2603 
Q 1850 2534 2058 2461 
Q 2266 2388 2464 2295 
Q 2663 2203 2817 2061 
Q 2972 1919 3067 1714 
Q 3163 1509 3163 1209 
Q 3163 603 2791 270 
Q 2419 -63 1719 -63 
Q 1381 -63 1040 -3 
Q 700 56 434 159 
L 434 1128 
z
" transform="scale(0.015625)"/>
       <path id="LiberationSerif-45" d="M 184 166 
L 722 250 
L 722 3944 
L 184 4025 
L 184 4191 
L 3328 4191 
L 3328 3188 
L 3122 3188 
L 3022 3866 
Q 2672 3909 2009 3909 
L 1325 3909 
L 1325 2272 
L 2456 2272 
L 2553 2772 
L 2753 2772 
L 2753 1484 
L 2553 1484 
L 2456 1991 
L 1325 1991 
L 1325 281 
L 2150 281 
Q 2956 281 3206 331 
L 3384 1106 
L 3591 1106 
L 3531 0 
L 184 0 
L 184 166 
z
" transform="scale(0.015625)"/>
       <path id="LiberationSerif-66" d="M 703 2675 
L 197 2675 
L 197 2828 
L 703 2950 
L 703 3156 
Q 703 3806 961 4156 
Q 1219 4506 1684 4506 
Q 1925 4506 2131 4447 
L 2131 3806 
L 1978 3806 
L 1838 4191 
Q 1731 4256 1581 4256 
Q 1384 4256 1303 4081 
Q 1222 3906 1222 3425 
L 1222 2938 
L 2003 2938 
L 2003 2675 
L 1222 2675 
L 1222 244 
L 1856 141 
L 1856 0 
L 269 0 
L 269 141 
L 703 244 
L 703 2675 
z
" transform="scale(0.015625)"/>
      </defs>
      <use xlink:href="#LiberationSerif-4d" transform="translate(0 0.78125)"/>
      <use xlink:href="#LiberationSerif-53" transform="translate(88.916016 0.78125)"/>
      <use xlink:href="#LiberationSerif-45" transform="translate(144.53125 0.78125)"/>
      <use xlink:href="#LiberationSerif-66" transform="translate(206.418594 -12.990625) scale(0.7)"/>
     </g>
    </g>
   </g>
   <g id="line2d_33">
    <path d="M 40.56899 4.432198 
L 41.592513 7.392345 
L 42.090646 13.684659 
L 42.580116 12.399211 
L 43.999431 37.322585 
L 44.457064 30.071057 
L 45.350593 37.676044 
L 45.786939 48.981713 
L 46.216624 42.807157 
L 46.639847 42.489471 
L 47.056799 49.641235 
L 47.467665 44.613797 
L 48.271828 43.730317 
L 48.665454 46.404968 
L 49.05365 52.937083 
L 49.436565 52.479407 
L 49.814339 55.093702 
L 50.18711 63.232757 
L 50.555008 58.831617 
L 51.276683 64.638422 
L 51.630698 60.749658 
L 51.980314 61.979273 
L 52.325641 65.412258 
L 52.666782 62.659683 
L 53.003838 71.605203 
L 53.666075 71.354125 
L 53.991441 70.380332 
L 54.313087 79.744958 
L 54.6311 76.717305 
L 54.945559 77.206735 
L 55.256543 82.580075 
L 55.564128 78.740982 
L 56.169394 83.294712 
L 56.467215 86.663625 
L 56.761917 82.092395 
L 57.342222 90.477598 
L 57.627948 88.282402 
L 57.910803 91.582673 
L 58.468124 94.586635 
L 58.742699 90.244799 
L 59.014622 91.864414 
L 59.283943 95.94182 
L 59.814973 94.16633 
L 60.076778 97.338428 
L 60.593192 98.983791 
L 60.847889 99.409989 
L 61.35047 102.347042 
L 61.598435 101.137755 
L 61.844233 100.974967 
L 62.329483 102.48334 
L 62.569006 103.778732 
L 63.042022 104.809611 
L 63.275582 104.575116 
L 63.507219 105.88295 
L 63.736966 106.147666 
L 64.190908 106.310478 
L 65.294727 108.078451 
L 65.724412 108.400233 
L 66.147635 109.198498 
L 66.356883 109.248536 
L 66.77077 109.794417 
L 66.975453 110.133413 
L 67.580719 110.504508 
L 67.779616 110.832143 
L 67.977117 110.923008 
L 68.368009 111.47106 
L 69.694898 112.66114 
L 70.244957 113.308704 
L 70.425947 113.507201 
L 70.962035 113.759103 
L 71.661296 114.420028 
L 71.833429 114.497684 
L 72.004517 114.437612 
L 72.343603 114.164138 
L 72.511626 113.472738 
L 73.173863 114.871465 
L 74.609268 116.381205 
L 74.764331 116.502854 
L 75.376177 116.751757 
L 76.12274 117.144929 
L 76.561353 117.313701 
L 78.386777 118.3217 
L 78.925431 118.557908 
L 80.733452 119.584679 
L 81.352021 119.902574 
L 82.666832 120.668751 
L 83.244754 120.977745 
L 84.585188 121.803298 
L 85.125392 122.096127 
L 85.968715 122.610847 
L 87.188131 123.40081 
L 87.68103 123.680341 
L 88.452141 124.170275 
L 88.923572 124.447876 
L 89.752745 124.997026 
L 90.203055 125.25946 
L 90.995891 125.792679 
L 91.426891 126.051666 
L 94.194695 127.926818 
L 94.579704 128.150222 
L 95.334275 128.681108 
L 96.785307 129.551006 
L 97.13667 129.610019 
L 97.275996 129.555531 
L 97.689882 130.06442 
L 97.962464 130.17844 
L 98.23243 130.33881 
L 102.580408 131.994052 
L 103.928872 132.530693 
L 104.579624 132.779201 
L 105.058 132.98708 
L 105.631851 133.211054 
L 110.198002 135.212677 
L 110.934679 135.555736 
L 111.48529 135.786264 
L 118.632697 139.0154 
L 119.084557 139.124862 
L 122.488216 140.017794 
L 130.119837 142.56217 
L 130.421073 142.696741 
L 130.591772 142.747069 
L 131.097741 142.966865 
L 131.222825 143.015341 
L 133.093733 143.793824 
L 133.24901 143.904199 
L 133.326328 143.902876 
L 133.518699 144.022803 
L 133.537864 143.951965 
L 133.576155 144.068573 
L 133.614394 144.02146 
L 133.785828 144.139077 
L 133.880621 144.124112 
L 133.899541 144.188249 
L 134.237947 144.309714 
L 134.349851 144.371134 
L 134.738047 144.552497 
L 135.066578 144.592716 
L 135.747798 144.595596 
L 191.39728 144.704354 
L 191.544015 144.707274 
L 195.224543 144.817548 
L 195.429257 144.824953 
L 195.619833 144.824953 
L 195.748272 144.841268 
L 195.861484 144.833848 
L 195.863576 144.836815 
L 198.818149 144.947369 
L 198.947822 144.945865 
L 201.762853 145.054874 
L 201.891495 145.057923 
L 204.562368 145.168456 
L 204.718595 145.174641 
L 204.72165 145.171548 
L 204.943747 145.18083 
L 205.070739 145.188574 
L 205.192655 145.191674 
L 207.556626 145.302482 
L 207.709488 145.30877 
L 207.82325 145.310343 
L 207.977396 145.322936 
L 208.096856 145.322936 
L 208.21851 145.333971 
L 208.219859 145.332393 
L 208.338297 145.337126 
L 208.461588 145.345021 
L 210.630336 145.454752 
L 210.842473 145.461159 
L 210.952841 145.461159 
L 210.84493 145.464364 
L 210.95896 145.467571 
L 211.177144 145.478804 
L 211.291048 145.48041 
L 211.293466 145.482016 
L 211.439398 145.496488 
L 211.541462 145.498097 
L 211.552247 145.502927 
L 213.646911 145.611562 
L 213.766771 145.619728 
L 213.880609 145.626266 
L 215.721705 145.733259 
L 215.827917 145.743206 
L 215.83615 145.739889 
L 217.621173 145.848399 
L 217.62407 145.846718 
L 217.737782 145.856806 
L 217.862529 145.861854 
L 217.99435 145.870275 
L 217.996256 145.871961 
L 218.11607 145.878705 
L 218.247656 145.887144 
L 219.782283 145.997651 
L 219.786755 145.992518 
L 219.908103 146.001076 
L 220.02361 146.001076 
L 219.916115 146.009642 
L 220.027157 146.009642 
L 220.152771 146.023368 
L 220.031589 146.004501 
L 220.154536 146.014787 
L 220.265523 146.019934 
L 220.158949 146.019934 
L 220.272555 146.026803 
L 221.831655 146.137498 
L 221.960247 146.149697 
L 223.490571 146.260323 
L 223.493707 146.25502 
L 223.614941 146.267398 
L 223.727882 146.274479 
L 223.617282 146.269167 
L 223.730991 146.27625 
L 223.8574 146.288659 
L 223.963979 146.288659 
L 223.968604 146.290434 
L 224.082441 146.304642 
L 224.083976 146.302865 
L 224.170578 146.299311 
L 224.091651 146.30642 
L 224.198877 146.315315 
L 225.569978 146.421018 
L 225.676805 146.433651 
L 225.57289 146.419215 
L 225.682607 146.43004 
L 225.79551 146.437264 
L 225.690583 146.433651 
L 225.798399 146.439071 
L 227.034709 146.546407 
L 227.139572 146.562906 
L 227.036783 146.542745 
L 227.147834 146.555569 
L 227.257077 146.570249 
L 227.15334 146.55007 
L 227.261876 146.564741 
L 227.40617 146.579438 
L 227.408217 146.577599 
L 227.538189 146.586796 
L 227.540226 146.584956 
L 227.660806 146.59969 
L 227.78962 146.605222 
L 227.790292 146.608912 
L 227.909808 146.618144 
L 227.791638 146.607066 
L 227.911148 146.616297 
L 229.103548 146.726016 
L 229.20931 146.735382 
L 229.113179 146.722272 
L 229.216347 146.733508 
L 229.32296 146.741007 
L 229.228497 146.741007 
L 229.327421 146.742883 
L 229.450747 146.752269 
L 229.333154 146.748514 
L 229.451381 146.757906 
L 230.65213 146.867662 
L 230.771008 146.884827 
L 230.66003 146.863852 
L 230.772824 146.881009 
L 231.877155 146.98665 
L 231.989242 146.998258 
L 231.99156 147.004068 
L 232.102038 147.006006 
L 232.223007 147.025408 
L 232.331437 147.029294 
L 232.334873 147.037071 
L 233.484743 147.144774 
L 233.495184 147.140832 
L 233.599377 147.164511 
L 233.695005 147.164511 
L 233.710275 147.170441 
L 234.785897 147.279938 
L 234.902157 147.295989 
L 234.790095 147.273928 
L 234.903725 147.291973 
L 235.008569 147.300006 
L 234.920965 147.300006 
L 235.014295 147.308048 
L 236.024021 147.415351 
L 236.130785 147.429629 
L 236.02854 147.413313 
L 236.137288 147.427588 
L 236.239139 147.431671 
L 236.141789 147.431671 
L 236.249104 147.435757 
L 236.367425 147.452118 
L 237.397113 147.561354 
L 237.510714 147.577971 
L 237.401417 147.557205 
L 237.512143 147.569658 
L 237.945111 147.625934 
L 237.945111 147.625934 
" clip-path="url(#p180ef4d1c6)" style="fill: none; stroke: #1f77b4; stroke-linecap: square"/>
   </g>
   <g id="patch_3">
    <path d="M 40.56899 149.059984 
L 40.56899 3.00024 
" style="fill: none; stroke: #000000; stroke-width: 0.8; stroke-linejoin: miter; stroke-linecap: square"/>
   </g>
   <g id="patch_4">
    <path d="M 237.944642 149.059984 
L 237.944642 3.00024 
" style="fill: none; stroke: #000000; stroke-width: 0.8; stroke-linejoin: miter; stroke-linecap: square"/>
   </g>
   <g id="patch_5">
    <path d="M 40.56899 149.059984 
L 237.944642 149.059984 
" style="fill: none; stroke: #000000; stroke-width: 0.8; stroke-linejoin: miter; stroke-linecap: square"/>
   </g>
   <g id="patch_6">
    <path d="M 40.56899 3.00024 
L 237.944642 3.00024 
" style="fill: none; stroke: #000000; stroke-width: 0.8; stroke-linejoin: miter; stroke-linecap: square"/>
   </g>
  </g>
  <g id="axes_2">
   <g id="patch_7">
    <path d="M 281.513872 149.059984 
L 478.889524 149.059984 
L 478.889524 3.00024 
L 281.513872 3.00024 
z
" style="fill: #ffffff"/>
   </g>
   <g id="matplotlib.axis_3">
    <g id="xtick_29">
     <g id="line2d_34">
      <g>
       <use xlink:href="#m1c06c1d3a1" x="298.855685" y="149.059984" style="stroke: #000000; stroke-width: 0.8"/>
      </g>
     </g>
     <g id="text_10">
      <!-- $\mathdefault{10^{0}}$ -->
      <g transform="translate(291.855685 162.861546) scale(0.1 -0.1)">
       <use xlink:href="#Calibri-31" transform="translate(0 0.442188)"/>
       <use xlink:href="#Calibri-30" transform="translate(50.683594 0.442188)"/>
       <use xlink:href="#Calibri-30" transform="translate(102.184219 33.123438) scale(0.7)"/>
      </g>
     </g>
    </g>
    <g id="xtick_30">
     <g id="line2d_35">
      <g>
       <use xlink:href="#m1c06c1d3a1" x="363.659154" y="149.059984" style="stroke: #000000; stroke-width: 0.8"/>
      </g>
     </g>
     <g id="text_11">
      <!-- $\mathdefault{10^{1}}$ -->
      <g transform="translate(356.659154 162.861546) scale(0.1 -0.1)">
       <use xlink:href="#Calibri-31" transform="translate(0 0.78125)"/>
       <use xlink:href="#Calibri-30" transform="translate(50.683594 0.78125)"/>
       <use xlink:href="#Calibri-31" transform="translate(102.184219 33.4625) scale(0.7)"/>
      </g>
     </g>
    </g>
    <g id="xtick_31">
     <g id="line2d_36">
      <g>
       <use xlink:href="#m1c06c1d3a1" x="428.462623" y="149.059984" style="stroke: #000000; stroke-width: 0.8"/>
      </g>
     </g>
     <g id="text_12">
      <!-- $\mathdefault{10^{2}}$ -->
      <g transform="translate(421.462623 162.861546) scale(0.1 -0.1)">
       <use xlink:href="#Calibri-31" transform="translate(0 0.442188)"/>
       <use xlink:href="#Calibri-30" transform="translate(50.683594 0.442188)"/>
       <use xlink:href="#Calibri-32" transform="translate(102.184219 33.123438) scale(0.7)"/>
      </g>
     </g>
    </g>
    <g id="xtick_32">
     <g id="line2d_37">
      <g>
       <use xlink:href="#m76aede05cc" x="284.479116" y="149.059984" style="stroke: #000000; stroke-width: 0.6"/>
      </g>
     </g>
    </g>
    <g id="xtick_33">
     <g id="line2d_38">
      <g>
       <use xlink:href="#m76aede05cc" x="288.8175" y="149.059984" style="stroke: #000000; stroke-width: 0.6"/>
      </g>
     </g>
    </g>
    <g id="xtick_34">
     <g id="line2d_39">
      <g>
       <use xlink:href="#m76aede05cc" x="292.57558" y="149.059984" style="stroke: #000000; stroke-width: 0.6"/>
      </g>
     </g>
    </g>
    <g id="xtick_35">
     <g id="line2d_40">
      <g>
       <use xlink:href="#m76aede05cc" x="295.890441" y="149.059984" style="stroke: #000000; stroke-width: 0.6"/>
      </g>
     </g>
    </g>
    <g id="xtick_36">
     <g id="line2d_41">
      <g>
       <use xlink:href="#m76aede05cc" x="318.363473" y="149.059984" style="stroke: #000000; stroke-width: 0.6"/>
      </g>
     </g>
    </g>
    <g id="xtick_37">
     <g id="line2d_42">
      <g>
       <use xlink:href="#m76aede05cc" x="329.774797" y="149.059984" style="stroke: #000000; stroke-width: 0.6"/>
      </g>
     </g>
    </g>
    <g id="xtick_38">
     <g id="line2d_43">
      <g>
       <use xlink:href="#m76aede05cc" x="337.871261" y="149.059984" style="stroke: #000000; stroke-width: 0.6"/>
      </g>
     </g>
    </g>
    <g id="xtick_39">
     <g id="line2d_44">
      <g>
       <use xlink:href="#m76aede05cc" x="344.151366" y="149.059984" style="stroke: #000000; stroke-width: 0.6"/>
      </g>
     </g>
    </g>
    <g id="xtick_40">
     <g id="line2d_45">
      <g>
       <use xlink:href="#m76aede05cc" x="349.282585" y="149.059984" style="stroke: #000000; stroke-width: 0.6"/>
      </g>
     </g>
    </g>
    <g id="xtick_41">
     <g id="line2d_46">
      <g>
       <use xlink:href="#m76aede05cc" x="353.620969" y="149.059984" style="stroke: #000000; stroke-width: 0.6"/>
      </g>
     </g>
    </g>
    <g id="xtick_42">
     <g id="line2d_47">
      <g>
       <use xlink:href="#m76aede05cc" x="357.379049" y="149.059984" style="stroke: #000000; stroke-width: 0.6"/>
      </g>
     </g>
    </g>
    <g id="xtick_43">
     <g id="line2d_48">
      <g>
       <use xlink:href="#m76aede05cc" x="360.69391" y="149.059984" style="stroke: #000000; stroke-width: 0.6"/>
      </g>
     </g>
    </g>
    <g id="xtick_44">
     <g id="line2d_49">
      <g>
       <use xlink:href="#m76aede05cc" x="383.166942" y="149.059984" style="stroke: #000000; stroke-width: 0.6"/>
      </g>
     </g>
    </g>
    <g id="xtick_45">
     <g id="line2d_50">
      <g>
       <use xlink:href="#m76aede05cc" x="394.578266" y="149.059984" style="stroke: #000000; stroke-width: 0.6"/>
      </g>
     </g>
    </g>
    <g id="xtick_46">
     <g id="line2d_51">
      <g>
       <use xlink:href="#m76aede05cc" x="402.67473" y="149.059984" style="stroke: #000000; stroke-width: 0.6"/>
      </g>
     </g>
    </g>
    <g id="xtick_47">
     <g id="line2d_52">
      <g>
       <use xlink:href="#m76aede05cc" x="408.954835" y="149.059984" style="stroke: #000000; stroke-width: 0.6"/>
      </g>
     </g>
    </g>
    <g id="xtick_48">
     <g id="line2d_53">
      <g>
       <use xlink:href="#m76aede05cc" x="414.086055" y="149.059984" style="stroke: #000000; stroke-width: 0.6"/>
      </g>
     </g>
    </g>
    <g id="xtick_49">
     <g id="line2d_54">
      <g>
       <use xlink:href="#m76aede05cc" x="418.424439" y="149.059984" style="stroke: #000000; stroke-width: 0.6"/>
      </g>
     </g>
    </g>
    <g id="xtick_50">
     <g id="line2d_55">
      <g>
       <use xlink:href="#m76aede05cc" x="422.182518" y="149.059984" style="stroke: #000000; stroke-width: 0.6"/>
      </g>
     </g>
    </g>
    <g id="xtick_51">
     <g id="line2d_56">
      <g>
       <use xlink:href="#m76aede05cc" x="425.497379" y="149.059984" style="stroke: #000000; stroke-width: 0.6"/>
      </g>
     </g>
    </g>
    <g id="xtick_52">
     <g id="line2d_57">
      <g>
       <use xlink:href="#m76aede05cc" x="447.970411" y="149.059984" style="stroke: #000000; stroke-width: 0.6"/>
      </g>
     </g>
    </g>
    <g id="xtick_53">
     <g id="line2d_58">
      <g>
       <use xlink:href="#m76aede05cc" x="459.381736" y="149.059984" style="stroke: #000000; stroke-width: 0.6"/>
      </g>
     </g>
    </g>
    <g id="xtick_54">
     <g id="line2d_59">
      <g>
       <use xlink:href="#m76aede05cc" x="467.478199" y="149.059984" style="stroke: #000000; stroke-width: 0.6"/>
      </g>
     </g>
    </g>
    <g id="xtick_55">
     <g id="line2d_60">
      <g>
       <use xlink:href="#m76aede05cc" x="473.758304" y="149.059984" style="stroke: #000000; stroke-width: 0.6"/>
      </g>
     </g>
    </g>
    <g id="xtick_56">
     <g id="line2d_61">
      <g>
       <use xlink:href="#m76aede05cc" x="478.889524" y="149.059984" style="stroke: #000000; stroke-width: 0.6"/>
      </g>
     </g>
    </g>
    <g id="text_13">
     <!-- time [sec] -->
     <g transform="translate(360.350135 175.578734) scale(0.1 -0.1)">
      <use xlink:href="#LiberationSerif-74"/>
      <use xlink:href="#LiberationSerif-69" x="27.783203"/>
      <use xlink:href="#LiberationSerif-6d" x="55.566406"/>
      <use xlink:href="#LiberationSerif-65" x="133.349609"/>
      <use xlink:href="#LiberationSerif-20" x="177.734375"/>
      <use xlink:href="#LiberationSerif-5b" x="202.734375"/>
      <use xlink:href="#LiberationSerif-73" x="236.035156"/>
      <use xlink:href="#LiberationSerif-65" x="274.951172"/>
      <use xlink:href="#LiberationSerif-63" x="319.335938"/>
      <use xlink:href="#LiberationSerif-5d" x="363.720703"/>
     </g>
    </g>
   </g>
   <g id="matplotlib.axis_4">
    <g id="ytick_5">
     <g id="line2d_62">
      <g>
       <use xlink:href="#m51018af2a2" x="281.513872" y="118.653117" style="stroke: #000000; stroke-width: 0.8"/>
      </g>
     </g>
     <g id="text_14">
      <!-- $\mathdefault{10^{-4}}$ -->
      <g transform="translate(257.013872 122.053898) scale(0.1 -0.1)">
       <defs>
        <path id="Calibri-34" d="M 3059 1150 
Q 3059 1047 3028 987 
Q 2997 928 2941 928 
L 2484 928 
L 2484 78 
Q 2484 53 2471 36 
Q 2459 19 2428 6 
Q 2397 -6 2347 -12 
Q 2297 -19 2219 -19 
Q 2144 -19 2094 -12 
Q 2044 -6 2014 6 
Q 1984 19 1973 36 
Q 1963 53 1963 78 
L 1963 928 
L 294 928 
Q 256 928 231 937 
Q 206 947 186 972 
Q 166 997 158 1044 
Q 150 1091 150 1166 
Q 150 1225 153 1272 
Q 156 1319 165 1358 
Q 175 1397 190 1433 
Q 206 1469 228 1509 
L 1684 3966 
Q 1700 3991 1729 4009 
Q 1759 4028 1806 4040 
Q 1853 4053 1922 4058 
Q 1991 4063 2084 4063 
Q 2188 4063 2264 4055 
Q 2341 4047 2387 4034 
Q 2434 4022 2459 4001 
Q 2484 3981 2484 3953 
L 2484 1372 
L 2941 1372 
Q 2994 1372 3026 1317 
Q 3059 1263 3059 1150 
z
M 1963 3591 
L 1956 3591 
L 641 1372 
L 1963 1372 
L 1963 3591 
z
" transform="scale(0.015625)"/>
       </defs>
       <use xlink:href="#Calibri-31" transform="translate(0 0.879688)"/>
       <use xlink:href="#Calibri-30" transform="translate(50.683594 0.879688)"/>
       <use xlink:href="#Calibri-2212" transform="translate(102.184219 33.560938) scale(0.7)"/>
       <use xlink:href="#Calibri-34" transform="translate(137.0475 33.560938) scale(0.7)"/>
      </g>
     </g>
    </g>
    <g id="ytick_6">
     <g id="line2d_63">
      <g>
       <use xlink:href="#m51018af2a2" x="281.513872" y="88.12859" style="stroke: #000000; stroke-width: 0.8"/>
      </g>
     </g>
     <g id="text_15">
      <!-- $\mathdefault{10^{-3}}$ -->
      <g transform="translate(257.013872 91.529372) scale(0.1 -0.1)">
       <use xlink:href="#Calibri-31" transform="translate(0 0.442188)"/>
       <use xlink:href="#Calibri-30" transform="translate(50.683594 0.442188)"/>
       <use xlink:href="#Calibri-2212" transform="translate(102.184219 33.123438) scale(0.7)"/>
       <use xlink:href="#Calibri-33" transform="translate(137.0475 33.123438) scale(0.7)"/>
      </g>
     </g>
    </g>
    <g id="ytick_7">
     <g id="line2d_64">
      <g>
       <use xlink:href="#m51018af2a2" x="281.513872" y="57.604064" style="stroke: #000000; stroke-width: 0.8"/>
      </g>
     </g>
     <g id="text_16">
      <!-- $\mathdefault{10^{-2}}$ -->
      <g transform="translate(257.013872 61.004845) scale(0.1 -0.1)">
       <use xlink:href="#Calibri-31" transform="translate(0 0.442188)"/>
       <use xlink:href="#Calibri-30" transform="translate(50.683594 0.442188)"/>
       <use xlink:href="#Calibri-2212" transform="translate(102.184219 33.123438) scale(0.7)"/>
       <use xlink:href="#Calibri-32" transform="translate(137.0475 33.123438) scale(0.7)"/>
      </g>
     </g>
    </g>
    <g id="ytick_8">
     <g id="line2d_65">
      <g>
       <use xlink:href="#m51018af2a2" x="281.513872" y="27.079537" style="stroke: #000000; stroke-width: 0.8"/>
      </g>
     </g>
     <g id="text_17">
      <!-- $\mathdefault{10^{-1}}$ -->
      <g transform="translate(257.013872 30.480319) scale(0.1 -0.1)">
       <use xlink:href="#Calibri-31" transform="translate(0 0.78125)"/>
       <use xlink:href="#Calibri-30" transform="translate(50.683594 0.78125)"/>
       <use xlink:href="#Calibri-2212" transform="translate(102.184219 33.4625) scale(0.7)"/>
       <use xlink:href="#Calibri-31" transform="translate(137.0475 33.4625) scale(0.7)"/>
      </g>
     </g>
    </g>
    <g id="ytick_9">
     <g id="line2d_66">
      <defs>
       <path id="m711848de46" d="M 0 0 
L -2 0 
" style="stroke: #000000; stroke-width: 0.6"/>
      </defs>
      <g>
       <use xlink:href="#m711848de46" x="281.513872" y="139.988845" style="stroke: #000000; stroke-width: 0.6"/>
      </g>
     </g>
    </g>
    <g id="ytick_10">
     <g id="line2d_67">
      <g>
       <use xlink:href="#m711848de46" x="281.513872" y="134.613743" style="stroke: #000000; stroke-width: 0.6"/>
      </g>
     </g>
    </g>
    <g id="ytick_11">
     <g id="line2d_68">
      <g>
       <use xlink:href="#m711848de46" x="281.513872" y="130.800047" style="stroke: #000000; stroke-width: 0.6"/>
      </g>
     </g>
    </g>
    <g id="ytick_12">
     <g id="line2d_69">
      <g>
       <use xlink:href="#m711848de46" x="281.513872" y="127.841915" style="stroke: #000000; stroke-width: 0.6"/>
      </g>
     </g>
    </g>
    <g id="ytick_13">
     <g id="line2d_70">
      <g>
       <use xlink:href="#m711848de46" x="281.513872" y="125.424945" style="stroke: #000000; stroke-width: 0.6"/>
      </g>
     </g>
    </g>
    <g id="ytick_14">
     <g id="line2d_71">
      <g>
       <use xlink:href="#m711848de46" x="281.513872" y="123.381426" style="stroke: #000000; stroke-width: 0.6"/>
      </g>
     </g>
    </g>
    <g id="ytick_15">
     <g id="line2d_72">
      <g>
       <use xlink:href="#m711848de46" x="281.513872" y="121.611249" style="stroke: #000000; stroke-width: 0.6"/>
      </g>
     </g>
    </g>
    <g id="ytick_16">
     <g id="line2d_73">
      <g>
       <use xlink:href="#m711848de46" x="281.513872" y="120.049843" style="stroke: #000000; stroke-width: 0.6"/>
      </g>
     </g>
    </g>
    <g id="ytick_17">
     <g id="line2d_74">
      <g>
       <use xlink:href="#m711848de46" x="281.513872" y="109.464319" style="stroke: #000000; stroke-width: 0.6"/>
      </g>
     </g>
    </g>
    <g id="ytick_18">
     <g id="line2d_75">
      <g>
       <use xlink:href="#m711848de46" x="281.513872" y="104.089216" style="stroke: #000000; stroke-width: 0.6"/>
      </g>
     </g>
    </g>
    <g id="ytick_19">
     <g id="line2d_76">
      <g>
       <use xlink:href="#m711848de46" x="281.513872" y="100.275521" style="stroke: #000000; stroke-width: 0.6"/>
      </g>
     </g>
    </g>
    <g id="ytick_20">
     <g id="line2d_77">
      <g>
       <use xlink:href="#m711848de46" x="281.513872" y="97.317388" style="stroke: #000000; stroke-width: 0.6"/>
      </g>
     </g>
    </g>
    <g id="ytick_21">
     <g id="line2d_78">
      <g>
       <use xlink:href="#m711848de46" x="281.513872" y="94.900418" style="stroke: #000000; stroke-width: 0.6"/>
      </g>
     </g>
    </g>
    <g id="ytick_22">
     <g id="line2d_79">
      <g>
       <use xlink:href="#m711848de46" x="281.513872" y="92.856899" style="stroke: #000000; stroke-width: 0.6"/>
      </g>
     </g>
    </g>
    <g id="ytick_23">
     <g id="line2d_80">
      <g>
       <use xlink:href="#m711848de46" x="281.513872" y="91.086723" style="stroke: #000000; stroke-width: 0.6"/>
      </g>
     </g>
    </g>
    <g id="ytick_24">
     <g id="line2d_81">
      <g>
       <use xlink:href="#m711848de46" x="281.513872" y="89.525316" style="stroke: #000000; stroke-width: 0.6"/>
      </g>
     </g>
    </g>
    <g id="ytick_25">
     <g id="line2d_82">
      <g>
       <use xlink:href="#m711848de46" x="281.513872" y="78.939792" style="stroke: #000000; stroke-width: 0.6"/>
      </g>
     </g>
    </g>
    <g id="ytick_26">
     <g id="line2d_83">
      <g>
       <use xlink:href="#m711848de46" x="281.513872" y="73.56469" style="stroke: #000000; stroke-width: 0.6"/>
      </g>
     </g>
    </g>
    <g id="ytick_27">
     <g id="line2d_84">
      <g>
       <use xlink:href="#m711848de46" x="281.513872" y="69.750994" style="stroke: #000000; stroke-width: 0.6"/>
      </g>
     </g>
    </g>
    <g id="ytick_28">
     <g id="line2d_85">
      <g>
       <use xlink:href="#m711848de46" x="281.513872" y="66.792862" style="stroke: #000000; stroke-width: 0.6"/>
      </g>
     </g>
    </g>
    <g id="ytick_29">
     <g id="line2d_86">
      <g>
       <use xlink:href="#m711848de46" x="281.513872" y="64.375892" style="stroke: #000000; stroke-width: 0.6"/>
      </g>
     </g>
    </g>
    <g id="ytick_30">
     <g id="line2d_87">
      <g>
       <use xlink:href="#m711848de46" x="281.513872" y="62.332373" style="stroke: #000000; stroke-width: 0.6"/>
      </g>
     </g>
    </g>
    <g id="ytick_31">
     <g id="line2d_88">
      <g>
       <use xlink:href="#m711848de46" x="281.513872" y="60.562196" style="stroke: #000000; stroke-width: 0.6"/>
      </g>
     </g>
    </g>
    <g id="ytick_32">
     <g id="line2d_89">
      <g>
       <use xlink:href="#m711848de46" x="281.513872" y="59.00079" style="stroke: #000000; stroke-width: 0.6"/>
      </g>
     </g>
    </g>
    <g id="ytick_33">
     <g id="line2d_90">
      <g>
       <use xlink:href="#m711848de46" x="281.513872" y="48.415266" style="stroke: #000000; stroke-width: 0.6"/>
      </g>
     </g>
    </g>
    <g id="ytick_34">
     <g id="line2d_91">
      <g>
       <use xlink:href="#m711848de46" x="281.513872" y="43.040163" style="stroke: #000000; stroke-width: 0.6"/>
      </g>
     </g>
    </g>
    <g id="ytick_35">
     <g id="line2d_92">
      <g>
       <use xlink:href="#m711848de46" x="281.513872" y="39.226468" style="stroke: #000000; stroke-width: 0.6"/>
      </g>
     </g>
    </g>
    <g id="ytick_36">
     <g id="line2d_93">
      <g>
       <use xlink:href="#m711848de46" x="281.513872" y="36.268335" style="stroke: #000000; stroke-width: 0.6"/>
      </g>
     </g>
    </g>
    <g id="ytick_37">
     <g id="line2d_94">
      <g>
       <use xlink:href="#m711848de46" x="281.513872" y="33.851365" style="stroke: #000000; stroke-width: 0.6"/>
      </g>
     </g>
    </g>
    <g id="ytick_38">
     <g id="line2d_95">
      <g>
       <use xlink:href="#m711848de46" x="281.513872" y="31.807846" style="stroke: #000000; stroke-width: 0.6"/>
      </g>
     </g>
    </g>
    <g id="ytick_39">
     <g id="line2d_96">
      <g>
       <use xlink:href="#m711848de46" x="281.513872" y="30.03767" style="stroke: #000000; stroke-width: 0.6"/>
      </g>
     </g>
    </g>
    <g id="ytick_40">
     <g id="line2d_97">
      <g>
       <use xlink:href="#m711848de46" x="281.513872" y="28.476263" style="stroke: #000000; stroke-width: 0.6"/>
      </g>
     </g>
    </g>
    <g id="ytick_41">
     <g id="line2d_98">
      <g>
       <use xlink:href="#m711848de46" x="281.513872" y="17.890739" style="stroke: #000000; stroke-width: 0.6"/>
      </g>
     </g>
    </g>
    <g id="ytick_42">
     <g id="line2d_99">
      <g>
       <use xlink:href="#m711848de46" x="281.513872" y="12.515637" style="stroke: #000000; stroke-width: 0.6"/>
      </g>
     </g>
    </g>
    <g id="ytick_43">
     <g id="line2d_100">
      <g>
       <use xlink:href="#m711848de46" x="281.513872" y="8.701941" style="stroke: #000000; stroke-width: 0.6"/>
      </g>
     </g>
    </g>
    <g id="ytick_44">
     <g id="line2d_101">
      <g>
       <use xlink:href="#m711848de46" x="281.513872" y="5.743809" style="stroke: #000000; stroke-width: 0.6"/>
      </g>
     </g>
    </g>
    <g id="ytick_45">
     <g id="line2d_102">
      <g>
       <use xlink:href="#m711848de46" x="281.513872" y="3.326839" style="stroke: #000000; stroke-width: 0.6"/>
      </g>
     </g>
    </g>
    <g id="text_18">
     <!-- $\mathdefault{RMSE_u}$ -->
     <g transform="translate(250.884184 91.580112) rotate(-90) scale(0.1 -0.1)">
      <defs>
       <path id="LiberationSerif-52" d="M 1325 1838 
L 1325 250 
L 1959 166 
L 1959 0 
L 225 0 
L 225 166 
L 722 250 
L 722 3944 
L 184 4025 
L 184 4191 
L 1994 4191 
Q 2781 4191 3156 3925 
Q 3531 3659 3531 3072 
Q 3531 2653 3303 2348 
Q 3075 2044 2672 1925 
L 3806 250 
L 4259 166 
L 4259 0 
L 3256 0 
L 2078 1838 
L 1325 1838 
z
M 2909 3028 
Q 2909 3506 2676 3707 
Q 2444 3909 1859 3909 
L 1325 3909 
L 1325 2119 
L 1878 2119 
Q 2438 2119 2673 2326 
Q 2909 2534 2909 3028 
z
" transform="scale(0.015625)"/>
       <path id="LiberationSerif-75" d="M 978 838 
Q 978 300 1478 300 
Q 1866 300 2203 397 
L 2203 2719 
L 1759 2797 
L 1759 2938 
L 2719 2938 
L 2719 219 
L 3091 141 
L 3091 0 
L 2234 0 
L 2209 238 
Q 1988 116 1697 26 
Q 1406 -63 1209 -63 
Q 459 -63 459 800 
L 459 2719 
L 84 2797 
L 84 2938 
L 978 2938 
L 978 838 
z
" transform="scale(0.015625)"/>
      </defs>
      <use xlink:href="#LiberationSerif-52" transform="translate(0 0.78125)"/>
      <use xlink:href="#LiberationSerif-4d" transform="translate(66.699219 0.78125)"/>
      <use xlink:href="#LiberationSerif-53" transform="translate(155.615234 0.78125)"/>
      <use xlink:href="#LiberationSerif-45" transform="translate(211.230469 0.78125)"/>
      <use xlink:href="#LiberationSerif-75" transform="translate(273.117813 -12.990625) scale(0.7)"/>
     </g>
    </g>
   </g>
   <g id="line2d_103">
    <path d="M 281.513872 4.432198 
L 282.537395 6.95042 
L 283.035528 13.458688 
L 283.524998 12.085231 
L 284.479116 25.47108 
L 284.944313 23.249281 
L 285.401946 18.4181 
L 286.295475 26.713453 
L 286.731821 44.764967 
L 287.161506 33.033139 
L 287.584728 32.192123 
L 288.001681 40.838512 
L 288.412547 34.175669 
L 289.21671 33.968986 
L 289.998532 39.091279 
L 291.131992 48.798568 
L 291.49989 48.415266 
L 292.221565 56.400966 
L 292.57558 51.675079 
L 292.925196 50.057285 
L 293.270523 50.246183 
L 293.94872 57.045944 
L 294.610957 57.096882 
L 294.936322 53.153047 
L 295.257969 68.608568 
L 295.575981 61.940523 
L 295.890441 61.947879 
L 296.201425 69.327007 
L 296.50901 66.872641 
L 297.114276 65.462053 
L 297.412097 74.713348 
L 297.706799 69.820775 
L 298.287104 77.455202 
L 298.57283 72.466933 
L 298.855685 78.999582 
L 299.687581 76.644902 
L 299.959504 76.265722 
L 300.228825 77.968738 
L 300.495593 78.255177 
L 300.759855 79.167093 
L 301.02166 82.859968 
L 301.538074 85.911976 
L 301.792771 88.219043 
L 302.045183 93.34294 
L 302.543316 87.996682 
L 302.789115 89.560714 
L 303.274365 91.717948 
L 303.75139 100.282151 
L 304.220464 95.165984 
L 304.681848 102.476845 
L 305.13579 98.874156 
L 305.360044 99.755586 
L 305.582526 101.962631 
L 305.803263 102.58686 
L 306.022282 106.527414 
L 306.239609 105.290988 
L 306.669294 105.305511 
L 307.092517 110.454901 
L 307.301765 107.0584 
L 307.920335 112.014522 
L 308.325288 111.280025 
L 308.525601 110.312814 
L 308.724498 112.282342 
L 308.921999 112.372832 
L 309.118124 116.017024 
L 309.50632 111.548776 
L 309.698428 113.709162 
L 310.267009 116.027894 
L 310.63978 112.937747 
L 310.82433 115.432468 
L 311.007678 115.308284 
L 311.370829 115.790778 
L 311.729353 114.221065 
L 311.906917 112.151814 
L 312.083368 111.752006 
L 312.258719 112.143699 
L 312.432984 111.966404 
L 312.606178 111.076363 
L 313.288485 103.67165 
L 313.456508 99.825879 
L 314.281898 106.337578 
L 314.44411 108.146706 
L 314.765757 109.61095 
L 315.709213 118.964294 
L 316.16934 120.007195 
L 316.321058 119.963222 
L 316.471964 119.771451 
L 316.771369 118.822554 
L 316.919885 118.586999 
L 317.067622 118.586999 
L 317.360789 118.731563 
L 317.650934 119.580993 
L 318.080618 120.948683 
L 318.363473 121.005552 
L 318.920794 120.994475 
L 319.602275 121.56163 
L 319.870313 121.64111 
L 320.003381 121.656066 
L 320.135822 121.841921 
L 320.267643 121.821703 
L 320.529448 121.974099 
L 321.678334 122.456211 
L 323.140678 123.124481 
L 323.377181 123.21768 
L 325.747397 124.376091 
L 325.855435 124.349579 
L 325.96306 124.556959 
L 326.177082 124.55489 
L 326.283486 124.559029 
L 326.495094 124.778151 
L 326.705123 124.748725 
L 326.913597 124.936915 
L 327.017257 124.91989 
L 327.529909 125.271179 
L 327.631328 125.186277 
L 327.933411 125.405075 
L 328.033389 125.41611 
L 328.33121 125.620815 
L 328.429787 125.518068 
L 328.625912 125.783254 
L 328.723464 125.769641 
L 328.820679 125.876651 
L 329.014108 125.865226 
L 329.206216 126.007599 
L 329.9618 126.448901 
L 330.054837 126.313544 
L 330.423941 126.631556 
L 330.697627 126.821671 
L 330.878617 126.687332 
L 331.05845 126.878255 
L 331.940773 127.375625 
L 332.200164 127.268552 
L 332.371773 127.566408 
L 332.457187 127.517161 
L 332.542342 127.64193 
L 332.88041 127.571603 
L 333.131322 128.023442 
L 333.380017 127.689023 
L 333.544601 127.983185 
L 333.708228 128.150379 
L 333.789686 128.02613 
L 334.032656 128.20749 
L 334.273545 128.085408 
L 334.433001 128.558222 
L 334.749226 128.01001 
L 334.906017 128.806809 
L 335.061938 128.229312 
L 335.294213 128.684758 
L 335.371214 128.838213 
L 335.524586 128.223853 
L 335.677128 128.69041 
L 335.9044 128.577826 
L 335.979752 128.521891 
L 336.054902 128.881156 
L 336.279157 128.147665 
L 336.501638 128.964577 
L 336.57541 128.803958 
L 336.722375 126.878255 
L 336.868577 127.775797 
L 337.086465 126.556748 
L 337.158722 126.030706 
L 337.374384 127.491314 
L 337.659387 125.681497 
L 337.730189 125.744721 
L 337.800813 125.473642 
L 338.220878 120.480991 
L 338.839447 127.699511 
L 338.907345 127.868455 
L 339.177312 129.688061 
L 339.709598 131.355026 
L 339.841111 131.396561 
L 340.102308 131.808498 
L 345.092347 133.354269 
L 345.201011 133.434881 
L 345.363223 133.495663 
L 345.791274 133.667352 
L 345.950129 133.733346 
L 346.002882 133.692061 
L 346.212911 133.853805 
L 346.317341 133.845463 
L 346.628325 133.992224 
L 348.521896 134.706866 
L 348.570046 134.640283 
L 348.761827 134.827564 
L 348.809569 134.63143 
L 348.85723 134.809613 
L 348.952311 134.791687 
L 349.141513 134.958439 
L 349.282585 134.868042 
L 349.422954 135.13191 
L 349.516145 134.990224 
L 349.655356 135.13191 
L 349.977529 135.21488 
L 350.114482 135.340316 
L 350.205415 135.238019 
L 350.341266 135.391761 
L 350.566238 135.499979 
L 351.054935 135.590048 
L 351.098944 135.757583 
L 351.186756 135.685523 
L 351.317963 135.7143 
L 351.448561 135.863985 
L 351.491959 135.680733 
L 351.578555 135.752767 
L 351.621754 135.946794 
L 351.707952 135.888287 
L 351.836757 135.834881 
L 351.879561 136.00556 
L 351.9223 135.985942 
L 352.219672 136.163555 
L 352.304061 135.995747 
L 352.472084 136.273279 
L 352.63911 136.258263 
L 352.763732 136.409194 
L 352.80515 136.373823 
L 353.011333 136.338546 
L 353.093385 136.536296 
L 353.134321 136.373823 
L 353.338115 136.59261 
L 354.099346 136.925082 
L 354.138846 136.799426 
L 354.17829 136.773396 
L 354.21768 136.914565 
L 354.257014 136.820286 
L 354.296294 136.705959 
L 354.374689 137.04663 
L 354.413805 136.951411 
L 354.452866 136.851638 
L 354.491874 137.036017 
L 354.569726 137.009519 
L 354.608572 136.75261 
L 354.724789 137.142539 
L 354.763422 136.940873 
L 354.802001 137.110492 
L 354.840528 137.228377 
L 354.917423 137.153238 
L 355.260877 137.358186 
L 355.336635 137.239146 
L 355.374437 137.303945 
L 355.412188 137.45091 
L 355.449889 137.185389 
L 355.48754 137.180025 
L 355.52514 137.571875 
L 355.56269 137.320194 
L 355.637641 137.190755 
L 355.675041 137.336463 
L 355.749693 137.605058 
L 355.786945 137.185389 
L 355.824147 137.533266 
L 355.861301 137.654989 
L 355.972468 137.190755 
L 356.009427 137.68281 
L 356.083198 137.390838 
L 356.230163 137.77784 
L 356.266785 137.605058 
L 356.303359 137.566353 
L 356.339886 137.828427 
L 356.412797 137.705109 
L 356.48552 137.511254 
L 356.521811 137.52776 
L 356.66651 137.91317 
L 356.810468 137.500262 
L 356.882172 137.91317 
L 356.917956 137.566353 
L 356.953694 137.331038 
L 356.989387 137.632774 
L 357.025034 138.164922 
L 357.096194 137.969968 
L 357.131707 137.549799 
L 357.202598 137.952904 
L 357.237977 137.969968 
L 357.273311 137.461861 
L 357.308601 137.744222 
L 357.379049 138.193836 
L 357.414207 138.021296 
L 357.484391 137.738627 
L 357.519417 138.061355 
L 357.5544 137.987055 
L 357.58934 137.538775 
L 357.624236 137.992756 
L 357.693899 138.310123 
L 357.728666 138.113037 
L 357.798071 137.688381 
L 357.832709 138.101535 
L 357.867305 138.38626 
L 357.901859 138.118792 
L 357.970839 137.271506 
L 358.005265 137.298533 
L 358.142552 138.228615 
L 358.17677 138.12455 
L 358.24508 138.486488 
L 358.313225 136.757803 
L 358.347235 137.621681 
L 358.415134 138.362786 
L 358.449021 138.193836 
L 358.516675 137.163947 
L 358.55044 137.445437 
L 358.617851 138.468746 
L 358.651495 137.522256 
L 358.6851 136.649163 
L 358.718664 137.228377 
L 358.785674 138.533918 
L 358.852523 138.292614 
L 358.919215 135.490534 
L 359.018957 138.858587 
L 359.085255 138.240228 
L 359.151398 135.699904 
L 359.217386 136.030123 
L 359.577579 139.203895 
L 359.868892 139.316825 
L 359.997402 139.310526 
L 360.125329 139.373653 
L 360.662622 139.430725 
L 360.787566 139.513599 
L 360.911959 139.443442 
L 360.942971 139.367327 
L 361.004894 139.475285 
L 361.94767 139.837264 
L 362.007423 139.726329 
L 362.06705 139.81762 
L 362.245176 139.909543 
L 362.304301 139.863502 
L 362.333818 139.935924 
L 363.290886 140.088645 
L 363.319386 140.015385 
L 363.347857 140.028675 
L 363.489783 140.22289 
L 363.546353 140.128776 
L 363.60281 140.189201 
L 363.687284 140.26343 
L 363.743459 140.182474 
L 363.827512 140.26343 
L 363.911315 140.351695 
L 364.022665 140.22289 
L 364.10589 140.392632 
L 364.161237 140.365327 
L 364.271605 140.399467 
L 364.491051 140.49553 
L 364.871011 140.606175 
L 364.924875 140.502418 
L 364.978636 140.633982 
L 365.005478 140.647907 
L 365.032294 140.530007 
L 365.08585 140.606175 
L 365.139305 140.69676 
L 365.219297 140.620071 
L 365.24591 140.557654 
L 365.272498 140.661846 
L 365.589615 140.802055 
L 365.746843 140.851481 
L 365.825129 140.865636 
L 365.851176 140.908194 
L 365.877199 140.745794 
L 366.213326 141.008029 
L 366.264683 140.893993 
L 366.315947 141.036692 
L 366.621584 141.065417 
L 366.773166 141.159206 
L 366.923937 141.195456 
L 366.974015 141.051047 
L 366.99902 141.224528 
L 367.024004 141.217254 
L 367.048965 141.268255 
L 367.098821 141.137503 
L 367.148589 141.101411 
L 367.17344 141.209984 
L 367.247862 141.334117 
L 367.272625 141.051047 
L 367.322087 141.312127 
L 367.469953 141.268255 
L 367.494522 141.400309 
L 367.51907 141.268255 
L 367.568101 141.051047 
L 367.592585 141.356144 
L 367.617047 141.130277 
L 367.641488 141.363495 
L 367.73904 141.341456 
L 367.933136 141.348798 
L 368.053769 141.533691 
L 368.077834 141.385571 
L 368.149905 141.570981 
L 368.197851 141.563515 
L 368.245714 141.370849 
L 368.293497 141.585927 
L 368.341198 141.660908 
L 368.412599 141.326783 
L 368.531199 141.69102 
L 368.554859 141.630865 
L 368.60212 141.437225 
L 368.649301 141.600889 
L 368.672863 141.766599 
L 368.719926 141.630865 
L 368.76691 141.188198 
L 368.790373 141.74388 
L 368.88403 141.74388 
L 368.907396 141.407684 
L 368.930742 141.834991 
L 368.977376 141.422446 
L 369.047183 141.842612 
L 369.093625 141.751449 
L 369.116817 141.518805 
L 369.163144 141.926733 
L 369.209395 141.593406 
L 369.27863 141.570981 
L 369.30167 141.903738 
L 369.324692 141.304805 
L 369.41659 141.706101 
L 369.531042 142.003673 
L 369.576693 141.526246 
L 369.599491 142.011391 
L 369.645031 141.942085 
L 369.690497 141.774181 
L 369.803844 142.088825 
L 369.826458 142.151099 
L 369.849054 142.050052 
L 369.871633 142.088825 
L 369.894193 141.865501 
L 369.961765 142.237207 
L 369.984253 141.949768 
L 370.05161 141.713648 
L 370.118805 142.276533 
L 370.141168 141.585927 
L 370.208151 142.057797 
L 370.319435 142.339697 
L 370.341639 142.268658 
L 370.363826 141.751449 
L 370.408147 142.395214 
L 370.430281 141.880783 
L 370.562723 142.379328 
L 370.584736 142.347614 
L 370.606732 141.774181 
L 370.650672 142.450965 
L 370.694544 141.965147 
L 370.825751 142.466936 
L 370.847559 142.182347 
L 370.934624 142.339697 
L 370.999747 142.579281 
L 371.021421 142.363462 
L 371.043078 142.026842 
L 371.086343 142.466936 
L 371.107951 142.347614 
L 371.129542 142.427043 
L 371.151116 142.050052 
L 371.194215 142.514968 
L 371.237249 142.237207 
L 371.258741 142.539049 
L 371.365955 142.52299 
L 371.430089 142.627722 
L 371.451434 141.698558 
L 371.494076 142.782297 
L 371.557918 142.555127 
L 371.579167 142.182347 
L 371.642817 142.579281 
L 371.664001 142.725138 
L 371.706323 142.276533 
L 371.748581 142.611556 
L 371.769686 142.435012 
L 371.811849 142.627722 
L 371.832907 142.889106 
L 371.853949 142.387269 
L 371.895986 141.957455 
L 371.916981 142.692587 
L 371.958924 142.112144 
L 372.000804 142.963559 
L 372.105234 142.798673 
L 372.146898 142.930417 
L 372.209278 142.635813 
L 372.312938 142.946977 
L 372.333625 142.880859 
L 372.354296 142.073302 
L 372.416219 143.172592 
L 372.436829 142.692587 
L 372.498571 142.427043 
L 372.478005 142.930417 
L 372.539656 142.595409 
L 372.601173 142.988469 
L 372.621649 142.498938 
L 372.662555 142.85615 
L 372.723804 142.627722 
L 372.744191 141.911399 
L 372.78492 143.274111 
L 372.805262 142.922145 
L 372.845903 142.611556 
L 372.886485 143.11373 
L 372.906754 142.996783 
L 373.028064 142.127712 
L 373.048232 142.790482 
L 373.068385 143.122123 
L 373.088523 142.587343 
L 373.148853 142.889106 
L 373.168934 142.104366 
L 373.229092 142.988469 
L 373.269126 143.021757 
L 373.289121 142.579281 
L 373.368962 143.11373 
L 373.388887 143.122123 
L 373.448577 141.995959 
L 373.468445 142.668225 
L 373.4883 143.462273 
L 373.527967 142.403164 
L 373.587363 143.080211 
L 373.607134 143.122123 
L 373.725468 141.865501 
L 373.666363 143.181022 
L 373.745142 142.50695 
L 373.764802 143.70568 
L 373.804082 140.344885 
L 373.999662 143.592114 
L 374.038615 140.943763 
L 374.096944 143.837939 
L 374.155153 141.101411 
L 374.193891 143.989445 
L 374.232577 142.60348 
L 374.2519 142.684461 
L 374.27121 142.355535 
L 374.329059 143.962583 
L 374.348316 140.795009 
L 374.444403 141.548595 
L 374.501898 142.963559 
L 374.482746 141.180944 
L 374.540163 141.796952 
L 374.559275 141.429834 
L 374.597462 142.04231 
L 374.692704 141.563515 
L 374.73071 143.971531 
L 374.825502 140.516206 
L 374.844423 142.847924 
L 374.86333 143.522707 
L 374.938833 142.49093 
L 374.995328 144.088409 
L 375.070478 141.195456 
L 375.089235 141.341456 
L 375.107978 143.767237 
L 375.182829 141.972843 
L 375.22018 141.094205 
L 375.238837 142.50695 
L 375.257481 143.855674 
L 375.31334 140.92241 
L 375.331936 141.036692 
L 375.387647 143.419274 
L 375.424728 141.224528 
L 375.443249 140.908194 
L 375.461759 142.034574 
L 375.737951 144.755084 
L 375.865919 144.745592 
L 376.192333 144.80265 
L 436.917041 144.9079 
L 436.937875 144.898298 
L 437.029359 144.9079 
L 440.576212 145.013993 
L 440.662092 145.02368 
L 440.58902 145.004313 
L 440.687622 145.013993 
L 443.733864 145.120941 
L 443.743677 145.111182 
L 443.848137 145.130706 
L 446.765769 145.238604 
L 446.878635 145.248456 
L 449.326124 145.357321 
L 449.354271 145.337461 
L 449.438544 145.367262 
L 451.898947 145.47711 
L 451.994246 145.487142 
L 451.906289 145.467087 
L 452.010098 145.47711 
L 453.976757 145.587877 
L 453.984713 145.567668 
L 454.087939 145.597992 
L 454.199812 145.587877 
L 455.862798 145.689383 
L 455.891486 145.679197 
L 455.9742 145.699576 
L 456.068282 145.689383 
L 456.056671 145.709778 
L 456.085162 145.699576 
L 457.674239 145.801945 
L 457.77275 145.812225 
L 457.683209 145.791672 
L 457.784668 145.791672 
L 459.163244 145.894757 
L 459.263283 145.90511 
L 459.172697 145.884412 
L 459.273644 145.894757 
L 460.747727 145.99865 
L 460.848532 145.977806 
L 460.860106 146.009084 
L 462.428479 146.11388 
L 462.515898 146.134939 
L 462.436896 146.103363 
L 462.541903 146.124405 
L 464.066957 146.230121 
L 464.132803 146.251365 
L 464.074104 146.219511 
L 464.180307 146.240739 
L 465.53095 146.347389 
L 465.645325 146.368823 
L 465.673846 146.347389 
L 465.738288 146.379553 
L 465.756245 146.368823 
L 467.099949 146.476514 
L 467.20103 146.487331 
L 467.142704 146.454905 
L 467.210976 146.476514 
L 468.398759 146.585086 
L 468.409653 146.574189 
L 468.509536 146.595992 
L 469.614843 146.705552 
L 469.714446 146.716558 
L 469.632446 146.683568 
L 469.726141 146.705552 
L 470.788682 146.816025 
L 470.79306 146.804936 
L 470.90105 146.83823 
L 472.154285 146.938617 
L 472.170369 146.927426 
L 472.26609 146.961029 
L 472.332486 146.938617 
L 472.338999 146.972249 
L 472.376861 146.961029 
L 473.610443 147.062354 
L 473.617798 147.039771 
L 473.722257 147.073661 
L 474.830173 147.175854 
L 474.835049 147.16446 
L 474.941572 147.187257 
L 475.926364 147.290333 
L 476.02365 147.313348 
L 475.932096 147.27884 
L 476.037668 147.301835 
L 476.991492 147.40581 
L 476.994001 147.394217 
L 477.102669 147.417413 
L 478.055488 147.522301 
L 478.059836 147.510606 
L 478.166399 147.534007 
L 478.889993 147.616237 
L 478.889993 147.616237 
" clip-path="url(#pd7f2cda3d4)" style="fill: none; stroke: #1f77b4; stroke-linecap: square"/>
   </g>
   <g id="patch_8">
    <path d="M 281.513872 149.059984 
L 281.513872 3.00024 
" style="fill: none; stroke: #000000; stroke-width: 0.8; stroke-linejoin: miter; stroke-linecap: square"/>
   </g>
   <g id="patch_9">
    <path d="M 478.889524 149.059984 
L 478.889524 3.00024 
" style="fill: none; stroke: #000000; stroke-width: 0.8; stroke-linejoin: miter; stroke-linecap: square"/>
   </g>
   <g id="patch_10">
    <path d="M 281.513872 149.059984 
L 478.889524 149.059984 
" style="fill: none; stroke: #000000; stroke-width: 0.8; stroke-linejoin: miter; stroke-linecap: square"/>
   </g>
   <g id="patch_11">
    <path d="M 281.513872 3.00024 
L 478.889524 3.00024 
" style="fill: none; stroke: #000000; stroke-width: 0.8; stroke-linejoin: miter; stroke-linecap: square"/>
   </g>
  </g>
 </g>
 <defs>
  <clipPath id="p180ef4d1c6">
   <rect x="40.56899" y="3.00024" width="197.375652" height="146.059744"/>
  </clipPath>
  <clipPath id="pd7f2cda3d4">
   <rect x="281.513872" y="3.00024" width="197.375652" height="146.059744"/>
  </clipPath>
 </defs>
</svg>
