<?xml version="1.0" encoding="utf-8" standalone="no"?>
<!DOCTYPE svg PUBLIC "-//W3C//DTD SVG 1.1//EN"
  "http://www.w3.org/Graphics/SVG/1.1/DTD/svg11.dtd">
<svg xmlns:xlink="http://www.w3.org/1999/xlink" width="481.889764pt" height="361.417323pt" viewBox="0 0 481.889764 361.417323" xmlns="http://www.w3.org/2000/svg" version="1.1">
 <metadata>
  <rdf:RDF xmlns:dc="http://purl.org/dc/elements/1.1/" xmlns:cc="http://creativecommons.org/ns#" xmlns:rdf="http://www.w3.org/1999/02/22-rdf-syntax-ns#">
   <cc:Work>
    <dc:type rdf:resource="http://purl.org/dc/dcmitype/StillImage"/>
    <dc:date>2023-06-01T12:54:02.079083</dc:date>
    <dc:format>image/svg+xml</dc:format>
    <dc:creator>
     <cc:Agent>
      <dc:title>Matplotlib v3.7.1, https://matplotlib.org/</dc:title>
     </cc:Agent>
    </dc:creator>
   </cc:Work>
  </rdf:RDF>
 </metadata>
 <defs>
  <style type="text/css">*{stroke-linejoin: round; stroke-linecap: butt}</style>
 </defs>
 <g id="figure_1">
  <g id="patch_1">
   <path d="M 0 361.417323 
L 481.889764 361.417323 
L 481.889764 0 
L 0 0 
z
" style="fill: #ffffff"/>
  </g>
  <g id="axes_1">
   <g id="patch_2">
    <path d="M 51.19649 322.70927 
L 471.793274 322.70927 
L 471.793274 3.00024 
L 51.19649 3.00024 
z
" style="fill: #ffffff"/>
   </g>
   <g id="matplotlib.axis_1">
    <g id="xtick_1">
     <g id="line2d_1">
      <defs>
       <path id="me156f87903" d="M 0 0 
L 0 3.5 
" style="stroke: #000000; stroke-width: 0.8"/>
      </defs>
      <g>
       <use xlink:href="#me156f87903" x="51.19649" y="322.70927" style="stroke: #000000; stroke-width: 0.8"/>
      </g>
     </g>
     <g id="text_1">
      <!-- 0 -->
      <g transform="translate(47.648365 339.231458) scale(0.14 -0.14)">
       <defs>
        <path id="Calibri-30" d="M 3022 2031 
Q 3022 1566 2948 1181 
Q 2875 797 2704 520 
Q 2534 244 2259 92 
Q 1984 -59 1581 -59 
Q 1200 -59 939 77 
Q 678 213 518 477 
Q 359 741 292 1127 
Q 225 1513 225 2013 
Q 225 2475 300 2861 
Q 375 3247 544 3523 
Q 713 3800 988 3951 
Q 1263 4103 1663 4103 
Q 2047 4103 2308 3967 
Q 2569 3831 2728 3567 
Q 2888 3303 2955 2917 
Q 3022 2531 3022 2031 
z
M 2472 1994 
Q 2472 2297 2450 2537 
Q 2428 2778 2386 2962 
Q 2344 3147 2276 3280 
Q 2209 3413 2115 3498 
Q 2022 3584 1901 3623 
Q 1781 3663 1631 3663 
Q 1366 3663 1200 3538 
Q 1034 3413 939 3194 
Q 844 2975 809 2681 
Q 775 2388 775 2050 
Q 775 1597 822 1280 
Q 869 963 970 763 
Q 1072 563 1230 472 
Q 1388 381 1613 381 
Q 1788 381 1920 437 
Q 2053 494 2148 598 
Q 2244 703 2306 850 
Q 2369 997 2406 1175 
Q 2444 1353 2458 1561 
Q 2472 1769 2472 1994 
z
" transform="scale(0.015625)"/>
       </defs>
       <use xlink:href="#Calibri-30"/>
      </g>
     </g>
    </g>
    <g id="xtick_2">
     <g id="line2d_2">
      <g>
       <use xlink:href="#me156f87903" x="121.295954" y="322.70927" style="stroke: #000000; stroke-width: 0.8"/>
      </g>
     </g>
     <g id="text_2">
      <!-- 5 -->
      <g transform="translate(117.747829 339.231458) scale(0.14 -0.14)">
       <defs>
        <path id="Calibri-35" d="M 2869 1300 
Q 2869 975 2759 722 
Q 2650 469 2450 295 
Q 2250 122 1973 31 
Q 1697 -59 1359 -59 
Q 1172 -59 1003 -32 
Q 834 -6 703 33 
Q 572 72 487 109 
Q 403 147 379 169 
Q 356 191 347 209 
Q 338 228 330 254 
Q 322 281 319 322 
Q 316 363 316 419 
Q 316 472 320 514 
Q 325 556 337 582 
Q 350 609 367 621 
Q 384 634 406 634 
Q 438 634 503 595 
Q 569 556 680 511 
Q 791 466 955 425 
Q 1119 384 1344 384 
Q 1553 384 1728 434 
Q 1903 484 2029 590 
Q 2156 697 2228 858 
Q 2300 1019 2300 1250 
Q 2300 1444 2239 1592 
Q 2178 1741 2051 1839 
Q 1925 1938 1731 1986 
Q 1538 2034 1269 2034 
Q 1078 2034 940 2015 
Q 803 1997 684 1997 
Q 597 1997 559 2037 
Q 522 2078 522 2194 
L 522 3841 
Q 522 3944 570 3994 
Q 619 4044 709 4044 
L 2500 4044 
Q 2525 4044 2548 4030 
Q 2572 4016 2587 3987 
Q 2603 3959 2611 3915 
Q 2619 3872 2619 3813 
Q 2619 3700 2587 3637 
Q 2556 3575 2500 3575 
L 991 3575 
L 991 2441 
Q 1100 2456 1214 2459 
Q 1328 2463 1478 2463 
Q 1825 2463 2084 2380 
Q 2344 2297 2517 2145 
Q 2691 1994 2780 1778 
Q 2869 1563 2869 1300 
z
" transform="scale(0.015625)"/>
       </defs>
       <use xlink:href="#Calibri-35"/>
      </g>
     </g>
    </g>
    <g id="xtick_3">
     <g id="line2d_3">
      <g>
       <use xlink:href="#me156f87903" x="191.395418" y="322.70927" style="stroke: #000000; stroke-width: 0.8"/>
      </g>
     </g>
     <g id="text_3">
      <!-- 10 -->
      <g transform="translate(184.299168 339.231458) scale(0.14 -0.14)">
       <defs>
        <path id="Calibri-31" d="M 2897 213 
Q 2897 153 2887 112 
Q 2878 72 2862 47 
Q 2847 22 2826 11 
Q 2806 0 2784 0 
L 672 0 
Q 650 0 631 11 
Q 613 22 595 47 
Q 578 72 568 112 
Q 559 153 559 213 
Q 559 269 568 309 
Q 578 350 592 376 
Q 606 403 626 417 
Q 647 431 672 431 
L 1516 431 
L 1516 3506 
L 734 3041 
Q 675 3009 639 3003 
Q 603 2997 581 3017 
Q 559 3038 551 3084 
Q 544 3131 544 3203 
Q 544 3256 548 3293 
Q 553 3331 562 3356 
Q 572 3381 589 3400 
Q 606 3419 634 3438 
L 1566 4034 
Q 1578 4044 1597 4050 
Q 1616 4056 1644 4062 
Q 1672 4069 1709 4070 
Q 1747 4072 1803 4072 
Q 1878 4072 1928 4065 
Q 1978 4059 2006 4048 
Q 2034 4038 2043 4020 
Q 2053 4003 2053 3984 
L 2053 431 
L 2784 431 
Q 2809 431 2831 417 
Q 2853 403 2867 376 
Q 2881 350 2889 309 
Q 2897 269 2897 213 
z
" transform="scale(0.015625)"/>
       </defs>
       <use xlink:href="#Calibri-31"/>
       <use xlink:href="#Calibri-30" x="50.683594"/>
      </g>
     </g>
    </g>
    <g id="xtick_4">
     <g id="line2d_4">
      <g>
       <use xlink:href="#me156f87903" x="261.494882" y="322.70927" style="stroke: #000000; stroke-width: 0.8"/>
      </g>
     </g>
     <g id="text_4">
      <!-- 15 -->
      <g transform="translate(254.398632 339.231458) scale(0.14 -0.14)">
       <use xlink:href="#Calibri-31"/>
       <use xlink:href="#Calibri-35" x="50.683594"/>
      </g>
     </g>
    </g>
    <g id="xtick_5">
     <g id="line2d_5">
      <g>
       <use xlink:href="#me156f87903" x="331.594346" y="322.70927" style="stroke: #000000; stroke-width: 0.8"/>
      </g>
     </g>
     <g id="text_5">
      <!-- 20 -->
      <g transform="translate(324.498096 339.231458) scale(0.14 -0.14)">
       <defs>
        <path id="Calibri-32" d="M 2888 231 
Q 2888 175 2880 131 
Q 2872 88 2858 58 
Q 2844 28 2820 14 
Q 2797 0 2769 0 
L 534 0 
Q 491 0 458 11 
Q 425 22 401 47 
Q 378 72 367 119 
Q 356 166 356 234 
Q 356 297 361 344 
Q 366 391 381 427 
Q 397 463 420 498 
Q 444 534 481 575 
L 1266 1406 
Q 1538 1694 1702 1922 
Q 1866 2150 1955 2337 
Q 2044 2525 2072 2678 
Q 2100 2831 2100 2966 
Q 2100 3100 2056 3220 
Q 2013 3341 1930 3431 
Q 1847 3522 1722 3575 
Q 1597 3628 1434 3628 
Q 1244 3628 1092 3575 
Q 941 3522 827 3459 
Q 713 3397 636 3344 
Q 559 3291 522 3291 
Q 500 3291 483 3303 
Q 466 3316 455 3344 
Q 444 3372 437 3419 
Q 431 3466 431 3531 
Q 431 3578 434 3612 
Q 438 3647 445 3672 
Q 453 3697 465 3719 
Q 478 3741 515 3773 
Q 553 3806 645 3862 
Q 738 3919 877 3973 
Q 1016 4028 1183 4065 
Q 1350 4103 1534 4103 
Q 1828 4103 2048 4020 
Q 2269 3938 2414 3794 
Q 2559 3650 2631 3459 
Q 2703 3269 2703 3053 
Q 2703 2859 2668 2667 
Q 2634 2475 2523 2251 
Q 2413 2028 2203 1754 
Q 1994 1481 1647 1125 
L 1006 456 
L 2766 456 
Q 2791 456 2814 442 
Q 2838 428 2855 400 
Q 2872 372 2880 330 
Q 2888 288 2888 231 
z
" transform="scale(0.015625)"/>
       </defs>
       <use xlink:href="#Calibri-32"/>
       <use xlink:href="#Calibri-30" x="50.683594"/>
      </g>
     </g>
    </g>
    <g id="xtick_6">
     <g id="line2d_6">
      <g>
       <use xlink:href="#me156f87903" x="401.69381" y="322.70927" style="stroke: #000000; stroke-width: 0.8"/>
      </g>
     </g>
     <g id="text_6">
      <!-- 25 -->
      <g transform="translate(394.59756 339.231458) scale(0.14 -0.14)">
       <use xlink:href="#Calibri-32"/>
       <use xlink:href="#Calibri-35" x="50.683594"/>
      </g>
     </g>
    </g>
    <g id="xtick_7">
     <g id="line2d_7">
      <g>
       <use xlink:href="#me156f87903" x="471.793274" y="322.70927" style="stroke: #000000; stroke-width: 0.8"/>
      </g>
     </g>
     <g id="text_7">
      <!-- 30 -->
      <g transform="translate(464.697024 339.231458) scale(0.14 -0.14)">
       <defs>
        <path id="Calibri-33" d="M 2856 1156 
Q 2856 878 2759 654 
Q 2663 431 2481 272 
Q 2300 113 2034 27 
Q 1769 -59 1434 -59 
Q 1231 -59 1054 -26 
Q 878 6 740 51 
Q 603 97 512 145 
Q 422 194 398 216 
Q 375 238 362 259 
Q 350 281 340 312 
Q 331 344 326 389 
Q 322 434 322 500 
Q 322 613 344 656 
Q 366 700 406 700 
Q 434 700 517 650 
Q 600 600 729 542 
Q 859 484 1032 434 
Q 1206 384 1419 384 
Q 1625 384 1781 437 
Q 1938 491 2044 587 
Q 2150 684 2203 817 
Q 2256 950 2256 1106 
Q 2256 1278 2189 1415 
Q 2122 1553 1992 1653 
Q 1863 1753 1673 1806 
Q 1484 1859 1244 1859 
L 859 1859 
Q 834 1859 811 1870 
Q 788 1881 770 1906 
Q 753 1931 742 1972 
Q 731 2013 731 2078 
Q 731 2138 740 2177 
Q 750 2216 767 2239 
Q 784 2263 806 2273 
Q 828 2284 856 2284 
L 1209 2284 
Q 1416 2284 1580 2337 
Q 1744 2391 1858 2491 
Q 1972 2591 2033 2730 
Q 2094 2869 2094 3041 
Q 2094 3166 2053 3280 
Q 2013 3394 1931 3478 
Q 1850 3563 1723 3611 
Q 1597 3659 1431 3659 
Q 1250 3659 1098 3604 
Q 947 3550 828 3487 
Q 709 3425 631 3370 
Q 553 3316 522 3316 
Q 500 3316 483 3323 
Q 466 3331 455 3354 
Q 444 3378 439 3420 
Q 434 3463 434 3531 
Q 434 3578 437 3614 
Q 441 3650 450 3676 
Q 459 3703 471 3725 
Q 484 3747 514 3776 
Q 544 3806 634 3862 
Q 725 3919 858 3973 
Q 991 4028 1164 4065 
Q 1338 4103 1538 4103 
Q 1819 4103 2031 4031 
Q 2244 3959 2386 3828 
Q 2528 3697 2598 3514 
Q 2669 3331 2669 3109 
Q 2669 2919 2619 2755 
Q 2569 2591 2472 2464 
Q 2375 2338 2234 2248 
Q 2094 2159 1909 2125 
L 1909 2119 
Q 2119 2097 2292 2014 
Q 2466 1931 2591 1806 
Q 2716 1681 2786 1514 
Q 2856 1347 2856 1156 
z
" transform="scale(0.015625)"/>
       </defs>
       <use xlink:href="#Calibri-33"/>
       <use xlink:href="#Calibri-30" x="50.683594"/>
      </g>
     </g>
    </g>
    <g id="text_8">
     <!-- time [sec] -->
     <g transform="translate(233.702694 355.43552) scale(0.14 -0.14)">
      <defs>
       <path id="LiberationSerif-74" d="M 1044 -63 
Q 744 -63 595 115 
Q 447 294 447 616 
L 447 2675 
L 63 2675 
L 63 2816 
L 453 2938 
L 769 3603 
L 966 3603 
L 966 2938 
L 1638 2938 
L 1638 2675 
L 966 2675 
L 966 672 
Q 966 469 1058 366 
Q 1150 263 1300 263 
Q 1481 263 1741 313 
L 1741 109 
Q 1631 34 1425 -14 
Q 1219 -63 1044 -63 
z
" transform="scale(0.015625)"/>
       <path id="LiberationSerif-69" d="M 1184 3897 
Q 1184 3759 1084 3659 
Q 984 3559 844 3559 
Q 706 3559 606 3659 
Q 506 3759 506 3897 
Q 506 4038 606 4138 
Q 706 4238 844 4238 
Q 984 4238 1084 4138 
Q 1184 4038 1184 3897 
z
M 1153 219 
L 1656 141 
L 1656 0 
L 134 0 
L 134 141 
L 634 219 
L 634 2719 
L 219 2797 
L 219 2938 
L 1153 2938 
L 1153 219 
z
" transform="scale(0.015625)"/>
       <path id="LiberationSerif-6d" d="M 1019 2700 
Q 1253 2834 1515 2925 
Q 1778 3016 1978 3016 
Q 2194 3016 2376 2934 
Q 2559 2853 2650 2675 
Q 2891 2809 3214 2912 
Q 3538 3016 3750 3016 
Q 4500 3016 4500 2150 
L 4500 219 
L 4878 141 
L 4878 0 
L 3544 0 
L 3544 141 
L 3981 219 
L 3981 2094 
Q 3981 2631 3481 2631 
Q 3400 2631 3292 2618 
Q 3184 2606 3076 2590 
Q 2969 2575 2870 2554 
Q 2772 2534 2706 2522 
Q 2759 2353 2759 2150 
L 2759 219 
L 3200 141 
L 3200 0 
L 1806 0 
L 1806 141 
L 2241 219 
L 2241 2094 
Q 2241 2353 2108 2492 
Q 1975 2631 1709 2631 
Q 1434 2631 1025 2541 
L 1025 219 
L 1466 141 
L 1466 0 
L 134 0 
L 134 141 
L 506 219 
L 506 2719 
L 134 2797 
L 134 2938 
L 994 2938 
L 1019 2700 
z
" transform="scale(0.015625)"/>
       <path id="LiberationSerif-65" d="M 813 1478 
L 813 1422 
Q 813 991 908 752 
Q 1003 513 1201 388 
Q 1400 263 1722 263 
Q 1891 263 2122 291 
Q 2353 319 2503 353 
L 2503 178 
Q 2353 81 2095 9 
Q 1838 -63 1569 -63 
Q 884 -63 567 306 
Q 250 675 250 1491 
Q 250 2259 572 2637 
Q 894 3016 1491 3016 
Q 2619 3016 2619 1734 
L 2619 1478 
L 813 1478 
z
M 1491 2766 
Q 1166 2766 992 2503 
Q 819 2241 819 1728 
L 2075 1728 
Q 2075 2288 1931 2527 
Q 1788 2766 1491 2766 
z
" transform="scale(0.015625)"/>
       <path id="LiberationSerif-20" transform="scale(0.015625)"/>
       <path id="LiberationSerif-5b" d="M 475 -856 
L 475 4441 
L 1900 4441 
L 1900 4294 
L 972 4166 
L 972 -581 
L 1900 -709 
L 1900 -856 
L 475 -856 
z
" transform="scale(0.015625)"/>
       <path id="LiberationSerif-73" d="M 2259 825 
Q 2259 388 1982 162 
Q 1706 -63 1166 -63 
Q 947 -63 683 -17 
Q 419 28 269 84 
L 269 806 
L 409 806 
L 563 397 
Q 797 184 1172 184 
Q 1778 184 1778 703 
Q 1778 1084 1300 1247 
L 1022 1338 
Q 706 1441 562 1547 
Q 419 1653 341 1808 
Q 263 1963 263 2181 
Q 263 2569 527 2792 
Q 791 3016 1241 3016 
Q 1563 3016 2047 2919 
L 2047 2278 
L 1900 2278 
L 1769 2619 
Q 1603 2766 1247 2766 
Q 994 2766 861 2641 
Q 728 2516 728 2303 
Q 728 2125 848 2003 
Q 969 1881 1213 1800 
Q 1672 1644 1812 1572 
Q 1953 1500 2051 1395 
Q 2150 1291 2204 1156 
Q 2259 1022 2259 825 
z
" transform="scale(0.015625)"/>
       <path id="LiberationSerif-63" d="M 2644 178 
Q 2491 66 2222 1 
Q 1953 -63 1672 -63 
Q 244 -63 244 1491 
Q 244 2225 608 2620 
Q 972 3016 1650 3016 
Q 2072 3016 2572 2919 
L 2572 2100 
L 2400 2100 
L 2266 2619 
Q 2006 2766 1644 2766 
Q 806 2766 806 1491 
Q 806 828 1061 545 
Q 1316 263 1850 263 
Q 2306 263 2644 366 
L 2644 178 
z
" transform="scale(0.015625)"/>
       <path id="LiberationSerif-5d" d="M 231 -856 
L 231 -709 
L 1159 -581 
L 1159 4166 
L 231 4294 
L 231 4441 
L 1656 4441 
L 1656 -856 
L 231 -856 
z
" transform="scale(0.015625)"/>
      </defs>
      <use xlink:href="#LiberationSerif-74"/>
      <use xlink:href="#LiberationSerif-69" x="27.783203"/>
      <use xlink:href="#LiberationSerif-6d" x="55.566406"/>
      <use xlink:href="#LiberationSerif-65" x="133.349609"/>
      <use xlink:href="#LiberationSerif-20" x="177.734375"/>
      <use xlink:href="#LiberationSerif-5b" x="202.734375"/>
      <use xlink:href="#LiberationSerif-73" x="236.035156"/>
      <use xlink:href="#LiberationSerif-65" x="274.951172"/>
      <use xlink:href="#LiberationSerif-63" x="319.335938"/>
      <use xlink:href="#LiberationSerif-5d" x="363.720703"/>
     </g>
    </g>
   </g>
   <g id="matplotlib.axis_2">
    <g id="ytick_1">
     <g id="line2d_8">
      <defs>
       <path id="m70bf4e2229" d="M 0 0 
L -3.5 0 
" style="stroke: #000000; stroke-width: 0.8"/>
      </defs>
      <g>
       <use xlink:href="#m70bf4e2229" x="51.19649" y="308.907842" style="stroke: #000000; stroke-width: 0.8"/>
      </g>
     </g>
     <g id="text_9">
      <!-- $\mathdefault{10^{-3}}$ -->
      <g transform="translate(19.69649 313.668936) scale(0.14 -0.14)">
       <defs>
        <path id="Calibri-2212" d="M 2934 1797 
Q 2934 1681 2904 1628 
Q 2875 1575 2819 1575 
L 356 1575 
Q 297 1575 267 1628 
Q 238 1681 238 1797 
Q 238 1909 267 1964 
Q 297 2019 356 2019 
L 2819 2019 
Q 2875 2019 2904 1966 
Q 2934 1913 2934 1797 
z
" transform="scale(0.015625)"/>
       </defs>
       <use xlink:href="#Calibri-31" transform="translate(0 0.442188)"/>
       <use xlink:href="#Calibri-30" transform="translate(50.683594 0.442188)"/>
       <use xlink:href="#Calibri-2212" transform="translate(102.184219 33.123438) scale(0.7)"/>
       <use xlink:href="#Calibri-33" transform="translate(137.0475 33.123438) scale(0.7)"/>
      </g>
     </g>
    </g>
    <g id="ytick_2">
     <g id="line2d_9">
      <g>
       <use xlink:href="#m70bf4e2229" x="51.19649" y="259.821712" style="stroke: #000000; stroke-width: 0.8"/>
      </g>
     </g>
     <g id="text_10">
      <!-- $\mathdefault{10^{-2}}$ -->
      <g transform="translate(19.69649 264.582806) scale(0.14 -0.14)">
       <use xlink:href="#Calibri-31" transform="translate(0 0.442188)"/>
       <use xlink:href="#Calibri-30" transform="translate(50.683594 0.442188)"/>
       <use xlink:href="#Calibri-2212" transform="translate(102.184219 33.123438) scale(0.7)"/>
       <use xlink:href="#Calibri-32" transform="translate(137.0475 33.123438) scale(0.7)"/>
      </g>
     </g>
    </g>
    <g id="ytick_3">
     <g id="line2d_10">
      <g>
       <use xlink:href="#m70bf4e2229" x="51.19649" y="210.735583" style="stroke: #000000; stroke-width: 0.8"/>
      </g>
     </g>
     <g id="text_11">
      <!-- $\mathdefault{10^{-1}}$ -->
      <g transform="translate(19.69649 215.496676) scale(0.14 -0.14)">
       <use xlink:href="#Calibri-31" transform="translate(0 0.78125)"/>
       <use xlink:href="#Calibri-30" transform="translate(50.683594 0.78125)"/>
       <use xlink:href="#Calibri-2212" transform="translate(102.184219 33.4625) scale(0.7)"/>
       <use xlink:href="#Calibri-31" transform="translate(137.0475 33.4625) scale(0.7)"/>
      </g>
     </g>
    </g>
    <g id="ytick_4">
     <g id="line2d_11">
      <g>
       <use xlink:href="#m70bf4e2229" x="51.19649" y="161.649453" style="stroke: #000000; stroke-width: 0.8"/>
      </g>
     </g>
     <g id="text_12">
      <!-- $\mathdefault{10^{0}}$ -->
      <g transform="translate(24.59649 166.410547) scale(0.14 -0.14)">
       <use xlink:href="#Calibri-31" transform="translate(0 0.442188)"/>
       <use xlink:href="#Calibri-30" transform="translate(50.683594 0.442188)"/>
       <use xlink:href="#Calibri-30" transform="translate(102.184219 33.123438) scale(0.7)"/>
      </g>
     </g>
    </g>
    <g id="ytick_5">
     <g id="line2d_12">
      <g>
       <use xlink:href="#m70bf4e2229" x="51.19649" y="112.563323" style="stroke: #000000; stroke-width: 0.8"/>
      </g>
     </g>
     <g id="text_13">
      <!-- $\mathdefault{10^{1}}$ -->
      <g transform="translate(24.59649 117.324417) scale(0.14 -0.14)">
       <use xlink:href="#Calibri-31" transform="translate(0 0.78125)"/>
       <use xlink:href="#Calibri-30" transform="translate(50.683594 0.78125)"/>
       <use xlink:href="#Calibri-31" transform="translate(102.184219 33.4625) scale(0.7)"/>
      </g>
     </g>
    </g>
    <g id="ytick_6">
     <g id="line2d_13">
      <g>
       <use xlink:href="#m70bf4e2229" x="51.19649" y="63.477194" style="stroke: #000000; stroke-width: 0.8"/>
      </g>
     </g>
     <g id="text_14">
      <!-- $\mathdefault{10^{2}}$ -->
      <g transform="translate(24.59649 68.238287) scale(0.14 -0.14)">
       <use xlink:href="#Calibri-31" transform="translate(0 0.442188)"/>
       <use xlink:href="#Calibri-30" transform="translate(50.683594 0.442188)"/>
       <use xlink:href="#Calibri-32" transform="translate(102.184219 33.123438) scale(0.7)"/>
      </g>
     </g>
    </g>
    <g id="ytick_7">
     <g id="line2d_14">
      <g>
       <use xlink:href="#m70bf4e2229" x="51.19649" y="14.391064" style="stroke: #000000; stroke-width: 0.8"/>
      </g>
     </g>
     <g id="text_15">
      <!-- $\mathdefault{10^{3}}$ -->
      <g transform="translate(24.59649 19.152158) scale(0.14 -0.14)">
       <use xlink:href="#Calibri-31" transform="translate(0 0.442188)"/>
       <use xlink:href="#Calibri-30" transform="translate(50.683594 0.442188)"/>
       <use xlink:href="#Calibri-33" transform="translate(102.184219 33.123438) scale(0.7)"/>
      </g>
     </g>
    </g>
    <g id="ytick_8">
     <g id="line2d_15">
      <defs>
       <path id="m7a93685c6b" d="M 0 0 
L -2 0 
" style="stroke: #000000; stroke-width: 0.6"/>
      </defs>
      <g>
       <use xlink:href="#m7a93685c6b" x="51.19649" y="319.797538" style="stroke: #000000; stroke-width: 0.6"/>
      </g>
     </g>
    </g>
    <g id="ytick_9">
     <g id="line2d_16">
      <g>
       <use xlink:href="#m7a93685c6b" x="51.19649" y="316.51138" style="stroke: #000000; stroke-width: 0.6"/>
      </g>
     </g>
    </g>
    <g id="ytick_10">
     <g id="line2d_17">
      <g>
       <use xlink:href="#m7a93685c6b" x="51.19649" y="313.664779" style="stroke: #000000; stroke-width: 0.6"/>
      </g>
     </g>
    </g>
    <g id="ytick_11">
     <g id="line2d_18">
      <g>
       <use xlink:href="#m7a93685c6b" x="51.19649" y="311.1539" style="stroke: #000000; stroke-width: 0.6"/>
      </g>
     </g>
    </g>
    <g id="ytick_12">
     <g id="line2d_19">
      <g>
       <use xlink:href="#m7a93685c6b" x="51.19649" y="294.131444" style="stroke: #000000; stroke-width: 0.6"/>
      </g>
     </g>
    </g>
    <g id="ytick_13">
     <g id="line2d_20">
      <g>
       <use xlink:href="#m7a93685c6b" x="51.19649" y="285.487806" style="stroke: #000000; stroke-width: 0.6"/>
      </g>
     </g>
    </g>
    <g id="ytick_14">
     <g id="line2d_21">
      <g>
       <use xlink:href="#m7a93685c6b" x="51.19649" y="279.355047" style="stroke: #000000; stroke-width: 0.6"/>
      </g>
     </g>
    </g>
    <g id="ytick_15">
     <g id="line2d_22">
      <g>
       <use xlink:href="#m7a93685c6b" x="51.19649" y="274.59811" style="stroke: #000000; stroke-width: 0.6"/>
      </g>
     </g>
    </g>
    <g id="ytick_16">
     <g id="line2d_23">
      <g>
       <use xlink:href="#m7a93685c6b" x="51.19649" y="270.711409" style="stroke: #000000; stroke-width: 0.6"/>
      </g>
     </g>
    </g>
    <g id="ytick_17">
     <g id="line2d_24">
      <g>
       <use xlink:href="#m7a93685c6b" x="51.19649" y="267.42525" style="stroke: #000000; stroke-width: 0.6"/>
      </g>
     </g>
    </g>
    <g id="ytick_18">
     <g id="line2d_25">
      <g>
       <use xlink:href="#m7a93685c6b" x="51.19649" y="264.57865" style="stroke: #000000; stroke-width: 0.6"/>
      </g>
     </g>
    </g>
    <g id="ytick_19">
     <g id="line2d_26">
      <g>
       <use xlink:href="#m7a93685c6b" x="51.19649" y="262.06777" style="stroke: #000000; stroke-width: 0.6"/>
      </g>
     </g>
    </g>
    <g id="ytick_20">
     <g id="line2d_27">
      <g>
       <use xlink:href="#m7a93685c6b" x="51.19649" y="245.045315" style="stroke: #000000; stroke-width: 0.6"/>
      </g>
     </g>
    </g>
    <g id="ytick_21">
     <g id="line2d_28">
      <g>
       <use xlink:href="#m7a93685c6b" x="51.19649" y="236.401676" style="stroke: #000000; stroke-width: 0.6"/>
      </g>
     </g>
    </g>
    <g id="ytick_22">
     <g id="line2d_29">
      <g>
       <use xlink:href="#m7a93685c6b" x="51.19649" y="230.268917" style="stroke: #000000; stroke-width: 0.6"/>
      </g>
     </g>
    </g>
    <g id="ytick_23">
     <g id="line2d_30">
      <g>
       <use xlink:href="#m7a93685c6b" x="51.19649" y="225.51198" style="stroke: #000000; stroke-width: 0.6"/>
      </g>
     </g>
    </g>
    <g id="ytick_24">
     <g id="line2d_31">
      <g>
       <use xlink:href="#m7a93685c6b" x="51.19649" y="221.625279" style="stroke: #000000; stroke-width: 0.6"/>
      </g>
     </g>
    </g>
    <g id="ytick_25">
     <g id="line2d_32">
      <g>
       <use xlink:href="#m7a93685c6b" x="51.19649" y="218.33912" style="stroke: #000000; stroke-width: 0.6"/>
      </g>
     </g>
    </g>
    <g id="ytick_26">
     <g id="line2d_33">
      <g>
       <use xlink:href="#m7a93685c6b" x="51.19649" y="215.49252" style="stroke: #000000; stroke-width: 0.6"/>
      </g>
     </g>
    </g>
    <g id="ytick_27">
     <g id="line2d_34">
      <g>
       <use xlink:href="#m7a93685c6b" x="51.19649" y="212.981641" style="stroke: #000000; stroke-width: 0.6"/>
      </g>
     </g>
    </g>
    <g id="ytick_28">
     <g id="line2d_35">
      <g>
       <use xlink:href="#m7a93685c6b" x="51.19649" y="195.959185" style="stroke: #000000; stroke-width: 0.6"/>
      </g>
     </g>
    </g>
    <g id="ytick_29">
     <g id="line2d_36">
      <g>
       <use xlink:href="#m7a93685c6b" x="51.19649" y="187.315547" style="stroke: #000000; stroke-width: 0.6"/>
      </g>
     </g>
    </g>
    <g id="ytick_30">
     <g id="line2d_37">
      <g>
       <use xlink:href="#m7a93685c6b" x="51.19649" y="181.182788" style="stroke: #000000; stroke-width: 0.6"/>
      </g>
     </g>
    </g>
    <g id="ytick_31">
     <g id="line2d_38">
      <g>
       <use xlink:href="#m7a93685c6b" x="51.19649" y="176.42585" style="stroke: #000000; stroke-width: 0.6"/>
      </g>
     </g>
    </g>
    <g id="ytick_32">
     <g id="line2d_39">
      <g>
       <use xlink:href="#m7a93685c6b" x="51.19649" y="172.539149" style="stroke: #000000; stroke-width: 0.6"/>
      </g>
     </g>
    </g>
    <g id="ytick_33">
     <g id="line2d_40">
      <g>
       <use xlink:href="#m7a93685c6b" x="51.19649" y="169.252991" style="stroke: #000000; stroke-width: 0.6"/>
      </g>
     </g>
    </g>
    <g id="ytick_34">
     <g id="line2d_41">
      <g>
       <use xlink:href="#m7a93685c6b" x="51.19649" y="166.40639" style="stroke: #000000; stroke-width: 0.6"/>
      </g>
     </g>
    </g>
    <g id="ytick_35">
     <g id="line2d_42">
      <g>
       <use xlink:href="#m7a93685c6b" x="51.19649" y="163.895511" style="stroke: #000000; stroke-width: 0.6"/>
      </g>
     </g>
    </g>
    <g id="ytick_36">
     <g id="line2d_43">
      <g>
       <use xlink:href="#m7a93685c6b" x="51.19649" y="146.873056" style="stroke: #000000; stroke-width: 0.6"/>
      </g>
     </g>
    </g>
    <g id="ytick_37">
     <g id="line2d_44">
      <g>
       <use xlink:href="#m7a93685c6b" x="51.19649" y="138.229417" style="stroke: #000000; stroke-width: 0.6"/>
      </g>
     </g>
    </g>
    <g id="ytick_38">
     <g id="line2d_45">
      <g>
       <use xlink:href="#m7a93685c6b" x="51.19649" y="132.096658" style="stroke: #000000; stroke-width: 0.6"/>
      </g>
     </g>
    </g>
    <g id="ytick_39">
     <g id="line2d_46">
      <g>
       <use xlink:href="#m7a93685c6b" x="51.19649" y="127.339721" style="stroke: #000000; stroke-width: 0.6"/>
      </g>
     </g>
    </g>
    <g id="ytick_40">
     <g id="line2d_47">
      <g>
       <use xlink:href="#m7a93685c6b" x="51.19649" y="123.45302" style="stroke: #000000; stroke-width: 0.6"/>
      </g>
     </g>
    </g>
    <g id="ytick_41">
     <g id="line2d_48">
      <g>
       <use xlink:href="#m7a93685c6b" x="51.19649" y="120.166861" style="stroke: #000000; stroke-width: 0.6"/>
      </g>
     </g>
    </g>
    <g id="ytick_42">
     <g id="line2d_49">
      <g>
       <use xlink:href="#m7a93685c6b" x="51.19649" y="117.320261" style="stroke: #000000; stroke-width: 0.6"/>
      </g>
     </g>
    </g>
    <g id="ytick_43">
     <g id="line2d_50">
      <g>
       <use xlink:href="#m7a93685c6b" x="51.19649" y="114.809381" style="stroke: #000000; stroke-width: 0.6"/>
      </g>
     </g>
    </g>
    <g id="ytick_44">
     <g id="line2d_51">
      <g>
       <use xlink:href="#m7a93685c6b" x="51.19649" y="97.786926" style="stroke: #000000; stroke-width: 0.6"/>
      </g>
     </g>
    </g>
    <g id="ytick_45">
     <g id="line2d_52">
      <g>
       <use xlink:href="#m7a93685c6b" x="51.19649" y="89.143288" style="stroke: #000000; stroke-width: 0.6"/>
      </g>
     </g>
    </g>
    <g id="ytick_46">
     <g id="line2d_53">
      <g>
       <use xlink:href="#m7a93685c6b" x="51.19649" y="83.010529" style="stroke: #000000; stroke-width: 0.6"/>
      </g>
     </g>
    </g>
    <g id="ytick_47">
     <g id="line2d_54">
      <g>
       <use xlink:href="#m7a93685c6b" x="51.19649" y="78.253591" style="stroke: #000000; stroke-width: 0.6"/>
      </g>
     </g>
    </g>
    <g id="ytick_48">
     <g id="line2d_55">
      <g>
       <use xlink:href="#m7a93685c6b" x="51.19649" y="74.36689" style="stroke: #000000; stroke-width: 0.6"/>
      </g>
     </g>
    </g>
    <g id="ytick_49">
     <g id="line2d_56">
      <g>
       <use xlink:href="#m7a93685c6b" x="51.19649" y="71.080731" style="stroke: #000000; stroke-width: 0.6"/>
      </g>
     </g>
    </g>
    <g id="ytick_50">
     <g id="line2d_57">
      <g>
       <use xlink:href="#m7a93685c6b" x="51.19649" y="68.234131" style="stroke: #000000; stroke-width: 0.6"/>
      </g>
     </g>
    </g>
    <g id="ytick_51">
     <g id="line2d_58">
      <g>
       <use xlink:href="#m7a93685c6b" x="51.19649" y="65.723252" style="stroke: #000000; stroke-width: 0.6"/>
      </g>
     </g>
    </g>
    <g id="ytick_52">
     <g id="line2d_59">
      <g>
       <use xlink:href="#m7a93685c6b" x="51.19649" y="48.700796" style="stroke: #000000; stroke-width: 0.6"/>
      </g>
     </g>
    </g>
    <g id="ytick_53">
     <g id="line2d_60">
      <g>
       <use xlink:href="#m7a93685c6b" x="51.19649" y="40.057158" style="stroke: #000000; stroke-width: 0.6"/>
      </g>
     </g>
    </g>
    <g id="ytick_54">
     <g id="line2d_61">
      <g>
       <use xlink:href="#m7a93685c6b" x="51.19649" y="33.924399" style="stroke: #000000; stroke-width: 0.6"/>
      </g>
     </g>
    </g>
    <g id="ytick_55">
     <g id="line2d_62">
      <g>
       <use xlink:href="#m7a93685c6b" x="51.19649" y="29.167461" style="stroke: #000000; stroke-width: 0.6"/>
      </g>
     </g>
    </g>
    <g id="ytick_56">
     <g id="line2d_63">
      <g>
       <use xlink:href="#m7a93685c6b" x="51.19649" y="25.280761" style="stroke: #000000; stroke-width: 0.6"/>
      </g>
     </g>
    </g>
    <g id="ytick_57">
     <g id="line2d_64">
      <g>
       <use xlink:href="#m7a93685c6b" x="51.19649" y="21.994602" style="stroke: #000000; stroke-width: 0.6"/>
      </g>
     </g>
    </g>
    <g id="ytick_58">
     <g id="line2d_65">
      <g>
       <use xlink:href="#m7a93685c6b" x="51.19649" y="19.148002" style="stroke: #000000; stroke-width: 0.6"/>
      </g>
     </g>
    </g>
    <g id="ytick_59">
     <g id="line2d_66">
      <g>
       <use xlink:href="#m7a93685c6b" x="51.19649" y="16.637122" style="stroke: #000000; stroke-width: 0.6"/>
      </g>
     </g>
    </g>
    <g id="text_16">
     <!-- $\mathdefault{MSE_f}$ -->
     <g transform="translate(12.714927 179.164755) rotate(-90) scale(0.14 -0.14)">
      <defs>
       <path id="LiberationSerif-4d" d="M 2694 0 
L 2584 0 
L 1050 3603 
L 1050 250 
L 1613 166 
L 1613 0 
L 184 0 
L 184 166 
L 722 250 
L 722 3944 
L 184 4025 
L 184 4191 
L 1453 4191 
L 2816 1003 
L 4303 4191 
L 5503 4191 
L 5503 4025 
L 4966 3944 
L 4966 250 
L 5503 166 
L 5503 0 
L 3803 0 
L 3803 166 
L 4366 250 
L 4366 3603 
L 2694 0 
z
" transform="scale(0.015625)"/>
       <path id="LiberationSerif-53" d="M 434 1128 
L 638 1128 
L 747 563 
Q 863 416 1145 303 
Q 1428 191 1703 191 
Q 2141 191 2386 414 
Q 2631 638 2631 1031 
Q 2631 1256 2536 1403 
Q 2441 1550 2286 1651 
Q 2131 1753 1934 1823 
Q 1738 1894 1530 1966 
Q 1322 2038 1125 2125 
Q 928 2213 773 2347 
Q 619 2481 523 2679 
Q 428 2878 428 3169 
Q 428 3669 803 3953 
Q 1178 4238 1844 4238 
Q 2350 4238 2944 4103 
L 2944 3231 
L 2741 3231 
L 2631 3744 
Q 2313 3975 1844 3975 
Q 1425 3975 1189 3804 
Q 953 3634 953 3334 
Q 953 3131 1048 2997 
Q 1144 2863 1298 2767 
Q 1453 2672 1651 2603 
Q 1850 2534 2058 2461 
Q 2266 2388 2464 2295 
Q 2663 2203 2817 2061 
Q 2972 1919 3067 1714 
Q 3163 1509 3163 1209 
Q 3163 603 2791 270 
Q 2419 -63 1719 -63 
Q 1381 -63 1040 -3 
Q 700 56 434 159 
L 434 1128 
z
" transform="scale(0.015625)"/>
       <path id="LiberationSerif-45" d="M 184 166 
L 722 250 
L 722 3944 
L 184 4025 
L 184 4191 
L 3328 4191 
L 3328 3188 
L 3122 3188 
L 3022 3866 
Q 2672 3909 2009 3909 
L 1325 3909 
L 1325 2272 
L 2456 2272 
L 2553 2772 
L 2753 2772 
L 2753 1484 
L 2553 1484 
L 2456 1991 
L 1325 1991 
L 1325 281 
L 2150 281 
Q 2956 281 3206 331 
L 3384 1106 
L 3591 1106 
L 3531 0 
L 184 0 
L 184 166 
z
" transform="scale(0.015625)"/>
       <path id="LiberationSerif-66" d="M 703 2675 
L 197 2675 
L 197 2828 
L 703 2950 
L 703 3156 
Q 703 3806 961 4156 
Q 1219 4506 1684 4506 
Q 1925 4506 2131 4447 
L 2131 3806 
L 1978 3806 
L 1838 4191 
Q 1731 4256 1581 4256 
Q 1384 4256 1303 4081 
Q 1222 3906 1222 3425 
L 1222 2938 
L 2003 2938 
L 2003 2675 
L 1222 2675 
L 1222 244 
L 1856 141 
L 1856 0 
L 269 0 
L 269 141 
L 703 244 
L 703 2675 
z
" transform="scale(0.015625)"/>
      </defs>
      <use xlink:href="#LiberationSerif-4d" transform="translate(0 0.78125)"/>
      <use xlink:href="#LiberationSerif-53" transform="translate(88.916016 0.78125)"/>
      <use xlink:href="#LiberationSerif-45" transform="translate(144.53125 0.78125)"/>
      <use xlink:href="#LiberationSerif-66" transform="translate(206.418594 -12.990625) scale(0.7)"/>
     </g>
    </g>
   </g>
   <g id="line2d_67">
    <path d="M 53.86027 7.35569 
L 54.140667 7.386363 
L 54.421065 7.757925 
L 54.701463 9.045431 
L 54.701463 10.327451 
L 55.542657 19.77536 
L 55.542657 19.567806 
L 55.682856 19.413456 
L 56.103452 20.506776 
L 56.38385 20.28358 
L 56.38385 20.595001 
L 57.505442 24.63339 
L 58.066237 25.577716 
L 58.346635 26.622501 
L 59.608426 32.32327 
L 59.748625 32.848798 
L 59.748625 33.424019 
L 60.169221 35.58637 
L 60.870216 39.838004 
L 62.412404 54.720162 
L 62.412404 56.580198 
L 62.552603 57.269953 
L 62.833001 61.023238 
L 62.9732 61.600992 
L 64.094791 82.15906 
L 64.515388 90.409486 
L 65.216383 105.945808 
L 66.89877 157.375464 
L 67.179168 158.837522 
L 67.459566 155.094545 
L 67.459566 150.225046 
L 67.599765 148.408648 
L 67.739963 141.802926 
L 67.880162 141.100395 
L 68.020361 138.08777 
L 68.300759 150.088273 
L 68.440958 161.91113 
L 68.721356 150.729932 
L 68.861555 150.250008 
L 69.282152 170.372114 
L 69.282152 166.191633 
L 69.422351 160.568786 
L 69.56255 160.609352 
L 69.983146 178.502044 
L 70.123345 175.808142 
L 70.123345 170.186768 
L 70.263544 169.936879 
L 70.403743 170.685736 
L 70.684141 182.569982 
L 70.82434 183.968567 
L 70.964539 182.248218 
L 70.964539 177.207447 
L 71.104738 178.534968 
L 71.244937 177.613769 
L 71.525335 185.97306 
L 71.665533 189.419958 
L 71.805732 189.326046 
L 71.805732 185.933065 
L 71.945931 185.886497 
L 72.08613 182.287473 
L 72.226329 184.975896 
L 72.366528 183.428846 
L 72.506727 187.826135 
L 72.646926 187.899042 
L 72.646926 191.975001 
L 72.787125 192.170416 
L 72.927324 194.358057 
L 73.067523 194.62671 
L 73.207722 194.407552 
L 73.347921 195.516146 
L 73.628318 189.831756 
L 73.768517 192.612205 
L 73.908716 184.931371 
L 74.048915 186.761441 
L 74.189114 176.100058 
L 74.329313 175.143499 
L 74.329313 162.215427 
L 74.469512 158.522246 
L 74.609711 146.325875 
L 74.74991 155.283478 
L 75.030308 191.219309 
L 75.310706 160.367102 
L 75.310706 170.708548 
L 75.450905 195.31871 
L 75.591103 187.18096 
L 75.731302 168.466729 
L 75.871501 164.83247 
L 76.0117 174.355319 
L 76.151899 176.306804 
L 76.151899 179.088089 
L 76.993093 199.587382 
L 77.133292 199.050821 
L 77.694087 195.474429 
L 77.834286 195.37049 
L 77.834286 195.67332 
L 78.114684 197.108821 
L 78.395082 198.793607 
L 79.93727 199.499109 
L 317.294055 199.600023 
L 318.555846 199.61267 
L 318.555846 199.61267 
L 319.677437 199.61267 
L 471.793274 199.663337 
L 471.793274 199.663337 
" clip-path="url(#pe695578f52)" style="fill: none; stroke: #1f77b4; stroke-linecap: square"/>
   </g>
   <g id="line2d_68">
    <path d="M 51.336689 7.34037 
L 51.757286 7.679981 
L 52.037684 8.424162 
L 52.177882 9.045431 
L 52.177882 9.874234 
L 52.45828 12.456378 
L 52.878877 19.5081 
L 53.299474 32.935116 
L 53.579872 39.303207 
L 53.579872 37.723875 
L 53.86027 34.956241 
L 54.000469 36.140869 
L 54.280866 43.421626 
L 54.981861 73.404759 
L 54.981861 78.30909 
L 55.262259 81.98566 
L 55.542657 79.244079 
L 55.682856 79.809812 
L 55.823055 82.925427 
L 56.524049 110.922681 
L 56.664248 109.380961 
L 56.804447 109.271075 
L 57.365243 117.018626 
L 57.645641 125.865531 
L 57.78584 127.770399 
L 57.78584 129.963349 
L 57.926039 130.500474 
L 58.206436 131.969133 
L 58.486834 131.674509 
L 58.627033 132.451337 
L 59.748625 145.681226 
L 59.888824 145.341253 
L 60.169221 148.124178 
L 60.449619 149.817332 
L 60.730017 156.587728 
L 60.870216 156.94374 
L 61.010415 155.828066 
L 61.150614 156.353647 
L 61.290813 154.660105 
L 61.431012 156.056415 
L 61.571211 155.69867 
L 61.71141 159.910344 
L 61.851609 160.447546 
L 61.851609 162.932248 
L 61.991807 163.919211 
L 62.272205 164.188864 
L 62.412404 164.56438 
L 62.552603 165.328256 
L 62.833001 164.807734 
L 62.9732 163.850554 
L 63.253598 158.211565 
L 63.393797 158.762919 
L 63.533996 160.107733 
L 63.954592 171.166659 
L 64.094791 169.724105 
L 64.23499 165.807329 
L 64.375189 165.763329 
L 64.515388 164.121729 
L 64.935985 173.892244 
L 65.076184 171.577018 
L 65.216383 172.130938 
L 65.356582 169.301773 
L 65.496781 172.183286 
L 65.63698 171.451728 
L 65.777179 175.528344 
L 65.917377 175.762631 
L 66.057576 178.152449 
L 66.197775 177.1368 
L 66.337974 178.217273 
L 66.478173 175.791582 
L 66.618372 177.595745 
L 66.758571 175.067357 
L 66.89877 177.407407 
L 67.038969 175.573358 
L 67.179168 178.478559 
L 67.319367 177.203025 
L 67.599765 182.03083 
L 67.739963 180.449424 
L 67.880162 183.257807 
L 68.020361 181.418583 
L 68.16056 184.231338 
L 68.300759 181.657016 
L 68.440958 184.047668 
L 68.581157 180.036364 
L 68.721356 181.689737 
L 69.282152 159.578922 
L 69.422351 161.521928 
L 69.56255 158.707138 
L 69.702748 164.971527 
L 69.983146 191.772601 
L 70.263544 171.293631 
L 70.263544 176.74804 
L 70.403743 189.688309 
L 70.543942 190.048754 
L 70.82434 173.584047 
L 70.964539 177.927105 
L 71.244937 193.259651 
L 71.525335 183.883708 
L 71.665533 186.963178 
L 71.665533 192.512228 
L 71.805732 191.606838 
L 72.08613 183.541655 
L 72.226329 186.384003 
L 72.506727 193.888654 
L 72.787125 190.630148 
L 73.067523 193.676918 
L 73.067523 192.403694 
L 73.347921 189.263668 
L 73.768517 194.38774 
L 74.048915 193.590901 
L 74.189114 194.102515 
L 74.329313 194.112287 
L 74.469512 193.091278 
L 74.469512 192.152576 
L 74.609711 192.358634 
L 74.890109 194.606693 
L 75.030308 194.888652 
L 75.310706 194.787524 
L 75.450905 194.777437 
L 75.871501 193.686496 
L 75.871501 194.122063 
L 76.151899 195.256739 
L 76.432297 195.380861 
L 76.572496 195.31871 
L 76.993093 194.686873 
L 77.133292 194.838028 
L 77.273491 195.215525 
L 77.273491 195.578877 
L 77.553888 195.83166 
L 77.834286 195.683839 
L 78.114684 195.432792 
L 78.254883 195.505709 
L 78.815679 196.248936 
L 79.236276 196.044628 
L 79.516673 196.248936 
L 79.93727 196.663523 
L 80.638265 196.773979 
L 81.058862 197.097574 
L 81.759856 197.289577 
L 82.320652 197.586615 
L 82.741249 197.701972 
L 83.442243 198.051835 
L 84.003039 198.21709 
L 85.825625 199.038502 
L 87.227614 199.637988 
L 90.311991 200.91692 
L 103.350491 205.825707 
L 104.472083 206.201512 
L 107.135862 207.081085 
L 109.098647 207.68214 
L 110.500637 208.130167 
L 113.444814 209.016131 
L 113.444814 209.055499 
L 114.286008 209.273333 
L 127.04411 212.792986 
L 130.128486 213.577311 
L 130.128486 213.608999 
L 144.849374 217.091208 
L 146.952358 217.538188 
L 146.952358 217.561666 
L 161.813444 220.571648 
L 164.196826 221.026217 
L 171.48717 222.351663 
L 177.936321 223.476298 
L 181.861891 224.125502 
L 183.684477 224.43942 
L 192.657208 225.886175 
L 195.881784 226.386658 
L 195.881784 226.404434 
L 213.967445 229.162935 
L 240.745441 233.121609 
L 240.745441 233.145994 
L 242.708226 233.422254 
L 250.419167 234.538494 
L 250.419167 234.558036 
L 267.803834 237.087661 
L 269.486221 237.331212 
L 272.15 237.720726 
L 279.300146 238.774438 
L 280.561936 238.949895 
L 284.908103 239.583869 
L 288.693474 240.135439 
L 291.77785 240.588936 
L 296.544614 241.274399 
L 296.544614 241.292269 
L 303.414361 242.280144 
L 303.414361 242.298877 
L 314.490077 243.873653 
L 314.490077 243.903942 
L 316.032265 244.117173 
L 343.090658 247.95291 
L 345.193642 248.235759 
L 348.558416 248.724118 
L 350.801599 249.030304 
L 350.801599 249.043158 
L 353.605578 249.406244 
L 353.605578 249.419326 
L 355.708561 249.70919 
L 358.51254 250.083901 
L 360.335126 250.328312 
L 362.718508 250.658615 
L 364.541094 250.909744 
L 367.485271 251.292073 
L 367.485271 251.320669 
L 371.55104 251.842055 
L 372.95303 252.033512 
L 377.439395 252.61842 
L 377.439395 252.633631 
L 378.560987 252.771018 
L 383.047352 253.361061 
L 383.047352 253.392573 
L 384.028745 253.48739 
L 385.290535 253.662323 
L 391.599487 254.492675 
L 405.338982 256.221161 
L 405.338982 256.239174 
L 406.320374 256.34757 
L 423.705042 258.499252 
L 424.686434 258.599666 
L 428.752203 259.088348 
L 429.733595 259.191583 
L 432.677773 259.588496 
L 432.817972 259.504319 
L 432.958171 259.63071 
L 433.09837 259.504319 
L 433.09837 259.673007 
L 433.238569 259.462355 
L 433.378768 259.715389 
L 433.518966 259.357804 
L 433.659165 259.715389 
L 433.799364 259.088348 
L 433.939563 259.588496 
L 434.079762 258.399309 
L 434.219961 258.965123 
L 434.36016 256.694506 
L 434.500359 256.953805 
L 434.500359 252.633631 
L 434.640558 251.536365 
L 435.061155 230.94023 
L 435.201354 238.21011 
L 435.341553 255.013673 
L 435.481751 256.712923 
L 435.762149 240.946494 
L 435.902348 248.248142 
L 435.902348 259.150229 
L 436.042547 255.253202 
L 436.182746 246.19495 
L 436.322945 244.717423 
L 436.463144 251.092973 
L 436.883741 254.979674 
L 437.444536 259.885762 
L 437.584735 259.902874 
L 437.865133 259.420473 
L 438.28573 258.801924 
L 438.566128 258.903777 
L 438.706327 259.088348 
L 438.706327 259.295319 
L 438.986725 259.715389 
L 440.809311 259.892177 
L 442.912295 259.902874 
L 442.912295 259.902874 
L 471.933473 259.900735 
L 471.933473 259.900735 
" clip-path="url(#pe695578f52)" style="fill: none; stroke-dasharray: 3.7,1.6; stroke-dashoffset: 0; stroke: #1f77b4"/>
   </g>
   <g id="line2d_69">
    <path d="M 51.476888 6.134642 
L 51.897485 6.632471 
L 52.037684 7.325061 
L 52.45828 10.826553 
L 53.439673 33.967077 
L 53.720071 35.147282 
L 54.421065 72.103785 
L 54.701463 78.326195 
L 54.841662 86.632408 
L 55.12206 96.474486 
L 55.262259 108.306787 
L 55.542657 113.061542 
L 55.682856 112.887678 
L 56.103452 116.176362 
L 56.524049 138.158476 
L 56.664248 136.359724 
L 56.944646 140.689727 
L 57.084845 140.006933 
L 57.505442 150.755493 
L 57.78584 156.337025 
L 57.926039 162.254868 
L 58.066237 159.851482 
L 58.346635 170.829533 
L 58.486834 162.993464 
L 58.767232 167.722605 
L 59.187829 166.818043 
L 59.328028 169.065007 
L 59.608426 163.498922 
L 59.748625 169.095215 
L 60.029022 166.669147 
L 60.169221 168.8398 
L 60.30942 168.581507 
L 60.589818 166.313328 
L 60.730017 180.771091 
L 61.010415 185.504518 
L 61.150614 181.26288 
L 61.431012 192.045854 
L 61.571211 183.859524 
L 61.851609 185.727606 
L 61.991807 197.701972 
L 62.132006 193.063344 
L 62.552603 197.841228 
L 62.833001 195.694364 
L 62.9732 201.242183 
L 63.253598 199.944174 
L 63.393797 198.3002 
L 63.674195 199.96989 
L 63.814394 199.777778 
L 64.23499 203.006639 
L 64.375189 202.177387 
L 64.795786 203.39588 
L 65.216383 203.86946 
L 65.496781 203.350603 
L 65.917377 204.196355 
L 66.197775 204.897978 
L 66.478173 204.914195 
L 67.038969 205.573222 
L 67.459566 205.556496 
L 67.739963 205.724354 
L 68.020361 206.287854 
L 68.721356 206.601613 
L 68.861555 206.795654 
L 69.702748 207.315845 
L 69.842947 207.534866 
L 70.964539 208.224703 
L 71.104738 208.376838 
L 71.805732 208.800896 
L 72.08613 209.09494 
L 72.787125 209.513536 
L 73.347921 209.940517 
L 74.189114 210.523463 
L 74.74991 210.969223 
L 75.450905 211.406895 
L 76.151899 211.988966 
L 76.852894 212.429843 
L 77.553888 213.0172 
L 78.254883 213.458291 
L 78.815679 213.901281 
L 79.236276 214.197627 
L 79.797071 214.638491 
L 80.498066 215.080823 
L 81.058862 215.524521 
L 81.479458 215.820121 
L 82.040254 216.263063 
L 82.741249 216.706939 
L 83.442243 217.29902 
L 84.143238 217.741539 
L 84.704034 218.181345 
L 85.124631 218.476606 
L 85.685426 218.916356 
L 86.386421 219.355784 
L 86.947217 219.794677 
L 87.367813 220.086864 
L 87.928609 220.524357 
L 88.629604 220.960682 
L 89.330598 221.540178 
L 90.031593 221.972734 
L 90.592389 222.403191 
L 91.012986 222.688842 
L 91.573781 223.118911 
L 92.274776 223.546167 
L 92.975771 224.11352 
L 93.676765 224.532875 
L 94.237561 224.95649 
L 94.658158 225.232426 
L 95.218953 225.648853 
L 95.919948 226.064824 
L 96.480744 226.475687 
L 96.901341 226.749543 
L 97.462136 227.160128 
L 98.163131 227.564688 
L 98.864125 228.106696 
L 99.56512 228.505263 
L 100.125916 228.906424 
L 100.546513 229.167996 
L 101.107308 229.566471 
L 101.808303 229.956776 
L 102.509298 230.477786 
L 103.210292 230.86337 
L 103.771088 231.250475 
L 104.191685 231.50874 
L 104.75248 231.884846 
L 105.453475 232.267707 
L 106.15447 232.771138 
L 106.855464 233.145994 
L 107.41626 233.515143 
L 108.257454 234.004797 
L 108.818249 234.376331 
L 109.939841 234.985921 
L 110.640835 235.463332 
L 111.762427 236.063291 
L 112.463422 236.544271 
L 113.164416 236.897713 
L 113.865411 237.368357 
L 114.566405 237.720726 
L 115.127201 238.063648 
L 115.968395 238.52963 
L 116.52919 238.877942 
L 117.230185 239.223927 
L 117.93118 239.683099 
L 118.632174 240.025662 
L 119.333169 240.476805 
L 120.45476 241.043454 
L 121.155755 241.489824 
L 122.277346 242.047364 
L 122.838142 242.383378 
L 123.679336 242.83019 
L 124.240131 243.159355 
L 124.941126 243.493682 
L 125.642121 243.934273 
L 126.763712 244.477367 
L 127.464707 244.91779 
L 128.165701 245.248802 
L 128.866696 245.683653 
L 129.567691 246.004561 
L 130.128486 246.330374 
L 130.96968 246.753429 
L 131.530476 247.079253 
L 132.652067 247.613563 
L 133.353062 248.038598 
L 134.474653 248.572659 
L 135.175648 249.00462 
L 136.297239 249.524276 
L 136.998234 249.949319 
L 138.119825 250.479066 
L 138.82082 250.895714 
L 139.942411 251.406686 
L 140.503207 251.725084 
L 141.064003 252.033512 
L 142.185594 252.557686 
L 142.886589 252.971043 
L 143.587584 253.282485 
L 144.288578 253.694283 
L 145.41017 254.195903 
L 145.970965 254.509285 
L 146.812159 254.911836 
L 147.372955 255.218818 
L 148.214148 255.617618 
L 148.774944 255.917254 
L 149.896535 256.420141 
L 150.176933 256.620996 
L 150.877928 256.916568 
L 151.298525 257.122178 
L 151.999519 257.5203 
L 153.121111 258.004157 
L 153.681906 258.299832 
L 154.5231 258.700555 
L 155.083896 258.985612 
L 155.925089 259.378674 
L 156.485885 259.673007 
L 157.747675 260.256741 
L 158.308471 260.54589 
L 159.430062 261.025414 
L 160.131057 261.407766 
L 161.252648 261.881464 
L 161.953643 262.260499 
L 163.075234 262.729308 
L 163.776229 263.103963 
L 164.897821 263.569025 
L 165.598815 263.938174 
L 166.720407 264.398214 
L 167.421401 264.763314 
L 168.542993 265.216988 
L 169.243987 265.579748 
L 170.365579 266.028501 
L 171.066573 266.385149 
L 172.188165 266.827669 
L 172.889159 267.179988 
L 174.010751 267.617979 
L 174.711746 267.964971 
L 175.833337 268.397242 
L 176.534332 268.737821 
L 177.655923 269.16308 
L 178.356918 269.502787 
L 179.478509 269.919767 
L 180.179504 270.254455 
L 181.301095 270.66527 
L 182.00209 270.993958 
L 183.544278 271.563148 
L 184.245273 271.883555 
L 185.366864 272.281394 
L 186.067859 272.597333 
L 187.18945 272.989072 
L 187.890445 273.299706 
L 189.012036 273.684259 
L 189.713031 273.988687 
L 191.255219 274.517255 
L 191.956214 274.816668 
L 193.218004 275.260624 
L 193.7788 275.481674 
L 194.900391 275.844711 
L 195.601386 276.131411 
L 196.442579 276.417375 
L 197.003375 276.627358 
L 198.545563 277.120717 
L 199.246558 277.396039 
L 200.508348 277.80837 
L 201.489741 278.143068 
L 202.751531 278.544584 
L 203.312327 278.740446 
L 204.574117 279.137652 
L 205.134913 279.328416 
L 206.396703 279.715145 
L 207.378096 280.031861 
L 208.639886 280.403677 
L 209.200682 280.589221 
L 210.462472 280.953735 
L 211.023268 281.138356 
L 212.285058 281.494782 
L 213.266451 281.791444 
L 214.247843 282.080178 
L 215.93023 282.539302 
L 216.911623 282.819599 
L 218.59401 283.263077 
L 219.295005 283.481855 
L 220.837193 283.860327 
L 221.958784 284.178707 
L 223.641171 284.597114 
L 224.762763 284.906024 
L 226.44515 285.303848 
L 227.426542 285.551856 
L 229.10893 285.940248 
L 230.090322 286.18113 
L 231.492311 286.514055 
L 233.174698 286.882585 
L 234.29629 287.157461 
L 236.399274 287.600062 
L 237.380666 287.820892 
L 239.623849 288.29384 
L 240.184645 288.423926 
L 241.867032 288.760941 
L 242.848424 288.960719 
L 244.951408 289.365982 
L 246.073 289.605992 
L 249.157376 290.191516 
L 250.559366 290.450025 
L 252.662349 290.820936 
L 254.204538 291.11498 
L 256.728118 291.544903 
L 257.84971 291.753624 
L 261.074285 292.304104 
L 265.981248 293.101498 
L 267.944033 293.418687 
L 270.467613 293.793059 
L 272.009801 294.046343 
L 275.094178 294.496963 
L 276.496167 294.714939 
L 278.178554 294.946238 
L 279.300146 295.113002 
L 284.627705 295.85111 
L 285.609097 295.990215 
L 308.88212 298.782058 
L 312.80769 299.075734 
L 314.770475 299.170031 
L 317.854851 299.129567 
L 317.99505 300.136679 
L 318.275448 299.129567 
L 318.415647 299.062297 
L 318.696044 300.164952 
L 318.836243 299.939811 
L 319.116641 300.179102 
L 319.25684 299.730879 
L 319.397039 299.703175 
L 319.677437 300.207432 
L 320.098034 300.207432 
L 320.238233 299.981844 
L 320.518631 299.967824 
L 320.799028 300.235799 
L 321.640222 300.193262 
L 322.060819 300.193262 
L 322.481416 300.136679 
L 322.902012 300.22161 
L 323.462808 300.193262 
L 325.705991 300.179102 
L 471.933473 300.179102 
L 471.933473 300.179102 
" clip-path="url(#pe695578f52)" style="fill: none; stroke: #ff7f0e; stroke-linecap: square"/>
   </g>
   <g id="line2d_70">
    <path d="M 51.476888 6.163607 
L 51.897485 6.960904 
L 52.318081 9.719569 
L 52.738678 17.477771 
L 53.159275 33.52316 
L 53.299474 37.660278 
L 53.579872 36.247577 
L 54.000469 52.052787 
L 54.140667 66.031018 
L 54.561264 84.701327 
L 54.841662 89.829272 
L 54.981861 98.044287 
L 55.682856 118.770113 
L 55.823055 120.554078 
L 56.103452 127.110723 
L 56.243651 134.289488 
L 56.524049 141.660555 
L 56.664248 139.255666 
L 56.944646 137.85609 
L 57.365243 141.527423 
L 57.645641 145.410806 
L 57.78584 152.293058 
L 58.066237 149.719656 
L 58.486834 158.048902 
L 58.627033 160.247001 
L 58.907431 166.995363 
L 59.04763 167.346134 
L 59.328028 173.439015 
L 59.468227 173.681287 
L 59.748625 180.944301 
L 59.888824 179.865337 
L 60.169221 184.090383 
L 60.730017 146.026708 
L 61.150614 173.064299 
L 61.431012 164.102586 
L 61.571211 184.528542 
L 61.851609 166.744819 
L 61.991807 203.86946 
L 62.272205 173.173827 
L 62.412404 197.04143 
L 62.692802 173.888459 
L 62.833001 187.131588 
L 63.113399 174.757591 
L 63.253598 179.695672 
L 63.533996 174.975547 
L 63.674195 176.464257 
L 63.954592 187.479613 
L 64.23499 191.922015 
L 64.375189 217.75635 
L 64.795786 204.608154 
L 65.076184 206.760242 
L 65.216383 191.210777 
L 65.496781 176.129471 
L 65.63698 158.725715 
L 65.917377 147.832302 
L 66.057576 162.986653 
L 66.337974 212.163768 
L 66.478173 162.866693 
L 66.758571 184.182205 
L 66.89877 208.568547 
L 67.179168 205.707508 
L 67.319367 196.194981 
L 67.599765 230.009361 
L 67.739963 203.623718 
L 68.16056 220.306158 
L 68.440958 211.018852 
L 68.581157 230.677854 
L 68.861555 217.623418 
L 69.001754 225.29564 
L 69.282152 227.00866 
L 69.422351 222.055957 
L 69.702748 231.66749 
L 69.842947 225.756399 
L 70.123345 230.104341 
L 70.263544 229.633614 
L 70.543942 228.275906 
L 70.684141 232.150961 
L 70.964539 229.810225 
L 71.104738 232.104441 
L 71.385136 231.094788 
L 71.665533 231.351163 
L 71.805732 232.562401 
L 72.08613 231.896347 
L 72.226329 232.831155 
L 72.506727 232.11025 
L 72.646926 232.675462 
L 73.347921 233.127703 
L 73.48812 232.891341 
L 73.908716 233.323618 
L 74.329313 233.4408 
L 74.609711 233.490333 
L 74.74991 233.695883 
L 75.591103 233.947721 
L 83.442243 236.695029 
L 84.984432 237.205399 
L 85.545227 237.427925 
L 87.367813 238.009941 
L 87.928609 238.233328 
L 89.050201 238.592538 
L 89.610996 238.806232 
L 91.153184 239.313345 
L 91.994378 239.59212 
L 93.536566 240.09315 
L 94.097362 240.305438 
L 95.63955 240.788779 
L 96.200346 240.999327 
L 97.742534 241.480804 
L 98.163131 241.6165 
L 99.705319 242.093717 
L 100.266115 242.298877 
L 101.808303 242.772626 
L 102.369099 242.965113 
L 103.911287 243.434301 
L 104.892679 243.762963 
L 106.294669 244.147809 
L 107.276061 244.46699 
L 109.659443 245.173607 
L 110.220239 245.356686 
L 112.042825 245.860108 
L 112.60362 246.049206 
L 113.865411 246.40977 
L 116.669389 247.196837 
L 117.230185 247.38633 
L 119.19297 247.916292 
L 121.155755 248.447259 
L 122.557744 248.851162 
L 125.642121 249.656194 
L 126.623513 249.935907 
L 128.165701 250.328312 
L 129.147094 250.603208 
L 130.96968 251.050549 
L 131.530476 251.206517 
L 133.493261 251.695941 
L 134.054056 251.856721 
L 136.437438 252.451815 
L 136.858035 252.557686 
L 140.08261 253.345323 
L 140.643406 253.503234 
L 142.185594 253.870929 
L 143.166987 254.13051 
L 144.989573 254.542542 
L 145.970965 254.793638 
L 147.93375 255.253202 
L 155.504492 257.028473 
L 156.906482 257.310833 
L 159.570261 257.925998 
L 195.320988 265.291252 
L 198.124966 265.815648 
L 199.106359 266.014245 
L 201.489741 266.451963 
L 202.330934 266.609657 
L 205.134913 267.122864 
L 206.116305 267.315896 
L 209.200682 267.859036 
L 210.602671 268.124867 
L 212.986053 268.547583 
L 213.967445 268.734582 
L 217.051822 269.262433 
L 218.033214 269.452489 
L 219.995999 269.786668 
L 221.397989 270.046812 
L 223.78137 270.450097 
L 227.005946 270.997558 
L 228.407935 271.254774 
L 231.492311 271.760038 
L 232.473704 271.939937 
L 235.137483 272.369539 
L 236.539473 272.620636 
L 239.343451 273.076229 
L 240.745441 273.327806 
L 243.128822 273.712871 
L 246.353398 274.234561 
L 247.755387 274.479063 
L 250.839763 274.963629 
L 252.662349 275.269422 
L 255.466328 275.718516 
L 256.307522 275.853754 
L 258.690903 276.22784 
L 260.513489 276.533777 
L 263.317468 276.97246 
L 266.121447 277.410629 
L 267.523436 277.64543 
L 271.028409 278.178342 
L 272.009801 278.345422 
L 275.654974 278.912008 
L 277.337361 279.174611 
L 280.141339 279.601623 
L 281.543329 279.829275 
L 287.992479 280.810604 
L 288.973872 280.976725 
L 291.076856 281.301222 
L 295.423022 281.947356 
L 297.245609 282.238224 
L 299.909388 282.619899 
L 300.890781 282.782012 
L 303.694759 283.199155 
L 304.95655 283.391498 
L 308.181125 283.873498 
L 310.844905 284.285899 
L 313.088087 284.597114 
L 314.06948 284.754442 
L 316.172464 285.065657 
L 321.359824 285.817212 
L 323.18241 286.085912 
L 331.734545 287.303976 
L 332.996335 287.482694 
L 338.183695 288.156487 
L 339.165088 288.277634 
L 344.632846 288.810711 
L 346.175034 288.785811 
L 347.717223 288.595878 
L 347.857421 288.464741 
L 348.137819 289.605992 
L 348.278018 289.442833 
L 348.558416 289.468512 
L 348.698615 289.701026 
L 348.979013 289.272426 
L 349.119212 289.727018 
L 349.539809 289.735689 
L 349.820206 289.761724 
L 349.960405 289.605992 
L 350.381002 289.78779 
L 350.801599 289.796486 
L 351.222196 289.822594 
L 358.232142 289.936104 
L 365.522486 290.04142 
L 372.95303 290.164951 
L 379.822777 290.271408 
L 382.06596 290.315922 
L 388.515111 290.423137 
L 390.758293 290.467969 
L 397.207444 290.575953 
L 399.590826 290.621109 
L 405.759579 290.729873 
L 408.002762 290.775356 
L 414.031315 290.884913 
L 416.554896 290.939903 
L 422.303052 291.050311 
L 424.546235 291.096483 
L 429.733595 291.198416 
L 431.976778 291.244911 
L 441.229907 291.441304 
L 445.996671 291.544903 
L 455.670397 291.76316 
L 460.437161 291.868339 
L 470.95208 292.119026 
L 471.933473 292.148143 
L 471.933473 292.148143 
" clip-path="url(#pe695578f52)" style="fill: none; stroke-dasharray: 3.7,1.6; stroke-dashoffset: 0; stroke: #ff7f0e"/>
   </g>
   <g id="line2d_71">
    <path d="M 52.878877 26.690718 
L 54.561264 95.466386 
L 57.926039 155.828066 
L 59.608426 175.936926 
L 61.290813 198.793607 
L 62.9732 213.618759 
L 64.655587 219.136519 
L 66.337974 223.092251 
L 68.020361 199.587382 
L 69.702748 188.60438 
L 71.385136 150.845199 
L 73.067523 165.338392 
L 74.74991 183.727002 
L 76.432297 219.981347 
L 78.114684 232.256004 
L 79.797071 233.477939 
L 81.479458 237.450306 
L 83.161846 224.185513 
L 84.844233 154.78333 
L 86.52662 189.656562 
L 88.209007 171.95391 
L 89.891394 211.804375 
L 91.573781 233.29903 
L 93.256168 244.045858 
L 94.938556 249.030304 
L 96.620943 247.95291 
L 98.30333 252.648853 
L 99.985717 252.572853 
L 101.668104 255.846372 
L 103.350491 217.488383 
L 105.032878 160.936696 
L 106.715265 196.259744 
L 108.397653 163.988089 
L 110.08004 187.65217 
L 111.762427 208.996474 
L 113.444814 209.574012 
L 115.127201 229.259293 
L 116.809588 253.298177 
L 118.491975 236.126331 
L 120.174363 205.077052 
L 121.85675 245.475993 
L 123.539137 268.0244 
L 125.221524 274.360677 
L 126.903911 275.69606 
L 128.586298 276.310843 
L 131.951072 277.077568 
L 138.680621 278.138034 
L 152.139718 279.938542 
L 200.928945 286.232578 
L 217.612617 288.012013 
L 229.389327 289.840018 
L 252.942747 292.929538 
L 266.401844 294.551249 
L 274.81378 295.326126 
L 279.860941 295.587002 
L 283.225716 295.587002 
L 286.59049 295.371267 
L 289.955264 294.857828 
L 293.320039 294.035729 
L 296.684813 293.091344 
L 298.3672 292.778952 
L 300.049587 292.719014 
L 301.731974 298.79532 
L 303.414361 298.981852 
L 308.461523 299.089179 
L 333.557131 299.387146 
L 469.69029 301.70455 
L 471.793274 301.719761 
L 471.793274 301.719761 
" clip-path="url(#pe695578f52)" style="fill: none; stroke: #2ca02c; stroke-linecap: square"/>
   </g>
   <g id="line2d_72">
    <path d="M 53.019076 37.326343 
L 54.701463 114.025729 
L 56.524049 153.248796 
L 58.346635 186.261915 
L 60.169221 167.485832 
L 61.851609 190.481246 
L 63.674195 201.119627 
L 65.496781 186.086792 
L 67.179168 216.243732 
L 69.001754 166.467767 
L 70.82434 203.051191 
L 72.506727 137.31829 
L 74.329313 192.403694 
L 76.151899 225.83417 
L 77.834286 200.464465 
L 79.656872 240.160853 
L 81.479458 176.913161 
L 83.161846 177.794851 
L 84.984432 211.365137 
L 86.807018 141.502552 
L 88.489405 190.489491 
L 90.311991 213.086117 
L 92.134577 205.323694 
L 93.816964 242.648435 
L 95.63955 150.717163 
L 97.462136 158.818847 
L 99.144523 217.008075 
L 100.967109 234.603706 
L 102.789695 260.881541 
L 104.472083 197.176425 
L 106.294669 165.639583 
L 108.117255 196.87388 
L 109.799642 237.353491 
L 111.622228 264.034066 
L 113.444814 238.933884 
L 115.127201 177.609261 
L 116.949787 190.267983 
L 118.772373 187.465296 
L 120.45476 214.741141 
L 122.277346 247.831094 
L 124.099933 265.649684 
L 125.78232 183.018311 
L 127.604906 188.581745 
L 129.427492 227.588174 
L 131.109879 167.782212 
L 132.932465 198.359764 
L 134.755051 209.493416 
L 136.437438 259.316127 
L 138.260024 146.149993 
L 140.08261 180.802479 
L 141.764997 242.591359 
L 143.587584 259.378674 
L 145.41017 281.642597 
L 147.092557 287.08075 
L 148.915143 287.948116 
L 154.242702 288.628788 
L 193.358203 292.629423 
L 196.863176 292.990071 
L 237.661064 296.941531 
L 248.316183 297.988321 
L 258.971301 299.022037 
L 262.616473 299.224103 
L 264.29886 299.510253 
L 266.121447 299.689337 
L 267.944033 299.717023 
L 278.599151 300.65142 
L 280.281538 300.986911 
L 282.104124 301.001618 
L 287.431684 301.522863 
L 289.25427 301.841839 
L 291.076856 301.857148 
L 292.759243 302.16566 
L 294.581829 302.181204 
L 296.404415 302.510262 
L 298.086802 302.684674 
L 299.909388 302.652856 
L 301.731974 302.989334 
L 307.059533 303.529055 
L 308.741921 303.462902 
L 310.564507 303.612036 
L 312.387093 303.98104 
L 315.892066 304.373771 
L 317.714652 304.287777 
L 319.397039 304.686253 
L 323.042211 305.0567 
L 326.547184 304.985641 
L 328.369771 305.524452 
L 330.052158 305.451819 
L 331.874744 305.87288 
L 333.69733 305.817485 
L 335.379717 306.227098 
L 337.202303 306.41592 
L 339.024889 306.359098 
L 340.707276 306.740806 
L 342.529862 306.91483 
L 344.352448 306.895424 
L 346.034835 307.247469 
L 349.680008 307.326498 
L 351.362395 307.766469 
L 355.007567 307.786685 
L 356.689954 308.257025 
L 358.51254 308.215712 
L 360.335126 308.590449 
L 362.017513 308.506603 
L 367.345072 309.010414 
L 369.167659 309.421342 
L 370.990245 309.678385 
L 372.672632 309.486955 
L 374.495218 309.620995 
L 376.317804 310.129596 
L 379.822777 310.059727 
L 381.645363 310.664513 
L 383.32775 310.620575 
L 385.150336 311.0099 
L 388.65531 311.356192 
L 390.477896 311.277427 
L 395.805455 312.056236 
L 402.9556 312.777495 
L 404.778186 312.445249 
L 406.460573 313.112405 
L 408.283159 312.785165 
L 410.105745 313.389433 
L 411.788133 313.704788 
L 415.433305 314.030298 
L 417.115692 313.726156 
L 418.938278 314.300372 
L 420.760864 314.21817 
L 422.443251 314.707811 
L 429.593396 315.191782 
L 431.415983 315.234764 
L 433.09837 315.719248 
L 434.920956 315.503207 
L 436.743542 316.122098 
L 438.425929 315.625556 
L 440.248515 316.444486 
L 443.753488 316.80885 
L 445.576074 317.007416 
L 447.39866 316.676469 
L 449.081047 317.188979 
L 452.72622 317.547217 
L 456.231193 318.107606 
L 458.053779 318.30214 
L 459.736166 317.359422 
L 461.558752 318.518533 
L 463.381338 317.362591 
L 465.063725 318.981945 
L 466.886311 317.620876 
L 468.708897 319.22959 
L 470.391285 319.574868 
L 471.793274 318.825221 
L 471.793274 318.825221 
" clip-path="url(#pe695578f52)" style="fill: none; stroke-dasharray: 3.7,1.6; stroke-dashoffset: 0; stroke: #2ca02c"/>
   </g>
   <g id="patch_3">
    <path d="M 51.19649 322.70927 
L 51.19649 3.00024 
" style="fill: none; stroke: #000000; stroke-width: 0.8; stroke-linejoin: miter; stroke-linecap: square"/>
   </g>
   <g id="patch_4">
    <path d="M 471.793274 322.70927 
L 471.793274 3.00024 
" style="fill: none; stroke: #000000; stroke-width: 0.8; stroke-linejoin: miter; stroke-linecap: square"/>
   </g>
   <g id="patch_5">
    <path d="M 51.19649 322.70927 
L 471.793274 322.70927 
" style="fill: none; stroke: #000000; stroke-width: 0.8; stroke-linejoin: miter; stroke-linecap: square"/>
   </g>
   <g id="patch_6">
    <path d="M 51.19649 3.00024 
L 471.793274 3.00024 
" style="fill: none; stroke: #000000; stroke-width: 0.8; stroke-linejoin: miter; stroke-linecap: square"/>
   </g>
   <g id="legend_1">
    <g id="patch_7">
     <path d="M 364.973274 77.62024 
L 461.993274 77.62024 
Q 464.793274 77.62024 464.793274 74.82024 
L 464.793274 12.80024 
Q 464.793274 10.00024 461.993274 10.00024 
L 364.973274 10.00024 
Q 362.173274 10.00024 362.173274 12.80024 
L 362.173274 74.82024 
Q 362.173274 77.62024 364.973274 77.62024 
z
" style="fill: #ffffff; opacity: 0.8; stroke: #cccccc; stroke-linejoin: miter"/>
    </g>
    <g id="line2d_73">
     <path d="M 367.773274 21.76024 
L 381.773274 21.76024 
L 395.773274 21.76024 
" style="fill: none; stroke: #1f77b4; stroke-linecap: square"/>
    </g>
    <g id="text_17">
     <!-- $\mathdefault{|N_f| = 10^{2}}$ -->
     <g transform="translate(406.973274 26.66024) scale(0.14 -0.14)">
      <defs>
       <path id="LiberationSerif-7c" d="M 481 -1381 
L 481 4441 
L 800 4441 
L 800 -1381 
L 481 -1381 
z
" transform="scale(0.015625)"/>
       <path id="LiberationSerif-4e" d="M 3609 3944 
L 3047 4025 
L 3047 4191 
L 4475 4191 
L 4475 4025 
L 3938 3944 
L 3938 0 
L 3634 0 
L 1050 3769 
L 1050 250 
L 1613 166 
L 1613 0 
L 184 0 
L 184 166 
L 722 250 
L 722 3944 
L 184 4025 
L 184 4191 
L 1453 4191 
L 3609 1088 
L 3609 3944 
z
" transform="scale(0.015625)"/>
       <path id="LiberationSerif-3d" d="M 3297 1644 
L 3297 1325 
L 319 1325 
L 319 1644 
L 3297 1644 
z
M 3297 2925 
L 3297 2606 
L 319 2606 
L 319 2925 
L 3297 2925 
z
" transform="scale(0.015625)"/>
       <path id="LiberationSerif-31" d="M 1959 250 
L 2816 166 
L 2816 0 
L 563 0 
L 563 166 
L 1422 250 
L 1422 3669 
L 575 3366 
L 575 3531 
L 1797 4225 
L 1959 4225 
L 1959 250 
z
" transform="scale(0.015625)"/>
       <path id="LiberationSerif-30" d="M 2956 2113 
Q 2956 -63 1581 -63 
Q 919 -63 581 493 
Q 244 1050 244 2113 
Q 244 3153 581 3704 
Q 919 4256 1606 4256 
Q 2269 4256 2612 3711 
Q 2956 3166 2956 2113 
z
M 2381 2113 
Q 2381 3119 2190 3562 
Q 2000 4006 1581 4006 
Q 1175 4006 997 3587 
Q 819 3169 819 2113 
Q 819 1050 1000 617 
Q 1181 184 1581 184 
Q 1994 184 2187 639 
Q 2381 1094 2381 2113 
z
" transform="scale(0.015625)"/>
       <path id="LiberationSerif-32" d="M 2847 0 
L 281 0 
L 281 459 
L 863 988 
Q 1422 1478 1684 1781 
Q 1947 2084 2061 2406 
Q 2175 2728 2175 3144 
Q 2175 3550 1990 3762 
Q 1806 3975 1388 3975 
Q 1222 3975 1047 3929 
Q 872 3884 738 3809 
L 628 3297 
L 422 3297 
L 422 4103 
Q 991 4238 1388 4238 
Q 2075 4238 2420 3952 
Q 2766 3666 2766 3144 
Q 2766 2794 2630 2483 
Q 2494 2172 2212 1864 
Q 1931 1556 1281 1003 
Q 1003 766 691 481 
L 2847 481 
L 2847 0 
z
" transform="scale(0.015625)"/>
      </defs>
      <use xlink:href="#LiberationSerif-7c" transform="translate(0 0.5125)"/>
      <use xlink:href="#LiberationSerif-4e" transform="translate(20.019531 0.5125)"/>
      <use xlink:href="#LiberationSerif-66" transform="translate(93.039687 -13.259375) scale(0.7)"/>
      <use xlink:href="#LiberationSerif-7c" transform="translate(118.645547 0.5125)"/>
      <use xlink:href="#LiberationSerif-3d" transform="translate(158.1475 0.5125)"/>
      <use xlink:href="#LiberationSerif-31" transform="translate(234.026406 0.5125)"/>
      <use xlink:href="#LiberationSerif-30" transform="translate(284.026406 0.5125)"/>
      <use xlink:href="#LiberationSerif-32" transform="translate(334.829766 32.646875) scale(0.7)"/>
     </g>
    </g>
    <g id="line2d_74">
     <path d="M 367.773274 42.90024 
L 381.773274 42.90024 
L 395.773274 42.90024 
" style="fill: none; stroke: #ff7f0e; stroke-linecap: square"/>
    </g>
    <g id="text_18">
     <!-- $\mathdefault{|N_f| = 10^{3}}$ -->
     <g transform="translate(406.973274 47.80024) scale(0.14 -0.14)">
      <defs>
       <path id="LiberationSerif-33" d="M 2950 1141 
Q 2950 575 2562 256 
Q 2175 -63 1466 -63 
Q 872 -63 341 72 
L 306 953 
L 513 953 
L 653 366 
Q 775 297 998 247 
Q 1222 197 1416 197 
Q 1906 197 2140 422 
Q 2375 647 2375 1172 
Q 2375 1584 2159 1798 
Q 1944 2013 1491 2034 
L 1044 2059 
L 1044 2316 
L 1491 2344 
Q 1844 2363 2012 2563 
Q 2181 2763 2181 3169 
Q 2181 3591 1998 3783 
Q 1816 3975 1416 3975 
Q 1250 3975 1069 3929 
Q 888 3884 750 3809 
L 641 3297 
L 434 3297 
L 434 4103 
Q 744 4184 969 4211 
Q 1194 4238 1416 4238 
Q 2759 4238 2759 3206 
Q 2759 2772 2520 2514 
Q 2281 2256 1844 2194 
Q 2413 2128 2681 1867 
Q 2950 1606 2950 1141 
z
" transform="scale(0.015625)"/>
      </defs>
      <use xlink:href="#LiberationSerif-7c" transform="translate(0 0.5125)"/>
      <use xlink:href="#LiberationSerif-4e" transform="translate(20.019531 0.5125)"/>
      <use xlink:href="#LiberationSerif-66" transform="translate(93.039687 -13.259375) scale(0.7)"/>
      <use xlink:href="#LiberationSerif-7c" transform="translate(118.645547 0.5125)"/>
      <use xlink:href="#LiberationSerif-3d" transform="translate(158.1475 0.5125)"/>
      <use xlink:href="#LiberationSerif-31" transform="translate(234.026406 0.5125)"/>
      <use xlink:href="#LiberationSerif-30" transform="translate(284.026406 0.5125)"/>
      <use xlink:href="#LiberationSerif-33" transform="translate(334.829766 32.646875) scale(0.7)"/>
     </g>
    </g>
    <g id="line2d_75">
     <path d="M 367.773274 64.04024 
L 381.773274 64.04024 
L 395.773274 64.04024 
" style="fill: none; stroke: #2ca02c; stroke-linecap: square"/>
    </g>
    <g id="text_19">
     <!-- $\mathdefault{|N_f| = 10^{4}}$ -->
     <g transform="translate(406.973274 68.94024) scale(0.14 -0.14)">
      <defs>
       <path id="LiberationSerif-34" d="M 2531 922 
L 2531 0 
L 1994 0 
L 1994 922 
L 125 922 
L 125 1338 
L 2172 4213 
L 2531 4213 
L 2531 1369 
L 3100 1369 
L 3100 922 
L 2531 922 
z
M 1994 3478 
L 1978 3478 
L 478 1369 
L 1994 1369 
L 1994 3478 
z
" transform="scale(0.015625)"/>
      </defs>
      <use xlink:href="#LiberationSerif-7c" transform="translate(0 0.785938)"/>
      <use xlink:href="#LiberationSerif-4e" transform="translate(20.019531 0.785938)"/>
      <use xlink:href="#LiberationSerif-66" transform="translate(93.039687 -12.985937) scale(0.7)"/>
      <use xlink:href="#LiberationSerif-7c" transform="translate(118.645547 0.785938)"/>
      <use xlink:href="#LiberationSerif-3d" transform="translate(158.1475 0.785938)"/>
      <use xlink:href="#LiberationSerif-31" transform="translate(234.026406 0.785938)"/>
      <use xlink:href="#LiberationSerif-30" transform="translate(284.026406 0.785938)"/>
      <use xlink:href="#LiberationSerif-34" transform="translate(334.829766 32.920313) scale(0.7)"/>
     </g>
    </g>
   </g>
  </g>
 </g>
 <defs>
  <clipPath id="pe695578f52">
   <rect x="51.19649" y="3.00024" width="420.596784" height="319.70903"/>
  </clipPath>
 </defs>
</svg>
