<?xml version="1.0" encoding="utf-8" standalone="no"?>
<!DOCTYPE svg PUBLIC "-//W3C//DTD SVG 1.1//EN"
  "http://www.w3.org/Graphics/SVG/1.1/DTD/svg11.dtd">
<svg xmlns:xlink="http://www.w3.org/1999/xlink" width="240.944882pt" height="180.708661pt" viewBox="0 0 240.944882 180.708661" xmlns="http://www.w3.org/2000/svg" version="1.1">
 <metadata>
  <rdf:RDF xmlns:dc="http://purl.org/dc/elements/1.1/" xmlns:cc="http://creativecommons.org/ns#" xmlns:rdf="http://www.w3.org/1999/02/22-rdf-syntax-ns#">
   <cc:Work>
    <dc:type rdf:resource="http://purl.org/dc/dcmitype/StillImage"/>
    <dc:date>2023-06-22T01:03:21.543494</dc:date>
    <dc:format>image/svg+xml</dc:format>
    <dc:creator>
     <cc:Agent>
      <dc:title>Matplotlib v3.7.1, https://matplotlib.org/</dc:title>
     </cc:Agent>
    </dc:creator>
   </cc:Work>
  </rdf:RDF>
 </metadata>
 <defs>
  <style type="text/css">*{stroke-linejoin: round; stroke-linecap: butt}</style>
 </defs>
 <g id="figure_1">
  <g id="patch_1">
   <path d="M 0 180.708661 
L 240.944882 180.708661 
L 240.944882 0 
L 0 0 
z
" style="fill: #ffffff"/>
  </g>
  <g id="axes_1">
   <g id="patch_2">
    <path d="M 37.06899 149.059984 
L 230.341517 149.059984 
L 230.341517 17.327115 
L 37.06899 17.327115 
z
" style="fill: #ffffff"/>
   </g>
   <g id="matplotlib.axis_1">
    <g id="xtick_1">
     <g id="line2d_1">
      <defs>
       <path id="m178decafef" d="M 0 0 
L 0 3.5 
" style="stroke: #000000; stroke-width: 0.8"/>
      </defs>
      <g>
       <use xlink:href="#m178decafef" x="37.06899" y="149.059984" style="stroke: #000000; stroke-width: 0.8"/>
      </g>
     </g>
     <g id="text_1">
      <!-- 0 -->
      <g transform="translate(34.534615 162.861546) scale(0.1 -0.1)">
       <defs>
        <path id="Calibri-30" d="M 3022 2031 
Q 3022 1566 2948 1181 
Q 2875 797 2704 520 
Q 2534 244 2259 92 
Q 1984 -59 1581 -59 
Q 1200 -59 939 77 
Q 678 213 518 477 
Q 359 741 292 1127 
Q 225 1513 225 2013 
Q 225 2475 300 2861 
Q 375 3247 544 3523 
Q 713 3800 988 3951 
Q 1263 4103 1663 4103 
Q 2047 4103 2308 3967 
Q 2569 3831 2728 3567 
Q 2888 3303 2955 2917 
Q 3022 2531 3022 2031 
z
M 2472 1994 
Q 2472 2297 2450 2537 
Q 2428 2778 2386 2962 
Q 2344 3147 2276 3280 
Q 2209 3413 2115 3498 
Q 2022 3584 1901 3623 
Q 1781 3663 1631 3663 
Q 1366 3663 1200 3538 
Q 1034 3413 939 3194 
Q 844 2975 809 2681 
Q 775 2388 775 2050 
Q 775 1597 822 1280 
Q 869 963 970 763 
Q 1072 563 1230 472 
Q 1388 381 1613 381 
Q 1788 381 1920 437 
Q 2053 494 2148 598 
Q 2244 703 2306 850 
Q 2369 997 2406 1175 
Q 2444 1353 2458 1561 
Q 2472 1769 2472 1994 
z
" transform="scale(0.015625)"/>
       </defs>
       <use xlink:href="#Calibri-30"/>
      </g>
     </g>
    </g>
    <g id="xtick_2">
     <g id="line2d_2">
      <g>
       <use xlink:href="#m178decafef" x="69.281078" y="149.059984" style="stroke: #000000; stroke-width: 0.8"/>
      </g>
     </g>
     <g id="text_2">
      <!-- 50 -->
      <g transform="translate(64.212328 162.861546) scale(0.1 -0.1)">
       <defs>
        <path id="Calibri-35" d="M 2869 1300 
Q 2869 975 2759 722 
Q 2650 469 2450 295 
Q 2250 122 1973 31 
Q 1697 -59 1359 -59 
Q 1172 -59 1003 -32 
Q 834 -6 703 33 
Q 572 72 487 109 
Q 403 147 379 169 
Q 356 191 347 209 
Q 338 228 330 254 
Q 322 281 319 322 
Q 316 363 316 419 
Q 316 472 320 514 
Q 325 556 337 582 
Q 350 609 367 621 
Q 384 634 406 634 
Q 438 634 503 595 
Q 569 556 680 511 
Q 791 466 955 425 
Q 1119 384 1344 384 
Q 1553 384 1728 434 
Q 1903 484 2029 590 
Q 2156 697 2228 858 
Q 2300 1019 2300 1250 
Q 2300 1444 2239 1592 
Q 2178 1741 2051 1839 
Q 1925 1938 1731 1986 
Q 1538 2034 1269 2034 
Q 1078 2034 940 2015 
Q 803 1997 684 1997 
Q 597 1997 559 2037 
Q 522 2078 522 2194 
L 522 3841 
Q 522 3944 570 3994 
Q 619 4044 709 4044 
L 2500 4044 
Q 2525 4044 2548 4030 
Q 2572 4016 2587 3987 
Q 2603 3959 2611 3915 
Q 2619 3872 2619 3813 
Q 2619 3700 2587 3637 
Q 2556 3575 2500 3575 
L 991 3575 
L 991 2441 
Q 1100 2456 1214 2459 
Q 1328 2463 1478 2463 
Q 1825 2463 2084 2380 
Q 2344 2297 2517 2145 
Q 2691 1994 2780 1778 
Q 2869 1563 2869 1300 
z
" transform="scale(0.015625)"/>
       </defs>
       <use xlink:href="#Calibri-35"/>
       <use xlink:href="#Calibri-30" x="50.683594"/>
      </g>
     </g>
    </g>
    <g id="xtick_3">
     <g id="line2d_3">
      <g>
       <use xlink:href="#m178decafef" x="101.493166" y="149.059984" style="stroke: #000000; stroke-width: 0.8"/>
      </g>
     </g>
     <g id="text_3">
      <!-- 100 -->
      <g transform="translate(93.890041 162.861546) scale(0.1 -0.1)">
       <defs>
        <path id="Calibri-31" d="M 2897 213 
Q 2897 153 2887 112 
Q 2878 72 2862 47 
Q 2847 22 2826 11 
Q 2806 0 2784 0 
L 672 0 
Q 650 0 631 11 
Q 613 22 595 47 
Q 578 72 568 112 
Q 559 153 559 213 
Q 559 269 568 309 
Q 578 350 592 376 
Q 606 403 626 417 
Q 647 431 672 431 
L 1516 431 
L 1516 3506 
L 734 3041 
Q 675 3009 639 3003 
Q 603 2997 581 3017 
Q 559 3038 551 3084 
Q 544 3131 544 3203 
Q 544 3256 548 3293 
Q 553 3331 562 3356 
Q 572 3381 589 3400 
Q 606 3419 634 3438 
L 1566 4034 
Q 1578 4044 1597 4050 
Q 1616 4056 1644 4062 
Q 1672 4069 1709 4070 
Q 1747 4072 1803 4072 
Q 1878 4072 1928 4065 
Q 1978 4059 2006 4048 
Q 2034 4038 2043 4020 
Q 2053 4003 2053 3984 
L 2053 431 
L 2784 431 
Q 2809 431 2831 417 
Q 2853 403 2867 376 
Q 2881 350 2889 309 
Q 2897 269 2897 213 
z
" transform="scale(0.015625)"/>
       </defs>
       <use xlink:href="#Calibri-31"/>
       <use xlink:href="#Calibri-30" x="50.683594"/>
       <use xlink:href="#Calibri-30" x="101.367188"/>
      </g>
     </g>
    </g>
    <g id="xtick_4">
     <g id="line2d_4">
      <g>
       <use xlink:href="#m178decafef" x="133.705253" y="149.059984" style="stroke: #000000; stroke-width: 0.8"/>
      </g>
     </g>
     <g id="text_4">
      <!-- 150 -->
      <g transform="translate(126.102128 162.861546) scale(0.1 -0.1)">
       <use xlink:href="#Calibri-31"/>
       <use xlink:href="#Calibri-35" x="50.683594"/>
       <use xlink:href="#Calibri-30" x="101.367188"/>
      </g>
     </g>
    </g>
    <g id="xtick_5">
     <g id="line2d_5">
      <g>
       <use xlink:href="#m178decafef" x="165.917341" y="149.059984" style="stroke: #000000; stroke-width: 0.8"/>
      </g>
     </g>
     <g id="text_5">
      <!-- 200 -->
      <g transform="translate(158.314216 162.861546) scale(0.1 -0.1)">
       <defs>
        <path id="Calibri-32" d="M 2888 231 
Q 2888 175 2880 131 
Q 2872 88 2858 58 
Q 2844 28 2820 14 
Q 2797 0 2769 0 
L 534 0 
Q 491 0 458 11 
Q 425 22 401 47 
Q 378 72 367 119 
Q 356 166 356 234 
Q 356 297 361 344 
Q 366 391 381 427 
Q 397 463 420 498 
Q 444 534 481 575 
L 1266 1406 
Q 1538 1694 1702 1922 
Q 1866 2150 1955 2337 
Q 2044 2525 2072 2678 
Q 2100 2831 2100 2966 
Q 2100 3100 2056 3220 
Q 2013 3341 1930 3431 
Q 1847 3522 1722 3575 
Q 1597 3628 1434 3628 
Q 1244 3628 1092 3575 
Q 941 3522 827 3459 
Q 713 3397 636 3344 
Q 559 3291 522 3291 
Q 500 3291 483 3303 
Q 466 3316 455 3344 
Q 444 3372 437 3419 
Q 431 3466 431 3531 
Q 431 3578 434 3612 
Q 438 3647 445 3672 
Q 453 3697 465 3719 
Q 478 3741 515 3773 
Q 553 3806 645 3862 
Q 738 3919 877 3973 
Q 1016 4028 1183 4065 
Q 1350 4103 1534 4103 
Q 1828 4103 2048 4020 
Q 2269 3938 2414 3794 
Q 2559 3650 2631 3459 
Q 2703 3269 2703 3053 
Q 2703 2859 2668 2667 
Q 2634 2475 2523 2251 
Q 2413 2028 2203 1754 
Q 1994 1481 1647 1125 
L 1006 456 
L 2766 456 
Q 2791 456 2814 442 
Q 2838 428 2855 400 
Q 2872 372 2880 330 
Q 2888 288 2888 231 
z
" transform="scale(0.015625)"/>
       </defs>
       <use xlink:href="#Calibri-32"/>
       <use xlink:href="#Calibri-30" x="50.683594"/>
       <use xlink:href="#Calibri-30" x="101.367188"/>
      </g>
     </g>
    </g>
    <g id="xtick_6">
     <g id="line2d_6">
      <g>
       <use xlink:href="#m178decafef" x="198.129429" y="149.059984" style="stroke: #000000; stroke-width: 0.8"/>
      </g>
     </g>
     <g id="text_6">
      <!-- 250 -->
      <g transform="translate(190.526304 162.861546) scale(0.1 -0.1)">
       <use xlink:href="#Calibri-32"/>
       <use xlink:href="#Calibri-35" x="50.683594"/>
       <use xlink:href="#Calibri-30" x="101.367188"/>
      </g>
     </g>
    </g>
    <g id="xtick_7">
     <g id="line2d_7">
      <g>
       <use xlink:href="#m178decafef" x="230.341517" y="149.059984" style="stroke: #000000; stroke-width: 0.8"/>
      </g>
     </g>
     <g id="text_7">
      <!-- 300 -->
      <g transform="translate(222.738392 162.861546) scale(0.1 -0.1)">
       <defs>
        <path id="Calibri-33" d="M 2856 1156 
Q 2856 878 2759 654 
Q 2663 431 2481 272 
Q 2300 113 2034 27 
Q 1769 -59 1434 -59 
Q 1231 -59 1054 -26 
Q 878 6 740 51 
Q 603 97 512 145 
Q 422 194 398 216 
Q 375 238 362 259 
Q 350 281 340 312 
Q 331 344 326 389 
Q 322 434 322 500 
Q 322 613 344 656 
Q 366 700 406 700 
Q 434 700 517 650 
Q 600 600 729 542 
Q 859 484 1032 434 
Q 1206 384 1419 384 
Q 1625 384 1781 437 
Q 1938 491 2044 587 
Q 2150 684 2203 817 
Q 2256 950 2256 1106 
Q 2256 1278 2189 1415 
Q 2122 1553 1992 1653 
Q 1863 1753 1673 1806 
Q 1484 1859 1244 1859 
L 859 1859 
Q 834 1859 811 1870 
Q 788 1881 770 1906 
Q 753 1931 742 1972 
Q 731 2013 731 2078 
Q 731 2138 740 2177 
Q 750 2216 767 2239 
Q 784 2263 806 2273 
Q 828 2284 856 2284 
L 1209 2284 
Q 1416 2284 1580 2337 
Q 1744 2391 1858 2491 
Q 1972 2591 2033 2730 
Q 2094 2869 2094 3041 
Q 2094 3166 2053 3280 
Q 2013 3394 1931 3478 
Q 1850 3563 1723 3611 
Q 1597 3659 1431 3659 
Q 1250 3659 1098 3604 
Q 947 3550 828 3487 
Q 709 3425 631 3370 
Q 553 3316 522 3316 
Q 500 3316 483 3323 
Q 466 3331 455 3354 
Q 444 3378 439 3420 
Q 434 3463 434 3531 
Q 434 3578 437 3614 
Q 441 3650 450 3676 
Q 459 3703 471 3725 
Q 484 3747 514 3776 
Q 544 3806 634 3862 
Q 725 3919 858 3973 
Q 991 4028 1164 4065 
Q 1338 4103 1538 4103 
Q 1819 4103 2031 4031 
Q 2244 3959 2386 3828 
Q 2528 3697 2598 3514 
Q 2669 3331 2669 3109 
Q 2669 2919 2619 2755 
Q 2569 2591 2472 2464 
Q 2375 2338 2234 2248 
Q 2094 2159 1909 2125 
L 1909 2119 
Q 2119 2097 2292 2014 
Q 2466 1931 2591 1806 
Q 2716 1681 2786 1514 
Q 2856 1347 2856 1156 
z
" transform="scale(0.015625)"/>
       </defs>
       <use xlink:href="#Calibri-33"/>
       <use xlink:href="#Calibri-30" x="50.683594"/>
       <use xlink:href="#Calibri-30" x="101.367188"/>
      </g>
     </g>
    </g>
    <g id="text_8">
     <!-- time [sec] -->
     <g transform="translate(113.853691 175.578734) scale(0.1 -0.1)">
      <defs>
       <path id="LiberationSerif-74" d="M 1044 -63 
Q 744 -63 595 115 
Q 447 294 447 616 
L 447 2675 
L 63 2675 
L 63 2816 
L 453 2938 
L 769 3603 
L 966 3603 
L 966 2938 
L 1638 2938 
L 1638 2675 
L 966 2675 
L 966 672 
Q 966 469 1058 366 
Q 1150 263 1300 263 
Q 1481 263 1741 313 
L 1741 109 
Q 1631 34 1425 -14 
Q 1219 -63 1044 -63 
z
" transform="scale(0.015625)"/>
       <path id="LiberationSerif-69" d="M 1184 3897 
Q 1184 3759 1084 3659 
Q 984 3559 844 3559 
Q 706 3559 606 3659 
Q 506 3759 506 3897 
Q 506 4038 606 4138 
Q 706 4238 844 4238 
Q 984 4238 1084 4138 
Q 1184 4038 1184 3897 
z
M 1153 219 
L 1656 141 
L 1656 0 
L 134 0 
L 134 141 
L 634 219 
L 634 2719 
L 219 2797 
L 219 2938 
L 1153 2938 
L 1153 219 
z
" transform="scale(0.015625)"/>
       <path id="LiberationSerif-6d" d="M 1019 2700 
Q 1253 2834 1515 2925 
Q 1778 3016 1978 3016 
Q 2194 3016 2376 2934 
Q 2559 2853 2650 2675 
Q 2891 2809 3214 2912 
Q 3538 3016 3750 3016 
Q 4500 3016 4500 2150 
L 4500 219 
L 4878 141 
L 4878 0 
L 3544 0 
L 3544 141 
L 3981 219 
L 3981 2094 
Q 3981 2631 3481 2631 
Q 3400 2631 3292 2618 
Q 3184 2606 3076 2590 
Q 2969 2575 2870 2554 
Q 2772 2534 2706 2522 
Q 2759 2353 2759 2150 
L 2759 219 
L 3200 141 
L 3200 0 
L 1806 0 
L 1806 141 
L 2241 219 
L 2241 2094 
Q 2241 2353 2108 2492 
Q 1975 2631 1709 2631 
Q 1434 2631 1025 2541 
L 1025 219 
L 1466 141 
L 1466 0 
L 134 0 
L 134 141 
L 506 219 
L 506 2719 
L 134 2797 
L 134 2938 
L 994 2938 
L 1019 2700 
z
" transform="scale(0.015625)"/>
       <path id="LiberationSerif-65" d="M 813 1478 
L 813 1422 
Q 813 991 908 752 
Q 1003 513 1201 388 
Q 1400 263 1722 263 
Q 1891 263 2122 291 
Q 2353 319 2503 353 
L 2503 178 
Q 2353 81 2095 9 
Q 1838 -63 1569 -63 
Q 884 -63 567 306 
Q 250 675 250 1491 
Q 250 2259 572 2637 
Q 894 3016 1491 3016 
Q 2619 3016 2619 1734 
L 2619 1478 
L 813 1478 
z
M 1491 2766 
Q 1166 2766 992 2503 
Q 819 2241 819 1728 
L 2075 1728 
Q 2075 2288 1931 2527 
Q 1788 2766 1491 2766 
z
" transform="scale(0.015625)"/>
       <path id="LiberationSerif-20" transform="scale(0.015625)"/>
       <path id="LiberationSerif-5b" d="M 475 -856 
L 475 4441 
L 1900 4441 
L 1900 4294 
L 972 4166 
L 972 -581 
L 1900 -709 
L 1900 -856 
L 475 -856 
z
" transform="scale(0.015625)"/>
       <path id="LiberationSerif-73" d="M 2259 825 
Q 2259 388 1982 162 
Q 1706 -63 1166 -63 
Q 947 -63 683 -17 
Q 419 28 269 84 
L 269 806 
L 409 806 
L 563 397 
Q 797 184 1172 184 
Q 1778 184 1778 703 
Q 1778 1084 1300 1247 
L 1022 1338 
Q 706 1441 562 1547 
Q 419 1653 341 1808 
Q 263 1963 263 2181 
Q 263 2569 527 2792 
Q 791 3016 1241 3016 
Q 1563 3016 2047 2919 
L 2047 2278 
L 1900 2278 
L 1769 2619 
Q 1603 2766 1247 2766 
Q 994 2766 861 2641 
Q 728 2516 728 2303 
Q 728 2125 848 2003 
Q 969 1881 1213 1800 
Q 1672 1644 1812 1572 
Q 1953 1500 2051 1395 
Q 2150 1291 2204 1156 
Q 2259 1022 2259 825 
z
" transform="scale(0.015625)"/>
       <path id="LiberationSerif-63" d="M 2644 178 
Q 2491 66 2222 1 
Q 1953 -63 1672 -63 
Q 244 -63 244 1491 
Q 244 2225 608 2620 
Q 972 3016 1650 3016 
Q 2072 3016 2572 2919 
L 2572 2100 
L 2400 2100 
L 2266 2619 
Q 2006 2766 1644 2766 
Q 806 2766 806 1491 
Q 806 828 1061 545 
Q 1316 263 1850 263 
Q 2306 263 2644 366 
L 2644 178 
z
" transform="scale(0.015625)"/>
       <path id="LiberationSerif-5d" d="M 231 -856 
L 231 -709 
L 1159 -581 
L 1159 4166 
L 231 4294 
L 231 4441 
L 1656 4441 
L 1656 -856 
L 231 -856 
z
" transform="scale(0.015625)"/>
      </defs>
      <use xlink:href="#LiberationSerif-74"/>
      <use xlink:href="#LiberationSerif-69" x="27.783203"/>
      <use xlink:href="#LiberationSerif-6d" x="55.566406"/>
      <use xlink:href="#LiberationSerif-65" x="133.349609"/>
      <use xlink:href="#LiberationSerif-20" x="177.734375"/>
      <use xlink:href="#LiberationSerif-5b" x="202.734375"/>
      <use xlink:href="#LiberationSerif-73" x="236.035156"/>
      <use xlink:href="#LiberationSerif-65" x="274.951172"/>
      <use xlink:href="#LiberationSerif-63" x="319.335938"/>
      <use xlink:href="#LiberationSerif-5d" x="363.720703"/>
     </g>
    </g>
   </g>
   <g id="matplotlib.axis_2">
    <g id="ytick_1">
     <g id="line2d_8">
      <defs>
       <path id="m3192b0eb25" d="M 0 0 
L -3.5 0 
" style="stroke: #000000; stroke-width: 0.8"/>
      </defs>
      <g>
       <use xlink:href="#m3192b0eb25" x="37.06899" y="120.137677" style="stroke: #000000; stroke-width: 0.8"/>
      </g>
     </g>
     <g id="text_9">
      <!-- $\mathdefault{10^{0}}$ -->
      <g transform="translate(16.06899 123.538458) scale(0.1 -0.1)">
       <use xlink:href="#Calibri-31" transform="translate(0 0.442188)"/>
       <use xlink:href="#Calibri-30" transform="translate(50.683594 0.442188)"/>
       <use xlink:href="#Calibri-30" transform="translate(102.184219 33.123438) scale(0.7)"/>
      </g>
     </g>
    </g>
    <g id="ytick_2">
     <g id="line2d_9">
      <g>
       <use xlink:href="#m3192b0eb25" x="37.06899" y="87.237266" style="stroke: #000000; stroke-width: 0.8"/>
      </g>
     </g>
     <g id="text_10">
      <!-- $\mathdefault{10^{1}}$ -->
      <g transform="translate(16.06899 90.638048) scale(0.1 -0.1)">
       <use xlink:href="#Calibri-31" transform="translate(0 0.78125)"/>
       <use xlink:href="#Calibri-30" transform="translate(50.683594 0.78125)"/>
       <use xlink:href="#Calibri-31" transform="translate(102.184219 33.4625) scale(0.7)"/>
      </g>
     </g>
    </g>
    <g id="ytick_3">
     <g id="line2d_10">
      <g>
       <use xlink:href="#m3192b0eb25" x="37.06899" y="54.336855" style="stroke: #000000; stroke-width: 0.8"/>
      </g>
     </g>
     <g id="text_11">
      <!-- $\mathdefault{10^{2}}$ -->
      <g transform="translate(16.06899 57.737637) scale(0.1 -0.1)">
       <use xlink:href="#Calibri-31" transform="translate(0 0.442188)"/>
       <use xlink:href="#Calibri-30" transform="translate(50.683594 0.442188)"/>
       <use xlink:href="#Calibri-32" transform="translate(102.184219 33.123438) scale(0.7)"/>
      </g>
     </g>
    </g>
    <g id="ytick_4">
     <g id="line2d_11">
      <g>
       <use xlink:href="#m3192b0eb25" x="37.06899" y="21.436445" style="stroke: #000000; stroke-width: 0.8"/>
      </g>
     </g>
     <g id="text_12">
      <!-- $\mathdefault{10^{3}}$ -->
      <g transform="translate(16.06899 24.837226) scale(0.1 -0.1)">
       <use xlink:href="#Calibri-31" transform="translate(0 0.442188)"/>
       <use xlink:href="#Calibri-30" transform="translate(50.683594 0.442188)"/>
       <use xlink:href="#Calibri-33" transform="translate(102.184219 33.123438) scale(0.7)"/>
      </g>
     </g>
    </g>
    <g id="ytick_5">
     <g id="line2d_12">
      <defs>
       <path id="me478ffff41" d="M 0 0 
L -2 0 
" style="stroke: #000000; stroke-width: 0.6"/>
      </defs>
      <g>
       <use xlink:href="#me478ffff41" x="37.06899" y="143.134077" style="stroke: #000000; stroke-width: 0.6"/>
      </g>
     </g>
    </g>
    <g id="ytick_6">
     <g id="line2d_13">
      <g>
       <use xlink:href="#me478ffff41" x="37.06899" y="137.340603" style="stroke: #000000; stroke-width: 0.6"/>
      </g>
     </g>
    </g>
    <g id="ytick_7">
     <g id="line2d_14">
      <g>
       <use xlink:href="#me478ffff41" x="37.06899" y="133.230067" style="stroke: #000000; stroke-width: 0.6"/>
      </g>
     </g>
    </g>
    <g id="ytick_8">
     <g id="line2d_15">
      <g>
       <use xlink:href="#me478ffff41" x="37.06899" y="130.041688" style="stroke: #000000; stroke-width: 0.6"/>
      </g>
     </g>
    </g>
    <g id="ytick_9">
     <g id="line2d_16">
      <g>
       <use xlink:href="#me478ffff41" x="37.06899" y="127.436592" style="stroke: #000000; stroke-width: 0.6"/>
      </g>
     </g>
    </g>
    <g id="ytick_10">
     <g id="line2d_17">
      <g>
       <use xlink:href="#me478ffff41" x="37.06899" y="125.234015" style="stroke: #000000; stroke-width: 0.6"/>
      </g>
     </g>
    </g>
    <g id="ytick_11">
     <g id="line2d_18">
      <g>
       <use xlink:href="#me478ffff41" x="37.06899" y="123.326056" style="stroke: #000000; stroke-width: 0.6"/>
      </g>
     </g>
    </g>
    <g id="ytick_12">
     <g id="line2d_19">
      <g>
       <use xlink:href="#me478ffff41" x="37.06899" y="121.643117" style="stroke: #000000; stroke-width: 0.6"/>
      </g>
     </g>
    </g>
    <g id="ytick_13">
     <g id="line2d_20">
      <g>
       <use xlink:href="#me478ffff41" x="37.06899" y="110.233667" style="stroke: #000000; stroke-width: 0.6"/>
      </g>
     </g>
    </g>
    <g id="ytick_14">
     <g id="line2d_21">
      <g>
       <use xlink:href="#me478ffff41" x="37.06899" y="104.440192" style="stroke: #000000; stroke-width: 0.6"/>
      </g>
     </g>
    </g>
    <g id="ytick_15">
     <g id="line2d_22">
      <g>
       <use xlink:href="#me478ffff41" x="37.06899" y="100.329656" style="stroke: #000000; stroke-width: 0.6"/>
      </g>
     </g>
    </g>
    <g id="ytick_16">
     <g id="line2d_23">
      <g>
       <use xlink:href="#me478ffff41" x="37.06899" y="97.141277" style="stroke: #000000; stroke-width: 0.6"/>
      </g>
     </g>
    </g>
    <g id="ytick_17">
     <g id="line2d_24">
      <g>
       <use xlink:href="#me478ffff41" x="37.06899" y="94.536181" style="stroke: #000000; stroke-width: 0.6"/>
      </g>
     </g>
    </g>
    <g id="ytick_18">
     <g id="line2d_25">
      <g>
       <use xlink:href="#me478ffff41" x="37.06899" y="92.333604" style="stroke: #000000; stroke-width: 0.6"/>
      </g>
     </g>
    </g>
    <g id="ytick_19">
     <g id="line2d_26">
      <g>
       <use xlink:href="#me478ffff41" x="37.06899" y="90.425645" style="stroke: #000000; stroke-width: 0.6"/>
      </g>
     </g>
    </g>
    <g id="ytick_20">
     <g id="line2d_27">
      <g>
       <use xlink:href="#me478ffff41" x="37.06899" y="88.742706" style="stroke: #000000; stroke-width: 0.6"/>
      </g>
     </g>
    </g>
    <g id="ytick_21">
     <g id="line2d_28">
      <g>
       <use xlink:href="#me478ffff41" x="37.06899" y="77.333256" style="stroke: #000000; stroke-width: 0.6"/>
      </g>
     </g>
    </g>
    <g id="ytick_22">
     <g id="line2d_29">
      <g>
       <use xlink:href="#me478ffff41" x="37.06899" y="71.539781" style="stroke: #000000; stroke-width: 0.6"/>
      </g>
     </g>
    </g>
    <g id="ytick_23">
     <g id="line2d_30">
      <g>
       <use xlink:href="#me478ffff41" x="37.06899" y="67.429245" style="stroke: #000000; stroke-width: 0.6"/>
      </g>
     </g>
    </g>
    <g id="ytick_24">
     <g id="line2d_31">
      <g>
       <use xlink:href="#me478ffff41" x="37.06899" y="64.240866" style="stroke: #000000; stroke-width: 0.6"/>
      </g>
     </g>
    </g>
    <g id="ytick_25">
     <g id="line2d_32">
      <g>
       <use xlink:href="#me478ffff41" x="37.06899" y="61.63577" style="stroke: #000000; stroke-width: 0.6"/>
      </g>
     </g>
    </g>
    <g id="ytick_26">
     <g id="line2d_33">
      <g>
       <use xlink:href="#me478ffff41" x="37.06899" y="59.433194" style="stroke: #000000; stroke-width: 0.6"/>
      </g>
     </g>
    </g>
    <g id="ytick_27">
     <g id="line2d_34">
      <g>
       <use xlink:href="#me478ffff41" x="37.06899" y="57.525235" style="stroke: #000000; stroke-width: 0.6"/>
      </g>
     </g>
    </g>
    <g id="ytick_28">
     <g id="line2d_35">
      <g>
       <use xlink:href="#me478ffff41" x="37.06899" y="55.842296" style="stroke: #000000; stroke-width: 0.6"/>
      </g>
     </g>
    </g>
    <g id="ytick_29">
     <g id="line2d_36">
      <g>
       <use xlink:href="#me478ffff41" x="37.06899" y="44.432845" style="stroke: #000000; stroke-width: 0.6"/>
      </g>
     </g>
    </g>
    <g id="ytick_30">
     <g id="line2d_37">
      <g>
       <use xlink:href="#me478ffff41" x="37.06899" y="38.63937" style="stroke: #000000; stroke-width: 0.6"/>
      </g>
     </g>
    </g>
    <g id="ytick_31">
     <g id="line2d_38">
      <g>
       <use xlink:href="#me478ffff41" x="37.06899" y="34.528834" style="stroke: #000000; stroke-width: 0.6"/>
      </g>
     </g>
    </g>
    <g id="ytick_32">
     <g id="line2d_39">
      <g>
       <use xlink:href="#me478ffff41" x="37.06899" y="31.340455" style="stroke: #000000; stroke-width: 0.6"/>
      </g>
     </g>
    </g>
    <g id="ytick_33">
     <g id="line2d_40">
      <g>
       <use xlink:href="#me478ffff41" x="37.06899" y="28.73536" style="stroke: #000000; stroke-width: 0.6"/>
      </g>
     </g>
    </g>
    <g id="ytick_34">
     <g id="line2d_41">
      <g>
       <use xlink:href="#me478ffff41" x="37.06899" y="26.532783" style="stroke: #000000; stroke-width: 0.6"/>
      </g>
     </g>
    </g>
    <g id="ytick_35">
     <g id="line2d_42">
      <g>
       <use xlink:href="#me478ffff41" x="37.06899" y="24.624824" style="stroke: #000000; stroke-width: 0.6"/>
      </g>
     </g>
    </g>
    <g id="ytick_36">
     <g id="line2d_43">
      <g>
       <use xlink:href="#me478ffff41" x="37.06899" y="22.941885" style="stroke: #000000; stroke-width: 0.6"/>
      </g>
     </g>
    </g>
    <g id="text_13">
     <!-- $\mathdefault{MSE_f}$ -->
     <g transform="translate(9.939303 94.843549) rotate(-90) scale(0.1 -0.1)">
      <defs>
       <path id="LiberationSerif-4d" d="M 2694 0 
L 2584 0 
L 1050 3603 
L 1050 250 
L 1613 166 
L 1613 0 
L 184 0 
L 184 166 
L 722 250 
L 722 3944 
L 184 4025 
L 184 4191 
L 1453 4191 
L 2816 1003 
L 4303 4191 
L 5503 4191 
L 5503 4025 
L 4966 3944 
L 4966 250 
L 5503 166 
L 5503 0 
L 3803 0 
L 3803 166 
L 4366 250 
L 4366 3603 
L 2694 0 
z
" transform="scale(0.015625)"/>
       <path id="LiberationSerif-53" d="M 434 1128 
L 638 1128 
L 747 563 
Q 863 416 1145 303 
Q 1428 191 1703 191 
Q 2141 191 2386 414 
Q 2631 638 2631 1031 
Q 2631 1256 2536 1403 
Q 2441 1550 2286 1651 
Q 2131 1753 1934 1823 
Q 1738 1894 1530 1966 
Q 1322 2038 1125 2125 
Q 928 2213 773 2347 
Q 619 2481 523 2679 
Q 428 2878 428 3169 
Q 428 3669 803 3953 
Q 1178 4238 1844 4238 
Q 2350 4238 2944 4103 
L 2944 3231 
L 2741 3231 
L 2631 3744 
Q 2313 3975 1844 3975 
Q 1425 3975 1189 3804 
Q 953 3634 953 3334 
Q 953 3131 1048 2997 
Q 1144 2863 1298 2767 
Q 1453 2672 1651 2603 
Q 1850 2534 2058 2461 
Q 2266 2388 2464 2295 
Q 2663 2203 2817 2061 
Q 2972 1919 3067 1714 
Q 3163 1509 3163 1209 
Q 3163 603 2791 270 
Q 2419 -63 1719 -63 
Q 1381 -63 1040 -3 
Q 700 56 434 159 
L 434 1128 
z
" transform="scale(0.015625)"/>
       <path id="LiberationSerif-45" d="M 184 166 
L 722 250 
L 722 3944 
L 184 4025 
L 184 4191 
L 3328 4191 
L 3328 3188 
L 3122 3188 
L 3022 3866 
Q 2672 3909 2009 3909 
L 1325 3909 
L 1325 2272 
L 2456 2272 
L 2553 2772 
L 2753 2772 
L 2753 1484 
L 2553 1484 
L 2456 1991 
L 1325 1991 
L 1325 281 
L 2150 281 
Q 2956 281 3206 331 
L 3384 1106 
L 3591 1106 
L 3531 0 
L 184 0 
L 184 166 
z
" transform="scale(0.015625)"/>
       <path id="LiberationSerif-66" d="M 703 2675 
L 197 2675 
L 197 2828 
L 703 2950 
L 703 3156 
Q 703 3806 961 4156 
Q 1219 4506 1684 4506 
Q 1925 4506 2131 4447 
L 2131 3806 
L 1978 3806 
L 1838 4191 
Q 1731 4256 1581 4256 
Q 1384 4256 1303 4081 
Q 1222 3906 1222 3425 
L 1222 2938 
L 2003 2938 
L 2003 2675 
L 1222 2675 
L 1222 244 
L 1856 141 
L 1856 0 
L 269 0 
L 269 141 
L 703 244 
L 703 2675 
z
" transform="scale(0.015625)"/>
      </defs>
      <use xlink:href="#LiberationSerif-4d" transform="translate(0 0.78125)"/>
      <use xlink:href="#LiberationSerif-53" transform="translate(88.916016 0.78125)"/>
      <use xlink:href="#LiberationSerif-45" transform="translate(144.53125 0.78125)"/>
      <use xlink:href="#LiberationSerif-66" transform="translate(206.418594 -12.990625) scale(0.7)"/>
     </g>
    </g>
   </g>
   <g id="line2d_44">
    <path d="M 42.113403 34.694104 
L 47.151373 53.942277 
L 52.189344 58.616034 
L 57.233757 54.067921 
L 62.271728 57.99917 
L 67.309698 69.916236 
L 72.347669 58.97324 
L 77.385639 52.216161 
L 82.42361 46.357143 
L 87.46158 49.703748 
L 92.499551 54.979799 
L 97.537521 50.359103 
L 102.575492 61.183395 
L 107.613462 52.666623 
L 112.651433 46.08991 
L 117.689403 45.120697 
L 122.727374 55.269685 
L 127.765344 39.050056 
L 132.803315 37.434264 
L 137.841286 55.008225 
L 142.879256 41.744642 
L 147.917227 46.162297 
L 152.96164 43.267192 
L 157.99961 40.277727 
L 163.037581 57.24754 
L 168.075551 49.745134 
L 173.107079 43.359674 
L 178.14505 69.638372 
L 183.189463 30.918105 
L 188.220991 51.613183 
L 193.258961 63.290161 
L 198.296932 35.019396 
L 203.334902 52.277882 
L 208.372873 63.462313 
L 213.417286 64.008436 
L 218.455256 31.971447 
L 223.486785 52.819989 
L 228.524755 38.725359 
L 230.380171 65.100671 
" clip-path="url(#pb8d63ddb16)" style="fill: none; stroke: #1f77b4; stroke-width: 0.5; stroke-linecap: square"/>
   </g>
   <g id="line2d_45">
    <path d="M 38.363916 25.896038 
L 39.665284 66.425831 
L 40.96021 91.706624 
L 42.255136 101.451332 
L 43.550062 112.947769 
L 44.844988 102.377096 
L 46.139914 119.211056 
L 47.43484 114.497431 
L 48.723323 104.777541 
L 50.018249 93.525 
L 51.313175 111.011762 
L 52.608101 123.361822 
L 53.903027 54.635731 
L 55.197953 120.49064 
L 56.492879 87.194465 
L 57.787805 120.788095 
L 59.082731 118.762857 
L 60.377657 87.314633 
L 61.672583 124.023282 
L 62.967509 76.487209 
L 64.262435 121.257808 
L 65.550918 107.664337 
L 66.845844 122.04237 
L 68.14077 122.237982 
L 69.435696 97.59123 
L 70.730622 118.404025 
L 72.025548 54.464592 
L 73.320474 107.374836 
L 74.6154 120.676379 
L 75.903883 55.761556 
L 77.198809 109.625257 
L 78.493735 119.939026 
L 79.788661 103.40684 
L 81.083587 99.196964 
L 82.378513 126.273134 
L 83.673439 57.430886 
L 84.968365 67.923504 
L 86.256848 126.005646 
L 87.551774 43.37957 
L 88.8467 120.052202 
L 90.141626 85.862446 
L 91.436552 118.016983 
L 92.731478 60.176843 
L 94.026404 91.72813 
L 95.314887 104.260341 
L 96.609813 124.13247 
L 97.904739 123.982083 
L 99.199665 81.72274 
L 100.494591 76.193965 
L 101.783074 89.638639 
L 103.078 105.193162 
L 104.372926 125.071644 
L 105.667852 78.870483 
L 106.962778 94.190333 
L 108.257704 120.49943 
L 109.546188 92.066674 
L 110.841114 69.018279 
L 112.136039 104.993739 
L 113.430965 113.610823 
L 114.725891 105.913915 
L 116.020817 120.384123 
L 117.309301 112.810214 
L 118.604227 69.954549 
L 119.899153 80.256207 
L 121.194079 112.207094 
L 122.489004 85.797705 
L 123.78393 97.763311 
L 125.072414 105.554143 
L 126.36734 126.211801 
L 127.662266 66.165164 
L 128.957192 106.293822 
L 130.252118 108.131461 
L 131.540601 124.042048 
L 132.835527 81.751911 
L 134.130453 108.211855 
L 135.425379 65.607275 
L 136.720305 121.729106 
L 138.015231 116.443956 
L 139.303714 118.972024 
L 140.59864 85.277605 
L 141.893566 83.141026 
L 143.188492 86.635705 
L 144.483418 77.383353 
L 145.778344 61.958497 
L 147.066827 95.986163 
L 148.361753 117.249632 
L 149.656679 62.351137 
L 150.951605 86.704367 
L 152.246531 121.179211 
L 153.541457 82.388828 
L 154.836383 110.676249 
L 156.131309 115.744192 
L 157.419792 88.442646 
L 158.714718 115.545955 
L 160.009644 113.244547 
L 161.30457 112.405319 
L 162.599496 126.131155 
L 163.894422 85.77189 
L 165.189348 80.76481 
L 166.477832 99.259799 
L 167.772758 124.887171 
L 169.067683 95.289152 
L 170.362609 116.756284 
L 171.657535 74.190673 
L 172.946019 120.692709 
L 174.240945 67.827682 
L 175.535871 88.312652 
L 176.830797 118.066338 
L 178.125723 125.734614 
L 179.414206 57.724875 
L 180.709132 118.454738 
L 182.004058 63.114775 
L 183.298984 122.183468 
L 184.59391 84.848121 
L 185.882393 84.787807 
L 187.177319 93.744104 
L 188.472245 124.428427 
L 191.062097 83.33543 
L 192.350581 124.935065 
L 193.645506 108.311426 
L 194.940432 122.397762 
L 196.235358 99.246548 
L 197.523842 124.115472 
L 198.818768 99.876127 
L 200.113694 124.701116 
L 201.40862 85.178293 
L 202.697103 71.799316 
L 203.992029 104.511813 
L 205.286955 118.290574 
L 206.575438 110.406165 
L 207.870364 124.847381 
L 209.16529 58.451202 
L 210.460216 69.406774 
L 211.755142 106.982556 
L 213.043626 125.352899 
L 214.338552 68.643956 
L 215.633478 119.41335 
L 216.921961 108.361474 
L 218.216887 104.368927 
L 219.511813 124.587512 
L 220.806739 82.791347 
L 222.095222 124.807702 
L 223.390148 66.68456 
L 224.685074 119.44054 
L 225.98 126.027207 
L 227.268484 68.6868 
L 228.56341 119.798804 
L 229.858336 104.359452 
L 230.380171 68.362837 
L 230.380171 68.362837 
" clip-path="url(#pb8d63ddb16)" style="fill: none; stroke: #ff7f0e; stroke-width: 0.5; stroke-linecap: square"/>
   </g>
   <g id="line2d_46">
    <path d="M 37.313802 18.618614 
L 37.796983 18.665615 
L 38.286607 18.879057 
L 38.769788 19.095735 
L 39.497781 19.414633 
L 39.980963 19.639653 
L 40.708956 20.270792 
L 41.192137 22.200967 
L 41.681761 28.276065 
L 41.92013 36.250225 
L 42.403312 65.755835 
L 42.648124 82.885868 
L 42.892935 81.24514 
L 43.131305 111.072242 
L 43.376117 121.444466 
L 43.620929 110.442366 
L 44.10411 129.355442 
L 44.348922 128.099477 
L 44.587291 105.662683 
L 44.832103 110.772368 
L 45.070473 130.315781 
L 45.315284 131.455342 
L 45.560096 131.55348 
L 45.798466 131.339086 
L 46.043278 130.756553 
L 46.28809 131.992167 
L 46.526459 114.897749 
L 46.771271 131.050983 
L 47.254452 131.732487 
L 47.499264 131.556657 
L 47.982445 130.34786 
L 48.227257 132.05454 
L 48.465627 106.062533 
L 48.710439 130.616044 
L 48.95525 131.658695 
L 49.19362 131.709988 
L 49.438432 131.458497 
L 49.676801 130.246038 
L 49.921613 131.563013 
L 50.166425 128.084518 
L 50.404794 116.610425 
L 50.649606 131.106293 
L 50.894418 131.726055 
L 51.132788 131.521749 
L 51.377599 130.813749 
L 51.615969 131.020347 
L 51.860781 129.769949 
L 52.105593 116.224971 
L 52.343962 131.205155 
L 52.588774 131.706777 
L 52.833586 131.480603 
L 53.316767 130.277961 
L 53.561579 128.310567 
L 53.799948 119.3456 
L 54.04476 131.604396 
L 54.289572 131.326574 
L 54.527942 130.26054 
L 54.772753 122.763935 
L 55.011123 129.984648 
L 55.255935 130.248937 
L 55.500747 122.581371 
L 55.739116 130.096087 
L 55.983928 130.741539 
L 56.22874 129.061602 
L 56.467109 131.835794 
L 56.711921 112.75897 
L 57.195102 130.789639 
L 57.439914 131.109372 
L 57.678284 132.219995 
L 57.923096 101.17202 
L 58.167908 131.226872 
L 58.406277 131.910509 
L 58.651089 131.455342 
L 58.889458 130.753549 
L 59.13427 125.138399 
L 59.379082 130.222866 
L 59.617451 131.314073 
L 60.107075 110.884085 
L 60.590257 131.276636 
L 60.835068 129.152611 
L 61.073438 121.761086 
L 61.31825 131.211356 
L 61.556619 131.205155 
L 61.801431 127.256741 
L 62.046243 131.939852 
L 62.284612 109.193671 
L 62.529424 126.764425 
L 62.774236 131.543953 
L 63.012606 130.34786 
L 63.257417 131.46481 
L 63.495787 128.690247 
L 63.740599 116.543604 
L 63.985411 110.824394 
L 64.22378 126.347966 
L 64.468592 131.936589 
L 64.713404 125.887638 
L 64.951773 114.868074 
L 65.196585 130.096087 
L 65.434955 131.681113 
L 65.679766 130.989777 
L 65.924578 121.438205 
L 66.162948 131.112452 
L 66.40776 114.526346 
L 66.652571 128.161976 
L 66.890941 132.216667 
L 67.374122 131.722841 
L 67.618934 130.388793 
L 67.863746 131.137114 
L 68.102115 121.133178 
L 68.346927 130.922752 
L 68.591739 130.205512 
L 68.830109 108.557079 
L 69.07492 127.039697 
L 69.31329 132.256653 
L 69.558102 132.239979 
L 70.041283 113.940361 
L 70.530907 131.121695 
L 70.769276 127.730119 
L 71.014088 118.328291 
L 71.2589 131.943116 
L 71.497269 131.44588 
L 71.742081 111.675743 
L 72.225263 132.266667 
L 72.470075 132.276688 
L 72.953256 114.662058 
L 73.198068 125.608335 
L 73.436437 130.214186 
L 73.681249 127.754448 
L 73.919618 119.939026 
L 74.16443 132.166841 
L 74.409242 130.124802 
L 74.647612 120.995964 
L 74.892424 126.34576 
L 75.375605 132.117188 
L 75.620417 128.11695 
L 75.865229 121.385093 
L 76.103598 131.939852 
L 76.34841 130.263442 
L 76.586779 115.067081 
L 77.076403 132.340319 
L 77.314773 131.855247 
L 77.559584 112.896031 
L 78.042766 132.313493 
L 78.287578 132.363834 
L 78.525947 116.2685 
L 78.770759 128.547969 
L 79.015571 125.352899 
L 79.25394 124.424569 
L 79.498752 131.279752 
L 79.743564 132.156896 
L 79.981933 119.237864 
L 80.226745 124.107924 
L 80.465115 131.090908 
L 80.709927 132.587466 
L 80.954738 124.215862 
L 81.193108 111.117771 
L 81.682732 132.6525 
L 81.921101 132.475213 
L 82.165913 119.467782 
L 82.410725 131.189662 
L 82.649094 132.064414 
L 82.893906 122.615318 
L 83.132276 119.170939 
L 83.377087 108.348945 
L 83.621899 128.219718 
L 83.860269 132.887706 
L 84.105081 130.89239 
L 84.349892 112.32239 
L 84.833074 132.728173 
L 85.071443 132.387387 
L 85.316255 112.699417 
L 85.799436 132.635357 
L 86.044248 132.509136 
L 86.28906 112.446964 
L 86.772241 132.607971 
L 87.010611 132.638784 
L 87.255423 113.574673 
L 87.738604 132.6525 
L 88.228228 125.891912 
L 88.711409 132.704052 
L 88.956221 126.901398 
L 89.194591 109.859952 
L 89.439402 126.521135 
L 89.677772 133.006777 
L 89.922584 132.82854 
L 90.167396 116.655146 
L 90.405765 128.36383 
L 90.650577 120.413227 
L 90.895389 131.633117 
L 91.133758 130.456295 
L 91.37857 131.236189 
L 91.61694 111.355343 
L 91.861751 124.585562 
L 92.106563 130.39465 
L 92.344933 129.933506 
L 92.589745 127.039697 
L 92.834556 119.729206 
L 93.072926 132.731622 
L 93.317738 130.636883 
L 93.556107 114.808909 
L 94.045731 133.112671 
L 94.2841 131.829315 
L 94.528912 113.413118 
L 95.012094 133.126849 
L 95.256905 132.54995 
L 95.501717 111.285963 
L 95.740087 125.866287 
L 95.984899 133.251516 
L 96.223268 133.031416 
L 96.46808 115.127328 
L 96.712892 121.276365 
L 96.951261 132.614813 
L 97.196073 127.422311 
L 97.440885 125.266712 
L 97.679254 130.17375 
L 97.924066 132.103976 
L 98.162436 126.646768 
L 98.407248 127.71797 
L 98.652059 125.069626 
L 98.890429 129.171421 
L 99.135241 131.137114 
L 99.380053 127.773941 
L 99.618422 130.889358 
L 99.863234 131.658695 
L 100.108046 127.857085 
L 100.346415 111.754992 
L 100.591227 127.158313 
L 100.829597 133.123303 
L 101.074408 132.947118 
L 101.31922 110.705755 
L 101.55759 126.935848 
L 101.802402 133.406181 
L 102.047214 133.063156 
L 102.285583 112.190699 
L 102.768764 133.298099 
L 103.013576 133.19439 
L 103.258388 114.662058 
L 103.496757 128.019876 
L 103.741569 132.18343 
L 103.986381 132.773078 
L 104.469563 110.588094 
L 104.707932 128.149455 
L 104.952744 133.624831 
L 105.197556 130.583357 
L 105.435925 125.299484 
L 105.680737 132.28003 
L 105.925549 130.762563 
L 106.40873 125.681862 
L 106.6471 133.373671 
L 106.891912 133.53332 
L 107.136723 133.323245 
L 107.375093 121.709953 
L 108.103086 131.709988 
L 108.347898 130.732539 
L 108.59271 109.604733 
L 108.831079 129.003021 
L 109.075891 133.739125 
L 109.314261 132.526128 
L 109.559072 113.738075 
L 110.042254 133.772479 
L 110.287066 133.013812 
L 110.531877 112.289354 
L 110.770247 126.676092 
L 111.015059 133.6616 
L 111.253428 131.774365 
L 111.49824 120.846535 
L 111.743052 128.524821 
L 112.226233 133.045514 
L 112.471045 130.541864 
L 112.709415 133.219354 
L 112.954226 133.996851 
L 113.199038 117.191383 
L 113.68222 131.626729 
L 114.165401 134.030812 
L 114.410213 124.147596 
L 114.648582 123.689641 
L 114.893394 133.772479 
L 115.138206 134.030812 
L 115.376575 133.794758 
L 115.621387 131.761467 
L 115.859757 132.529529 
L 116.104569 134.19802 
L 116.349381 114.623151 
L 116.58775 132.968146 
L 116.832562 134.098979 
L 117.077374 134.098979 
L 117.315743 133.791042 
L 117.560555 130.488692 
L 117.798924 124.324622 
L 118.043736 132.64564 
L 118.288548 132.6525 
L 118.526918 127.886545 
L 118.77173 131.884477 
L 119.016541 88.176198 
L 119.254911 132.25999 
L 119.499723 133.978018 
L 119.738092 133.753939 
L 120.227716 110.75013 
L 120.466085 126.068262 
L 120.710897 134.507139 
L 120.955709 134.03837 
L 121.194079 116.095173 
L 121.43889 133.974254 
L 121.683702 109.804382 
L 121.922072 129.309214 
L 122.166884 134.36334 
L 122.405253 134.340156 
L 122.650065 121.486802 
L 122.894877 123.954061 
L 123.133246 133.676334 
L 123.378058 129.868423 
L 123.62287 130.021698 
L 123.861239 123.302856 
L 124.106051 133.650559 
L 124.344421 132.594298 
L 124.589233 133.602815 
L 124.834044 122.473278 
L 125.072414 133.962969 
L 125.317226 134.823093 
L 125.562038 133.676334 
L 125.800407 122.774242 
L 126.045219 129.753136 
L 126.5284 134.648454 
L 126.773212 129.552905 
L 127.256393 134.847074 
L 127.501205 130.001736 
L 127.739575 127.493861 
L 127.984387 134.775252 
L 128.467568 126.956557 
L 128.71238 134.879111 
L 128.950749 130.559632 
L 129.195561 122.424566 
L 129.440373 135.322926 
L 129.678742 134.771273 
L 129.923554 108.787647 
L 130.168366 132.400864 
L 130.406736 135.539611 
L 130.651548 133.947937 
L 130.889917 111.699472 
L 131.134729 130.318694 
L 131.379541 135.535413 
L 131.61791 133.925417 
L 131.862722 118.595135 
L 132.345903 135.170722 
L 132.829085 125.654508 
L 133.073897 135.285754 
L 133.318708 131.426976 
L 133.557078 132.057831 
L 133.80189 130.49459 
L 134.046702 124.459329 
L 134.285071 134.815109 
L 134.529883 134.328579 
L 134.768252 109.173757 
L 135.013064 132.905154 
L 135.257876 135.952811 
L 135.496246 135.101331 
L 135.741057 114.089297 
L 136.224239 136.192519 
L 136.469051 135.322926 
L 136.70742 118.698115 
L 136.952232 117.70026 
L 137.197044 136.078701 
L 137.435413 134.847074 
L 137.680225 136.196915 
L 137.925037 110.449617 
L 138.163406 127.869353 
L 138.646588 133.95921 
L 138.8914 127.943182 
L 139.136211 132.387387 
L 139.374581 130.530031 
L 139.619393 129.555667 
L 139.864205 135.61539 
L 140.102574 131.894233 
L 140.347386 120.41614 
L 140.592198 134.799153 
L 140.830567 127.372438 
L 141.075379 133.344834 
L 141.313749 131.59165 
L 141.55856 127.955524 
L 141.803372 137.312054 
L 142.041742 136.048212 
L 142.286554 130.859066 
L 142.531366 114.977185 
L 142.769735 132.367196 
L 143.014547 136.316115 
L 143.252916 105.735504 
L 143.497728 135.178908 
L 143.74254 137.118485 
L 143.980909 137.741488 
L 144.225721 137.973585 
L 144.470533 137.600138 
L 144.953715 125.838577 
L 145.198526 137.517923 
L 145.436896 133.551575 
L 145.681708 125.317951 
L 145.920077 134.374945 
L 146.164889 128.057134 
L 146.409701 132.773078 
L 146.64807 131.674704 
L 146.892882 128.81034 
L 147.137694 134.927301 
L 147.376064 127.599453 
L 147.620875 132.635357 
L 147.859245 129.385434 
L 148.348869 132.390755 
L 148.587238 125.698722 
L 148.83205 133.828242 
L 149.076862 122.974979 
L 149.315231 133.970492 
L 149.560043 121.673314 
L 149.798413 134.526682 
L 150.043224 121.828477 
L 150.288036 134.875102 
L 150.526406 122.490113 
L 150.771218 135.125784 
L 151.016029 123.365404 
L 151.254399 135.232231 
L 151.499211 124.098495 
L 151.73758 135.195294 
L 151.982392 124.397591 
L 152.227204 135.133944 
L 152.465573 124.227272 
L 152.710385 135.166631 
L 152.955197 123.790763 
L 153.193567 135.314657 
L 153.438378 123.430025 
L 153.676748 135.493499 
L 153.92156 123.329629 
L 154.166372 135.644968 
L 154.404741 123.399473 
L 154.649553 135.768164 
L 154.894365 123.4841 
L 155.132734 135.875226 
L 155.377546 123.522075 
L 155.615916 135.987429 
L 155.860727 123.547448 
L 156.105539 136.113626 
L 156.343909 123.609256 
L 156.588721 136.240947 
L 156.833532 123.698804 
L 157.071902 136.35607 
L 157.316714 123.811073 
L 157.555083 136.463167 
L 157.799895 123.927957 
L 158.044707 136.566561 
L 158.283076 124.013908 
L 158.527888 136.6798 
L 158.7727 124.123024 
L 159.01107 136.780199 
L 159.255881 124.252024 
L 159.494251 136.867478 
L 159.739063 124.378352 
L 159.983875 136.950658 
L 160.222244 124.474805 
L 160.467056 137.029664 
L 160.711868 124.581661 
L 160.950237 137.10911 
L 161.195049 124.707016 
L 161.433419 137.165456 
L 161.678231 124.829512 
L 161.923042 137.217303 
L 162.161412 124.943063 
L 162.406224 137.2646 
L 162.651036 125.061557 
L 162.889405 137.316808 
L 163.134217 125.166814 
L 163.372586 137.364437 
L 163.617398 125.274898 
L 163.86221 137.407438 
L 164.10058 125.396188 
L 164.345391 137.440974 
L 164.590203 125.503947 
L 164.828573 137.474588 
L 165.073385 125.604144 
L 165.318196 137.508281 
L 165.556566 125.717713 
L 165.801378 137.532397 
L 166.039747 125.819425 
L 166.284559 137.551719 
L 166.529371 125.924009 
L 166.76774 137.571067 
L 167.012552 126.037999 
L 167.257364 137.575908 
L 167.495734 126.148553 
L 167.740545 137.575908 
L 167.978915 126.253391 
L 168.223727 137.575908 
L 168.468539 126.350173 
L 168.706908 137.575908 
L 168.95172 126.447615 
L 169.196532 137.571067 
L 169.434901 126.547963 
L 169.679713 137.566227 
L 169.918083 126.628753 
L 170.162894 137.571067 
L 170.407706 126.700951 
L 170.646076 137.575908 
L 170.890888 126.784888 
L 171.135699 137.575908 
L 171.374069 126.867032 
L 171.618881 137.571067 
L 171.863693 126.951953 
L 172.102062 137.561389 
L 172.346874 127.03275 
L 172.585243 137.546886 
L 172.830055 127.116336 
L 173.074867 137.527571 
L 173.313237 127.207443 
L 173.558048 137.498647 
L 173.80286 127.296775 
L 174.04123 137.469781 
L 174.286042 127.367697 
L 174.524411 137.464976 
L 174.769223 127.42945 
L 175.014035 137.464976 
L 175.252404 127.508214 
L 175.497216 137.45057 
L 175.742028 127.594636 
L 175.980397 137.417012 
L 176.225209 127.654961 
L 176.463579 137.407438 
L 176.708391 127.705831 
L 176.953203 137.412224 
L 177.191572 127.798345 
L 177.436384 137.38831 
L 177.681196 127.908681 
L 177.919565 137.326321 
L 178.164377 127.985189 
L 178.402746 137.283563 
L 178.647558 128.029802 
L 178.89237 137.27882 
L 179.13074 128.084518 
L 179.375552 137.274078 
L 179.620363 128.174509 
L 179.858733 137.240932 
L 180.103545 128.262547 
L 180.348357 137.198428 
L 180.586726 128.315631 
L 180.831538 137.203144 
L 181.069907 128.358749 
L 181.314719 137.231475 
L 181.559531 128.442821 
L 181.797901 137.217303 
L 182.042712 128.573732 
L 182.287524 137.123175 
L 182.525894 128.674656 
L 182.770706 137.029664 
L 183.015517 128.685048 
L 183.253887 137.043652 
L 183.498699 128.651303 
L 183.737068 137.151349 
L 183.98188 128.71106 
L 184.226692 137.184288 
L 184.465061 128.915597 
L 184.709873 137.011035 
L 184.954685 129.104358 
L 185.193055 136.77562 
L 185.437866 129.115067 
L 185.676236 136.766466 
L 185.921048 128.88921 
L 186.16586 137.179577 
L 186.404229 128.705854 
L 186.649041 137.658458 
L 186.893853 129.198335 
L 187.132222 137.231475 
L 187.377034 129.893855 
L 187.621846 135.948489 
L 187.860215 130.607122 
L 188.105027 134.194198 
L 188.343397 131.920283 
L 188.588209 130.974517 
L 188.833021 135.464232 
L 189.07139 124.48255 
L 189.316202 143.126935 
L 189.561014 135.832305 
L 189.799383 138.589058 
L 190.044195 125.984117 
L 190.282564 130.562596 
L 190.527376 130.225761 
L 190.772188 143.020224 
L 191.010558 138.068492 
L 191.25537 126.277525 
L 191.500181 137.174869 
L 191.738551 134.636625 
L 191.983363 127.214475 
L 192.221732 143.006056 
L 192.466544 144.325473 
L 192.711356 137.283563 
L 193.194537 114.740191 
L 193.439349 143.415455 
L 193.677719 143.829428 
L 193.92253 134.569773 
L 194.1609 112.65703 
L 194.405712 134.266991 
L 194.650524 143.65054 
L 195.133705 125.234015 
L 195.378517 140.618565 
L 195.616886 130.995886 
L 196.100068 137.658458 
L 196.344879 120.066413 
L 196.589691 144.271218 
L 197.072873 128.044704 
L 197.317684 117.16815 
L 197.556054 143.859462 
L 197.800866 143.897093 
L 198.039235 136.109255 
L 198.284047 121.166921 
L 198.528859 142.81615 
L 198.767228 131.285986 
L 199.01204 131.620345 
L 199.256852 145.2725 
L 199.495222 142.566806 
L 199.740033 123.433624 
L 199.984845 132.526128 
L 200.223215 125.116113 
L 200.468027 145.347375 
L 200.706396 143.49583 
L 200.951208 114.594041 
L 201.19602 113.271032 
L 201.434389 144.807196 
L 201.679201 144.743086 
L 201.924013 136.409519 
L 202.162382 114.937412 
L 202.407194 116.410893 
L 202.645564 144.751085 
L 202.890376 145.523622 
L 203.135188 144.458099 
L 203.373557 109.846039 
L 203.863181 143.784496 
L 204.10155 140.552816 
L 204.346362 138.888442 
L 204.584731 138.326405 
L 204.829543 143.162683 
L 205.074355 143.635734 
L 205.312725 125.195285 
L 205.557537 141.75277 
L 205.802348 144.984996 
L 206.040718 145.839544 
L 206.28553 146.092135 
L 206.523899 143.561929 
L 206.768711 123.942868 
L 207.013523 114.526346 
L 207.251892 145.189764 
L 207.496704 145.943523 
L 207.741516 124.789882 
L 207.979886 118.366107 
L 208.224697 144.944393 
L 208.463067 145.978352 
L 208.707879 144.140306 
L 208.952691 128.042219 
L 209.19106 131.787276 
L 209.435872 120.445309 
L 209.680684 145.856821 
L 209.919053 141.630066 
L 210.163865 114.789241 
L 210.402235 132.580638 
L 210.647046 129.072279 
L 210.891858 143.784496 
L 211.619851 127.205099 
L 211.858221 145.987073 
L 212.103033 147.09301 
L 212.341402 118.762857 
L 212.586214 121.489943 
L 212.831026 145.770642 
L 213.069395 146.924357 
L 213.314207 124.486423 
L 213.559019 119.426939 
L 213.797389 144.041001 
L 214.287012 124.634411 
L 214.525382 146.776097 
L 214.770194 147.273219 
L 215.008563 118.972024 
L 215.253375 123.961529 
L 215.498187 144.679263 
L 215.736556 146.757672 
L 215.981368 145.62532 
L 216.464549 112.011582 
L 216.709361 145.667909 
L 216.947731 141.896177 
L 217.437355 117.809102 
L 217.675724 145.41426 
L 217.920536 145.987073 
L 218.158905 140.546854 
L 218.403717 143.613552 
L 218.886898 102.530447 
L 219.13171 138.490642 
L 219.376522 146.048265 
L 219.614892 147.111873 
L 219.859704 146.224559 
L 220.342885 121.428818 
L 220.587697 147.064762 
L 221.070878 144.671305 
L 221.31569 105.153054 
L 221.798871 145.49831 
L 222.043683 147.225574 
L 222.282053 146.268975 
L 222.526864 135.674608 
L 222.765234 103.433448 
L 223.010046 141.636498 
L 223.254858 147.321022 
L 223.493227 145.297415 
L 223.738039 111.922858 
L 223.982851 139.39629 
L 224.22122 126.509971 
L 224.466032 146.457043 
L 224.710844 147.35938 
L 224.949213 115.86023 
L 225.194025 122.933215 
L 225.432395 146.313529 
L 225.677207 147.699482 
L 225.922018 114.154948 
L 226.4052 146.638486 
L 226.650012 147.206561 
L 226.888381 138.667237 
L 227.133193 116.149112 
L 227.371562 127.742278 
L 227.616374 145.87412 
L 227.861186 147.768485 
L 228.344367 112.231722 
L 228.589179 146.502188 
L 228.827549 144.944393 
L 229.31073 133.970492 
L 229.555542 102.010809 
L 229.800354 139.974304 
L 230.038723 145.506743 
L 230.380171 146.999068 
L 230.380171 146.999068 
" clip-path="url(#pb8d63ddb16)" style="fill: none; stroke: #2ca02c; stroke-width: 0.5; stroke-linecap: square"/>
   </g>
   <g id="line2d_47">
    <path d="M 37.262263 18.618614 
L 38.202855 18.700968 
L 38.582958 18.962931 
L 39.336721 20.11363 
L 39.710381 21.671266 
L 40.090484 25.032446 
L 40.464144 36.258287 
L 41.217907 70.409289 
L 41.404737 76.147863 
L 41.59801 86.337453 
L 41.97167 92.995777 
L 42.725433 114.967231 
L 43.292365 123.72082 
L 43.672468 108.069925 
L 43.859298 125.772717 
L 44.046128 128.773683 
L 44.232958 128.149455 
L 44.426231 124.121136 
L 44.613061 128.136944 
L 44.799891 127.67674 
L 44.986721 128.389263 
L 45.179994 125.975515 
L 45.366824 126.168152 
L 45.553654 126.80538 
L 45.740484 131.559834 
L 45.933757 115.208054 
L 46.494247 129.871247 
L 46.687519 129.003021 
L 46.87435 125.67344 
L 47.06118 125.855623 
L 47.24801 130.050263 
L 47.441282 131.816367 
L 47.628112 127.558563 
L 47.814942 131.304704 
L 48.008215 115.775746 
L 48.195045 129.1768 
L 48.381875 130.321608 
L 48.568705 127.329828 
L 48.761978 126.534543 
L 49.135638 132.011834 
L 49.322468 128.862872 
L 49.515741 122.453101 
L 49.702571 124.265369 
L 49.889401 127.94565 
L 50.076231 127.188707 
L 50.456334 131.874727 
L 50.643164 131.118614 
L 50.829994 122.647643 
L 51.023266 128.915597 
L 51.210097 131.289104 
L 51.583757 120.066413 
L 51.777029 127.764191 
L 52.33752 131.298462 
L 52.530792 114.868074 
L 52.717622 130.061705 
L 52.904452 125.906882 
L 53.097725 129.431909 
L 53.471385 126.055285 
L 53.851488 131.884477 
L 54.038318 119.251286 
L 54.225148 114.967231 
L 54.411978 131.604396 
L 54.605251 132.117188 
L 54.792081 126.76897 
L 54.978911 129.950533 
L 55.165741 129.377248 
L 55.359013 131.550303 
L 55.545844 131.585281 
L 55.732674 130.980619 
L 56.112776 123.343928 
L 56.299606 104.899979 
L 56.486437 130.058844 
L 56.866539 132.008555 
L 57.053369 131.920283 
L 57.240199 131.100137 
L 57.427029 131.499579 
L 57.620302 118.178016 
L 57.807132 128.97382 
L 57.993962 125.541439 
L 58.180792 129.284801 
L 58.374065 127.691278 
L 58.747725 132.11058 
L 58.940998 125.669231 
L 59.127828 129.536345 
L 59.314658 129.925 
L 59.501488 131.884477 
L 59.69476 130.977568 
L 60.068421 124.659879 
L 60.448523 131.796966 
L 60.635353 120.282724 
L 60.822184 118.391374 
L 61.009014 125.67765 
L 61.202286 128.129443 
L 61.389116 128.828704 
L 61.575946 132.223323 
L 61.956049 114.516701 
L 62.142879 129.018973 
L 62.329709 130.883294 
L 62.516539 125.495629 
L 62.709812 123.322485 
L 62.896642 129.385434 
L 63.083472 131.367277 
L 63.463575 121.896187 
L 63.650405 130.385865 
L 63.837235 131.959448 
L 64.030508 132.15027 
L 64.217338 131.414387 
L 64.404168 119.673771 
L 64.590998 129.996037 
L 64.78427 128.470956 
L 64.9711 129.702815 
L 65.157931 132.360472 
L 65.344761 120.882617 
L 65.538033 117.296403 
L 65.724863 125.118137 
L 65.911693 128.099477 
L 66.098524 128.445376 
L 66.291796 132.140338 
L 66.478626 127.325102 
L 66.665456 116.599266 
L 66.852286 129.736343 
L 67.045559 131.806663 
L 67.232389 132.394124 
L 67.419219 131.057118 
L 67.612492 119.051258 
L 67.799322 123.62931 
L 67.986152 131.392383 
L 68.172982 128.627987 
L 68.366255 122.976722 
L 68.553085 131.304704 
L 68.739915 131.910509 
L 68.926745 117.760626 
L 69.120017 129.133827 
L 69.306847 129.037608 
L 69.493678 131.700357 
L 69.680508 131.962716 
L 69.87378 131.020347 
L 70.06061 131.793735 
L 70.434271 122.886376 
L 70.627543 125.067609 
L 70.814373 132.347034 
L 71.001203 113.271032 
L 71.188033 121.488373 
L 71.381306 122.934953 
L 71.568136 129.658233 
L 71.754966 128.242376 
L 71.941796 128.540249 
L 72.135069 132.481991 
L 72.508729 116.632768 
L 72.702002 129.072279 
L 72.888832 129.741938 
L 73.075662 132.024961 
L 73.262492 132.243312 
L 73.455764 129.919332 
L 73.642595 131.871478 
L 73.829425 129.284801 
L 74.016255 129.144558 
L 74.396357 131.917024 
L 74.770018 119.117623 
L 74.96329 130.28668 
L 75.33695 132.631931 
L 75.52378 128.527391 
L 75.717053 117.006566 
L 75.903883 129.431909 
L 76.090713 130.822801 
L 76.470816 123.653046 
L 76.657646 130.121928 
L 76.844476 132.51593 
L 77.031306 130.71755 
L 77.224579 117.592241 
L 77.411409 129.67772 
L 77.785069 132.607971 
L 77.978342 131.887728 
L 78.165172 122.061975 
L 78.352002 119.924942 
L 78.538832 122.101265 
L 78.732104 130.666707 
L 78.918934 132.330253 
L 79.105765 132.655931 
L 79.292595 130.053123 
L 79.485867 117.098676 
L 79.672697 129.390893 
L 79.859527 131.236189 
L 80.0528 123.336777 
L 80.23963 124.536879 
L 80.42646 130.061705 
L 80.61329 132.123798 
L 80.806563 132.404235 
L 80.993393 132.190071 
L 81.367053 117.760626 
L 81.560326 128.151958 
L 81.747156 131.361008 
L 81.933986 131.874727 
L 82.314089 122.523844 
L 82.500919 129.908003 
L 82.687749 132.140338 
L 82.874579 122.753636 
L 83.067851 119.481423 
L 83.254682 128.586631 
L 83.441512 129.727953 
L 83.628342 132.296752 
L 83.821614 129.798016 
L 84.008444 120.30873 
L 84.195274 122.588154 
L 84.382105 132.434611 
L 84.949037 123.558336 
L 85.135867 128.881303 
L 85.32914 130.327438 
L 85.51597 130.24314 
L 85.7028 116.643953 
L 85.896073 130.696593 
L 86.082903 126.137677 
L 86.269733 131.871478 
L 86.649836 116.972178 
L 86.836666 130.429843 
L 87.023496 130.28668 
L 87.210326 132.825068 
L 87.590429 119.508743 
L 87.777259 130.324522 
L 88.157361 132.804249 
L 88.531021 120.776137 
L 88.717852 122.429597 
L 88.911124 132.407607 
L 89.284784 125.627206 
L 89.471614 125.726161 
L 89.664887 130.77459 
L 89.851717 126.954255 
L 90.038547 120.514092 
L 90.225377 131.452187 
L 90.41865 131.665096 
L 90.60548 112.430291 
L 90.79231 127.957994 
L 90.985583 129.195641 
L 91.172413 132.283373 
L 91.546073 129.008336 
L 91.739345 119.224454 
L 91.926176 102.816647 
L 92.299836 132.051251 
L 92.493108 132.71783 
L 92.866769 132.11058 
L 93.053599 129.233398 
L 93.246871 121.33684 
L 93.433701 123.9019 
L 93.620531 132.223323 
L 93.807361 124.391817 
L 94.000634 123.914923 
L 94.187464 130.465123 
L 94.374294 131.681113 
L 94.561124 129.115067 
L 94.941227 121.783514 
L 95.128057 127.597044 
L 95.50816 131.642703 
L 95.69499 113.529613 
L 95.88182 128.089503 
L 96.075092 124.244403 
L 96.261923 129.056266 
L 96.448753 129.013654 
L 96.828855 126.087751 
L 97.015685 128.396902 
L 97.202516 132.940115 
L 97.389346 116.68878 
L 97.769448 132.707495 
L 97.956278 119.577273 
L 98.143108 129.795206 
L 98.336381 109.414579 
L 98.523211 126.359004 
L 98.710041 128.237338 
L 98.903314 131.652296 
L 99.090144 131.127861 
L 99.276974 131.158728 
L 99.463804 132.236646 
L 99.657077 118.788836 
L 100.030737 127.849729 
L 100.410839 125.924009 
L 100.59767 127.233245 
L 100.7845 132.954123 
L 100.97133 119.495077 
L 101.164602 116.655146 
L 101.351432 131.035657 
L 101.538263 132.971653 
L 101.725093 122.781117 
L 101.918365 119.184299 
L 102.292025 128.047189 
L 102.672128 132.76616 
L 102.858958 116.880877 
L 103.045788 113.413118 
L 103.239061 119.332089 
L 103.425891 131.152549 
L 103.799551 131.703567 
L 103.992824 132.666229 
L 104.179654 121.708358 
L 104.366484 130.515253 
L 104.553314 129.082964 
L 104.746586 132.560172 
L 105.120247 127.82279 
L 105.500349 114.468575 
L 105.87401 132.236646 
L 106.06084 132.203363 
L 106.254112 132.697167 
L 106.814603 120.848037 
L 107.194705 128.555693 
L 107.381535 98.379341 
L 107.761638 127.381924 
L 107.948468 132.54995 
L 108.135298 130.907563 
L 108.322128 132.919128 
L 108.702231 117.882127 
L 108.889061 132.193393 
L 109.082334 132.91214 
L 109.269164 119.024798 
L 109.455994 126.800823 
L 109.642824 123.591049 
L 109.836096 128.805098 
L 110.022926 128.918238 
L 110.209757 132.783461 
L 110.396587 118.315707 
L 110.589859 124.947064 
L 110.776689 123.376154 
L 110.963519 127.568174 
L 111.343622 126.209615 
L 111.530452 127.481911 
L 111.717282 133.326841 
L 111.904112 119.826739 
L 112.097385 129.49778 
L 112.284215 131.547128 
L 112.471045 121.254718 
L 112.657875 97.435776 
L 112.851148 126.65353 
L 113.224808 133.244362 
L 113.411638 133.255094 
L 113.604911 128.114452 
L 113.978571 127.144307 
L 114.165401 99.497083 
L 114.732334 133.070219 
L 114.919164 131.881226 
L 115.112436 133.427896 
L 115.299266 120.634894 
L 115.486097 122.690288 
L 115.672927 121.502514 
L 115.866199 119.305104 
L 116.053029 131.21756 
L 116.239859 133.566196 
L 116.42669 118.492892 
L 116.619962 128.839209 
L 116.806792 131.636312 
L 116.993622 113.043113 
L 117.560555 132.611392 
L 117.747385 132.873763 
L 118.127488 119.508743 
L 118.314318 130.40344 
L 118.501148 131.952913 
L 118.881251 123.219293 
L 119.068081 132.431232 
L 119.254911 132.18343 
L 119.448183 111.898756 
L 119.635013 131.515411 
L 119.821844 133.133944 
L 120.008674 130.342022 
L 120.201946 132.870279 
L 120.388776 133.212217 
L 120.575606 114.917567 
L 120.762437 127.02118 
L 120.955709 132.236646 
L 121.142539 133.377279 
L 121.329369 110.420635 
L 121.516199 124.121136 
L 121.709472 128.833956 
L 121.896302 99.595146 
L 122.083132 124.859307 
L 122.463235 133.820794 
L 122.836895 100.372586 
L 123.403828 133.496879 
L 123.590658 133.017331 
L 123.78393 133.657919 
L 123.970761 121.568694 
L 124.157591 122.143951 
L 124.344421 121.371068 
L 124.537693 121.094931 
L 124.724523 130.406371 
L 124.911353 132.873763 
L 125.098184 132.821596 
L 125.478286 119.995502 
L 125.665116 130.601177 
L 125.851946 132.75579 
L 126.045219 120.46284 
L 126.232049 127.125654 
L 126.798982 133.96673 
L 126.985812 122.364326 
L 127.172642 118.240439 
L 127.359472 132.061122 
L 127.552745 128.794619 
L 127.739575 111.440601 
L 127.926405 124.273001 
L 128.113235 129.377248 
L 128.306508 128.007478 
L 128.493338 127.640459 
L 128.680168 133.536969 
L 128.87344 124.521335 
L 129.433931 118.659411 
L 129.627203 130.344941 
L 129.814033 133.219354 
L 130.000863 132.940115 
L 130.187693 130.684631 
L 130.567796 118.041639 
L 130.754626 125.116113 
L 130.941456 127.52977 
L 131.134729 127.381924 
L 131.321559 133.077286 
L 131.695219 125.033351 
L 131.888492 125.535184 
L 132.075322 120.33768 
L 132.448982 128.76584 
L 132.642255 127.563368 
L 133.015915 134.259311 
L 133.202745 111.715312 
L 133.396017 122.586458 
L 133.582848 123.460643 
L 133.769678 131.518579 
L 133.956508 129.976111 
L 134.14978 134.309304 
L 134.33661 120.731383 
L 134.52344 116.041437 
L 134.710271 132.243312 
L 134.903543 134.483721 
L 135.090373 118.190479 
L 135.277203 132.153583 
L 135.464033 133.947937 
L 135.657306 119.743099 
L 135.844136 132.999746 
L 136.030966 132.642212 
L 136.224239 134.270832 
L 136.597899 119.064506 
L 136.784729 127.604271 
L 136.978002 129.168732 
L 137.164832 132.773078 
L 137.351662 134.098979 
L 137.538492 123.927957 
L 137.731764 129.249611 
L 137.918595 126.152906 
L 138.292255 134.064855 
L 138.672357 115.117269 
L 138.859187 130.356622 
L 139.046018 132.866796 
L 139.23929 133.269414 
L 139.61295 118.053984 
L 139.79978 130.880263 
L 139.993053 133.569854 
L 140.179883 133.742827 
L 140.366713 130.538905 
L 140.553543 120.695681 
L 140.746816 133.628504 
L 140.933646 133.212217 
L 141.120476 114.211462 
L 141.307306 122.91585 
L 141.500579 123.00289 
L 141.687409 130.768575 
L 141.874239 129.547383 
L 142.061069 134.640567 
L 142.441172 116.214109 
L 142.628002 126.107266 
L 143.194935 134.290055 
L 143.381765 118.366107 
L 143.568595 114.808909 
L 143.761867 130.928833 
L 143.948697 132.203363 
L 144.322358 123.401268 
L 144.51563 131.76469 
L 144.70246 133.687395 
L 144.88929 134.309304 
L 145.07612 125.170877 
L 145.269393 122.588154 
L 145.836326 133.173027 
L 146.023156 134.759341 
L 146.209986 125.195285 
L 146.396816 128.024838 
L 146.590089 124.965081 
L 146.776919 130.515253 
L 146.963749 130.651787 
L 147.150579 133.169469 
L 147.343851 118.569505 
L 147.530682 115.807369 
L 147.717512 134.144605 
L 147.904342 134.293903 
L 148.097614 119.332089 
L 148.284444 134.491523 
L 148.658105 117.319846 
L 149.038207 133.646881 
L 149.225037 134.511045 
L 149.411867 134.17892 
L 149.60514 133.595484 
L 149.79197 134.479822 
L 149.9788 134.495425 
L 150.16563 134.17892 
L 150.358903 135.162541 
L 150.545733 129.563956 
L 150.732563 115.86023 
L 150.925836 130.524118 
L 151.299496 134.425345 
L 151.486326 127.362958 
L 151.679598 114.555318 
L 151.866429 130.344941 
L 152.053259 126.137677 
L 152.240089 131.038721 
L 152.433361 130.365388 
L 152.620191 133.955451 
L 152.807022 118.353491 
L 152.993852 123.75759 
L 153.187124 124.663801 
L 153.373954 133.176585 
L 153.560784 131.839034 
L 153.747614 134.883121 
L 153.940887 129.214507 
L 154.127717 114.555318 
L 154.314547 130.96232 
L 154.501377 134.282363 
L 154.69465 133.887964 
L 154.88148 130.840922 
L 155.06831 119.44054 
L 155.25514 130.874204 
L 155.635243 135.101331 
L 156.008903 133.657919 
L 156.202176 116.778857 
L 156.389006 130.904527 
L 156.575836 133.518733 
L 156.769108 118.620811 
L 156.955938 130.950134 
L 157.142769 127.379552 
L 157.329599 133.30887 
L 157.522871 131.690732 
L 157.709701 135.207596 
L 158.083362 118.078704 
L 158.276634 122.160403 
L 158.463464 132.635357 
L 158.650294 131.423828 
L 159.030397 135.269264 
L 159.217227 124.571914 
L 159.404057 127.654961 
L 159.590887 126.341347 
L 159.78416 133.515088 
L 159.97099 132.011834 
L 160.15782 135.236341 
L 160.537923 116.632768 
L 160.724753 122.045636 
L 160.911583 132.481991 
L 161.104855 131.401809 
L 161.478516 135.224015 
L 161.665346 118.378735 
L 161.858618 113.765492 
L 162.232278 132.975162 
L 162.419109 132.064414 
L 162.799211 135.232231 
L 162.986041 118.215437 
L 163.172871 112.281106 
L 163.552974 130.922752 
L 163.739804 130.595235 
L 164.119907 135.158452 
L 164.306737 119.467782 
L 164.493567 123.809226 
L 164.680397 135.46841 
L 164.87367 112.38039 
L 165.0605 120.382669 
L 165.24733 104.101319 
L 165.43416 125.842837 
L 165.627432 125.86842 
L 165.814263 131.988892 
L 166.194365 128.169495 
L 166.381195 134.095183 
L 166.568025 134.939374 
L 166.754856 134.935349 
L 166.948128 134.791182 
L 167.134958 135.306393 
L 167.321788 124.720794 
L 167.508618 122.422889 
L 167.701891 130.456295 
L 167.888721 117.568347 
L 168.075551 125.599956 
L 168.455654 131.103215 
L 168.642484 128.705854 
L 168.829314 112.157964 
L 169.016144 126.436508 
L 169.396247 135.138026 
L 169.583077 135.73833 
L 169.963179 119.549822 
L 170.530112 133.676334 
L 170.716942 134.783215 
L 170.903772 134.340156 
L 171.283875 113.802129 
L 171.470705 128.555693 
L 171.657535 131.186566 
L 171.844365 135.717058 
L 172.037638 135.751108 
L 172.224468 133.024372 
L 172.411298 114.507063 
L 172.598128 134.811118 
L 172.791401 132.156896 
L 172.978231 112.973709 
L 173.351891 131.518579 
L 173.545164 135.501872 
L 173.731994 128.828704 
L 173.918824 112.338938 
L 174.105654 131.531261 
L 174.298927 132.954123 
L 174.485757 135.926902 
L 174.672587 131.455342 
L 174.865859 115.535598 
L 175.052689 131.345346 
L 175.239519 134.939374 
L 175.42635 135.138026 
L 175.619622 131.023408 
L 175.806452 117.821247 
L 175.993282 131.920283 
L 176.180112 131.480603 
L 176.373385 135.569033 
L 176.560215 134.620867 
L 176.747045 128.674656 
L 176.933875 136.236538 
L 177.127148 91.998719 
L 177.500808 132.832014 
L 177.687638 135.385095 
L 177.880911 135.564826 
L 178.067741 135.931217 
L 178.441401 120.166283 
L 178.634674 125.229933 
L 178.821504 125.083758 
L 179.008334 131.709988 
L 179.388436 136.21011 
L 179.575266 127.980241 
L 179.762097 112.488731 
L 179.948927 131.335957 
L 180.142199 134.979692 
L 180.329029 135.256909 
L 180.515859 133.334036 
L 180.70269 117.461317 
L 180.895962 133.750234 
L 181.082792 133.917919 
L 181.269622 117.796968 
L 181.456452 129.602701 
L 181.836555 134.511045 
L 182.023385 135.996096 
L 182.216658 136.258598 
L 182.403488 127.016554 
L 182.590318 127.327465 
L 182.777148 130.983671 
L 182.970421 123.505788 
L 183.157251 128.106963 
L 183.344081 128.524821 
L 183.530911 133.828242 
L 183.724183 125.371435 
L 183.911014 111.125373 
L 184.097844 126.615256 
L 184.477946 135.191196 
L 184.664776 134.144605 
L 184.851606 122.666391 
L 185.038437 125.049462 
L 185.231709 114.061253 
L 185.418539 133.417035 
L 185.605369 134.759341 
L 185.985472 116.767566 
L 186.172302 120.318856 
L 186.359132 135.57745 
L 186.739235 136.688898 
L 187.112895 133.034939 
L 187.492998 109.859952 
L 188.05993 135.870928 
L 188.246761 136.629864 
L 188.433591 136.170561 
L 188.620421 133.098506 
L 188.813693 116.892258 
L 189.187353 132.863314 
L 189.374184 131.732487 
L 189.754286 135.393404 
L 189.941116 134.676095 
L 190.127946 90.379283 
L 190.508049 130.321608 
L 190.694879 135.853749 
L 190.881709 135.426691 
L 191.074982 136.276271 
L 191.261812 127.769065 
L 191.448642 112.555813 
L 191.635472 130.46218 
L 192.015575 133.724326 
L 192.202405 117.425818 
L 192.395677 131.285986 
L 192.582508 135.50606 
L 192.769338 134.807129 
L 192.956168 132.357111 
L 193.14944 115.86023 
L 193.33627 131.74536 
L 193.523101 130.747543 
L 193.709931 134.102776 
L 193.903203 135.113552 
L 194.090033 127.734981 
L 194.276863 131.248622 
L 194.463693 129.434648 
L 194.656966 135.024173 
L 194.843796 130.96232 
L 195.030626 122.710802 
L 195.217456 122.294366 
L 195.410729 130.251837 
L 195.597559 132.563581 
L 195.784389 137.01569 
L 195.971219 133.80963 
L 196.164492 137.085697 
L 196.538152 106.06787 
L 196.724982 124.575812 
L 196.918255 127.486689 
L 197.105085 135.003937 
L 197.291915 135.435025 
L 197.485187 136.535014 
L 198.045678 137.188999 
L 198.23895 137.071669 
L 198.42578 127.90622 
L 198.61261 132.898172 
L 198.799441 130.450413 
L 198.992713 124.869252 
L 199.553203 135.780969 
L 199.746476 137.561389 
L 199.933306 120.882617 
L 200.120136 122.837964 
L 200.306966 134.259311 
L 200.500239 136.670708 
L 200.873899 137.653589 
L 201.060729 137.731695 
L 201.254002 123.792608 
L 201.627662 134.530594 
L 201.814492 135.040382 
L 202.007764 137.634129 
L 202.194595 137.879304 
L 202.381425 136.702556 
L 202.568255 132.074294 
L 202.761527 115.587461 
L 202.948357 132.011834 
L 203.135188 132.769619 
L 203.32846 136.955293 
L 203.51529 137.474588 
L 203.70212 136.271851 
L 203.88895 108.063786 
L 204.082223 115.007088 
L 204.269053 133.456901 
L 204.455883 137.250394 
L 204.642713 137.038988 
L 204.835986 134.186557 
L 205.022816 129.255019 
L 205.209646 130.986724 
L 205.589749 110.632103 
L 205.776579 119.038022 
L 205.963409 135.166631 
L 206.150239 137.464976 
L 206.343511 137.9985 
L 206.530342 138.008478 
L 206.717172 119.591019 
L 206.904002 133.290922 
L 207.097274 135.602732 
L 207.284104 135.50606 
L 207.470935 138.073505 
L 207.657765 138.413421 
L 207.851037 138.013469 
L 208.037867 130.530031 
L 208.224697 115.587461 
L 208.411528 111.778852 
L 208.97846 137.80039 
L 209.16529 138.377526 
L 209.358563 138.542356 
L 209.545393 128.713664 
L 209.732223 135.191196 
L 209.919053 135.978766 
L 210.112326 138.123728 
L 210.299156 135.862336 
L 210.485986 118.178016 
L 210.672816 117.110232 
L 210.866089 130.636883 
L 211.052919 131.884477 
L 211.239749 137.879304 
L 211.433021 138.682925 
L 211.806682 134.425345 
L 211.993512 132.790387 
L 212.186784 137.844726 
L 212.373614 138.265299 
L 212.560444 113.774642 
L 212.747275 117.331582 
L 212.940547 135.581661 
L 213.127377 138.331509 
L 213.314207 138.620279 
L 213.501037 136.030819 
L 213.69431 137.717018 
L 213.88114 106.965495 
L 214.06797 131.205155 
L 214.2548 137.590441 
L 214.448073 138.777412 
L 214.634903 139.086191 
L 214.821733 139.123913 
L 215.008563 120.268297 
L 215.201836 123.695138 
L 215.575496 137.255128 
L 215.762326 138.511305 
L 215.955598 138.413421 
L 216.142429 134.807129 
L 216.329259 138.64113 
L 216.516089 99.834661 
L 216.709361 125.975515 
L 216.896191 135.50606 
L 217.083022 133.391723 
L 217.269852 138.12876 
L 217.463124 129.803635 
L 217.649954 112.776031 
L 218.216887 138.888442 
L 218.403717 139.473495 
L 218.590547 138.433972 
L 218.777377 118.178016 
L 218.97065 127.219165 
L 219.15748 128.78153 
L 219.34431 137.580751 
L 219.53114 138.984302 
L 219.724413 138.777412 
L 219.911243 134.301601 
L 220.098073 135.003937 
L 220.291345 121.949614 
L 220.665006 133.742827 
L 220.851836 134.13699 
L 221.045108 135.611169 
L 221.231938 122.07506 
L 221.418769 131.502744 
L 221.605599 131.923543 
L 221.798871 137.445771 
L 221.985701 137.913967 
L 222.172531 138.893751 
L 222.359362 133.617488 
L 222.552634 111.370807 
L 222.739464 130.471012 
L 222.926294 135.905348 
L 223.113124 135.961457 
L 223.306397 133.813351 
L 223.493227 113.034419 
L 224.06016 138.311104 
L 224.24699 137.293054 
L 224.43382 132.103976 
L 224.627093 114.799072 
L 225.000753 135.472588 
L 225.187583 133.74653 
L 225.380855 137.795472 
L 225.567685 136.6027 
L 225.754516 129.52256 
L 225.941346 113.54762 
L 226.134618 133.80963 
L 226.321448 139.752684 
L 226.508278 140.921298 
L 226.695109 120.779126 
L 226.888381 121.727509 
L 227.075211 138.925644 
L 227.262041 140.16455 
L 227.448871 139.997229 
L 227.642144 141.087481 
L 227.828974 120.236609 
L 228.015804 134.367207 
L 228.395907 138.250064 
L 228.582737 131.143286 
L 228.769567 113.156618 
L 228.956397 129.641551 
L 229.14967 133.464162 
L 229.3365 140.100853 
L 229.52333 140.410405 
L 229.71016 141.343587 
L 229.903432 122.441344 
L 230.090263 132.127104 
L 230.277093 131.972526 
L 230.386614 133.359245 
L 230.386614 133.359245 
" clip-path="url(#pb8d63ddb16)" style="fill: none; stroke: #d62728; stroke-width: 0.5; stroke-linecap: square"/>
   </g>
   <g id="patch_3">
    <path d="M 37.06899 149.059984 
L 37.06899 17.327115 
" style="fill: none; stroke: #000000; stroke-width: 0.8; stroke-linejoin: miter; stroke-linecap: square"/>
   </g>
   <g id="patch_4">
    <path d="M 230.341517 149.059984 
L 230.341517 17.327115 
" style="fill: none; stroke: #000000; stroke-width: 0.8; stroke-linejoin: miter; stroke-linecap: square"/>
   </g>
   <g id="patch_5">
    <path d="M 37.06899 149.059984 
L 230.341517 149.059984 
" style="fill: none; stroke: #000000; stroke-width: 0.8; stroke-linejoin: miter; stroke-linecap: square"/>
   </g>
   <g id="patch_6">
    <path d="M 37.06899 17.327115 
L 230.341517 17.327115 
" style="fill: none; stroke: #000000; stroke-width: 0.8; stroke-linejoin: miter; stroke-linecap: square"/>
   </g>
   <g id="text_14">
    <!-- lr = 0.1 -->
    <g transform="translate(116.157128 11.327115) scale(0.12 -0.12)">
     <defs>
      <path id="LiberationSerif-6c" d="M 1147 219 
L 1650 141 
L 1650 0 
L 128 0 
L 128 141 
L 628 219 
L 628 4225 
L 128 4300 
L 128 4441 
L 1147 4441 
L 1147 219 
z
" transform="scale(0.015625)"/>
      <path id="LiberationSerif-72" d="M 2075 3016 
L 2075 2222 
L 1941 2222 
L 1759 2566 
Q 1603 2566 1389 2523 
Q 1175 2481 1019 2413 
L 1019 219 
L 1522 141 
L 1522 0 
L 128 0 
L 128 141 
L 500 219 
L 500 2719 
L 128 2797 
L 128 2938 
L 984 2938 
L 1013 2572 
Q 1200 2728 1520 2872 
Q 1841 3016 2028 3016 
L 2075 3016 
z
" transform="scale(0.015625)"/>
      <path id="LiberationSerif-3d" d="M 3297 1644 
L 3297 1325 
L 319 1325 
L 319 1644 
L 3297 1644 
z
M 3297 2925 
L 3297 2606 
L 319 2606 
L 319 2925 
L 3297 2925 
z
" transform="scale(0.015625)"/>
      <path id="LiberationSerif-30" d="M 2956 2113 
Q 2956 -63 1581 -63 
Q 919 -63 581 493 
Q 244 1050 244 2113 
Q 244 3153 581 3704 
Q 919 4256 1606 4256 
Q 2269 4256 2612 3711 
Q 2956 3166 2956 2113 
z
M 2381 2113 
Q 2381 3119 2190 3562 
Q 2000 4006 1581 4006 
Q 1175 4006 997 3587 
Q 819 3169 819 2113 
Q 819 1050 1000 617 
Q 1181 184 1581 184 
Q 1994 184 2187 639 
Q 2381 1094 2381 2113 
z
" transform="scale(0.015625)"/>
      <path id="LiberationSerif-2e" d="M 1178 288 
Q 1178 134 1070 21 
Q 963 -91 800 -91 
Q 638 -91 530 21 
Q 422 134 422 288 
Q 422 447 531 556 
Q 641 666 800 666 
Q 959 666 1068 556 
Q 1178 447 1178 288 
z
" transform="scale(0.015625)"/>
      <path id="LiberationSerif-31" d="M 1959 250 
L 2816 166 
L 2816 0 
L 563 0 
L 563 166 
L 1422 250 
L 1422 3669 
L 575 3366 
L 575 3531 
L 1797 4225 
L 1959 4225 
L 1959 250 
z
" transform="scale(0.015625)"/>
     </defs>
     <use xlink:href="#LiberationSerif-6c"/>
     <use xlink:href="#LiberationSerif-72" x="27.783203"/>
     <use xlink:href="#LiberationSerif-20" x="61.083984"/>
     <use xlink:href="#LiberationSerif-3d" x="86.083984"/>
     <use xlink:href="#LiberationSerif-20" x="142.480469"/>
     <use xlink:href="#LiberationSerif-30" x="167.480469"/>
     <use xlink:href="#LiberationSerif-2e" x="217.480469"/>
     <use xlink:href="#LiberationSerif-31" x="242.480469"/>
    </g>
   </g>
   <g id="legend_1">
    <g id="patch_7">
     <path d="M 135.041517 82.127115 
L 223.341517 82.127115 
Q 225.341517 82.127115 225.341517 80.127115 
L 225.341517 24.327115 
Q 225.341517 22.327115 223.341517 22.327115 
L 135.041517 22.327115 
Q 133.041517 22.327115 133.041517 24.327115 
L 133.041517 80.127115 
Q 133.041517 82.127115 135.041517 82.127115 
z
" style="fill: #ffffff; opacity: 0.8; stroke: #cccccc; stroke-linejoin: miter"/>
    </g>
    <g id="line2d_48">
     <path d="M 137.041517 29.827115 
L 147.041517 29.827115 
L 157.041517 29.827115 
" style="fill: none; stroke: #1f77b4; stroke-width: 0.5; stroke-linecap: square"/>
    </g>
    <g id="text_15">
     <!-- $\mathdefault{|N_{batch}| = 64}$ -->
     <g transform="translate(165.041517 33.327115) scale(0.1 -0.1)">
      <defs>
       <path id="LiberationSerif-7c" d="M 481 -1381 
L 481 4441 
L 800 4441 
L 800 -1381 
L 481 -1381 
z
" transform="scale(0.015625)"/>
       <path id="LiberationSerif-4e" d="M 3609 3944 
L 3047 4025 
L 3047 4191 
L 4475 4191 
L 4475 4025 
L 3938 3944 
L 3938 0 
L 3634 0 
L 1050 3769 
L 1050 250 
L 1613 166 
L 1613 0 
L 184 0 
L 184 166 
L 722 250 
L 722 3944 
L 184 4025 
L 184 4191 
L 1453 4191 
L 3609 1088 
L 3609 3944 
z
" transform="scale(0.015625)"/>
       <path id="LiberationSerif-62" d="M 2394 1550 
Q 2394 2125 2194 2406 
Q 1994 2688 1575 2688 
Q 1391 2688 1209 2655 
Q 1028 2622 947 2584 
L 947 256 
Q 1209 206 1575 206 
Q 2006 206 2200 543 
Q 2394 881 2394 1550 
z
M 428 4225 
L 0 4300 
L 0 4441 
L 947 4441 
L 947 3391 
Q 947 3222 928 2772 
Q 1241 3016 1716 3016 
Q 2316 3016 2636 2652 
Q 2956 2288 2956 1550 
Q 2956 759 2604 348 
Q 2253 -63 1588 -63 
Q 1319 -63 995 -3 
Q 672 56 428 153 
L 428 4225 
z
" transform="scale(0.015625)"/>
       <path id="LiberationSerif-61" d="M 1453 3003 
Q 1934 3003 2161 2806 
Q 2388 2609 2388 2203 
L 2388 219 
L 2753 141 
L 2753 0 
L 1947 0 
L 1888 294 
Q 1531 -63 978 -63 
Q 225 -63 225 813 
Q 225 1106 339 1298 
Q 453 1491 703 1592 
Q 953 1694 1428 1703 
L 1869 1716 
L 1869 2175 
Q 1869 2478 1758 2622 
Q 1647 2766 1416 2766 
Q 1103 2766 844 2619 
L 738 2253 
L 563 2253 
L 563 2894 
Q 1069 3003 1453 3003 
z
M 1869 1497 
L 1459 1484 
Q 1041 1469 892 1322 
Q 744 1175 744 831 
Q 744 281 1191 281 
Q 1403 281 1558 329 
Q 1713 378 1869 453 
L 1869 1497 
z
" transform="scale(0.015625)"/>
       <path id="LiberationSerif-68" d="M 1019 3169 
Q 1019 2844 997 2700 
Q 1222 2828 1508 2922 
Q 1794 3016 1991 3016 
Q 2372 3016 2565 2794 
Q 2759 2572 2759 2150 
L 2759 219 
L 3116 141 
L 3116 0 
L 1850 0 
L 1850 141 
L 2241 219 
L 2241 2113 
Q 2241 2650 1722 2650 
Q 1428 2650 1019 2559 
L 1019 219 
L 1416 141 
L 1416 0 
L 128 0 
L 128 141 
L 500 219 
L 500 4225 
L 63 4300 
L 63 4441 
L 1019 4441 
L 1019 3169 
z
" transform="scale(0.015625)"/>
       <path id="LiberationSerif-36" d="M 3009 1300 
Q 3009 647 2679 292 
Q 2350 -63 1728 -63 
Q 1022 -63 648 487 
Q 275 1038 275 2069 
Q 275 2744 472 3234 
Q 669 3725 1023 3981 
Q 1378 4238 1844 4238 
Q 2300 4238 2753 4128 
L 2753 3406 
L 2547 3406 
L 2438 3834 
Q 2334 3891 2159 3933 
Q 1984 3975 1844 3975 
Q 1388 3975 1133 3533 
Q 878 3091 853 2241 
Q 1363 2509 1875 2509 
Q 2428 2509 2718 2198 
Q 3009 1888 3009 1300 
z
M 1716 184 
Q 2094 184 2262 429 
Q 2431 675 2431 1241 
Q 2431 1753 2270 1981 
Q 2109 2209 1759 2209 
Q 1331 2209 850 2053 
Q 850 1100 1065 642 
Q 1281 184 1716 184 
z
" transform="scale(0.015625)"/>
       <path id="LiberationSerif-34" d="M 2531 922 
L 2531 0 
L 1994 0 
L 1994 922 
L 125 922 
L 125 1338 
L 2172 4213 
L 2531 4213 
L 2531 1369 
L 3100 1369 
L 3100 922 
L 2531 922 
z
M 1994 3478 
L 1978 3478 
L 478 1369 
L 1994 1369 
L 1994 3478 
z
" transform="scale(0.015625)"/>
      </defs>
      <use xlink:href="#LiberationSerif-7c" transform="translate(0 0.609375)"/>
      <use xlink:href="#LiberationSerif-4e" transform="translate(20.019531 0.609375)"/>
      <use xlink:href="#LiberationSerif-62" transform="translate(93.039687 -13.1625) scale(0.7)"/>
      <use xlink:href="#LiberationSerif-61" transform="translate(128.039687 -13.1625) scale(0.7)"/>
      <use xlink:href="#LiberationSerif-74" transform="translate(159.109023 -13.1625) scale(0.7)"/>
      <use xlink:href="#LiberationSerif-63" transform="translate(178.557266 -13.1625) scale(0.7)"/>
      <use xlink:href="#LiberationSerif-68" transform="translate(209.626602 -13.1625) scale(0.7)"/>
      <use xlink:href="#LiberationSerif-7c" transform="translate(246.921914 0.609375)"/>
      <use xlink:href="#LiberationSerif-3d" transform="translate(286.423867 0.609375)"/>
      <use xlink:href="#LiberationSerif-36" transform="translate(362.302773 0.609375)"/>
      <use xlink:href="#LiberationSerif-34" transform="translate(412.302773 0.609375)"/>
     </g>
    </g>
    <g id="line2d_49">
     <path d="M 137.041517 44.027115 
L 147.041517 44.027115 
L 157.041517 44.027115 
" style="fill: none; stroke: #ff7f0e; stroke-width: 0.5; stroke-linecap: square"/>
    </g>
    <g id="text_16">
     <!-- $\mathdefault{|N_{batch}| = 256}$ -->
     <g transform="translate(165.041517 47.527115) scale(0.1 -0.1)">
      <defs>
       <path id="LiberationSerif-32" d="M 2847 0 
L 281 0 
L 281 459 
L 863 988 
Q 1422 1478 1684 1781 
Q 1947 2084 2061 2406 
Q 2175 2728 2175 3144 
Q 2175 3550 1990 3762 
Q 1806 3975 1388 3975 
Q 1222 3975 1047 3929 
Q 872 3884 738 3809 
L 628 3297 
L 422 3297 
L 422 4103 
Q 991 4238 1388 4238 
Q 2075 4238 2420 3952 
Q 2766 3666 2766 3144 
Q 2766 2794 2630 2483 
Q 2494 2172 2212 1864 
Q 1931 1556 1281 1003 
Q 1003 766 691 481 
L 2847 481 
L 2847 0 
z
" transform="scale(0.015625)"/>
       <path id="LiberationSerif-35" d="M 1516 2450 
Q 2241 2450 2595 2153 
Q 2950 1856 2950 1247 
Q 2950 616 2565 276 
Q 2181 -63 1466 -63 
Q 872 -63 406 72 
L 372 953 
L 578 953 
L 719 366 
Q 856 291 1048 244 
Q 1241 197 1416 197 
Q 1909 197 2142 430 
Q 2375 663 2375 1216 
Q 2375 1603 2275 1801 
Q 2175 2000 1956 2094 
Q 1738 2188 1369 2188 
Q 1084 2188 813 2113 
L 513 2113 
L 513 4191 
L 2638 4191 
L 2638 3713 
L 794 3713 
L 794 2375 
Q 1131 2450 1516 2450 
z
" transform="scale(0.015625)"/>
      </defs>
      <use xlink:href="#LiberationSerif-7c" transform="translate(0 0.609375)"/>
      <use xlink:href="#LiberationSerif-4e" transform="translate(20.019531 0.609375)"/>
      <use xlink:href="#LiberationSerif-62" transform="translate(93.039687 -13.1625) scale(0.7)"/>
      <use xlink:href="#LiberationSerif-61" transform="translate(128.039687 -13.1625) scale(0.7)"/>
      <use xlink:href="#LiberationSerif-74" transform="translate(159.109023 -13.1625) scale(0.7)"/>
      <use xlink:href="#LiberationSerif-63" transform="translate(178.557266 -13.1625) scale(0.7)"/>
      <use xlink:href="#LiberationSerif-68" transform="translate(209.626602 -13.1625) scale(0.7)"/>
      <use xlink:href="#LiberationSerif-7c" transform="translate(246.921914 0.609375)"/>
      <use xlink:href="#LiberationSerif-3d" transform="translate(286.423867 0.609375)"/>
      <use xlink:href="#LiberationSerif-32" transform="translate(362.302773 0.609375)"/>
      <use xlink:href="#LiberationSerif-35" transform="translate(412.302773 0.609375)"/>
      <use xlink:href="#LiberationSerif-36" transform="translate(462.302773 0.609375)"/>
     </g>
    </g>
    <g id="line2d_50">
     <path d="M 137.041517 58.227115 
L 147.041517 58.227115 
L 157.041517 58.227115 
" style="fill: none; stroke: #2ca02c; stroke-width: 0.5; stroke-linecap: square"/>
    </g>
    <g id="text_17">
     <!-- $\mathdefault{|N_{batch}| = 2048}$ -->
     <g transform="translate(165.041517 61.727115) scale(0.1 -0.1)">
      <defs>
       <path id="LiberationSerif-38" d="M 2828 3169 
Q 2828 2825 2661 2586 
Q 2494 2347 2209 2222 
Q 2566 2091 2761 1811 
Q 2956 1531 2956 1131 
Q 2956 538 2622 237 
Q 2288 -63 1581 -63 
Q 244 -63 244 1131 
Q 244 1547 444 1820 
Q 644 2094 984 2222 
Q 713 2347 542 2584 
Q 372 2822 372 3169 
Q 372 3688 689 3972 
Q 1006 4256 1606 4256 
Q 2188 4256 2508 3973 
Q 2828 3691 2828 3169 
z
M 2394 1131 
Q 2394 1631 2198 1856 
Q 2003 2081 1581 2081 
Q 1169 2081 987 1867 
Q 806 1653 806 1131 
Q 806 603 990 393 
Q 1175 184 1581 184 
Q 1997 184 2195 401 
Q 2394 619 2394 1131 
z
M 2266 3169 
Q 2266 3600 2097 3803 
Q 1928 4006 1588 4006 
Q 1256 4006 1095 3809 
Q 934 3613 934 3169 
Q 934 2734 1090 2545 
Q 1247 2356 1588 2356 
Q 1938 2356 2102 2548 
Q 2266 2741 2266 3169 
z
" transform="scale(0.015625)"/>
      </defs>
      <use xlink:href="#LiberationSerif-7c" transform="translate(0 0.609375)"/>
      <use xlink:href="#LiberationSerif-4e" transform="translate(20.019531 0.609375)"/>
      <use xlink:href="#LiberationSerif-62" transform="translate(93.039687 -13.1625) scale(0.7)"/>
      <use xlink:href="#LiberationSerif-61" transform="translate(128.039687 -13.1625) scale(0.7)"/>
      <use xlink:href="#LiberationSerif-74" transform="translate(159.109023 -13.1625) scale(0.7)"/>
      <use xlink:href="#LiberationSerif-63" transform="translate(178.557266 -13.1625) scale(0.7)"/>
      <use xlink:href="#LiberationSerif-68" transform="translate(209.626602 -13.1625) scale(0.7)"/>
      <use xlink:href="#LiberationSerif-7c" transform="translate(246.921914 0.609375)"/>
      <use xlink:href="#LiberationSerif-3d" transform="translate(286.423867 0.609375)"/>
      <use xlink:href="#LiberationSerif-32" transform="translate(362.302773 0.609375)"/>
      <use xlink:href="#LiberationSerif-30" transform="translate(412.302773 0.609375)"/>
      <use xlink:href="#LiberationSerif-34" transform="translate(462.302773 0.609375)"/>
      <use xlink:href="#LiberationSerif-38" transform="translate(512.302773 0.609375)"/>
     </g>
    </g>
    <g id="line2d_51">
     <path d="M 137.041517 72.427115 
L 147.041517 72.427115 
L 157.041517 72.427115 
" style="fill: none; stroke: #d62728; stroke-width: 0.5; stroke-linecap: square"/>
    </g>
    <g id="text_18">
     <!-- $\mathdefault{|N_{batch}| = 4096}$ -->
     <g transform="translate(165.041517 75.927115) scale(0.1 -0.1)">
      <defs>
       <path id="LiberationSerif-39" d="M 206 2913 
Q 206 3544 559 3891 
Q 913 4238 1556 4238 
Q 2272 4238 2605 3722 
Q 2938 3206 2938 2106 
Q 2938 1053 2509 495 
Q 2081 -63 1306 -63 
Q 797 -63 372 44 
L 372 769 
L 575 769 
L 684 319 
Q 784 272 953 234 
Q 1122 197 1294 197 
Q 1794 197 2062 636 
Q 2331 1075 2359 1928 
Q 1884 1663 1394 1663 
Q 841 1663 523 1992 
Q 206 2322 206 2913 
z
M 1563 3988 
Q 781 3988 781 2900 
Q 781 2422 968 2194 
Q 1156 1966 1550 1966 
Q 1953 1966 2363 2131 
Q 2363 3091 2173 3539 
Q 1984 3988 1563 3988 
z
" transform="scale(0.015625)"/>
      </defs>
      <use xlink:href="#LiberationSerif-7c" transform="translate(0 0.609375)"/>
      <use xlink:href="#LiberationSerif-4e" transform="translate(20.019531 0.609375)"/>
      <use xlink:href="#LiberationSerif-62" transform="translate(93.039687 -13.1625) scale(0.7)"/>
      <use xlink:href="#LiberationSerif-61" transform="translate(128.039687 -13.1625) scale(0.7)"/>
      <use xlink:href="#LiberationSerif-74" transform="translate(159.109023 -13.1625) scale(0.7)"/>
      <use xlink:href="#LiberationSerif-63" transform="translate(178.557266 -13.1625) scale(0.7)"/>
      <use xlink:href="#LiberationSerif-68" transform="translate(209.626602 -13.1625) scale(0.7)"/>
      <use xlink:href="#LiberationSerif-7c" transform="translate(246.921914 0.609375)"/>
      <use xlink:href="#LiberationSerif-3d" transform="translate(286.423867 0.609375)"/>
      <use xlink:href="#LiberationSerif-34" transform="translate(362.302773 0.609375)"/>
      <use xlink:href="#LiberationSerif-30" transform="translate(412.302773 0.609375)"/>
      <use xlink:href="#LiberationSerif-39" transform="translate(462.302773 0.609375)"/>
      <use xlink:href="#LiberationSerif-36" transform="translate(512.302773 0.609375)"/>
     </g>
    </g>
   </g>
  </g>
 </g>
 <defs>
  <clipPath id="pb8d63ddb16">
   <rect x="37.06899" y="17.327115" width="193.272527" height="131.732869"/>
  </clipPath>
 </defs>
</svg>
