<?xml version="1.0" encoding="utf-8" standalone="no"?>
<!DOCTYPE svg PUBLIC "-//W3C//DTD SVG 1.1//EN"
  "http://www.w3.org/Graphics/SVG/1.1/DTD/svg11.dtd">
<svg xmlns:xlink="http://www.w3.org/1999/xlink" width="481.889764pt" height="361.417323pt" viewBox="0 0 481.889764 361.417323" xmlns="http://www.w3.org/2000/svg" version="1.1">
 <metadata>
  <rdf:RDF xmlns:dc="http://purl.org/dc/elements/1.1/" xmlns:cc="http://creativecommons.org/ns#" xmlns:rdf="http://www.w3.org/1999/02/22-rdf-syntax-ns#">
   <cc:Work>
    <dc:type rdf:resource="http://purl.org/dc/dcmitype/StillImage"/>
    <dc:date>2023-06-02T12:30:07.333438</dc:date>
    <dc:format>image/svg+xml</dc:format>
    <dc:creator>
     <cc:Agent>
      <dc:title>Matplotlib v3.7.1, https://matplotlib.org/</dc:title>
     </cc:Agent>
    </dc:creator>
   </cc:Work>
  </rdf:RDF>
 </metadata>
 <defs>
  <style type="text/css">*{stroke-linejoin: round; stroke-linecap: butt}</style>
 </defs>
 <g id="figure_1">
  <g id="patch_1">
   <path d="M 0 361.417323 
L 481.889764 361.417323 
L 481.889764 0 
L 0 0 
z
" style="fill: #ffffff"/>
  </g>
  <g id="axes_1">
   <g id="patch_2">
    <path d="M 46.29649 322.70927 
L 468.245149 322.70927 
L 468.245149 20.657865 
L 46.29649 20.657865 
z
" style="fill: #ffffff"/>
   </g>
   <g id="matplotlib.axis_1">
    <g id="xtick_1">
     <g id="line2d_1">
      <defs>
       <path id="m18fee07190" d="M 0 0 
L 0 3.5 
" style="stroke: #000000; stroke-width: 0.8"/>
      </defs>
      <g>
       <use xlink:href="#m18fee07190" x="46.29649" y="322.70927" style="stroke: #000000; stroke-width: 0.8"/>
      </g>
     </g>
     <g id="text_1">
      <!-- 0 -->
      <g transform="translate(42.748365 339.231458) scale(0.14 -0.14)">
       <defs>
        <path id="Calibri-30" d="M 3022 2031 
Q 3022 1566 2948 1181 
Q 2875 797 2704 520 
Q 2534 244 2259 92 
Q 1984 -59 1581 -59 
Q 1200 -59 939 77 
Q 678 213 518 477 
Q 359 741 292 1127 
Q 225 1513 225 2013 
Q 225 2475 300 2861 
Q 375 3247 544 3523 
Q 713 3800 988 3951 
Q 1263 4103 1663 4103 
Q 2047 4103 2308 3967 
Q 2569 3831 2728 3567 
Q 2888 3303 2955 2917 
Q 3022 2531 3022 2031 
z
M 2472 1994 
Q 2472 2297 2450 2537 
Q 2428 2778 2386 2962 
Q 2344 3147 2276 3280 
Q 2209 3413 2115 3498 
Q 2022 3584 1901 3623 
Q 1781 3663 1631 3663 
Q 1366 3663 1200 3538 
Q 1034 3413 939 3194 
Q 844 2975 809 2681 
Q 775 2388 775 2050 
Q 775 1597 822 1280 
Q 869 963 970 763 
Q 1072 563 1230 472 
Q 1388 381 1613 381 
Q 1788 381 1920 437 
Q 2053 494 2148 598 
Q 2244 703 2306 850 
Q 2369 997 2406 1175 
Q 2444 1353 2458 1561 
Q 2472 1769 2472 1994 
z
" transform="scale(0.015625)"/>
       </defs>
       <use xlink:href="#Calibri-30"/>
      </g>
     </g>
    </g>
    <g id="xtick_2">
     <g id="line2d_2">
      <g>
       <use xlink:href="#m18fee07190" x="116.621266" y="322.70927" style="stroke: #000000; stroke-width: 0.8"/>
      </g>
     </g>
     <g id="text_2">
      <!-- 50 -->
      <g transform="translate(109.525016 339.231458) scale(0.14 -0.14)">
       <defs>
        <path id="Calibri-35" d="M 2869 1300 
Q 2869 975 2759 722 
Q 2650 469 2450 295 
Q 2250 122 1973 31 
Q 1697 -59 1359 -59 
Q 1172 -59 1003 -32 
Q 834 -6 703 33 
Q 572 72 487 109 
Q 403 147 379 169 
Q 356 191 347 209 
Q 338 228 330 254 
Q 322 281 319 322 
Q 316 363 316 419 
Q 316 472 320 514 
Q 325 556 337 582 
Q 350 609 367 621 
Q 384 634 406 634 
Q 438 634 503 595 
Q 569 556 680 511 
Q 791 466 955 425 
Q 1119 384 1344 384 
Q 1553 384 1728 434 
Q 1903 484 2029 590 
Q 2156 697 2228 858 
Q 2300 1019 2300 1250 
Q 2300 1444 2239 1592 
Q 2178 1741 2051 1839 
Q 1925 1938 1731 1986 
Q 1538 2034 1269 2034 
Q 1078 2034 940 2015 
Q 803 1997 684 1997 
Q 597 1997 559 2037 
Q 522 2078 522 2194 
L 522 3841 
Q 522 3944 570 3994 
Q 619 4044 709 4044 
L 2500 4044 
Q 2525 4044 2548 4030 
Q 2572 4016 2587 3987 
Q 2603 3959 2611 3915 
Q 2619 3872 2619 3813 
Q 2619 3700 2587 3637 
Q 2556 3575 2500 3575 
L 991 3575 
L 991 2441 
Q 1100 2456 1214 2459 
Q 1328 2463 1478 2463 
Q 1825 2463 2084 2380 
Q 2344 2297 2517 2145 
Q 2691 1994 2780 1778 
Q 2869 1563 2869 1300 
z
" transform="scale(0.015625)"/>
       </defs>
       <use xlink:href="#Calibri-35"/>
       <use xlink:href="#Calibri-30" x="50.683594"/>
      </g>
     </g>
    </g>
    <g id="xtick_3">
     <g id="line2d_3">
      <g>
       <use xlink:href="#m18fee07190" x="186.946043" y="322.70927" style="stroke: #000000; stroke-width: 0.8"/>
      </g>
     </g>
     <g id="text_3">
      <!-- 100 -->
      <g transform="translate(176.301668 339.231458) scale(0.14 -0.14)">
       <defs>
        <path id="Calibri-31" d="M 2897 213 
Q 2897 153 2887 112 
Q 2878 72 2862 47 
Q 2847 22 2826 11 
Q 2806 0 2784 0 
L 672 0 
Q 650 0 631 11 
Q 613 22 595 47 
Q 578 72 568 112 
Q 559 153 559 213 
Q 559 269 568 309 
Q 578 350 592 376 
Q 606 403 626 417 
Q 647 431 672 431 
L 1516 431 
L 1516 3506 
L 734 3041 
Q 675 3009 639 3003 
Q 603 2997 581 3017 
Q 559 3038 551 3084 
Q 544 3131 544 3203 
Q 544 3256 548 3293 
Q 553 3331 562 3356 
Q 572 3381 589 3400 
Q 606 3419 634 3438 
L 1566 4034 
Q 1578 4044 1597 4050 
Q 1616 4056 1644 4062 
Q 1672 4069 1709 4070 
Q 1747 4072 1803 4072 
Q 1878 4072 1928 4065 
Q 1978 4059 2006 4048 
Q 2034 4038 2043 4020 
Q 2053 4003 2053 3984 
L 2053 431 
L 2784 431 
Q 2809 431 2831 417 
Q 2853 403 2867 376 
Q 2881 350 2889 309 
Q 2897 269 2897 213 
z
" transform="scale(0.015625)"/>
       </defs>
       <use xlink:href="#Calibri-31"/>
       <use xlink:href="#Calibri-30" x="50.683594"/>
       <use xlink:href="#Calibri-30" x="101.367188"/>
      </g>
     </g>
    </g>
    <g id="xtick_4">
     <g id="line2d_4">
      <g>
       <use xlink:href="#m18fee07190" x="257.270819" y="322.70927" style="stroke: #000000; stroke-width: 0.8"/>
      </g>
     </g>
     <g id="text_4">
      <!-- 150 -->
      <g transform="translate(246.626444 339.231458) scale(0.14 -0.14)">
       <use xlink:href="#Calibri-31"/>
       <use xlink:href="#Calibri-35" x="50.683594"/>
       <use xlink:href="#Calibri-30" x="101.367188"/>
      </g>
     </g>
    </g>
    <g id="xtick_5">
     <g id="line2d_5">
      <g>
       <use xlink:href="#m18fee07190" x="327.595596" y="322.70927" style="stroke: #000000; stroke-width: 0.8"/>
      </g>
     </g>
     <g id="text_5">
      <!-- 200 -->
      <g transform="translate(316.951221 339.231458) scale(0.14 -0.14)">
       <defs>
        <path id="Calibri-32" d="M 2888 231 
Q 2888 175 2880 131 
Q 2872 88 2858 58 
Q 2844 28 2820 14 
Q 2797 0 2769 0 
L 534 0 
Q 491 0 458 11 
Q 425 22 401 47 
Q 378 72 367 119 
Q 356 166 356 234 
Q 356 297 361 344 
Q 366 391 381 427 
Q 397 463 420 498 
Q 444 534 481 575 
L 1266 1406 
Q 1538 1694 1702 1922 
Q 1866 2150 1955 2337 
Q 2044 2525 2072 2678 
Q 2100 2831 2100 2966 
Q 2100 3100 2056 3220 
Q 2013 3341 1930 3431 
Q 1847 3522 1722 3575 
Q 1597 3628 1434 3628 
Q 1244 3628 1092 3575 
Q 941 3522 827 3459 
Q 713 3397 636 3344 
Q 559 3291 522 3291 
Q 500 3291 483 3303 
Q 466 3316 455 3344 
Q 444 3372 437 3419 
Q 431 3466 431 3531 
Q 431 3578 434 3612 
Q 438 3647 445 3672 
Q 453 3697 465 3719 
Q 478 3741 515 3773 
Q 553 3806 645 3862 
Q 738 3919 877 3973 
Q 1016 4028 1183 4065 
Q 1350 4103 1534 4103 
Q 1828 4103 2048 4020 
Q 2269 3938 2414 3794 
Q 2559 3650 2631 3459 
Q 2703 3269 2703 3053 
Q 2703 2859 2668 2667 
Q 2634 2475 2523 2251 
Q 2413 2028 2203 1754 
Q 1994 1481 1647 1125 
L 1006 456 
L 2766 456 
Q 2791 456 2814 442 
Q 2838 428 2855 400 
Q 2872 372 2880 330 
Q 2888 288 2888 231 
z
" transform="scale(0.015625)"/>
       </defs>
       <use xlink:href="#Calibri-32"/>
       <use xlink:href="#Calibri-30" x="50.683594"/>
       <use xlink:href="#Calibri-30" x="101.367188"/>
      </g>
     </g>
    </g>
    <g id="xtick_6">
     <g id="line2d_6">
      <g>
       <use xlink:href="#m18fee07190" x="397.920372" y="322.70927" style="stroke: #000000; stroke-width: 0.8"/>
      </g>
     </g>
     <g id="text_6">
      <!-- 250 -->
      <g transform="translate(387.275997 339.231458) scale(0.14 -0.14)">
       <use xlink:href="#Calibri-32"/>
       <use xlink:href="#Calibri-35" x="50.683594"/>
       <use xlink:href="#Calibri-30" x="101.367188"/>
      </g>
     </g>
    </g>
    <g id="xtick_7">
     <g id="line2d_7">
      <g>
       <use xlink:href="#m18fee07190" x="468.245149" y="322.70927" style="stroke: #000000; stroke-width: 0.8"/>
      </g>
     </g>
     <g id="text_7">
      <!-- 300 -->
      <g transform="translate(457.600774 339.231458) scale(0.14 -0.14)">
       <defs>
        <path id="Calibri-33" d="M 2856 1156 
Q 2856 878 2759 654 
Q 2663 431 2481 272 
Q 2300 113 2034 27 
Q 1769 -59 1434 -59 
Q 1231 -59 1054 -26 
Q 878 6 740 51 
Q 603 97 512 145 
Q 422 194 398 216 
Q 375 238 362 259 
Q 350 281 340 312 
Q 331 344 326 389 
Q 322 434 322 500 
Q 322 613 344 656 
Q 366 700 406 700 
Q 434 700 517 650 
Q 600 600 729 542 
Q 859 484 1032 434 
Q 1206 384 1419 384 
Q 1625 384 1781 437 
Q 1938 491 2044 587 
Q 2150 684 2203 817 
Q 2256 950 2256 1106 
Q 2256 1278 2189 1415 
Q 2122 1553 1992 1653 
Q 1863 1753 1673 1806 
Q 1484 1859 1244 1859 
L 859 1859 
Q 834 1859 811 1870 
Q 788 1881 770 1906 
Q 753 1931 742 1972 
Q 731 2013 731 2078 
Q 731 2138 740 2177 
Q 750 2216 767 2239 
Q 784 2263 806 2273 
Q 828 2284 856 2284 
L 1209 2284 
Q 1416 2284 1580 2337 
Q 1744 2391 1858 2491 
Q 1972 2591 2033 2730 
Q 2094 2869 2094 3041 
Q 2094 3166 2053 3280 
Q 2013 3394 1931 3478 
Q 1850 3563 1723 3611 
Q 1597 3659 1431 3659 
Q 1250 3659 1098 3604 
Q 947 3550 828 3487 
Q 709 3425 631 3370 
Q 553 3316 522 3316 
Q 500 3316 483 3323 
Q 466 3331 455 3354 
Q 444 3378 439 3420 
Q 434 3463 434 3531 
Q 434 3578 437 3614 
Q 441 3650 450 3676 
Q 459 3703 471 3725 
Q 484 3747 514 3776 
Q 544 3806 634 3862 
Q 725 3919 858 3973 
Q 991 4028 1164 4065 
Q 1338 4103 1538 4103 
Q 1819 4103 2031 4031 
Q 2244 3959 2386 3828 
Q 2528 3697 2598 3514 
Q 2669 3331 2669 3109 
Q 2669 2919 2619 2755 
Q 2569 2591 2472 2464 
Q 2375 2338 2234 2248 
Q 2094 2159 1909 2125 
L 1909 2119 
Q 2119 2097 2292 2014 
Q 2466 1931 2591 1806 
Q 2716 1681 2786 1514 
Q 2856 1347 2856 1156 
z
" transform="scale(0.015625)"/>
       </defs>
       <use xlink:href="#Calibri-33"/>
       <use xlink:href="#Calibri-30" x="50.683594"/>
       <use xlink:href="#Calibri-30" x="101.367188"/>
      </g>
     </g>
    </g>
    <g id="text_8">
     <!-- time [sec] -->
     <g transform="translate(229.478632 355.43552) scale(0.14 -0.14)">
      <defs>
       <path id="LiberationSerif-74" d="M 1044 -63 
Q 744 -63 595 115 
Q 447 294 447 616 
L 447 2675 
L 63 2675 
L 63 2816 
L 453 2938 
L 769 3603 
L 966 3603 
L 966 2938 
L 1638 2938 
L 1638 2675 
L 966 2675 
L 966 672 
Q 966 469 1058 366 
Q 1150 263 1300 263 
Q 1481 263 1741 313 
L 1741 109 
Q 1631 34 1425 -14 
Q 1219 -63 1044 -63 
z
" transform="scale(0.015625)"/>
       <path id="LiberationSerif-69" d="M 1184 3897 
Q 1184 3759 1084 3659 
Q 984 3559 844 3559 
Q 706 3559 606 3659 
Q 506 3759 506 3897 
Q 506 4038 606 4138 
Q 706 4238 844 4238 
Q 984 4238 1084 4138 
Q 1184 4038 1184 3897 
z
M 1153 219 
L 1656 141 
L 1656 0 
L 134 0 
L 134 141 
L 634 219 
L 634 2719 
L 219 2797 
L 219 2938 
L 1153 2938 
L 1153 219 
z
" transform="scale(0.015625)"/>
       <path id="LiberationSerif-6d" d="M 1019 2700 
Q 1253 2834 1515 2925 
Q 1778 3016 1978 3016 
Q 2194 3016 2376 2934 
Q 2559 2853 2650 2675 
Q 2891 2809 3214 2912 
Q 3538 3016 3750 3016 
Q 4500 3016 4500 2150 
L 4500 219 
L 4878 141 
L 4878 0 
L 3544 0 
L 3544 141 
L 3981 219 
L 3981 2094 
Q 3981 2631 3481 2631 
Q 3400 2631 3292 2618 
Q 3184 2606 3076 2590 
Q 2969 2575 2870 2554 
Q 2772 2534 2706 2522 
Q 2759 2353 2759 2150 
L 2759 219 
L 3200 141 
L 3200 0 
L 1806 0 
L 1806 141 
L 2241 219 
L 2241 2094 
Q 2241 2353 2108 2492 
Q 1975 2631 1709 2631 
Q 1434 2631 1025 2541 
L 1025 219 
L 1466 141 
L 1466 0 
L 134 0 
L 134 141 
L 506 219 
L 506 2719 
L 134 2797 
L 134 2938 
L 994 2938 
L 1019 2700 
z
" transform="scale(0.015625)"/>
       <path id="LiberationSerif-65" d="M 813 1478 
L 813 1422 
Q 813 991 908 752 
Q 1003 513 1201 388 
Q 1400 263 1722 263 
Q 1891 263 2122 291 
Q 2353 319 2503 353 
L 2503 178 
Q 2353 81 2095 9 
Q 1838 -63 1569 -63 
Q 884 -63 567 306 
Q 250 675 250 1491 
Q 250 2259 572 2637 
Q 894 3016 1491 3016 
Q 2619 3016 2619 1734 
L 2619 1478 
L 813 1478 
z
M 1491 2766 
Q 1166 2766 992 2503 
Q 819 2241 819 1728 
L 2075 1728 
Q 2075 2288 1931 2527 
Q 1788 2766 1491 2766 
z
" transform="scale(0.015625)"/>
       <path id="LiberationSerif-20" transform="scale(0.015625)"/>
       <path id="LiberationSerif-5b" d="M 475 -856 
L 475 4441 
L 1900 4441 
L 1900 4294 
L 972 4166 
L 972 -581 
L 1900 -709 
L 1900 -856 
L 475 -856 
z
" transform="scale(0.015625)"/>
       <path id="LiberationSerif-73" d="M 2259 825 
Q 2259 388 1982 162 
Q 1706 -63 1166 -63 
Q 947 -63 683 -17 
Q 419 28 269 84 
L 269 806 
L 409 806 
L 563 397 
Q 797 184 1172 184 
Q 1778 184 1778 703 
Q 1778 1084 1300 1247 
L 1022 1338 
Q 706 1441 562 1547 
Q 419 1653 341 1808 
Q 263 1963 263 2181 
Q 263 2569 527 2792 
Q 791 3016 1241 3016 
Q 1563 3016 2047 2919 
L 2047 2278 
L 1900 2278 
L 1769 2619 
Q 1603 2766 1247 2766 
Q 994 2766 861 2641 
Q 728 2516 728 2303 
Q 728 2125 848 2003 
Q 969 1881 1213 1800 
Q 1672 1644 1812 1572 
Q 1953 1500 2051 1395 
Q 2150 1291 2204 1156 
Q 2259 1022 2259 825 
z
" transform="scale(0.015625)"/>
       <path id="LiberationSerif-63" d="M 2644 178 
Q 2491 66 2222 1 
Q 1953 -63 1672 -63 
Q 244 -63 244 1491 
Q 244 2225 608 2620 
Q 972 3016 1650 3016 
Q 2072 3016 2572 2919 
L 2572 2100 
L 2400 2100 
L 2266 2619 
Q 2006 2766 1644 2766 
Q 806 2766 806 1491 
Q 806 828 1061 545 
Q 1316 263 1850 263 
Q 2306 263 2644 366 
L 2644 178 
z
" transform="scale(0.015625)"/>
       <path id="LiberationSerif-5d" d="M 231 -856 
L 231 -709 
L 1159 -581 
L 1159 4166 
L 231 4294 
L 231 4441 
L 1656 4441 
L 1656 -856 
L 231 -856 
z
" transform="scale(0.015625)"/>
      </defs>
      <use xlink:href="#LiberationSerif-74"/>
      <use xlink:href="#LiberationSerif-69" x="27.783203"/>
      <use xlink:href="#LiberationSerif-6d" x="55.566406"/>
      <use xlink:href="#LiberationSerif-65" x="133.349609"/>
      <use xlink:href="#LiberationSerif-20" x="177.734375"/>
      <use xlink:href="#LiberationSerif-5b" x="202.734375"/>
      <use xlink:href="#LiberationSerif-73" x="236.035156"/>
      <use xlink:href="#LiberationSerif-65" x="274.951172"/>
      <use xlink:href="#LiberationSerif-63" x="319.335938"/>
      <use xlink:href="#LiberationSerif-5d" x="363.720703"/>
     </g>
    </g>
   </g>
   <g id="matplotlib.axis_2">
    <g id="ytick_1">
     <g id="line2d_8">
      <defs>
       <path id="mccc2b3ea63" d="M 0 0 
L -3.5 0 
" style="stroke: #000000; stroke-width: 0.8"/>
      </defs>
      <g>
       <use xlink:href="#mccc2b3ea63" x="46.29649" y="256.393069" style="stroke: #000000; stroke-width: 0.8"/>
      </g>
     </g>
     <g id="text_9">
      <!-- $\mathdefault{10^{0}}$ -->
      <g transform="translate(19.69649 261.154163) scale(0.14 -0.14)">
       <use xlink:href="#Calibri-31" transform="translate(0 0.442188)"/>
       <use xlink:href="#Calibri-30" transform="translate(50.683594 0.442188)"/>
       <use xlink:href="#Calibri-30" transform="translate(102.184219 33.123438) scale(0.7)"/>
      </g>
     </g>
    </g>
    <g id="ytick_2">
     <g id="line2d_9">
      <g>
       <use xlink:href="#mccc2b3ea63" x="46.29649" y="180.95544" style="stroke: #000000; stroke-width: 0.8"/>
      </g>
     </g>
     <g id="text_10">
      <!-- $\mathdefault{10^{1}}$ -->
      <g transform="translate(19.69649 185.716534) scale(0.14 -0.14)">
       <use xlink:href="#Calibri-31" transform="translate(0 0.78125)"/>
       <use xlink:href="#Calibri-30" transform="translate(50.683594 0.78125)"/>
       <use xlink:href="#Calibri-31" transform="translate(102.184219 33.4625) scale(0.7)"/>
      </g>
     </g>
    </g>
    <g id="ytick_3">
     <g id="line2d_10">
      <g>
       <use xlink:href="#mccc2b3ea63" x="46.29649" y="105.517811" style="stroke: #000000; stroke-width: 0.8"/>
      </g>
     </g>
     <g id="text_11">
      <!-- $\mathdefault{10^{2}}$ -->
      <g transform="translate(19.69649 110.278905) scale(0.14 -0.14)">
       <use xlink:href="#Calibri-31" transform="translate(0 0.442188)"/>
       <use xlink:href="#Calibri-30" transform="translate(50.683594 0.442188)"/>
       <use xlink:href="#Calibri-32" transform="translate(102.184219 33.123438) scale(0.7)"/>
      </g>
     </g>
    </g>
    <g id="ytick_4">
     <g id="line2d_11">
      <g>
       <use xlink:href="#mccc2b3ea63" x="46.29649" y="30.080182" style="stroke: #000000; stroke-width: 0.8"/>
      </g>
     </g>
     <g id="text_12">
      <!-- $\mathdefault{10^{3}}$ -->
      <g transform="translate(19.69649 34.841275) scale(0.14 -0.14)">
       <use xlink:href="#Calibri-31" transform="translate(0 0.442188)"/>
       <use xlink:href="#Calibri-30" transform="translate(50.683594 0.442188)"/>
       <use xlink:href="#Calibri-33" transform="translate(102.184219 33.123438) scale(0.7)"/>
      </g>
     </g>
    </g>
    <g id="ytick_5">
     <g id="line2d_12">
      <defs>
       <path id="m33d399535c" d="M 0 0 
L -2 0 
" style="stroke: #000000; stroke-width: 0.6"/>
      </defs>
      <g>
       <use xlink:href="#m33d399535c" x="46.29649" y="309.121709" style="stroke: #000000; stroke-width: 0.6"/>
      </g>
     </g>
    </g>
    <g id="ytick_6">
     <g id="line2d_13">
      <g>
       <use xlink:href="#m33d399535c" x="46.29649" y="295.837802" style="stroke: #000000; stroke-width: 0.6"/>
      </g>
     </g>
    </g>
    <g id="ytick_7">
     <g id="line2d_14">
      <g>
       <use xlink:href="#m33d399535c" x="46.29649" y="286.41272" style="stroke: #000000; stroke-width: 0.6"/>
      </g>
     </g>
    </g>
    <g id="ytick_8">
     <g id="line2d_15">
      <g>
       <use xlink:href="#m33d399535c" x="46.29649" y="279.102058" style="stroke: #000000; stroke-width: 0.6"/>
      </g>
     </g>
    </g>
    <g id="ytick_9">
     <g id="line2d_16">
      <g>
       <use xlink:href="#m33d399535c" x="46.29649" y="273.128813" style="stroke: #000000; stroke-width: 0.6"/>
      </g>
     </g>
    </g>
    <g id="ytick_10">
     <g id="line2d_17">
      <g>
       <use xlink:href="#m33d399535c" x="46.29649" y="268.078506" style="stroke: #000000; stroke-width: 0.6"/>
      </g>
     </g>
    </g>
    <g id="ytick_11">
     <g id="line2d_18">
      <g>
       <use xlink:href="#m33d399535c" x="46.29649" y="263.703731" style="stroke: #000000; stroke-width: 0.6"/>
      </g>
     </g>
    </g>
    <g id="ytick_12">
     <g id="line2d_19">
      <g>
       <use xlink:href="#m33d399535c" x="46.29649" y="259.844906" style="stroke: #000000; stroke-width: 0.6"/>
      </g>
     </g>
    </g>
    <g id="ytick_13">
     <g id="line2d_20">
      <g>
       <use xlink:href="#m33d399535c" x="46.29649" y="233.68408" style="stroke: #000000; stroke-width: 0.6"/>
      </g>
     </g>
    </g>
    <g id="ytick_14">
     <g id="line2d_21">
      <g>
       <use xlink:href="#m33d399535c" x="46.29649" y="220.400173" style="stroke: #000000; stroke-width: 0.6"/>
      </g>
     </g>
    </g>
    <g id="ytick_15">
     <g id="line2d_22">
      <g>
       <use xlink:href="#m33d399535c" x="46.29649" y="210.975091" style="stroke: #000000; stroke-width: 0.6"/>
      </g>
     </g>
    </g>
    <g id="ytick_16">
     <g id="line2d_23">
      <g>
       <use xlink:href="#m33d399535c" x="46.29649" y="203.664429" style="stroke: #000000; stroke-width: 0.6"/>
      </g>
     </g>
    </g>
    <g id="ytick_17">
     <g id="line2d_24">
      <g>
       <use xlink:href="#m33d399535c" x="46.29649" y="197.691184" style="stroke: #000000; stroke-width: 0.6"/>
      </g>
     </g>
    </g>
    <g id="ytick_18">
     <g id="line2d_25">
      <g>
       <use xlink:href="#m33d399535c" x="46.29649" y="192.640877" style="stroke: #000000; stroke-width: 0.6"/>
      </g>
     </g>
    </g>
    <g id="ytick_19">
     <g id="line2d_26">
      <g>
       <use xlink:href="#m33d399535c" x="46.29649" y="188.266102" style="stroke: #000000; stroke-width: 0.6"/>
      </g>
     </g>
    </g>
    <g id="ytick_20">
     <g id="line2d_27">
      <g>
       <use xlink:href="#m33d399535c" x="46.29649" y="184.407277" style="stroke: #000000; stroke-width: 0.6"/>
      </g>
     </g>
    </g>
    <g id="ytick_21">
     <g id="line2d_28">
      <g>
       <use xlink:href="#m33d399535c" x="46.29649" y="158.246451" style="stroke: #000000; stroke-width: 0.6"/>
      </g>
     </g>
    </g>
    <g id="ytick_22">
     <g id="line2d_29">
      <g>
       <use xlink:href="#m33d399535c" x="46.29649" y="144.962544" style="stroke: #000000; stroke-width: 0.6"/>
      </g>
     </g>
    </g>
    <g id="ytick_23">
     <g id="line2d_30">
      <g>
       <use xlink:href="#m33d399535c" x="46.29649" y="135.537462" style="stroke: #000000; stroke-width: 0.6"/>
      </g>
     </g>
    </g>
    <g id="ytick_24">
     <g id="line2d_31">
      <g>
       <use xlink:href="#m33d399535c" x="46.29649" y="128.2268" style="stroke: #000000; stroke-width: 0.6"/>
      </g>
     </g>
    </g>
    <g id="ytick_25">
     <g id="line2d_32">
      <g>
       <use xlink:href="#m33d399535c" x="46.29649" y="122.253555" style="stroke: #000000; stroke-width: 0.6"/>
      </g>
     </g>
    </g>
    <g id="ytick_26">
     <g id="line2d_33">
      <g>
       <use xlink:href="#m33d399535c" x="46.29649" y="117.203247" style="stroke: #000000; stroke-width: 0.6"/>
      </g>
     </g>
    </g>
    <g id="ytick_27">
     <g id="line2d_34">
      <g>
       <use xlink:href="#m33d399535c" x="46.29649" y="112.828472" style="stroke: #000000; stroke-width: 0.6"/>
      </g>
     </g>
    </g>
    <g id="ytick_28">
     <g id="line2d_35">
      <g>
       <use xlink:href="#m33d399535c" x="46.29649" y="108.969647" style="stroke: #000000; stroke-width: 0.6"/>
      </g>
     </g>
    </g>
    <g id="ytick_29">
     <g id="line2d_36">
      <g>
       <use xlink:href="#m33d399535c" x="46.29649" y="82.808822" style="stroke: #000000; stroke-width: 0.6"/>
      </g>
     </g>
    </g>
    <g id="ytick_30">
     <g id="line2d_37">
      <g>
       <use xlink:href="#m33d399535c" x="46.29649" y="69.524915" style="stroke: #000000; stroke-width: 0.6"/>
      </g>
     </g>
    </g>
    <g id="ytick_31">
     <g id="line2d_38">
      <g>
       <use xlink:href="#m33d399535c" x="46.29649" y="60.099832" style="stroke: #000000; stroke-width: 0.6"/>
      </g>
     </g>
    </g>
    <g id="ytick_32">
     <g id="line2d_39">
      <g>
       <use xlink:href="#m33d399535c" x="46.29649" y="52.789171" style="stroke: #000000; stroke-width: 0.6"/>
      </g>
     </g>
    </g>
    <g id="ytick_33">
     <g id="line2d_40">
      <g>
       <use xlink:href="#m33d399535c" x="46.29649" y="46.815925" style="stroke: #000000; stroke-width: 0.6"/>
      </g>
     </g>
    </g>
    <g id="ytick_34">
     <g id="line2d_41">
      <g>
       <use xlink:href="#m33d399535c" x="46.29649" y="41.765618" style="stroke: #000000; stroke-width: 0.6"/>
      </g>
     </g>
    </g>
    <g id="ytick_35">
     <g id="line2d_42">
      <g>
       <use xlink:href="#m33d399535c" x="46.29649" y="37.390843" style="stroke: #000000; stroke-width: 0.6"/>
      </g>
     </g>
    </g>
    <g id="ytick_36">
     <g id="line2d_43">
      <g>
       <use xlink:href="#m33d399535c" x="46.29649" y="33.532018" style="stroke: #000000; stroke-width: 0.6"/>
      </g>
     </g>
    </g>
    <g id="text_13">
     <!-- $\mathdefault{MSE_f}$ -->
     <g transform="translate(12.714928 187.993568) rotate(-90) scale(0.14 -0.14)">
      <defs>
       <path id="LiberationSerif-4d" d="M 2694 0 
L 2584 0 
L 1050 3603 
L 1050 250 
L 1613 166 
L 1613 0 
L 184 0 
L 184 166 
L 722 250 
L 722 3944 
L 184 4025 
L 184 4191 
L 1453 4191 
L 2816 1003 
L 4303 4191 
L 5503 4191 
L 5503 4025 
L 4966 3944 
L 4966 250 
L 5503 166 
L 5503 0 
L 3803 0 
L 3803 166 
L 4366 250 
L 4366 3603 
L 2694 0 
z
" transform="scale(0.015625)"/>
       <path id="LiberationSerif-53" d="M 434 1128 
L 638 1128 
L 747 563 
Q 863 416 1145 303 
Q 1428 191 1703 191 
Q 2141 191 2386 414 
Q 2631 638 2631 1031 
Q 2631 1256 2536 1403 
Q 2441 1550 2286 1651 
Q 2131 1753 1934 1823 
Q 1738 1894 1530 1966 
Q 1322 2038 1125 2125 
Q 928 2213 773 2347 
Q 619 2481 523 2679 
Q 428 2878 428 3169 
Q 428 3669 803 3953 
Q 1178 4238 1844 4238 
Q 2350 4238 2944 4103 
L 2944 3231 
L 2741 3231 
L 2631 3744 
Q 2313 3975 1844 3975 
Q 1425 3975 1189 3804 
Q 953 3634 953 3334 
Q 953 3131 1048 2997 
Q 1144 2863 1298 2767 
Q 1453 2672 1651 2603 
Q 1850 2534 2058 2461 
Q 2266 2388 2464 2295 
Q 2663 2203 2817 2061 
Q 2972 1919 3067 1714 
Q 3163 1509 3163 1209 
Q 3163 603 2791 270 
Q 2419 -63 1719 -63 
Q 1381 -63 1040 -3 
Q 700 56 434 159 
L 434 1128 
z
" transform="scale(0.015625)"/>
       <path id="LiberationSerif-45" d="M 184 166 
L 722 250 
L 722 3944 
L 184 4025 
L 184 4191 
L 3328 4191 
L 3328 3188 
L 3122 3188 
L 3022 3866 
Q 2672 3909 2009 3909 
L 1325 3909 
L 1325 2272 
L 2456 2272 
L 2553 2772 
L 2753 2772 
L 2753 1484 
L 2553 1484 
L 2456 1991 
L 1325 1991 
L 1325 281 
L 2150 281 
Q 2956 281 3206 331 
L 3384 1106 
L 3591 1106 
L 3531 0 
L 184 0 
L 184 166 
z
" transform="scale(0.015625)"/>
       <path id="LiberationSerif-66" d="M 703 2675 
L 197 2675 
L 197 2828 
L 703 2950 
L 703 3156 
Q 703 3806 961 4156 
Q 1219 4506 1684 4506 
Q 1925 4506 2131 4447 
L 2131 3806 
L 1978 3806 
L 1838 4191 
Q 1731 4256 1581 4256 
Q 1384 4256 1303 4081 
Q 1222 3906 1222 3425 
L 1222 2938 
L 2003 2938 
L 2003 2675 
L 1222 2675 
L 1222 244 
L 1856 141 
L 1856 0 
L 269 0 
L 269 141 
L 703 244 
L 703 2675 
z
" transform="scale(0.015625)"/>
      </defs>
      <use xlink:href="#LiberationSerif-4d" transform="translate(0 0.78125)"/>
      <use xlink:href="#LiberationSerif-53" transform="translate(88.916016 0.78125)"/>
      <use xlink:href="#LiberationSerif-45" transform="translate(144.53125 0.78125)"/>
      <use xlink:href="#LiberationSerif-66" transform="translate(206.418594 -12.990625) scale(0.7)"/>
     </g>
    </g>
   </g>
   <g id="line2d_44">
    <path d="M 57.30935 60.47878 
L 68.308145 104.613079 
L 79.30694 115.329575 
L 90.3198 104.90117 
L 101.318595 113.915162 
L 112.31739 141.239904 
L 123.316185 116.148615 
L 134.31498 100.655253 
L 145.313775 87.221061 
L 156.31257 94.894519 
L 167.311365 106.992021 
L 178.31016 96.397189 
L 189.308955 121.2163 
L 200.30775 101.688121 
L 211.306545 86.608319 
L 222.305341 84.386004 
L 233.304136 107.656703 
L 244.302931 70.46658 
L 255.301726 66.761718 
L 266.300521 107.057199 
L 277.299316 76.645019 
L 288.298111 86.774297 
L 299.310971 80.136086 
L 310.309766 73.281517 
L 321.308561 112.191743 
L 332.307356 94.989413 
L 343.292086 80.34814 
L 354.290881 140.602788 
L 365.303741 51.820761 
L 376.288471 99.272679 
L 387.287266 126.046921 
L 398.286061 61.224645 
L 409.284856 100.796774 
L 420.283651 126.44165 
L 431.296511 127.693859 
L 442.295306 54.235977 
L 453.280036 102.039775 
L 464.278831 69.72208 
L 468.329539 130.198253 
" clip-path="url(#p0bbcd22a65)" style="fill: none; stroke: #1f77b4; stroke-linecap: square"/>
   </g>
   <g id="line2d_45">
    <path d="M 49.123546 40.30562 
L 51.964667 133.236725 
L 54.791723 191.203268 
L 57.618779 213.546992 
L 60.445835 239.907269 
L 63.272891 215.669683 
L 66.099947 254.268412 
L 68.927003 243.460502 
L 71.739994 221.173683 
L 74.56705 195.372637 
L 77.394106 235.468181 
L 80.221162 263.785739 
L 83.048218 106.203105 
L 85.875274 257.20238 
L 88.70233 180.857301 
L 91.529386 257.884419 
L 94.356442 253.240733 
L 97.183498 181.132835 
L 100.010554 265.302406 
L 102.83761 156.306543 
L 105.664666 258.961427 
L 108.477657 227.792842 
L 111.304713 260.760357 
L 114.131769 261.208876 
L 116.958825 204.696131 
L 119.785881 252.417963 
L 122.612937 105.810699 
L 125.439993 227.129043 
L 128.267049 257.628263 
L 131.080041 108.784519 
L 133.907097 232.289053 
L 136.734153 255.93758 
L 139.561209 218.030793 
L 142.388265 208.377931 
L 145.215321 270.46111 
L 148.042377 112.612139 
L 150.869433 136.670752 
L 153.682424 269.847784 
L 156.50948 80.393759 
L 159.336536 256.197084 
L 162.163592 177.803104 
L 164.990648 251.530511 
L 167.817704 118.908368 
L 170.64476 191.252578 
L 173.457751 219.987792 
L 176.284807 265.552764 
L 179.111863 265.207941 
L 181.938919 168.311137 
L 184.765975 155.634162 
L 187.578966 186.461567 
L 190.406022 222.126666 
L 193.233078 267.706205 
L 196.060134 161.771173 
L 198.88719 196.898186 
L 201.714246 257.222535 
L 204.527237 192.028829 
L 207.354293 139.18097 
L 210.181349 221.669406 
L 213.008405 241.427592 
L 215.835461 223.779285 
L 218.662517 256.958147 
L 221.475508 239.591867 
L 224.302564 141.327751 
L 227.12962 164.94851 
L 229.956676 238.208968 
L 232.783732 177.654657 
L 235.610788 205.090697 
L 238.423779 222.95436 
L 241.250835 270.320479 
L 244.077891 132.639039 
L 246.904947 224.650377 
L 249.732003 228.863914 
L 252.544994 265.345435 
L 255.37205 168.378022 
L 258.199106 229.048251 
L 261.026162 131.359852 
L 263.853218 260.042071 
L 266.680274 247.923704 
L 269.493266 253.720334 
L 272.320322 176.462117 
L 275.147378 171.563136 
L 277.974434 179.576115 
L 280.80149 158.361319 
L 283.628546 122.993537 
L 286.441537 201.015859 
L 289.268593 249.771047 
L 292.095649 123.893823 
L 294.922705 179.73355 
L 297.749761 258.781211 
L 300.576817 169.838415 
L 303.403873 234.698881 
L 306.230929 246.319211 
L 309.04392 183.719266 
L 311.870976 245.864672 
L 314.698032 240.587753 
L 317.525088 238.663479 
L 320.352144 270.135565 
L 323.1792 177.595466 
L 326.006256 166.114692 
L 328.819247 208.522008 
L 331.646303 267.283224 
L 334.473359 199.417676 
L 337.300415 248.639845 
L 340.127471 151.040796 
L 342.940462 257.665708 
L 345.767518 136.451041 
L 348.594574 183.421201 
L 351.42163 251.643679 
L 354.248686 269.226334 
L 357.061677 113.28623 
L 359.888733 252.534244 
L 362.715789 125.644777 
L 365.542845 261.08388 
L 368.369901 175.47735 
L 371.182892 175.339054 
L 374.009948 195.875024 
L 376.837004 266.231365 
L 382.491116 172.008887 
L 385.304107 267.393041 
L 388.131163 229.276559 
L 390.958219 261.575236 
L 393.785275 208.491623 
L 396.598267 265.513789 
L 399.425323 209.935191 
L 402.252379 266.856616 
L 405.079435 176.234403 
L 407.892426 145.557634 
L 410.719482 220.564395 
L 413.546538 252.15783 
L 416.359529 234.079604 
L 419.186585 267.19199 
L 422.013641 114.951631 
L 424.840697 140.071755 
L 427.667753 226.229581 
L 430.480744 268.351094 
L 433.3078 138.322682 
L 436.134856 254.732254 
L 438.947847 229.391313 
L 441.774903 220.23677 
L 444.601959 266.596134 
L 447.429015 170.761353 
L 450.242006 267.101009 
L 453.069062 133.829966 
L 455.896118 254.794599 
L 458.723174 269.897221 
L 461.536165 138.42092 
L 464.363221 255.616065 
L 467.190277 220.215045 
L 468.329539 137.678102 
L 468.329539 137.678102 
" clip-path="url(#p0bbcd22a65)" style="fill: none; stroke: #ff7f0e; stroke-linecap: square"/>
   </g>
   <g id="line2d_46">
    <path d="M 46.830958 23.619153 
L 47.88583 23.726924 
L 48.420298 24.052378 
L 49.47517 24.381098 
L 51.06451 25.274159 
L 52.133446 25.615434 
L 52.65385 25.960302 
L 53.188318 26.455164 
L 53.708721 26.74979 
L 54.24319 27.407446 
L 54.777658 30.014723 
L 55.298061 31.833162 
L 56.366998 45.762804 
L 56.887401 64.046824 
L 57.42187 94.447489 
L 58.476741 170.978083 
L 59.01121 167.216044 
L 59.531613 235.606857 
L 60.066081 259.389417 
L 60.60055 234.162609 
L 61.655421 277.528559 
L 62.189889 274.648748 
L 62.710293 223.203233 
L 63.244761 234.919274 
L 63.765164 279.730529 
L 64.299633 282.343439 
L 64.834101 282.568459 
L 65.354504 282.076873 
L 65.888973 280.741179 
L 66.423441 283.574329 
L 66.943844 244.378395 
L 67.478313 281.416281 
L 68.533184 282.978908 
L 69.067653 282.575744 
L 70.122524 279.804084 
L 70.656993 283.717346 
L 71.177396 224.120054 
L 71.711864 280.419005 
L 72.246333 282.809708 
L 72.766736 282.927319 
L 73.301204 282.350673 
L 73.821608 279.570616 
L 74.356076 282.590318 
L 74.890544 274.614448 
L 75.410947 248.305403 
L 75.945416 281.543102 
L 76.479884 282.96416 
L 77.000287 282.495703 
L 77.534756 280.872324 
L 78.055159 281.346036 
L 78.589627 278.478988 
L 79.124096 247.421592 
L 79.644499 281.769782 
L 80.178967 282.919956 
L 80.713436 282.401361 
L 81.768307 279.643812 
L 82.302776 275.132757 
L 82.823179 254.576909 
L 83.357647 282.685206 
L 83.892115 282.048185 
L 84.412519 279.603866 
L 84.946987 262.414839 
L 85.46739 278.971271 
L 86.001859 279.577263 
L 86.536327 261.996235 
L 87.05673 279.226792 
L 87.591199 280.706754 
L 88.125667 276.854811 
L 88.64607 283.215779 
L 89.180539 239.474369 
L 89.700942 264.40743 
L 90.23541 280.817041 
L 90.769879 281.550162 
L 91.290282 284.096717 
L 91.82475 212.906555 
L 92.359219 281.819577 
L 92.879622 283.387094 
L 93.41409 282.343439 
L 93.934494 280.734291 
L 94.468962 267.859267 
L 95.00343 279.517484 
L 95.523834 282.019521 
L 96.59277 235.17543 
L 97.113173 262.000122 
L 97.647642 281.933682 
L 98.18211 277.063488 
L 98.702513 260.115397 
L 99.236982 281.784001 
L 99.757385 281.769782 
L 100.291853 272.716432 
L 100.826322 283.454376 
L 101.346725 231.299465 
L 101.881193 271.587596 
L 102.415662 282.546615 
L 102.936065 279.804084 
L 103.470533 282.365147 
L 103.990937 276.003328 
L 104.525405 248.152189 
L 105.059873 235.038564 
L 105.580277 270.632693 
L 106.114745 283.446893 
L 106.649213 269.577204 
L 107.169617 244.310353 
L 107.704085 279.226792 
L 108.224488 282.861111 
L 108.758956 281.275941 
L 109.293425 259.37506 
L 109.813828 281.557224 
L 110.348296 243.5268 
L 110.882765 274.792053 
L 111.403168 284.089086 
L 112.45804 282.956788 
L 112.992508 279.897939 
L 113.526976 281.613771 
L 114.04738 258.675663 
L 114.581848 281.122259 
L 115.116316 279.477692 
L 115.63672 229.839819 
L 116.171188 272.21877 
L 116.691591 284.180772 
L 117.22606 284.142538 
L 117.760528 266.404346 
L 118.280931 242.18319 
L 119.349868 281.578417 
L 119.870271 273.801842 
L 120.404739 252.244312 
L 120.939208 283.46186 
L 121.459611 282.321744 
L 121.994079 236.99063 
L 122.514483 264.70164 
L 123.048951 284.203733 
L 123.583419 284.226711 
L 124.638291 243.837976 
L 125.172759 268.936786 
L 125.693163 279.497582 
L 126.227631 273.857627 
L 126.748034 255.93758 
L 127.282503 283.97484 
L 127.816971 279.292632 
L 128.337374 258.361043 
L 128.871843 270.627634 
L 129.926714 283.86099 
L 130.461182 274.68881 
L 130.995651 259.253281 
L 131.516054 283.454376 
L 132.050522 279.610521 
L 132.570926 244.766658 
L 133.639862 284.37261 
L 134.160266 283.260384 
L 134.694734 239.788637 
L 135.749606 284.3111 
L 136.284074 284.426527 
L 136.804477 247.521401 
L 137.338946 275.677098 
L 137.873414 268.351094 
L 138.393817 266.222519 
L 138.928286 281.940826 
L 139.462754 283.952038 
L 139.983157 254.32988 
L 140.517626 265.496482 
L 141.038029 281.507825 
L 141.572497 284.939296 
L 142.106965 265.743974 
L 142.627369 235.711251 
L 143.161837 265.674314 
L 143.696305 285.088411 
L 144.216709 284.681908 
L 144.751177 254.857062 
L 145.285645 281.734259 
L 145.806049 283.739985 
L 146.340517 262.074073 
L 146.86092 254.176427 
L 147.395389 229.362587 
L 147.929857 274.924448 
L 148.45026 285.627718 
L 148.984729 281.052642 
L 149.519197 238.473333 
L 150.0396 268.191026 
L 150.574069 285.261923 
L 151.094472 284.480533 
L 151.62894 239.337819 
L 152.163408 265.988959 
L 152.683812 285.049105 
L 153.21828 284.759691 
L 153.752748 238.758968 
L 154.273152 265.757052 
L 154.80762 284.986312 
L 155.328023 285.056962 
L 155.862492 241.344702 
L 156.39696 267.817451 
L 156.917363 285.088411 
L 157.451832 276.039114 
L 157.9863 269.587004 
L 158.506703 279.220215 
L 159.041172 285.206615 
L 159.57564 271.901663 
L 160.096043 232.827187 
L 160.630512 271.029753 
L 161.150915 285.900738 
L 161.685383 285.492057 
L 162.219852 248.407945 
L 162.740255 275.254884 
L 163.274723 257.024879 
L 163.809191 282.75106 
L 164.329595 280.052716 
L 164.864063 281.840942 
L 165.384466 236.255981 
L 165.918935 266.591661 
L 166.453403 279.911369 
L 166.973806 278.854007 
L 167.508275 272.21877 
L 168.042743 255.456483 
L 168.563146 285.269832 
L 169.097615 280.466788 
L 169.618018 244.174692 
L 170.686955 286.143541 
L 171.207358 283.200924 
L 171.741826 240.974272 
L 172.276295 267.137371 
L 172.796698 286.176051 
L 173.331166 284.853275 
L 173.865635 236.096899 
L 174.386038 269.528247 
L 174.920506 286.4619 
L 175.440909 285.957231 
L 175.975378 244.904798 
L 176.509846 259.003975 
L 177.030249 285.001999 
L 177.564718 273.096067 
L 178.099186 268.153476 
L 178.619589 279.404865 
L 179.154058 283.830697 
L 179.674461 271.317819 
L 180.208929 273.773986 
L 180.743398 267.701578 
L 181.263801 277.106616 
L 181.798269 281.613771 
L 182.332738 273.902323 
L 182.853141 281.045688 
L 183.387609 282.809708 
L 183.922078 274.092964 
L 184.442481 237.172339 
L 184.976949 272.490745 
L 185.497353 286.167921 
L 186.031821 285.763943 
L 186.566289 234.766537 
L 187.086692 271.980652 
L 187.621161 286.816535 
L 188.155629 286.030009 
L 188.676032 238.171375 
L 189.730904 286.568711 
L 190.265372 286.330917 
L 190.799841 243.837976 
L 191.320244 274.466229 
L 191.854712 284.012878 
L 192.389181 285.364887 
L 193.444052 234.496749 
L 193.964456 274.763342 
L 194.498924 287.317878 
L 195.033392 280.344057 
L 195.553796 268.228619 
L 196.088264 284.234373 
L 196.622732 280.754959 
L 197.143136 274.15488 
L 197.677604 269.105378 
L 198.198007 286.741991 
L 198.732475 287.108052 
L 199.266944 286.626369 
L 199.787347 259.998154 
L 200.321815 268.412504 
L 200.856284 278.756607 
L 201.376687 282.927319 
L 201.911155 280.686117 
L 202.445624 232.241992 
L 202.966027 276.72049 
L 203.500495 287.579943 
L 204.020899 284.798652 
L 204.555367 241.719368 
L 205.089835 271.127206 
L 205.610239 287.65642 
L 206.144707 285.916869 
L 206.679175 238.397582 
L 207.199579 271.385055 
L 207.734047 287.402186 
L 208.25445 283.07493 
L 208.788918 258.018416 
L 209.323387 275.624023 
L 209.84379 280.066209 
L 210.378258 285.989557 
L 210.912727 280.248917 
L 211.43313 286.388158 
L 211.967598 288.170885 
L 212.502067 249.637487 
L 213.02247 268.664066 
L 213.556938 282.736414 
L 214.077342 285.933008 
L 214.61181 288.248756 
L 215.146278 265.587446 
L 215.666682 264.537397 
L 216.20115 287.65642 
L 216.735618 288.248756 
L 217.256022 287.707505 
L 217.79049 283.045355 
L 218.310893 284.80645 
L 218.845362 288.632147 
L 219.37983 243.748767 
L 219.900233 285.812158 
L 220.434701 288.405056 
L 220.96917 288.405056 
L 221.489573 287.698985 
L 222.024041 280.126999 
L 222.544445 265.99335 
L 223.078913 285.072683 
L 223.613381 285.088411 
L 224.133785 274.160515 
L 224.668253 283.327405 
L 225.202721 183.108324 
L 225.723125 284.188424 
L 226.257593 288.127703 
L 226.777996 287.613911 
L 227.846933 234.868282 
L 228.367336 269.991358 
L 228.901805 289.340929 
L 229.436273 288.266086 
L 229.956676 247.123978 
L 230.491145 288.119073 
L 231.025613 232.69977 
L 231.546016 277.422563 
L 232.080484 289.01121 
L 232.600888 288.958054 
L 233.135356 259.48649 
L 233.669824 265.143689 
L 234.190228 287.43597 
L 234.724696 278.704779 
L 235.259164 279.056223 
L 235.779568 263.650536 
L 236.314036 287.376871 
L 236.834439 284.95496 
L 237.368908 287.267397 
L 237.903376 261.748388 
L 238.423779 288.093198 
L 238.958248 290.065384 
L 239.492716 287.43597 
L 240.013119 262.438471 
L 240.547588 278.440436 
L 241.602459 289.664953 
L 242.136927 277.981325 
L 242.657331 282.897877 
L 243.191799 290.120369 
L 243.726267 279.010453 
L 244.246671 273.260124 
L 244.781139 289.955689 
L 245.315607 279.677138 
L 245.836011 272.028137 
L 246.370479 290.193827 
L 246.890882 280.289658 
L 247.425351 261.636696 
L 247.959819 291.211454 
L 248.480222 289.946564 
L 249.014691 230.368489 
L 249.549159 284.511433 
L 250.069562 291.708294 
L 250.604031 288.05873 
L 251.124434 237.045037 
L 251.658902 279.737209 
L 252.193371 291.698668 
L 252.713774 288.007095 
L 253.248242 252.856162 
L 254.303114 290.862466 
L 254.837582 277.981325 
L 255.357985 269.042657 
L 255.892454 291.126222 
L 256.426922 282.278398 
L 256.947325 283.72489 
L 257.481794 280.140523 
L 258.016262 266.302221 
L 258.536665 290.047076 
L 259.071134 288.931508 
L 259.591537 231.253804 
L 260.126005 285.667726 
L 260.660474 292.655723 
L 261.180877 290.703358 
L 261.715345 242.524688 
L 262.249814 274.358337 
L 262.770217 293.205352 
L 263.304685 291.211454 
L 263.825089 253.092286 
L 264.359557 250.804296 
L 264.894025 292.944378 
L 265.414429 290.120369 
L 265.948897 293.215431 
L 266.483365 234.179235 
L 267.003768 274.121093 
L 267.538237 279.958417 
L 268.05864 288.084578 
L 268.593108 274.290378 
L 269.127577 284.480533 
L 269.64798 280.221785 
L 270.182448 277.987658 
L 270.716917 291.882048 
L 271.23732 283.349776 
L 271.771788 257.03156 
L 272.306257 290.010491 
L 272.82666 272.981714 
L 273.361128 286.675871 
L 273.881532 282.655981 
L 274.416 274.318677 
L 274.950468 295.772343 
L 275.470872 292.874469 
L 276.00534 280.976232 
L 276.539808 244.560534 
L 277.060211 284.434237 
L 277.59468 293.488746 
L 278.115083 223.370205 
L 278.649551 290.881235 
L 279.18402 295.328508 
L 279.704423 296.756996 
L 280.238891 297.289174 
L 280.77336 296.432893 
L 281.828231 269.464711 
L 282.3627 296.244381 
L 282.883103 287.14991 
L 283.417571 268.270963 
L 283.937975 289.037821 
L 284.472443 274.551658 
L 285.006911 285.364887 
L 285.527315 282.846416 
L 286.061783 276.278692 
L 286.596251 290.304324 
L 287.116655 273.502237 
L 287.651123 285.049105 
L 288.171526 277.597328 
L 288.705994 281.613771 
L 289.240463 284.488255 
L 289.760866 269.144035 
L 290.295334 287.784281 
L 290.829803 262.898743 
L 291.350206 288.110446 
L 291.884674 259.914143 
L 292.405078 289.385741 
L 292.939546 260.269918 
L 293.474014 290.184636 
L 293.994418 261.78699 
L 294.528886 290.759425 
L 295.063354 263.793951 
L 295.583758 291.0035 
L 296.118226 265.474861 
L 296.638629 290.918806 
L 297.173098 266.160662 
L 297.707566 290.778136 
L 298.227969 265.770135 
L 298.762438 290.853085 
L 299.296906 264.76926 
L 299.817309 291.192494 
L 300.351777 263.942122 
L 300.872181 291.602563 
L 301.406649 263.711922 
L 301.941117 291.949868 
L 302.461521 263.872069 
L 302.995989 292.232344 
L 303.530457 264.066111 
L 304.050861 292.477828 
L 304.585329 264.153184 
L 305.105732 292.735098 
L 305.640201 264.211361 
L 306.174669 293.024456 
L 306.695072 264.353081 
L 307.229541 293.316393 
L 307.764009 264.558408 
L 308.284412 293.58036 
L 308.818881 264.815831 
L 309.339284 293.825924 
L 309.873752 265.083834 
L 310.40822 294.062995 
L 310.928624 265.280913 
L 311.463092 294.322643 
L 311.99756 265.531106 
L 312.517964 294.552847 
L 313.052432 265.826889 
L 313.572835 294.75297 
L 314.107304 266.116549 
L 314.641772 294.943695 
L 315.162175 266.337707 
L 315.696644 295.124849 
L 316.231112 266.582717 
L 316.751515 295.30701 
L 317.285984 266.870146 
L 317.806387 295.436207 
L 318.340855 267.151017 
L 318.875324 295.555087 
L 319.395727 267.41138 
L 319.930195 295.663535 
L 320.464664 267.683076 
L 320.985067 295.783244 
L 321.519535 267.924419 
L 322.039939 295.892451 
L 322.574407 268.172246 
L 323.108875 295.99105 
L 323.629278 268.450352 
L 324.163747 296.067944 
L 324.698215 268.697436 
L 325.218618 296.145018 
L 325.753087 268.927178 
L 326.287555 296.222274 
L 326.807958 269.18758 
L 327.342427 296.277569 
L 327.86283 269.420798 
L 328.397298 296.321872 
L 328.931767 269.660599 
L 329.45217 296.366235 
L 329.986638 269.921968 
L 330.521107 296.377335 
L 331.04151 270.175458 
L 331.575978 296.377335 
L 332.096382 270.415841 
L 332.63085 296.377335 
L 333.165318 270.637753 
L 333.685721 296.377335 
L 334.22019 270.861179 
L 334.754658 296.366235 
L 335.275061 271.091269 
L 335.80953 296.355139 
L 336.329933 271.276512 
L 336.864401 296.366235 
L 337.39887 271.442056 
L 337.919273 296.377335 
L 338.453741 271.634515 
L 338.98821 296.377335 
L 339.508613 271.822863 
L 340.043081 296.366235 
L 340.57755 272.017579 
L 341.097953 296.344046 
L 341.632421 272.202841 
L 342.152825 296.310791 
L 342.687293 272.394495 
L 343.221761 296.266503 
L 343.742165 272.603394 
L 344.276633 296.200182 
L 344.811101 272.808225 
L 345.331504 296.133996 
L 345.865973 272.970844 
L 346.386376 296.122978 
L 346.920844 273.112436 
L 347.455313 296.122978 
L 347.975716 273.293034 
L 348.510184 296.089946 
L 349.044653 273.491193 
L 349.565056 296.013001 
L 350.099524 273.629512 
L 350.619928 295.99105 
L 351.154396 273.746153 
L 351.688864 296.002024 
L 352.209268 273.958279 
L 352.743736 295.947192 
L 353.278204 274.211269 
L 353.798608 295.805056 
L 354.333076 274.386695 
L 354.853479 295.707015 
L 355.387948 274.488988 
L 355.922416 295.696139 
L 356.442819 274.614448 
L 356.977287 295.685268 
L 357.511756 274.820789 
L 358.032159 295.609266 
L 358.566627 275.022651 
L 359.101096 295.511808 
L 359.621499 275.144368 
L 360.155967 295.522622 
L 360.676371 275.243233 
L 361.210839 295.587584 
L 361.745307 275.436004 
L 362.265711 295.555087 
L 362.800179 275.736171 
L 363.334647 295.339262 
L 363.855051 275.967581 
L 364.389519 295.124849 
L 364.923987 275.991408 
L 365.444391 295.156921 
L 365.978859 275.914033 
L 366.499262 295.40386 
L 367.03373 276.051051 
L 367.568199 295.479386 
L 368.088602 276.520035 
L 368.62307 295.082134 
L 369.157539 276.952847 
L 369.677942 294.542348 
L 370.21241 276.977401 
L 370.732814 294.52136 
L 371.267282 276.459532 
L 371.80175 295.468586 
L 372.322154 276.039114 
L 372.856622 296.566616 
L 373.39109 277.168327 
L 373.911494 295.587584 
L 374.445962 278.763092 
L 374.98043 292.645814 
L 375.500834 280.398547 
L 376.035302 288.623384 
L 376.555705 283.409506 
L 377.090174 281.24095 
L 377.624642 291.535457 
L 378.145045 266.355464 
L 378.679513 309.105332 
L 379.213982 292.379414 
L 379.734385 298.700397 
L 380.268853 269.798421 
L 380.789257 280.296453 
L 381.323725 279.524121 
L 381.858193 308.860655 
L 382.378597 297.506787 
L 382.913065 270.471179 
L 383.447533 295.457789 
L 383.967937 289.637828 
L 384.502405 272.619518 
L 385.022808 308.828169 
L 385.557277 311.85347 
L 386.091745 295.707015 
L 386.612148 272.64103 
L 387.146617 244.017127 
L 387.681085 309.766882 
L 388.201488 310.716085 
L 388.735957 289.484544 
L 389.25636 239.240631 
L 389.790828 288.790292 
L 390.325296 310.305912 
L 391.380168 268.078506 
L 391.914636 303.35387 
L 392.43504 281.289948 
L 392.969508 288.196821 
L 393.489911 296.566616 
L 394.02438 256.229667 
L 394.558848 311.729067 
L 395.61372 274.523157 
L 396.148188 249.584216 
L 396.668591 310.784949 
L 397.20306 310.871233 
L 397.723463 293.014436 
L 398.257931 258.753031 
L 398.7924 308.392731 
L 399.312803 281.955121 
L 399.847271 282.721775 
L 400.381739 314.024917 
L 400.902143 307.821007 
L 401.436611 263.950373 
L 401.971079 284.798652 
L 402.491483 267.808166 
L 403.025951 314.196597 
L 403.546354 309.951175 
L 404.080823 243.682018 
L 404.615291 240.64848 
L 405.135694 312.958018 
L 405.670163 312.81102 
L 406.204631 293.702912 
L 406.725034 244.469338 
L 407.259503 247.847895 
L 407.779906 312.829359 
L 408.314374 314.600717 
L 408.848843 312.15757 
L 409.369246 232.795287 
L 409.903714 281.052642 
L 410.438183 310.613059 
L 410.958586 303.203113 
L 411.493054 299.386856 
L 412.013458 298.098157 
L 412.547926 309.187299 
L 413.082394 310.271961 
L 413.602797 267.9897 
L 414.137266 305.954498 
L 414.671734 313.365697 
L 415.192137 315.325096 
L 415.726606 315.904265 
L 416.247009 310.102735 
L 416.781477 265.118023 
L 417.315946 243.5268 
L 417.836349 313.835211 
L 418.370817 315.563512 
L 418.905286 267.06015 
L 419.425689 252.331022 
L 419.960157 313.272596 
L 420.480561 315.643371 
L 421.015029 311.4289 
L 421.549497 274.51746 
L 422.069901 283.104532 
L 422.604369 257.098442 
L 423.138837 315.364712 
L 423.659241 305.673149 
L 424.193709 244.129596 
L 424.714112 284.923639 
L 425.24858 276.879293 
L 425.783049 310.613059 
L 426.303452 298.391989 
L 426.83792 290.212217 
L 427.372389 272.598021 
L 427.892792 315.663366 
L 428.42726 318.199179 
L 428.947664 253.240733 
L 429.482132 259.493692 
L 430.0166 315.167111 
L 430.537004 317.812474 
L 431.071472 266.364346 
L 431.60594 254.763411 
L 432.126344 311.201202 
L 433.19528 266.703669 
L 433.715684 317.472526 
L 434.250152 318.612381 
L 434.770555 253.720334 
L 435.305023 265.160811 
L 435.839492 312.664678 
L 436.359895 317.43028 
L 436.894363 314.8339 
L 437.949235 237.760676 
L 438.483703 314.931552 
L 439.004107 306.283318 
L 439.538575 274.591602 
L 440.073043 251.053861 
L 440.593447 314.34996 
L 441.127915 315.663366 
L 441.648318 303.189442 
L 442.182787 310.221101 
L 442.717255 254.825816 
L 443.237658 216.021303 
L 443.772127 298.474737 
L 444.306595 315.803675 
L 444.826998 318.242429 
L 445.361467 316.207902 
L 445.895935 292.546895 
L 446.416338 259.353537 
L 446.950806 318.13441 
L 447.47121 315.029496 
L 448.005678 312.646432 
L 448.540146 222.034702 
L 449.06055 263.308879 
L 449.595018 314.542679 
L 450.129486 318.503137 
L 450.64989 316.309743 
L 451.184358 292.017829 
L 451.704761 218.091802 
L 452.23923 305.687897 
L 452.773698 318.72199 
L 453.294101 314.082044 
L 453.82857 237.557242 
L 454.363038 300.551304 
L 454.883441 271.004156 
L 455.41791 316.740965 
L 455.952378 318.809942 
L 456.472781 246.585276 
L 457.00725 262.802983 
L 457.527653 316.411901 
L 458.062121 319.589765 
L 458.596589 242.67522 
L 459.116993 275.771666 
L 459.651461 317.156998 
L 460.185929 318.459542 
L 460.706333 298.879654 
L 461.240801 247.247656 
L 461.761204 273.829723 
L 462.295673 315.404375 
L 462.830141 319.747982 
L 463.350544 284.249704 
L 463.885013 238.265438 
L 464.419481 316.844479 
L 464.939884 313.272596 
L 465.994756 288.110446 
L 466.529224 214.829821 
L 467.063693 301.876637 
L 467.584096 314.562014 
L 468.329539 317.983779 
L 468.329539 317.983779 
" clip-path="url(#p0bbcd22a65)" style="fill: none; stroke: #2ca02c; stroke-linecap: square"/>
   </g>
   <g id="line2d_47">
    <path d="M 46.718439 23.619153 
L 48.364038 23.646063 
L 49.179806 24.079646 
L 49.601754 24.408641 
L 50.825406 26.221357 
L 51.247354 27.047089 
L 51.655238 28.450524 
L 52.063122 30.618605 
L 52.471005 33.692582 
L 52.892954 38.325485 
L 53.300838 48.398838 
L 53.708721 64.065308 
L 54.538554 106.00964 
L 56.184154 178.89225 
L 56.999921 194.159178 
L 58.237637 235.659013 
L 59.067469 252.476052 
L 59.883237 264.608889 
L 60.291121 250.202134 
L 60.713069 228.72282 
L 61.120953 269.3137 
L 61.528837 276.19464 
L 61.93672 274.763342 
L 62.358669 265.526776 
L 62.766553 274.734656 
L 63.174436 273.67945 
L 63.58232 275.313201 
L 64.004269 269.778697 
L 64.412152 270.220396 
L 64.820036 271.6815 
L 65.22792 282.58303 
L 65.649868 245.089895 
L 66.057752 256.580348 
L 66.465636 262.552934 
L 66.87352 278.711253 
L 67.295468 276.72049 
L 67.703352 269.086066 
L 68.111236 269.503795 
L 68.519119 279.121722 
L 68.941068 283.171235 
L 69.348952 273.408481 
L 69.756835 281.99804 
L 70.178784 246.39156 
L 70.586668 277.118949 
L 70.994551 279.74389 
L 71.402435 272.884014 
L 71.824384 271.060497 
L 72.232268 278.828006 
L 72.640151 283.619425 
L 73.048035 276.399141 
L 73.469984 261.702124 
L 73.877867 265.857489 
L 74.285751 274.296036 
L 74.693635 272.560434 
L 75.115583 279.161083 
L 75.523467 283.305049 
L 75.931351 281.571351 
L 76.339235 262.148191 
L 76.761183 276.520035 
L 77.169067 281.96227 
L 77.576951 266.96501 
L 77.984834 256.229667 
L 78.406783 273.879967 
L 78.814667 276.477671 
L 79.22255 280.624282 
L 79.630434 281.983728 
L 80.052383 244.310353 
L 80.460266 279.147957 
L 80.86815 269.621328 
L 81.290099 277.703892 
L 81.697982 273.183462 
L 82.105866 269.961602 
L 82.51375 275.284029 
L 82.935699 283.327405 
L 83.343582 254.360657 
L 83.751466 244.537711 
L 84.15935 282.685206 
L 84.581298 283.86099 
L 84.989182 271.598017 
L 85.397066 278.893049 
L 85.804949 277.578558 
L 86.226898 282.561176 
L 86.634782 282.641377 
L 87.042665 281.254942 
L 87.450549 270.415841 
L 87.872498 263.744709 
L 88.280382 221.454423 
L 88.688265 279.141397 
L 89.518098 283.611904 
L 89.925981 283.409506 
L 90.333865 281.528987 
L 90.741749 282.444869 
L 91.163697 251.899746 
L 91.571581 276.653535 
L 91.979465 268.7834 
L 92.387348 277.366586 
L 92.809297 273.712785 
L 93.625065 283.84584 
L 94.047013 269.076415 
L 94.454897 277.943355 
L 94.862781 278.834504 
L 95.270664 283.327405 
L 95.692613 281.247946 
L 96.100497 272.234706 
L 96.50838 266.762064 
L 97.338213 283.126751 
L 97.746096 256.725649 
L 98.15398 252.388957 
L 98.561864 269.095721 
L 98.983813 274.717456 
L 99.391696 276.320799 
L 99.79958 284.104349 
L 100.207464 260.689309 
L 100.629412 243.504686 
L 101.037296 276.757068 
L 101.44518 281.031785 
L 101.853063 268.678363 
L 102.275012 263.695541 
L 102.682896 277.597328 
L 103.090779 282.141514 
L 103.498663 267.604559 
L 103.920612 260.425172 
L 104.328496 279.891226 
L 104.736379 283.499307 
L 105.158328 283.936846 
L 105.566212 282.249533 
L 105.974095 255.329374 
L 106.381979 278.997387 
L 106.803928 275.500514 
L 107.211811 278.325054 
L 107.619695 284.418819 
L 108.027579 258.101148 
L 108.449527 249.878288 
L 108.857411 267.812809 
L 109.265295 274.648748 
L 109.673179 275.441863 
L 110.095127 283.91407 
L 110.503011 272.873176 
L 110.910895 248.279818 
L 111.318778 278.40193 
L 111.740727 283.148986 
L 112.148611 284.495979 
L 112.556494 281.430348 
L 112.978443 253.90201 
L 113.386327 264.399063 
L 113.79421 282.19908 
L 114.202094 275.860573 
L 114.624043 262.90274 
L 115.031927 281.99804 
L 115.43981 283.387094 
L 115.847694 250.942708 
L 116.269643 277.020416 
L 116.677526 276.799795 
L 117.08541 282.905235 
L 117.493294 283.506801 
L 117.915242 281.346036 
L 118.323126 283.119343 
L 118.73101 270.090743 
L 119.138893 262.695585 
L 119.560842 267.696951 
L 119.968726 284.388006 
L 120.37661 240.64848 
L 120.784493 259.490091 
L 121.206442 262.806967 
L 121.614326 278.222832 
L 122.022209 274.976401 
L 122.430093 275.659396 
L 122.852042 284.69745 
L 123.259925 262.222477 
L 123.667809 248.356634 
L 124.089758 276.879293 
L 124.497641 278.414761 
L 124.905525 283.649523 
L 125.313409 284.150181 
L 125.735357 278.821509 
L 126.143241 283.297601 
L 126.551125 277.366586 
L 126.959009 277.045022 
L 127.380957 281.080471 
L 127.788841 283.402034 
L 128.196725 265.336825 
L 128.604608 254.05418 
L 129.026557 279.663803 
L 129.842324 285.041249 
L 130.250208 275.629916 
L 130.672157 249.213719 
L 131.080041 277.703892 
L 131.487924 280.89308 
L 132.317757 264.453488 
L 132.72564 279.286042 
L 133.133524 284.77527 
L 133.541408 280.65175 
L 133.963356 250.556618 
L 134.37124 278.267515 
L 135.187007 284.986312 
L 135.608956 283.33486 
L 136.01684 260.805308 
L 136.424724 255.905286 
L 136.832607 260.895396 
L 137.254556 280.53517 
L 137.66244 284.34953 
L 138.070323 285.096278 
L 138.478207 279.128279 
L 138.900156 249.424918 
L 139.308039 277.609847 
L 139.715923 281.840942 
L 140.137872 263.728312 
L 140.545755 266.480035 
L 140.953639 279.147957 
L 141.361523 283.876147 
L 141.783471 284.519163 
L 142.191355 284.028105 
L 142.599239 260.779079 
L 143.007123 250.942708 
L 143.429071 274.769082 
L 143.836955 282.127138 
L 144.244839 283.305049 
L 145.074671 261.864333 
L 145.482555 278.795533 
L 145.890438 283.91407 
L 146.298322 262.391223 
L 146.720271 254.888339 
L 147.128154 275.765748 
L 147.536038 278.382694 
L 147.943922 284.272714 
L 148.365871 278.543341 
L 148.773754 256.785277 
L 149.181638 262.011788 
L 149.589522 284.588812 
L 150.01147 276.86093 
L 150.419354 266.006528 
L 150.827238 264.236326 
L 151.235121 276.441403 
L 151.65707 279.757257 
L 152.064954 279.563969 
L 152.472838 248.38228 
L 152.894786 280.603696 
L 153.30267 270.150519 
L 153.710554 283.297601 
L 154.540386 249.134869 
L 154.94827 279.992064 
L 155.356153 279.663803 
L 155.764037 285.484094 
L 156.185986 264.697418 
L 156.593869 254.950982 
L 157.001753 279.750573 
L 157.409637 283.23064 
L 157.831585 285.436359 
L 158.647353 257.857 
L 159.055237 261.648233 
L 159.477185 284.526894 
L 160.292953 268.980055 
L 160.700836 269.206951 
L 161.122785 280.782537 
L 161.530669 272.022858 
L 161.938552 257.256154 
L 162.346436 282.336205 
L 162.768385 282.824386 
L 163.176268 238.720739 
L 163.584152 274.32434 
L 164.006101 277.162151 
L 164.413985 284.242038 
L 165.229752 276.732678 
L 165.651701 254.299131 
L 166.059584 216.677533 
L 166.467468 245.392926 
L 166.875352 283.709803 
L 167.2973 285.238208 
L 167.705184 284.280388 
L 168.113068 283.84584 
L 168.520951 277.248725 
L 168.9429 259.14264 
L 169.350784 265.024088 
L 169.758668 284.104349 
L 170.166551 266.147422 
L 170.5885 265.053947 
L 170.996384 280.072958 
L 171.404267 282.861111 
L 171.812151 276.977401 
L 172.2341 266.780053 
L 172.641983 260.166823 
L 173.049867 273.496715 
L 173.471816 279.193921 
L 173.879699 282.773041 
L 174.287583 241.241384 
L 174.695467 274.625878 
L 175.117416 265.809416 
L 175.525299 276.842577 
L 175.933183 276.744871 
L 176.341067 272.437238 
L 176.763015 270.036044 
L 177.170899 275.330716 
L 177.578783 285.747887 
L 177.986666 248.485063 
L 178.408615 274.2508 
L 178.816499 285.214511 
L 179.224382 255.108114 
L 179.632266 278.5369 
L 180.054215 231.805988 
L 180.462099 270.658002 
L 180.869982 274.964849 
L 181.291931 282.795036 
L 181.699815 281.592554 
L 182.107698 281.66333 
L 182.515582 284.134897 
L 182.937531 253.3003 
L 183.345414 262.249889 
L 183.753298 274.076098 
L 184.161182 271.137481 
L 184.58313 269.660599 
L 184.991014 272.662556 
L 185.398898 285.780007 
L 185.806782 254.919645 
L 186.22873 248.407945 
L 186.636614 281.381139 
L 187.044498 285.820201 
L 187.452381 262.454235 
L 187.87433 254.20706 
L 188.282214 266.757568 
L 188.690097 274.528855 
L 189.097981 278.938656 
L 189.51993 285.349025 
L 189.927813 248.925525 
L 190.335697 240.974272 
L 190.757646 254.545928 
L 191.16553 281.649163 
L 191.573413 282.568459 
L 191.981297 282.912595 
L 192.403246 285.119891 
L 192.811129 259.994497 
L 193.219013 280.187901 
L 193.626897 276.903792 
L 194.048845 284.876713 
L 194.456729 278.108212 
L 194.864613 274.01433 
L 195.694445 243.394338 
L 196.510213 284.134897 
L 196.918096 284.058582 
L 197.340045 285.19083 
L 198.563696 258.021859 
L 198.985645 268.611696 
L 199.393528 275.694809 
L 199.801412 206.503197 
L 200.209296 248.925525 
L 200.631244 273.003465 
L 201.039128 284.853275 
L 201.447012 281.087432 
L 201.854896 285.699767 
L 202.276844 263.872069 
L 202.684728 251.2213 
L 203.092612 284.035722 
L 203.51456 285.683742 
L 203.922444 253.841339 
L 204.330328 271.671053 
L 204.738211 264.311335 
L 205.16016 276.266671 
L 205.568044 276.526091 
L 205.975927 285.388694 
L 206.383811 252.215459 
L 206.80576 267.420553 
L 207.213644 263.818599 
L 207.621527 273.430517 
L 208.45136 270.315467 
L 208.859243 273.232724 
L 209.267127 286.634614 
L 209.675011 255.680116 
L 210.096959 277.854928 
L 210.504843 282.553895 
L 210.912727 258.954341 
L 211.32061 204.339688 
L 211.742559 271.333323 
L 212.150443 281.395191 
L 212.558327 286.445499 
L 212.96621 286.470104 
L 213.388159 274.683084 
L 213.796043 273.364454 
L 214.203926 272.45863 
L 214.61181 209.066076 
L 215.441642 277.137457 
L 215.849526 286.046204 
L 216.25741 283.319951 
L 216.679358 286.866325 
L 217.087242 257.533143 
L 217.495126 262.245971 
L 217.90301 259.522516 
L 218.324958 254.484055 
L 218.732842 281.798227 
L 219.140726 287.183435 
L 219.548609 252.621727 
L 219.970558 276.344884 
L 220.378442 282.758385 
L 220.786325 240.125883 
L 221.194209 256.132015 
L 221.616158 280.405365 
L 222.024041 284.994154 
L 222.431925 285.595747 
L 222.839809 265.704772 
L 223.261757 254.950982 
L 223.669641 279.931524 
L 224.077525 283.484323 
L 224.499474 274.861062 
L 224.907357 263.458932 
L 225.315241 284.581066 
L 225.723125 284.012878 
L 226.145073 237.501978 
L 226.552957 282.481171 
L 226.960841 286.192319 
L 227.368724 279.790698 
L 227.790673 285.587759 
L 228.198557 286.371793 
L 228.606441 244.423835 
L 229.014324 272.176311 
L 229.436273 284.134897 
L 229.844157 286.750265 
L 230.25204 234.112781 
L 230.659924 265.526776 
L 231.081873 276.332839 
L 231.489756 209.290927 
L 231.89764 267.219334 
L 232.305524 279.259695 
L 232.727472 287.767204 
L 233.135356 257.014861 
L 233.54324 211.073525 
L 233.951124 240.628225 
L 234.373072 281.564287 
L 234.780956 287.024496 
L 235.18884 285.924937 
L 235.610788 287.393746 
L 236.018672 259.67426 
L 236.426556 260.993273 
L 236.834439 259.221121 
L 237.256388 258.587965 
L 237.664272 279.938245 
L 238.072155 285.595747 
L 238.480039 285.476134 
L 239.309871 256.067075 
L 239.717755 280.384916 
L 240.125639 285.325247 
L 240.547588 257.138637 
L 240.955471 272.41586 
L 241.771239 284.37261 
L 242.193187 288.101821 
L 242.601071 261.498572 
L 243.008955 252.042875 
L 243.416838 283.732437 
L 243.838787 276.242643 
L 244.246671 236.451471 
L 244.654554 265.874988 
L 245.062438 277.578558 
L 245.484387 274.437802 
L 245.892271 273.596262 
L 246.300154 287.116419 
L 246.722103 266.444395 
L 247.945754 253.00354 
L 248.367703 279.79739 
L 248.775586 286.388158 
L 249.18347 285.747887 
L 249.591354 280.576269 
L 250.421186 251.587046 
L 250.82907 267.808166 
L 251.236954 273.342462 
L 251.658902 273.003465 
L 252.066786 286.062406 
L 252.47467 275.208306 
L 252.882553 267.618401 
L 253.304502 268.769057 
L 253.712386 256.851658 
L 254.120269 264.386516 
L 254.528153 276.176657 
L 254.950102 273.419498 
L 255.765869 288.772682 
L 256.173753 237.081358 
L 256.595702 262.007899 
L 257.003585 264.012325 
L 257.411469 282.488436 
L 257.819353 278.951698 
L 258.241301 288.887312 
L 258.649185 257.754383 
L 259.057069 247.000766 
L 259.464952 284.150181 
L 259.886901 289.287235 
L 260.294785 251.928322 
L 260.702668 283.944441 
L 261.110552 288.05873 
L 261.532501 255.488337 
L 261.940385 285.884614 
L 262.348268 285.064822 
L 262.770217 288.7991 
L 263.178101 264.735433 
L 263.585984 253.932387 
L 263.993868 273.513285 
L 264.415817 277.100452 
L 264.8237 285.364887 
L 265.231584 288.405056 
L 265.639468 265.083834 
L 266.061416 277.285898 
L 266.4693 270.185439 
L 267.285068 288.326813 
L 267.707016 270.23039 
L 268.1149 244.881734 
L 268.522784 279.824173 
L 268.930667 285.579773 
L 269.352616 286.50294 
L 269.7605 272.64103 
L 270.168383 251.615351 
L 270.576267 281.024836 
L 270.998216 287.191821 
L 271.406099 287.588431 
L 271.813983 280.242132 
L 272.221867 257.67252 
L 272.643816 287.326299 
L 273.051699 286.371793 
L 273.459583 242.8048 
L 273.867467 262.763165 
L 274.289415 262.96274 
L 274.697299 280.768745 
L 275.105183 277.968664 
L 275.513066 289.646867 
L 275.935015 264.311335 
L 276.342899 247.396688 
L 276.750782 270.080791 
L 277.158666 276.290717 
L 277.580615 280.64488 
L 277.988499 288.843176 
L 278.396382 252.331022 
L 278.804266 244.174692 
L 279.226215 281.136201 
L 279.634098 284.058582 
L 280.449866 263.876185 
L 280.871814 283.052746 
L 281.279698 287.461331 
L 281.687582 288.887312 
L 282.095465 267.933737 
L 282.517414 262.011788 
L 283.333182 278.691834 
L 283.75513 286.281933 
L 284.163014 289.919206 
L 284.570898 267.9897 
L 284.978781 274.477607 
L 285.40073 267.461865 
L 285.808614 280.187901 
L 286.216497 280.500961 
L 286.624381 286.273776 
L 287.04633 252.797395 
L 287.454213 246.464069 
L 287.862097 288.509672 
L 288.269981 288.851999 
L 288.69193 254.545928 
L 289.099813 289.305123 
L 289.507697 261.957385 
L 289.915581 249.932041 
L 290.337529 276.635299 
L 290.745413 287.368437 
L 291.153297 289.349886 
L 291.56118 288.588354 
L 291.983129 287.250587 
L 292.391013 289.278295 
L 292.798896 289.314071 
L 293.20678 288.588354 
L 293.628729 290.843707 
L 294.036613 278.006663 
L 294.444496 246.585276 
L 294.866445 280.208227 
L 295.682212 289.153384 
L 296.090096 272.959978 
L 296.512045 243.593232 
L 296.919928 279.79739 
L 297.327812 270.150519 
L 297.735696 281.388165 
L 298.157644 279.844275 
L 298.565528 288.07596 
L 298.973412 252.302093 
L 299.381296 264.693197 
L 299.803244 266.771057 
L 300.211128 286.290092 
L 300.619012 283.223209 
L 301.026895 290.203021 
L 301.448844 277.205409 
L 301.856728 243.593232 
L 302.264611 281.212984 
L 302.672495 288.825539 
L 303.094444 287.921218 
L 303.502327 280.93463 
L 303.910211 254.794599 
L 304.318095 281.010942 
L 305.147927 290.703358 
L 305.555811 289.260421 
L 305.963695 287.393746 
L 306.385643 248.691602 
L 306.793527 281.080471 
L 307.201411 287.074604 
L 307.623359 252.915033 
L 308.031243 281.185042 
L 308.439127 272.998026 
L 308.84701 286.593409 
L 309.268959 282.883166 
L 309.676843 290.947013 
L 310.084727 264.045414 
L 310.49261 251.672033 
L 310.914559 261.030995 
L 311.322443 285.049105 
L 311.730326 282.27118 
L 312.13821 287.562972 
L 312.560159 291.088412 
L 312.968042 266.560368 
L 313.375926 273.629512 
L 313.78381 270.617517 
L 314.205758 287.066247 
L 314.613642 283.619425 
L 315.021526 291.012923 
L 315.443474 263.585183 
L 315.851358 248.356634 
L 316.259242 260.767844 
L 316.667126 284.69745 
L 317.089074 282.220693 
L 317.904842 290.98466 
L 318.312725 252.359977 
L 318.734674 241.782231 
L 319.142558 259.028821 
L 319.550441 285.828246 
L 319.958325 283.739985 
L 320.788157 291.0035 
L 321.196041 251.985548 
L 321.603925 238.378672 
L 322.025874 263.548479 
L 322.433757 281.122259 
L 322.841641 280.371291 
L 323.671473 290.834331 
L 324.079357 254.857062 
L 324.487241 264.811594 
L 324.895124 291.545035 
L 325.317073 238.606319 
L 325.724957 256.954814 
L 326.132841 219.623169 
L 326.540724 269.474478 
L 326.962673 269.533139 
L 327.370557 283.566819 
L 327.77844 277.703892 
L 328.200389 274.809291 
L 328.608273 288.396353 
L 329.016156 290.332006 
L 329.42404 290.322776 
L 329.845989 289.992213 
L 330.253872 291.173546 
L 330.661756 266.901737 
L 331.06964 261.632851 
L 331.491588 280.052716 
L 331.899472 250.501832 
L 332.307356 268.917574 
L 332.71524 273.980688 
L 333.137188 281.536044 
L 333.545072 276.039114 
L 333.952956 238.096319 
L 334.360839 270.835713 
L 335.190672 290.787495 
L 335.598555 292.163937 
L 336.020504 270.350563 
L 336.428388 255.045171 
L 337.244155 276.580649 
L 337.666104 287.43597 
L 338.073988 289.973946 
L 338.481871 288.958054 
L 338.889755 261.277257 
L 339.311704 241.866237 
L 339.719587 275.694809 
L 340.127471 281.72716 
L 340.535355 292.115162 
L 340.957303 292.193237 
L 341.365187 285.94108 
L 341.773071 243.482586 
L 342.180954 290.037926 
L 342.602903 283.952038 
L 343.010787 239.966746 
L 343.418671 268.711747 
L 343.826554 282.488436 
L 344.248503 291.621761 
L 344.656387 276.320799 
L 345.06427 238.511274 
L 345.472154 282.517513 
L 345.894103 285.780007 
L 346.301986 292.596317 
L 346.70987 282.343439 
L 347.131819 245.840923 
L 347.539702 282.091227 
L 347.947586 290.332006 
L 348.35547 290.787495 
L 348.777419 281.353054 
L 349.185302 251.081708 
L 349.593186 283.409506 
L 350.00107 282.401361 
L 350.423018 291.775755 
L 350.830902 289.601697 
L 351.238786 275.967581 
L 351.646669 293.306283 
L 352.068618 191.873015 
L 352.884385 285.500021 
L 353.292269 291.354002 
L 353.714218 291.766109 
L 354.122102 292.60621 
L 354.529985 270.632693 
L 354.937869 256.458659 
L 355.359818 268.069147 
L 355.767701 267.733981 
L 356.175585 282.927319 
L 357.005417 293.245687 
L 357.413301 274.375349 
L 357.821185 238.854736 
L 358.229068 282.069699 
L 358.651017 290.42445 
L 359.058901 291.060084 
L 359.466785 286.651111 
L 359.874668 250.256421 
L 360.296617 287.605415 
L 360.704501 287.989902 
L 361.112384 251.026037 
L 361.520268 278.095501 
L 361.942217 285.301486 
L 362.757984 292.754972 
L 363.179933 293.356865 
L 363.587816 272.165705 
L 363.9957 272.878594 
L 364.403584 281.261941 
L 364.825533 264.115839 
L 365.233416 274.665912 
L 365.6413 275.624023 
L 366.049184 287.784281 
L 366.471132 268.393597 
L 366.879016 235.728682 
L 367.2869 271.245565 
L 368.116732 290.909409 
L 368.524616 288.509672 
L 368.932499 262.191178 
L 369.340383 267.655343 
L 369.762332 242.460385 
L 370.170216 286.841421 
L 370.578099 289.919206 
L 371.407932 248.665713 
L 371.815815 256.808495 
L 372.223699 291.795056 
L 372.631583 293.356865 
L 373.053531 294.343504 
L 373.869299 285.965309 
L 374.277182 251.081708 
L 374.699131 232.827187 
L 375.107015 255.045171 
L 375.514899 290.175447 
L 376.344731 294.208144 
L 376.752615 293.155003 
L 377.160498 286.111063 
L 377.582447 248.95162 
L 378.398214 285.57179 
L 378.806098 282.978908 
L 379.228047 288.623384 
L 379.63593 291.373055 
L 380.043814 289.728331 
L 380.451698 188.159797 
L 380.873647 248.899451 
L 381.28153 279.74389 
L 381.689414 292.428584 
L 382.097298 291.449379 
L 382.519246 293.397387 
L 382.92713 273.891143 
L 383.335014 239.008549 
L 383.742897 280.066209 
L 384.164846 285.19083 
L 384.57273 287.54601 
L 384.980613 250.175024 
L 385.402562 281.955121 
L 385.810446 291.631365 
L 386.21833 290.028778 
L 386.626213 284.411113 
L 387.048162 246.585276 
L 387.456046 283.008423 
L 387.863929 280.72052 
L 388.271813 288.413761 
L 388.693762 290.731379 
L 389.101645 273.812992 
L 389.509529 281.869449 
L 389.917413 277.710171 
L 390.339361 290.526441 
L 390.747245 281.212984 
L 391.155129 262.29301 
L 391.563013 261.33816 
L 391.984961 279.583912 
L 392.392845 284.884529 
L 392.800729 295.092808 
L 393.208612 287.741605 
L 393.630561 295.253328 
L 394.446328 224.13229 
L 394.854212 266.569306 
L 395.276161 273.243682 
L 395.684044 290.480042 
L 396.091928 291.468488 
L 396.513877 293.990661 
L 396.92176 294.636961 
L 397.329644 294.869392 
L 397.737528 295.49019 
L 398.159477 295.221161 
L 398.56736 274.205626 
L 398.975244 285.651717 
L 399.383128 280.039228 
L 399.805076 267.242137 
L 400.21296 275.730259 
L 400.620844 281.143174 
L 401.028727 292.261705 
L 401.450676 296.344046 
L 401.85856 258.101148 
L 402.266444 262.584581 
L 402.674327 288.772682 
L 403.096276 294.301795 
L 403.912043 296.555451 
L 404.319927 296.734541 
L 404.741876 264.773491 
L 405.149759 279.115166 
L 405.557643 289.394711 
L 405.965527 290.563607 
L 406.387475 296.510832 
L 406.795359 297.072996 
L 407.203243 294.37482 
L 407.611127 283.762639 
L 408.033075 245.959842 
L 408.440959 283.619425 
L 408.848843 285.356955 
L 409.270791 294.954323 
L 409.678675 296.145018 
L 410.086559 293.387252 
L 410.494442 228.708744 
L 410.916391 244.629098 
L 411.324275 286.93283 
L 411.732158 295.630963 
L 412.140042 295.146227 
L 412.561991 288.605864 
L 412.969874 277.298299 
L 413.377758 281.26894 
L 413.785642 254.237722 
L 414.207591 234.597659 
L 414.615474 253.87166 
L 415.023358 290.853085 
L 415.431242 296.122978 
L 415.85319 297.3463 
L 416.261074 297.369179 
L 416.668958 255.139632 
L 417.076841 286.552256 
L 417.49879 291.853025 
L 417.906674 291.631365 
L 418.314557 297.51828 
L 418.722441 298.297676 
L 419.14439 297.380624 
L 419.552274 280.221785 
L 419.960157 245.959842 
L 420.368041 237.227049 
L 420.78999 258.601981 
L 421.197873 291.420737 
L 421.605757 296.892052 
L 422.013641 298.215374 
L 422.435589 298.593312 
L 422.843473 276.057022 
L 423.251357 290.909409 
L 423.659241 292.715236 
L 424.081189 297.633438 
L 424.489073 292.448273 
L 424.896957 251.899746 
L 425.30484 249.451414 
L 425.726789 280.466788 
L 426.134673 283.327405 
L 426.542556 297.072996 
L 426.964505 298.915624 
L 427.372389 293.205352 
L 428.188156 285.404574 
L 428.610105 296.99371 
L 429.017988 297.958047 
L 429.425872 241.803213 
L 429.833756 249.95895 
L 430.255705 291.80471 
L 430.663588 298.109859 
L 431.071472 298.771982 
L 431.479356 292.834588 
L 431.901304 296.700887 
L 432.309188 226.190462 
L 432.717072 281.769782 
L 433.124955 296.410658 
L 433.546904 299.132274 
L 433.954788 299.840276 
L 434.362671 299.926769 
L 434.770555 256.692569 
L 435.192504 264.550002 
L 436.008271 295.641817 
L 436.416155 298.522116 
L 436.838104 298.297676 
L 437.245987 290.028778 
L 437.653871 298.819793 
L 438.061755 209.840114 
L 438.483703 269.778697 
L 438.891587 291.631365 
L 439.299471 286.783383 
L 439.707354 297.644976 
L 440.129303 278.556227 
L 440.537187 239.513488 
L 440.945071 262.707501 
L 441.352954 293.296176 
L 441.774903 299.386856 
L 442.182787 300.728329 
L 442.59067 298.344799 
L 442.998554 251.899746 
L 443.420503 272.630272 
L 443.828386 276.212633 
L 444.23627 296.388439 
L 444.644154 299.606655 
L 445.066102 299.132274 
L 445.473986 288.869651 
L 445.88187 290.480042 
L 446.303819 260.547675 
L 447.119586 287.588431 
L 447.52747 288.492213 
L 447.949418 291.87237 
L 448.357302 260.83531 
L 448.765186 282.452127 
L 449.173069 283.41698 
L 449.595018 296.078943 
L 450.002902 297.152475 
L 450.410785 299.399028 
L 450.818669 287.301042 
L 451.240618 236.291438 
L 451.648502 280.08646 
L 452.056385 292.546895 
L 452.464269 292.675548 
L 452.886218 287.750136 
L 453.294101 240.105948 
L 453.701985 263.666894 
L 454.123934 297.633438 
L 454.531817 298.063073 
L 454.939701 295.728777 
L 455.347585 283.830697 
L 455.769533 244.152136 
L 456.177417 274.511764 
L 456.585301 291.554616 
L 456.993185 287.596922 
L 457.415133 296.880776 
L 457.823017 294.145859 
L 458.230901 277.911746 
L 458.638784 241.282672 
L 459.060733 287.741605 
L 459.468617 301.368485 
L 459.8765 304.048009 
L 460.284384 257.863853 
L 460.706333 260.038409 
L 461.114216 299.472158 
L 461.5221 302.312856 
L 461.929984 301.929204 
L 462.351933 304.42905 
L 462.759816 256.619911 
L 463.1677 289.020078 
L 463.575584 295.071464 
L 463.997532 297.923114 
L 464.405416 281.627923 
L 464.8133 240.386139 
L 465.221183 278.184581 
L 465.643132 286.949478 
L 466.051016 302.166803 
L 466.458899 302.876577 
L 466.866783 305.016278 
L 467.288732 261.675167 
L 467.696616 283.883728 
L 468.104499 283.529295 
L 468.343603 286.708914 
L 468.343603 286.708914 
" clip-path="url(#p0bbcd22a65)" style="fill: none; stroke: #d62728; stroke-linecap: square"/>
   </g>
   <g id="patch_3">
    <path d="M 46.29649 322.70927 
L 46.29649 20.657865 
" style="fill: none; stroke: #000000; stroke-width: 0.8; stroke-linejoin: miter; stroke-linecap: square"/>
   </g>
   <g id="patch_4">
    <path d="M 468.245149 322.70927 
L 468.245149 20.657865 
" style="fill: none; stroke: #000000; stroke-width: 0.8; stroke-linejoin: miter; stroke-linecap: square"/>
   </g>
   <g id="patch_5">
    <path d="M 46.29649 322.70927 
L 468.245149 322.70927 
" style="fill: none; stroke: #000000; stroke-width: 0.8; stroke-linejoin: miter; stroke-linecap: square"/>
   </g>
   <g id="patch_6">
    <path d="M 46.29649 20.657865 
L 468.245149 20.657865 
" style="fill: none; stroke: #000000; stroke-width: 0.8; stroke-linejoin: miter; stroke-linecap: square"/>
   </g>
   <g id="text_14">
    <!-- lr = 0.1 -->
    <g transform="translate(232.703444 14.657865) scale(0.168 -0.168)">
     <defs>
      <path id="LiberationSerif-6c" d="M 1147 219 
L 1650 141 
L 1650 0 
L 128 0 
L 128 141 
L 628 219 
L 628 4225 
L 128 4300 
L 128 4441 
L 1147 4441 
L 1147 219 
z
" transform="scale(0.015625)"/>
      <path id="LiberationSerif-72" d="M 2075 3016 
L 2075 2222 
L 1941 2222 
L 1759 2566 
Q 1603 2566 1389 2523 
Q 1175 2481 1019 2413 
L 1019 219 
L 1522 141 
L 1522 0 
L 128 0 
L 128 141 
L 500 219 
L 500 2719 
L 128 2797 
L 128 2938 
L 984 2938 
L 1013 2572 
Q 1200 2728 1520 2872 
Q 1841 3016 2028 3016 
L 2075 3016 
z
" transform="scale(0.015625)"/>
      <path id="LiberationSerif-3d" d="M 3297 1644 
L 3297 1325 
L 319 1325 
L 319 1644 
L 3297 1644 
z
M 3297 2925 
L 3297 2606 
L 319 2606 
L 319 2925 
L 3297 2925 
z
" transform="scale(0.015625)"/>
      <path id="LiberationSerif-30" d="M 2956 2113 
Q 2956 -63 1581 -63 
Q 919 -63 581 493 
Q 244 1050 244 2113 
Q 244 3153 581 3704 
Q 919 4256 1606 4256 
Q 2269 4256 2612 3711 
Q 2956 3166 2956 2113 
z
M 2381 2113 
Q 2381 3119 2190 3562 
Q 2000 4006 1581 4006 
Q 1175 4006 997 3587 
Q 819 3169 819 2113 
Q 819 1050 1000 617 
Q 1181 184 1581 184 
Q 1994 184 2187 639 
Q 2381 1094 2381 2113 
z
" transform="scale(0.015625)"/>
      <path id="LiberationSerif-2e" d="M 1178 288 
Q 1178 134 1070 21 
Q 963 -91 800 -91 
Q 638 -91 530 21 
Q 422 134 422 288 
Q 422 447 531 556 
Q 641 666 800 666 
Q 959 666 1068 556 
Q 1178 447 1178 288 
z
" transform="scale(0.015625)"/>
      <path id="LiberationSerif-31" d="M 1959 250 
L 2816 166 
L 2816 0 
L 563 0 
L 563 166 
L 1422 250 
L 1422 3669 
L 575 3366 
L 575 3531 
L 1797 4225 
L 1959 4225 
L 1959 250 
z
" transform="scale(0.015625)"/>
     </defs>
     <use xlink:href="#LiberationSerif-6c"/>
     <use xlink:href="#LiberationSerif-72" x="27.783203"/>
     <use xlink:href="#LiberationSerif-20" x="61.083984"/>
     <use xlink:href="#LiberationSerif-3d" x="86.083984"/>
     <use xlink:href="#LiberationSerif-20" x="142.480469"/>
     <use xlink:href="#LiberationSerif-30" x="167.480469"/>
     <use xlink:href="#LiberationSerif-2e" x="217.480469"/>
     <use xlink:href="#LiberationSerif-31" x="242.480469"/>
    </g>
   </g>
   <g id="legend_1">
    <g id="patch_7">
     <path d="M 334.825149 111.377865 
L 458.445149 111.377865 
Q 461.245149 111.377865 461.245149 108.577865 
L 461.245149 30.457865 
Q 461.245149 27.657865 458.445149 27.657865 
L 334.825149 27.657865 
Q 332.025149 27.657865 332.025149 30.457865 
L 332.025149 108.577865 
Q 332.025149 111.377865 334.825149 111.377865 
z
" style="fill: #ffffff; opacity: 0.8; stroke: #cccccc; stroke-linejoin: miter"/>
    </g>
    <g id="line2d_48">
     <path d="M 337.625149 38.157865 
L 351.625149 38.157865 
L 365.625149 38.157865 
" style="fill: none; stroke: #1f77b4; stroke-linecap: square"/>
    </g>
    <g id="text_15">
     <!-- $\mathdefault{|N_{batch}| = 64}$ -->
     <g transform="translate(376.825149 43.057865) scale(0.14 -0.14)">
      <defs>
       <path id="LiberationSerif-7c" d="M 481 -1381 
L 481 4441 
L 800 4441 
L 800 -1381 
L 481 -1381 
z
" transform="scale(0.015625)"/>
       <path id="LiberationSerif-4e" d="M 3609 3944 
L 3047 4025 
L 3047 4191 
L 4475 4191 
L 4475 4025 
L 3938 3944 
L 3938 0 
L 3634 0 
L 1050 3769 
L 1050 250 
L 1613 166 
L 1613 0 
L 184 0 
L 184 166 
L 722 250 
L 722 3944 
L 184 4025 
L 184 4191 
L 1453 4191 
L 3609 1088 
L 3609 3944 
z
" transform="scale(0.015625)"/>
       <path id="LiberationSerif-62" d="M 2394 1550 
Q 2394 2125 2194 2406 
Q 1994 2688 1575 2688 
Q 1391 2688 1209 2655 
Q 1028 2622 947 2584 
L 947 256 
Q 1209 206 1575 206 
Q 2006 206 2200 543 
Q 2394 881 2394 1550 
z
M 428 4225 
L 0 4300 
L 0 4441 
L 947 4441 
L 947 3391 
Q 947 3222 928 2772 
Q 1241 3016 1716 3016 
Q 2316 3016 2636 2652 
Q 2956 2288 2956 1550 
Q 2956 759 2604 348 
Q 2253 -63 1588 -63 
Q 1319 -63 995 -3 
Q 672 56 428 153 
L 428 4225 
z
" transform="scale(0.015625)"/>
       <path id="LiberationSerif-61" d="M 1453 3003 
Q 1934 3003 2161 2806 
Q 2388 2609 2388 2203 
L 2388 219 
L 2753 141 
L 2753 0 
L 1947 0 
L 1888 294 
Q 1531 -63 978 -63 
Q 225 -63 225 813 
Q 225 1106 339 1298 
Q 453 1491 703 1592 
Q 953 1694 1428 1703 
L 1869 1716 
L 1869 2175 
Q 1869 2478 1758 2622 
Q 1647 2766 1416 2766 
Q 1103 2766 844 2619 
L 738 2253 
L 563 2253 
L 563 2894 
Q 1069 3003 1453 3003 
z
M 1869 1497 
L 1459 1484 
Q 1041 1469 892 1322 
Q 744 1175 744 831 
Q 744 281 1191 281 
Q 1403 281 1558 329 
Q 1713 378 1869 453 
L 1869 1497 
z
" transform="scale(0.015625)"/>
       <path id="LiberationSerif-68" d="M 1019 3169 
Q 1019 2844 997 2700 
Q 1222 2828 1508 2922 
Q 1794 3016 1991 3016 
Q 2372 3016 2565 2794 
Q 2759 2572 2759 2150 
L 2759 219 
L 3116 141 
L 3116 0 
L 1850 0 
L 1850 141 
L 2241 219 
L 2241 2113 
Q 2241 2650 1722 2650 
Q 1428 2650 1019 2559 
L 1019 219 
L 1416 141 
L 1416 0 
L 128 0 
L 128 141 
L 500 219 
L 500 4225 
L 63 4300 
L 63 4441 
L 1019 4441 
L 1019 3169 
z
" transform="scale(0.015625)"/>
       <path id="LiberationSerif-36" d="M 3009 1300 
Q 3009 647 2679 292 
Q 2350 -63 1728 -63 
Q 1022 -63 648 487 
Q 275 1038 275 2069 
Q 275 2744 472 3234 
Q 669 3725 1023 3981 
Q 1378 4238 1844 4238 
Q 2300 4238 2753 4128 
L 2753 3406 
L 2547 3406 
L 2438 3834 
Q 2334 3891 2159 3933 
Q 1984 3975 1844 3975 
Q 1388 3975 1133 3533 
Q 878 3091 853 2241 
Q 1363 2509 1875 2509 
Q 2428 2509 2718 2198 
Q 3009 1888 3009 1300 
z
M 1716 184 
Q 2094 184 2262 429 
Q 2431 675 2431 1241 
Q 2431 1753 2270 1981 
Q 2109 2209 1759 2209 
Q 1331 2209 850 2053 
Q 850 1100 1065 642 
Q 1281 184 1716 184 
z
" transform="scale(0.015625)"/>
       <path id="LiberationSerif-34" d="M 2531 922 
L 2531 0 
L 1994 0 
L 1994 922 
L 125 922 
L 125 1338 
L 2172 4213 
L 2531 4213 
L 2531 1369 
L 3100 1369 
L 3100 922 
L 2531 922 
z
M 1994 3478 
L 1978 3478 
L 478 1369 
L 1994 1369 
L 1994 3478 
z
" transform="scale(0.015625)"/>
      </defs>
      <use xlink:href="#LiberationSerif-7c" transform="translate(0 0.609375)"/>
      <use xlink:href="#LiberationSerif-4e" transform="translate(20.019531 0.609375)"/>
      <use xlink:href="#LiberationSerif-62" transform="translate(93.039687 -13.1625) scale(0.7)"/>
      <use xlink:href="#LiberationSerif-61" transform="translate(128.039687 -13.1625) scale(0.7)"/>
      <use xlink:href="#LiberationSerif-74" transform="translate(159.109023 -13.1625) scale(0.7)"/>
      <use xlink:href="#LiberationSerif-63" transform="translate(178.557266 -13.1625) scale(0.7)"/>
      <use xlink:href="#LiberationSerif-68" transform="translate(209.626602 -13.1625) scale(0.7)"/>
      <use xlink:href="#LiberationSerif-7c" transform="translate(246.921914 0.609375)"/>
      <use xlink:href="#LiberationSerif-3d" transform="translate(286.423867 0.609375)"/>
      <use xlink:href="#LiberationSerif-36" transform="translate(362.302773 0.609375)"/>
      <use xlink:href="#LiberationSerif-34" transform="translate(412.302773 0.609375)"/>
     </g>
    </g>
    <g id="line2d_49">
     <path d="M 337.625149 58.037865 
L 351.625149 58.037865 
L 365.625149 58.037865 
" style="fill: none; stroke: #ff7f0e; stroke-linecap: square"/>
    </g>
    <g id="text_16">
     <!-- $\mathdefault{|N_{batch}| = 256}$ -->
     <g transform="translate(376.825149 62.937865) scale(0.14 -0.14)">
      <defs>
       <path id="LiberationSerif-32" d="M 2847 0 
L 281 0 
L 281 459 
L 863 988 
Q 1422 1478 1684 1781 
Q 1947 2084 2061 2406 
Q 2175 2728 2175 3144 
Q 2175 3550 1990 3762 
Q 1806 3975 1388 3975 
Q 1222 3975 1047 3929 
Q 872 3884 738 3809 
L 628 3297 
L 422 3297 
L 422 4103 
Q 991 4238 1388 4238 
Q 2075 4238 2420 3952 
Q 2766 3666 2766 3144 
Q 2766 2794 2630 2483 
Q 2494 2172 2212 1864 
Q 1931 1556 1281 1003 
Q 1003 766 691 481 
L 2847 481 
L 2847 0 
z
" transform="scale(0.015625)"/>
       <path id="LiberationSerif-35" d="M 1516 2450 
Q 2241 2450 2595 2153 
Q 2950 1856 2950 1247 
Q 2950 616 2565 276 
Q 2181 -63 1466 -63 
Q 872 -63 406 72 
L 372 953 
L 578 953 
L 719 366 
Q 856 291 1048 244 
Q 1241 197 1416 197 
Q 1909 197 2142 430 
Q 2375 663 2375 1216 
Q 2375 1603 2275 1801 
Q 2175 2000 1956 2094 
Q 1738 2188 1369 2188 
Q 1084 2188 813 2113 
L 513 2113 
L 513 4191 
L 2638 4191 
L 2638 3713 
L 794 3713 
L 794 2375 
Q 1131 2450 1516 2450 
z
" transform="scale(0.015625)"/>
      </defs>
      <use xlink:href="#LiberationSerif-7c" transform="translate(0 0.609375)"/>
      <use xlink:href="#LiberationSerif-4e" transform="translate(20.019531 0.609375)"/>
      <use xlink:href="#LiberationSerif-62" transform="translate(93.039687 -13.1625) scale(0.7)"/>
      <use xlink:href="#LiberationSerif-61" transform="translate(128.039687 -13.1625) scale(0.7)"/>
      <use xlink:href="#LiberationSerif-74" transform="translate(159.109023 -13.1625) scale(0.7)"/>
      <use xlink:href="#LiberationSerif-63" transform="translate(178.557266 -13.1625) scale(0.7)"/>
      <use xlink:href="#LiberationSerif-68" transform="translate(209.626602 -13.1625) scale(0.7)"/>
      <use xlink:href="#LiberationSerif-7c" transform="translate(246.921914 0.609375)"/>
      <use xlink:href="#LiberationSerif-3d" transform="translate(286.423867 0.609375)"/>
      <use xlink:href="#LiberationSerif-32" transform="translate(362.302773 0.609375)"/>
      <use xlink:href="#LiberationSerif-35" transform="translate(412.302773 0.609375)"/>
      <use xlink:href="#LiberationSerif-36" transform="translate(462.302773 0.609375)"/>
     </g>
    </g>
    <g id="line2d_50">
     <path d="M 337.625149 77.917865 
L 351.625149 77.917865 
L 365.625149 77.917865 
" style="fill: none; stroke: #2ca02c; stroke-linecap: square"/>
    </g>
    <g id="text_17">
     <!-- $\mathdefault{|N_{batch}| = 2048}$ -->
     <g transform="translate(376.825149 82.817865) scale(0.14 -0.14)">
      <defs>
       <path id="LiberationSerif-38" d="M 2828 3169 
Q 2828 2825 2661 2586 
Q 2494 2347 2209 2222 
Q 2566 2091 2761 1811 
Q 2956 1531 2956 1131 
Q 2956 538 2622 237 
Q 2288 -63 1581 -63 
Q 244 -63 244 1131 
Q 244 1547 444 1820 
Q 644 2094 984 2222 
Q 713 2347 542 2584 
Q 372 2822 372 3169 
Q 372 3688 689 3972 
Q 1006 4256 1606 4256 
Q 2188 4256 2508 3973 
Q 2828 3691 2828 3169 
z
M 2394 1131 
Q 2394 1631 2198 1856 
Q 2003 2081 1581 2081 
Q 1169 2081 987 1867 
Q 806 1653 806 1131 
Q 806 603 990 393 
Q 1175 184 1581 184 
Q 1997 184 2195 401 
Q 2394 619 2394 1131 
z
M 2266 3169 
Q 2266 3600 2097 3803 
Q 1928 4006 1588 4006 
Q 1256 4006 1095 3809 
Q 934 3613 934 3169 
Q 934 2734 1090 2545 
Q 1247 2356 1588 2356 
Q 1938 2356 2102 2548 
Q 2266 2741 2266 3169 
z
" transform="scale(0.015625)"/>
      </defs>
      <use xlink:href="#LiberationSerif-7c" transform="translate(0 0.609375)"/>
      <use xlink:href="#LiberationSerif-4e" transform="translate(20.019531 0.609375)"/>
      <use xlink:href="#LiberationSerif-62" transform="translate(93.039687 -13.1625) scale(0.7)"/>
      <use xlink:href="#LiberationSerif-61" transform="translate(128.039687 -13.1625) scale(0.7)"/>
      <use xlink:href="#LiberationSerif-74" transform="translate(159.109023 -13.1625) scale(0.7)"/>
      <use xlink:href="#LiberationSerif-63" transform="translate(178.557266 -13.1625) scale(0.7)"/>
      <use xlink:href="#LiberationSerif-68" transform="translate(209.626602 -13.1625) scale(0.7)"/>
      <use xlink:href="#LiberationSerif-7c" transform="translate(246.921914 0.609375)"/>
      <use xlink:href="#LiberationSerif-3d" transform="translate(286.423867 0.609375)"/>
      <use xlink:href="#LiberationSerif-32" transform="translate(362.302773 0.609375)"/>
      <use xlink:href="#LiberationSerif-30" transform="translate(412.302773 0.609375)"/>
      <use xlink:href="#LiberationSerif-34" transform="translate(462.302773 0.609375)"/>
      <use xlink:href="#LiberationSerif-38" transform="translate(512.302773 0.609375)"/>
     </g>
    </g>
    <g id="line2d_51">
     <path d="M 337.625149 97.797865 
L 351.625149 97.797865 
L 365.625149 97.797865 
" style="fill: none; stroke: #d62728; stroke-linecap: square"/>
    </g>
    <g id="text_18">
     <!-- $\mathdefault{|N_{batch}| = 4096}$ -->
     <g transform="translate(376.825149 102.697865) scale(0.14 -0.14)">
      <defs>
       <path id="LiberationSerif-39" d="M 206 2913 
Q 206 3544 559 3891 
Q 913 4238 1556 4238 
Q 2272 4238 2605 3722 
Q 2938 3206 2938 2106 
Q 2938 1053 2509 495 
Q 2081 -63 1306 -63 
Q 797 -63 372 44 
L 372 769 
L 575 769 
L 684 319 
Q 784 272 953 234 
Q 1122 197 1294 197 
Q 1794 197 2062 636 
Q 2331 1075 2359 1928 
Q 1884 1663 1394 1663 
Q 841 1663 523 1992 
Q 206 2322 206 2913 
z
M 1563 3988 
Q 781 3988 781 2900 
Q 781 2422 968 2194 
Q 1156 1966 1550 1966 
Q 1953 1966 2363 2131 
Q 2363 3091 2173 3539 
Q 1984 3988 1563 3988 
z
" transform="scale(0.015625)"/>
      </defs>
      <use xlink:href="#LiberationSerif-7c" transform="translate(0 0.609375)"/>
      <use xlink:href="#LiberationSerif-4e" transform="translate(20.019531 0.609375)"/>
      <use xlink:href="#LiberationSerif-62" transform="translate(93.039687 -13.1625) scale(0.7)"/>
      <use xlink:href="#LiberationSerif-61" transform="translate(128.039687 -13.1625) scale(0.7)"/>
      <use xlink:href="#LiberationSerif-74" transform="translate(159.109023 -13.1625) scale(0.7)"/>
      <use xlink:href="#LiberationSerif-63" transform="translate(178.557266 -13.1625) scale(0.7)"/>
      <use xlink:href="#LiberationSerif-68" transform="translate(209.626602 -13.1625) scale(0.7)"/>
      <use xlink:href="#LiberationSerif-7c" transform="translate(246.921914 0.609375)"/>
      <use xlink:href="#LiberationSerif-3d" transform="translate(286.423867 0.609375)"/>
      <use xlink:href="#LiberationSerif-34" transform="translate(362.302773 0.609375)"/>
      <use xlink:href="#LiberationSerif-30" transform="translate(412.302773 0.609375)"/>
      <use xlink:href="#LiberationSerif-39" transform="translate(462.302773 0.609375)"/>
      <use xlink:href="#LiberationSerif-36" transform="translate(512.302773 0.609375)"/>
     </g>
    </g>
   </g>
  </g>
 </g>
 <defs>
  <clipPath id="p0bbcd22a65">
   <rect x="46.29649" y="20.657865" width="421.948659" height="302.051405"/>
  </clipPath>
 </defs>
</svg>
