<?xml version="1.0" encoding="utf-8" standalone="no"?>
<!DOCTYPE svg PUBLIC "-//W3C//DTD SVG 1.1//EN"
  "http://www.w3.org/Graphics/SVG/1.1/DTD/svg11.dtd">
<svg xmlns:xlink="http://www.w3.org/1999/xlink" width="481.889764pt" height="192.755906pt" viewBox="0 0 481.889764 192.755906" xmlns="http://www.w3.org/2000/svg" version="1.1">
 <metadata>
  <rdf:RDF xmlns:dc="http://purl.org/dc/elements/1.1/" xmlns:cc="http://creativecommons.org/ns#" xmlns:rdf="http://www.w3.org/1999/02/22-rdf-syntax-ns#">
   <cc:Work>
    <dc:type rdf:resource="http://purl.org/dc/dcmitype/StillImage"/>
    <dc:date>2023-06-01T00:14:55.666330</dc:date>
    <dc:format>image/svg+xml</dc:format>
    <dc:creator>
     <cc:Agent>
      <dc:title>Matplotlib v3.7.1, https://matplotlib.org/</dc:title>
     </cc:Agent>
    </dc:creator>
   </cc:Work>
  </rdf:RDF>
 </metadata>
 <defs>
  <style type="text/css">*{stroke-linejoin: round; stroke-linecap: butt}</style>
 </defs>
 <g id="figure_1">
  <g id="patch_1">
   <path d="M 0 192.755906 
L 481.889764 192.755906 
L 481.889764 0 
L 0 0 
z
" style="fill: #ffffff"/>
  </g>
  <g id="axes_1">
   <g id="patch_2">
    <path d="M 40.56899 161.107228 
L 232.875892 161.107228 
L 232.875892 23.330311 
L 40.56899 23.330311 
z
" style="fill: #ffffff"/>
   </g>
   <g id="matplotlib.axis_1">
    <g id="xtick_1">
     <g id="line2d_1">
      <defs>
       <path id="mc8fab9345c" d="M 0 0 
L 0 3.5 
" style="stroke: #000000; stroke-width: 0.8"/>
      </defs>
      <g>
       <use xlink:href="#mc8fab9345c" x="40.56899" y="161.107228" style="stroke: #000000; stroke-width: 0.8"/>
      </g>
     </g>
     <g id="text_1">
      <!-- 0 -->
      <g transform="translate(38.034615 174.908791) scale(0.1 -0.1)">
       <defs>
        <path id="Calibri-30" d="M 3022 2031 
Q 3022 1566 2948 1181 
Q 2875 797 2704 520 
Q 2534 244 2259 92 
Q 1984 -59 1581 -59 
Q 1200 -59 939 77 
Q 678 213 518 477 
Q 359 741 292 1127 
Q 225 1513 225 2013 
Q 225 2475 300 2861 
Q 375 3247 544 3523 
Q 713 3800 988 3951 
Q 1263 4103 1663 4103 
Q 2047 4103 2308 3967 
Q 2569 3831 2728 3567 
Q 2888 3303 2955 2917 
Q 3022 2531 3022 2031 
z
M 2472 1994 
Q 2472 2297 2450 2537 
Q 2428 2778 2386 2962 
Q 2344 3147 2276 3280 
Q 2209 3413 2115 3498 
Q 2022 3584 1901 3623 
Q 1781 3663 1631 3663 
Q 1366 3663 1200 3538 
Q 1034 3413 939 3194 
Q 844 2975 809 2681 
Q 775 2388 775 2050 
Q 775 1597 822 1280 
Q 869 963 970 763 
Q 1072 563 1230 472 
Q 1388 381 1613 381 
Q 1788 381 1920 437 
Q 2053 494 2148 598 
Q 2244 703 2306 850 
Q 2369 997 2406 1175 
Q 2444 1353 2458 1561 
Q 2472 1769 2472 1994 
z
" transform="scale(0.015625)"/>
       </defs>
       <use xlink:href="#Calibri-30"/>
      </g>
     </g>
    </g>
    <g id="xtick_2">
     <g id="line2d_2">
      <g>
       <use xlink:href="#mc8fab9345c" x="72.62014" y="161.107228" style="stroke: #000000; stroke-width: 0.8"/>
      </g>
     </g>
     <g id="text_2">
      <!-- 5 -->
      <g transform="translate(70.085765 174.908791) scale(0.1 -0.1)">
       <defs>
        <path id="Calibri-35" d="M 2869 1300 
Q 2869 975 2759 722 
Q 2650 469 2450 295 
Q 2250 122 1973 31 
Q 1697 -59 1359 -59 
Q 1172 -59 1003 -32 
Q 834 -6 703 33 
Q 572 72 487 109 
Q 403 147 379 169 
Q 356 191 347 209 
Q 338 228 330 254 
Q 322 281 319 322 
Q 316 363 316 419 
Q 316 472 320 514 
Q 325 556 337 582 
Q 350 609 367 621 
Q 384 634 406 634 
Q 438 634 503 595 
Q 569 556 680 511 
Q 791 466 955 425 
Q 1119 384 1344 384 
Q 1553 384 1728 434 
Q 1903 484 2029 590 
Q 2156 697 2228 858 
Q 2300 1019 2300 1250 
Q 2300 1444 2239 1592 
Q 2178 1741 2051 1839 
Q 1925 1938 1731 1986 
Q 1538 2034 1269 2034 
Q 1078 2034 940 2015 
Q 803 1997 684 1997 
Q 597 1997 559 2037 
Q 522 2078 522 2194 
L 522 3841 
Q 522 3944 570 3994 
Q 619 4044 709 4044 
L 2500 4044 
Q 2525 4044 2548 4030 
Q 2572 4016 2587 3987 
Q 2603 3959 2611 3915 
Q 2619 3872 2619 3813 
Q 2619 3700 2587 3637 
Q 2556 3575 2500 3575 
L 991 3575 
L 991 2441 
Q 1100 2456 1214 2459 
Q 1328 2463 1478 2463 
Q 1825 2463 2084 2380 
Q 2344 2297 2517 2145 
Q 2691 1994 2780 1778 
Q 2869 1563 2869 1300 
z
" transform="scale(0.015625)"/>
       </defs>
       <use xlink:href="#Calibri-35"/>
      </g>
     </g>
    </g>
    <g id="xtick_3">
     <g id="line2d_3">
      <g>
       <use xlink:href="#mc8fab9345c" x="104.671291" y="161.107228" style="stroke: #000000; stroke-width: 0.8"/>
      </g>
     </g>
     <g id="text_3">
      <!-- 10 -->
      <g transform="translate(99.602541 174.908791) scale(0.1 -0.1)">
       <defs>
        <path id="Calibri-31" d="M 2897 213 
Q 2897 153 2887 112 
Q 2878 72 2862 47 
Q 2847 22 2826 11 
Q 2806 0 2784 0 
L 672 0 
Q 650 0 631 11 
Q 613 22 595 47 
Q 578 72 568 112 
Q 559 153 559 213 
Q 559 269 568 309 
Q 578 350 592 376 
Q 606 403 626 417 
Q 647 431 672 431 
L 1516 431 
L 1516 3506 
L 734 3041 
Q 675 3009 639 3003 
Q 603 2997 581 3017 
Q 559 3038 551 3084 
Q 544 3131 544 3203 
Q 544 3256 548 3293 
Q 553 3331 562 3356 
Q 572 3381 589 3400 
Q 606 3419 634 3438 
L 1566 4034 
Q 1578 4044 1597 4050 
Q 1616 4056 1644 4062 
Q 1672 4069 1709 4070 
Q 1747 4072 1803 4072 
Q 1878 4072 1928 4065 
Q 1978 4059 2006 4048 
Q 2034 4038 2043 4020 
Q 2053 4003 2053 3984 
L 2053 431 
L 2784 431 
Q 2809 431 2831 417 
Q 2853 403 2867 376 
Q 2881 350 2889 309 
Q 2897 269 2897 213 
z
" transform="scale(0.015625)"/>
       </defs>
       <use xlink:href="#Calibri-31"/>
       <use xlink:href="#Calibri-30" x="50.683594"/>
      </g>
     </g>
    </g>
    <g id="xtick_4">
     <g id="line2d_4">
      <g>
       <use xlink:href="#mc8fab9345c" x="136.722441" y="161.107228" style="stroke: #000000; stroke-width: 0.8"/>
      </g>
     </g>
     <g id="text_4">
      <!-- 15 -->
      <g transform="translate(131.653691 174.908791) scale(0.1 -0.1)">
       <use xlink:href="#Calibri-31"/>
       <use xlink:href="#Calibri-35" x="50.683594"/>
      </g>
     </g>
    </g>
    <g id="xtick_5">
     <g id="line2d_5">
      <g>
       <use xlink:href="#mc8fab9345c" x="168.773591" y="161.107228" style="stroke: #000000; stroke-width: 0.8"/>
      </g>
     </g>
     <g id="text_5">
      <!-- 20 -->
      <g transform="translate(163.704841 174.908791) scale(0.1 -0.1)">
       <defs>
        <path id="Calibri-32" d="M 2888 231 
Q 2888 175 2880 131 
Q 2872 88 2858 58 
Q 2844 28 2820 14 
Q 2797 0 2769 0 
L 534 0 
Q 491 0 458 11 
Q 425 22 401 47 
Q 378 72 367 119 
Q 356 166 356 234 
Q 356 297 361 344 
Q 366 391 381 427 
Q 397 463 420 498 
Q 444 534 481 575 
L 1266 1406 
Q 1538 1694 1702 1922 
Q 1866 2150 1955 2337 
Q 2044 2525 2072 2678 
Q 2100 2831 2100 2966 
Q 2100 3100 2056 3220 
Q 2013 3341 1930 3431 
Q 1847 3522 1722 3575 
Q 1597 3628 1434 3628 
Q 1244 3628 1092 3575 
Q 941 3522 827 3459 
Q 713 3397 636 3344 
Q 559 3291 522 3291 
Q 500 3291 483 3303 
Q 466 3316 455 3344 
Q 444 3372 437 3419 
Q 431 3466 431 3531 
Q 431 3578 434 3612 
Q 438 3647 445 3672 
Q 453 3697 465 3719 
Q 478 3741 515 3773 
Q 553 3806 645 3862 
Q 738 3919 877 3973 
Q 1016 4028 1183 4065 
Q 1350 4103 1534 4103 
Q 1828 4103 2048 4020 
Q 2269 3938 2414 3794 
Q 2559 3650 2631 3459 
Q 2703 3269 2703 3053 
Q 2703 2859 2668 2667 
Q 2634 2475 2523 2251 
Q 2413 2028 2203 1754 
Q 1994 1481 1647 1125 
L 1006 456 
L 2766 456 
Q 2791 456 2814 442 
Q 2838 428 2855 400 
Q 2872 372 2880 330 
Q 2888 288 2888 231 
z
" transform="scale(0.015625)"/>
       </defs>
       <use xlink:href="#Calibri-32"/>
       <use xlink:href="#Calibri-30" x="50.683594"/>
      </g>
     </g>
    </g>
    <g id="xtick_6">
     <g id="line2d_6">
      <g>
       <use xlink:href="#mc8fab9345c" x="200.824742" y="161.107228" style="stroke: #000000; stroke-width: 0.8"/>
      </g>
     </g>
     <g id="text_6">
      <!-- 25 -->
      <g transform="translate(195.755992 174.908791) scale(0.1 -0.1)">
       <use xlink:href="#Calibri-32"/>
       <use xlink:href="#Calibri-35" x="50.683594"/>
      </g>
     </g>
    </g>
    <g id="xtick_7">
     <g id="line2d_7">
      <g>
       <use xlink:href="#mc8fab9345c" x="232.875892" y="161.107228" style="stroke: #000000; stroke-width: 0.8"/>
      </g>
     </g>
     <g id="text_7">
      <!-- 30 -->
      <g transform="translate(227.807142 174.908791) scale(0.1 -0.1)">
       <defs>
        <path id="Calibri-33" d="M 2856 1156 
Q 2856 878 2759 654 
Q 2663 431 2481 272 
Q 2300 113 2034 27 
Q 1769 -59 1434 -59 
Q 1231 -59 1054 -26 
Q 878 6 740 51 
Q 603 97 512 145 
Q 422 194 398 216 
Q 375 238 362 259 
Q 350 281 340 312 
Q 331 344 326 389 
Q 322 434 322 500 
Q 322 613 344 656 
Q 366 700 406 700 
Q 434 700 517 650 
Q 600 600 729 542 
Q 859 484 1032 434 
Q 1206 384 1419 384 
Q 1625 384 1781 437 
Q 1938 491 2044 587 
Q 2150 684 2203 817 
Q 2256 950 2256 1106 
Q 2256 1278 2189 1415 
Q 2122 1553 1992 1653 
Q 1863 1753 1673 1806 
Q 1484 1859 1244 1859 
L 859 1859 
Q 834 1859 811 1870 
Q 788 1881 770 1906 
Q 753 1931 742 1972 
Q 731 2013 731 2078 
Q 731 2138 740 2177 
Q 750 2216 767 2239 
Q 784 2263 806 2273 
Q 828 2284 856 2284 
L 1209 2284 
Q 1416 2284 1580 2337 
Q 1744 2391 1858 2491 
Q 1972 2591 2033 2730 
Q 2094 2869 2094 3041 
Q 2094 3166 2053 3280 
Q 2013 3394 1931 3478 
Q 1850 3563 1723 3611 
Q 1597 3659 1431 3659 
Q 1250 3659 1098 3604 
Q 947 3550 828 3487 
Q 709 3425 631 3370 
Q 553 3316 522 3316 
Q 500 3316 483 3323 
Q 466 3331 455 3354 
Q 444 3378 439 3420 
Q 434 3463 434 3531 
Q 434 3578 437 3614 
Q 441 3650 450 3676 
Q 459 3703 471 3725 
Q 484 3747 514 3776 
Q 544 3806 634 3862 
Q 725 3919 858 3973 
Q 991 4028 1164 4065 
Q 1338 4103 1538 4103 
Q 1819 4103 2031 4031 
Q 2244 3959 2386 3828 
Q 2528 3697 2598 3514 
Q 2669 3331 2669 3109 
Q 2669 2919 2619 2755 
Q 2569 2591 2472 2464 
Q 2375 2338 2234 2248 
Q 2094 2159 1909 2125 
L 1909 2119 
Q 2119 2097 2292 2014 
Q 2466 1931 2591 1806 
Q 2716 1681 2786 1514 
Q 2856 1347 2856 1156 
z
" transform="scale(0.015625)"/>
       </defs>
       <use xlink:href="#Calibri-33"/>
       <use xlink:href="#Calibri-30" x="50.683594"/>
      </g>
     </g>
    </g>
    <g id="text_8">
     <!-- time [sec] -->
     <g transform="translate(116.870878 187.625978) scale(0.1 -0.1)">
      <defs>
       <path id="LiberationSerif-74" d="M 1044 -63 
Q 744 -63 595 115 
Q 447 294 447 616 
L 447 2675 
L 63 2675 
L 63 2816 
L 453 2938 
L 769 3603 
L 966 3603 
L 966 2938 
L 1638 2938 
L 1638 2675 
L 966 2675 
L 966 672 
Q 966 469 1058 366 
Q 1150 263 1300 263 
Q 1481 263 1741 313 
L 1741 109 
Q 1631 34 1425 -14 
Q 1219 -63 1044 -63 
z
" transform="scale(0.015625)"/>
       <path id="LiberationSerif-69" d="M 1184 3897 
Q 1184 3759 1084 3659 
Q 984 3559 844 3559 
Q 706 3559 606 3659 
Q 506 3759 506 3897 
Q 506 4038 606 4138 
Q 706 4238 844 4238 
Q 984 4238 1084 4138 
Q 1184 4038 1184 3897 
z
M 1153 219 
L 1656 141 
L 1656 0 
L 134 0 
L 134 141 
L 634 219 
L 634 2719 
L 219 2797 
L 219 2938 
L 1153 2938 
L 1153 219 
z
" transform="scale(0.015625)"/>
       <path id="LiberationSerif-6d" d="M 1019 2700 
Q 1253 2834 1515 2925 
Q 1778 3016 1978 3016 
Q 2194 3016 2376 2934 
Q 2559 2853 2650 2675 
Q 2891 2809 3214 2912 
Q 3538 3016 3750 3016 
Q 4500 3016 4500 2150 
L 4500 219 
L 4878 141 
L 4878 0 
L 3544 0 
L 3544 141 
L 3981 219 
L 3981 2094 
Q 3981 2631 3481 2631 
Q 3400 2631 3292 2618 
Q 3184 2606 3076 2590 
Q 2969 2575 2870 2554 
Q 2772 2534 2706 2522 
Q 2759 2353 2759 2150 
L 2759 219 
L 3200 141 
L 3200 0 
L 1806 0 
L 1806 141 
L 2241 219 
L 2241 2094 
Q 2241 2353 2108 2492 
Q 1975 2631 1709 2631 
Q 1434 2631 1025 2541 
L 1025 219 
L 1466 141 
L 1466 0 
L 134 0 
L 134 141 
L 506 219 
L 506 2719 
L 134 2797 
L 134 2938 
L 994 2938 
L 1019 2700 
z
" transform="scale(0.015625)"/>
       <path id="LiberationSerif-65" d="M 813 1478 
L 813 1422 
Q 813 991 908 752 
Q 1003 513 1201 388 
Q 1400 263 1722 263 
Q 1891 263 2122 291 
Q 2353 319 2503 353 
L 2503 178 
Q 2353 81 2095 9 
Q 1838 -63 1569 -63 
Q 884 -63 567 306 
Q 250 675 250 1491 
Q 250 2259 572 2637 
Q 894 3016 1491 3016 
Q 2619 3016 2619 1734 
L 2619 1478 
L 813 1478 
z
M 1491 2766 
Q 1166 2766 992 2503 
Q 819 2241 819 1728 
L 2075 1728 
Q 2075 2288 1931 2527 
Q 1788 2766 1491 2766 
z
" transform="scale(0.015625)"/>
       <path id="LiberationSerif-20" transform="scale(0.015625)"/>
       <path id="LiberationSerif-5b" d="M 475 -856 
L 475 4441 
L 1900 4441 
L 1900 4294 
L 972 4166 
L 972 -581 
L 1900 -709 
L 1900 -856 
L 475 -856 
z
" transform="scale(0.015625)"/>
       <path id="LiberationSerif-73" d="M 2259 825 
Q 2259 388 1982 162 
Q 1706 -63 1166 -63 
Q 947 -63 683 -17 
Q 419 28 269 84 
L 269 806 
L 409 806 
L 563 397 
Q 797 184 1172 184 
Q 1778 184 1778 703 
Q 1778 1084 1300 1247 
L 1022 1338 
Q 706 1441 562 1547 
Q 419 1653 341 1808 
Q 263 1963 263 2181 
Q 263 2569 527 2792 
Q 791 3016 1241 3016 
Q 1563 3016 2047 2919 
L 2047 2278 
L 1900 2278 
L 1769 2619 
Q 1603 2766 1247 2766 
Q 994 2766 861 2641 
Q 728 2516 728 2303 
Q 728 2125 848 2003 
Q 969 1881 1213 1800 
Q 1672 1644 1812 1572 
Q 1953 1500 2051 1395 
Q 2150 1291 2204 1156 
Q 2259 1022 2259 825 
z
" transform="scale(0.015625)"/>
       <path id="LiberationSerif-63" d="M 2644 178 
Q 2491 66 2222 1 
Q 1953 -63 1672 -63 
Q 244 -63 244 1491 
Q 244 2225 608 2620 
Q 972 3016 1650 3016 
Q 2072 3016 2572 2919 
L 2572 2100 
L 2400 2100 
L 2266 2619 
Q 2006 2766 1644 2766 
Q 806 2766 806 1491 
Q 806 828 1061 545 
Q 1316 263 1850 263 
Q 2306 263 2644 366 
L 2644 178 
z
" transform="scale(0.015625)"/>
       <path id="LiberationSerif-5d" d="M 231 -856 
L 231 -709 
L 1159 -581 
L 1159 4166 
L 231 4294 
L 231 4441 
L 1656 4441 
L 1656 -856 
L 231 -856 
z
" transform="scale(0.015625)"/>
      </defs>
      <use xlink:href="#LiberationSerif-74"/>
      <use xlink:href="#LiberationSerif-69" x="27.783203"/>
      <use xlink:href="#LiberationSerif-6d" x="55.566406"/>
      <use xlink:href="#LiberationSerif-65" x="133.349609"/>
      <use xlink:href="#LiberationSerif-20" x="177.734375"/>
      <use xlink:href="#LiberationSerif-5b" x="202.734375"/>
      <use xlink:href="#LiberationSerif-73" x="236.035156"/>
      <use xlink:href="#LiberationSerif-65" x="274.951172"/>
      <use xlink:href="#LiberationSerif-63" x="319.335938"/>
      <use xlink:href="#LiberationSerif-5d" x="363.720703"/>
     </g>
    </g>
   </g>
   <g id="matplotlib.axis_2">
    <g id="ytick_1">
     <g id="line2d_8">
      <defs>
       <path id="mf454027f69" d="M 0 0 
L -3.5 0 
" style="stroke: #000000; stroke-width: 0.8"/>
      </defs>
      <g>
       <use xlink:href="#mf454027f69" x="40.56899" y="134.329124" style="stroke: #000000; stroke-width: 0.8"/>
      </g>
     </g>
     <g id="text_9">
      <!-- $\mathdefault{10^{-1}}$ -->
      <g transform="translate(16.06899 137.729905) scale(0.1 -0.1)">
       <defs>
        <path id="Calibri-2212" d="M 2934 1797 
Q 2934 1681 2904 1628 
Q 2875 1575 2819 1575 
L 356 1575 
Q 297 1575 267 1628 
Q 238 1681 238 1797 
Q 238 1909 267 1964 
Q 297 2019 356 2019 
L 2819 2019 
Q 2875 2019 2904 1966 
Q 2934 1913 2934 1797 
z
" transform="scale(0.015625)"/>
       </defs>
       <use xlink:href="#Calibri-31" transform="translate(0 0.78125)"/>
       <use xlink:href="#Calibri-30" transform="translate(50.683594 0.78125)"/>
       <use xlink:href="#Calibri-2212" transform="translate(102.184219 33.4625) scale(0.7)"/>
       <use xlink:href="#Calibri-31" transform="translate(137.0475 33.4625) scale(0.7)"/>
      </g>
     </g>
    </g>
    <g id="ytick_2">
     <g id="line2d_9">
      <g>
       <use xlink:href="#mf454027f69" x="40.56899" y="106.607216" style="stroke: #000000; stroke-width: 0.8"/>
      </g>
     </g>
     <g id="text_10">
      <!-- $\mathdefault{10^{1}}$ -->
      <g transform="translate(19.56899 110.007998) scale(0.1 -0.1)">
       <use xlink:href="#Calibri-31" transform="translate(0 0.78125)"/>
       <use xlink:href="#Calibri-30" transform="translate(50.683594 0.78125)"/>
       <use xlink:href="#Calibri-31" transform="translate(102.184219 33.4625) scale(0.7)"/>
      </g>
     </g>
    </g>
    <g id="ytick_3">
     <g id="line2d_10">
      <g>
       <use xlink:href="#mf454027f69" x="40.56899" y="78.885309" style="stroke: #000000; stroke-width: 0.8"/>
      </g>
     </g>
     <g id="text_11">
      <!-- $\mathdefault{10^{3}}$ -->
      <g transform="translate(19.56899 82.28609) scale(0.1 -0.1)">
       <use xlink:href="#Calibri-31" transform="translate(0 0.442188)"/>
       <use xlink:href="#Calibri-30" transform="translate(50.683594 0.442188)"/>
       <use xlink:href="#Calibri-33" transform="translate(102.184219 33.123438) scale(0.7)"/>
      </g>
     </g>
    </g>
    <g id="ytick_4">
     <g id="line2d_11">
      <g>
       <use xlink:href="#mf454027f69" x="40.56899" y="51.163402" style="stroke: #000000; stroke-width: 0.8"/>
      </g>
     </g>
     <g id="text_12">
      <!-- $\mathdefault{10^{5}}$ -->
      <g transform="translate(19.56899 54.564183) scale(0.1 -0.1)">
       <use xlink:href="#Calibri-31" transform="translate(0 0.0875)"/>
       <use xlink:href="#Calibri-30" transform="translate(50.683594 0.0875)"/>
       <use xlink:href="#Calibri-35" transform="translate(102.184219 32.76875) scale(0.7)"/>
      </g>
     </g>
    </g>
    <g id="ytick_5">
     <g id="line2d_12">
      <g>
       <use xlink:href="#mf454027f69" x="40.56899" y="23.441494" style="stroke: #000000; stroke-width: 0.8"/>
      </g>
     </g>
     <g id="text_13">
      <!-- $\mathdefault{10^{7}}$ -->
      <g transform="translate(19.56899 26.842276) scale(0.1 -0.1)">
       <defs>
        <path id="Calibri-37" d="M 2947 3813 
Q 2947 3756 2942 3711 
Q 2938 3666 2930 3623 
Q 2922 3581 2908 3542 
Q 2894 3503 2875 3459 
L 1419 103 
Q 1403 66 1379 42 
Q 1356 19 1320 5 
Q 1284 -9 1228 -14 
Q 1172 -19 1091 -19 
Q 984 -19 925 -9 
Q 866 0 839 20 
Q 813 41 816 70 
Q 819 100 838 141 
L 2369 3572 
L 428 3572 
Q 369 3572 339 3634 
Q 309 3697 309 3809 
Q 309 3869 317 3912 
Q 325 3956 340 3986 
Q 356 4016 378 4030 
Q 400 4044 428 4044 
L 2784 4044 
Q 2828 4044 2861 4034 
Q 2894 4025 2911 3997 
Q 2928 3969 2937 3925 
Q 2947 3881 2947 3813 
z
" transform="scale(0.015625)"/>
       </defs>
       <use xlink:href="#Calibri-31" transform="translate(0 0.0875)"/>
       <use xlink:href="#Calibri-30" transform="translate(50.683594 0.0875)"/>
       <use xlink:href="#Calibri-37" transform="translate(102.184219 32.76875) scale(0.7)"/>
      </g>
     </g>
    </g>
    <g id="text_14">
     <!-- $\mathdefault{MSE_f}$ -->
     <g transform="translate(9.939303 103.868769) rotate(-90) scale(0.1 -0.1)">
      <defs>
       <path id="LiberationSerif-4d" d="M 2694 0 
L 2584 0 
L 1050 3603 
L 1050 250 
L 1613 166 
L 1613 0 
L 184 0 
L 184 166 
L 722 250 
L 722 3944 
L 184 4025 
L 184 4191 
L 1453 4191 
L 2816 1003 
L 4303 4191 
L 5503 4191 
L 5503 4025 
L 4966 3944 
L 4966 250 
L 5503 166 
L 5503 0 
L 3803 0 
L 3803 166 
L 4366 250 
L 4366 3603 
L 2694 0 
z
" transform="scale(0.015625)"/>
       <path id="LiberationSerif-53" d="M 434 1128 
L 638 1128 
L 747 563 
Q 863 416 1145 303 
Q 1428 191 1703 191 
Q 2141 191 2386 414 
Q 2631 638 2631 1031 
Q 2631 1256 2536 1403 
Q 2441 1550 2286 1651 
Q 2131 1753 1934 1823 
Q 1738 1894 1530 1966 
Q 1322 2038 1125 2125 
Q 928 2213 773 2347 
Q 619 2481 523 2679 
Q 428 2878 428 3169 
Q 428 3669 803 3953 
Q 1178 4238 1844 4238 
Q 2350 4238 2944 4103 
L 2944 3231 
L 2741 3231 
L 2631 3744 
Q 2313 3975 1844 3975 
Q 1425 3975 1189 3804 
Q 953 3634 953 3334 
Q 953 3131 1048 2997 
Q 1144 2863 1298 2767 
Q 1453 2672 1651 2603 
Q 1850 2534 2058 2461 
Q 2266 2388 2464 2295 
Q 2663 2203 2817 2061 
Q 2972 1919 3067 1714 
Q 3163 1509 3163 1209 
Q 3163 603 2791 270 
Q 2419 -63 1719 -63 
Q 1381 -63 1040 -3 
Q 700 56 434 159 
L 434 1128 
z
" transform="scale(0.015625)"/>
       <path id="LiberationSerif-45" d="M 184 166 
L 722 250 
L 722 3944 
L 184 4025 
L 184 4191 
L 3328 4191 
L 3328 3188 
L 3122 3188 
L 3022 3866 
Q 2672 3909 2009 3909 
L 1325 3909 
L 1325 2272 
L 2456 2272 
L 2553 2772 
L 2753 2772 
L 2753 1484 
L 2553 1484 
L 2456 1991 
L 1325 1991 
L 1325 281 
L 2150 281 
Q 2956 281 3206 331 
L 3384 1106 
L 3591 1106 
L 3531 0 
L 184 0 
L 184 166 
z
" transform="scale(0.015625)"/>
       <path id="LiberationSerif-66" d="M 703 2675 
L 197 2675 
L 197 2828 
L 703 2950 
L 703 3156 
Q 703 3806 961 4156 
Q 1219 4506 1684 4506 
Q 1925 4506 2131 4447 
L 2131 3806 
L 1978 3806 
L 1838 4191 
Q 1731 4256 1581 4256 
Q 1384 4256 1303 4081 
Q 1222 3906 1222 3425 
L 1222 2938 
L 2003 2938 
L 2003 2675 
L 1222 2675 
L 1222 244 
L 1856 141 
L 1856 0 
L 269 0 
L 269 141 
L 703 244 
L 703 2675 
z
" transform="scale(0.015625)"/>
      </defs>
      <use xlink:href="#LiberationSerif-4d" transform="translate(0 0.78125)"/>
      <use xlink:href="#LiberationSerif-53" transform="translate(88.916016 0.78125)"/>
      <use xlink:href="#LiberationSerif-45" transform="translate(144.53125 0.78125)"/>
      <use xlink:href="#LiberationSerif-66" transform="translate(206.418594 -12.990625) scale(0.7)"/>
     </g>
    </g>
   </g>
   <g id="line2d_13">
    <path d="M 41.40232 76.420485 
L 48.64588 76.500964 
L 51.850995 76.690254 
L 55.120212 77.101095 
L 57.491997 77.619594 
L 59.927885 78.383133 
L 61.530442 79.046365 
L 63.96633 80.254968 
L 68.004775 82.715064 
L 71.20989 84.862316 
L 74.415005 86.823148 
L 76.850892 87.989023 
L 80.056007 89.111731 
L 85.69701 90.563762 
L 95.376457 92.734235 
L 109.927679 95.831339 
L 138.901919 102.507327 
L 149.414696 105.154195 
L 159.094144 107.712936 
L 171.978706 111.259509 
L 185.696599 115.059233 
L 192.106829 116.777945 
L 203.388834 119.523049 
L 213.068281 121.479869 
L 218.709283 122.438158 
L 225.119514 123.38967 
L 232.939994 124.397693 
L 232.939994 124.397693 
" clip-path="url(#p5b58fbcd98)" style="fill: none; stroke: #1f77b4; stroke-width: 0.5; stroke-linecap: square"/>
   </g>
   <g id="line2d_14">
    <path d="M 41.40232 76.456568 
L 42.171548 76.644445 
L 43.004877 77.35243 
L 43.774105 79.398378 
L 45.440765 88.124365 
L 47.043322 93.020284 
L 48.64588 96.967177 
L 50.248437 100.675106 
L 55.120212 111.162508 
L 56.72277 114.184746 
L 57.491997 115.525362 
L 59.158657 117.810604 
L 59.927885 118.746944 
L 61.530442 120.266902 
L 63.96633 121.976976 
L 68.838105 125.000412 
L 72.87655 127.697736 
L 74.479107 128.63536 
L 76.081665 129.309999 
L 77.684222 129.74365 
L 81.722667 130.402299 
L 84.158554 130.834437 
L 88.196999 131.808598 
L 95.440559 133.995421 
L 99.479004 135.452955 
L 104.286677 137.299725 
L 111.530237 139.913058 
L 114.799454 141.431995 
L 118.837899 143.028819 
L 123.645572 144.992296 
L 126.081459 146.032764 
L 126.850687 146.036972 
L 127.684017 146.500594 
L 128.453244 146.37907 
L 129.286574 147.417184 
L 130.119904 146.704045 
L 130.889132 146.365717 
L 131.722461 148.448369 
L 132.491689 148.202129 
L 134.094247 149.133796 
L 134.927577 145.017119 
L 135.760906 149.236057 
L 136.530134 150.171767 
L 137.363464 150.494867 
L 138.132692 150.512549 
L 138.966021 149.674184 
L 139.735249 149.654958 
L 140.568579 150.791618 
L 141.401909 146.34796 
L 142.171136 150.321707 
L 143.004466 150.627861 
L 143.773694 151.983549 
L 144.607024 146.596838 
L 145.376252 150.806474 
L 146.209581 152.602111 
L 147.042911 148.234789 
L 147.812139 151.847188 
L 149.414696 150.033642 
L 150.248026 151.109622 
L 151.017254 153.359403 
L 151.850584 153.710422 
L 152.683914 150.160065 
L 153.453141 153.693878 
L 154.286471 153.723992 
L 155.055699 145.345749 
L 155.889029 153.720974 
L 156.658256 153.66242 
L 157.491586 147.862073 
L 158.324916 153.035802 
L 159.094144 150.83443 
L 159.927474 153.045234 
L 160.696701 154.739364 
L 161.530031 152.420709 
L 162.299259 154.501136 
L 163.132589 143.181421 
L 164.735146 154.063987 
L 165.568476 154.961399 
L 166.337704 151.363227 
L 167.171034 153.990962 
L 167.940261 149.939531 
L 168.773591 154.944736 
L 169.606921 152.458511 
L 170.376149 152.412206 
L 171.209479 150.056581 
L 171.978706 153.260763 
L 172.812036 152.523697 
L 173.645366 150.001024 
L 174.414594 152.046048 
L 175.247924 155.298829 
L 176.017151 155.983391 
L 176.850481 152.459735 
L 177.619709 148.430174 
L 178.453039 154.554614 
L 179.286369 156.058556 
L 180.055596 144.655102 
L 180.888926 155.496149 
L 181.658154 155.614829 
L 182.491484 154.487412 
L 183.324814 147.374977 
L 184.094041 154.712621 
L 184.927371 135.169521 
L 185.696599 147.913597 
L 186.529929 153.629639 
L 187.299156 156.38069 
L 188.132486 156.525579 
L 188.965816 156.125666 
L 189.735044 153.994119 
L 190.568373 156.573853 
L 191.337601 156.651906 
L 192.170931 156.535203 
L 192.940159 156.728497 
L 194.606818 156.458639 
L 195.376046 147.087535 
L 196.209376 151.061904 
L 196.978604 151.30134 
L 197.811933 147.64926 
L 198.645263 154.780601 
L 199.414491 155.207368 
L 200.247821 152.374692 
L 201.017048 152.639813 
L 201.850378 154.492554 
L 202.619606 156.912802 
L 203.452936 154.360247 
L 204.286266 154.789604 
L 205.055493 145.781476 
L 205.888823 155.481983 
L 207.491381 156.953963 
L 208.260608 144.645072 
L 209.093938 152.169528 
L 209.927268 152.926398 
L 210.696496 156.666654 
L 211.529826 144.828222 
L 212.299053 151.849399 
L 213.132383 156.28292 
L 213.965713 156.923066 
L 214.734941 140.849889 
L 215.568271 152.055193 
L 216.337498 153.812184 
L 217.170828 149.449651 
L 217.940056 156.114429 
L 218.773386 156.532796 
L 219.606716 153.084469 
L 220.375943 147.507869 
L 221.209273 154.746515 
L 221.978501 154.696633 
L 222.811831 151.542285 
L 223.645161 155.544975 
L 224.414388 154.472009 
L 225.247718 151.649338 
L 226.016946 151.106689 
L 226.850276 155.058584 
L 227.619503 154.308461 
L 228.452833 154.728653 
L 229.286163 157.073892 
L 230.055391 157.28015 
L 230.888721 157.14275 
L 231.657948 145.693361 
L 232.491278 146.31701 
L 232.875892 154.687769 
L 232.875892 154.687769 
" clip-path="url(#p5b58fbcd98)" style="fill: none; stroke: #ff7f0e; stroke-width: 0.5; stroke-linecap: square"/>
   </g>
   <g id="line2d_15">
    <path d="M 41.40232 85.361779 
L 42.171548 107.020171 
L 43.774105 127.418243 
L 44.607435 122.116248 
L 45.440765 128.609699 
L 46.209992 131.613768 
L 47.043322 127.368792 
L 47.81255 135.884516 
L 48.64588 121.828767 
L 49.47921 132.159203 
L 50.248437 113.59753 
L 51.081767 129.15256 
L 51.850995 138.592667 
L 52.684325 131.428763 
L 53.453552 142.638239 
L 54.286882 124.77834 
L 55.120212 125.027312 
L 55.88944 134.506897 
L 56.72277 114.779083 
L 57.491997 128.612027 
L 58.325327 134.992868 
L 59.094555 132.800913 
L 59.927885 143.340683 
L 60.761215 117.381107 
L 61.530442 119.668863 
L 62.363772 136.100352 
L 63.133 141.06901 
L 63.96633 148.489352 
L 64.735557 130.500285 
L 65.568887 121.594904 
L 66.402217 130.414853 
L 67.171445 141.845496 
L 68.004775 149.379563 
L 68.774002 142.291767 
L 69.607332 124.974905 
L 70.37656 128.549478 
L 71.20989 127.758054 
L 72.04322 135.460214 
L 72.812447 144.804164 
L 73.645777 149.835781 
L 74.415005 126.502314 
L 75.248335 128.073318 
L 76.017562 139.087963 
L 76.850892 122.19994 
L 77.684222 130.834437 
L 78.45345 133.97836 
L 79.28678 148.04731 
L 80.056007 116.091429 
L 80.889337 125.876607 
L 81.658565 143.324566 
L 82.491895 148.064972 
L 83.325225 132.726652 
L 84.927782 117.653941 
L 85.69701 131.796729 
L 87.299567 148.082686 
L 88.132897 153.139008 
L 88.966227 110.992998 
L 90.568784 134.08724 
L 91.338012 143.65257 
L 92.171342 143.954637 
L 93.004672 133.097653 
L 93.7739 146.074978 
L 94.607229 148.674372 
L 95.376457 154.239001 
L 96.209787 156.413636 
L 96.979015 123.998429 
L 97.812344 122.292143 
L 98.645674 130.734217 
L 99.414902 125.775457 
L 101.017459 144.712257 
L 101.850789 148.671763 
L 102.620017 114.214494 
L 103.453347 133.540368 
L 104.286677 126.297524 
L 105.055904 146.885462 
L 105.889234 141.294495 
L 106.658462 125.794384 
L 107.491792 124.404635 
L 108.261019 136.624211 
L 109.094349 122.203152 
L 109.927679 132.735885 
L 110.696907 127.971966 
L 111.530237 138.692495 
L 112.299464 125.589383 
L 113.132794 129.593774 
L 113.902022 138.486056 
L 114.735352 140.559997 
L 115.568682 117.288109 
L 116.337909 122.701875 
L 117.171239 142.793408 
L 117.940467 146.477903 
L 118.773797 130.183711 
L 119.543024 125.432186 
L 120.376354 140.664275 
L 121.209684 149.430388 
L 121.978912 147.486408 
L 122.812242 112.911409 
L 123.581469 126.154955 
L 124.414799 143.400151 
L 125.184027 139.363579 
L 126.017357 124.07137 
L 127.619914 147.072517 
L 128.453244 155.477941 
L 130.055802 119.507634 
L 130.889132 134.45627 
L 131.658359 142.11585 
L 132.491689 155.119179 
L 133.260917 155.117277 
L 134.094247 114.056817 
L 134.863474 126.912948 
L 135.696804 135.132947 
L 136.530134 146.904881 
L 137.299362 155.740114 
L 138.132692 158.786382 
L 139.735249 115.863057 
L 140.504477 132.084112 
L 141.337807 141.424165 
L 142.171136 158.429679 
L 142.940364 135.953502 
L 143.773694 119.663594 
L 145.376252 148.659385 
L 146.978809 158.499348 
L 147.812139 150.238228 
L 148.581367 114.68622 
L 150.183924 145.575246 
L 151.017254 137.413195 
L 151.850584 126.817132 
L 152.619812 145.8709 
L 153.453141 143.635597 
L 154.222369 119.878033 
L 155.055699 134.352647 
L 155.889029 143.51257 
L 156.658256 117.48656 
L 157.491586 131.59845 
L 158.260814 125.421211 
L 159.863371 152.471983 
L 160.696701 128.161261 
L 161.530031 118.733391 
L 162.299259 126.512163 
L 163.132589 142.659819 
L 163.901816 152.10574 
L 164.735146 134.305093 
L 165.504374 136.656024 
L 166.337704 129.763355 
L 167.106931 141.216501 
L 167.940261 138.537914 
L 168.773591 142.788498 
L 169.542819 131.263728 
L 170.376149 131.683183 
L 171.145376 129.817166 
L 171.978706 144.821338 
L 172.812036 125.126985 
L 173.581264 129.788785 
L 175.183821 151.70089 
L 176.017151 136.222775 
L 176.786379 127.004962 
L 177.619709 123.997347 
L 178.453039 132.491441 
L 179.222266 153.442376 
L 180.055596 156.581128 
L 180.824824 157.929855 
L 181.658154 137.053396 
L 182.427381 130.346126 
L 183.260711 132.299352 
L 184.094041 127.606406 
L 184.863269 135.072027 
L 185.696599 152.17186 
L 186.465826 121.222663 
L 187.299156 128.338873 
L 188.068384 127.414425 
L 188.901714 147.844996 
L 189.670941 127.701738 
L 190.504271 126.700739 
L 191.337601 124.685445 
L 192.106829 137.403156 
L 192.940159 145.157329 
L 193.709386 133.156816 
L 195.311944 124.3002 
L 196.978604 147.142925 
L 197.747831 154.330123 
L 198.581161 151.650408 
L 199.350389 120.586101 
L 200.183719 136.130319 
L 201.017048 143.373047 
L 201.786276 147.749129 
L 202.619606 122.572414 
L 203.388834 134.719555 
L 204.222164 150.869088 
L 204.991391 140.575269 
L 205.824721 120.134468 
L 206.658051 131.969134 
L 207.427279 119.982631 
L 208.260608 139.646595 
L 209.029836 144.591859 
L 209.863166 147.765936 
L 210.632394 115.691841 
L 211.465723 122.15755 
L 212.299053 131.50359 
L 213.068281 154.375366 
L 213.901611 159.756474 
L 214.670839 131.134882 
L 215.504168 123.445677 
L 216.337498 142.346245 
L 217.106726 142.146653 
L 217.940056 126.526968 
L 218.709283 138.158879 
L 219.542613 143.62149 
L 220.311841 124.145206 
L 221.145171 134.603145 
L 221.914398 145.765359 
L 222.747728 129.797285 
L 223.581058 120.450138 
L 224.350286 128.630686 
L 225.952843 157.685939 
L 226.786173 134.379296 
L 227.555401 125.151836 
L 228.388731 132.768311 
L 229.222061 138.488458 
L 229.991288 151.452608 
L 230.824618 156.413636 
L 231.593846 122.030582 
L 232.427176 125.90476 
L 232.875892 136.469337 
L 232.875892 136.469337 
" clip-path="url(#p5b58fbcd98)" style="fill: none; stroke: #2ca02c; stroke-width: 0.5; stroke-linecap: square"/>
   </g>
   <g id="line2d_16">
    <path d="M 41.40232 91.868402 
L 42.171548 90.390342 
L 43.004877 105.555007 
L 46.209992 150.389854 
L 47.043322 105.479665 
L 47.81255 108.840922 
L 48.64588 128.098924 
L 49.47921 139.02591 
L 50.248437 141.932142 
L 51.081767 140.69366 
L 51.850995 99.121205 
L 52.684325 124.265034 
L 53.453552 122.338779 
L 54.286882 133.122234 
L 55.120212 149.45262 
L 55.88944 142.447419 
L 56.72277 104.222872 
L 57.491997 117.497575 
L 58.325327 127.921923 
L 59.094555 141.77665 
L 59.927885 148.850462 
L 60.761215 154.641883 
L 61.530442 155.166948 
L 62.363772 156.938494 
L 63.133 146.934127 
L 63.96633 97.833743 
L 64.735557 102.221753 
L 65.568887 109.385682 
L 66.402217 111.171495 
L 67.171445 127.355547 
L 68.004775 131.029578 
L 68.774002 142.795864 
L 69.607332 147.743537 
L 70.37656 149.324801 
L 71.20989 98.62177 
L 71.979117 111.034302 
L 72.812447 120.993707 
L 73.645777 111.84944 
L 74.415005 128.633022 
L 75.248335 139.035111 
L 76.017562 141.998494 
L 76.850892 123.478342 
L 77.62012 109.635281 
L 78.45345 118.912004 
L 79.28678 107.612509 
L 80.056007 138.188522 
L 80.889337 101.497255 
L 81.658565 103.643976 
L 83.261122 26.664821 
L 84.094452 24.681065 
L 84.927782 26.963103 
L 85.69701 32.370243 
L 86.53034 46.079254 
L 87.299567 56.469235 
L 88.132897 65.729918 
L 88.902125 70.66487 
L 89.735455 72.465662 
L 90.568784 73.347849 
L 91.338012 73.821892 
L 92.94057 74.419042 
L 95.376457 74.933454 
L 98.581572 75.28378 
L 103.453347 75.485691 
L 109.094349 75.489114 
L 115.504579 75.472017 
L 119.543024 75.47885 
L 121.145582 75.303669 
L 122.812242 74.843582 
L 123.581469 74.508568 
L 124.414799 74.361983 
L 125.184027 74.54651 
L 126.850687 75.224504 
L 127.619914 75.427792 
L 129.222472 75.537244 
L 132.491689 75.320294 
L 137.299362 75.114107 
L 156.658256 75.250777 
L 160.696701 74.77933 
L 163.068487 74.249461 
L 164.671044 73.860956 
L 165.504374 73.832285 
L 167.106931 74.308273 
L 168.709489 74.578803 
L 170.376149 74.367664 
L 172.747934 73.931917 
L 173.581264 73.961068 
L 175.183821 74.294218 
L 177.619709 74.390445 
L 181.594051 74.413312 
L 184.863269 74.920978 
L 185.632496 74.5553 
L 186.465826 74.396154 
L 188.068384 74.311088 
L 188.901714 74.111704 
L 191.273499 73.281042 
L 192.940159 72.846298 
L 194.542716 68.048439 
L 195.311944 73.222013 
L 196.145274 71.554019 
L 196.914501 72.857345 
L 198.581161 73.510784 
L 199.350389 73.711294 
L 200.183719 74.235543 
L 200.952946 73.6884 
L 201.786276 73.403286 
L 202.555504 73.675719 
L 203.388834 73.645393 
L 204.222164 72.957695 
L 204.991391 72.962194 
L 205.824721 72.730425 
L 207.427279 71.495532 
L 208.196506 73.391191 
L 209.029836 73.186871 
L 209.863166 72.369048 
L 210.632394 71.287515 
L 211.465723 70.831555 
L 212.234951 73.082661 
L 213.068281 69.880861 
L 213.837509 70.513155 
L 214.670839 72.208083 
L 215.440066 71.99739 
L 216.273396 71.923083 
L 217.106726 71.349169 
L 217.875954 72.084284 
L 218.709283 73.14729 
L 219.478511 72.903967 
L 220.311841 72.369048 
L 221.081069 72.837474 
L 222.747728 72.890609 
L 223.516956 72.342597 
L 224.350286 72.98474 
L 225.119514 72.05131 
L 225.952843 71.90229 
L 226.722071 72.48642 
L 227.555401 72.578614 
L 228.388731 71.991642 
L 229.157958 70.7453 
L 229.991288 72.930771 
L 230.760516 71.685456 
L 231.593846 73.94515 
L 232.363073 72.881721 
L 232.939994 73.523122 
L 232.939994 73.523122 
" clip-path="url(#p5b58fbcd98)" style="fill: none; stroke: #d62728; stroke-width: 0.5; stroke-linecap: square"/>
   </g>
   <g id="patch_3">
    <path d="M 40.56899 161.107228 
L 40.56899 23.330311 
" style="fill: none; stroke: #000000; stroke-width: 0.8; stroke-linejoin: miter; stroke-linecap: square"/>
   </g>
   <g id="patch_4">
    <path d="M 232.875892 161.107228 
L 232.875892 23.330311 
" style="fill: none; stroke: #000000; stroke-width: 0.8; stroke-linejoin: miter; stroke-linecap: square"/>
   </g>
   <g id="patch_5">
    <path d="M 40.56899 161.107228 
L 232.875892 161.107228 
" style="fill: none; stroke: #000000; stroke-width: 0.8; stroke-linejoin: miter; stroke-linecap: square"/>
   </g>
   <g id="patch_6">
    <path d="M 40.56899 23.330311 
L 232.875892 23.330311 
" style="fill: none; stroke: #000000; stroke-width: 0.8; stroke-linejoin: miter; stroke-linecap: square"/>
   </g>
   <g id="legend_1">
    <g id="patch_7">
     <path d="M 160.375892 87.849061 
L 225.875892 87.849061 
Q 227.875892 87.849061 227.875892 85.849061 
L 227.875892 30.330311 
Q 227.875892 28.330311 225.875892 28.330311 
L 160.375892 28.330311 
Q 158.375892 28.330311 158.375892 30.330311 
L 158.375892 85.849061 
Q 158.375892 87.849061 160.375892 87.849061 
z
" style="fill: #ffffff; opacity: 0.8; stroke: #cccccc; stroke-linejoin: miter"/>
    </g>
    <g id="line2d_17">
     <path d="M 162.375892 35.830311 
L 172.375892 35.830311 
L 182.375892 35.830311 
" style="fill: none; stroke: #1f77b4; stroke-width: 0.5; stroke-linecap: square"/>
    </g>
    <g id="text_15">
     <!-- $\mathdefault{lr = 10^{-4}}$ -->
     <g transform="translate(190.375892 39.330311) scale(0.1 -0.1)">
      <defs>
       <path id="LiberationSerif-6c" d="M 1147 219 
L 1650 141 
L 1650 0 
L 128 0 
L 128 141 
L 628 219 
L 628 4225 
L 128 4300 
L 128 4441 
L 1147 4441 
L 1147 219 
z
" transform="scale(0.015625)"/>
       <path id="LiberationSerif-72" d="M 2075 3016 
L 2075 2222 
L 1941 2222 
L 1759 2566 
Q 1603 2566 1389 2523 
Q 1175 2481 1019 2413 
L 1019 219 
L 1522 141 
L 1522 0 
L 128 0 
L 128 141 
L 500 219 
L 500 2719 
L 128 2797 
L 128 2938 
L 984 2938 
L 1013 2572 
Q 1200 2728 1520 2872 
Q 1841 3016 2028 3016 
L 2075 3016 
z
" transform="scale(0.015625)"/>
       <path id="LiberationSerif-3d" d="M 3297 1644 
L 3297 1325 
L 319 1325 
L 319 1644 
L 3297 1644 
z
M 3297 2925 
L 3297 2606 
L 319 2606 
L 319 2925 
L 3297 2925 
z
" transform="scale(0.015625)"/>
       <path id="LiberationSerif-31" d="M 1959 250 
L 2816 166 
L 2816 0 
L 563 0 
L 563 166 
L 1422 250 
L 1422 3669 
L 575 3366 
L 575 3531 
L 1797 4225 
L 1959 4225 
L 1959 250 
z
" transform="scale(0.015625)"/>
       <path id="LiberationSerif-30" d="M 2956 2113 
Q 2956 -63 1581 -63 
Q 919 -63 581 493 
Q 244 1050 244 2113 
Q 244 3153 581 3704 
Q 919 4256 1606 4256 
Q 2269 4256 2612 3711 
Q 2956 3166 2956 2113 
z
M 2381 2113 
Q 2381 3119 2190 3562 
Q 2000 4006 1581 4006 
Q 1175 4006 997 3587 
Q 819 3169 819 2113 
Q 819 1050 1000 617 
Q 1181 184 1581 184 
Q 1994 184 2187 639 
Q 2381 1094 2381 2113 
z
" transform="scale(0.015625)"/>
       <path id="LiberationSerif-2212" d="M 3297 2284 
L 3297 1966 
L 319 1966 
L 319 2284 
L 3297 2284 
z
" transform="scale(0.015625)"/>
       <path id="LiberationSerif-34" d="M 2531 922 
L 2531 0 
L 1994 0 
L 1994 922 
L 125 922 
L 125 1338 
L 2172 4213 
L 2531 4213 
L 2531 1369 
L 3100 1369 
L 3100 922 
L 2531 922 
z
M 1994 3478 
L 1978 3478 
L 478 1369 
L 1994 1369 
L 1994 3478 
z
" transform="scale(0.015625)"/>
      </defs>
      <use xlink:href="#LiberationSerif-6c" transform="translate(0 0.785938)"/>
      <use xlink:href="#LiberationSerif-72" transform="translate(27.783203 0.785938)"/>
      <use xlink:href="#LiberationSerif-3d" transform="translate(80.566406 0.785938)"/>
      <use xlink:href="#LiberationSerif-31" transform="translate(156.445312 0.785938)"/>
      <use xlink:href="#LiberationSerif-30" transform="translate(206.445312 0.785938)"/>
      <use xlink:href="#LiberationSerif-2212" transform="translate(257.248672 32.920313) scale(0.7)"/>
      <use xlink:href="#LiberationSerif-34" transform="translate(296.726211 32.920313) scale(0.7)"/>
     </g>
    </g>
    <g id="line2d_18">
     <path d="M 162.375892 49.959998 
L 172.375892 49.959998 
L 182.375892 49.959998 
" style="fill: none; stroke: #ff7f0e; stroke-width: 0.5; stroke-linecap: square"/>
    </g>
    <g id="text_16">
     <!-- $\mathdefault{lr = 10^{-3}}$ -->
     <g transform="translate(190.375892 53.459998) scale(0.1 -0.1)">
      <defs>
       <path id="LiberationSerif-33" d="M 2950 1141 
Q 2950 575 2562 256 
Q 2175 -63 1466 -63 
Q 872 -63 341 72 
L 306 953 
L 513 953 
L 653 366 
Q 775 297 998 247 
Q 1222 197 1416 197 
Q 1906 197 2140 422 
Q 2375 647 2375 1172 
Q 2375 1584 2159 1798 
Q 1944 2013 1491 2034 
L 1044 2059 
L 1044 2316 
L 1491 2344 
Q 1844 2363 2012 2563 
Q 2181 2763 2181 3169 
Q 2181 3591 1998 3783 
Q 1816 3975 1416 3975 
Q 1250 3975 1069 3929 
Q 888 3884 750 3809 
L 641 3297 
L 434 3297 
L 434 4103 
Q 744 4184 969 4211 
Q 1194 4238 1416 4238 
Q 2759 4238 2759 3206 
Q 2759 2772 2520 2514 
Q 2281 2256 1844 2194 
Q 2413 2128 2681 1867 
Q 2950 1606 2950 1141 
z
" transform="scale(0.015625)"/>
      </defs>
      <use xlink:href="#LiberationSerif-6c" transform="translate(0 0.5125)"/>
      <use xlink:href="#LiberationSerif-72" transform="translate(27.783203 0.5125)"/>
      <use xlink:href="#LiberationSerif-3d" transform="translate(80.566406 0.5125)"/>
      <use xlink:href="#LiberationSerif-31" transform="translate(156.445312 0.5125)"/>
      <use xlink:href="#LiberationSerif-30" transform="translate(206.445312 0.5125)"/>
      <use xlink:href="#LiberationSerif-2212" transform="translate(257.248672 32.646875) scale(0.7)"/>
      <use xlink:href="#LiberationSerif-33" transform="translate(296.726211 32.646875) scale(0.7)"/>
     </g>
    </g>
    <g id="line2d_19">
     <path d="M 162.375892 64.089686 
L 172.375892 64.089686 
L 182.375892 64.089686 
" style="fill: none; stroke: #2ca02c; stroke-width: 0.5; stroke-linecap: square"/>
    </g>
    <g id="text_17">
     <!-- $\mathdefault{lr = 10^{-2}}$ -->
     <g transform="translate(190.375892 67.589686) scale(0.1 -0.1)">
      <defs>
       <path id="LiberationSerif-32" d="M 2847 0 
L 281 0 
L 281 459 
L 863 988 
Q 1422 1478 1684 1781 
Q 1947 2084 2061 2406 
Q 2175 2728 2175 3144 
Q 2175 3550 1990 3762 
Q 1806 3975 1388 3975 
Q 1222 3975 1047 3929 
Q 872 3884 738 3809 
L 628 3297 
L 422 3297 
L 422 4103 
Q 991 4238 1388 4238 
Q 2075 4238 2420 3952 
Q 2766 3666 2766 3144 
Q 2766 2794 2630 2483 
Q 2494 2172 2212 1864 
Q 1931 1556 1281 1003 
Q 1003 766 691 481 
L 2847 481 
L 2847 0 
z
" transform="scale(0.015625)"/>
      </defs>
      <use xlink:href="#LiberationSerif-6c" transform="translate(0 0.5125)"/>
      <use xlink:href="#LiberationSerif-72" transform="translate(27.783203 0.5125)"/>
      <use xlink:href="#LiberationSerif-3d" transform="translate(80.566406 0.5125)"/>
      <use xlink:href="#LiberationSerif-31" transform="translate(156.445312 0.5125)"/>
      <use xlink:href="#LiberationSerif-30" transform="translate(206.445312 0.5125)"/>
      <use xlink:href="#LiberationSerif-2212" transform="translate(257.248672 32.646875) scale(0.7)"/>
      <use xlink:href="#LiberationSerif-32" transform="translate(296.726211 32.646875) scale(0.7)"/>
     </g>
    </g>
    <g id="line2d_20">
     <path d="M 162.375892 78.219373 
L 172.375892 78.219373 
L 182.375892 78.219373 
" style="fill: none; stroke: #d62728; stroke-width: 0.5; stroke-linecap: square"/>
    </g>
    <g id="text_18">
     <!-- $\mathdefault{lr = 10^{-1}}$ -->
     <g transform="translate(190.375892 81.719373) scale(0.1 -0.1)">
      <use xlink:href="#LiberationSerif-6c" transform="translate(0 0.654687)"/>
      <use xlink:href="#LiberationSerif-72" transform="translate(27.783203 0.654687)"/>
      <use xlink:href="#LiberationSerif-3d" transform="translate(80.566406 0.654687)"/>
      <use xlink:href="#LiberationSerif-31" transform="translate(156.445312 0.654687)"/>
      <use xlink:href="#LiberationSerif-30" transform="translate(206.445312 0.654687)"/>
      <use xlink:href="#LiberationSerif-2212" transform="translate(257.248672 32.789062) scale(0.7)"/>
      <use xlink:href="#LiberationSerif-31" transform="translate(296.726211 32.789062) scale(0.7)"/>
     </g>
    </g>
   </g>
  </g>
  <g id="axes_2">
   <g id="patch_8">
    <path d="M 281.513872 161.107228 
L 473.820774 161.107228 
L 473.820774 23.330311 
L 281.513872 23.330311 
z
" style="fill: #ffffff"/>
   </g>
   <g id="matplotlib.axis_3">
    <g id="xtick_8">
     <g id="line2d_21">
      <g>
       <use xlink:href="#mc8fab9345c" x="281.513872" y="161.107228" style="stroke: #000000; stroke-width: 0.8"/>
      </g>
     </g>
     <g id="text_19">
      <!-- 0 -->
      <g transform="translate(278.979497 174.908791) scale(0.1 -0.1)">
       <use xlink:href="#Calibri-30"/>
      </g>
     </g>
    </g>
    <g id="xtick_9">
     <g id="line2d_22">
      <g>
       <use xlink:href="#mc8fab9345c" x="313.565022" y="161.107228" style="stroke: #000000; stroke-width: 0.8"/>
      </g>
     </g>
     <g id="text_20">
      <!-- 5 -->
      <g transform="translate(311.030647 174.908791) scale(0.1 -0.1)">
       <use xlink:href="#Calibri-35"/>
      </g>
     </g>
    </g>
    <g id="xtick_10">
     <g id="line2d_23">
      <g>
       <use xlink:href="#mc8fab9345c" x="345.616173" y="161.107228" style="stroke: #000000; stroke-width: 0.8"/>
      </g>
     </g>
     <g id="text_21">
      <!-- 10 -->
      <g transform="translate(340.547423 174.908791) scale(0.1 -0.1)">
       <use xlink:href="#Calibri-31"/>
       <use xlink:href="#Calibri-30" x="50.683594"/>
      </g>
     </g>
    </g>
    <g id="xtick_11">
     <g id="line2d_24">
      <g>
       <use xlink:href="#mc8fab9345c" x="377.667323" y="161.107228" style="stroke: #000000; stroke-width: 0.8"/>
      </g>
     </g>
     <g id="text_22">
      <!-- 15 -->
      <g transform="translate(372.598573 174.908791) scale(0.1 -0.1)">
       <use xlink:href="#Calibri-31"/>
       <use xlink:href="#Calibri-35" x="50.683594"/>
      </g>
     </g>
    </g>
    <g id="xtick_12">
     <g id="line2d_25">
      <g>
       <use xlink:href="#mc8fab9345c" x="409.718473" y="161.107228" style="stroke: #000000; stroke-width: 0.8"/>
      </g>
     </g>
     <g id="text_23">
      <!-- 20 -->
      <g transform="translate(404.649723 174.908791) scale(0.1 -0.1)">
       <use xlink:href="#Calibri-32"/>
       <use xlink:href="#Calibri-30" x="50.683594"/>
      </g>
     </g>
    </g>
    <g id="xtick_13">
     <g id="line2d_26">
      <g>
       <use xlink:href="#mc8fab9345c" x="441.769623" y="161.107228" style="stroke: #000000; stroke-width: 0.8"/>
      </g>
     </g>
     <g id="text_24">
      <!-- 25 -->
      <g transform="translate(436.700873 174.908791) scale(0.1 -0.1)">
       <use xlink:href="#Calibri-32"/>
       <use xlink:href="#Calibri-35" x="50.683594"/>
      </g>
     </g>
    </g>
    <g id="xtick_14">
     <g id="line2d_27">
      <g>
       <use xlink:href="#mc8fab9345c" x="473.820774" y="161.107228" style="stroke: #000000; stroke-width: 0.8"/>
      </g>
     </g>
     <g id="text_25">
      <!-- 30 -->
      <g transform="translate(468.752024 174.908791) scale(0.1 -0.1)">
       <use xlink:href="#Calibri-33"/>
       <use xlink:href="#Calibri-30" x="50.683594"/>
      </g>
     </g>
    </g>
    <g id="text_26">
     <!-- time [sec] -->
     <g transform="translate(357.81576 187.625978) scale(0.1 -0.1)">
      <use xlink:href="#LiberationSerif-74"/>
      <use xlink:href="#LiberationSerif-69" x="27.783203"/>
      <use xlink:href="#LiberationSerif-6d" x="55.566406"/>
      <use xlink:href="#LiberationSerif-65" x="133.349609"/>
      <use xlink:href="#LiberationSerif-20" x="177.734375"/>
      <use xlink:href="#LiberationSerif-5b" x="202.734375"/>
      <use xlink:href="#LiberationSerif-73" x="236.035156"/>
      <use xlink:href="#LiberationSerif-65" x="274.951172"/>
      <use xlink:href="#LiberationSerif-63" x="319.335938"/>
      <use xlink:href="#LiberationSerif-5d" x="363.720703"/>
     </g>
    </g>
   </g>
   <g id="matplotlib.axis_4">
    <g id="ytick_6">
     <g id="line2d_28">
      <g>
       <use xlink:href="#mf454027f69" x="281.513872" y="134.034441" style="stroke: #000000; stroke-width: 0.8"/>
      </g>
     </g>
     <g id="text_27">
      <!-- $\mathdefault{10^{-2}}$ -->
      <g transform="translate(257.013872 137.435222) scale(0.1 -0.1)">
       <use xlink:href="#Calibri-31" transform="translate(0 0.442188)"/>
       <use xlink:href="#Calibri-30" transform="translate(50.683594 0.442188)"/>
       <use xlink:href="#Calibri-2212" transform="translate(102.184219 33.123438) scale(0.7)"/>
       <use xlink:href="#Calibri-32" transform="translate(137.0475 33.123438) scale(0.7)"/>
      </g>
     </g>
    </g>
    <g id="ytick_7">
     <g id="line2d_29">
      <g>
       <use xlink:href="#mf454027f69" x="281.513872" y="91.774078" style="stroke: #000000; stroke-width: 0.8"/>
      </g>
     </g>
     <g id="text_28">
      <!-- $\mathdefault{10^{0}}$ -->
      <g transform="translate(260.513872 95.174859) scale(0.1 -0.1)">
       <use xlink:href="#Calibri-31" transform="translate(0 0.442188)"/>
       <use xlink:href="#Calibri-30" transform="translate(50.683594 0.442188)"/>
       <use xlink:href="#Calibri-30" transform="translate(102.184219 33.123438) scale(0.7)"/>
      </g>
     </g>
    </g>
    <g id="ytick_8">
     <g id="line2d_30">
      <g>
       <use xlink:href="#mf454027f69" x="281.513872" y="49.513715" style="stroke: #000000; stroke-width: 0.8"/>
      </g>
     </g>
     <g id="text_29">
      <!-- $\mathdefault{10^{2}}$ -->
      <g transform="translate(260.513872 52.914496) scale(0.1 -0.1)">
       <use xlink:href="#Calibri-31" transform="translate(0 0.442188)"/>
       <use xlink:href="#Calibri-30" transform="translate(50.683594 0.442188)"/>
       <use xlink:href="#Calibri-32" transform="translate(102.184219 33.123438) scale(0.7)"/>
      </g>
     </g>
    </g>
    <g id="text_30">
     <!-- $\mathdefault{MSE_f}$ -->
     <g transform="translate(250.884184 103.868769) rotate(-90) scale(0.1 -0.1)">
      <use xlink:href="#LiberationSerif-4d" transform="translate(0 0.78125)"/>
      <use xlink:href="#LiberationSerif-53" transform="translate(88.916016 0.78125)"/>
      <use xlink:href="#LiberationSerif-45" transform="translate(144.53125 0.78125)"/>
      <use xlink:href="#LiberationSerif-66" transform="translate(206.418594 -12.990625) scale(0.7)"/>
     </g>
    </g>
   </g>
   <g id="line2d_31">
    <path d="M 282.347202 24.681065 
L 283.116429 24.967472 
L 283.949759 26.046753 
L 284.718987 29.165676 
L 286.385647 42.467913 
L 287.988204 49.931444 
L 289.590762 55.948242 
L 291.193319 61.600755 
L 296.065094 77.588162 
L 297.667652 82.195379 
L 298.436879 84.239067 
L 300.103539 87.72278 
L 300.872767 89.150173 
L 302.475324 91.467256 
L 304.911212 94.074161 
L 309.782986 98.683206 
L 313.821431 102.795112 
L 315.423989 104.224462 
L 316.193217 104.79038 
L 317.795774 105.618887 
L 320.231661 106.366217 
L 324.270106 107.333582 
L 326.705994 108.12161 
L 331.513666 110.096063 
L 334.782884 111.597795 
L 340.423886 114.617472 
L 343.629001 116.479886 
L 349.270004 119.574918 
L 350.103334 119.891654 
L 350.872561 120.317994 
L 355.744336 123.732156 
L 358.949451 125.658992 
L 366.193011 130.149889 
L 367.026341 130.745747 
L 367.795569 130.752163 
L 368.628898 131.458926 
L 369.398126 131.27367 
L 370.231456 132.856212 
L 371.064786 131.769075 
L 371.834013 131.253315 
L 372.667343 134.428191 
L 373.436571 134.052813 
L 374.269901 134.707312 
L 375.039129 135.473083 
L 375.872458 129.197459 
L 376.705788 135.628973 
L 377.475016 137.055406 
L 378.308346 137.547953 
L 379.077573 137.574908 
L 379.910903 136.296871 
L 380.680131 136.267562 
L 381.513461 138.000331 
L 382.346791 131.226245 
L 383.116018 137.283981 
L 383.949348 137.750694 
L 384.718576 139.817357 
L 385.551906 131.605645 
L 386.321133 138.022979 
L 387.154463 140.760318 
L 387.987793 134.102601 
L 388.757021 139.609484 
L 389.590351 138.296287 
L 390.359578 136.844844 
L 391.192908 138.485109 
L 391.962136 141.914764 
L 392.795466 142.449871 
L 393.628796 137.037568 
L 394.398023 142.424651 
L 395.231353 142.470557 
L 396.000581 129.698436 
L 396.833911 142.465956 
L 397.603138 142.376695 
L 398.436468 133.534418 
L 399.269798 141.421454 
L 400.039026 138.065596 
L 400.872356 141.435833 
L 401.641583 144.018431 
L 402.474913 140.483782 
L 403.244141 143.655266 
L 404.077471 126.39905 
L 405.680028 142.98886 
L 406.513358 144.356909 
L 407.282586 138.871715 
L 408.115916 142.877538 
L 408.885143 136.701377 
L 409.718473 144.331508 
L 410.551803 140.54141 
L 411.321031 140.470819 
L 412.154361 136.879812 
L 412.923588 141.764393 
L 413.756918 140.64078 
L 414.590248 136.795119 
L 415.359476 139.912633 
L 416.192806 144.8713 
L 416.962033 145.914874 
L 417.795363 140.543275 
L 418.564591 134.400454 
L 419.397921 143.736791 
L 420.23125 146.029458 
L 421.000478 128.645586 
L 421.833808 145.172104 
L 422.603036 145.353024 
L 423.436365 143.634344 
L 424.269695 132.791871 
L 425.038923 143.977663 
L 425.872253 114.185394 
L 426.641481 133.612964 
L 427.47481 142.326722 
L 428.244038 146.520532 
L 429.077368 146.741407 
L 429.910698 146.131764 
L 430.679925 142.88235 
L 431.513255 146.814998 
L 432.282483 146.933985 
L 433.115813 146.756078 
L 433.88504 147.050743 
L 435.5517 146.639362 
L 436.320928 132.353683 
L 437.154258 138.412366 
L 437.923485 138.777372 
L 438.756815 133.209998 
L 439.590145 144.081294 
L 440.359373 144.731874 
L 441.192703 140.413631 
L 441.96193 140.817792 
L 442.79526 143.642184 
L 443.564488 147.331705 
L 444.397818 143.44049 
L 445.231148 144.095018 
L 446.000375 130.362674 
L 446.833705 145.150508 
L 447.602933 146.124908 
L 448.436263 147.394452 
L 449.20549 128.630296 
L 450.03882 140.100871 
L 450.87215 141.254674 
L 451.641378 146.956467 
L 452.474708 128.909497 
L 453.243935 139.612854 
L 454.077265 146.371487 
L 454.910595 147.347351 
L 455.679823 122.84477 
L 456.513153 139.926575 
L 457.28238 142.605 
L 458.11571 135.954584 
L 458.884938 146.114633 
L 459.718268 146.752408 
L 460.551598 141.495643 
L 461.320825 132.994455 
L 462.154155 144.029333 
L 462.923383 143.953289 
L 463.756713 139.144678 
L 464.590042 145.246535 
L 465.35927 143.610864 
L 466.1926 139.307874 
L 466.961828 138.480639 
L 467.795158 144.505062 
L 468.564385 143.361545 
L 469.397715 144.002102 
L 470.231045 147.577277 
L 471.000273 147.891705 
L 471.833602 147.682247 
L 472.60283 130.228349 
L 473.43616 131.179064 
L 473.820774 143.939776 
L 473.820774 143.939776 
" clip-path="url(#p48e20a4cd4)" style="fill: none; stroke: #1f77b4; stroke-width: 0.5; stroke-linecap: square"/>
   </g>
   <g id="line2d_32">
    <path d="M 282.347202 38.256518 
L 283.116429 70.453181 
L 283.949759 87.877514 
L 284.783089 101.195485 
L 285.552317 110.930242 
L 286.385647 81.028753 
L 287.988204 121.491179 
L 288.821534 123.783063 
L 289.654864 126.69942 
L 290.424092 128.458764 
L 292.090751 130.720132 
L 293.693309 132.415015 
L 295.359969 133.870729 
L 296.962526 135.027854 
L 299.398414 136.489098 
L 302.667631 137.972099 
L 304.270189 138.61268 
L 309.141963 140.079567 
L 315.616296 141.398904 
L 318.885513 141.88881 
L 326.193175 142.715409 
L 339.97517 143.61347 
L 366.769932 144.264115 
L 385.423701 144.407923 
L 439.846554 144.484978 
L 469.013101 144.484978 
L 473.884876 144.484978 
L 473.884876 144.484978 
" clip-path="url(#p48e20a4cd4)" style="fill: none; stroke: #ff7f0e; stroke-width: 0.5; stroke-linecap: square"/>
   </g>
   <g id="line2d_33">
    <path d="M 282.347202 38.256518 
L 283.116429 71.27342 
L 283.949759 88.157834 
L 284.783089 102.369043 
L 285.616419 94.286473 
L 286.385647 104.185344 
L 287.218977 108.764864 
L 288.052307 102.293657 
L 288.821534 115.275361 
L 289.654864 93.848225 
L 290.488194 109.596348 
L 291.257422 81.300205 
L 292.090751 105.012903 
L 292.924081 119.403772 
L 293.693309 108.482836 
L 294.526639 125.571001 
L 295.359969 98.34467 
L 296.129196 98.724212 
L 296.962526 113.175265 
L 297.795856 83.101411 
L 298.565084 104.188893 
L 299.398414 113.916098 
L 300.231744 110.574595 
L 301.000971 126.641834 
L 301.834301 87.068039 
L 302.667631 90.555583 
L 303.436859 115.604389 
L 304.270189 123.178807 
L 305.103519 134.490667 
L 305.872746 107.067428 
L 306.706076 93.491715 
L 307.539406 106.937191 
L 308.308634 124.362512 
L 309.141963 135.84774 
L 309.975293 125.042826 
L 310.744521 98.644321 
L 311.577851 104.093541 
L 312.411181 102.887064 
L 314.013738 128.872821 
L 314.847068 136.543217 
L 315.616296 100.972763 
L 316.449626 103.367663 
L 317.282956 120.158821 
L 318.052183 94.414056 
L 318.885513 107.576822 
L 319.718843 112.369542 
L 320.488071 133.816801 
L 321.321401 85.102002 
L 322.15473 100.018911 
L 322.923958 126.617265 
L 323.757288 133.843726 
L 324.590618 143.427711 
L 325.359846 145.768681 
L 326.193175 146.142057 
L 330.23162 146.60319 
L 369.205819 150.246741 
L 373.308366 150.613749 
L 381.385256 151.268059 
L 389.526248 151.985599 
L 390.359578 152.12291 
L 391.192908 152.1295 
L 391.962136 152.262305 
L 392.795466 152.268996 
L 394.398023 152.485726 
L 395.231353 152.47203 
L 396.833911 152.693667 
L 399.269798 152.820731 
L 400.936458 153.043775 
L 402.539015 153.212834 
L 403.372345 153.175816 
L 404.974903 153.438133 
L 406.57746 153.476227 
L 407.41079 153.476227 
L 408.24412 153.70817 
L 409.013348 153.676903 
L 409.846678 153.858158 
L 410.680008 153.834312 
L 412.282565 154.091921 
L 413.115895 154.067461 
L 414.718453 154.306688 
L 415.551783 154.298334 
L 416.32101 154.44988 
L 417.98767 154.483899 
L 418.756898 154.673294 
L 420.423557 154.681997 
L 421.192785 154.884465 
L 422.026115 154.86668 
L 422.859445 155.027994 
L 424.462002 155.055158 
L 426.06456 155.208777 
L 427.73122 155.496319 
L 428.500447 155.413915 
L 429.333777 155.471615 
L 430.167107 155.690553 
L 431.769665 155.660477 
L 432.602994 155.92082 
L 433.372222 155.901906 
L 435.038882 156.151902 
L 442.346544 156.830398 
L 443.179874 156.687376 
L 443.949102 156.974567 
L 444.782432 156.8337 
L 446.384989 157.229571 
L 448.051649 157.369694 
L 448.820877 157.23877 
L 449.654206 157.485954 
L 450.487536 157.450568 
L 451.256764 157.661345 
L 456.961869 158.00374 
L 457.795199 158.270155 
L 458.564426 158.056408 
L 459.397756 158.408933 
L 461.833644 158.651259 
L 462.666973 158.508796 
L 463.436201 158.729417 
L 466.705418 159.124859 
L 467.538748 159.208601 
L 468.307976 158.802787 
L 469.141306 159.301752 
L 469.974636 158.804152 
L 470.743863 159.501238 
L 471.577193 158.915336 
L 472.410523 159.607842 
L 473.179751 159.756474 
L 473.820774 159.433772 
L 473.820774 159.433772 
" clip-path="url(#p48e20a4cd4)" style="fill: none; stroke: #2ca02c; stroke-width: 0.5; stroke-linecap: square"/>
   </g>
   <g id="line2d_34">
    <path d="M 282.347202 38.256518 
L 283.116429 71.27342 
L 283.949759 88.157834 
L 284.783089 102.369043 
L 285.552317 94.286473 
L 286.385647 104.185344 
L 287.218977 108.764864 
L 287.988204 102.293657 
L 288.821534 115.275361 
L 289.654864 93.848225 
L 290.424092 109.596348 
L 291.257422 81.300205 
L 292.090751 127.40237 
L 292.859979 118.51475 
L 293.693309 128.443781 
L 294.526639 132.127272 
L 295.295867 133.508385 
L 297.731754 135.625698 
L 301.000971 138.048525 
L 308.308634 142.682382 
L 309.141963 143.076934 
L 310.744521 144.021155 
L 311.577851 144.348434 
L 312.347078 143.885922 
L 313.180408 94.529798 
L 314.013738 110.48956 
L 314.782966 133.543113 
L 315.616296 140.652098 
L 316.449626 143.509807 
L 318.052183 144.053909 
L 318.885513 144.266913 
L 333.500838 145.70954 
L 376.513481 150.04493 
L 381.385256 150.591421 
L 382.218586 150.574711 
L 383.821144 150.863009 
L 413.82102 154.289988 
L 415.48768 154.492424 
L 416.256908 154.424448 
L 417.923568 154.778272 
L 418.692795 154.743146 
L 420.359455 154.938026 
L 421.962013 155.255925 
L 422.795342 155.251292 
L 425.23123 155.609283 
L 435.744007 156.824898 
L 436.577337 156.503975 
L 437.410667 156.640912 
L 438.179895 156.610782 
L 439.013225 156.946666 
L 440.615782 157.246826 
L 441.449112 157.150614 
L 443.051669 157.241071 
L 443.884999 157.410628 
L 454.397777 157.73998 
L 455.231107 157.708445 
L 456.833664 157.811945 
L 457.666994 157.781383 
L 460.102881 157.910435 
L 467.410544 158.174116 
L 469.013101 158.225212 
L 473.820774 158.407627 
L 473.820774 158.407627 
" clip-path="url(#p48e20a4cd4)" style="fill: none; stroke: #d62728; stroke-width: 0.5; stroke-linecap: square"/>
   </g>
   <g id="patch_9">
    <path d="M 281.513872 161.107228 
L 281.513872 23.330311 
" style="fill: none; stroke: #000000; stroke-width: 0.8; stroke-linejoin: miter; stroke-linecap: square"/>
   </g>
   <g id="patch_10">
    <path d="M 473.820774 161.107228 
L 473.820774 23.330311 
" style="fill: none; stroke: #000000; stroke-width: 0.8; stroke-linejoin: miter; stroke-linecap: square"/>
   </g>
   <g id="patch_11">
    <path d="M 281.513872 161.107228 
L 473.820774 161.107228 
" style="fill: none; stroke: #000000; stroke-width: 0.8; stroke-linejoin: miter; stroke-linecap: square"/>
   </g>
   <g id="patch_12">
    <path d="M 281.513872 23.330311 
L 473.820774 23.330311 
" style="fill: none; stroke: #000000; stroke-width: 0.8; stroke-linejoin: miter; stroke-linecap: square"/>
   </g>
   <g id="legend_2">
    <g id="patch_13">
     <path d="M 337.220774 88.959998 
L 466.820774 88.959998 
Q 468.820774 88.959998 468.820774 86.959998 
L 468.820774 30.330311 
Q 468.820774 28.330311 466.820774 28.330311 
L 337.220774 28.330311 
Q 335.220774 28.330311 335.220774 30.330311 
L 335.220774 86.959998 
Q 335.220774 88.959998 337.220774 88.959998 
z
" style="fill: #ffffff; opacity: 0.8; stroke: #cccccc; stroke-linejoin: miter"/>
    </g>
    <g id="line2d_35">
     <path d="M 339.220774 35.830311 
L 349.220774 35.830311 
L 359.220774 35.830311 
" style="fill: none; stroke: #1f77b4; stroke-width: 0.5; stroke-linecap: square"/>
    </g>
    <g id="text_31">
     <!-- $\mathdefault{lr = 10^{-3}}$ -->
     <g transform="translate(367.220774 39.330311) scale(0.1 -0.1)">
      <use xlink:href="#LiberationSerif-6c" transform="translate(0 0.5125)"/>
      <use xlink:href="#LiberationSerif-72" transform="translate(27.783203 0.5125)"/>
      <use xlink:href="#LiberationSerif-3d" transform="translate(80.566406 0.5125)"/>
      <use xlink:href="#LiberationSerif-31" transform="translate(156.445312 0.5125)"/>
      <use xlink:href="#LiberationSerif-30" transform="translate(206.445312 0.5125)"/>
      <use xlink:href="#LiberationSerif-2212" transform="translate(257.248672 32.646875) scale(0.7)"/>
      <use xlink:href="#LiberationSerif-33" transform="translate(296.726211 32.646875) scale(0.7)"/>
     </g>
    </g>
    <g id="line2d_36">
     <path d="M 339.220774 50.330311 
L 349.220774 50.330311 
L 359.220774 50.330311 
" style="fill: none; stroke: #ff7f0e; stroke-width: 0.5; stroke-linecap: square"/>
    </g>
    <g id="text_32">
     <!-- $\mathdefault{lr = 10^{-2}}$, ELR-0.95 -->
     <g transform="translate(367.220774 53.830311) scale(0.1 -0.1)">
      <defs>
       <path id="LiberationSerif-2c" d="M 1197 153 
Q 1197 -275 948 -564 
Q 700 -853 244 -984 
L 244 -744 
Q 794 -569 794 -219 
Q 794 -156 747 -106 
Q 700 -56 584 3 
Q 372 113 372 313 
Q 372 481 478 570 
Q 584 659 750 659 
Q 950 659 1073 515 
Q 1197 372 1197 153 
z
" transform="scale(0.015625)"/>
       <path id="LiberationSerif-4c" d="M 1972 4025 
L 1325 3944 
L 1325 269 
L 2150 269 
Q 2816 269 3128 331 
L 3322 1203 
L 3525 1203 
L 3469 0 
L 184 0 
L 184 166 
L 722 250 
L 722 3944 
L 184 4025 
L 184 4191 
L 1972 4191 
L 1972 4025 
z
" transform="scale(0.015625)"/>
       <path id="LiberationSerif-52" d="M 1325 1838 
L 1325 250 
L 1959 166 
L 1959 0 
L 225 0 
L 225 166 
L 722 250 
L 722 3944 
L 184 4025 
L 184 4191 
L 1994 4191 
Q 2781 4191 3156 3925 
Q 3531 3659 3531 3072 
Q 3531 2653 3303 2348 
Q 3075 2044 2672 1925 
L 3806 250 
L 4259 166 
L 4259 0 
L 3256 0 
L 2078 1838 
L 1325 1838 
z
M 2909 3028 
Q 2909 3506 2676 3707 
Q 2444 3909 1859 3909 
L 1325 3909 
L 1325 2119 
L 1878 2119 
Q 2438 2119 2673 2326 
Q 2909 2534 2909 3028 
z
" transform="scale(0.015625)"/>
       <path id="LiberationSerif-2d" d="M 238 1269 
L 238 1747 
L 1900 1747 
L 1900 1269 
L 238 1269 
z
" transform="scale(0.015625)"/>
       <path id="LiberationSerif-2e" d="M 1178 288 
Q 1178 134 1070 21 
Q 963 -91 800 -91 
Q 638 -91 530 21 
Q 422 134 422 288 
Q 422 447 531 556 
Q 641 666 800 666 
Q 959 666 1068 556 
Q 1178 447 1178 288 
z
" transform="scale(0.015625)"/>
       <path id="LiberationSerif-39" d="M 206 2913 
Q 206 3544 559 3891 
Q 913 4238 1556 4238 
Q 2272 4238 2605 3722 
Q 2938 3206 2938 2106 
Q 2938 1053 2509 495 
Q 2081 -63 1306 -63 
Q 797 -63 372 44 
L 372 769 
L 575 769 
L 684 319 
Q 784 272 953 234 
Q 1122 197 1294 197 
Q 1794 197 2062 636 
Q 2331 1075 2359 1928 
Q 1884 1663 1394 1663 
Q 841 1663 523 1992 
Q 206 2322 206 2913 
z
M 1563 3988 
Q 781 3988 781 2900 
Q 781 2422 968 2194 
Q 1156 1966 1550 1966 
Q 1953 1966 2363 2131 
Q 2363 3091 2173 3539 
Q 1984 3988 1563 3988 
z
" transform="scale(0.015625)"/>
       <path id="LiberationSerif-35" d="M 1516 2450 
Q 2241 2450 2595 2153 
Q 2950 1856 2950 1247 
Q 2950 616 2565 276 
Q 2181 -63 1466 -63 
Q 872 -63 406 72 
L 372 953 
L 578 953 
L 719 366 
Q 856 291 1048 244 
Q 1241 197 1416 197 
Q 1909 197 2142 430 
Q 2375 663 2375 1216 
Q 2375 1603 2275 1801 
Q 2175 2000 1956 2094 
Q 1738 2188 1369 2188 
Q 1084 2188 813 2113 
L 513 2113 
L 513 4191 
L 2638 4191 
L 2638 3713 
L 794 3713 
L 794 2375 
Q 1131 2450 1516 2450 
z
" transform="scale(0.015625)"/>
      </defs>
      <use xlink:href="#LiberationSerif-6c" transform="translate(0 0.5125)"/>
      <use xlink:href="#LiberationSerif-72" transform="translate(27.783203 0.5125)"/>
      <use xlink:href="#LiberationSerif-3d" transform="translate(80.566406 0.5125)"/>
      <use xlink:href="#LiberationSerif-31" transform="translate(156.445312 0.5125)"/>
      <use xlink:href="#LiberationSerif-30" transform="translate(206.445312 0.5125)"/>
      <use xlink:href="#LiberationSerif-2212" transform="translate(257.248672 32.646875) scale(0.7)"/>
      <use xlink:href="#LiberationSerif-32" transform="translate(296.726211 32.646875) scale(0.7)"/>
      <use xlink:href="#LiberationSerif-2c" transform="translate(334.021523 0.5125)"/>
      <use xlink:href="#LiberationSerif-20" transform="translate(359.021523 0.5125)"/>
      <use xlink:href="#LiberationSerif-45" transform="translate(384.021523 0.5125)"/>
      <use xlink:href="#LiberationSerif-4c" transform="translate(445.105508 0.5125)"/>
      <use xlink:href="#LiberationSerif-52" transform="translate(506.189492 0.5125)"/>
      <use xlink:href="#LiberationSerif-2d" transform="translate(572.888711 0.5125)"/>
      <use xlink:href="#LiberationSerif-30" transform="translate(606.189492 0.5125)"/>
      <use xlink:href="#LiberationSerif-2e" transform="translate(656.189492 0.5125)"/>
      <use xlink:href="#LiberationSerif-39" transform="translate(681.189492 0.5125)"/>
      <use xlink:href="#LiberationSerif-35" transform="translate(731.189492 0.5125)"/>
     </g>
    </g>
    <g id="line2d_37">
     <path d="M 339.220774 64.830311 
L 349.220774 64.830311 
L 359.220774 64.830311 
" style="fill: none; stroke: #2ca02c; stroke-width: 0.5; stroke-linecap: square"/>
    </g>
    <g id="text_33">
     <!-- $\mathdefault{lr = 10^{-2}}$, RLRoP-0.1-10 -->
     <g transform="translate(367.220774 68.330311) scale(0.1 -0.1)">
      <defs>
       <path id="LiberationSerif-6f" d="M 2956 1484 
Q 2956 -63 1581 -63 
Q 919 -63 581 334 
Q 244 731 244 1484 
Q 244 2228 581 2622 
Q 919 3016 1606 3016 
Q 2275 3016 2615 2630 
Q 2956 2244 2956 1484 
z
M 2394 1484 
Q 2394 2159 2197 2462 
Q 2000 2766 1581 2766 
Q 1172 2766 989 2475 
Q 806 2184 806 1484 
Q 806 775 992 479 
Q 1178 184 1581 184 
Q 1994 184 2194 490 
Q 2394 797 2394 1484 
z
" transform="scale(0.015625)"/>
       <path id="LiberationSerif-50" d="M 2681 2950 
Q 2681 3466 2440 3687 
Q 2200 3909 1631 3909 
L 1325 3909 
L 1325 1925 
L 1650 1925 
Q 2178 1925 2429 2165 
Q 2681 2406 2681 2950 
z
M 1325 1644 
L 1325 250 
L 1991 166 
L 1991 0 
L 225 0 
L 225 166 
L 722 250 
L 722 3944 
L 184 4025 
L 184 4191 
L 1766 4191 
Q 3303 4191 3303 2956 
Q 3303 2313 2914 1978 
Q 2525 1644 1797 1644 
L 1325 1644 
z
" transform="scale(0.015625)"/>
      </defs>
      <use xlink:href="#LiberationSerif-6c" transform="translate(0 0.5125)"/>
      <use xlink:href="#LiberationSerif-72" transform="translate(27.783203 0.5125)"/>
      <use xlink:href="#LiberationSerif-3d" transform="translate(80.566406 0.5125)"/>
      <use xlink:href="#LiberationSerif-31" transform="translate(156.445312 0.5125)"/>
      <use xlink:href="#LiberationSerif-30" transform="translate(206.445312 0.5125)"/>
      <use xlink:href="#LiberationSerif-2212" transform="translate(257.248672 32.646875) scale(0.7)"/>
      <use xlink:href="#LiberationSerif-32" transform="translate(296.726211 32.646875) scale(0.7)"/>
      <use xlink:href="#LiberationSerif-2c" transform="translate(334.021523 0.5125)"/>
      <use xlink:href="#LiberationSerif-20" transform="translate(359.021523 0.5125)"/>
      <use xlink:href="#LiberationSerif-52" transform="translate(384.021523 0.5125)"/>
      <use xlink:href="#LiberationSerif-4c" transform="translate(450.720742 0.5125)"/>
      <use xlink:href="#LiberationSerif-52" transform="translate(511.804727 0.5125)"/>
      <use xlink:href="#LiberationSerif-6f" transform="translate(578.503945 0.5125)"/>
      <use xlink:href="#LiberationSerif-50" transform="translate(628.503945 0.5125)"/>
      <use xlink:href="#LiberationSerif-2d" transform="translate(684.11918 0.5125)"/>
      <use xlink:href="#LiberationSerif-30" transform="translate(717.419961 0.5125)"/>
      <use xlink:href="#LiberationSerif-2e" transform="translate(767.419961 0.5125)"/>
      <use xlink:href="#LiberationSerif-31" transform="translate(792.419961 0.5125)"/>
      <use xlink:href="#LiberationSerif-2d" transform="translate(842.419961 0.5125)"/>
      <use xlink:href="#LiberationSerif-31" transform="translate(875.720742 0.5125)"/>
      <use xlink:href="#LiberationSerif-30" transform="translate(925.720742 0.5125)"/>
     </g>
    </g>
    <g id="line2d_38">
     <path d="M 339.220774 79.330311 
L 349.220774 79.330311 
L 359.220774 79.330311 
" style="fill: none; stroke: #d62728; stroke-width: 0.5; stroke-linecap: square"/>
    </g>
    <g id="text_34">
     <!-- $\mathdefault{lr = 10^{-2}}$, RLRoP-0.5-2 -->
     <g transform="translate(367.220774 82.830311) scale(0.1 -0.1)">
      <use xlink:href="#LiberationSerif-6c" transform="translate(0 0.5125)"/>
      <use xlink:href="#LiberationSerif-72" transform="translate(27.783203 0.5125)"/>
      <use xlink:href="#LiberationSerif-3d" transform="translate(80.566406 0.5125)"/>
      <use xlink:href="#LiberationSerif-31" transform="translate(156.445312 0.5125)"/>
      <use xlink:href="#LiberationSerif-30" transform="translate(206.445312 0.5125)"/>
      <use xlink:href="#LiberationSerif-2212" transform="translate(257.248672 32.646875) scale(0.7)"/>
      <use xlink:href="#LiberationSerif-32" transform="translate(296.726211 32.646875) scale(0.7)"/>
      <use xlink:href="#LiberationSerif-2c" transform="translate(334.021523 0.5125)"/>
      <use xlink:href="#LiberationSerif-20" transform="translate(359.021523 0.5125)"/>
      <use xlink:href="#LiberationSerif-52" transform="translate(384.021523 0.5125)"/>
      <use xlink:href="#LiberationSerif-4c" transform="translate(450.720742 0.5125)"/>
      <use xlink:href="#LiberationSerif-52" transform="translate(511.804727 0.5125)"/>
      <use xlink:href="#LiberationSerif-6f" transform="translate(578.503945 0.5125)"/>
      <use xlink:href="#LiberationSerif-50" transform="translate(628.503945 0.5125)"/>
      <use xlink:href="#LiberationSerif-2d" transform="translate(684.11918 0.5125)"/>
      <use xlink:href="#LiberationSerif-30" transform="translate(717.419961 0.5125)"/>
      <use xlink:href="#LiberationSerif-2e" transform="translate(767.419961 0.5125)"/>
      <use xlink:href="#LiberationSerif-35" transform="translate(792.419961 0.5125)"/>
      <use xlink:href="#LiberationSerif-2d" transform="translate(842.419961 0.5125)"/>
      <use xlink:href="#LiberationSerif-32" transform="translate(875.720742 0.5125)"/>
     </g>
    </g>
   </g>
  </g>
  <g id="text_35">
   <!-- $\mathdefault{|N_{batch}| = 512}$ -->
   <g transform="translate(210.164882 11.40024) scale(0.12 -0.12)">
    <defs>
     <path id="LiberationSerif-7c" d="M 481 -1381 
L 481 4441 
L 800 4441 
L 800 -1381 
L 481 -1381 
z
" transform="scale(0.015625)"/>
     <path id="LiberationSerif-4e" d="M 3609 3944 
L 3047 4025 
L 3047 4191 
L 4475 4191 
L 4475 4025 
L 3938 3944 
L 3938 0 
L 3634 0 
L 1050 3769 
L 1050 250 
L 1613 166 
L 1613 0 
L 184 0 
L 184 166 
L 722 250 
L 722 3944 
L 184 4025 
L 184 4191 
L 1453 4191 
L 3609 1088 
L 3609 3944 
z
" transform="scale(0.015625)"/>
     <path id="LiberationSerif-62" d="M 2394 1550 
Q 2394 2125 2194 2406 
Q 1994 2688 1575 2688 
Q 1391 2688 1209 2655 
Q 1028 2622 947 2584 
L 947 256 
Q 1209 206 1575 206 
Q 2006 206 2200 543 
Q 2394 881 2394 1550 
z
M 428 4225 
L 0 4300 
L 0 4441 
L 947 4441 
L 947 3391 
Q 947 3222 928 2772 
Q 1241 3016 1716 3016 
Q 2316 3016 2636 2652 
Q 2956 2288 2956 1550 
Q 2956 759 2604 348 
Q 2253 -63 1588 -63 
Q 1319 -63 995 -3 
Q 672 56 428 153 
L 428 4225 
z
" transform="scale(0.015625)"/>
     <path id="LiberationSerif-61" d="M 1453 3003 
Q 1934 3003 2161 2806 
Q 2388 2609 2388 2203 
L 2388 219 
L 2753 141 
L 2753 0 
L 1947 0 
L 1888 294 
Q 1531 -63 978 -63 
Q 225 -63 225 813 
Q 225 1106 339 1298 
Q 453 1491 703 1592 
Q 953 1694 1428 1703 
L 1869 1716 
L 1869 2175 
Q 1869 2478 1758 2622 
Q 1647 2766 1416 2766 
Q 1103 2766 844 2619 
L 738 2253 
L 563 2253 
L 563 2894 
Q 1069 3003 1453 3003 
z
M 1869 1497 
L 1459 1484 
Q 1041 1469 892 1322 
Q 744 1175 744 831 
Q 744 281 1191 281 
Q 1403 281 1558 329 
Q 1713 378 1869 453 
L 1869 1497 
z
" transform="scale(0.015625)"/>
     <path id="LiberationSerif-68" d="M 1019 3169 
Q 1019 2844 997 2700 
Q 1222 2828 1508 2922 
Q 1794 3016 1991 3016 
Q 2372 3016 2565 2794 
Q 2759 2572 2759 2150 
L 2759 219 
L 3116 141 
L 3116 0 
L 1850 0 
L 1850 141 
L 2241 219 
L 2241 2113 
Q 2241 2650 1722 2650 
Q 1428 2650 1019 2559 
L 1019 219 
L 1416 141 
L 1416 0 
L 128 0 
L 128 141 
L 500 219 
L 500 4225 
L 63 4300 
L 63 4441 
L 1019 4441 
L 1019 3169 
z
" transform="scale(0.015625)"/>
    </defs>
    <use xlink:href="#LiberationSerif-7c" transform="translate(0 0.609375)"/>
    <use xlink:href="#LiberationSerif-4e" transform="translate(20.019531 0.609375)"/>
    <use xlink:href="#LiberationSerif-62" transform="translate(93.039687 -13.1625) scale(0.7)"/>
    <use xlink:href="#LiberationSerif-61" transform="translate(128.039687 -13.1625) scale(0.7)"/>
    <use xlink:href="#LiberationSerif-74" transform="translate(159.109023 -13.1625) scale(0.7)"/>
    <use xlink:href="#LiberationSerif-63" transform="translate(178.557266 -13.1625) scale(0.7)"/>
    <use xlink:href="#LiberationSerif-68" transform="translate(209.626602 -13.1625) scale(0.7)"/>
    <use xlink:href="#LiberationSerif-7c" transform="translate(246.921914 0.609375)"/>
    <use xlink:href="#LiberationSerif-3d" transform="translate(286.423867 0.609375)"/>
    <use xlink:href="#LiberationSerif-35" transform="translate(362.302773 0.609375)"/>
    <use xlink:href="#LiberationSerif-31" transform="translate(412.302773 0.609375)"/>
    <use xlink:href="#LiberationSerif-32" transform="translate(462.302773 0.609375)"/>
   </g>
  </g>
 </g>
 <defs>
  <clipPath id="p5b58fbcd98">
   <rect x="40.56899" y="23.330311" width="192.306902" height="137.776917"/>
  </clipPath>
  <clipPath id="p48e20a4cd4">
   <rect x="281.513872" y="23.330311" width="192.306902" height="137.776917"/>
  </clipPath>
 </defs>
</svg>
