<?xml version="1.0" encoding="utf-8" standalone="no"?>
<!DOCTYPE svg PUBLIC "-//W3C//DTD SVG 1.1//EN"
  "http://www.w3.org/Graphics/SVG/1.1/DTD/svg11.dtd">
<svg xmlns:xlink="http://www.w3.org/1999/xlink" width="481.889764pt" height="180.708661pt" viewBox="0 0 481.889764 180.708661" xmlns="http://www.w3.org/2000/svg" version="1.1">
 <metadata>
  <rdf:RDF xmlns:dc="http://purl.org/dc/elements/1.1/" xmlns:cc="http://creativecommons.org/ns#" xmlns:rdf="http://www.w3.org/1999/02/22-rdf-syntax-ns#">
   <cc:Work>
    <dc:type rdf:resource="http://purl.org/dc/dcmitype/StillImage"/>
    <dc:date>2023-06-01T15:48:12.638711</dc:date>
    <dc:format>image/svg+xml</dc:format>
    <dc:creator>
     <cc:Agent>
      <dc:title>Matplotlib v3.7.1, https://matplotlib.org/</dc:title>
     </cc:Agent>
    </dc:creator>
   </cc:Work>
  </rdf:RDF>
 </metadata>
 <defs>
  <style type="text/css">*{stroke-linejoin: round; stroke-linecap: butt}</style>
 </defs>
 <g id="figure_1">
  <g id="patch_1">
   <path d="M 0 180.708661 
L 481.889764 180.708661 
L 481.889764 0 
L 0 0 
z
" style="fill: #ffffff"/>
  </g>
  <g id="axes_1">
   <g id="patch_2">
    <path d="M 40.56899 149.059984 
L 232.875892 149.059984 
L 232.875892 17.327115 
L 40.56899 17.327115 
z
" style="fill: #ffffff"/>
   </g>
   <g id="matplotlib.axis_1">
    <g id="xtick_1">
     <g id="line2d_1">
      <defs>
       <path id="mb6eeae82d7" d="M 0 0 
L 0 3.5 
" style="stroke: #000000; stroke-width: 0.8"/>
      </defs>
      <g>
       <use xlink:href="#mb6eeae82d7" x="40.56899" y="149.059984" style="stroke: #000000; stroke-width: 0.8"/>
      </g>
     </g>
     <g id="text_1">
      <!-- 0 -->
      <g transform="translate(38.034615 162.861546) scale(0.1 -0.1)">
       <defs>
        <path id="Calibri-30" d="M 3022 2031 
Q 3022 1566 2948 1181 
Q 2875 797 2704 520 
Q 2534 244 2259 92 
Q 1984 -59 1581 -59 
Q 1200 -59 939 77 
Q 678 213 518 477 
Q 359 741 292 1127 
Q 225 1513 225 2013 
Q 225 2475 300 2861 
Q 375 3247 544 3523 
Q 713 3800 988 3951 
Q 1263 4103 1663 4103 
Q 2047 4103 2308 3967 
Q 2569 3831 2728 3567 
Q 2888 3303 2955 2917 
Q 3022 2531 3022 2031 
z
M 2472 1994 
Q 2472 2297 2450 2537 
Q 2428 2778 2386 2962 
Q 2344 3147 2276 3280 
Q 2209 3413 2115 3498 
Q 2022 3584 1901 3623 
Q 1781 3663 1631 3663 
Q 1366 3663 1200 3538 
Q 1034 3413 939 3194 
Q 844 2975 809 2681 
Q 775 2388 775 2050 
Q 775 1597 822 1280 
Q 869 963 970 763 
Q 1072 563 1230 472 
Q 1388 381 1613 381 
Q 1788 381 1920 437 
Q 2053 494 2148 598 
Q 2244 703 2306 850 
Q 2369 997 2406 1175 
Q 2444 1353 2458 1561 
Q 2472 1769 2472 1994 
z
" transform="scale(0.015625)"/>
       </defs>
       <use xlink:href="#Calibri-30"/>
      </g>
     </g>
    </g>
    <g id="xtick_2">
     <g id="line2d_2">
      <g>
       <use xlink:href="#mb6eeae82d7" x="72.62014" y="149.059984" style="stroke: #000000; stroke-width: 0.8"/>
      </g>
     </g>
     <g id="text_2">
      <!-- 5 -->
      <g transform="translate(70.085765 162.861546) scale(0.1 -0.1)">
       <defs>
        <path id="Calibri-35" d="M 2869 1300 
Q 2869 975 2759 722 
Q 2650 469 2450 295 
Q 2250 122 1973 31 
Q 1697 -59 1359 -59 
Q 1172 -59 1003 -32 
Q 834 -6 703 33 
Q 572 72 487 109 
Q 403 147 379 169 
Q 356 191 347 209 
Q 338 228 330 254 
Q 322 281 319 322 
Q 316 363 316 419 
Q 316 472 320 514 
Q 325 556 337 582 
Q 350 609 367 621 
Q 384 634 406 634 
Q 438 634 503 595 
Q 569 556 680 511 
Q 791 466 955 425 
Q 1119 384 1344 384 
Q 1553 384 1728 434 
Q 1903 484 2029 590 
Q 2156 697 2228 858 
Q 2300 1019 2300 1250 
Q 2300 1444 2239 1592 
Q 2178 1741 2051 1839 
Q 1925 1938 1731 1986 
Q 1538 2034 1269 2034 
Q 1078 2034 940 2015 
Q 803 1997 684 1997 
Q 597 1997 559 2037 
Q 522 2078 522 2194 
L 522 3841 
Q 522 3944 570 3994 
Q 619 4044 709 4044 
L 2500 4044 
Q 2525 4044 2548 4030 
Q 2572 4016 2587 3987 
Q 2603 3959 2611 3915 
Q 2619 3872 2619 3813 
Q 2619 3700 2587 3637 
Q 2556 3575 2500 3575 
L 991 3575 
L 991 2441 
Q 1100 2456 1214 2459 
Q 1328 2463 1478 2463 
Q 1825 2463 2084 2380 
Q 2344 2297 2517 2145 
Q 2691 1994 2780 1778 
Q 2869 1563 2869 1300 
z
" transform="scale(0.015625)"/>
       </defs>
       <use xlink:href="#Calibri-35"/>
      </g>
     </g>
    </g>
    <g id="xtick_3">
     <g id="line2d_3">
      <g>
       <use xlink:href="#mb6eeae82d7" x="104.671291" y="149.059984" style="stroke: #000000; stroke-width: 0.8"/>
      </g>
     </g>
     <g id="text_3">
      <!-- 10 -->
      <g transform="translate(99.602541 162.861546) scale(0.1 -0.1)">
       <defs>
        <path id="Calibri-31" d="M 2897 213 
Q 2897 153 2887 112 
Q 2878 72 2862 47 
Q 2847 22 2826 11 
Q 2806 0 2784 0 
L 672 0 
Q 650 0 631 11 
Q 613 22 595 47 
Q 578 72 568 112 
Q 559 153 559 213 
Q 559 269 568 309 
Q 578 350 592 376 
Q 606 403 626 417 
Q 647 431 672 431 
L 1516 431 
L 1516 3506 
L 734 3041 
Q 675 3009 639 3003 
Q 603 2997 581 3017 
Q 559 3038 551 3084 
Q 544 3131 544 3203 
Q 544 3256 548 3293 
Q 553 3331 562 3356 
Q 572 3381 589 3400 
Q 606 3419 634 3438 
L 1566 4034 
Q 1578 4044 1597 4050 
Q 1616 4056 1644 4062 
Q 1672 4069 1709 4070 
Q 1747 4072 1803 4072 
Q 1878 4072 1928 4065 
Q 1978 4059 2006 4048 
Q 2034 4038 2043 4020 
Q 2053 4003 2053 3984 
L 2053 431 
L 2784 431 
Q 2809 431 2831 417 
Q 2853 403 2867 376 
Q 2881 350 2889 309 
Q 2897 269 2897 213 
z
" transform="scale(0.015625)"/>
       </defs>
       <use xlink:href="#Calibri-31"/>
       <use xlink:href="#Calibri-30" x="50.683594"/>
      </g>
     </g>
    </g>
    <g id="xtick_4">
     <g id="line2d_4">
      <g>
       <use xlink:href="#mb6eeae82d7" x="136.722441" y="149.059984" style="stroke: #000000; stroke-width: 0.8"/>
      </g>
     </g>
     <g id="text_4">
      <!-- 15 -->
      <g transform="translate(131.653691 162.861546) scale(0.1 -0.1)">
       <use xlink:href="#Calibri-31"/>
       <use xlink:href="#Calibri-35" x="50.683594"/>
      </g>
     </g>
    </g>
    <g id="xtick_5">
     <g id="line2d_5">
      <g>
       <use xlink:href="#mb6eeae82d7" x="168.773591" y="149.059984" style="stroke: #000000; stroke-width: 0.8"/>
      </g>
     </g>
     <g id="text_5">
      <!-- 20 -->
      <g transform="translate(163.704841 162.861546) scale(0.1 -0.1)">
       <defs>
        <path id="Calibri-32" d="M 2888 231 
Q 2888 175 2880 131 
Q 2872 88 2858 58 
Q 2844 28 2820 14 
Q 2797 0 2769 0 
L 534 0 
Q 491 0 458 11 
Q 425 22 401 47 
Q 378 72 367 119 
Q 356 166 356 234 
Q 356 297 361 344 
Q 366 391 381 427 
Q 397 463 420 498 
Q 444 534 481 575 
L 1266 1406 
Q 1538 1694 1702 1922 
Q 1866 2150 1955 2337 
Q 2044 2525 2072 2678 
Q 2100 2831 2100 2966 
Q 2100 3100 2056 3220 
Q 2013 3341 1930 3431 
Q 1847 3522 1722 3575 
Q 1597 3628 1434 3628 
Q 1244 3628 1092 3575 
Q 941 3522 827 3459 
Q 713 3397 636 3344 
Q 559 3291 522 3291 
Q 500 3291 483 3303 
Q 466 3316 455 3344 
Q 444 3372 437 3419 
Q 431 3466 431 3531 
Q 431 3578 434 3612 
Q 438 3647 445 3672 
Q 453 3697 465 3719 
Q 478 3741 515 3773 
Q 553 3806 645 3862 
Q 738 3919 877 3973 
Q 1016 4028 1183 4065 
Q 1350 4103 1534 4103 
Q 1828 4103 2048 4020 
Q 2269 3938 2414 3794 
Q 2559 3650 2631 3459 
Q 2703 3269 2703 3053 
Q 2703 2859 2668 2667 
Q 2634 2475 2523 2251 
Q 2413 2028 2203 1754 
Q 1994 1481 1647 1125 
L 1006 456 
L 2766 456 
Q 2791 456 2814 442 
Q 2838 428 2855 400 
Q 2872 372 2880 330 
Q 2888 288 2888 231 
z
" transform="scale(0.015625)"/>
       </defs>
       <use xlink:href="#Calibri-32"/>
       <use xlink:href="#Calibri-30" x="50.683594"/>
      </g>
     </g>
    </g>
    <g id="xtick_6">
     <g id="line2d_6">
      <g>
       <use xlink:href="#mb6eeae82d7" x="200.824742" y="149.059984" style="stroke: #000000; stroke-width: 0.8"/>
      </g>
     </g>
     <g id="text_6">
      <!-- 25 -->
      <g transform="translate(195.755992 162.861546) scale(0.1 -0.1)">
       <use xlink:href="#Calibri-32"/>
       <use xlink:href="#Calibri-35" x="50.683594"/>
      </g>
     </g>
    </g>
    <g id="xtick_7">
     <g id="line2d_7">
      <g>
       <use xlink:href="#mb6eeae82d7" x="232.875892" y="149.059984" style="stroke: #000000; stroke-width: 0.8"/>
      </g>
     </g>
     <g id="text_7">
      <!-- 30 -->
      <g transform="translate(227.807142 162.861546) scale(0.1 -0.1)">
       <defs>
        <path id="Calibri-33" d="M 2856 1156 
Q 2856 878 2759 654 
Q 2663 431 2481 272 
Q 2300 113 2034 27 
Q 1769 -59 1434 -59 
Q 1231 -59 1054 -26 
Q 878 6 740 51 
Q 603 97 512 145 
Q 422 194 398 216 
Q 375 238 362 259 
Q 350 281 340 312 
Q 331 344 326 389 
Q 322 434 322 500 
Q 322 613 344 656 
Q 366 700 406 700 
Q 434 700 517 650 
Q 600 600 729 542 
Q 859 484 1032 434 
Q 1206 384 1419 384 
Q 1625 384 1781 437 
Q 1938 491 2044 587 
Q 2150 684 2203 817 
Q 2256 950 2256 1106 
Q 2256 1278 2189 1415 
Q 2122 1553 1992 1653 
Q 1863 1753 1673 1806 
Q 1484 1859 1244 1859 
L 859 1859 
Q 834 1859 811 1870 
Q 788 1881 770 1906 
Q 753 1931 742 1972 
Q 731 2013 731 2078 
Q 731 2138 740 2177 
Q 750 2216 767 2239 
Q 784 2263 806 2273 
Q 828 2284 856 2284 
L 1209 2284 
Q 1416 2284 1580 2337 
Q 1744 2391 1858 2491 
Q 1972 2591 2033 2730 
Q 2094 2869 2094 3041 
Q 2094 3166 2053 3280 
Q 2013 3394 1931 3478 
Q 1850 3563 1723 3611 
Q 1597 3659 1431 3659 
Q 1250 3659 1098 3604 
Q 947 3550 828 3487 
Q 709 3425 631 3370 
Q 553 3316 522 3316 
Q 500 3316 483 3323 
Q 466 3331 455 3354 
Q 444 3378 439 3420 
Q 434 3463 434 3531 
Q 434 3578 437 3614 
Q 441 3650 450 3676 
Q 459 3703 471 3725 
Q 484 3747 514 3776 
Q 544 3806 634 3862 
Q 725 3919 858 3973 
Q 991 4028 1164 4065 
Q 1338 4103 1538 4103 
Q 1819 4103 2031 4031 
Q 2244 3959 2386 3828 
Q 2528 3697 2598 3514 
Q 2669 3331 2669 3109 
Q 2669 2919 2619 2755 
Q 2569 2591 2472 2464 
Q 2375 2338 2234 2248 
Q 2094 2159 1909 2125 
L 1909 2119 
Q 2119 2097 2292 2014 
Q 2466 1931 2591 1806 
Q 2716 1681 2786 1514 
Q 2856 1347 2856 1156 
z
" transform="scale(0.015625)"/>
       </defs>
       <use xlink:href="#Calibri-33"/>
       <use xlink:href="#Calibri-30" x="50.683594"/>
      </g>
     </g>
    </g>
    <g id="text_8">
     <!-- time [sec] -->
     <g transform="translate(116.870878 175.578734) scale(0.1 -0.1)">
      <defs>
       <path id="LiberationSerif-74" d="M 1044 -63 
Q 744 -63 595 115 
Q 447 294 447 616 
L 447 2675 
L 63 2675 
L 63 2816 
L 453 2938 
L 769 3603 
L 966 3603 
L 966 2938 
L 1638 2938 
L 1638 2675 
L 966 2675 
L 966 672 
Q 966 469 1058 366 
Q 1150 263 1300 263 
Q 1481 263 1741 313 
L 1741 109 
Q 1631 34 1425 -14 
Q 1219 -63 1044 -63 
z
" transform="scale(0.015625)"/>
       <path id="LiberationSerif-69" d="M 1184 3897 
Q 1184 3759 1084 3659 
Q 984 3559 844 3559 
Q 706 3559 606 3659 
Q 506 3759 506 3897 
Q 506 4038 606 4138 
Q 706 4238 844 4238 
Q 984 4238 1084 4138 
Q 1184 4038 1184 3897 
z
M 1153 219 
L 1656 141 
L 1656 0 
L 134 0 
L 134 141 
L 634 219 
L 634 2719 
L 219 2797 
L 219 2938 
L 1153 2938 
L 1153 219 
z
" transform="scale(0.015625)"/>
       <path id="LiberationSerif-6d" d="M 1019 2700 
Q 1253 2834 1515 2925 
Q 1778 3016 1978 3016 
Q 2194 3016 2376 2934 
Q 2559 2853 2650 2675 
Q 2891 2809 3214 2912 
Q 3538 3016 3750 3016 
Q 4500 3016 4500 2150 
L 4500 219 
L 4878 141 
L 4878 0 
L 3544 0 
L 3544 141 
L 3981 219 
L 3981 2094 
Q 3981 2631 3481 2631 
Q 3400 2631 3292 2618 
Q 3184 2606 3076 2590 
Q 2969 2575 2870 2554 
Q 2772 2534 2706 2522 
Q 2759 2353 2759 2150 
L 2759 219 
L 3200 141 
L 3200 0 
L 1806 0 
L 1806 141 
L 2241 219 
L 2241 2094 
Q 2241 2353 2108 2492 
Q 1975 2631 1709 2631 
Q 1434 2631 1025 2541 
L 1025 219 
L 1466 141 
L 1466 0 
L 134 0 
L 134 141 
L 506 219 
L 506 2719 
L 134 2797 
L 134 2938 
L 994 2938 
L 1019 2700 
z
" transform="scale(0.015625)"/>
       <path id="LiberationSerif-65" d="M 813 1478 
L 813 1422 
Q 813 991 908 752 
Q 1003 513 1201 388 
Q 1400 263 1722 263 
Q 1891 263 2122 291 
Q 2353 319 2503 353 
L 2503 178 
Q 2353 81 2095 9 
Q 1838 -63 1569 -63 
Q 884 -63 567 306 
Q 250 675 250 1491 
Q 250 2259 572 2637 
Q 894 3016 1491 3016 
Q 2619 3016 2619 1734 
L 2619 1478 
L 813 1478 
z
M 1491 2766 
Q 1166 2766 992 2503 
Q 819 2241 819 1728 
L 2075 1728 
Q 2075 2288 1931 2527 
Q 1788 2766 1491 2766 
z
" transform="scale(0.015625)"/>
       <path id="LiberationSerif-20" transform="scale(0.015625)"/>
       <path id="LiberationSerif-5b" d="M 475 -856 
L 475 4441 
L 1900 4441 
L 1900 4294 
L 972 4166 
L 972 -581 
L 1900 -709 
L 1900 -856 
L 475 -856 
z
" transform="scale(0.015625)"/>
       <path id="LiberationSerif-73" d="M 2259 825 
Q 2259 388 1982 162 
Q 1706 -63 1166 -63 
Q 947 -63 683 -17 
Q 419 28 269 84 
L 269 806 
L 409 806 
L 563 397 
Q 797 184 1172 184 
Q 1778 184 1778 703 
Q 1778 1084 1300 1247 
L 1022 1338 
Q 706 1441 562 1547 
Q 419 1653 341 1808 
Q 263 1963 263 2181 
Q 263 2569 527 2792 
Q 791 3016 1241 3016 
Q 1563 3016 2047 2919 
L 2047 2278 
L 1900 2278 
L 1769 2619 
Q 1603 2766 1247 2766 
Q 994 2766 861 2641 
Q 728 2516 728 2303 
Q 728 2125 848 2003 
Q 969 1881 1213 1800 
Q 1672 1644 1812 1572 
Q 1953 1500 2051 1395 
Q 2150 1291 2204 1156 
Q 2259 1022 2259 825 
z
" transform="scale(0.015625)"/>
       <path id="LiberationSerif-63" d="M 2644 178 
Q 2491 66 2222 1 
Q 1953 -63 1672 -63 
Q 244 -63 244 1491 
Q 244 2225 608 2620 
Q 972 3016 1650 3016 
Q 2072 3016 2572 2919 
L 2572 2100 
L 2400 2100 
L 2266 2619 
Q 2006 2766 1644 2766 
Q 806 2766 806 1491 
Q 806 828 1061 545 
Q 1316 263 1850 263 
Q 2306 263 2644 366 
L 2644 178 
z
" transform="scale(0.015625)"/>
       <path id="LiberationSerif-5d" d="M 231 -856 
L 231 -709 
L 1159 -581 
L 1159 4166 
L 231 4294 
L 231 4441 
L 1656 4441 
L 1656 -856 
L 231 -856 
z
" transform="scale(0.015625)"/>
      </defs>
      <use xlink:href="#LiberationSerif-74"/>
      <use xlink:href="#LiberationSerif-69" x="27.783203"/>
      <use xlink:href="#LiberationSerif-6d" x="55.566406"/>
      <use xlink:href="#LiberationSerif-65" x="133.349609"/>
      <use xlink:href="#LiberationSerif-20" x="177.734375"/>
      <use xlink:href="#LiberationSerif-5b" x="202.734375"/>
      <use xlink:href="#LiberationSerif-73" x="236.035156"/>
      <use xlink:href="#LiberationSerif-65" x="274.951172"/>
      <use xlink:href="#LiberationSerif-63" x="319.335938"/>
      <use xlink:href="#LiberationSerif-5d" x="363.720703"/>
     </g>
    </g>
   </g>
   <g id="matplotlib.axis_2">
    <g id="ytick_1">
     <g id="line2d_8">
      <defs>
       <path id="m029bb22734" d="M 0 0 
L -3.5 0 
" style="stroke: #000000; stroke-width: 0.8"/>
      </defs>
      <g>
       <use xlink:href="#m029bb22734" x="40.56899" y="122.809722" style="stroke: #000000; stroke-width: 0.8"/>
      </g>
     </g>
     <g id="text_9">
      <!-- $\mathdefault{10^{-2}}$ -->
      <g transform="translate(16.06899 126.210503) scale(0.1 -0.1)">
       <defs>
        <path id="Calibri-2212" d="M 2934 1797 
Q 2934 1681 2904 1628 
Q 2875 1575 2819 1575 
L 356 1575 
Q 297 1575 267 1628 
Q 238 1681 238 1797 
Q 238 1909 267 1964 
Q 297 2019 356 2019 
L 2819 2019 
Q 2875 2019 2904 1966 
Q 2934 1913 2934 1797 
z
" transform="scale(0.015625)"/>
       </defs>
       <use xlink:href="#Calibri-31" transform="translate(0 0.442188)"/>
       <use xlink:href="#Calibri-30" transform="translate(50.683594 0.442188)"/>
       <use xlink:href="#Calibri-2212" transform="translate(102.184219 33.123438) scale(0.7)"/>
       <use xlink:href="#Calibri-32" transform="translate(137.0475 33.123438) scale(0.7)"/>
      </g>
     </g>
    </g>
    <g id="ytick_2">
     <g id="line2d_9">
      <g>
       <use xlink:href="#m029bb22734" x="40.56899" y="81.803382" style="stroke: #000000; stroke-width: 0.8"/>
      </g>
     </g>
     <g id="text_10">
      <!-- $\mathdefault{10^{0}}$ -->
      <g transform="translate(19.56899 85.204163) scale(0.1 -0.1)">
       <use xlink:href="#Calibri-31" transform="translate(0 0.442188)"/>
       <use xlink:href="#Calibri-30" transform="translate(50.683594 0.442188)"/>
       <use xlink:href="#Calibri-30" transform="translate(102.184219 33.123438) scale(0.7)"/>
      </g>
     </g>
    </g>
    <g id="ytick_3">
     <g id="line2d_10">
      <g>
       <use xlink:href="#m029bb22734" x="40.56899" y="40.797042" style="stroke: #000000; stroke-width: 0.8"/>
      </g>
     </g>
     <g id="text_11">
      <!-- $\mathdefault{10^{2}}$ -->
      <g transform="translate(19.56899 44.197823) scale(0.1 -0.1)">
       <use xlink:href="#Calibri-31" transform="translate(0 0.442188)"/>
       <use xlink:href="#Calibri-30" transform="translate(50.683594 0.442188)"/>
       <use xlink:href="#Calibri-32" transform="translate(102.184219 33.123438) scale(0.7)"/>
      </g>
     </g>
    </g>
    <g id="text_12">
     <!-- $\mathdefault{MSE_f}$ -->
     <g transform="translate(9.939303 94.843549) rotate(-90) scale(0.1 -0.1)">
      <defs>
       <path id="LiberationSerif-4d" d="M 2694 0 
L 2584 0 
L 1050 3603 
L 1050 250 
L 1613 166 
L 1613 0 
L 184 0 
L 184 166 
L 722 250 
L 722 3944 
L 184 4025 
L 184 4191 
L 1453 4191 
L 2816 1003 
L 4303 4191 
L 5503 4191 
L 5503 4025 
L 4966 3944 
L 4966 250 
L 5503 166 
L 5503 0 
L 3803 0 
L 3803 166 
L 4366 250 
L 4366 3603 
L 2694 0 
z
" transform="scale(0.015625)"/>
       <path id="LiberationSerif-53" d="M 434 1128 
L 638 1128 
L 747 563 
Q 863 416 1145 303 
Q 1428 191 1703 191 
Q 2141 191 2386 414 
Q 2631 638 2631 1031 
Q 2631 1256 2536 1403 
Q 2441 1550 2286 1651 
Q 2131 1753 1934 1823 
Q 1738 1894 1530 1966 
Q 1322 2038 1125 2125 
Q 928 2213 773 2347 
Q 619 2481 523 2679 
Q 428 2878 428 3169 
Q 428 3669 803 3953 
Q 1178 4238 1844 4238 
Q 2350 4238 2944 4103 
L 2944 3231 
L 2741 3231 
L 2631 3744 
Q 2313 3975 1844 3975 
Q 1425 3975 1189 3804 
Q 953 3634 953 3334 
Q 953 3131 1048 2997 
Q 1144 2863 1298 2767 
Q 1453 2672 1651 2603 
Q 1850 2534 2058 2461 
Q 2266 2388 2464 2295 
Q 2663 2203 2817 2061 
Q 2972 1919 3067 1714 
Q 3163 1509 3163 1209 
Q 3163 603 2791 270 
Q 2419 -63 1719 -63 
Q 1381 -63 1040 -3 
Q 700 56 434 159 
L 434 1128 
z
" transform="scale(0.015625)"/>
       <path id="LiberationSerif-45" d="M 184 166 
L 722 250 
L 722 3944 
L 184 4025 
L 184 4191 
L 3328 4191 
L 3328 3188 
L 3122 3188 
L 3022 3866 
Q 2672 3909 2009 3909 
L 1325 3909 
L 1325 2272 
L 2456 2272 
L 2553 2772 
L 2753 2772 
L 2753 1484 
L 2553 1484 
L 2456 1991 
L 1325 1991 
L 1325 281 
L 2150 281 
Q 2956 281 3206 331 
L 3384 1106 
L 3591 1106 
L 3531 0 
L 184 0 
L 184 166 
z
" transform="scale(0.015625)"/>
       <path id="LiberationSerif-66" d="M 703 2675 
L 197 2675 
L 197 2828 
L 703 2950 
L 703 3156 
Q 703 3806 961 4156 
Q 1219 4506 1684 4506 
Q 1925 4506 2131 4447 
L 2131 3806 
L 1978 3806 
L 1838 4191 
Q 1731 4256 1581 4256 
Q 1384 4256 1303 4081 
Q 1222 3906 1222 3425 
L 1222 2938 
L 2003 2938 
L 2003 2675 
L 1222 2675 
L 1222 244 
L 1856 141 
L 1856 0 
L 269 0 
L 269 141 
L 703 244 
L 703 2675 
z
" transform="scale(0.015625)"/>
      </defs>
      <use xlink:href="#LiberationSerif-4d" transform="translate(0 0.78125)"/>
      <use xlink:href="#LiberationSerif-53" transform="translate(88.916016 0.78125)"/>
      <use xlink:href="#LiberationSerif-45" transform="translate(144.53125 0.78125)"/>
      <use xlink:href="#LiberationSerif-66" transform="translate(206.418594 -12.990625) scale(0.7)"/>
     </g>
    </g>
   </g>
   <g id="line2d_11">
    <path d="M 41.40232 20.486495 
L 43.004877 52.788518 
L 43.838207 76.92783 
L 44.607435 87.309967 
L 45.440765 90.233635 
L 46.209992 91.913275 
L 47.043322 93.337779 
L 47.81255 86.681535 
L 48.64588 94.866786 
L 49.47921 81.151129 
L 50.248437 97.7295 
L 51.081767 98.335477 
L 51.850995 96.60529 
L 52.684325 97.745491 
L 53.453552 96.544477 
L 54.286882 100.220414 
L 55.120212 105.068704 
L 55.88944 104.757283 
L 56.72277 83.604198 
L 57.491997 99.733788 
L 58.325327 108.220605 
L 59.094555 109.462422 
L 59.927885 109.778229 
L 60.761215 84.959033 
L 61.530442 110.822125 
L 62.363772 112.227245 
L 63.133 112.703709 
L 63.96633 112.427537 
L 64.79966 87.291807 
L 65.568887 73.332865 
L 66.402217 103.587633 
L 67.171445 113.883328 
L 68.004775 115.051365 
L 68.774002 116.849404 
L 69.607332 88.997123 
L 70.440662 100.463212 
L 71.20989 115.051365 
L 72.04322 103.131667 
L 73.645777 118.001374 
L 74.415005 119.544257 
L 75.248335 92.761679 
L 76.081665 97.477472 
L 76.850892 119.336884 
L 77.684222 104.939714 
L 78.45345 88.50182 
L 79.28678 116.991878 
L 80.056007 117.949634 
L 80.889337 121.238349 
L 81.658565 122.426302 
L 82.491895 77.146802 
L 83.325225 90.096991 
L 84.094452 106.142421 
L 84.927782 121.201108 
L 85.69701 123.611423 
L 86.53034 124.48176 
L 87.299567 123.34838 
L 88.132897 74.191526 
L 88.966227 94.027236 
L 89.735455 124.87045 
L 90.568784 125.134709 
L 91.338012 120.858448 
L 92.171342 86.347533 
L 93.004672 108.901678 
L 93.7739 126.159108 
L 94.607229 117.65533 
L 95.376457 123.173217 
L 96.209787 109.883952 
L 97.043117 87.321543 
L 97.812344 121.549751 
L 98.645674 120.94469 
L 99.414902 122.366797 
L 100.248232 95.866957 
L 101.017459 92.637563 
L 101.850789 106.358733 
L 102.684119 96.675979 
L 103.453347 114.233219 
L 104.286677 126.135791 
L 105.055904 128.709946 
L 105.889234 128.866779 
L 151.850584 130.660278 
L 164.735146 131.251457 
L 170.440251 131.552934 
L 202.619606 133.339525 
L 209.029836 133.740625 
L 222.747728 134.588091 
L 228.324629 134.967059 
L 232.875892 135.250551 
L 232.875892 135.250551 
" clip-path="url(#p9d572d40d1)" style="fill: none; stroke: #1f77b4; stroke-width: 0.5; stroke-linecap: square"/>
   </g>
   <g id="line2d_12">
    <path d="M 41.40232 29.873888 
L 42.171548 61.911055 
L 43.004877 78.294446 
L 43.838207 92.083954 
L 44.671537 84.241225 
L 45.440765 93.846359 
L 46.274095 98.289988 
L 47.107425 92.010805 
L 47.876652 104.607294 
L 48.709982 83.815981 
L 49.543312 99.096798 
L 50.31254 71.640307 
L 51.14587 94.649361 
L 51.9792 108.613199 
L 52.748427 98.016328 
L 53.581757 114.597423 
L 54.415087 88.178999 
L 55.184315 88.54728 
L 56.017644 102.569515 
L 56.850974 73.388065 
L 57.620202 93.849803 
L 58.453532 103.288365 
L 59.286862 100.046017 
L 60.056089 115.636481 
L 60.889419 77.236988 
L 61.722749 80.621044 
L 62.491977 104.926558 
L 63.325307 112.276215 
L 64.158637 123.25241 
L 64.927864 96.642921 
L 65.761194 83.47005 
L 66.594524 96.516549 
L 67.363752 113.424794 
L 68.197082 124.569213 
L 69.030411 114.084921 
L 69.799639 88.469759 
L 70.632969 93.75728 
L 71.466299 92.586603 
L 73.068856 117.801266 
L 73.902186 125.244053 
L 74.671414 90.729107 
L 75.504744 93.052942 
L 76.338074 109.345842 
L 77.107301 84.365022 
L 77.940631 97.137199 
L 78.773961 101.787701 
L 79.543189 122.59854 
L 80.376519 75.329291 
L 81.209849 89.803559 
L 81.979076 115.61264 
L 82.812406 122.624665 
L 83.645736 131.924258 
L 84.414964 134.195763 
L 85.248294 134.558059 
L 89.286738 135.005508 
L 133.132712 138.967837 
L 137.235259 139.268015 
L 138.837817 139.462342 
L 141.273704 139.596246 
L 148.581367 140.228202 
L 149.414696 140.361437 
L 150.248026 140.367832 
L 151.017254 140.496697 
L 151.850584 140.503189 
L 153.453141 140.713488 
L 154.286471 140.700198 
L 155.889029 140.915258 
L 161.594134 141.41902 
L 162.427463 141.3831 
L 164.030021 141.637633 
L 165.632579 141.674597 
L 166.465908 141.674597 
L 167.299238 141.899657 
L 168.068466 141.869318 
L 168.901796 142.045195 
L 169.735126 142.022056 
L 171.337683 142.272021 
L 172.171013 142.248287 
L 173.773571 142.480415 
L 174.606901 142.472309 
L 175.376128 142.619358 
L 177.042788 142.652367 
L 177.812016 142.836142 
L 179.478675 142.844587 
L 180.247903 143.041047 
L 181.081233 143.02379 
L 181.914563 143.180317 
L 183.51712 143.206675 
L 185.119678 143.355736 
L 186.786338 143.634745 
L 187.555565 143.554786 
L 188.388895 143.610774 
L 189.222225 143.823216 
L 190.824783 143.794032 
L 191.658113 144.046649 
L 192.42734 144.028297 
L 194.094 144.270875 
L 201.401662 144.929237 
L 202.234992 144.790459 
L 203.00422 145.069128 
L 203.83755 144.932441 
L 205.440107 145.316565 
L 207.106767 145.45253 
L 207.875995 145.325491 
L 208.709325 145.56534 
L 209.542654 145.531004 
L 210.311882 145.735526 
L 216.016987 146.067761 
L 216.850317 146.326271 
L 217.619544 146.118866 
L 218.452874 146.460931 
L 220.888762 146.696066 
L 221.722092 146.55783 
L 222.491319 146.771905 
L 225.760537 147.155613 
L 226.593866 147.236869 
L 227.363094 146.843098 
L 228.196424 147.327256 
L 229.029754 146.844422 
L 229.798981 147.520823 
L 230.632311 146.952307 
L 231.465641 147.624263 
L 232.234869 147.768485 
L 232.875892 147.455359 
L 232.875892 147.455359 
" clip-path="url(#p9d572d40d1)" style="fill: none; stroke: #ff7f0e; stroke-width: 0.5; stroke-linecap: square"/>
   </g>
   <g id="line2d_13">
    <path d="M 41.786934 41.446114 
L 43.004877 59.925047 
L 44.158719 80.818139 
L 45.376663 72.077457 
L 46.594606 104.21263 
L 47.81255 73.637229 
L 49.030494 67.817245 
L 50.248437 75.802124 
L 51.402279 92.758631 
L 52.620223 95.046206 
L 53.838166 106.197387 
L 55.05611 79.710202 
L 56.274054 59.17892 
L 57.491997 73.680039 
L 59.863782 110.410104 
L 62.29967 127.023368 
L 63.517614 131.662955 
L 65.889399 135.558261 
L 67.107342 117.05231 
L 68.325286 79.433 
L 69.54323 83.608559 
L 70.761174 98.543102 
L 71.915015 109.838192 
L 73.132959 124.14857 
L 74.350902 133.826128 
L 75.568846 137.691787 
L 76.78679 119.725032 
L 77.940631 70.37025 
L 79.158575 80.43585 
L 80.376519 104.111729 
L 81.594462 118.804508 
L 82.812406 130.389207 
L 85.184191 138.656312 
L 86.402135 140.010479 
L 87.620079 141.719156 
L 88.838022 138.698639 
L 89.991864 108.2518 
L 91.209807 70.995871 
L 92.427751 78.948331 
L 93.645695 101.96588 
L 94.863639 122.659619 
L 96.01748 111.9101 
L 97.235424 62.709714 
L 98.453367 98.815647 
L 99.671311 101.409433 
L 100.889255 122.165748 
L 102.043096 131.519717 
L 103.26104 133.734549 
L 104.478984 134.269632 
L 108.068713 135.211031 
L 114.158431 136.517581 
L 129.799392 136.813015 
L 169.606921 136.843105 
L 233.068199 136.843105 
L 233.068199 136.843105 
" clip-path="url(#p9d572d40d1)" style="fill: none; stroke: #2ca02c; stroke-width: 0.5; stroke-linecap: square"/>
   </g>
   <g id="line2d_14">
    <path d="M 43.261287 18.995337 
L 45.953583 21.367628 
L 48.581778 22.544027 
L 51.274074 18.618614 
L 53.902269 31.252169 
L 56.594565 19.542863 
L 59.286862 25.767466 
L 61.915056 35.880385 
L 64.607353 22.023035 
L 67.235547 26.823873 
L 69.927844 34.545191 
L 72.62014 19.89341 
L 75.248335 26.773957 
L 77.940631 26.512365 
L 80.568826 23.781821 
L 83.261122 24.936465 
L 85.889317 22.298661 
L 88.581613 18.94928 
L 91.27391 24.327825 
L 93.902104 60.815026 
L 96.594401 77.826608 
L 99.222595 90.802195 
L 101.914892 100.150245 
L 104.607188 103.221998 
L 107.235383 105.221799 
L 109.927679 106.829961 
L 112.555874 108.222336 
L 115.24817 109.484328 
L 117.940467 110.645476 
L 120.568661 111.710749 
L 123.260958 112.695126 
L 125.889152 113.600318 
L 128.581449 114.432554 
L 131.273745 115.190294 
L 133.90194 115.894832 
L 136.594236 116.5667 
L 139.222431 117.207582 
L 141.914727 117.811419 
L 144.607024 118.38305 
L 147.235218 118.918815 
L 149.927515 119.439967 
L 152.555709 119.928861 
L 155.248006 120.412088 
L 157.8762 120.872764 
L 160.568497 121.305779 
L 163.260793 121.753021 
L 165.888988 122.174035 
L 168.581284 122.589848 
L 171.209479 123.001435 
L 173.901775 123.406272 
L 176.594072 123.814432 
L 179.222266 124.209841 
L 181.914563 124.632365 
L 184.542757 125.020983 
L 187.235054 125.402284 
L 189.92735 125.781978 
L 192.555545 126.152625 
L 195.247841 126.516391 
L 197.876036 126.860499 
L 200.568332 127.238919 
L 203.196527 127.554891 
L 205.888823 127.891938 
L 208.58112 128.270153 
L 211.209314 128.605197 
L 213.901611 128.917909 
L 216.529805 129.258522 
L 219.222102 129.530861 
L 221.850296 129.823529 
L 224.542593 130.156574 
L 227.234889 130.466719 
L 229.863084 130.766271 
L 232.55538 131.053749 
L 233.452813 131.262954 
" clip-path="url(#p9d572d40d1)" style="fill: none; stroke: #d62728; stroke-width: 0.5; stroke-linecap: square"/>
   </g>
   <g id="patch_3">
    <path d="M 40.56899 149.059984 
L 40.56899 17.327115 
" style="fill: none; stroke: #000000; stroke-width: 0.8; stroke-linejoin: miter; stroke-linecap: square"/>
   </g>
   <g id="patch_4">
    <path d="M 232.875892 149.059984 
L 232.875892 17.327115 
" style="fill: none; stroke: #000000; stroke-width: 0.8; stroke-linejoin: miter; stroke-linecap: square"/>
   </g>
   <g id="patch_5">
    <path d="M 40.56899 149.059984 
L 232.875892 149.059984 
" style="fill: none; stroke: #000000; stroke-width: 0.8; stroke-linejoin: miter; stroke-linecap: square"/>
   </g>
   <g id="patch_6">
    <path d="M 40.56899 17.327115 
L 232.875892 17.327115 
" style="fill: none; stroke: #000000; stroke-width: 0.8; stroke-linejoin: miter; stroke-linecap: square"/>
   </g>
   <g id="text_13">
    <!-- σ = sin, L = 2 -->
    <g transform="translate(104.279316 11.327115) scale(0.12 -0.12)">
     <defs>
      <path id="LiberationSerif-3c3" d="M 3175 3275 
L 3353 3275 
L 3297 2675 
L 2388 2675 
L 2388 2653 
Q 2678 2400 2833 2064 
Q 2988 1728 2988 1369 
Q 2988 703 2620 320 
Q 2253 -63 1634 -63 
Q 1000 -63 622 359 
Q 244 781 244 1478 
Q 244 2163 689 2550 
Q 1134 2938 1909 2938 
L 3000 2938 
L 3175 3275 
z
M 1666 184 
Q 2019 184 2219 500 
Q 2419 816 2419 1388 
Q 2419 1816 2316 2152 
Q 2213 2488 2031 2675 
Q 1438 2675 1122 2351 
Q 806 2028 806 1409 
Q 806 831 1039 507 
Q 1272 184 1666 184 
z
" transform="scale(0.015625)"/>
      <path id="LiberationSerif-3d" d="M 3297 1644 
L 3297 1325 
L 319 1325 
L 319 1644 
L 3297 1644 
z
M 3297 2925 
L 3297 2606 
L 319 2606 
L 319 2925 
L 3297 2925 
z
" transform="scale(0.015625)"/>
      <path id="LiberationSerif-6e" d="M 1013 2700 
Q 1253 2838 1525 2927 
Q 1797 3016 1978 3016 
Q 2359 3016 2553 2794 
Q 2747 2572 2747 2150 
L 2747 219 
L 3103 141 
L 3103 0 
L 1838 0 
L 1838 141 
L 2228 219 
L 2228 2094 
Q 2228 2353 2101 2501 
Q 1975 2650 1709 2650 
Q 1428 2650 1019 2559 
L 1019 219 
L 1416 141 
L 1416 0 
L 147 0 
L 147 141 
L 500 219 
L 500 2719 
L 147 2797 
L 147 2938 
L 984 2938 
L 1013 2700 
z
" transform="scale(0.015625)"/>
      <path id="LiberationSerif-2c" d="M 1197 153 
Q 1197 -275 948 -564 
Q 700 -853 244 -984 
L 244 -744 
Q 794 -569 794 -219 
Q 794 -156 747 -106 
Q 700 -56 584 3 
Q 372 113 372 313 
Q 372 481 478 570 
Q 584 659 750 659 
Q 950 659 1073 515 
Q 1197 372 1197 153 
z
" transform="scale(0.015625)"/>
      <path id="LiberationSerif-4c" d="M 1972 4025 
L 1325 3944 
L 1325 269 
L 2150 269 
Q 2816 269 3128 331 
L 3322 1203 
L 3525 1203 
L 3469 0 
L 184 0 
L 184 166 
L 722 250 
L 722 3944 
L 184 4025 
L 184 4191 
L 1972 4191 
L 1972 4025 
z
" transform="scale(0.015625)"/>
      <path id="LiberationSerif-32" d="M 2847 0 
L 281 0 
L 281 459 
L 863 988 
Q 1422 1478 1684 1781 
Q 1947 2084 2061 2406 
Q 2175 2728 2175 3144 
Q 2175 3550 1990 3762 
Q 1806 3975 1388 3975 
Q 1222 3975 1047 3929 
Q 872 3884 738 3809 
L 628 3297 
L 422 3297 
L 422 4103 
Q 991 4238 1388 4238 
Q 2075 4238 2420 3952 
Q 2766 3666 2766 3144 
Q 2766 2794 2630 2483 
Q 2494 2172 2212 1864 
Q 1931 1556 1281 1003 
Q 1003 766 691 481 
L 2847 481 
L 2847 0 
z
" transform="scale(0.015625)"/>
     </defs>
     <use xlink:href="#LiberationSerif-3c3"/>
     <use xlink:href="#LiberationSerif-20" x="53.90625"/>
     <use xlink:href="#LiberationSerif-3d" x="78.90625"/>
     <use xlink:href="#LiberationSerif-20" x="135.302734"/>
     <use xlink:href="#LiberationSerif-73" x="160.302734"/>
     <use xlink:href="#LiberationSerif-69" x="199.21875"/>
     <use xlink:href="#LiberationSerif-6e" x="227.001953"/>
     <use xlink:href="#LiberationSerif-2c" x="277.001953"/>
     <use xlink:href="#LiberationSerif-20" x="302.001953"/>
     <use xlink:href="#LiberationSerif-4c" x="327.001953"/>
     <use xlink:href="#LiberationSerif-20" x="384.335938"/>
     <use xlink:href="#LiberationSerif-3d" x="409.335938"/>
     <use xlink:href="#LiberationSerif-20" x="465.732422"/>
     <use xlink:href="#LiberationSerif-32" x="490.732422"/>
    </g>
   </g>
   <g id="legend_1">
    <g id="patch_7">
     <path d="M 156.014954 81.845865 
L 225.875892 81.845865 
Q 227.875892 81.845865 227.875892 79.845865 
L 227.875892 24.327115 
Q 227.875892 22.327115 225.875892 22.327115 
L 156.014954 22.327115 
Q 154.014954 22.327115 154.014954 24.327115 
L 154.014954 79.845865 
Q 154.014954 81.845865 156.014954 81.845865 
z
" style="fill: #ffffff; opacity: 0.8; stroke: #cccccc; stroke-linejoin: miter"/>
    </g>
    <g id="line2d_15">
     <path d="M 158.014954 29.827115 
L 168.014954 29.827115 
L 178.014954 29.827115 
" style="fill: none; stroke: #1f77b4; stroke-width: 0.5; stroke-linecap: square"/>
    </g>
    <g id="text_14">
     <!-- N = 64 -->
     <g transform="translate(186.014954 33.327115) scale(0.1 -0.1)">
      <defs>
       <path id="LiberationSerif-4e" d="M 3609 3944 
L 3047 4025 
L 3047 4191 
L 4475 4191 
L 4475 4025 
L 3938 3944 
L 3938 0 
L 3634 0 
L 1050 3769 
L 1050 250 
L 1613 166 
L 1613 0 
L 184 0 
L 184 166 
L 722 250 
L 722 3944 
L 184 4025 
L 184 4191 
L 1453 4191 
L 3609 1088 
L 3609 3944 
z
" transform="scale(0.015625)"/>
       <path id="LiberationSerif-36" d="M 3009 1300 
Q 3009 647 2679 292 
Q 2350 -63 1728 -63 
Q 1022 -63 648 487 
Q 275 1038 275 2069 
Q 275 2744 472 3234 
Q 669 3725 1023 3981 
Q 1378 4238 1844 4238 
Q 2300 4238 2753 4128 
L 2753 3406 
L 2547 3406 
L 2438 3834 
Q 2334 3891 2159 3933 
Q 1984 3975 1844 3975 
Q 1388 3975 1133 3533 
Q 878 3091 853 2241 
Q 1363 2509 1875 2509 
Q 2428 2509 2718 2198 
Q 3009 1888 3009 1300 
z
M 1716 184 
Q 2094 184 2262 429 
Q 2431 675 2431 1241 
Q 2431 1753 2270 1981 
Q 2109 2209 1759 2209 
Q 1331 2209 850 2053 
Q 850 1100 1065 642 
Q 1281 184 1716 184 
z
" transform="scale(0.015625)"/>
       <path id="LiberationSerif-34" d="M 2531 922 
L 2531 0 
L 1994 0 
L 1994 922 
L 125 922 
L 125 1338 
L 2172 4213 
L 2531 4213 
L 2531 1369 
L 3100 1369 
L 3100 922 
L 2531 922 
z
M 1994 3478 
L 1978 3478 
L 478 1369 
L 1994 1369 
L 1994 3478 
z
" transform="scale(0.015625)"/>
      </defs>
      <use xlink:href="#LiberationSerif-4e"/>
      <use xlink:href="#LiberationSerif-20" x="72.216797"/>
      <use xlink:href="#LiberationSerif-3d" x="97.216797"/>
      <use xlink:href="#LiberationSerif-20" x="153.613281"/>
      <use xlink:href="#LiberationSerif-36" x="178.613281"/>
      <use xlink:href="#LiberationSerif-34" x="228.613281"/>
     </g>
    </g>
    <g id="line2d_16">
     <path d="M 158.014954 43.956803 
L 168.014954 43.956803 
L 178.014954 43.956803 
" style="fill: none; stroke: #ff7f0e; stroke-width: 0.5; stroke-linecap: square"/>
    </g>
    <g id="text_15">
     <!-- N = 128 -->
     <g transform="translate(186.014954 47.456803) scale(0.1 -0.1)">
      <defs>
       <path id="LiberationSerif-31" d="M 1959 250 
L 2816 166 
L 2816 0 
L 563 0 
L 563 166 
L 1422 250 
L 1422 3669 
L 575 3366 
L 575 3531 
L 1797 4225 
L 1959 4225 
L 1959 250 
z
" transform="scale(0.015625)"/>
       <path id="LiberationSerif-38" d="M 2828 3169 
Q 2828 2825 2661 2586 
Q 2494 2347 2209 2222 
Q 2566 2091 2761 1811 
Q 2956 1531 2956 1131 
Q 2956 538 2622 237 
Q 2288 -63 1581 -63 
Q 244 -63 244 1131 
Q 244 1547 444 1820 
Q 644 2094 984 2222 
Q 713 2347 542 2584 
Q 372 2822 372 3169 
Q 372 3688 689 3972 
Q 1006 4256 1606 4256 
Q 2188 4256 2508 3973 
Q 2828 3691 2828 3169 
z
M 2394 1131 
Q 2394 1631 2198 1856 
Q 2003 2081 1581 2081 
Q 1169 2081 987 1867 
Q 806 1653 806 1131 
Q 806 603 990 393 
Q 1175 184 1581 184 
Q 1997 184 2195 401 
Q 2394 619 2394 1131 
z
M 2266 3169 
Q 2266 3600 2097 3803 
Q 1928 4006 1588 4006 
Q 1256 4006 1095 3809 
Q 934 3613 934 3169 
Q 934 2734 1090 2545 
Q 1247 2356 1588 2356 
Q 1938 2356 2102 2548 
Q 2266 2741 2266 3169 
z
" transform="scale(0.015625)"/>
      </defs>
      <use xlink:href="#LiberationSerif-4e"/>
      <use xlink:href="#LiberationSerif-20" x="72.216797"/>
      <use xlink:href="#LiberationSerif-3d" x="97.216797"/>
      <use xlink:href="#LiberationSerif-20" x="153.613281"/>
      <use xlink:href="#LiberationSerif-31" x="178.613281"/>
      <use xlink:href="#LiberationSerif-32" x="228.613281"/>
      <use xlink:href="#LiberationSerif-38" x="278.613281"/>
     </g>
    </g>
    <g id="line2d_17">
     <path d="M 158.014954 58.08649 
L 168.014954 58.08649 
L 178.014954 58.08649 
" style="fill: none; stroke: #2ca02c; stroke-width: 0.5; stroke-linecap: square"/>
    </g>
    <g id="text_16">
     <!-- N = 1024 -->
     <g transform="translate(186.014954 61.58649) scale(0.1 -0.1)">
      <defs>
       <path id="LiberationSerif-30" d="M 2956 2113 
Q 2956 -63 1581 -63 
Q 919 -63 581 493 
Q 244 1050 244 2113 
Q 244 3153 581 3704 
Q 919 4256 1606 4256 
Q 2269 4256 2612 3711 
Q 2956 3166 2956 2113 
z
M 2381 2113 
Q 2381 3119 2190 3562 
Q 2000 4006 1581 4006 
Q 1175 4006 997 3587 
Q 819 3169 819 2113 
Q 819 1050 1000 617 
Q 1181 184 1581 184 
Q 1994 184 2187 639 
Q 2381 1094 2381 2113 
z
" transform="scale(0.015625)"/>
      </defs>
      <use xlink:href="#LiberationSerif-4e"/>
      <use xlink:href="#LiberationSerif-20" x="72.216797"/>
      <use xlink:href="#LiberationSerif-3d" x="97.216797"/>
      <use xlink:href="#LiberationSerif-20" x="153.613281"/>
      <use xlink:href="#LiberationSerif-31" x="178.613281"/>
      <use xlink:href="#LiberationSerif-30" x="228.613281"/>
      <use xlink:href="#LiberationSerif-32" x="278.613281"/>
      <use xlink:href="#LiberationSerif-34" x="328.613281"/>
     </g>
    </g>
    <g id="line2d_18">
     <path d="M 158.014954 72.216178 
L 168.014954 72.216178 
L 178.014954 72.216178 
" style="fill: none; stroke: #d62728; stroke-width: 0.5; stroke-linecap: square"/>
    </g>
    <g id="text_17">
     <!-- N = 2048 -->
     <g transform="translate(186.014954 75.716178) scale(0.1 -0.1)">
      <use xlink:href="#LiberationSerif-4e"/>
      <use xlink:href="#LiberationSerif-20" x="72.216797"/>
      <use xlink:href="#LiberationSerif-3d" x="97.216797"/>
      <use xlink:href="#LiberationSerif-20" x="153.613281"/>
      <use xlink:href="#LiberationSerif-32" x="178.613281"/>
      <use xlink:href="#LiberationSerif-30" x="228.613281"/>
      <use xlink:href="#LiberationSerif-34" x="278.613281"/>
      <use xlink:href="#LiberationSerif-38" x="328.613281"/>
     </g>
    </g>
   </g>
  </g>
  <g id="axes_2">
   <g id="patch_8">
    <path d="M 281.513872 149.059984 
L 473.820774 149.059984 
L 473.820774 17.327115 
L 281.513872 17.327115 
z
" style="fill: #ffffff"/>
   </g>
   <g id="matplotlib.axis_3">
    <g id="xtick_8">
     <g id="line2d_19">
      <g>
       <use xlink:href="#mb6eeae82d7" x="281.513872" y="149.059984" style="stroke: #000000; stroke-width: 0.8"/>
      </g>
     </g>
     <g id="text_18">
      <!-- 0 -->
      <g transform="translate(278.979497 162.861546) scale(0.1 -0.1)">
       <use xlink:href="#Calibri-30"/>
      </g>
     </g>
    </g>
    <g id="xtick_9">
     <g id="line2d_20">
      <g>
       <use xlink:href="#mb6eeae82d7" x="313.565022" y="149.059984" style="stroke: #000000; stroke-width: 0.8"/>
      </g>
     </g>
     <g id="text_19">
      <!-- 5 -->
      <g transform="translate(311.030647 162.861546) scale(0.1 -0.1)">
       <use xlink:href="#Calibri-35"/>
      </g>
     </g>
    </g>
    <g id="xtick_10">
     <g id="line2d_21">
      <g>
       <use xlink:href="#mb6eeae82d7" x="345.616173" y="149.059984" style="stroke: #000000; stroke-width: 0.8"/>
      </g>
     </g>
     <g id="text_20">
      <!-- 10 -->
      <g transform="translate(340.547423 162.861546) scale(0.1 -0.1)">
       <use xlink:href="#Calibri-31"/>
       <use xlink:href="#Calibri-30" x="50.683594"/>
      </g>
     </g>
    </g>
    <g id="xtick_11">
     <g id="line2d_22">
      <g>
       <use xlink:href="#mb6eeae82d7" x="377.667323" y="149.059984" style="stroke: #000000; stroke-width: 0.8"/>
      </g>
     </g>
     <g id="text_21">
      <!-- 15 -->
      <g transform="translate(372.598573 162.861546) scale(0.1 -0.1)">
       <use xlink:href="#Calibri-31"/>
       <use xlink:href="#Calibri-35" x="50.683594"/>
      </g>
     </g>
    </g>
    <g id="xtick_12">
     <g id="line2d_23">
      <g>
       <use xlink:href="#mb6eeae82d7" x="409.718473" y="149.059984" style="stroke: #000000; stroke-width: 0.8"/>
      </g>
     </g>
     <g id="text_22">
      <!-- 20 -->
      <g transform="translate(404.649723 162.861546) scale(0.1 -0.1)">
       <use xlink:href="#Calibri-32"/>
       <use xlink:href="#Calibri-30" x="50.683594"/>
      </g>
     </g>
    </g>
    <g id="xtick_13">
     <g id="line2d_24">
      <g>
       <use xlink:href="#mb6eeae82d7" x="441.769623" y="149.059984" style="stroke: #000000; stroke-width: 0.8"/>
      </g>
     </g>
     <g id="text_23">
      <!-- 25 -->
      <g transform="translate(436.700873 162.861546) scale(0.1 -0.1)">
       <use xlink:href="#Calibri-32"/>
       <use xlink:href="#Calibri-35" x="50.683594"/>
      </g>
     </g>
    </g>
    <g id="xtick_14">
     <g id="line2d_25">
      <g>
       <use xlink:href="#mb6eeae82d7" x="473.820774" y="149.059984" style="stroke: #000000; stroke-width: 0.8"/>
      </g>
     </g>
     <g id="text_24">
      <!-- 30 -->
      <g transform="translate(468.752024 162.861546) scale(0.1 -0.1)">
       <use xlink:href="#Calibri-33"/>
       <use xlink:href="#Calibri-30" x="50.683594"/>
      </g>
     </g>
    </g>
    <g id="text_25">
     <!-- time [sec] -->
     <g transform="translate(357.81576 175.578734) scale(0.1 -0.1)">
      <use xlink:href="#LiberationSerif-74"/>
      <use xlink:href="#LiberationSerif-69" x="27.783203"/>
      <use xlink:href="#LiberationSerif-6d" x="55.566406"/>
      <use xlink:href="#LiberationSerif-65" x="133.349609"/>
      <use xlink:href="#LiberationSerif-20" x="177.734375"/>
      <use xlink:href="#LiberationSerif-5b" x="202.734375"/>
      <use xlink:href="#LiberationSerif-73" x="236.035156"/>
      <use xlink:href="#LiberationSerif-65" x="274.951172"/>
      <use xlink:href="#LiberationSerif-63" x="319.335938"/>
      <use xlink:href="#LiberationSerif-5d" x="363.720703"/>
     </g>
    </g>
   </g>
   <g id="matplotlib.axis_4">
    <g id="ytick_4">
     <g id="line2d_26">
      <g>
       <use xlink:href="#m029bb22734" x="281.513872" y="123.151209" style="stroke: #000000; stroke-width: 0.8"/>
      </g>
     </g>
     <g id="text_26">
      <!-- $\mathdefault{10^{-2}}$ -->
      <g transform="translate(257.013872 126.55199) scale(0.1 -0.1)">
       <use xlink:href="#Calibri-31" transform="translate(0 0.442188)"/>
       <use xlink:href="#Calibri-30" transform="translate(50.683594 0.442188)"/>
       <use xlink:href="#Calibri-2212" transform="translate(102.184219 33.123438) scale(0.7)"/>
       <use xlink:href="#Calibri-32" transform="translate(137.0475 33.123438) scale(0.7)"/>
      </g>
     </g>
    </g>
    <g id="ytick_5">
     <g id="line2d_27">
      <g>
       <use xlink:href="#m029bb22734" x="281.513872" y="82.70592" style="stroke: #000000; stroke-width: 0.8"/>
      </g>
     </g>
     <g id="text_27">
      <!-- $\mathdefault{10^{0}}$ -->
      <g transform="translate(260.513872 86.106701) scale(0.1 -0.1)">
       <use xlink:href="#Calibri-31" transform="translate(0 0.442188)"/>
       <use xlink:href="#Calibri-30" transform="translate(50.683594 0.442188)"/>
       <use xlink:href="#Calibri-30" transform="translate(102.184219 33.123438) scale(0.7)"/>
      </g>
     </g>
    </g>
    <g id="ytick_6">
     <g id="line2d_28">
      <g>
       <use xlink:href="#m029bb22734" x="281.513872" y="42.260631" style="stroke: #000000; stroke-width: 0.8"/>
      </g>
     </g>
     <g id="text_28">
      <!-- $\mathdefault{10^{2}}$ -->
      <g transform="translate(260.513872 45.661413) scale(0.1 -0.1)">
       <use xlink:href="#Calibri-31" transform="translate(0 0.442188)"/>
       <use xlink:href="#Calibri-30" transform="translate(50.683594 0.442188)"/>
       <use xlink:href="#Calibri-32" transform="translate(102.184219 33.123438) scale(0.7)"/>
      </g>
     </g>
    </g>
    <g id="text_29">
     <!-- $\mathdefault{MSE_f}$ -->
     <g transform="translate(250.884184 94.843549) rotate(-90) scale(0.1 -0.1)">
      <use xlink:href="#LiberationSerif-4d" transform="translate(0 0.78125)"/>
      <use xlink:href="#LiberationSerif-53" transform="translate(88.916016 0.78125)"/>
      <use xlink:href="#LiberationSerif-45" transform="translate(144.53125 0.78125)"/>
      <use xlink:href="#LiberationSerif-66" transform="translate(206.418594 -12.990625) scale(0.7)"/>
     </g>
    </g>
   </g>
   <g id="line2d_29">
    <path d="M 282.218997 18.618614 
L 282.86002 19.48071 
L 283.501043 22.05821 
L 284.206169 27.399418 
L 284.847192 31.381962 
L 287.539488 33.105714 
L 288.180511 33.754668 
L 288.885636 34.652633 
L 289.526659 35.964716 
L 290.231785 37.958867 
L 290.872808 41.010279 
L 292.218956 50.45192 
L 293.565104 61.074403 
L 294.84715 76.931196 
L 295.552276 82.601156 
L 296.193299 84.545759 
L 296.898424 85.182302 
L 298.18047 85.873648 
L 300.231744 86.515016 
L 304.206086 87.474902 
L 310.231703 88.892463 
L 330.936746 94.179264 
L 336.257237 96.023855 
L 340.231579 97.77116 
L 342.282853 98.795231 
L 346.257196 101.203763 
L 348.308469 102.609476 
L 351.641789 105.236578 
L 356.96228 110.085166 
L 361.000725 114.01179 
L 363.628919 116.531146 
L 367.667364 119.863727 
L 369.654535 121.226633 
L 371.641707 122.378246 
L 374.334003 123.634113 
L 378.372448 125.023596 
L 381.000642 125.728299 
L 386.385236 126.869978 
L 391.705727 127.815009 
L 393.692898 128.257639 
L 395.744172 128.569423 
L 397.09032 128.901131 
L 397.731343 128.746987 
L 398.372366 129.025394 
L 399.077491 129.156661 
L 399.718514 128.945188 
L 400.42364 129.533547 
L 401.064663 127.973258 
L 401.705686 129.504531 
L 402.410811 129.923535 
L 403.051834 129.959689 
L 403.756959 128.551537 
L 404.397982 129.923535 
L 405.103108 129.872413 
L 405.744131 130.371524 
L 406.385154 129.146226 
L 407.090279 130.482125 
L 407.731302 130.311779 
L 408.436427 131.050559 
L 409.07745 131.269151 
L 409.718473 130.647589 
L 410.423598 131.335804 
L 411.064621 131.665289 
L 411.769747 131.300193 
L 412.41077 130.007488 
L 413.115895 131.810035 
L 413.756918 131.918989 
L 414.397941 130.011323 
L 415.103066 131.598396 
L 415.744089 132.623361 
L 416.449215 132.530885 
L 417.090238 132.669967 
L 417.795363 131.033304 
L 418.436386 132.85095 
L 419.077409 133.205167 
L 419.782534 133.24111 
L 420.423557 133.400467 
L 421.128683 128.496484 
L 421.769706 133.174868 
L 422.410729 133.757462 
L 423.115854 133.813468 
L 423.756877 129.560836 
L 424.462002 132.858904 
L 425.103025 134.435259 
L 425.808151 134.120393 
L 426.449174 128.989467 
L 427.090197 134.857893 
L 427.795322 134.798147 
L 428.436345 134.592181 
L 429.14147 131.586914 
L 429.782493 134.218936 
L 430.487619 135.475255 
L 431.128642 135.460974 
L 431.769665 133.887708 
L 432.47479 134.050242 
L 433.115813 136.104702 
L 434.461961 136.112382 
L 435.167086 135.270424 
L 435.80811 134.931472 
L 436.449133 135.457408 
L 437.154258 136.878663 
L 437.795281 136.255696 
L 438.500406 132.406559 
L 439.141429 137.207541 
L 439.846554 134.302951 
L 440.487577 134.811389 
L 441.192703 137.387816 
L 441.833726 137.54017 
L 442.474749 132.241834 
L 443.179874 137.815653 
L 443.820897 137.727478 
L 444.526022 135.173225 
L 445.167045 137.839005 
L 445.872171 137.676832 
L 446.513194 138.294909 
L 447.154217 138.275228 
L 447.859342 134.225132 
L 448.500365 132.138595 
L 449.20549 137.970934 
L 449.846513 138.922686 
L 450.487536 138.60574 
L 451.192662 137.649329 
L 451.833685 131.059199 
L 452.53881 136.67971 
L 453.179833 139.598814 
L 453.884958 137.317024 
L 454.525981 137.769135 
L 455.167004 129.076976 
L 455.87213 137.185807 
L 456.513153 139.871569 
L 457.218278 140.189661 
L 457.859301 129.694868 
L 458.564426 133.914589 
L 459.205449 140.519708 
L 459.846472 140.140903 
L 460.551598 135.990294 
L 461.192621 137.410056 
L 461.897746 140.862645 
L 462.538769 140.751181 
L 463.179792 141.062864 
L 463.884917 137.904722 
L 464.52594 136.481156 
L 465.231065 138.364141 
L 465.872089 141.302373 
L 466.513112 141.358047 
L 467.218237 140.381199 
L 467.85926 135.899829 
L 468.564385 137.980434 
L 469.205408 140.318955 
L 469.846431 141.379016 
L 470.551556 136.602186 
L 471.192579 139.61025 
L 471.897705 140.875851 
L 472.538728 141.656272 
L 473.243853 141.957502 
L 473.820774 131.864343 
L 473.820774 131.864343 
" clip-path="url(#p0fce85ea54)" style="fill: none; stroke: #1f77b4; stroke-width: 0.5; stroke-linecap: square"/>
   </g>
   <g id="line2d_30">
    <path d="M 282.347202 31.486929 
L 283.116429 63.085762 
L 283.949759 79.244993 
L 284.783089 92.845833 
L 285.616419 85.110408 
L 286.385647 94.584125 
L 287.218977 98.966955 
L 288.052307 92.773685 
L 288.821534 105.197828 
L 289.654864 84.690983 
L 290.488194 99.762727 
L 291.257422 72.681898 
L 292.090751 95.37614 
L 292.924081 109.148924 
L 293.693309 98.69704 
L 294.526639 115.051271 
L 295.359969 88.994306 
L 296.129196 89.357548 
L 296.962526 103.18793 
L 297.795856 74.405742 
L 298.565084 94.587521 
L 299.398414 103.896944 
L 300.231744 100.698959 
L 301.000971 116.076113 
L 301.834301 78.202004 
L 302.667631 81.539759 
L 303.436859 105.512724 
L 304.270189 112.761822 
L 305.103519 123.58784 
L 305.872746 97.342424 
L 306.706076 84.349785 
L 307.539406 97.217781 
L 308.308634 113.894687 
L 309.141963 124.886626 
L 309.975293 114.545782 
L 310.744521 89.281088 
L 311.577851 94.496264 
L 312.411181 93.341605 
L 314.013738 118.211279 
L 314.847068 125.552233 
L 315.616296 91.509523 
L 316.449626 93.801563 
L 317.282956 109.871543 
L 318.052183 85.232512 
L 318.885513 97.829939 
L 319.718843 102.416813 
L 320.488071 122.942916 
L 321.321401 76.320408 
L 322.15473 90.596639 
L 322.923958 116.052599 
L 323.757288 122.968684 
L 324.590618 132.141039 
L 325.359846 134.381465 
L 326.193175 134.738805 
L 330.23162 135.180132 
L 374.077594 139.088248 
L 378.180141 139.384319 
L 379.782699 139.575987 
L 382.218586 139.708059 
L 389.526248 140.331368 
L 390.359578 140.462781 
L 391.192908 140.469088 
L 391.962136 140.59619 
L 392.795466 140.602593 
L 394.398023 140.810015 
L 395.231353 140.796906 
L 396.833911 141.009024 
L 402.539015 141.505894 
L 403.372345 141.470466 
L 404.974903 141.721516 
L 406.57746 141.757974 
L 407.41079 141.757974 
L 408.24412 141.979955 
L 409.013348 141.950031 
L 409.846678 142.123501 
L 410.680008 142.100679 
L 412.282565 142.347224 
L 413.115895 142.323814 
L 414.718453 142.552766 
L 415.551783 142.544771 
L 416.32101 142.689808 
L 417.98767 142.722366 
L 418.756898 142.903627 
L 420.423557 142.911956 
L 421.192785 143.105728 
L 422.026115 143.088707 
L 422.859445 143.243093 
L 424.462002 143.26909 
L 426.06456 143.416111 
L 427.73122 143.691304 
L 428.500447 143.612438 
L 429.333777 143.66766 
L 430.167107 143.877195 
L 431.769665 143.84841 
L 432.602994 144.097572 
L 433.372222 144.07947 
L 435.038882 144.318729 
L 442.346544 144.968084 
L 443.179874 144.831204 
L 443.949102 145.106061 
L 444.782432 144.971244 
L 446.384989 145.350113 
L 448.051649 145.484217 
L 448.820877 145.358916 
L 449.654206 145.595483 
L 450.487536 145.561617 
L 451.256764 145.763341 
L 456.961869 146.091031 
L 457.795199 146.346003 
L 458.564426 146.141436 
L 459.397756 146.478821 
L 461.833644 146.710739 
L 462.666973 146.574394 
L 463.436201 146.78554 
L 466.705418 147.163998 
L 467.538748 147.244143 
L 468.307976 146.855759 
L 469.141306 147.333293 
L 469.974636 146.857065 
L 470.743863 147.524211 
L 471.577193 146.963474 
L 472.410523 147.626237 
L 473.179751 147.768485 
L 473.820774 147.459643 
L 473.820774 147.459643 
" clip-path="url(#p0fce85ea54)" style="fill: none; stroke: #ff7f0e; stroke-width: 0.5; stroke-linecap: square"/>
   </g>
   <g id="line2d_31">
    <path d="M 282.411304 29.747263 
L 284.270271 70.104263 
L 285.231805 79.322321 
L 286.129238 86.524508 
L 287.02667 88.981735 
L 287.988204 91.009519 
L 288.885636 56.546241 
L 289.783069 81.017276 
L 291.642035 95.32426 
L 292.60357 96.819013 
L 293.501002 72.238847 
L 294.398434 97.973635 
L 295.359969 66.25586 
L 296.257401 85.56424 
L 297.154833 96.938086 
L 298.116368 100.857084 
L 299.0138 71.77144 
L 300.872767 100.318932 
L 301.770199 102.212081 
L 302.731733 100.430563 
L 303.629166 89.936233 
L 305.488132 107.543213 
L 306.385565 60.955516 
L 308.244531 93.727318 
L 309.141963 104.696145 
L 310.103498 81.593758 
L 311.00093 101.167754 
L 311.898362 107.014355 
L 312.859897 111.146677 
L 313.757329 112.272539 
L 314.718864 110.568396 
L 315.616296 77.47075 
L 316.513728 92.851407 
L 317.475263 101.261687 
L 318.372695 78.86825 
L 319.270127 100.01119 
L 320.231661 105.606339 
L 321.129094 94.573942 
L 322.090628 74.850303 
L 322.98806 97.135657 
L 323.885493 108.904483 
L 324.847027 114.136766 
L 325.744459 115.128435 
L 327.603426 115.506355 
L 338.629022 117.30849 
L 348.757185 118.844065 
L 374.590412 122.378246 
L 420.615864 127.691904 
L 425.23123 128.166999 
L 434.461961 129.059748 
L 460.231086 131.47971 
L 461.128518 131.461593 
L 462.987485 131.72803 
L 463.884917 131.679193 
L 468.500283 132.190063 
L 469.397715 132.15327 
L 471.256682 132.406559 
L 472.154114 132.391456 
L 473.884876 132.600151 
L 473.884876 132.600151 
" clip-path="url(#p0fce85ea54)" style="fill: none; stroke: #2ca02c; stroke-width: 0.5; stroke-linecap: square"/>
   </g>
   <g id="line2d_32">
    <path d="M 282.539509 22.563679 
L 284.654885 59.087736 
L 285.680521 67.999693 
L 287.795897 76.303445 
L 288.821534 82.70592 
L 289.847171 74.50184 
L 290.872808 81.821076 
L 291.962547 85.553302 
L 292.988184 61.456647 
L 295.039457 89.181389 
L 296.065094 76.867718 
L 297.154833 85.594694 
L 298.18047 96.710181 
L 299.206107 79.454755 
L 300.231744 72.452112 
L 301.321483 92.691167 
L 302.34712 102.475003 
L 303.372756 72.47948 
L 304.398393 82.506209 
L 305.42403 70.800449 
L 306.513769 93.70578 
L 307.539406 106.419614 
L 308.565043 109.074344 
L 309.59068 71.168033 
L 310.616316 76.908473 
L 311.706055 101.189342 
L 312.731692 110.825756 
L 313.757329 89.247729 
L 314.782966 72.698744 
L 315.872705 85.495195 
L 316.898342 103.03726 
L 317.923979 84.484248 
L 318.949615 84.4253 
L 321.064991 107.911767 
L 322.090628 95.357577 
L 323.116265 54.971831 
L 324.141902 26.797904 
L 325.231641 49.147639 
L 326.257278 64.477151 
L 327.282915 75.674098 
L 328.308551 80.795464 
L 329.334188 83.821644 
L 330.423927 86.094324 
L 331.449564 87.894416 
L 333.500838 90.775303 
L 334.526475 91.981449 
L 335.616214 93.083062 
L 347.026423 94.237837 
L 365.744295 94.372728 
L 402.090299 94.379362 
L 473.820774 94.379362 
L 473.820774 94.379362 
" clip-path="url(#p0fce85ea54)" style="fill: none; stroke: #d62728; stroke-width: 0.5; stroke-linecap: square"/>
   </g>
   <g id="patch_9">
    <path d="M 281.513872 149.059984 
L 281.513872 17.327115 
" style="fill: none; stroke: #000000; stroke-width: 0.8; stroke-linejoin: miter; stroke-linecap: square"/>
   </g>
   <g id="patch_10">
    <path d="M 473.820774 149.059984 
L 473.820774 17.327115 
" style="fill: none; stroke: #000000; stroke-width: 0.8; stroke-linejoin: miter; stroke-linecap: square"/>
   </g>
   <g id="patch_11">
    <path d="M 281.513872 149.059984 
L 473.820774 149.059984 
" style="fill: none; stroke: #000000; stroke-width: 0.8; stroke-linejoin: miter; stroke-linecap: square"/>
   </g>
   <g id="patch_12">
    <path d="M 281.513872 17.327115 
L 473.820774 17.327115 
" style="fill: none; stroke: #000000; stroke-width: 0.8; stroke-linejoin: miter; stroke-linecap: square"/>
   </g>
   <g id="text_30">
    <!-- σ = sin, N = 128 -->
    <g transform="translate(338.33076 11.327115) scale(0.12 -0.12)">
     <use xlink:href="#LiberationSerif-3c3"/>
     <use xlink:href="#LiberationSerif-20" x="53.90625"/>
     <use xlink:href="#LiberationSerif-3d" x="78.90625"/>
     <use xlink:href="#LiberationSerif-20" x="135.302734"/>
     <use xlink:href="#LiberationSerif-73" x="160.302734"/>
     <use xlink:href="#LiberationSerif-69" x="199.21875"/>
     <use xlink:href="#LiberationSerif-6e" x="227.001953"/>
     <use xlink:href="#LiberationSerif-2c" x="277.001953"/>
     <use xlink:href="#LiberationSerif-20" x="302.001953"/>
     <use xlink:href="#LiberationSerif-4e" x="327.001953"/>
     <use xlink:href="#LiberationSerif-20" x="399.21875"/>
     <use xlink:href="#LiberationSerif-3d" x="424.21875"/>
     <use xlink:href="#LiberationSerif-20" x="480.615234"/>
     <use xlink:href="#LiberationSerif-31" x="505.615234"/>
     <use xlink:href="#LiberationSerif-32" x="555.615234"/>
     <use xlink:href="#LiberationSerif-38" x="605.615234"/>
    </g>
   </g>
   <g id="legend_2">
    <g id="patch_13">
     <path d="M 413.448899 81.845865 
L 466.820774 81.845865 
Q 468.820774 81.845865 468.820774 79.845865 
L 468.820774 24.327115 
Q 468.820774 22.327115 466.820774 22.327115 
L 413.448899 22.327115 
Q 411.448899 22.327115 411.448899 24.327115 
L 411.448899 79.845865 
Q 411.448899 81.845865 413.448899 81.845865 
z
" style="fill: #ffffff; opacity: 0.8; stroke: #cccccc; stroke-linejoin: miter"/>
    </g>
    <g id="line2d_33">
     <path d="M 415.448899 29.827115 
L 425.448899 29.827115 
L 435.448899 29.827115 
" style="fill: none; stroke: #1f77b4; stroke-width: 0.5; stroke-linecap: square"/>
    </g>
    <g id="text_31">
     <!-- L = 1 -->
     <g transform="translate(443.448899 33.327115) scale(0.1 -0.1)">
      <use xlink:href="#LiberationSerif-4c"/>
      <use xlink:href="#LiberationSerif-20" x="57.333984"/>
      <use xlink:href="#LiberationSerif-3d" x="82.333984"/>
      <use xlink:href="#LiberationSerif-20" x="138.730469"/>
      <use xlink:href="#LiberationSerif-31" x="163.730469"/>
     </g>
    </g>
    <g id="line2d_34">
     <path d="M 415.448899 43.956803 
L 425.448899 43.956803 
L 435.448899 43.956803 
" style="fill: none; stroke: #ff7f0e; stroke-width: 0.5; stroke-linecap: square"/>
    </g>
    <g id="text_32">
     <!-- L = 2 -->
     <g transform="translate(443.448899 47.456803) scale(0.1 -0.1)">
      <use xlink:href="#LiberationSerif-4c"/>
      <use xlink:href="#LiberationSerif-20" x="57.333984"/>
      <use xlink:href="#LiberationSerif-3d" x="82.333984"/>
      <use xlink:href="#LiberationSerif-20" x="138.730469"/>
      <use xlink:href="#LiberationSerif-32" x="163.730469"/>
     </g>
    </g>
    <g id="line2d_35">
     <path d="M 415.448899 58.08649 
L 425.448899 58.08649 
L 435.448899 58.08649 
" style="fill: none; stroke: #2ca02c; stroke-width: 0.5; stroke-linecap: square"/>
    </g>
    <g id="text_33">
     <!-- L = 3 -->
     <g transform="translate(443.448899 61.58649) scale(0.1 -0.1)">
      <defs>
       <path id="LiberationSerif-33" d="M 2950 1141 
Q 2950 575 2562 256 
Q 2175 -63 1466 -63 
Q 872 -63 341 72 
L 306 953 
L 513 953 
L 653 366 
Q 775 297 998 247 
Q 1222 197 1416 197 
Q 1906 197 2140 422 
Q 2375 647 2375 1172 
Q 2375 1584 2159 1798 
Q 1944 2013 1491 2034 
L 1044 2059 
L 1044 2316 
L 1491 2344 
Q 1844 2363 2012 2563 
Q 2181 2763 2181 3169 
Q 2181 3591 1998 3783 
Q 1816 3975 1416 3975 
Q 1250 3975 1069 3929 
Q 888 3884 750 3809 
L 641 3297 
L 434 3297 
L 434 4103 
Q 744 4184 969 4211 
Q 1194 4238 1416 4238 
Q 2759 4238 2759 3206 
Q 2759 2772 2520 2514 
Q 2281 2256 1844 2194 
Q 2413 2128 2681 1867 
Q 2950 1606 2950 1141 
z
" transform="scale(0.015625)"/>
      </defs>
      <use xlink:href="#LiberationSerif-4c"/>
      <use xlink:href="#LiberationSerif-20" x="57.333984"/>
      <use xlink:href="#LiberationSerif-3d" x="82.333984"/>
      <use xlink:href="#LiberationSerif-20" x="138.730469"/>
      <use xlink:href="#LiberationSerif-33" x="163.730469"/>
     </g>
    </g>
    <g id="line2d_36">
     <path d="M 415.448899 72.216178 
L 425.448899 72.216178 
L 435.448899 72.216178 
" style="fill: none; stroke: #d62728; stroke-width: 0.5; stroke-linecap: square"/>
    </g>
    <g id="text_34">
     <!-- L = 4 -->
     <g transform="translate(443.448899 75.716178) scale(0.1 -0.1)">
      <use xlink:href="#LiberationSerif-4c"/>
      <use xlink:href="#LiberationSerif-20" x="57.333984"/>
      <use xlink:href="#LiberationSerif-3d" x="82.333984"/>
      <use xlink:href="#LiberationSerif-20" x="138.730469"/>
      <use xlink:href="#LiberationSerif-34" x="163.730469"/>
     </g>
    </g>
   </g>
  </g>
 </g>
 <defs>
  <clipPath id="p9d572d40d1">
   <rect x="40.56899" y="17.327115" width="192.306902" height="131.732869"/>
  </clipPath>
  <clipPath id="p0fce85ea54">
   <rect x="281.513872" y="17.327115" width="192.306902" height="131.732869"/>
  </clipPath>
 </defs>
</svg>
