<?xml version="1.0" encoding="utf-8" standalone="no"?>
<!DOCTYPE svg PUBLIC "-//W3C//DTD SVG 1.1//EN"
  "http://www.w3.org/Graphics/SVG/1.1/DTD/svg11.dtd">
<svg xmlns:xlink="http://www.w3.org/1999/xlink" width="481.889764pt" height="361.417323pt" viewBox="0 0 481.889764 361.417323" xmlns="http://www.w3.org/2000/svg" version="1.1">
 <metadata>
  <rdf:RDF xmlns:dc="http://purl.org/dc/elements/1.1/" xmlns:cc="http://creativecommons.org/ns#" xmlns:rdf="http://www.w3.org/1999/02/22-rdf-syntax-ns#">
   <cc:Work>
    <dc:type rdf:resource="http://purl.org/dc/dcmitype/StillImage"/>
    <dc:date>2023-06-01T15:29:23.488381</dc:date>
    <dc:format>image/svg+xml</dc:format>
    <dc:creator>
     <cc:Agent>
      <dc:title>Matplotlib v3.7.1, https://matplotlib.org/</dc:title>
     </cc:Agent>
    </dc:creator>
   </cc:Work>
  </rdf:RDF>
 </metadata>
 <defs>
  <style type="text/css">*{stroke-linejoin: round; stroke-linecap: butt}</style>
 </defs>
 <g id="figure_1">
  <g id="patch_1">
   <path d="M 0 361.417323 
L 481.889764 361.417323 
L 481.889764 0 
L 0 0 
z
" style="fill: #ffffff"/>
  </g>
  <g id="axes_1">
   <g id="patch_2">
    <path d="M 51.19649 322.70927 
L 471.793274 322.70927 
L 471.793274 20.657865 
L 51.19649 20.657865 
z
" style="fill: #ffffff"/>
   </g>
   <g id="matplotlib.axis_1">
    <g id="xtick_1">
     <g id="line2d_1">
      <defs>
       <path id="m177302a7c5" d="M 0 0 
L 0 3.5 
" style="stroke: #000000; stroke-width: 0.8"/>
      </defs>
      <g>
       <use xlink:href="#m177302a7c5" x="51.19649" y="322.70927" style="stroke: #000000; stroke-width: 0.8"/>
      </g>
     </g>
     <g id="text_1">
      <!-- 0 -->
      <g transform="translate(47.648365 339.231458) scale(0.14 -0.14)">
       <defs>
        <path id="Calibri-30" d="M 3022 2031 
Q 3022 1566 2948 1181 
Q 2875 797 2704 520 
Q 2534 244 2259 92 
Q 1984 -59 1581 -59 
Q 1200 -59 939 77 
Q 678 213 518 477 
Q 359 741 292 1127 
Q 225 1513 225 2013 
Q 225 2475 300 2861 
Q 375 3247 544 3523 
Q 713 3800 988 3951 
Q 1263 4103 1663 4103 
Q 2047 4103 2308 3967 
Q 2569 3831 2728 3567 
Q 2888 3303 2955 2917 
Q 3022 2531 3022 2031 
z
M 2472 1994 
Q 2472 2297 2450 2537 
Q 2428 2778 2386 2962 
Q 2344 3147 2276 3280 
Q 2209 3413 2115 3498 
Q 2022 3584 1901 3623 
Q 1781 3663 1631 3663 
Q 1366 3663 1200 3538 
Q 1034 3413 939 3194 
Q 844 2975 809 2681 
Q 775 2388 775 2050 
Q 775 1597 822 1280 
Q 869 963 970 763 
Q 1072 563 1230 472 
Q 1388 381 1613 381 
Q 1788 381 1920 437 
Q 2053 494 2148 598 
Q 2244 703 2306 850 
Q 2369 997 2406 1175 
Q 2444 1353 2458 1561 
Q 2472 1769 2472 1994 
z
" transform="scale(0.015625)"/>
       </defs>
       <use xlink:href="#Calibri-30"/>
      </g>
     </g>
    </g>
    <g id="xtick_2">
     <g id="line2d_2">
      <g>
       <use xlink:href="#m177302a7c5" x="121.295954" y="322.70927" style="stroke: #000000; stroke-width: 0.8"/>
      </g>
     </g>
     <g id="text_2">
      <!-- 5 -->
      <g transform="translate(117.747829 339.231458) scale(0.14 -0.14)">
       <defs>
        <path id="Calibri-35" d="M 2869 1300 
Q 2869 975 2759 722 
Q 2650 469 2450 295 
Q 2250 122 1973 31 
Q 1697 -59 1359 -59 
Q 1172 -59 1003 -32 
Q 834 -6 703 33 
Q 572 72 487 109 
Q 403 147 379 169 
Q 356 191 347 209 
Q 338 228 330 254 
Q 322 281 319 322 
Q 316 363 316 419 
Q 316 472 320 514 
Q 325 556 337 582 
Q 350 609 367 621 
Q 384 634 406 634 
Q 438 634 503 595 
Q 569 556 680 511 
Q 791 466 955 425 
Q 1119 384 1344 384 
Q 1553 384 1728 434 
Q 1903 484 2029 590 
Q 2156 697 2228 858 
Q 2300 1019 2300 1250 
Q 2300 1444 2239 1592 
Q 2178 1741 2051 1839 
Q 1925 1938 1731 1986 
Q 1538 2034 1269 2034 
Q 1078 2034 940 2015 
Q 803 1997 684 1997 
Q 597 1997 559 2037 
Q 522 2078 522 2194 
L 522 3841 
Q 522 3944 570 3994 
Q 619 4044 709 4044 
L 2500 4044 
Q 2525 4044 2548 4030 
Q 2572 4016 2587 3987 
Q 2603 3959 2611 3915 
Q 2619 3872 2619 3813 
Q 2619 3700 2587 3637 
Q 2556 3575 2500 3575 
L 991 3575 
L 991 2441 
Q 1100 2456 1214 2459 
Q 1328 2463 1478 2463 
Q 1825 2463 2084 2380 
Q 2344 2297 2517 2145 
Q 2691 1994 2780 1778 
Q 2869 1563 2869 1300 
z
" transform="scale(0.015625)"/>
       </defs>
       <use xlink:href="#Calibri-35"/>
      </g>
     </g>
    </g>
    <g id="xtick_3">
     <g id="line2d_3">
      <g>
       <use xlink:href="#m177302a7c5" x="191.395418" y="322.70927" style="stroke: #000000; stroke-width: 0.8"/>
      </g>
     </g>
     <g id="text_3">
      <!-- 10 -->
      <g transform="translate(184.299168 339.231458) scale(0.14 -0.14)">
       <defs>
        <path id="Calibri-31" d="M 2897 213 
Q 2897 153 2887 112 
Q 2878 72 2862 47 
Q 2847 22 2826 11 
Q 2806 0 2784 0 
L 672 0 
Q 650 0 631 11 
Q 613 22 595 47 
Q 578 72 568 112 
Q 559 153 559 213 
Q 559 269 568 309 
Q 578 350 592 376 
Q 606 403 626 417 
Q 647 431 672 431 
L 1516 431 
L 1516 3506 
L 734 3041 
Q 675 3009 639 3003 
Q 603 2997 581 3017 
Q 559 3038 551 3084 
Q 544 3131 544 3203 
Q 544 3256 548 3293 
Q 553 3331 562 3356 
Q 572 3381 589 3400 
Q 606 3419 634 3438 
L 1566 4034 
Q 1578 4044 1597 4050 
Q 1616 4056 1644 4062 
Q 1672 4069 1709 4070 
Q 1747 4072 1803 4072 
Q 1878 4072 1928 4065 
Q 1978 4059 2006 4048 
Q 2034 4038 2043 4020 
Q 2053 4003 2053 3984 
L 2053 431 
L 2784 431 
Q 2809 431 2831 417 
Q 2853 403 2867 376 
Q 2881 350 2889 309 
Q 2897 269 2897 213 
z
" transform="scale(0.015625)"/>
       </defs>
       <use xlink:href="#Calibri-31"/>
       <use xlink:href="#Calibri-30" x="50.683594"/>
      </g>
     </g>
    </g>
    <g id="xtick_4">
     <g id="line2d_4">
      <g>
       <use xlink:href="#m177302a7c5" x="261.494882" y="322.70927" style="stroke: #000000; stroke-width: 0.8"/>
      </g>
     </g>
     <g id="text_4">
      <!-- 15 -->
      <g transform="translate(254.398632 339.231458) scale(0.14 -0.14)">
       <use xlink:href="#Calibri-31"/>
       <use xlink:href="#Calibri-35" x="50.683594"/>
      </g>
     </g>
    </g>
    <g id="xtick_5">
     <g id="line2d_5">
      <g>
       <use xlink:href="#m177302a7c5" x="331.594346" y="322.70927" style="stroke: #000000; stroke-width: 0.8"/>
      </g>
     </g>
     <g id="text_5">
      <!-- 20 -->
      <g transform="translate(324.498096 339.231458) scale(0.14 -0.14)">
       <defs>
        <path id="Calibri-32" d="M 2888 231 
Q 2888 175 2880 131 
Q 2872 88 2858 58 
Q 2844 28 2820 14 
Q 2797 0 2769 0 
L 534 0 
Q 491 0 458 11 
Q 425 22 401 47 
Q 378 72 367 119 
Q 356 166 356 234 
Q 356 297 361 344 
Q 366 391 381 427 
Q 397 463 420 498 
Q 444 534 481 575 
L 1266 1406 
Q 1538 1694 1702 1922 
Q 1866 2150 1955 2337 
Q 2044 2525 2072 2678 
Q 2100 2831 2100 2966 
Q 2100 3100 2056 3220 
Q 2013 3341 1930 3431 
Q 1847 3522 1722 3575 
Q 1597 3628 1434 3628 
Q 1244 3628 1092 3575 
Q 941 3522 827 3459 
Q 713 3397 636 3344 
Q 559 3291 522 3291 
Q 500 3291 483 3303 
Q 466 3316 455 3344 
Q 444 3372 437 3419 
Q 431 3466 431 3531 
Q 431 3578 434 3612 
Q 438 3647 445 3672 
Q 453 3697 465 3719 
Q 478 3741 515 3773 
Q 553 3806 645 3862 
Q 738 3919 877 3973 
Q 1016 4028 1183 4065 
Q 1350 4103 1534 4103 
Q 1828 4103 2048 4020 
Q 2269 3938 2414 3794 
Q 2559 3650 2631 3459 
Q 2703 3269 2703 3053 
Q 2703 2859 2668 2667 
Q 2634 2475 2523 2251 
Q 2413 2028 2203 1754 
Q 1994 1481 1647 1125 
L 1006 456 
L 2766 456 
Q 2791 456 2814 442 
Q 2838 428 2855 400 
Q 2872 372 2880 330 
Q 2888 288 2888 231 
z
" transform="scale(0.015625)"/>
       </defs>
       <use xlink:href="#Calibri-32"/>
       <use xlink:href="#Calibri-30" x="50.683594"/>
      </g>
     </g>
    </g>
    <g id="xtick_6">
     <g id="line2d_6">
      <g>
       <use xlink:href="#m177302a7c5" x="401.69381" y="322.70927" style="stroke: #000000; stroke-width: 0.8"/>
      </g>
     </g>
     <g id="text_6">
      <!-- 25 -->
      <g transform="translate(394.59756 339.231458) scale(0.14 -0.14)">
       <use xlink:href="#Calibri-32"/>
       <use xlink:href="#Calibri-35" x="50.683594"/>
      </g>
     </g>
    </g>
    <g id="xtick_7">
     <g id="line2d_7">
      <g>
       <use xlink:href="#m177302a7c5" x="471.793274" y="322.70927" style="stroke: #000000; stroke-width: 0.8"/>
      </g>
     </g>
     <g id="text_7">
      <!-- 30 -->
      <g transform="translate(464.697024 339.231458) scale(0.14 -0.14)">
       <defs>
        <path id="Calibri-33" d="M 2856 1156 
Q 2856 878 2759 654 
Q 2663 431 2481 272 
Q 2300 113 2034 27 
Q 1769 -59 1434 -59 
Q 1231 -59 1054 -26 
Q 878 6 740 51 
Q 603 97 512 145 
Q 422 194 398 216 
Q 375 238 362 259 
Q 350 281 340 312 
Q 331 344 326 389 
Q 322 434 322 500 
Q 322 613 344 656 
Q 366 700 406 700 
Q 434 700 517 650 
Q 600 600 729 542 
Q 859 484 1032 434 
Q 1206 384 1419 384 
Q 1625 384 1781 437 
Q 1938 491 2044 587 
Q 2150 684 2203 817 
Q 2256 950 2256 1106 
Q 2256 1278 2189 1415 
Q 2122 1553 1992 1653 
Q 1863 1753 1673 1806 
Q 1484 1859 1244 1859 
L 859 1859 
Q 834 1859 811 1870 
Q 788 1881 770 1906 
Q 753 1931 742 1972 
Q 731 2013 731 2078 
Q 731 2138 740 2177 
Q 750 2216 767 2239 
Q 784 2263 806 2273 
Q 828 2284 856 2284 
L 1209 2284 
Q 1416 2284 1580 2337 
Q 1744 2391 1858 2491 
Q 1972 2591 2033 2730 
Q 2094 2869 2094 3041 
Q 2094 3166 2053 3280 
Q 2013 3394 1931 3478 
Q 1850 3563 1723 3611 
Q 1597 3659 1431 3659 
Q 1250 3659 1098 3604 
Q 947 3550 828 3487 
Q 709 3425 631 3370 
Q 553 3316 522 3316 
Q 500 3316 483 3323 
Q 466 3331 455 3354 
Q 444 3378 439 3420 
Q 434 3463 434 3531 
Q 434 3578 437 3614 
Q 441 3650 450 3676 
Q 459 3703 471 3725 
Q 484 3747 514 3776 
Q 544 3806 634 3862 
Q 725 3919 858 3973 
Q 991 4028 1164 4065 
Q 1338 4103 1538 4103 
Q 1819 4103 2031 4031 
Q 2244 3959 2386 3828 
Q 2528 3697 2598 3514 
Q 2669 3331 2669 3109 
Q 2669 2919 2619 2755 
Q 2569 2591 2472 2464 
Q 2375 2338 2234 2248 
Q 2094 2159 1909 2125 
L 1909 2119 
Q 2119 2097 2292 2014 
Q 2466 1931 2591 1806 
Q 2716 1681 2786 1514 
Q 2856 1347 2856 1156 
z
" transform="scale(0.015625)"/>
       </defs>
       <use xlink:href="#Calibri-33"/>
       <use xlink:href="#Calibri-30" x="50.683594"/>
      </g>
     </g>
    </g>
    <g id="text_8">
     <!-- time [sec] -->
     <g transform="translate(233.702694 355.43552) scale(0.14 -0.14)">
      <defs>
       <path id="LiberationSerif-74" d="M 1044 -63 
Q 744 -63 595 115 
Q 447 294 447 616 
L 447 2675 
L 63 2675 
L 63 2816 
L 453 2938 
L 769 3603 
L 966 3603 
L 966 2938 
L 1638 2938 
L 1638 2675 
L 966 2675 
L 966 672 
Q 966 469 1058 366 
Q 1150 263 1300 263 
Q 1481 263 1741 313 
L 1741 109 
Q 1631 34 1425 -14 
Q 1219 -63 1044 -63 
z
" transform="scale(0.015625)"/>
       <path id="LiberationSerif-69" d="M 1184 3897 
Q 1184 3759 1084 3659 
Q 984 3559 844 3559 
Q 706 3559 606 3659 
Q 506 3759 506 3897 
Q 506 4038 606 4138 
Q 706 4238 844 4238 
Q 984 4238 1084 4138 
Q 1184 4038 1184 3897 
z
M 1153 219 
L 1656 141 
L 1656 0 
L 134 0 
L 134 141 
L 634 219 
L 634 2719 
L 219 2797 
L 219 2938 
L 1153 2938 
L 1153 219 
z
" transform="scale(0.015625)"/>
       <path id="LiberationSerif-6d" d="M 1019 2700 
Q 1253 2834 1515 2925 
Q 1778 3016 1978 3016 
Q 2194 3016 2376 2934 
Q 2559 2853 2650 2675 
Q 2891 2809 3214 2912 
Q 3538 3016 3750 3016 
Q 4500 3016 4500 2150 
L 4500 219 
L 4878 141 
L 4878 0 
L 3544 0 
L 3544 141 
L 3981 219 
L 3981 2094 
Q 3981 2631 3481 2631 
Q 3400 2631 3292 2618 
Q 3184 2606 3076 2590 
Q 2969 2575 2870 2554 
Q 2772 2534 2706 2522 
Q 2759 2353 2759 2150 
L 2759 219 
L 3200 141 
L 3200 0 
L 1806 0 
L 1806 141 
L 2241 219 
L 2241 2094 
Q 2241 2353 2108 2492 
Q 1975 2631 1709 2631 
Q 1434 2631 1025 2541 
L 1025 219 
L 1466 141 
L 1466 0 
L 134 0 
L 134 141 
L 506 219 
L 506 2719 
L 134 2797 
L 134 2938 
L 994 2938 
L 1019 2700 
z
" transform="scale(0.015625)"/>
       <path id="LiberationSerif-65" d="M 813 1478 
L 813 1422 
Q 813 991 908 752 
Q 1003 513 1201 388 
Q 1400 263 1722 263 
Q 1891 263 2122 291 
Q 2353 319 2503 353 
L 2503 178 
Q 2353 81 2095 9 
Q 1838 -63 1569 -63 
Q 884 -63 567 306 
Q 250 675 250 1491 
Q 250 2259 572 2637 
Q 894 3016 1491 3016 
Q 2619 3016 2619 1734 
L 2619 1478 
L 813 1478 
z
M 1491 2766 
Q 1166 2766 992 2503 
Q 819 2241 819 1728 
L 2075 1728 
Q 2075 2288 1931 2527 
Q 1788 2766 1491 2766 
z
" transform="scale(0.015625)"/>
       <path id="LiberationSerif-20" transform="scale(0.015625)"/>
       <path id="LiberationSerif-5b" d="M 475 -856 
L 475 4441 
L 1900 4441 
L 1900 4294 
L 972 4166 
L 972 -581 
L 1900 -709 
L 1900 -856 
L 475 -856 
z
" transform="scale(0.015625)"/>
       <path id="LiberationSerif-73" d="M 2259 825 
Q 2259 388 1982 162 
Q 1706 -63 1166 -63 
Q 947 -63 683 -17 
Q 419 28 269 84 
L 269 806 
L 409 806 
L 563 397 
Q 797 184 1172 184 
Q 1778 184 1778 703 
Q 1778 1084 1300 1247 
L 1022 1338 
Q 706 1441 562 1547 
Q 419 1653 341 1808 
Q 263 1963 263 2181 
Q 263 2569 527 2792 
Q 791 3016 1241 3016 
Q 1563 3016 2047 2919 
L 2047 2278 
L 1900 2278 
L 1769 2619 
Q 1603 2766 1247 2766 
Q 994 2766 861 2641 
Q 728 2516 728 2303 
Q 728 2125 848 2003 
Q 969 1881 1213 1800 
Q 1672 1644 1812 1572 
Q 1953 1500 2051 1395 
Q 2150 1291 2204 1156 
Q 2259 1022 2259 825 
z
" transform="scale(0.015625)"/>
       <path id="LiberationSerif-63" d="M 2644 178 
Q 2491 66 2222 1 
Q 1953 -63 1672 -63 
Q 244 -63 244 1491 
Q 244 2225 608 2620 
Q 972 3016 1650 3016 
Q 2072 3016 2572 2919 
L 2572 2100 
L 2400 2100 
L 2266 2619 
Q 2006 2766 1644 2766 
Q 806 2766 806 1491 
Q 806 828 1061 545 
Q 1316 263 1850 263 
Q 2306 263 2644 366 
L 2644 178 
z
" transform="scale(0.015625)"/>
       <path id="LiberationSerif-5d" d="M 231 -856 
L 231 -709 
L 1159 -581 
L 1159 4166 
L 231 4294 
L 231 4441 
L 1656 4441 
L 1656 -856 
L 231 -856 
z
" transform="scale(0.015625)"/>
      </defs>
      <use xlink:href="#LiberationSerif-74"/>
      <use xlink:href="#LiberationSerif-69" x="27.783203"/>
      <use xlink:href="#LiberationSerif-6d" x="55.566406"/>
      <use xlink:href="#LiberationSerif-65" x="133.349609"/>
      <use xlink:href="#LiberationSerif-20" x="177.734375"/>
      <use xlink:href="#LiberationSerif-5b" x="202.734375"/>
      <use xlink:href="#LiberationSerif-73" x="236.035156"/>
      <use xlink:href="#LiberationSerif-65" x="274.951172"/>
      <use xlink:href="#LiberationSerif-63" x="319.335938"/>
      <use xlink:href="#LiberationSerif-5d" x="363.720703"/>
     </g>
    </g>
   </g>
   <g id="matplotlib.axis_2">
    <g id="ytick_1">
     <g id="line2d_8">
      <defs>
       <path id="m53d1d7cbbe" d="M 0 0 
L -3.5 0 
" style="stroke: #000000; stroke-width: 0.8"/>
      </defs>
      <g>
       <use xlink:href="#m53d1d7cbbe" x="51.19649" y="309.862826" style="stroke: #000000; stroke-width: 0.8"/>
      </g>
     </g>
     <g id="text_9">
      <!-- $\mathdefault{10^{-3}}$ -->
      <g transform="translate(19.69649 314.62392) scale(0.14 -0.14)">
       <defs>
        <path id="Calibri-2212" d="M 2934 1797 
Q 2934 1681 2904 1628 
Q 2875 1575 2819 1575 
L 356 1575 
Q 297 1575 267 1628 
Q 238 1681 238 1797 
Q 238 1909 267 1964 
Q 297 2019 356 2019 
L 2819 2019 
Q 2875 2019 2904 1966 
Q 2934 1913 2934 1797 
z
" transform="scale(0.015625)"/>
       </defs>
       <use xlink:href="#Calibri-31" transform="translate(0 0.442188)"/>
       <use xlink:href="#Calibri-30" transform="translate(50.683594 0.442188)"/>
       <use xlink:href="#Calibri-2212" transform="translate(102.184219 33.123438) scale(0.7)"/>
       <use xlink:href="#Calibri-33" transform="translate(137.0475 33.123438) scale(0.7)"/>
      </g>
     </g>
    </g>
    <g id="ytick_2">
     <g id="line2d_9">
      <g>
       <use xlink:href="#m53d1d7cbbe" x="51.19649" y="264.374607" style="stroke: #000000; stroke-width: 0.8"/>
      </g>
     </g>
     <g id="text_10">
      <!-- $\mathdefault{10^{-2}}$ -->
      <g transform="translate(19.69649 269.135701) scale(0.14 -0.14)">
       <use xlink:href="#Calibri-31" transform="translate(0 0.442188)"/>
       <use xlink:href="#Calibri-30" transform="translate(50.683594 0.442188)"/>
       <use xlink:href="#Calibri-2212" transform="translate(102.184219 33.123438) scale(0.7)"/>
       <use xlink:href="#Calibri-32" transform="translate(137.0475 33.123438) scale(0.7)"/>
      </g>
     </g>
    </g>
    <g id="ytick_3">
     <g id="line2d_10">
      <g>
       <use xlink:href="#m53d1d7cbbe" x="51.19649" y="218.886388" style="stroke: #000000; stroke-width: 0.8"/>
      </g>
     </g>
     <g id="text_11">
      <!-- $\mathdefault{10^{-1}}$ -->
      <g transform="translate(19.69649 223.647481) scale(0.14 -0.14)">
       <use xlink:href="#Calibri-31" transform="translate(0 0.78125)"/>
       <use xlink:href="#Calibri-30" transform="translate(50.683594 0.78125)"/>
       <use xlink:href="#Calibri-2212" transform="translate(102.184219 33.4625) scale(0.7)"/>
       <use xlink:href="#Calibri-31" transform="translate(137.0475 33.4625) scale(0.7)"/>
      </g>
     </g>
    </g>
    <g id="ytick_4">
     <g id="line2d_11">
      <g>
       <use xlink:href="#m53d1d7cbbe" x="51.19649" y="173.398168" style="stroke: #000000; stroke-width: 0.8"/>
      </g>
     </g>
     <g id="text_12">
      <!-- $\mathdefault{10^{0}}$ -->
      <g transform="translate(24.59649 178.159262) scale(0.14 -0.14)">
       <use xlink:href="#Calibri-31" transform="translate(0 0.442188)"/>
       <use xlink:href="#Calibri-30" transform="translate(50.683594 0.442188)"/>
       <use xlink:href="#Calibri-30" transform="translate(102.184219 33.123438) scale(0.7)"/>
      </g>
     </g>
    </g>
    <g id="ytick_5">
     <g id="line2d_12">
      <g>
       <use xlink:href="#m53d1d7cbbe" x="51.19649" y="127.909949" style="stroke: #000000; stroke-width: 0.8"/>
      </g>
     </g>
     <g id="text_13">
      <!-- $\mathdefault{10^{1}}$ -->
      <g transform="translate(24.59649 132.671042) scale(0.14 -0.14)">
       <use xlink:href="#Calibri-31" transform="translate(0 0.78125)"/>
       <use xlink:href="#Calibri-30" transform="translate(50.683594 0.78125)"/>
       <use xlink:href="#Calibri-31" transform="translate(102.184219 33.4625) scale(0.7)"/>
      </g>
     </g>
    </g>
    <g id="ytick_6">
     <g id="line2d_13">
      <g>
       <use xlink:href="#m53d1d7cbbe" x="51.19649" y="82.421729" style="stroke: #000000; stroke-width: 0.8"/>
      </g>
     </g>
     <g id="text_14">
      <!-- $\mathdefault{10^{2}}$ -->
      <g transform="translate(24.59649 87.182823) scale(0.14 -0.14)">
       <use xlink:href="#Calibri-31" transform="translate(0 0.442188)"/>
       <use xlink:href="#Calibri-30" transform="translate(50.683594 0.442188)"/>
       <use xlink:href="#Calibri-32" transform="translate(102.184219 33.123438) scale(0.7)"/>
      </g>
     </g>
    </g>
    <g id="ytick_7">
     <g id="line2d_14">
      <g>
       <use xlink:href="#m53d1d7cbbe" x="51.19649" y="36.93351" style="stroke: #000000; stroke-width: 0.8"/>
      </g>
     </g>
     <g id="text_15">
      <!-- $\mathdefault{10^{3}}$ -->
      <g transform="translate(24.59649 41.694604) scale(0.14 -0.14)">
       <use xlink:href="#Calibri-31" transform="translate(0 0.442188)"/>
       <use xlink:href="#Calibri-30" transform="translate(50.683594 0.442188)"/>
       <use xlink:href="#Calibri-33" transform="translate(102.184219 33.123438) scale(0.7)"/>
      </g>
     </g>
    </g>
    <g id="ytick_8">
     <g id="line2d_15">
      <defs>
       <path id="mca2f4887e2" d="M 0 0 
L -2 0 
" style="stroke: #000000; stroke-width: 0.6"/>
      </defs>
      <g>
       <use xlink:href="#mca2f4887e2" x="51.19649" y="319.954331" style="stroke: #000000; stroke-width: 0.6"/>
      </g>
     </g>
    </g>
    <g id="ytick_9">
     <g id="line2d_16">
      <g>
       <use xlink:href="#mca2f4887e2" x="51.19649" y="316.909041" style="stroke: #000000; stroke-width: 0.6"/>
      </g>
     </g>
    </g>
    <g id="ytick_10">
     <g id="line2d_17">
      <g>
       <use xlink:href="#mca2f4887e2" x="51.19649" y="314.27109" style="stroke: #000000; stroke-width: 0.6"/>
      </g>
     </g>
    </g>
    <g id="ytick_11">
     <g id="line2d_18">
      <g>
       <use xlink:href="#mca2f4887e2" x="51.19649" y="311.944253" style="stroke: #000000; stroke-width: 0.6"/>
      </g>
     </g>
    </g>
    <g id="ytick_12">
     <g id="line2d_19">
      <g>
       <use xlink:href="#mca2f4887e2" x="51.19649" y="296.169508" style="stroke: #000000; stroke-width: 0.6"/>
      </g>
     </g>
    </g>
    <g id="ytick_13">
     <g id="line2d_20">
      <g>
       <use xlink:href="#mca2f4887e2" x="51.19649" y="288.15943" style="stroke: #000000; stroke-width: 0.6"/>
      </g>
     </g>
    </g>
    <g id="ytick_14">
     <g id="line2d_21">
      <g>
       <use xlink:href="#mca2f4887e2" x="51.19649" y="282.476189" style="stroke: #000000; stroke-width: 0.6"/>
      </g>
     </g>
    </g>
    <g id="ytick_15">
     <g id="line2d_22">
      <g>
       <use xlink:href="#mca2f4887e2" x="51.19649" y="278.067926" style="stroke: #000000; stroke-width: 0.6"/>
      </g>
     </g>
    </g>
    <g id="ytick_16">
     <g id="line2d_23">
      <g>
       <use xlink:href="#mca2f4887e2" x="51.19649" y="274.466112" style="stroke: #000000; stroke-width: 0.6"/>
      </g>
     </g>
    </g>
    <g id="ytick_17">
     <g id="line2d_24">
      <g>
       <use xlink:href="#mca2f4887e2" x="51.19649" y="271.420821" style="stroke: #000000; stroke-width: 0.6"/>
      </g>
     </g>
    </g>
    <g id="ytick_18">
     <g id="line2d_25">
      <g>
       <use xlink:href="#mca2f4887e2" x="51.19649" y="268.782871" style="stroke: #000000; stroke-width: 0.6"/>
      </g>
     </g>
    </g>
    <g id="ytick_19">
     <g id="line2d_26">
      <g>
       <use xlink:href="#mca2f4887e2" x="51.19649" y="266.456034" style="stroke: #000000; stroke-width: 0.6"/>
      </g>
     </g>
    </g>
    <g id="ytick_20">
     <g id="line2d_27">
      <g>
       <use xlink:href="#mca2f4887e2" x="51.19649" y="250.681289" style="stroke: #000000; stroke-width: 0.6"/>
      </g>
     </g>
    </g>
    <g id="ytick_21">
     <g id="line2d_28">
      <g>
       <use xlink:href="#mca2f4887e2" x="51.19649" y="242.671211" style="stroke: #000000; stroke-width: 0.6"/>
      </g>
     </g>
    </g>
    <g id="ytick_22">
     <g id="line2d_29">
      <g>
       <use xlink:href="#mca2f4887e2" x="51.19649" y="236.98797" style="stroke: #000000; stroke-width: 0.6"/>
      </g>
     </g>
    </g>
    <g id="ytick_23">
     <g id="line2d_30">
      <g>
       <use xlink:href="#mca2f4887e2" x="51.19649" y="232.579706" style="stroke: #000000; stroke-width: 0.6"/>
      </g>
     </g>
    </g>
    <g id="ytick_24">
     <g id="line2d_31">
      <g>
       <use xlink:href="#mca2f4887e2" x="51.19649" y="228.977892" style="stroke: #000000; stroke-width: 0.6"/>
      </g>
     </g>
    </g>
    <g id="ytick_25">
     <g id="line2d_32">
      <g>
       <use xlink:href="#mca2f4887e2" x="51.19649" y="225.932602" style="stroke: #000000; stroke-width: 0.6"/>
      </g>
     </g>
    </g>
    <g id="ytick_26">
     <g id="line2d_33">
      <g>
       <use xlink:href="#mca2f4887e2" x="51.19649" y="223.294652" style="stroke: #000000; stroke-width: 0.6"/>
      </g>
     </g>
    </g>
    <g id="ytick_27">
     <g id="line2d_34">
      <g>
       <use xlink:href="#mca2f4887e2" x="51.19649" y="220.967814" style="stroke: #000000; stroke-width: 0.6"/>
      </g>
     </g>
    </g>
    <g id="ytick_28">
     <g id="line2d_35">
      <g>
       <use xlink:href="#mca2f4887e2" x="51.19649" y="205.193069" style="stroke: #000000; stroke-width: 0.6"/>
      </g>
     </g>
    </g>
    <g id="ytick_29">
     <g id="line2d_36">
      <g>
       <use xlink:href="#mca2f4887e2" x="51.19649" y="197.182991" style="stroke: #000000; stroke-width: 0.6"/>
      </g>
     </g>
    </g>
    <g id="ytick_30">
     <g id="line2d_37">
      <g>
       <use xlink:href="#mca2f4887e2" x="51.19649" y="191.499751" style="stroke: #000000; stroke-width: 0.6"/>
      </g>
     </g>
    </g>
    <g id="ytick_31">
     <g id="line2d_38">
      <g>
       <use xlink:href="#mca2f4887e2" x="51.19649" y="187.091487" style="stroke: #000000; stroke-width: 0.6"/>
      </g>
     </g>
    </g>
    <g id="ytick_32">
     <g id="line2d_39">
      <g>
       <use xlink:href="#mca2f4887e2" x="51.19649" y="183.489673" style="stroke: #000000; stroke-width: 0.6"/>
      </g>
     </g>
    </g>
    <g id="ytick_33">
     <g id="line2d_40">
      <g>
       <use xlink:href="#mca2f4887e2" x="51.19649" y="180.444382" style="stroke: #000000; stroke-width: 0.6"/>
      </g>
     </g>
    </g>
    <g id="ytick_34">
     <g id="line2d_41">
      <g>
       <use xlink:href="#mca2f4887e2" x="51.19649" y="177.806432" style="stroke: #000000; stroke-width: 0.6"/>
      </g>
     </g>
    </g>
    <g id="ytick_35">
     <g id="line2d_42">
      <g>
       <use xlink:href="#mca2f4887e2" x="51.19649" y="175.479595" style="stroke: #000000; stroke-width: 0.6"/>
      </g>
     </g>
    </g>
    <g id="ytick_36">
     <g id="line2d_43">
      <g>
       <use xlink:href="#mca2f4887e2" x="51.19649" y="159.70485" style="stroke: #000000; stroke-width: 0.6"/>
      </g>
     </g>
    </g>
    <g id="ytick_37">
     <g id="line2d_44">
      <g>
       <use xlink:href="#mca2f4887e2" x="51.19649" y="151.694772" style="stroke: #000000; stroke-width: 0.6"/>
      </g>
     </g>
    </g>
    <g id="ytick_38">
     <g id="line2d_45">
      <g>
       <use xlink:href="#mca2f4887e2" x="51.19649" y="146.011531" style="stroke: #000000; stroke-width: 0.6"/>
      </g>
     </g>
    </g>
    <g id="ytick_39">
     <g id="line2d_46">
      <g>
       <use xlink:href="#mca2f4887e2" x="51.19649" y="141.603267" style="stroke: #000000; stroke-width: 0.6"/>
      </g>
     </g>
    </g>
    <g id="ytick_40">
     <g id="line2d_47">
      <g>
       <use xlink:href="#mca2f4887e2" x="51.19649" y="138.001453" style="stroke: #000000; stroke-width: 0.6"/>
      </g>
     </g>
    </g>
    <g id="ytick_41">
     <g id="line2d_48">
      <g>
       <use xlink:href="#mca2f4887e2" x="51.19649" y="134.956163" style="stroke: #000000; stroke-width: 0.6"/>
      </g>
     </g>
    </g>
    <g id="ytick_42">
     <g id="line2d_49">
      <g>
       <use xlink:href="#mca2f4887e2" x="51.19649" y="132.318213" style="stroke: #000000; stroke-width: 0.6"/>
      </g>
     </g>
    </g>
    <g id="ytick_43">
     <g id="line2d_50">
      <g>
       <use xlink:href="#mca2f4887e2" x="51.19649" y="129.991375" style="stroke: #000000; stroke-width: 0.6"/>
      </g>
     </g>
    </g>
    <g id="ytick_44">
     <g id="line2d_51">
      <g>
       <use xlink:href="#mca2f4887e2" x="51.19649" y="114.21663" style="stroke: #000000; stroke-width: 0.6"/>
      </g>
     </g>
    </g>
    <g id="ytick_45">
     <g id="line2d_52">
      <g>
       <use xlink:href="#mca2f4887e2" x="51.19649" y="106.206552" style="stroke: #000000; stroke-width: 0.6"/>
      </g>
     </g>
    </g>
    <g id="ytick_46">
     <g id="line2d_53">
      <g>
       <use xlink:href="#mca2f4887e2" x="51.19649" y="100.523312" style="stroke: #000000; stroke-width: 0.6"/>
      </g>
     </g>
    </g>
    <g id="ytick_47">
     <g id="line2d_54">
      <g>
       <use xlink:href="#mca2f4887e2" x="51.19649" y="96.115048" style="stroke: #000000; stroke-width: 0.6"/>
      </g>
     </g>
    </g>
    <g id="ytick_48">
     <g id="line2d_55">
      <g>
       <use xlink:href="#mca2f4887e2" x="51.19649" y="92.513234" style="stroke: #000000; stroke-width: 0.6"/>
      </g>
     </g>
    </g>
    <g id="ytick_49">
     <g id="line2d_56">
      <g>
       <use xlink:href="#mca2f4887e2" x="51.19649" y="89.467944" style="stroke: #000000; stroke-width: 0.6"/>
      </g>
     </g>
    </g>
    <g id="ytick_50">
     <g id="line2d_57">
      <g>
       <use xlink:href="#mca2f4887e2" x="51.19649" y="86.829993" style="stroke: #000000; stroke-width: 0.6"/>
      </g>
     </g>
    </g>
    <g id="ytick_51">
     <g id="line2d_58">
      <g>
       <use xlink:href="#mca2f4887e2" x="51.19649" y="84.503156" style="stroke: #000000; stroke-width: 0.6"/>
      </g>
     </g>
    </g>
    <g id="ytick_52">
     <g id="line2d_59">
      <g>
       <use xlink:href="#mca2f4887e2" x="51.19649" y="68.728411" style="stroke: #000000; stroke-width: 0.6"/>
      </g>
     </g>
    </g>
    <g id="ytick_53">
     <g id="line2d_60">
      <g>
       <use xlink:href="#mca2f4887e2" x="51.19649" y="60.718333" style="stroke: #000000; stroke-width: 0.6"/>
      </g>
     </g>
    </g>
    <g id="ytick_54">
     <g id="line2d_61">
      <g>
       <use xlink:href="#mca2f4887e2" x="51.19649" y="55.035092" style="stroke: #000000; stroke-width: 0.6"/>
      </g>
     </g>
    </g>
    <g id="ytick_55">
     <g id="line2d_62">
      <g>
       <use xlink:href="#mca2f4887e2" x="51.19649" y="50.626828" style="stroke: #000000; stroke-width: 0.6"/>
      </g>
     </g>
    </g>
    <g id="ytick_56">
     <g id="line2d_63">
      <g>
       <use xlink:href="#mca2f4887e2" x="51.19649" y="47.025014" style="stroke: #000000; stroke-width: 0.6"/>
      </g>
     </g>
    </g>
    <g id="ytick_57">
     <g id="line2d_64">
      <g>
       <use xlink:href="#mca2f4887e2" x="51.19649" y="43.979724" style="stroke: #000000; stroke-width: 0.6"/>
      </g>
     </g>
    </g>
    <g id="ytick_58">
     <g id="line2d_65">
      <g>
       <use xlink:href="#mca2f4887e2" x="51.19649" y="41.341774" style="stroke: #000000; stroke-width: 0.6"/>
      </g>
     </g>
    </g>
    <g id="ytick_59">
     <g id="line2d_66">
      <g>
       <use xlink:href="#mca2f4887e2" x="51.19649" y="39.014937" style="stroke: #000000; stroke-width: 0.6"/>
      </g>
     </g>
    </g>
    <g id="ytick_60">
     <g id="line2d_67">
      <g>
       <use xlink:href="#mca2f4887e2" x="51.19649" y="23.240191" style="stroke: #000000; stroke-width: 0.6"/>
      </g>
     </g>
    </g>
    <g id="text_16">
     <!-- $\mathdefault{MSE_f}$ -->
     <g transform="translate(12.714927 187.993568) rotate(-90) scale(0.14 -0.14)">
      <defs>
       <path id="LiberationSerif-4d" d="M 2694 0 
L 2584 0 
L 1050 3603 
L 1050 250 
L 1613 166 
L 1613 0 
L 184 0 
L 184 166 
L 722 250 
L 722 3944 
L 184 4025 
L 184 4191 
L 1453 4191 
L 2816 1003 
L 4303 4191 
L 5503 4191 
L 5503 4025 
L 4966 3944 
L 4966 250 
L 5503 166 
L 5503 0 
L 3803 0 
L 3803 166 
L 4366 250 
L 4366 3603 
L 2694 0 
z
" transform="scale(0.015625)"/>
       <path id="LiberationSerif-53" d="M 434 1128 
L 638 1128 
L 747 563 
Q 863 416 1145 303 
Q 1428 191 1703 191 
Q 2141 191 2386 414 
Q 2631 638 2631 1031 
Q 2631 1256 2536 1403 
Q 2441 1550 2286 1651 
Q 2131 1753 1934 1823 
Q 1738 1894 1530 1966 
Q 1322 2038 1125 2125 
Q 928 2213 773 2347 
Q 619 2481 523 2679 
Q 428 2878 428 3169 
Q 428 3669 803 3953 
Q 1178 4238 1844 4238 
Q 2350 4238 2944 4103 
L 2944 3231 
L 2741 3231 
L 2631 3744 
Q 2313 3975 1844 3975 
Q 1425 3975 1189 3804 
Q 953 3634 953 3334 
Q 953 3131 1048 2997 
Q 1144 2863 1298 2767 
Q 1453 2672 1651 2603 
Q 1850 2534 2058 2461 
Q 2266 2388 2464 2295 
Q 2663 2203 2817 2061 
Q 2972 1919 3067 1714 
Q 3163 1509 3163 1209 
Q 3163 603 2791 270 
Q 2419 -63 1719 -63 
Q 1381 -63 1040 -3 
Q 700 56 434 159 
L 434 1128 
z
" transform="scale(0.015625)"/>
       <path id="LiberationSerif-45" d="M 184 166 
L 722 250 
L 722 3944 
L 184 4025 
L 184 4191 
L 3328 4191 
L 3328 3188 
L 3122 3188 
L 3022 3866 
Q 2672 3909 2009 3909 
L 1325 3909 
L 1325 2272 
L 2456 2272 
L 2553 2772 
L 2753 2772 
L 2753 1484 
L 2553 1484 
L 2456 1991 
L 1325 1991 
L 1325 281 
L 2150 281 
Q 2956 281 3206 331 
L 3384 1106 
L 3591 1106 
L 3531 0 
L 184 0 
L 184 166 
z
" transform="scale(0.015625)"/>
       <path id="LiberationSerif-66" d="M 703 2675 
L 197 2675 
L 197 2828 
L 703 2950 
L 703 3156 
Q 703 3806 961 4156 
Q 1219 4506 1684 4506 
Q 1925 4506 2131 4447 
L 2131 3806 
L 1978 3806 
L 1838 4191 
Q 1731 4256 1581 4256 
Q 1384 4256 1303 4081 
Q 1222 3906 1222 3425 
L 1222 2938 
L 2003 2938 
L 2003 2675 
L 1222 2675 
L 1222 244 
L 1856 141 
L 1856 0 
L 269 0 
L 269 141 
L 703 244 
L 703 2675 
z
" transform="scale(0.015625)"/>
      </defs>
      <use xlink:href="#LiberationSerif-4d" transform="translate(0 0.78125)"/>
      <use xlink:href="#LiberationSerif-53" transform="translate(88.916016 0.78125)"/>
      <use xlink:href="#LiberationSerif-45" transform="translate(144.53125 0.78125)"/>
      <use xlink:href="#LiberationSerif-66" transform="translate(206.418594 -12.990625) scale(0.7)"/>
     </g>
    </g>
   </g>
   <g id="line2d_68">
    <path d="M 53.019076 44.727466 
L 54.841662 46.139701 
L 56.804447 45.877002 
L 58.627033 44.238227 
L 60.449619 47.698155 
L 62.272205 68.659388 
L 64.094791 57.673043 
L 65.917377 77.57583 
L 67.739963 70.798865 
L 69.56255 61.157801 
L 71.525335 61.06376 
L 73.347921 72.032204 
L 75.170507 23.619153 
L 76.993093 29.282266 
L 78.815679 31.583973 
L 80.638265 32.779746 
L 82.460851 28.467771 
L 84.423636 28.844568 
L 89.891394 28.94979 
L 100.967109 29.188607 
L 110.08004 29.41684 
L 471.933473 29.484472 
L 471.933473 29.484472 
" clip-path="url(#pa44b86b417)" style="fill: none; stroke: #1f77b4; stroke-linecap: square"/>
   </g>
   <g id="line2d_69">
    <path d="M 52.878877 28.870821 
L 54.701463 30.714335 
L 56.38385 38.055255 
L 58.206436 47.005269 
L 59.888824 53.469028 
L 61.571211 68.029723 
L 63.393797 96.067692 
L 65.076184 116.641251 
L 66.89877 130.857364 
L 68.581157 139.95525 
L 70.263544 146.705123 
L 72.08613 152.337277 
L 73.768517 156.226894 
L 75.591103 158.285325 
L 77.273491 162.308963 
L 78.955878 164.051475 
L 80.778464 166.498686 
L 82.460851 165.256825 
L 84.143238 168.428991 
L 85.965824 170.044852 
L 87.648211 169.132657 
L 89.330598 171.001215 
L 91.153184 171.56924 
L 92.835572 167.092662 
L 94.658158 170.844357 
L 96.340545 172.814226 
L 98.022932 173.221166 
L 99.845518 173.957175 
L 101.527905 171.533256 
L 103.210292 173.682708 
L 105.032878 173.299638 
L 106.715265 175.704766 
L 108.397653 172.795055 
L 110.220239 175.437933 
L 111.902626 176.673959 
L 113.725212 177.340317 
L 115.407599 177.769426 
L 117.089986 177.06013 
L 118.912572 176.036119 
L 120.594959 176.373123 
L 122.277346 176.506777 
L 124.099933 175.291718 
L 125.78232 174.747036 
L 127.604906 178.515376 
L 129.287293 180.645781 
L 130.96968 181.383567 
L 132.792266 181.890179 
L 134.474653 182.74337 
L 136.15704 181.451755 
L 137.979626 176.996031 
L 139.662014 178.93968 
L 141.344401 181.868935 
L 143.166987 182.756056 
L 144.849374 179.95382 
L 146.67196 182.673742 
L 148.354347 183.25402 
L 150.036734 181.227328 
L 151.85932 182.915323 
L 153.541707 185.09043 
L 155.224095 180.537735 
L 158.729068 183.912315 
L 160.411455 183.309408 
L 162.234041 186.423332 
L 163.916428 186.150214 
L 165.598815 186.127623 
L 167.421401 184.261855 
L 169.103788 181.227328 
L 170.926374 178.502582 
L 172.608762 184.708536 
L 174.291149 180.122469 
L 176.113735 179.295926 
L 177.796122 186.770128 
L 179.478509 185.421672 
L 181.301095 182.450694 
L 182.983482 180.714326 
L 184.665869 180.472624 
L 186.488455 182.223958 
L 188.170843 187.059903 
L 189.993429 188.1381 
L 191.675816 186.022542 
L 193.358203 186.018799 
L 195.180789 185.86596 
L 196.863176 186.229484 
L 198.545563 184.520323 
L 200.368149 186.992956 
L 202.050536 182.407008 
L 203.732924 184.64909 
L 205.55551 183.638396 
L 207.237897 187.370015 
L 208.920284 188.478463 
L 210.74287 189.23447 
L 212.425257 190.348632 
L 214.247843 190.446719 
L 215.93023 190.839237 
L 217.612617 189.752027 
L 219.435204 189.482633 
L 221.117591 189.702363 
L 222.799978 190.066442 
L 224.622564 190.705948 
L 226.304951 192.254821 
L 228.127537 192.481896 
L 229.809924 192.497474 
L 231.492311 191.239712 
L 233.314897 179.421476 
L 234.997285 184.933951 
L 236.679672 184.694533 
L 238.502258 191.113387 
L 240.184645 194.008305 
L 241.867032 191.863615 
L 243.689618 191.828432 
L 245.372005 192.764194 
L 248.876978 197.441494 
L 250.559366 180.407728 
L 252.241753 193.818564 
L 254.064339 190.911014 
L 255.746726 196.212857 
L 257.569312 195.901842 
L 259.251699 197.791511 
L 260.934086 196.150261 
L 262.756672 179.099856 
L 264.439059 189.774644 
L 266.121447 190.705948 
L 267.944033 200.316278 
L 269.62642 201.533719 
L 271.308807 199.641143 
L 273.131393 197.025578 
L 274.81378 198.440416 
L 276.496167 201.297126 
L 278.318753 199.15497 
L 280.00114 198.496638 
L 281.823726 190.844014 
L 283.506114 194.950031 
L 285.188501 185.097572 
L 287.011087 189.679829 
L 288.693474 192.295914 
L 290.375861 206.020108 
L 292.198447 207.395593 
L 293.880834 207.561931 
L 306.078141 207.831019 
L 390.898492 209.650783 
L 460.296962 211.641646 
L 470.671682 212.014789 
L 471.933473 212.196996 
L 471.933473 212.196996 
" clip-path="url(#pa44b86b417)" style="fill: none; stroke: #ff7f0e; stroke-linecap: square"/>
   </g>
   <g id="line2d_70">
    <path d="M 52.878877 42.595689 
L 56.243651 90.642331 
L 58.066237 108.084165 
L 61.431012 137.059552 
L 63.113399 147.344542 
L 64.795786 151.97998 
L 66.478173 157.893938 
L 68.16056 161.535447 
L 69.842947 163.137494 
L 71.525335 162.753433 
L 73.347921 162.661441 
L 75.030308 173.162516 
L 78.395082 176.311212 
L 80.077469 175.326537 
L 81.759856 170.534328 
L 83.442243 164.199733 
L 85.124631 160.521592 
L 86.807018 170.432057 
L 88.629604 172.006241 
L 90.311991 179.160588 
L 91.994378 177.987527 
L 93.676765 176.318082 
L 95.359152 175.135789 
L 97.041539 175.497163 
L 98.723927 170.688734 
L 100.406314 167.29469 
L 102.088701 180.153034 
L 103.771088 178.944911 
L 105.593674 177.05062 
L 107.276061 177.702988 
L 108.958448 170.296515 
L 110.640835 153.227806 
L 112.323223 176.446751 
L 114.00561 179.685855 
L 115.687997 173.714801 
L 117.370384 184.701533 
L 119.052771 184.838541 
L 120.735158 170.432057 
L 122.557744 183.005076 
L 124.240131 178.592314 
L 125.922519 161.808239 
L 127.604906 170.449066 
L 129.287293 176.281472 
L 130.96968 186.894915 
L 132.652067 188.584709 
L 134.334454 187.115207 
L 136.016841 180.067015 
L 137.699229 182.375863 
L 139.521815 176.934503 
L 141.204202 176.045152 
L 142.886589 182.319926 
L 144.568976 182.714856 
L 146.251363 176.412204 
L 147.93375 171.822981 
L 149.616137 180.264583 
L 151.298525 185.151221 
L 152.980912 193.663663 
L 154.663299 194.867864 
L 156.485885 195.050267 
L 166.580208 195.264226 
L 259.952694 197.032112 
L 315.892066 198.440416 
L 377.018799 200.124292 
L 412.629326 200.682344 
L 424.546235 200.729568 
L 432.958171 200.856052 
L 451.604628 201.280914 
L 461.83915 201.525514 
L 470.251086 201.723398 
L 471.793274 201.940033 
L 471.793274 201.940033 
" clip-path="url(#pa44b86b417)" style="fill: none; stroke: #2ca02c; stroke-linecap: square"/>
   </g>
   <g id="line2d_71">
    <path d="M 53.019076 58.187681 
L 54.701463 129.265163 
L 56.524049 165.613262 
L 58.346635 196.206589 
L 60.169221 178.806753 
L 61.851609 200.116651 
L 63.674195 209.975261 
L 65.496781 196.044301 
L 67.179168 223.990801 
L 69.001754 177.86331 
L 70.82434 211.765245 
L 72.506727 150.850428 
L 74.329313 201.898188 
L 76.151899 232.87828 
L 77.834286 209.368121 
L 79.656872 246.154847 
L 81.479458 187.543078 
L 83.161846 188.360143 
L 84.984432 219.469797 
L 86.807018 154.727993 
L 88.489405 200.124292 
L 90.311991 221.064633 
L 92.134577 213.871179 
L 93.816964 248.460095 
L 95.63955 163.267192 
L 97.462136 170.77504 
L 99.144523 224.69912 
L 100.967109 241.005027 
L 102.789695 265.356753 
L 104.472083 206.321088 
L 106.294669 177.09583 
L 108.117255 206.040719 
L 109.799642 243.553259 
L 111.622228 268.278204 
L 113.444814 245.017813 
L 115.127201 188.188156 
L 116.949787 199.91902 
L 118.772373 197.321764 
L 120.45476 222.598347 
L 122.277346 253.262876 
L 124.099933 269.7754 
L 125.78232 193.200734 
L 127.604906 198.35638 
L 129.427492 234.503719 
L 131.109879 179.081409 
L 132.932465 207.417691 
L 134.755051 217.735269 
L 136.437438 263.90608 
L 138.260024 159.034786 
L 140.08261 191.147318 
L 141.764997 248.407202 
L 143.587584 263.964042 
L 145.41017 284.596067 
L 147.092557 289.635615 
L 148.915143 290.439404 
L 154.242702 291.070185 
L 193.358203 294.777581 
L 196.863176 295.111795 
L 241.306236 299.11463 
L 253.643742 300.222914 
L 255.466328 300.320171 
L 258.971301 300.70163 
L 262.616473 300.888885 
L 264.29886 301.154061 
L 266.121447 301.320019 
L 269.62642 301.474458 
L 278.599151 302.211583 
L 280.281538 302.522483 
L 282.104124 302.536112 
L 287.431684 303.019151 
L 289.25427 303.314746 
L 291.076856 303.328933 
L 292.759243 303.614833 
L 294.581829 303.629237 
L 296.404415 303.934175 
L 298.086802 304.095804 
L 299.909388 304.066318 
L 301.731974 304.378133 
L 307.059533 304.878293 
L 308.741921 304.816989 
L 310.564507 304.955192 
L 312.387093 305.297149 
L 315.892066 305.661093 
L 317.714652 305.581403 
L 319.397039 305.950671 
L 323.042211 306.293966 
L 326.547184 306.228115 
L 328.369771 306.727432 
L 330.052158 306.660123 
L 331.874744 307.050321 
L 333.69733 306.998987 
L 335.379717 307.378576 
L 337.202303 307.553557 
L 339.024889 307.5009 
L 340.707276 307.85463 
L 342.529862 308.015898 
L 344.352448 307.997914 
L 346.034835 308.324156 
L 349.680008 308.397391 
L 351.362395 308.805113 
L 355.007567 308.823848 
L 356.689954 309.259713 
L 358.51254 309.221428 
L 360.335126 309.568698 
L 362.017513 309.490997 
L 367.345072 309.95788 
L 369.167659 310.338688 
L 370.990245 310.57689 
L 372.672632 310.399492 
L 374.495218 310.523707 
L 376.317804 310.995029 
L 379.822777 310.930281 
L 381.645363 311.490737 
L 383.32775 311.45002 
L 385.150336 311.810808 
L 388.65531 312.131718 
L 390.477896 312.058726 
L 395.805455 312.78045 
L 402.9556 313.448842 
L 404.778186 313.140949 
L 406.460573 313.759204 
L 408.283159 313.45595 
L 410.105745 314.015927 
L 411.788133 314.308166 
L 415.433305 314.609818 
L 417.115692 314.327969 
L 418.938278 314.860096 
L 420.760864 314.783919 
L 422.443251 315.23767 
L 429.593396 315.686167 
L 431.415983 315.725999 
L 433.09837 316.174971 
L 434.920956 315.974765 
L 436.743542 316.548293 
L 438.425929 316.088146 
L 440.248515 316.84705 
L 443.753488 317.184707 
L 445.576074 317.368719 
L 447.39866 317.06203 
L 449.081047 317.536974 
L 452.72622 317.868954 
L 456.231193 318.388267 
L 458.053779 318.568542 
L 459.736166 317.694923 
L 461.558752 318.769074 
L 463.381338 317.69786 
L 465.063725 319.198519 
L 466.886311 317.937214 
L 468.708897 319.428012 
L 470.391285 319.747982 
L 471.793274 319.053283 
L 471.793274 319.053283 
" clip-path="url(#pa44b86b417)" style="fill: none; stroke: #d62728; stroke-linecap: square"/>
   </g>
   <g id="line2d_72">
    <path d="M 53.159275 33.882576 
L 55.262259 49.962494 
L 57.225044 70.953032 
L 61.150614 104.814625 
L 63.253598 118.245796 
L 65.216383 126.225616 
L 67.179168 134.944878 
L 69.141953 138.862855 
L 71.244937 144.758174 
L 73.207722 146.100631 
L 75.170507 147.798829 
L 79.236276 157.893938 
L 81.199061 158.266948 
L 83.161846 157.229311 
L 85.124631 157.012647 
L 87.087416 155.631294 
L 89.190399 161.159758 
L 91.153184 164.002301 
L 93.115969 163.589199 
L 95.078754 163.601227 
L 97.181738 163.10227 
L 99.144523 163.397747 
L 101.107308 164.550057 
L 103.070093 163.770386 
L 105.173077 164.224551 
L 107.135862 163.977761 
L 109.098647 163.125746 
L 111.061432 166.23574 
L 113.164416 166.180826 
L 115.127201 167.121397 
L 117.089986 168.552269 
L 119.052771 168.723043 
L 121.155755 169.084958 
L 123.11854 168.108999 
L 131.109879 167.928446 
L 133.072664 167.021007 
L 135.035449 166.694701 
L 136.998234 167.645905 
L 139.101218 170.078222 
L 141.064003 172.117019 
L 143.026788 171.822981 
L 144.989573 171.001215 
L 147.092557 171.300943 
L 149.055342 170.723211 
L 152.980912 167.006707 
L 157.046681 166.498686 
L 159.009466 168.895306 
L 160.972251 171.951085 
L 162.935036 171.877781 
L 165.038019 177.198529 
L 167.000804 177.806432 
L 170.926374 177.922837 
L 266.822441 179.274635 
L 380.523772 181.478502 
L 412.489127 182.070148 
L 442.351499 182.576045 
L 470.391285 182.985809 
L 471.933473 183.179331 
L 471.933473 183.179331 
" clip-path="url(#pa44b86b417)" style="fill: none; stroke: #9467bd; stroke-linecap: square"/>
   </g>
   <g id="patch_3">
    <path d="M 51.19649 322.70927 
L 51.19649 20.657865 
" style="fill: none; stroke: #000000; stroke-width: 0.8; stroke-linejoin: miter; stroke-linecap: square"/>
   </g>
   <g id="patch_4">
    <path d="M 471.793274 322.70927 
L 471.793274 20.657865 
" style="fill: none; stroke: #000000; stroke-width: 0.8; stroke-linejoin: miter; stroke-linecap: square"/>
   </g>
   <g id="patch_5">
    <path d="M 51.19649 322.70927 
L 471.793274 322.70927 
" style="fill: none; stroke: #000000; stroke-width: 0.8; stroke-linejoin: miter; stroke-linecap: square"/>
   </g>
   <g id="patch_6">
    <path d="M 51.19649 20.657865 
L 471.793274 20.657865 
" style="fill: none; stroke: #000000; stroke-width: 0.8; stroke-linejoin: miter; stroke-linecap: square"/>
   </g>
   <g id="text_17">
    <!-- N = 128, L = 2 -->
    <g transform="translate(211.739319 14.657865) scale(0.168 -0.168)">
     <defs>
      <path id="LiberationSerif-4e" d="M 3609 3944 
L 3047 4025 
L 3047 4191 
L 4475 4191 
L 4475 4025 
L 3938 3944 
L 3938 0 
L 3634 0 
L 1050 3769 
L 1050 250 
L 1613 166 
L 1613 0 
L 184 0 
L 184 166 
L 722 250 
L 722 3944 
L 184 4025 
L 184 4191 
L 1453 4191 
L 3609 1088 
L 3609 3944 
z
" transform="scale(0.015625)"/>
      <path id="LiberationSerif-3d" d="M 3297 1644 
L 3297 1325 
L 319 1325 
L 319 1644 
L 3297 1644 
z
M 3297 2925 
L 3297 2606 
L 319 2606 
L 319 2925 
L 3297 2925 
z
" transform="scale(0.015625)"/>
      <path id="LiberationSerif-31" d="M 1959 250 
L 2816 166 
L 2816 0 
L 563 0 
L 563 166 
L 1422 250 
L 1422 3669 
L 575 3366 
L 575 3531 
L 1797 4225 
L 1959 4225 
L 1959 250 
z
" transform="scale(0.015625)"/>
      <path id="LiberationSerif-32" d="M 2847 0 
L 281 0 
L 281 459 
L 863 988 
Q 1422 1478 1684 1781 
Q 1947 2084 2061 2406 
Q 2175 2728 2175 3144 
Q 2175 3550 1990 3762 
Q 1806 3975 1388 3975 
Q 1222 3975 1047 3929 
Q 872 3884 738 3809 
L 628 3297 
L 422 3297 
L 422 4103 
Q 991 4238 1388 4238 
Q 2075 4238 2420 3952 
Q 2766 3666 2766 3144 
Q 2766 2794 2630 2483 
Q 2494 2172 2212 1864 
Q 1931 1556 1281 1003 
Q 1003 766 691 481 
L 2847 481 
L 2847 0 
z
" transform="scale(0.015625)"/>
      <path id="LiberationSerif-38" d="M 2828 3169 
Q 2828 2825 2661 2586 
Q 2494 2347 2209 2222 
Q 2566 2091 2761 1811 
Q 2956 1531 2956 1131 
Q 2956 538 2622 237 
Q 2288 -63 1581 -63 
Q 244 -63 244 1131 
Q 244 1547 444 1820 
Q 644 2094 984 2222 
Q 713 2347 542 2584 
Q 372 2822 372 3169 
Q 372 3688 689 3972 
Q 1006 4256 1606 4256 
Q 2188 4256 2508 3973 
Q 2828 3691 2828 3169 
z
M 2394 1131 
Q 2394 1631 2198 1856 
Q 2003 2081 1581 2081 
Q 1169 2081 987 1867 
Q 806 1653 806 1131 
Q 806 603 990 393 
Q 1175 184 1581 184 
Q 1997 184 2195 401 
Q 2394 619 2394 1131 
z
M 2266 3169 
Q 2266 3600 2097 3803 
Q 1928 4006 1588 4006 
Q 1256 4006 1095 3809 
Q 934 3613 934 3169 
Q 934 2734 1090 2545 
Q 1247 2356 1588 2356 
Q 1938 2356 2102 2548 
Q 2266 2741 2266 3169 
z
" transform="scale(0.015625)"/>
      <path id="LiberationSerif-2c" d="M 1197 153 
Q 1197 -275 948 -564 
Q 700 -853 244 -984 
L 244 -744 
Q 794 -569 794 -219 
Q 794 -156 747 -106 
Q 700 -56 584 3 
Q 372 113 372 313 
Q 372 481 478 570 
Q 584 659 750 659 
Q 950 659 1073 515 
Q 1197 372 1197 153 
z
" transform="scale(0.015625)"/>
      <path id="LiberationSerif-4c" d="M 1972 4025 
L 1325 3944 
L 1325 269 
L 2150 269 
Q 2816 269 3128 331 
L 3322 1203 
L 3525 1203 
L 3469 0 
L 184 0 
L 184 166 
L 722 250 
L 722 3944 
L 184 4025 
L 184 4191 
L 1972 4191 
L 1972 4025 
z
" transform="scale(0.015625)"/>
     </defs>
     <use xlink:href="#LiberationSerif-4e"/>
     <use xlink:href="#LiberationSerif-20" x="72.216797"/>
     <use xlink:href="#LiberationSerif-3d" x="97.216797"/>
     <use xlink:href="#LiberationSerif-20" x="153.613281"/>
     <use xlink:href="#LiberationSerif-31" x="178.613281"/>
     <use xlink:href="#LiberationSerif-32" x="228.613281"/>
     <use xlink:href="#LiberationSerif-38" x="278.613281"/>
     <use xlink:href="#LiberationSerif-2c" x="328.613281"/>
     <use xlink:href="#LiberationSerif-20" x="353.613281"/>
     <use xlink:href="#LiberationSerif-4c" x="378.613281"/>
     <use xlink:href="#LiberationSerif-20" x="435.947266"/>
     <use xlink:href="#LiberationSerif-3d" x="460.947266"/>
     <use xlink:href="#LiberationSerif-20" x="517.34375"/>
     <use xlink:href="#LiberationSerif-32" x="542.34375"/>
    </g>
   </g>
   <g id="legend_1">
    <g id="patch_7">
     <path d="M 349.634524 130.805052 
L 461.993274 130.805052 
Q 464.793274 130.805052 464.793274 128.005052 
L 464.793274 30.457865 
Q 464.793274 27.657865 461.993274 27.657865 
L 349.634524 27.657865 
Q 346.834524 27.657865 346.834524 30.457865 
L 346.834524 128.005052 
Q 346.834524 130.805052 349.634524 130.805052 
z
" style="fill: #ffffff; opacity: 0.8; stroke: #cccccc; stroke-linejoin: miter"/>
    </g>
    <g id="line2d_73">
     <path d="M 352.434524 38.157865 
L 366.434524 38.157865 
L 380.434524 38.157865 
" style="fill: none; stroke: #1f77b4; stroke-linecap: square"/>
    </g>
    <g id="text_18">
     <!--  = ELU -->
     <g transform="translate(391.634524 43.057865) scale(0.14 -0.14)">
      <defs>
       <path id="LiberationSerif-3c3" d="M 3175 3275 
L 3353 3275 
L 3297 2675 
L 2388 2675 
L 2388 2653 
Q 2678 2400 2833 2064 
Q 2988 1728 2988 1369 
Q 2988 703 2620 320 
Q 2253 -63 1634 -63 
Q 1000 -63 622 359 
Q 244 781 244 1478 
Q 244 2163 689 2550 
Q 1134 2938 1909 2938 
L 3000 2938 
L 3175 3275 
z
M 1666 184 
Q 2019 184 2219 500 
Q 2419 816 2419 1388 
Q 2419 1816 2316 2152 
Q 2213 2488 2031 2675 
Q 1438 2675 1122 2351 
Q 806 2028 806 1409 
Q 806 831 1039 507 
Q 1272 184 1666 184 
z
" transform="scale(0.015625)"/>
       <path id="LiberationSerif-55" d="M 3622 3944 
L 3059 4025 
L 3059 4191 
L 4488 4191 
L 4488 4025 
L 3950 3944 
L 3950 1441 
Q 3950 688 3536 312 
Q 3122 -63 2334 -63 
Q 1500 -63 1086 314 
Q 672 691 672 1381 
L 672 3944 
L 134 4025 
L 134 4191 
L 1809 4191 
L 1809 4025 
L 1272 3944 
L 1272 1428 
Q 1272 288 2381 288 
Q 2981 288 3301 572 
Q 3622 856 3622 1416 
L 3622 3944 
z
" transform="scale(0.015625)"/>
      </defs>
      <use xlink:href="#LiberationSerif-3c3"/>
      <use xlink:href="#LiberationSerif-20" x="53.90625"/>
      <use xlink:href="#LiberationSerif-3d" x="78.90625"/>
      <use xlink:href="#LiberationSerif-20" x="135.302734"/>
      <use xlink:href="#LiberationSerif-45" x="160.302734"/>
      <use xlink:href="#LiberationSerif-4c" x="221.386719"/>
      <use xlink:href="#LiberationSerif-55" x="282.470703"/>
     </g>
    </g>
    <g id="line2d_74">
     <path d="M 352.434524 57.939427 
L 366.434524 57.939427 
L 380.434524 57.939427 
" style="fill: none; stroke: #ff7f0e; stroke-linecap: square"/>
    </g>
    <g id="text_19">
     <!--  = sigmoid -->
     <g transform="translate(391.634524 62.839427) scale(0.14 -0.14)">
      <defs>
       <path id="LiberationSerif-67" d="M 2719 2009 
Q 2719 1503 2416 1243 
Q 2113 984 1544 984 
Q 1288 984 1069 1031 
L 872 622 
Q 881 569 993 522 
Q 1106 475 1275 475 
L 2144 475 
Q 2619 475 2848 269 
Q 3078 63 3078 -300 
Q 3078 -628 2895 -872 
Q 2713 -1116 2359 -1248 
Q 2006 -1381 1503 -1381 
Q 903 -1381 589 -1197 
Q 275 -1013 275 -672 
Q 275 -506 387 -345 
Q 500 -184 800 31 
Q 622 91 500 234 
Q 378 378 378 544 
L 872 1100 
Q 378 1331 378 2009 
Q 378 2491 683 2753 
Q 988 3016 1569 3016 
Q 1684 3016 1865 2992 
Q 2047 2969 2144 2938 
L 2834 3284 
L 2944 3150 
L 2509 2700 
Q 2719 2466 2719 2009 
z
M 2591 -397 
Q 2591 -219 2481 -119 
Q 2372 -19 2150 -19 
L 1013 -19 
Q 881 -131 798 -304 
Q 716 -478 716 -628 
Q 716 -897 909 -1014 
Q 1103 -1131 1503 -1131 
Q 2025 -1131 2308 -937 
Q 2591 -744 2591 -397 
z
M 1550 1222 
Q 1891 1222 2033 1417 
Q 2175 1613 2175 2009 
Q 2175 2425 2028 2601 
Q 1881 2778 1556 2778 
Q 1228 2778 1075 2600 
Q 922 2422 922 2009 
Q 922 1597 1072 1409 
Q 1222 1222 1550 1222 
z
" transform="scale(0.015625)"/>
       <path id="LiberationSerif-6f" d="M 2956 1484 
Q 2956 -63 1581 -63 
Q 919 -63 581 334 
Q 244 731 244 1484 
Q 244 2228 581 2622 
Q 919 3016 1606 3016 
Q 2275 3016 2615 2630 
Q 2956 2244 2956 1484 
z
M 2394 1484 
Q 2394 2159 2197 2462 
Q 2000 2766 1581 2766 
Q 1172 2766 989 2475 
Q 806 2184 806 1484 
Q 806 775 992 479 
Q 1178 184 1581 184 
Q 1994 184 2194 490 
Q 2394 797 2394 1484 
z
" transform="scale(0.015625)"/>
       <path id="LiberationSerif-64" d="M 2259 219 
Q 1906 -63 1434 -63 
Q 231 -63 231 1441 
Q 231 2213 572 2614 
Q 913 3016 1575 3016 
Q 1913 3016 2259 2944 
Q 2241 3047 2241 3463 
L 2241 4225 
L 1747 4300 
L 1747 4441 
L 2759 4441 
L 2759 219 
L 3122 141 
L 3122 0 
L 2297 0 
L 2259 219 
z
M 794 1441 
Q 794 847 994 555 
Q 1194 263 1606 263 
Q 1959 263 2241 384 
L 2241 2706 
Q 1963 2759 1606 2759 
Q 794 2759 794 1441 
z
" transform="scale(0.015625)"/>
      </defs>
      <use xlink:href="#LiberationSerif-3c3"/>
      <use xlink:href="#LiberationSerif-20" x="53.90625"/>
      <use xlink:href="#LiberationSerif-3d" x="78.90625"/>
      <use xlink:href="#LiberationSerif-20" x="135.302734"/>
      <use xlink:href="#LiberationSerif-73" x="160.302734"/>
      <use xlink:href="#LiberationSerif-69" x="199.21875"/>
      <use xlink:href="#LiberationSerif-67" x="227.001953"/>
      <use xlink:href="#LiberationSerif-6d" x="277.001953"/>
      <use xlink:href="#LiberationSerif-6f" x="354.785156"/>
      <use xlink:href="#LiberationSerif-69" x="404.785156"/>
      <use xlink:href="#LiberationSerif-64" x="432.568359"/>
     </g>
    </g>
    <g id="line2d_75">
     <path d="M 352.434524 77.760365 
L 366.434524 77.760365 
L 380.434524 77.760365 
" style="fill: none; stroke: #2ca02c; stroke-linecap: square"/>
    </g>
    <g id="text_20">
     <!--  = tanh -->
     <g transform="translate(391.634524 82.660365) scale(0.14 -0.14)">
      <defs>
       <path id="LiberationSerif-61" d="M 1453 3003 
Q 1934 3003 2161 2806 
Q 2388 2609 2388 2203 
L 2388 219 
L 2753 141 
L 2753 0 
L 1947 0 
L 1888 294 
Q 1531 -63 978 -63 
Q 225 -63 225 813 
Q 225 1106 339 1298 
Q 453 1491 703 1592 
Q 953 1694 1428 1703 
L 1869 1716 
L 1869 2175 
Q 1869 2478 1758 2622 
Q 1647 2766 1416 2766 
Q 1103 2766 844 2619 
L 738 2253 
L 563 2253 
L 563 2894 
Q 1069 3003 1453 3003 
z
M 1869 1497 
L 1459 1484 
Q 1041 1469 892 1322 
Q 744 1175 744 831 
Q 744 281 1191 281 
Q 1403 281 1558 329 
Q 1713 378 1869 453 
L 1869 1497 
z
" transform="scale(0.015625)"/>
       <path id="LiberationSerif-6e" d="M 1013 2700 
Q 1253 2838 1525 2927 
Q 1797 3016 1978 3016 
Q 2359 3016 2553 2794 
Q 2747 2572 2747 2150 
L 2747 219 
L 3103 141 
L 3103 0 
L 1838 0 
L 1838 141 
L 2228 219 
L 2228 2094 
Q 2228 2353 2101 2501 
Q 1975 2650 1709 2650 
Q 1428 2650 1019 2559 
L 1019 219 
L 1416 141 
L 1416 0 
L 147 0 
L 147 141 
L 500 219 
L 500 2719 
L 147 2797 
L 147 2938 
L 984 2938 
L 1013 2700 
z
" transform="scale(0.015625)"/>
       <path id="LiberationSerif-68" d="M 1019 3169 
Q 1019 2844 997 2700 
Q 1222 2828 1508 2922 
Q 1794 3016 1991 3016 
Q 2372 3016 2565 2794 
Q 2759 2572 2759 2150 
L 2759 219 
L 3116 141 
L 3116 0 
L 1850 0 
L 1850 141 
L 2241 219 
L 2241 2113 
Q 2241 2650 1722 2650 
Q 1428 2650 1019 2559 
L 1019 219 
L 1416 141 
L 1416 0 
L 128 0 
L 128 141 
L 500 219 
L 500 4225 
L 63 4300 
L 63 4441 
L 1019 4441 
L 1019 3169 
z
" transform="scale(0.015625)"/>
      </defs>
      <use xlink:href="#LiberationSerif-3c3"/>
      <use xlink:href="#LiberationSerif-20" x="53.90625"/>
      <use xlink:href="#LiberationSerif-3d" x="78.90625"/>
      <use xlink:href="#LiberationSerif-20" x="135.302734"/>
      <use xlink:href="#LiberationSerif-74" x="160.302734"/>
      <use xlink:href="#LiberationSerif-61" x="188.085938"/>
      <use xlink:href="#LiberationSerif-6e" x="232.470703"/>
      <use xlink:href="#LiberationSerif-68" x="282.470703"/>
     </g>
    </g>
    <g id="line2d_76">
     <path d="M 352.434524 97.541927 
L 366.434524 97.541927 
L 380.434524 97.541927 
" style="fill: none; stroke: #d62728; stroke-linecap: square"/>
    </g>
    <g id="text_21">
     <!--  = sin -->
     <g transform="translate(391.634524 102.441927) scale(0.14 -0.14)">
      <use xlink:href="#LiberationSerif-3c3"/>
      <use xlink:href="#LiberationSerif-20" x="53.90625"/>
      <use xlink:href="#LiberationSerif-3d" x="78.90625"/>
      <use xlink:href="#LiberationSerif-20" x="135.302734"/>
      <use xlink:href="#LiberationSerif-73" x="160.302734"/>
      <use xlink:href="#LiberationSerif-69" x="199.21875"/>
      <use xlink:href="#LiberationSerif-6e" x="227.001953"/>
     </g>
    </g>
    <g id="line2d_77">
     <path d="M 352.434524 117.32349 
L 366.434524 117.32349 
L 380.434524 117.32349 
" style="fill: none; stroke: #9467bd; stroke-linecap: square"/>
    </g>
    <g id="text_22">
     <!--  = atan -->
     <g transform="translate(391.634524 122.22349) scale(0.14 -0.14)">
      <use xlink:href="#LiberationSerif-3c3"/>
      <use xlink:href="#LiberationSerif-20" x="53.90625"/>
      <use xlink:href="#LiberationSerif-3d" x="78.90625"/>
      <use xlink:href="#LiberationSerif-20" x="135.302734"/>
      <use xlink:href="#LiberationSerif-61" x="160.302734"/>
      <use xlink:href="#LiberationSerif-74" x="204.6875"/>
      <use xlink:href="#LiberationSerif-61" x="232.470703"/>
      <use xlink:href="#LiberationSerif-6e" x="276.855469"/>
     </g>
    </g>
   </g>
  </g>
 </g>
 <defs>
  <clipPath id="pa44b86b417">
   <rect x="51.19649" y="20.657865" width="420.596784" height="302.051405"/>
  </clipPath>
 </defs>
</svg>
