<?xml version="1.0" encoding="utf-8" standalone="no"?>
<!DOCTYPE svg PUBLIC "-//W3C//DTD SVG 1.1//EN"
  "http://www.w3.org/Graphics/SVG/1.1/DTD/svg11.dtd">
<svg xmlns:xlink="http://www.w3.org/1999/xlink" width="481.889764pt" height="361.417323pt" viewBox="0 0 481.889764 361.417323" xmlns="http://www.w3.org/2000/svg" version="1.1">
 <metadata>
  <rdf:RDF xmlns:dc="http://purl.org/dc/elements/1.1/" xmlns:cc="http://creativecommons.org/ns#" xmlns:rdf="http://www.w3.org/1999/02/22-rdf-syntax-ns#">
   <cc:Work>
    <dc:type rdf:resource="http://purl.org/dc/dcmitype/StillImage"/>
    <dc:date>2023-05-31T16:31:14.144085</dc:date>
    <dc:format>image/svg+xml</dc:format>
    <dc:creator>
     <cc:Agent>
      <dc:title>Matplotlib v3.7.1, https://matplotlib.org/</dc:title>
     </cc:Agent>
    </dc:creator>
   </cc:Work>
  </rdf:RDF>
 </metadata>
 <defs>
  <style type="text/css">*{stroke-linejoin: round; stroke-linecap: butt}</style>
 </defs>
 <g id="figure_1">
  <g id="patch_1">
   <path d="M 0 361.417323 
L 481.889764 361.417323 
L 481.889764 0 
L 0 0 
z
" style="fill: #ffffff"/>
  </g>
  <g id="axes_1">
   <g id="patch_2">
    <path d="M 51.19649 322.70927 
L 471.793274 322.70927 
L 471.793274 20.657865 
L 51.19649 20.657865 
z
" style="fill: #ffffff"/>
   </g>
   <g id="matplotlib.axis_1">
    <g id="xtick_1">
     <g id="line2d_1">
      <defs>
       <path id="mfabbd6da1d" d="M 0 0 
L 0 3.5 
" style="stroke: #000000; stroke-width: 0.8"/>
      </defs>
      <g>
       <use xlink:href="#mfabbd6da1d" x="51.19649" y="322.70927" style="stroke: #000000; stroke-width: 0.8"/>
      </g>
     </g>
     <g id="text_1">
      <!-- 0 -->
      <g transform="translate(47.648365 339.231458) scale(0.14 -0.14)">
       <defs>
        <path id="Calibri-30" d="M 3022 2031 
Q 3022 1566 2948 1181 
Q 2875 797 2704 520 
Q 2534 244 2259 92 
Q 1984 -59 1581 -59 
Q 1200 -59 939 77 
Q 678 213 518 477 
Q 359 741 292 1127 
Q 225 1513 225 2013 
Q 225 2475 300 2861 
Q 375 3247 544 3523 
Q 713 3800 988 3951 
Q 1263 4103 1663 4103 
Q 2047 4103 2308 3967 
Q 2569 3831 2728 3567 
Q 2888 3303 2955 2917 
Q 3022 2531 3022 2031 
z
M 2472 1994 
Q 2472 2297 2450 2537 
Q 2428 2778 2386 2962 
Q 2344 3147 2276 3280 
Q 2209 3413 2115 3498 
Q 2022 3584 1901 3623 
Q 1781 3663 1631 3663 
Q 1366 3663 1200 3538 
Q 1034 3413 939 3194 
Q 844 2975 809 2681 
Q 775 2388 775 2050 
Q 775 1597 822 1280 
Q 869 963 970 763 
Q 1072 563 1230 472 
Q 1388 381 1613 381 
Q 1788 381 1920 437 
Q 2053 494 2148 598 
Q 2244 703 2306 850 
Q 2369 997 2406 1175 
Q 2444 1353 2458 1561 
Q 2472 1769 2472 1994 
z
" transform="scale(0.015625)"/>
       </defs>
       <use xlink:href="#Calibri-30"/>
      </g>
     </g>
    </g>
    <g id="xtick_2">
     <g id="line2d_2">
      <g>
       <use xlink:href="#mfabbd6da1d" x="121.295954" y="322.70927" style="stroke: #000000; stroke-width: 0.8"/>
      </g>
     </g>
     <g id="text_2">
      <!-- 5 -->
      <g transform="translate(117.747829 339.231458) scale(0.14 -0.14)">
       <defs>
        <path id="Calibri-35" d="M 2869 1300 
Q 2869 975 2759 722 
Q 2650 469 2450 295 
Q 2250 122 1973 31 
Q 1697 -59 1359 -59 
Q 1172 -59 1003 -32 
Q 834 -6 703 33 
Q 572 72 487 109 
Q 403 147 379 169 
Q 356 191 347 209 
Q 338 228 330 254 
Q 322 281 319 322 
Q 316 363 316 419 
Q 316 472 320 514 
Q 325 556 337 582 
Q 350 609 367 621 
Q 384 634 406 634 
Q 438 634 503 595 
Q 569 556 680 511 
Q 791 466 955 425 
Q 1119 384 1344 384 
Q 1553 384 1728 434 
Q 1903 484 2029 590 
Q 2156 697 2228 858 
Q 2300 1019 2300 1250 
Q 2300 1444 2239 1592 
Q 2178 1741 2051 1839 
Q 1925 1938 1731 1986 
Q 1538 2034 1269 2034 
Q 1078 2034 940 2015 
Q 803 1997 684 1997 
Q 597 1997 559 2037 
Q 522 2078 522 2194 
L 522 3841 
Q 522 3944 570 3994 
Q 619 4044 709 4044 
L 2500 4044 
Q 2525 4044 2548 4030 
Q 2572 4016 2587 3987 
Q 2603 3959 2611 3915 
Q 2619 3872 2619 3813 
Q 2619 3700 2587 3637 
Q 2556 3575 2500 3575 
L 991 3575 
L 991 2441 
Q 1100 2456 1214 2459 
Q 1328 2463 1478 2463 
Q 1825 2463 2084 2380 
Q 2344 2297 2517 2145 
Q 2691 1994 2780 1778 
Q 2869 1563 2869 1300 
z
" transform="scale(0.015625)"/>
       </defs>
       <use xlink:href="#Calibri-35"/>
      </g>
     </g>
    </g>
    <g id="xtick_3">
     <g id="line2d_3">
      <g>
       <use xlink:href="#mfabbd6da1d" x="191.395418" y="322.70927" style="stroke: #000000; stroke-width: 0.8"/>
      </g>
     </g>
     <g id="text_3">
      <!-- 10 -->
      <g transform="translate(184.299168 339.231458) scale(0.14 -0.14)">
       <defs>
        <path id="Calibri-31" d="M 2897 213 
Q 2897 153 2887 112 
Q 2878 72 2862 47 
Q 2847 22 2826 11 
Q 2806 0 2784 0 
L 672 0 
Q 650 0 631 11 
Q 613 22 595 47 
Q 578 72 568 112 
Q 559 153 559 213 
Q 559 269 568 309 
Q 578 350 592 376 
Q 606 403 626 417 
Q 647 431 672 431 
L 1516 431 
L 1516 3506 
L 734 3041 
Q 675 3009 639 3003 
Q 603 2997 581 3017 
Q 559 3038 551 3084 
Q 544 3131 544 3203 
Q 544 3256 548 3293 
Q 553 3331 562 3356 
Q 572 3381 589 3400 
Q 606 3419 634 3438 
L 1566 4034 
Q 1578 4044 1597 4050 
Q 1616 4056 1644 4062 
Q 1672 4069 1709 4070 
Q 1747 4072 1803 4072 
Q 1878 4072 1928 4065 
Q 1978 4059 2006 4048 
Q 2034 4038 2043 4020 
Q 2053 4003 2053 3984 
L 2053 431 
L 2784 431 
Q 2809 431 2831 417 
Q 2853 403 2867 376 
Q 2881 350 2889 309 
Q 2897 269 2897 213 
z
" transform="scale(0.015625)"/>
       </defs>
       <use xlink:href="#Calibri-31"/>
       <use xlink:href="#Calibri-30" x="50.683594"/>
      </g>
     </g>
    </g>
    <g id="xtick_4">
     <g id="line2d_4">
      <g>
       <use xlink:href="#mfabbd6da1d" x="261.494882" y="322.70927" style="stroke: #000000; stroke-width: 0.8"/>
      </g>
     </g>
     <g id="text_4">
      <!-- 15 -->
      <g transform="translate(254.398632 339.231458) scale(0.14 -0.14)">
       <use xlink:href="#Calibri-31"/>
       <use xlink:href="#Calibri-35" x="50.683594"/>
      </g>
     </g>
    </g>
    <g id="xtick_5">
     <g id="line2d_5">
      <g>
       <use xlink:href="#mfabbd6da1d" x="331.594346" y="322.70927" style="stroke: #000000; stroke-width: 0.8"/>
      </g>
     </g>
     <g id="text_5">
      <!-- 20 -->
      <g transform="translate(324.498096 339.231458) scale(0.14 -0.14)">
       <defs>
        <path id="Calibri-32" d="M 2888 231 
Q 2888 175 2880 131 
Q 2872 88 2858 58 
Q 2844 28 2820 14 
Q 2797 0 2769 0 
L 534 0 
Q 491 0 458 11 
Q 425 22 401 47 
Q 378 72 367 119 
Q 356 166 356 234 
Q 356 297 361 344 
Q 366 391 381 427 
Q 397 463 420 498 
Q 444 534 481 575 
L 1266 1406 
Q 1538 1694 1702 1922 
Q 1866 2150 1955 2337 
Q 2044 2525 2072 2678 
Q 2100 2831 2100 2966 
Q 2100 3100 2056 3220 
Q 2013 3341 1930 3431 
Q 1847 3522 1722 3575 
Q 1597 3628 1434 3628 
Q 1244 3628 1092 3575 
Q 941 3522 827 3459 
Q 713 3397 636 3344 
Q 559 3291 522 3291 
Q 500 3291 483 3303 
Q 466 3316 455 3344 
Q 444 3372 437 3419 
Q 431 3466 431 3531 
Q 431 3578 434 3612 
Q 438 3647 445 3672 
Q 453 3697 465 3719 
Q 478 3741 515 3773 
Q 553 3806 645 3862 
Q 738 3919 877 3973 
Q 1016 4028 1183 4065 
Q 1350 4103 1534 4103 
Q 1828 4103 2048 4020 
Q 2269 3938 2414 3794 
Q 2559 3650 2631 3459 
Q 2703 3269 2703 3053 
Q 2703 2859 2668 2667 
Q 2634 2475 2523 2251 
Q 2413 2028 2203 1754 
Q 1994 1481 1647 1125 
L 1006 456 
L 2766 456 
Q 2791 456 2814 442 
Q 2838 428 2855 400 
Q 2872 372 2880 330 
Q 2888 288 2888 231 
z
" transform="scale(0.015625)"/>
       </defs>
       <use xlink:href="#Calibri-32"/>
       <use xlink:href="#Calibri-30" x="50.683594"/>
      </g>
     </g>
    </g>
    <g id="xtick_6">
     <g id="line2d_6">
      <g>
       <use xlink:href="#mfabbd6da1d" x="401.69381" y="322.70927" style="stroke: #000000; stroke-width: 0.8"/>
      </g>
     </g>
     <g id="text_6">
      <!-- 25 -->
      <g transform="translate(394.59756 339.231458) scale(0.14 -0.14)">
       <use xlink:href="#Calibri-32"/>
       <use xlink:href="#Calibri-35" x="50.683594"/>
      </g>
     </g>
    </g>
    <g id="xtick_7">
     <g id="line2d_7">
      <g>
       <use xlink:href="#mfabbd6da1d" x="471.793274" y="322.70927" style="stroke: #000000; stroke-width: 0.8"/>
      </g>
     </g>
     <g id="text_7">
      <!-- 30 -->
      <g transform="translate(464.697024 339.231458) scale(0.14 -0.14)">
       <defs>
        <path id="Calibri-33" d="M 2856 1156 
Q 2856 878 2759 654 
Q 2663 431 2481 272 
Q 2300 113 2034 27 
Q 1769 -59 1434 -59 
Q 1231 -59 1054 -26 
Q 878 6 740 51 
Q 603 97 512 145 
Q 422 194 398 216 
Q 375 238 362 259 
Q 350 281 340 312 
Q 331 344 326 389 
Q 322 434 322 500 
Q 322 613 344 656 
Q 366 700 406 700 
Q 434 700 517 650 
Q 600 600 729 542 
Q 859 484 1032 434 
Q 1206 384 1419 384 
Q 1625 384 1781 437 
Q 1938 491 2044 587 
Q 2150 684 2203 817 
Q 2256 950 2256 1106 
Q 2256 1278 2189 1415 
Q 2122 1553 1992 1653 
Q 1863 1753 1673 1806 
Q 1484 1859 1244 1859 
L 859 1859 
Q 834 1859 811 1870 
Q 788 1881 770 1906 
Q 753 1931 742 1972 
Q 731 2013 731 2078 
Q 731 2138 740 2177 
Q 750 2216 767 2239 
Q 784 2263 806 2273 
Q 828 2284 856 2284 
L 1209 2284 
Q 1416 2284 1580 2337 
Q 1744 2391 1858 2491 
Q 1972 2591 2033 2730 
Q 2094 2869 2094 3041 
Q 2094 3166 2053 3280 
Q 2013 3394 1931 3478 
Q 1850 3563 1723 3611 
Q 1597 3659 1431 3659 
Q 1250 3659 1098 3604 
Q 947 3550 828 3487 
Q 709 3425 631 3370 
Q 553 3316 522 3316 
Q 500 3316 483 3323 
Q 466 3331 455 3354 
Q 444 3378 439 3420 
Q 434 3463 434 3531 
Q 434 3578 437 3614 
Q 441 3650 450 3676 
Q 459 3703 471 3725 
Q 484 3747 514 3776 
Q 544 3806 634 3862 
Q 725 3919 858 3973 
Q 991 4028 1164 4065 
Q 1338 4103 1538 4103 
Q 1819 4103 2031 4031 
Q 2244 3959 2386 3828 
Q 2528 3697 2598 3514 
Q 2669 3331 2669 3109 
Q 2669 2919 2619 2755 
Q 2569 2591 2472 2464 
Q 2375 2338 2234 2248 
Q 2094 2159 1909 2125 
L 1909 2119 
Q 2119 2097 2292 2014 
Q 2466 1931 2591 1806 
Q 2716 1681 2786 1514 
Q 2856 1347 2856 1156 
z
" transform="scale(0.015625)"/>
       </defs>
       <use xlink:href="#Calibri-33"/>
       <use xlink:href="#Calibri-30" x="50.683594"/>
      </g>
     </g>
    </g>
    <g id="text_8">
     <!-- time [sec] -->
     <g transform="translate(233.702694 355.43552) scale(0.14 -0.14)">
      <defs>
       <path id="LiberationSerif-74" d="M 1044 -63 
Q 744 -63 595 115 
Q 447 294 447 616 
L 447 2675 
L 63 2675 
L 63 2816 
L 453 2938 
L 769 3603 
L 966 3603 
L 966 2938 
L 1638 2938 
L 1638 2675 
L 966 2675 
L 966 672 
Q 966 469 1058 366 
Q 1150 263 1300 263 
Q 1481 263 1741 313 
L 1741 109 
Q 1631 34 1425 -14 
Q 1219 -63 1044 -63 
z
" transform="scale(0.015625)"/>
       <path id="LiberationSerif-69" d="M 1184 3897 
Q 1184 3759 1084 3659 
Q 984 3559 844 3559 
Q 706 3559 606 3659 
Q 506 3759 506 3897 
Q 506 4038 606 4138 
Q 706 4238 844 4238 
Q 984 4238 1084 4138 
Q 1184 4038 1184 3897 
z
M 1153 219 
L 1656 141 
L 1656 0 
L 134 0 
L 134 141 
L 634 219 
L 634 2719 
L 219 2797 
L 219 2938 
L 1153 2938 
L 1153 219 
z
" transform="scale(0.015625)"/>
       <path id="LiberationSerif-6d" d="M 1019 2700 
Q 1253 2834 1515 2925 
Q 1778 3016 1978 3016 
Q 2194 3016 2376 2934 
Q 2559 2853 2650 2675 
Q 2891 2809 3214 2912 
Q 3538 3016 3750 3016 
Q 4500 3016 4500 2150 
L 4500 219 
L 4878 141 
L 4878 0 
L 3544 0 
L 3544 141 
L 3981 219 
L 3981 2094 
Q 3981 2631 3481 2631 
Q 3400 2631 3292 2618 
Q 3184 2606 3076 2590 
Q 2969 2575 2870 2554 
Q 2772 2534 2706 2522 
Q 2759 2353 2759 2150 
L 2759 219 
L 3200 141 
L 3200 0 
L 1806 0 
L 1806 141 
L 2241 219 
L 2241 2094 
Q 2241 2353 2108 2492 
Q 1975 2631 1709 2631 
Q 1434 2631 1025 2541 
L 1025 219 
L 1466 141 
L 1466 0 
L 134 0 
L 134 141 
L 506 219 
L 506 2719 
L 134 2797 
L 134 2938 
L 994 2938 
L 1019 2700 
z
" transform="scale(0.015625)"/>
       <path id="LiberationSerif-65" d="M 813 1478 
L 813 1422 
Q 813 991 908 752 
Q 1003 513 1201 388 
Q 1400 263 1722 263 
Q 1891 263 2122 291 
Q 2353 319 2503 353 
L 2503 178 
Q 2353 81 2095 9 
Q 1838 -63 1569 -63 
Q 884 -63 567 306 
Q 250 675 250 1491 
Q 250 2259 572 2637 
Q 894 3016 1491 3016 
Q 2619 3016 2619 1734 
L 2619 1478 
L 813 1478 
z
M 1491 2766 
Q 1166 2766 992 2503 
Q 819 2241 819 1728 
L 2075 1728 
Q 2075 2288 1931 2527 
Q 1788 2766 1491 2766 
z
" transform="scale(0.015625)"/>
       <path id="LiberationSerif-20" transform="scale(0.015625)"/>
       <path id="LiberationSerif-5b" d="M 475 -856 
L 475 4441 
L 1900 4441 
L 1900 4294 
L 972 4166 
L 972 -581 
L 1900 -709 
L 1900 -856 
L 475 -856 
z
" transform="scale(0.015625)"/>
       <path id="LiberationSerif-73" d="M 2259 825 
Q 2259 388 1982 162 
Q 1706 -63 1166 -63 
Q 947 -63 683 -17 
Q 419 28 269 84 
L 269 806 
L 409 806 
L 563 397 
Q 797 184 1172 184 
Q 1778 184 1778 703 
Q 1778 1084 1300 1247 
L 1022 1338 
Q 706 1441 562 1547 
Q 419 1653 341 1808 
Q 263 1963 263 2181 
Q 263 2569 527 2792 
Q 791 3016 1241 3016 
Q 1563 3016 2047 2919 
L 2047 2278 
L 1900 2278 
L 1769 2619 
Q 1603 2766 1247 2766 
Q 994 2766 861 2641 
Q 728 2516 728 2303 
Q 728 2125 848 2003 
Q 969 1881 1213 1800 
Q 1672 1644 1812 1572 
Q 1953 1500 2051 1395 
Q 2150 1291 2204 1156 
Q 2259 1022 2259 825 
z
" transform="scale(0.015625)"/>
       <path id="LiberationSerif-63" d="M 2644 178 
Q 2491 66 2222 1 
Q 1953 -63 1672 -63 
Q 244 -63 244 1491 
Q 244 2225 608 2620 
Q 972 3016 1650 3016 
Q 2072 3016 2572 2919 
L 2572 2100 
L 2400 2100 
L 2266 2619 
Q 2006 2766 1644 2766 
Q 806 2766 806 1491 
Q 806 828 1061 545 
Q 1316 263 1850 263 
Q 2306 263 2644 366 
L 2644 178 
z
" transform="scale(0.015625)"/>
       <path id="LiberationSerif-5d" d="M 231 -856 
L 231 -709 
L 1159 -581 
L 1159 4166 
L 231 4294 
L 231 4441 
L 1656 4441 
L 1656 -856 
L 231 -856 
z
" transform="scale(0.015625)"/>
      </defs>
      <use xlink:href="#LiberationSerif-74"/>
      <use xlink:href="#LiberationSerif-69" x="27.783203"/>
      <use xlink:href="#LiberationSerif-6d" x="55.566406"/>
      <use xlink:href="#LiberationSerif-65" x="133.349609"/>
      <use xlink:href="#LiberationSerif-20" x="177.734375"/>
      <use xlink:href="#LiberationSerif-5b" x="202.734375"/>
      <use xlink:href="#LiberationSerif-73" x="236.035156"/>
      <use xlink:href="#LiberationSerif-65" x="274.951172"/>
      <use xlink:href="#LiberationSerif-63" x="319.335938"/>
      <use xlink:href="#LiberationSerif-5d" x="363.720703"/>
     </g>
    </g>
   </g>
   <g id="matplotlib.axis_2">
    <g id="ytick_1">
     <g id="line2d_8">
      <defs>
       <path id="m7ceb0ba4cb" d="M 0 0 
L -3.5 0 
" style="stroke: #000000; stroke-width: 0.8"/>
      </defs>
      <g>
       <use xlink:href="#m7ceb0ba4cb" x="51.19649" y="286.457804" style="stroke: #000000; stroke-width: 0.8"/>
      </g>
     </g>
     <g id="text_9">
      <!-- $\mathdefault{10^{-2}}$ -->
      <g transform="translate(19.69649 291.218898) scale(0.14 -0.14)">
       <defs>
        <path id="Calibri-2212" d="M 2934 1797 
Q 2934 1681 2904 1628 
Q 2875 1575 2819 1575 
L 356 1575 
Q 297 1575 267 1628 
Q 238 1681 238 1797 
Q 238 1909 267 1964 
Q 297 2019 356 2019 
L 2819 2019 
Q 2875 2019 2904 1966 
Q 2934 1913 2934 1797 
z
" transform="scale(0.015625)"/>
       </defs>
       <use xlink:href="#Calibri-31" transform="translate(0 0.442188)"/>
       <use xlink:href="#Calibri-30" transform="translate(50.683594 0.442188)"/>
       <use xlink:href="#Calibri-2212" transform="translate(102.184219 33.123438) scale(0.7)"/>
       <use xlink:href="#Calibri-32" transform="translate(137.0475 33.123438) scale(0.7)"/>
      </g>
     </g>
    </g>
    <g id="ytick_2">
     <g id="line2d_9">
      <g>
       <use xlink:href="#m7ceb0ba4cb" x="51.19649" y="235.695437" style="stroke: #000000; stroke-width: 0.8"/>
      </g>
     </g>
     <g id="text_10">
      <!-- $\mathdefault{10^{-1}}$ -->
      <g transform="translate(19.69649 240.456531) scale(0.14 -0.14)">
       <use xlink:href="#Calibri-31" transform="translate(0 0.78125)"/>
       <use xlink:href="#Calibri-30" transform="translate(50.683594 0.78125)"/>
       <use xlink:href="#Calibri-2212" transform="translate(102.184219 33.4625) scale(0.7)"/>
       <use xlink:href="#Calibri-31" transform="translate(137.0475 33.4625) scale(0.7)"/>
      </g>
     </g>
    </g>
    <g id="ytick_3">
     <g id="line2d_10">
      <g>
       <use xlink:href="#m7ceb0ba4cb" x="51.19649" y="184.933071" style="stroke: #000000; stroke-width: 0.8"/>
      </g>
     </g>
     <g id="text_11">
      <!-- $\mathdefault{10^{0}}$ -->
      <g transform="translate(24.59649 189.694164) scale(0.14 -0.14)">
       <use xlink:href="#Calibri-31" transform="translate(0 0.442188)"/>
       <use xlink:href="#Calibri-30" transform="translate(50.683594 0.442188)"/>
       <use xlink:href="#Calibri-30" transform="translate(102.184219 33.123438) scale(0.7)"/>
      </g>
     </g>
    </g>
    <g id="ytick_4">
     <g id="line2d_11">
      <g>
       <use xlink:href="#m7ceb0ba4cb" x="51.19649" y="134.170704" style="stroke: #000000; stroke-width: 0.8"/>
      </g>
     </g>
     <g id="text_12">
      <!-- $\mathdefault{10^{1}}$ -->
      <g transform="translate(24.59649 138.931797) scale(0.14 -0.14)">
       <use xlink:href="#Calibri-31" transform="translate(0 0.78125)"/>
       <use xlink:href="#Calibri-30" transform="translate(50.683594 0.78125)"/>
       <use xlink:href="#Calibri-31" transform="translate(102.184219 33.4625) scale(0.7)"/>
      </g>
     </g>
    </g>
    <g id="ytick_5">
     <g id="line2d_12">
      <g>
       <use xlink:href="#m7ceb0ba4cb" x="51.19649" y="83.408337" style="stroke: #000000; stroke-width: 0.8"/>
      </g>
     </g>
     <g id="text_13">
      <!-- $\mathdefault{10^{2}}$ -->
      <g transform="translate(24.59649 88.16943) scale(0.14 -0.14)">
       <use xlink:href="#Calibri-31" transform="translate(0 0.442188)"/>
       <use xlink:href="#Calibri-30" transform="translate(50.683594 0.442188)"/>
       <use xlink:href="#Calibri-32" transform="translate(102.184219 33.123438) scale(0.7)"/>
      </g>
     </g>
    </g>
    <g id="ytick_6">
     <g id="line2d_13">
      <g>
       <use xlink:href="#m7ceb0ba4cb" x="51.19649" y="32.64597" style="stroke: #000000; stroke-width: 0.8"/>
      </g>
     </g>
     <g id="text_14">
      <!-- $\mathdefault{10^{3}}$ -->
      <g transform="translate(24.59649 37.407064) scale(0.14 -0.14)">
       <use xlink:href="#Calibri-31" transform="translate(0 0.442188)"/>
       <use xlink:href="#Calibri-30" transform="translate(50.683594 0.442188)"/>
       <use xlink:href="#Calibri-33" transform="translate(102.184219 33.123438) scale(0.7)"/>
      </g>
     </g>
    </g>
    <g id="ytick_7">
     <g id="line2d_14">
      <defs>
       <path id="m70a12b0e65" d="M 0 0 
L -2 0 
" style="stroke: #000000; stroke-width: 0.6"/>
      </defs>
      <g>
       <use xlink:href="#m70a12b0e65" x="51.19649" y="321.939176" style="stroke: #000000; stroke-width: 0.6"/>
      </g>
     </g>
    </g>
    <g id="ytick_8">
     <g id="line2d_15">
      <g>
       <use xlink:href="#m70a12b0e65" x="51.19649" y="313.000367" style="stroke: #000000; stroke-width: 0.6"/>
      </g>
     </g>
    </g>
    <g id="ytick_9">
     <g id="line2d_16">
      <g>
       <use xlink:href="#m70a12b0e65" x="51.19649" y="306.658181" style="stroke: #000000; stroke-width: 0.6"/>
      </g>
     </g>
    </g>
    <g id="ytick_10">
     <g id="line2d_17">
      <g>
       <use xlink:href="#m70a12b0e65" x="51.19649" y="301.738799" style="stroke: #000000; stroke-width: 0.6"/>
      </g>
     </g>
    </g>
    <g id="ytick_11">
     <g id="line2d_18">
      <g>
       <use xlink:href="#m70a12b0e65" x="51.19649" y="297.719372" style="stroke: #000000; stroke-width: 0.6"/>
      </g>
     </g>
    </g>
    <g id="ytick_12">
     <g id="line2d_19">
      <g>
       <use xlink:href="#m70a12b0e65" x="51.19649" y="294.320994" style="stroke: #000000; stroke-width: 0.6"/>
      </g>
     </g>
    </g>
    <g id="ytick_13">
     <g id="line2d_20">
      <g>
       <use xlink:href="#m70a12b0e65" x="51.19649" y="291.377186" style="stroke: #000000; stroke-width: 0.6"/>
      </g>
     </g>
    </g>
    <g id="ytick_14">
     <g id="line2d_21">
      <g>
       <use xlink:href="#m70a12b0e65" x="51.19649" y="288.780563" style="stroke: #000000; stroke-width: 0.6"/>
      </g>
     </g>
    </g>
    <g id="ytick_15">
     <g id="line2d_22">
      <g>
       <use xlink:href="#m70a12b0e65" x="51.19649" y="271.176809" style="stroke: #000000; stroke-width: 0.6"/>
      </g>
     </g>
    </g>
    <g id="ytick_16">
     <g id="line2d_23">
      <g>
       <use xlink:href="#m70a12b0e65" x="51.19649" y="262.238" style="stroke: #000000; stroke-width: 0.6"/>
      </g>
     </g>
    </g>
    <g id="ytick_17">
     <g id="line2d_24">
      <g>
       <use xlink:href="#m70a12b0e65" x="51.19649" y="255.895814" style="stroke: #000000; stroke-width: 0.6"/>
      </g>
     </g>
    </g>
    <g id="ytick_18">
     <g id="line2d_25">
      <g>
       <use xlink:href="#m70a12b0e65" x="51.19649" y="250.976433" style="stroke: #000000; stroke-width: 0.6"/>
      </g>
     </g>
    </g>
    <g id="ytick_19">
     <g id="line2d_26">
      <g>
       <use xlink:href="#m70a12b0e65" x="51.19649" y="246.957005" style="stroke: #000000; stroke-width: 0.6"/>
      </g>
     </g>
    </g>
    <g id="ytick_20">
     <g id="line2d_27">
      <g>
       <use xlink:href="#m70a12b0e65" x="51.19649" y="243.558628" style="stroke: #000000; stroke-width: 0.6"/>
      </g>
     </g>
    </g>
    <g id="ytick_21">
     <g id="line2d_28">
      <g>
       <use xlink:href="#m70a12b0e65" x="51.19649" y="240.614819" style="stroke: #000000; stroke-width: 0.6"/>
      </g>
     </g>
    </g>
    <g id="ytick_22">
     <g id="line2d_29">
      <g>
       <use xlink:href="#m70a12b0e65" x="51.19649" y="238.018196" style="stroke: #000000; stroke-width: 0.6"/>
      </g>
     </g>
    </g>
    <g id="ytick_23">
     <g id="line2d_30">
      <g>
       <use xlink:href="#m70a12b0e65" x="51.19649" y="220.414442" style="stroke: #000000; stroke-width: 0.6"/>
      </g>
     </g>
    </g>
    <g id="ytick_24">
     <g id="line2d_31">
      <g>
       <use xlink:href="#m70a12b0e65" x="51.19649" y="211.475633" style="stroke: #000000; stroke-width: 0.6"/>
      </g>
     </g>
    </g>
    <g id="ytick_25">
     <g id="line2d_32">
      <g>
       <use xlink:href="#m70a12b0e65" x="51.19649" y="205.133447" style="stroke: #000000; stroke-width: 0.6"/>
      </g>
     </g>
    </g>
    <g id="ytick_26">
     <g id="line2d_33">
      <g>
       <use xlink:href="#m70a12b0e65" x="51.19649" y="200.214066" style="stroke: #000000; stroke-width: 0.6"/>
      </g>
     </g>
    </g>
    <g id="ytick_27">
     <g id="line2d_34">
      <g>
       <use xlink:href="#m70a12b0e65" x="51.19649" y="196.194638" style="stroke: #000000; stroke-width: 0.6"/>
      </g>
     </g>
    </g>
    <g id="ytick_28">
     <g id="line2d_35">
      <g>
       <use xlink:href="#m70a12b0e65" x="51.19649" y="192.796261" style="stroke: #000000; stroke-width: 0.6"/>
      </g>
     </g>
    </g>
    <g id="ytick_29">
     <g id="line2d_36">
      <g>
       <use xlink:href="#m70a12b0e65" x="51.19649" y="189.852452" style="stroke: #000000; stroke-width: 0.6"/>
      </g>
     </g>
    </g>
    <g id="ytick_30">
     <g id="line2d_37">
      <g>
       <use xlink:href="#m70a12b0e65" x="51.19649" y="187.255829" style="stroke: #000000; stroke-width: 0.6"/>
      </g>
     </g>
    </g>
    <g id="ytick_31">
     <g id="line2d_38">
      <g>
       <use xlink:href="#m70a12b0e65" x="51.19649" y="169.652075" style="stroke: #000000; stroke-width: 0.6"/>
      </g>
     </g>
    </g>
    <g id="ytick_32">
     <g id="line2d_39">
      <g>
       <use xlink:href="#m70a12b0e65" x="51.19649" y="160.713266" style="stroke: #000000; stroke-width: 0.6"/>
      </g>
     </g>
    </g>
    <g id="ytick_33">
     <g id="line2d_40">
      <g>
       <use xlink:href="#m70a12b0e65" x="51.19649" y="154.37108" style="stroke: #000000; stroke-width: 0.6"/>
      </g>
     </g>
    </g>
    <g id="ytick_34">
     <g id="line2d_41">
      <g>
       <use xlink:href="#m70a12b0e65" x="51.19649" y="149.451699" style="stroke: #000000; stroke-width: 0.6"/>
      </g>
     </g>
    </g>
    <g id="ytick_35">
     <g id="line2d_42">
      <g>
       <use xlink:href="#m70a12b0e65" x="51.19649" y="145.432271" style="stroke: #000000; stroke-width: 0.6"/>
      </g>
     </g>
    </g>
    <g id="ytick_36">
     <g id="line2d_43">
      <g>
       <use xlink:href="#m70a12b0e65" x="51.19649" y="142.033894" style="stroke: #000000; stroke-width: 0.6"/>
      </g>
     </g>
    </g>
    <g id="ytick_37">
     <g id="line2d_44">
      <g>
       <use xlink:href="#m70a12b0e65" x="51.19649" y="139.090085" style="stroke: #000000; stroke-width: 0.6"/>
      </g>
     </g>
    </g>
    <g id="ytick_38">
     <g id="line2d_45">
      <g>
       <use xlink:href="#m70a12b0e65" x="51.19649" y="136.493462" style="stroke: #000000; stroke-width: 0.6"/>
      </g>
     </g>
    </g>
    <g id="ytick_39">
     <g id="line2d_46">
      <g>
       <use xlink:href="#m70a12b0e65" x="51.19649" y="118.889709" style="stroke: #000000; stroke-width: 0.6"/>
      </g>
     </g>
    </g>
    <g id="ytick_40">
     <g id="line2d_47">
      <g>
       <use xlink:href="#m70a12b0e65" x="51.19649" y="109.950899" style="stroke: #000000; stroke-width: 0.6"/>
      </g>
     </g>
    </g>
    <g id="ytick_41">
     <g id="line2d_48">
      <g>
       <use xlink:href="#m70a12b0e65" x="51.19649" y="103.608713" style="stroke: #000000; stroke-width: 0.6"/>
      </g>
     </g>
    </g>
    <g id="ytick_42">
     <g id="line2d_49">
      <g>
       <use xlink:href="#m70a12b0e65" x="51.19649" y="98.689332" style="stroke: #000000; stroke-width: 0.6"/>
      </g>
     </g>
    </g>
    <g id="ytick_43">
     <g id="line2d_50">
      <g>
       <use xlink:href="#m70a12b0e65" x="51.19649" y="94.669904" style="stroke: #000000; stroke-width: 0.6"/>
      </g>
     </g>
    </g>
    <g id="ytick_44">
     <g id="line2d_51">
      <g>
       <use xlink:href="#m70a12b0e65" x="51.19649" y="91.271527" style="stroke: #000000; stroke-width: 0.6"/>
      </g>
     </g>
    </g>
    <g id="ytick_45">
     <g id="line2d_52">
      <g>
       <use xlink:href="#m70a12b0e65" x="51.19649" y="88.327718" style="stroke: #000000; stroke-width: 0.6"/>
      </g>
     </g>
    </g>
    <g id="ytick_46">
     <g id="line2d_53">
      <g>
       <use xlink:href="#m70a12b0e65" x="51.19649" y="85.731095" style="stroke: #000000; stroke-width: 0.6"/>
      </g>
     </g>
    </g>
    <g id="ytick_47">
     <g id="line2d_54">
      <g>
       <use xlink:href="#m70a12b0e65" x="51.19649" y="68.127342" style="stroke: #000000; stroke-width: 0.6"/>
      </g>
     </g>
    </g>
    <g id="ytick_48">
     <g id="line2d_55">
      <g>
       <use xlink:href="#m70a12b0e65" x="51.19649" y="59.188532" style="stroke: #000000; stroke-width: 0.6"/>
      </g>
     </g>
    </g>
    <g id="ytick_49">
     <g id="line2d_56">
      <g>
       <use xlink:href="#m70a12b0e65" x="51.19649" y="52.846346" style="stroke: #000000; stroke-width: 0.6"/>
      </g>
     </g>
    </g>
    <g id="ytick_50">
     <g id="line2d_57">
      <g>
       <use xlink:href="#m70a12b0e65" x="51.19649" y="47.926965" style="stroke: #000000; stroke-width: 0.6"/>
      </g>
     </g>
    </g>
    <g id="ytick_51">
     <g id="line2d_58">
      <g>
       <use xlink:href="#m70a12b0e65" x="51.19649" y="43.907537" style="stroke: #000000; stroke-width: 0.6"/>
      </g>
     </g>
    </g>
    <g id="ytick_52">
     <g id="line2d_59">
      <g>
       <use xlink:href="#m70a12b0e65" x="51.19649" y="40.50916" style="stroke: #000000; stroke-width: 0.6"/>
      </g>
     </g>
    </g>
    <g id="ytick_53">
     <g id="line2d_60">
      <g>
       <use xlink:href="#m70a12b0e65" x="51.19649" y="37.565351" style="stroke: #000000; stroke-width: 0.6"/>
      </g>
     </g>
    </g>
    <g id="ytick_54">
     <g id="line2d_61">
      <g>
       <use xlink:href="#m70a12b0e65" x="51.19649" y="34.968728" style="stroke: #000000; stroke-width: 0.6"/>
      </g>
     </g>
    </g>
    <g id="text_15">
     <!-- $\mathdefault{MSE_f}$ -->
     <g transform="translate(12.714927 187.993568) rotate(-90) scale(0.14 -0.14)">
      <defs>
       <path id="LiberationSerif-4d" d="M 2694 0 
L 2584 0 
L 1050 3603 
L 1050 250 
L 1613 166 
L 1613 0 
L 184 0 
L 184 166 
L 722 250 
L 722 3944 
L 184 4025 
L 184 4191 
L 1453 4191 
L 2816 1003 
L 4303 4191 
L 5503 4191 
L 5503 4025 
L 4966 3944 
L 4966 250 
L 5503 166 
L 5503 0 
L 3803 0 
L 3803 166 
L 4366 250 
L 4366 3603 
L 2694 0 
z
" transform="scale(0.015625)"/>
       <path id="LiberationSerif-53" d="M 434 1128 
L 638 1128 
L 747 563 
Q 863 416 1145 303 
Q 1428 191 1703 191 
Q 2141 191 2386 414 
Q 2631 638 2631 1031 
Q 2631 1256 2536 1403 
Q 2441 1550 2286 1651 
Q 2131 1753 1934 1823 
Q 1738 1894 1530 1966 
Q 1322 2038 1125 2125 
Q 928 2213 773 2347 
Q 619 2481 523 2679 
Q 428 2878 428 3169 
Q 428 3669 803 3953 
Q 1178 4238 1844 4238 
Q 2350 4238 2944 4103 
L 2944 3231 
L 2741 3231 
L 2631 3744 
Q 2313 3975 1844 3975 
Q 1425 3975 1189 3804 
Q 953 3634 953 3334 
Q 953 3131 1048 2997 
Q 1144 2863 1298 2767 
Q 1453 2672 1651 2603 
Q 1850 2534 2058 2461 
Q 2266 2388 2464 2295 
Q 2663 2203 2817 2061 
Q 2972 1919 3067 1714 
Q 3163 1509 3163 1209 
Q 3163 603 2791 270 
Q 2419 -63 1719 -63 
Q 1381 -63 1040 -3 
Q 700 56 434 159 
L 434 1128 
z
" transform="scale(0.015625)"/>
       <path id="LiberationSerif-45" d="M 184 166 
L 722 250 
L 722 3944 
L 184 4025 
L 184 4191 
L 3328 4191 
L 3328 3188 
L 3122 3188 
L 3022 3866 
Q 2672 3909 2009 3909 
L 1325 3909 
L 1325 2272 
L 2456 2272 
L 2553 2772 
L 2753 2772 
L 2753 1484 
L 2553 1484 
L 2456 1991 
L 1325 1991 
L 1325 281 
L 2150 281 
Q 2956 281 3206 331 
L 3384 1106 
L 3591 1106 
L 3531 0 
L 184 0 
L 184 166 
z
" transform="scale(0.015625)"/>
       <path id="LiberationSerif-66" d="M 703 2675 
L 197 2675 
L 197 2828 
L 703 2950 
L 703 3156 
Q 703 3806 961 4156 
Q 1219 4506 1684 4506 
Q 1925 4506 2131 4447 
L 2131 3806 
L 1978 3806 
L 1838 4191 
Q 1731 4256 1581 4256 
Q 1384 4256 1303 4081 
Q 1222 3906 1222 3425 
L 1222 2938 
L 2003 2938 
L 2003 2675 
L 1222 2675 
L 1222 244 
L 1856 141 
L 1856 0 
L 269 0 
L 269 141 
L 703 244 
L 703 2675 
z
" transform="scale(0.015625)"/>
      </defs>
      <use xlink:href="#LiberationSerif-4d" transform="translate(0 0.78125)"/>
      <use xlink:href="#LiberationSerif-53" transform="translate(88.916016 0.78125)"/>
      <use xlink:href="#LiberationSerif-45" transform="translate(144.53125 0.78125)"/>
      <use xlink:href="#LiberationSerif-66" transform="translate(206.418594 -12.990625) scale(0.7)"/>
     </g>
    </g>
   </g>
   <g id="line2d_62">
    <path d="M 64.655587 75.095617 
L 78.254883 130.898663 
L 91.71398 167.291871 
L 105.173077 193.171058 
L 118.632174 211.981089 
L 132.091271 215.931449 
L 145.550368 220.129694 
L 159.009466 225.182778 
L 172.468563 232.009202 
L 185.92766 241.937908 
L 199.386757 253.397391 
L 212.845854 264.683577 
L 226.304951 272.967151 
L 239.904247 277.212494 
L 253.363344 279.166337 
L 266.822441 283.959381 
L 280.281538 286.508568 
L 293.740635 290.027702 
L 307.199732 290.642754 
L 320.658829 290.493993 
L 334.117927 289.505156 
L 347.577024 293.34458 
L 361.036121 285.784763 
L 374.495218 271.231993 
L 387.954315 272.191885 
L 401.413412 272.540903 
L 415.012708 271.055889 
L 428.471805 273.34092 
L 441.930902 274.386768 
L 455.389999 276.513474 
L 468.849096 279.341241 
L 471.933473 299.778349 
" clip-path="url(#pa6c35b7b9e)" style="fill: none; stroke: #1f77b4; stroke-linecap: square"/>
   </g>
   <g id="line2d_63">
    <path d="M 53.019076 23.751296 
L 54.701463 24.439349 
L 56.524049 27.032174 
L 58.206436 34.52496 
L 60.029022 51.251979 
L 61.851609 66.481764 
L 63.533996 75.708892 
L 65.356582 84.411874 
L 67.038969 91.881422 
L 75.871501 125.707294 
L 81.199061 144.844928 
L 84.704034 156.565612 
L 88.209007 166.831239 
L 90.031593 171.263811 
L 93.536566 178.629498 
L 97.041539 184.195974 
L 100.546513 188.539288 
L 116.52919 205.461045 
L 118.211578 207.474585 
L 123.539137 213.22616 
L 127.04411 216.202953 
L 128.866696 217.314114 
L 130.549083 218.193329 
L 132.371669 218.902258 
L 135.876642 219.988687 
L 143.026788 221.778536 
L 148.214148 223.522631 
L 151.719121 224.924292 
L 155.364293 226.464626 
L 165.879213 231.639298 
L 169.384186 233.514226 
L 174.711746 236.432944 
L 176.534332 237.51928 
L 178.216719 238.707378 
L 181.721692 240.942417 
L 188.871837 245.407115 
L 190.554224 246.57454 
L 199.386757 251.720779 
L 201.209343 252.481695 
L 202.89173 253.505918 
L 211.724262 260.473393 
L 220.556795 266.336936 
L 231.211913 273.365253 
L 234.716887 276.109974 
L 236.399274 277.1257 
L 238.22186 278.557168 
L 239.904247 278.572579 
L 241.726833 280.270482 
L 243.40922 279.82543 
L 245.231806 283.627271 
L 247.054392 281.015573 
L 248.736779 279.776529 
L 250.559366 287.403735 
L 252.241753 286.50194 
L 254.064339 288.074284 
L 255.746726 289.913944 
L 257.569312 274.837618 
L 259.391898 290.288448 
L 261.074285 293.715259 
L 262.896871 294.898536 
L 264.579258 294.963291 
L 266.401844 291.892983 
L 268.084232 291.822571 
L 269.906818 295.985311 
L 271.729404 279.711497 
L 273.411791 294.264378 
L 275.234377 295.385593 
L 276.916764 300.350469 
L 278.73935 280.622954 
L 280.421737 296.03972 
L 282.244323 302.615801 
L 284.066909 286.62155 
L 285.749296 299.85108 
L 287.571882 296.696306 
L 289.25427 293.209412 
L 291.076856 297.149925 
L 292.759243 305.389199 
L 294.581829 306.674722 
L 296.404415 293.672404 
L 298.086802 306.614133 
L 299.909388 306.724418 
L 301.591775 276.041145 
L 303.414361 306.713365 
L 305.096748 306.498926 
L 306.919335 285.256568 
L 308.741921 304.204091 
L 310.424308 296.1421 
L 312.246894 304.238634 
L 313.929281 310.442971 
L 315.751867 301.951462 
L 317.434254 309.570518 
L 319.25684 268.114822 
L 322.761813 307.969569 
L 324.584399 311.25612 
L 326.266787 298.078692 
L 328.089373 307.702132 
L 329.77176 292.864753 
L 331.594346 311.195098 
L 333.416932 302.089904 
L 335.099319 301.92032 
L 336.921905 293.293419 
L 338.604292 305.027954 
L 340.426878 302.328629 
L 342.249464 293.089954 
L 343.931852 300.579356 
L 345.754438 312.491874 
L 347.436825 314.998917 
L 349.259411 302.094385 
L 350.941798 287.3371 
L 352.764384 309.76637 
L 354.58697 315.274189 
L 356.269357 273.511819 
L 358.091943 313.214513 
L 359.77433 313.649149 
L 361.596916 309.520257 
L 363.419502 283.472699 
L 365.10189 310.345033 
L 366.924476 238.773187 
L 368.606863 285.445264 
L 370.429449 306.378874 
L 372.111836 316.453928 
L 373.934422 316.984549 
L 375.757008 315.519965 
L 377.439395 307.713692 
L 379.261981 317.161341 
L 380.944368 317.44719 
L 382.766955 317.019795 
L 384.449342 317.727687 
L 386.271928 317.312737 
L 388.094514 316.739399 
L 389.776901 282.420013 
L 391.599487 296.975169 
L 393.281874 297.852045 
L 395.10446 284.477193 
L 396.927046 310.593993 
L 398.609433 312.156923 
L 400.432019 301.782935 
L 402.114407 302.753876 
L 403.936993 309.539091 
L 405.61938 318.402659 
L 407.441966 309.054548 
L 409.264552 310.626961 
L 410.946939 277.636888 
L 412.769525 313.162632 
L 414.451912 315.503494 
L 416.274498 318.5534 
L 417.956885 273.475086 
L 419.779472 301.031572 
L 421.602058 303.803424 
L 423.284445 317.501202 
L 425.107031 274.145827 
L 426.789418 299.859177 
L 428.612004 316.095868 
L 430.43459 318.440247 
L 432.116977 259.576153 
L 433.939563 300.612848 
L 435.62195 307.047399 
L 437.444536 291.070685 
L 439.126924 315.478811 
L 440.94951 317.010978 
L 442.772096 304.38232 
L 444.454483 283.959381 
L 446.277069 310.469162 
L 447.959456 310.286479 
L 449.782042 298.734448 
L 451.604628 313.393325 
L 453.287015 309.46385 
L 455.109601 299.126505 
L 456.791988 297.139185 
L 458.614575 311.612036 
L 460.296962 308.864893 
L 462.119548 310.403744 
L 463.942134 318.992612 
L 465.624521 319.747982 
L 467.447107 319.244789 
L 469.129494 277.314189 
L 470.95208 279.598151 
L 471.793274 310.254015 
L 471.793274 310.254015 
" clip-path="url(#pa6c35b7b9e)" style="fill: none; stroke: #ff7f0e; stroke-linecap: square"/>
   </g>
   <g id="line2d_64">
    <path d="M 51.476888 23.619153 
L 53.439673 23.766028 
L 54.421065 23.95844 
L 55.682856 24.576517 
L 56.664248 25.481568 
L 57.225044 26.42537 
L 58.206436 28.571497 
L 59.187829 31.951556 
L 59.748625 35.103866 
L 61.010415 44.33793 
L 61.290813 47.245372 
L 61.71141 50.288951 
L 62.552603 59.115169 
L 63.814394 66.440881 
L 64.23499 67.712401 
L 66.057576 76.67827 
L 66.337974 78.139014 
L 66.758571 79.517886 
L 67.599765 83.298382 
L 68.020361 84.497408 
L 69.141953 89.033334 
L 69.56255 90.11806 
L 70.403743 93.336843 
L 70.82434 94.406929 
L 71.665533 97.580145 
L 72.08613 98.632087 
L 72.927324 101.759478 
L 73.347921 102.797119 
L 74.189114 105.894759 
L 74.609711 106.927319 
L 75.450905 110.0024 
L 75.871501 111.019906 
L 76.712695 114.076402 
L 77.133292 115.091849 
L 77.974485 118.131301 
L 78.395082 119.133556 
L 79.236276 122.163512 
L 79.656872 123.157442 
L 80.498066 126.162489 
L 80.918663 127.150131 
L 82.040254 131.127911 
L 82.460851 132.109633 
L 83.302044 135.040824 
L 83.722641 136.016109 
L 84.563835 138.917154 
L 84.984432 139.875515 
L 85.825625 142.731382 
L 86.246222 143.674449 
L 87.087416 146.474296 
L 87.508012 147.394644 
L 88.349206 150.127743 
L 88.769803 151.027886 
L 89.610996 153.682008 
L 90.031593 154.553713 
L 90.872787 157.114243 
L 91.293383 157.953943 
L 92.414975 161.211204 
L 92.835572 161.999322 
L 93.676765 164.313426 
L 94.097362 165.06141 
L 94.938556 167.252291 
L 95.359152 167.955406 
L 96.200346 170.007661 
L 96.901341 171.311298 
L 97.462136 172.570703 
L 98.163131 173.78644 
L 98.723927 174.946655 
L 99.424921 176.06787 
L 99.985717 177.14054 
L 100.686712 178.170536 
L 101.247507 179.149036 
L 101.948502 180.084349 
L 102.509298 180.987252 
L 103.210292 181.851904 
L 104.051486 183.073701 
L 104.75248 183.857452 
L 105.313276 184.604839 
L 106.014271 185.320044 
L 106.575067 186.012879 
L 107.276061 186.680415 
L 107.836857 187.32698 
L 108.537852 187.957651 
L 109.519244 188.868883 
L 110.360438 189.753469 
L 111.061432 190.325975 
L 112.042825 191.175541 
L 114.426206 193.377035 
L 115.127201 193.920434 
L 116.949787 195.550126 
L 117.650782 196.095655 
L 119.473368 197.735335 
L 120.174363 198.28591 
L 121.996949 199.951091 
L 122.697943 200.507008 
L 124.520529 202.191706 
L 125.221524 202.758392 
L 127.324508 204.740152 
L 128.025503 205.310523 
L 129.848089 207.013638 
L 130.549083 207.585183 
L 132.371669 209.267812 
L 133.072664 209.819828 
L 133.63346 210.372037 
L 134.334454 210.91693 
L 135.876642 212.23823 
L 137.699229 213.733167 
L 138.400223 214.202157 
L 139.381616 214.886262 
L 140.643406 215.725538 
L 142.185594 216.681628 
L 143.447385 217.36205 
L 145.269971 218.253209 
L 146.812159 218.891969 
L 148.494546 219.444054 
L 150.59753 220.118815 
L 153.822105 220.972594 
L 157.18688 221.837247 
L 159.149665 222.324664 
L 168.262595 225.169097 
L 171.346971 226.435638 
L 172.328364 226.85975 
L 180.179504 230.705622 
L 182.983482 232.196509 
L 183.964875 232.710332 
L 185.507063 233.5542 
L 186.488455 234.060092 
L 187.469848 234.577866 
L 190.834622 236.490008 
L 191.816015 237.012675 
L 193.358203 237.886316 
L 194.339595 238.40866 
L 195.881784 239.291272 
L 196.582778 239.644431 
L 198.405364 240.703179 
L 199.106359 241.054581 
L 200.928945 242.125984 
L 201.62994 242.489008 
L 203.732924 243.764295 
L 204.433918 244.129704 
L 206.256504 245.222944 
L 207.237897 245.773173 
L 208.780085 246.6904 
L 209.48108 247.056435 
L 211.303666 248.165297 
L 212.00466 248.53714 
L 214.107644 249.842103 
L 214.808639 250.213765 
L 216.631225 251.345465 
L 217.612617 251.899363 
L 218.874408 252.666577 
L 220.416596 253.605045 
L 221.117591 253.985846 
L 223.220575 255.319207 
L 223.921569 255.698289 
L 225.18336 256.459619 
L 226.44515 257.218903 
L 227.426542 257.788012 
L 228.267736 258.230824 
L 228.688333 258.366037 
L 229.249128 258.163527 
L 229.529526 257.454249 
L 229.950123 257.740021 
L 230.230521 258.366037 
L 230.510919 259.602219 
L 230.791317 259.838216 
L 231.211913 259.465712 
L 231.772709 260.223828 
L 232.053107 260.691536 
L 232.333505 260.863474 
L 232.754102 260.877287 
L 233.595295 261.664973 
L 235.277682 262.578654 
L 236.539473 263.353337 
L 237.100268 263.469593 
L 237.380666 262.781083 
L 237.801263 262.128046 
L 238.081661 260.493753 
L 238.362059 261.815849 
L 238.642457 264.406165 
L 239.063053 264.626177 
L 239.343451 264.076216 
L 239.623849 264.601622 
L 239.904247 265.700158 
L 240.324844 265.49476 
L 240.605242 265.49476 
L 240.885639 266.222183 
L 241.166037 266.505734 
L 241.446435 266.496817 
L 242.708226 267.546599 
L 243.128822 267.706114 
L 243.970016 268.443437 
L 244.671011 268.866179 
L 245.231806 269.307311 
L 245.652403 269.408811 
L 245.932801 269.613224 
L 246.493597 269.196198 
L 247.474989 265.181809 
L 247.755387 268.297856 
L 248.175984 270.643197 
L 248.456382 270.333365 
L 248.736779 270.621689 
L 249.017177 271.566027 
L 249.437774 271.916596 
L 249.718172 271.825591 
L 249.99857 272.053811 
L 250.278968 272.824151 
L 250.699564 273.123122 
L 250.979962 273.171336 
L 251.821156 274.05772 
L 252.241753 274.145827 
L 252.522151 273.745892 
L 252.802548 272.836032 
L 253.783941 264.012407 
L 254.344737 275.727272 
L 254.765333 271.723658 
L 255.326129 276.513474 
L 255.606527 275.191828 
L 256.027124 276.23441 
L 256.307522 277.25602 
L 256.587919 276.569714 
L 256.868317 277.299632 
L 257.288914 277.889522 
L 257.84971 277.934406 
L 258.130108 278.373068 
L 258.550704 278.009418 
L 258.831102 277.416354 
L 259.391898 274.65617 
L 259.812495 273.219656 
L 260.092893 275.632625 
L 260.37329 279.245667 
L 260.653688 280.005664 
L 260.934086 278.727288 
L 261.354683 278.75836 
L 261.635081 280.67377 
L 261.915479 281.292882 
L 262.195877 280.63988 
L 262.896871 281.292882 
L 263.177269 282.073975 
L 263.457667 282.219014 
L 264.158662 282.182664 
L 264.439059 282.01983 
L 264.719457 281.415311 
L 265.140054 279.743989 
L 265.981248 270.471717 
L 266.401844 276.206696 
L 266.682242 282.073975 
L 267.243038 279.309337 
L 267.944033 284.761135 
L 268.22443 282.865024 
L 268.504828 283.261916 
L 269.205823 285.382185 
L 269.486221 285.048783 
L 270.467613 285.891938 
L 271.028409 284.986827 
L 271.729404 280.437623 
L 272.009801 275.297881 
L 272.290199 274.941977 
L 272.570597 281.17113 
L 272.991194 286.238441 
L 273.271592 283.128823 
L 273.55199 283.376638 
L 273.832388 287.422153 
L 274.252984 287.113399 
L 274.533382 285.999636 
L 274.81378 287.625768 
L 275.094178 288.171764 
L 275.514775 287.104316 
L 275.795173 286.961756 
L 276.07557 285.956494 
L 276.355968 284.316567 
L 276.776565 279.630476 
L 277.056963 274.669081 
L 277.337361 272.065284 
L 278.038355 286.457804 
L 278.318753 285.934954 
L 278.599151 284.216767 
L 278.879549 286.70834 
L 279.300146 288.207535 
L 279.580544 287.489046 
L 280.141339 289.908787 
L 280.421737 289.434391 
L 280.842334 289.326156 
L 281.122732 289.429345 
L 281.40313 290.215128 
L 281.683528 290.41471 
L 282.384522 290.314693 
L 282.66492 289.813601 
L 282.945318 289.672864 
L 283.365915 288.721852 
L 283.646313 288.699876 
L 283.92671 287.341689 
L 284.207108 286.847022 
L 284.627705 284.477193 
L 284.908103 282.146375 
L 285.188501 277.607355 
L 285.468899 275.945145 
L 285.889495 276.796117 
L 286.450291 287.897076 
L 286.730689 287.181638 
L 287.151286 286.811149 
L 287.712081 290.319946 
L 287.992479 289.926842 
L 288.272877 289.10381 
L 288.973872 291.96928 
L 289.25427 291.715975 
L 289.534667 291.198788 
L 289.955264 290.701472 
L 290.235662 291.738373 
L 290.796458 292.257055 
L 291.497452 292.02313 
L 291.77785 291.26449 
L 292.058248 289.680517 
L 292.478845 285.61436 
L 293.039641 267.612142 
L 293.320039 265.83816 
L 293.740635 282.420013 
L 294.021033 288.64138 
L 294.301431 278.603434 
L 294.581829 288.408934 
L 295.002426 290.765707 
L 295.282824 286.34785 
L 295.563221 291.986271 
L 295.843619 291.797278 
L 296.264216 290.304192 
L 296.544614 292.841181 
L 296.825012 293.003751 
L 297.10541 292.102728 
L 297.526006 293.081021 
L 297.806404 293.362665 
L 298.647598 292.340383 
L 299.068195 289.484914 
L 299.348592 285.678107 
L 299.909388 269.933859 
L 300.329985 274.733751 
L 300.610383 291.291924 
L 300.890781 285.827571 
L 301.171178 286.304021 
L 301.591775 289.999208 
L 301.872173 289.088901 
L 302.152571 292.994852 
L 302.432969 292.711983 
L 302.853566 291.330388 
L 303.133963 293.305446 
L 303.414361 293.758198 
L 303.694759 293.785845 
L 304.115356 294.248677 
L 304.395754 293.669347 
L 304.676152 293.362665 
L 305.657544 293.943173 
L 305.937942 293.980355 
L 306.21834 293.736718 
L 306.638937 293.672404 
L 307.199732 291.333138 
L 307.900727 284.157103 
L 308.181125 276.938809 
L 308.461523 273.015025 
L 308.741921 276.165192 
L 309.022318 289.57361 
L 309.442915 293.474519 
L 309.723313 288.999657 
L 310.003711 290.048449 
L 310.284109 293.045324 
L 310.704706 294.086046 
L 310.985103 292.80587 
L 311.265501 293.305446 
L 311.545899 294.49807 
L 311.966496 295.217668 
L 312.246894 295.122749 
L 312.527292 293.95556 
L 312.80769 293.68464 
L 313.228286 292.638911 
L 313.508684 293.081021 
L 313.789082 292.317365 
L 314.06948 292.968178 
L 314.490077 292.176899 
L 314.770475 292.753009 
L 315.050872 291.743976 
L 315.33127 291.179661 
L 315.751867 288.724295 
L 316.032265 286.325925 
L 316.593061 275.099448 
L 317.013657 271.465284 
L 317.294055 275.007453 
L 317.574453 287.12703 
L 317.854851 290.610792 
L 318.135249 286.107863 
L 318.555846 288.317597 
L 318.836243 295.018482 
L 319.116641 294.827524 
L 319.397039 290.760347 
L 319.817636 293.164539 
L 320.098034 296.148943 
L 320.378432 296.53554 
L 320.658829 295.521526 
L 321.079426 295.083591 
L 321.359824 296.019301 
L 321.92062 296.748984 
L 322.341217 296.403612 
L 322.902012 295.745479 
L 323.18241 295.475015 
L 323.603007 293.872082 
L 323.883405 291.182392 
L 324.444201 275.945145 
L 324.864797 269.408811 
L 325.145195 275.020572 
L 325.425593 285.699397 
L 325.705991 281.556066 
L 326.126588 285.508523 
L 326.406986 296.932582 
L 326.687383 292.008947 
L 326.967781 290.81132 
L 327.388378 293.952463 
L 327.668776 292.53992 
L 327.949174 293.245376 
L 328.229572 296.556443 
L 328.650168 296.647253 
L 328.930566 297.00005 
L 329.210964 297.730398 
L 329.491362 297.20011 
L 329.77176 296.203757 
L 330.192357 295.161976 
L 330.472754 293.471488 
L 331.734545 275.444543 
L 332.014943 276.781898 
L 332.29534 287.177082 
L 332.715937 296.615776 
L 333.276733 289.538089 
L 333.557131 291.4158 
L 333.977728 296.756017 
L 334.258125 297.272003 
L 334.818921 295.927649 
L 335.239518 296.172907 
L 335.519916 297.178588 
L 335.800314 296.77009 
L 336.080712 297.362199 
L 336.501308 296.897156 
L 336.781706 297.937229 
L 337.062104 297.664326 
L 337.342502 298.402237 
L 337.763099 297.877936 
L 338.043497 298.273756 
L 338.323894 297.035642 
L 338.604292 296.563415 
L 339.024889 292.735417 
L 339.305287 287.142943 
L 339.866083 268.796806 
L 340.14648 264.989487 
L 340.567077 274.617482 
L 340.847475 287.197591 
L 341.127873 283.998784 
L 341.408271 287.746976 
L 341.828868 295.435227 
L 342.109265 290.846264 
L 342.389663 293.248375 
L 342.670061 299.362754 
L 343.371056 296.300013 
L 343.651454 298.168507 
L 343.931852 299.130422 
L 344.352448 299.204974 
L 344.632846 299.501745 
L 344.913244 300.013571 
L 345.614239 299.489797 
L 346.175034 299.406343 
L 346.876029 298.56199 
L 347.436825 294.998987 
L 348.137819 281.591396 
L 348.418217 270.471717 
L 348.698615 264.309082 
L 348.979013 273.37743 
L 349.39961 299.430155 
L 349.680008 286.557234 
L 349.960405 284.05802 
L 350.240803 298.326569 
L 350.6614 295.856626 
L 350.941798 292.162616 
L 351.222196 299.024911 
L 351.502594 299.339015 
L 351.92319 296.875927 
L 352.483986 300.899599 
L 352.764384 299.557588 
L 353.044782 299.461944 
L 353.465379 300.793742 
L 353.745776 300.984652 
L 354.026174 299.629594 
L 354.306572 299.717921 
L 354.727169 297.866836 
L 355.007567 294.35882 
L 355.568363 274.876695 
L 355.988959 268.599791 
L 356.549755 297.300826 
L 356.830153 284.638998 
L 357.531148 300.793742 
L 357.811545 293.347593 
L 358.091943 298.288832 
L 358.51254 298.823117 
L 358.792938 294.801758 
L 359.073336 298.303919 
L 359.353734 298.646134 
L 359.77433 297.336907 
L 360.054728 297.741429 
L 360.335126 297.225246 
L 360.895922 291.912738 
L 361.316519 288.041097 
L 361.877314 280.353894 
L 362.157712 280.220585 
L 362.578309 286.042863 
L 362.858707 297.752466 
L 363.139105 301.787354 
L 363.419502 298.119812 
L 363.840099 295.762283 
L 364.120497 296.303458 
L 364.400895 299.863226 
L 364.681293 301.493259 
L 365.10189 302.556236 
L 365.382287 302.103348 
L 365.662685 300.408506 
L 366.36368 298.927664 
L 366.644078 298.086162 
L 367.62547 286.413757 
L 368.186266 276.654343 
L 368.466664 277.328755 
L 368.887261 284.925046 
L 369.167659 297.452766 
L 369.448056 299.653648 
L 369.728454 295.234075 
L 370.149051 294.126591 
L 370.990245 303.046678 
L 371.270642 303.098203 
L 371.691239 302.999941 
L 371.971637 302.401208 
L 372.532433 302.657133 
L 372.95303 302.451245 
L 373.233427 301.93811 
L 373.513825 299.529649 
L 373.794223 294.264378 
L 374.21482 281.24062 
L 374.495218 265.418227 
L 374.775616 257.72804 
L 375.056014 278.665274 
L 375.47661 277.34333 
L 375.757008 274.746707 
L 376.037406 297.896448 
L 376.317804 286.497523 
L 376.738401 302.712362 
L 377.018799 292.074268 
L 377.299196 297.852045 
L 377.579594 296.39323 
L 378.000191 295.785831 
L 378.280589 299.465921 
L 378.560987 298.417402 
L 378.841385 300.954846 
L 379.261981 299.378595 
L 379.542379 300.562629 
L 380.383573 297.311644 
L 380.80417 293.516991 
L 381.645363 275.578724 
L 382.06596 275.835939 
L 382.346358 284.94562 
L 382.626756 302.487707 
L 382.907153 300.267823 
L 383.32775 292.470311 
L 383.608148 293.98966 
L 383.888546 301.027302 
L 384.168944 304.69773 
L 384.869938 300.479185 
L 385.150336 301.125712 
L 386.131729 304.773498 
L 386.412127 304.981934 
L 387.393519 304.258397 
L 387.954315 303.314987 
L 388.374912 301.211644 
L 388.65531 297.959505 
L 389.636702 276.429383 
L 389.9171 269.996459 
L 390.197498 272.482348 
L 390.758293 301.655184 
L 391.17889 290.919018 
L 391.459288 290.298943 
L 391.739686 298.179759 
L 392.160283 301.306558 
L 392.440681 297.003606 
L 392.721078 298.311466 
L 393.001476 302.869602 
L 393.281874 304.89527 
L 393.702471 303.452759 
L 393.982869 303.910208 
L 394.263267 304.587073 
L 394.543664 305.677247 
L 394.964261 305.730026 
L 395.244659 304.228759 
L 395.525057 303.711617 
L 396.226052 296.313798 
L 397.067245 267.640292 
L 397.487842 279.679053 
L 397.76824 303.462292 
L 398.048638 287.847712 
L 398.329036 289.836717 
L 398.749632 304.412165 
L 399.03003 296.939674 
L 399.310428 296.918405 
L 399.590826 301.800614 
L 400.011423 297.110573 
L 400.572218 286.064509 
L 400.852616 277.25602 
L 401.273213 270.794344 
L 401.553611 273.696407 
L 402.114407 304.627248 
L 402.535003 292.557357 
L 402.815401 292.09134 
L 403.095799 301.108566 
L 403.376197 305.777636 
L 403.656595 302.112316 
L 404.077192 300.658982 
L 404.637987 306.367992 
L 404.918385 306.619635 
L 405.61938 305.373595 
L 405.899778 305.566821 
L 406.180176 306.32452 
L 406.88117 307.058621 
L 407.161568 306.991374 
L 407.441966 306.752075 
L 407.862563 305.467385 
L 408.142961 305.033073 
L 408.703756 302.689333 
L 409.124353 298.176008 
L 409.404751 290.824753 
L 409.965547 271.012083 
L 410.386143 266.96532 
L 410.666541 278.357796 
L 410.946939 304.819084 
L 411.227337 294.101631 
L 411.647934 285.891938 
L 412.208729 302.333159 
L 412.489127 290.943323 
L 413.47052 263.64905 
L 413.750918 286.021239 
L 414.031315 294.361975 
L 414.451912 282.548882 
L 414.73231 302.515093 
L 415.012708 294.501245 
L 415.293106 295.594812 
L 415.713703 307.472187 
L 415.9941 300.033967 
L 416.274498 304.283126 
L 416.554896 306.389761 
L 416.975493 304.652394 
L 417.255891 306.829702 
L 417.536289 306.70784 
L 417.816687 305.798829 
L 418.517681 307.546656 
L 418.798079 307.443611 
L 419.078477 307.876179 
L 419.499074 308.22845 
L 419.779472 308.104514 
L 420.059869 307.59836 
L 420.340267 307.719475 
L 420.760864 307.233298 
L 421.041262 305.825348 
L 421.32166 303.107584 
L 421.602058 297.297221 
L 422.022654 285.763391 
L 422.58345 261.029806 
L 422.863848 263.307006 
L 423.284445 294.26752 
L 423.564843 293.510918 
L 423.84524 280.220585 
L 424.125638 300.029886 
L 424.406036 300.878387 
L 424.826633 291.935338 
L 425.107031 304.869845 
L 425.387429 305.368397 
L 425.667826 300.259575 
L 426.088423 306.570174 
L 426.368821 308.028139 
L 426.649219 305.687793 
L 427.350214 308.628588 
L 427.630611 307.992978 
L 427.911009 307.771586 
L 428.191407 308.834455 
L 428.612004 308.526371 
L 428.892402 308.151645 
L 429.1728 307.449323 
L 429.453198 306.054744 
L 429.873794 298.84244 
L 430.154192 287.519098 
L 430.714988 259.144058 
L 431.135585 271.825591 
L 431.415983 304.753268 
L 431.69638 277.504303 
L 431.976778 299.067836 
L 432.397375 294.447332 
L 432.677773 293.520027 
L 432.958171 308.484419 
L 433.238569 296.819418 
L 433.659165 308.128067 
L 433.939563 304.662461 
L 434.219961 304.357479 
L 434.500359 309.005449 
L 434.780757 305.661438 
L 435.201354 307.882004 
L 435.762149 306.097687 
L 436.042547 303.262953 
L 436.463144 297.39114 
L 437.304338 260.466611 
L 437.724934 262.788616 
L 438.005332 295.408742 
L 438.28573 291.743976 
L 438.566128 278.89873 
L 438.986725 300.852959 
L 439.267123 301.228871 
L 439.54752 293.435154 
L 439.827918 306.779768 
L 440.248515 306.027947 
L 440.528913 301.628845 
L 440.809311 308.051611 
L 441.089709 308.496397 
L 441.510305 305.363199 
L 442.071101 309.906425 
L 442.351499 307.893659 
L 442.772096 307.301288 
L 443.052494 309.32657 
L 443.332891 309.970381 
L 443.613289 309.513982 
L 444.033886 309.438826 
L 444.314284 309.153077 
L 444.594682 310.008844 
L 445.576074 309.976787 
L 446.13687 310.286479 
L 446.837865 310.33852 
L 447.39866 309.912812 
L 447.679058 308.901473 
L 448.099655 308.204789 
L 448.380053 305.038193 
L 448.660451 300.309107 
L 449.641843 262.675888 
L 449.922241 270.365215 
L 450.202639 308.938114 
L 450.623236 284.038257 
L 450.903634 287.42676 
L 451.184031 305.7089 
L 451.464429 287.742302 
L 451.885026 286.194829 
L 452.445822 255.540449 
L 452.72622 253.451588 
L 453.146816 285.720707 
L 453.427214 283.415012 
L 453.707612 274.27231 
L 453.98801 307.725259 
L 454.408607 285.999636 
L 454.969402 305.942415 
L 455.2498 293.967954 
L 455.530198 309.526533 
L 455.950795 303.701975 
L 456.231193 303.29132 
L 456.511591 311.127493 
L 456.791988 306.18922 
L 457.492983 310.8125 
L 457.773381 309.551657 
L 458.053779 310.449516 
L 458.474376 311.053367 
L 458.754773 310.23456 
L 459.315569 311.337746 
L 459.736166 311.013039 
L 460.57736 311.371846 
L 460.997956 311.066826 
L 461.278354 311.440205 
L 461.558752 311.536266 
L 461.83915 311.08703 
L 462.259747 311.3582 
L 462.540145 311.15451 
L 462.820542 311.59824 
L 463.10094 311.495046 
L 463.521537 311.550023 
L 463.801935 311.419675 
L 464.082333 311.481323 
L 464.362731 310.653371 
L 464.783327 310.613768 
L 465.063725 309.501438 
L 465.344123 307.806395 
L 466.045118 295.031489 
L 466.605913 268.443437 
L 466.886311 264.964524 
L 467.166709 283.861181 
L 467.587306 288.245755 
L 467.867704 272.157286 
L 468.148102 274.553152 
L 468.4285 278.009418 
L 468.849096 280.170802 
L 469.129494 299.875378 
L 469.409892 310.028101 
L 469.69029 297.737751 
L 470.110887 299.713899 
L 470.391285 300.491682 
L 470.671682 302.981274 
L 470.95208 309.345239 
L 471.372677 311.365022 
L 471.653075 310.371108 
L 471.933473 310.528204 
L 471.933473 310.528204 
" clip-path="url(#pa6c35b7b9e)" style="fill: none; stroke: #2ca02c; stroke-linecap: square"/>
   </g>
   <g id="patch_3">
    <path d="M 51.19649 322.70927 
L 51.19649 20.657865 
" style="fill: none; stroke: #000000; stroke-width: 0.8; stroke-linejoin: miter; stroke-linecap: square"/>
   </g>
   <g id="patch_4">
    <path d="M 471.793274 322.70927 
L 471.793274 20.657865 
" style="fill: none; stroke: #000000; stroke-width: 0.8; stroke-linejoin: miter; stroke-linecap: square"/>
   </g>
   <g id="patch_5">
    <path d="M 51.19649 322.70927 
L 471.793274 322.70927 
" style="fill: none; stroke: #000000; stroke-width: 0.8; stroke-linejoin: miter; stroke-linecap: square"/>
   </g>
   <g id="patch_6">
    <path d="M 51.19649 20.657865 
L 471.793274 20.657865 
" style="fill: none; stroke: #000000; stroke-width: 0.8; stroke-linejoin: miter; stroke-linecap: square"/>
   </g>
   <g id="text_16">
    <!-- lr = 0.001 -->
    <g transform="translate(228.527507 14.657865) scale(0.168 -0.168)">
     <defs>
      <path id="LiberationSerif-6c" d="M 1147 219 
L 1650 141 
L 1650 0 
L 128 0 
L 128 141 
L 628 219 
L 628 4225 
L 128 4300 
L 128 4441 
L 1147 4441 
L 1147 219 
z
" transform="scale(0.015625)"/>
      <path id="LiberationSerif-72" d="M 2075 3016 
L 2075 2222 
L 1941 2222 
L 1759 2566 
Q 1603 2566 1389 2523 
Q 1175 2481 1019 2413 
L 1019 219 
L 1522 141 
L 1522 0 
L 128 0 
L 128 141 
L 500 219 
L 500 2719 
L 128 2797 
L 128 2938 
L 984 2938 
L 1013 2572 
Q 1200 2728 1520 2872 
Q 1841 3016 2028 3016 
L 2075 3016 
z
" transform="scale(0.015625)"/>
      <path id="LiberationSerif-3d" d="M 3297 1644 
L 3297 1325 
L 319 1325 
L 319 1644 
L 3297 1644 
z
M 3297 2925 
L 3297 2606 
L 319 2606 
L 319 2925 
L 3297 2925 
z
" transform="scale(0.015625)"/>
      <path id="LiberationSerif-30" d="M 2956 2113 
Q 2956 -63 1581 -63 
Q 919 -63 581 493 
Q 244 1050 244 2113 
Q 244 3153 581 3704 
Q 919 4256 1606 4256 
Q 2269 4256 2612 3711 
Q 2956 3166 2956 2113 
z
M 2381 2113 
Q 2381 3119 2190 3562 
Q 2000 4006 1581 4006 
Q 1175 4006 997 3587 
Q 819 3169 819 2113 
Q 819 1050 1000 617 
Q 1181 184 1581 184 
Q 1994 184 2187 639 
Q 2381 1094 2381 2113 
z
" transform="scale(0.015625)"/>
      <path id="LiberationSerif-2e" d="M 1178 288 
Q 1178 134 1070 21 
Q 963 -91 800 -91 
Q 638 -91 530 21 
Q 422 134 422 288 
Q 422 447 531 556 
Q 641 666 800 666 
Q 959 666 1068 556 
Q 1178 447 1178 288 
z
" transform="scale(0.015625)"/>
      <path id="LiberationSerif-31" d="M 1959 250 
L 2816 166 
L 2816 0 
L 563 0 
L 563 166 
L 1422 250 
L 1422 3669 
L 575 3366 
L 575 3531 
L 1797 4225 
L 1959 4225 
L 1959 250 
z
" transform="scale(0.015625)"/>
     </defs>
     <use xlink:href="#LiberationSerif-6c"/>
     <use xlink:href="#LiberationSerif-72" x="27.783203"/>
     <use xlink:href="#LiberationSerif-20" x="61.083984"/>
     <use xlink:href="#LiberationSerif-3d" x="86.083984"/>
     <use xlink:href="#LiberationSerif-20" x="142.480469"/>
     <use xlink:href="#LiberationSerif-30" x="167.480469"/>
     <use xlink:href="#LiberationSerif-2e" x="217.480469"/>
     <use xlink:href="#LiberationSerif-30" x="242.480469"/>
     <use xlink:href="#LiberationSerif-30" x="292.480469"/>
     <use xlink:href="#LiberationSerif-31" x="342.480469"/>
    </g>
   </g>
   <g id="legend_1">
    <g id="patch_7">
     <path d="M 338.373274 91.497865 
L 461.993274 91.497865 
Q 464.793274 91.497865 464.793274 88.697865 
L 464.793274 30.457865 
Q 464.793274 27.657865 461.993274 27.657865 
L 338.373274 27.657865 
Q 335.573274 27.657865 335.573274 30.457865 
L 335.573274 88.697865 
Q 335.573274 91.497865 338.373274 91.497865 
z
" style="fill: #ffffff; opacity: 0.8; stroke: #cccccc; stroke-linejoin: miter"/>
    </g>
    <g id="line2d_65">
     <path d="M 341.173274 38.157865 
L 355.173274 38.157865 
L 369.173274 38.157865 
" style="fill: none; stroke: #1f77b4; stroke-linecap: square"/>
    </g>
    <g id="text_17">
     <!-- $\mathdefault{|N_{batch}| = 64}$ -->
     <g transform="translate(380.373274 43.057865) scale(0.14 -0.14)">
      <defs>
       <path id="LiberationSerif-7c" d="M 481 -1381 
L 481 4441 
L 800 4441 
L 800 -1381 
L 481 -1381 
z
" transform="scale(0.015625)"/>
       <path id="LiberationSerif-4e" d="M 3609 3944 
L 3047 4025 
L 3047 4191 
L 4475 4191 
L 4475 4025 
L 3938 3944 
L 3938 0 
L 3634 0 
L 1050 3769 
L 1050 250 
L 1613 166 
L 1613 0 
L 184 0 
L 184 166 
L 722 250 
L 722 3944 
L 184 4025 
L 184 4191 
L 1453 4191 
L 3609 1088 
L 3609 3944 
z
" transform="scale(0.015625)"/>
       <path id="LiberationSerif-62" d="M 2394 1550 
Q 2394 2125 2194 2406 
Q 1994 2688 1575 2688 
Q 1391 2688 1209 2655 
Q 1028 2622 947 2584 
L 947 256 
Q 1209 206 1575 206 
Q 2006 206 2200 543 
Q 2394 881 2394 1550 
z
M 428 4225 
L 0 4300 
L 0 4441 
L 947 4441 
L 947 3391 
Q 947 3222 928 2772 
Q 1241 3016 1716 3016 
Q 2316 3016 2636 2652 
Q 2956 2288 2956 1550 
Q 2956 759 2604 348 
Q 2253 -63 1588 -63 
Q 1319 -63 995 -3 
Q 672 56 428 153 
L 428 4225 
z
" transform="scale(0.015625)"/>
       <path id="LiberationSerif-61" d="M 1453 3003 
Q 1934 3003 2161 2806 
Q 2388 2609 2388 2203 
L 2388 219 
L 2753 141 
L 2753 0 
L 1947 0 
L 1888 294 
Q 1531 -63 978 -63 
Q 225 -63 225 813 
Q 225 1106 339 1298 
Q 453 1491 703 1592 
Q 953 1694 1428 1703 
L 1869 1716 
L 1869 2175 
Q 1869 2478 1758 2622 
Q 1647 2766 1416 2766 
Q 1103 2766 844 2619 
L 738 2253 
L 563 2253 
L 563 2894 
Q 1069 3003 1453 3003 
z
M 1869 1497 
L 1459 1484 
Q 1041 1469 892 1322 
Q 744 1175 744 831 
Q 744 281 1191 281 
Q 1403 281 1558 329 
Q 1713 378 1869 453 
L 1869 1497 
z
" transform="scale(0.015625)"/>
       <path id="LiberationSerif-68" d="M 1019 3169 
Q 1019 2844 997 2700 
Q 1222 2828 1508 2922 
Q 1794 3016 1991 3016 
Q 2372 3016 2565 2794 
Q 2759 2572 2759 2150 
L 2759 219 
L 3116 141 
L 3116 0 
L 1850 0 
L 1850 141 
L 2241 219 
L 2241 2113 
Q 2241 2650 1722 2650 
Q 1428 2650 1019 2559 
L 1019 219 
L 1416 141 
L 1416 0 
L 128 0 
L 128 141 
L 500 219 
L 500 4225 
L 63 4300 
L 63 4441 
L 1019 4441 
L 1019 3169 
z
" transform="scale(0.015625)"/>
       <path id="LiberationSerif-36" d="M 3009 1300 
Q 3009 647 2679 292 
Q 2350 -63 1728 -63 
Q 1022 -63 648 487 
Q 275 1038 275 2069 
Q 275 2744 472 3234 
Q 669 3725 1023 3981 
Q 1378 4238 1844 4238 
Q 2300 4238 2753 4128 
L 2753 3406 
L 2547 3406 
L 2438 3834 
Q 2334 3891 2159 3933 
Q 1984 3975 1844 3975 
Q 1388 3975 1133 3533 
Q 878 3091 853 2241 
Q 1363 2509 1875 2509 
Q 2428 2509 2718 2198 
Q 3009 1888 3009 1300 
z
M 1716 184 
Q 2094 184 2262 429 
Q 2431 675 2431 1241 
Q 2431 1753 2270 1981 
Q 2109 2209 1759 2209 
Q 1331 2209 850 2053 
Q 850 1100 1065 642 
Q 1281 184 1716 184 
z
" transform="scale(0.015625)"/>
       <path id="LiberationSerif-34" d="M 2531 922 
L 2531 0 
L 1994 0 
L 1994 922 
L 125 922 
L 125 1338 
L 2172 4213 
L 2531 4213 
L 2531 1369 
L 3100 1369 
L 3100 922 
L 2531 922 
z
M 1994 3478 
L 1978 3478 
L 478 1369 
L 1994 1369 
L 1994 3478 
z
" transform="scale(0.015625)"/>
      </defs>
      <use xlink:href="#LiberationSerif-7c" transform="translate(0 0.609375)"/>
      <use xlink:href="#LiberationSerif-4e" transform="translate(20.019531 0.609375)"/>
      <use xlink:href="#LiberationSerif-62" transform="translate(93.039687 -13.1625) scale(0.7)"/>
      <use xlink:href="#LiberationSerif-61" transform="translate(128.039687 -13.1625) scale(0.7)"/>
      <use xlink:href="#LiberationSerif-74" transform="translate(159.109023 -13.1625) scale(0.7)"/>
      <use xlink:href="#LiberationSerif-63" transform="translate(178.557266 -13.1625) scale(0.7)"/>
      <use xlink:href="#LiberationSerif-68" transform="translate(209.626602 -13.1625) scale(0.7)"/>
      <use xlink:href="#LiberationSerif-7c" transform="translate(246.921914 0.609375)"/>
      <use xlink:href="#LiberationSerif-3d" transform="translate(286.423867 0.609375)"/>
      <use xlink:href="#LiberationSerif-36" transform="translate(362.302773 0.609375)"/>
      <use xlink:href="#LiberationSerif-34" transform="translate(412.302773 0.609375)"/>
     </g>
    </g>
    <g id="line2d_66">
     <path d="M 341.173274 58.037865 
L 355.173274 58.037865 
L 369.173274 58.037865 
" style="fill: none; stroke: #ff7f0e; stroke-linecap: square"/>
    </g>
    <g id="text_18">
     <!-- $\mathdefault{|N_{batch}| = 512}$ -->
     <g transform="translate(380.373274 62.937865) scale(0.14 -0.14)">
      <defs>
       <path id="LiberationSerif-35" d="M 1516 2450 
Q 2241 2450 2595 2153 
Q 2950 1856 2950 1247 
Q 2950 616 2565 276 
Q 2181 -63 1466 -63 
Q 872 -63 406 72 
L 372 953 
L 578 953 
L 719 366 
Q 856 291 1048 244 
Q 1241 197 1416 197 
Q 1909 197 2142 430 
Q 2375 663 2375 1216 
Q 2375 1603 2275 1801 
Q 2175 2000 1956 2094 
Q 1738 2188 1369 2188 
Q 1084 2188 813 2113 
L 513 2113 
L 513 4191 
L 2638 4191 
L 2638 3713 
L 794 3713 
L 794 2375 
Q 1131 2450 1516 2450 
z
" transform="scale(0.015625)"/>
       <path id="LiberationSerif-32" d="M 2847 0 
L 281 0 
L 281 459 
L 863 988 
Q 1422 1478 1684 1781 
Q 1947 2084 2061 2406 
Q 2175 2728 2175 3144 
Q 2175 3550 1990 3762 
Q 1806 3975 1388 3975 
Q 1222 3975 1047 3929 
Q 872 3884 738 3809 
L 628 3297 
L 422 3297 
L 422 4103 
Q 991 4238 1388 4238 
Q 2075 4238 2420 3952 
Q 2766 3666 2766 3144 
Q 2766 2794 2630 2483 
Q 2494 2172 2212 1864 
Q 1931 1556 1281 1003 
Q 1003 766 691 481 
L 2847 481 
L 2847 0 
z
" transform="scale(0.015625)"/>
      </defs>
      <use xlink:href="#LiberationSerif-7c" transform="translate(0 0.609375)"/>
      <use xlink:href="#LiberationSerif-4e" transform="translate(20.019531 0.609375)"/>
      <use xlink:href="#LiberationSerif-62" transform="translate(93.039687 -13.1625) scale(0.7)"/>
      <use xlink:href="#LiberationSerif-61" transform="translate(128.039687 -13.1625) scale(0.7)"/>
      <use xlink:href="#LiberationSerif-74" transform="translate(159.109023 -13.1625) scale(0.7)"/>
      <use xlink:href="#LiberationSerif-63" transform="translate(178.557266 -13.1625) scale(0.7)"/>
      <use xlink:href="#LiberationSerif-68" transform="translate(209.626602 -13.1625) scale(0.7)"/>
      <use xlink:href="#LiberationSerif-7c" transform="translate(246.921914 0.609375)"/>
      <use xlink:href="#LiberationSerif-3d" transform="translate(286.423867 0.609375)"/>
      <use xlink:href="#LiberationSerif-35" transform="translate(362.302773 0.609375)"/>
      <use xlink:href="#LiberationSerif-31" transform="translate(412.302773 0.609375)"/>
      <use xlink:href="#LiberationSerif-32" transform="translate(462.302773 0.609375)"/>
     </g>
    </g>
    <g id="line2d_67">
     <path d="M 341.173274 77.917865 
L 355.173274 77.917865 
L 369.173274 77.917865 
" style="fill: none; stroke: #2ca02c; stroke-linecap: square"/>
    </g>
    <g id="text_19">
     <!-- $\mathdefault{|N_{batch}| = 4096}$ -->
     <g transform="translate(380.373274 82.817865) scale(0.14 -0.14)">
      <defs>
       <path id="LiberationSerif-39" d="M 206 2913 
Q 206 3544 559 3891 
Q 913 4238 1556 4238 
Q 2272 4238 2605 3722 
Q 2938 3206 2938 2106 
Q 2938 1053 2509 495 
Q 2081 -63 1306 -63 
Q 797 -63 372 44 
L 372 769 
L 575 769 
L 684 319 
Q 784 272 953 234 
Q 1122 197 1294 197 
Q 1794 197 2062 636 
Q 2331 1075 2359 1928 
Q 1884 1663 1394 1663 
Q 841 1663 523 1992 
Q 206 2322 206 2913 
z
M 1563 3988 
Q 781 3988 781 2900 
Q 781 2422 968 2194 
Q 1156 1966 1550 1966 
Q 1953 1966 2363 2131 
Q 2363 3091 2173 3539 
Q 1984 3988 1563 3988 
z
" transform="scale(0.015625)"/>
      </defs>
      <use xlink:href="#LiberationSerif-7c" transform="translate(0 0.609375)"/>
      <use xlink:href="#LiberationSerif-4e" transform="translate(20.019531 0.609375)"/>
      <use xlink:href="#LiberationSerif-62" transform="translate(93.039687 -13.1625) scale(0.7)"/>
      <use xlink:href="#LiberationSerif-61" transform="translate(128.039687 -13.1625) scale(0.7)"/>
      <use xlink:href="#LiberationSerif-74" transform="translate(159.109023 -13.1625) scale(0.7)"/>
      <use xlink:href="#LiberationSerif-63" transform="translate(178.557266 -13.1625) scale(0.7)"/>
      <use xlink:href="#LiberationSerif-68" transform="translate(209.626602 -13.1625) scale(0.7)"/>
      <use xlink:href="#LiberationSerif-7c" transform="translate(246.921914 0.609375)"/>
      <use xlink:href="#LiberationSerif-3d" transform="translate(286.423867 0.609375)"/>
      <use xlink:href="#LiberationSerif-34" transform="translate(362.302773 0.609375)"/>
      <use xlink:href="#LiberationSerif-30" transform="translate(412.302773 0.609375)"/>
      <use xlink:href="#LiberationSerif-39" transform="translate(462.302773 0.609375)"/>
      <use xlink:href="#LiberationSerif-36" transform="translate(512.302773 0.609375)"/>
     </g>
    </g>
   </g>
  </g>
 </g>
 <defs>
  <clipPath id="pa6c35b7b9e">
   <rect x="51.19649" y="20.657865" width="420.596784" height="302.051405"/>
  </clipPath>
 </defs>
</svg>
