<?xml version="1.0" encoding="utf-8" standalone="no"?>
<!DOCTYPE svg PUBLIC "-//W3C//DTD SVG 1.1//EN"
  "http://www.w3.org/Graphics/SVG/1.1/DTD/svg11.dtd">
<svg xmlns:xlink="http://www.w3.org/1999/xlink" width="240.944882pt" height="180.708661pt" viewBox="0 0 240.944882 180.708661" xmlns="http://www.w3.org/2000/svg" version="1.1">
 <metadata>
  <rdf:RDF xmlns:dc="http://purl.org/dc/elements/1.1/" xmlns:cc="http://creativecommons.org/ns#" xmlns:rdf="http://www.w3.org/1999/02/22-rdf-syntax-ns#">
   <cc:Work>
    <dc:type rdf:resource="http://purl.org/dc/dcmitype/StillImage"/>
    <dc:date>2023-06-22T01:07:44.324674</dc:date>
    <dc:format>image/svg+xml</dc:format>
    <dc:creator>
     <cc:Agent>
      <dc:title>Matplotlib v3.7.1, https://matplotlib.org/</dc:title>
     </cc:Agent>
    </dc:creator>
   </cc:Work>
  </rdf:RDF>
 </metadata>
 <defs>
  <style type="text/css">*{stroke-linejoin: round; stroke-linecap: butt}</style>
 </defs>
 <g id="figure_1">
  <g id="patch_1">
   <path d="M 0 180.708661 
L 240.944882 180.708661 
L 240.944882 0 
L 0 0 
z
" style="fill: #ffffff"/>
  </g>
  <g id="axes_1">
   <g id="patch_2">
    <path d="M 40.56899 149.059984 
L 230.341517 149.059984 
L 230.341517 3.00024 
L 40.56899 3.00024 
z
" style="fill: #ffffff"/>
   </g>
   <g id="matplotlib.axis_1">
    <g id="xtick_1">
     <g id="line2d_1">
      <defs>
       <path id="m8d9f526e15" d="M 0 0 
L 0 3.5 
" style="stroke: #000000; stroke-width: 0.8"/>
      </defs>
      <g>
       <use xlink:href="#m8d9f526e15" x="40.56899" y="149.059984" style="stroke: #000000; stroke-width: 0.8"/>
      </g>
     </g>
     <g id="text_1">
      <!-- 0 -->
      <g transform="translate(38.034615 162.861546) scale(0.1 -0.1)">
       <defs>
        <path id="Calibri-30" d="M 3022 2031 
Q 3022 1566 2948 1181 
Q 2875 797 2704 520 
Q 2534 244 2259 92 
Q 1984 -59 1581 -59 
Q 1200 -59 939 77 
Q 678 213 518 477 
Q 359 741 292 1127 
Q 225 1513 225 2013 
Q 225 2475 300 2861 
Q 375 3247 544 3523 
Q 713 3800 988 3951 
Q 1263 4103 1663 4103 
Q 2047 4103 2308 3967 
Q 2569 3831 2728 3567 
Q 2888 3303 2955 2917 
Q 3022 2531 3022 2031 
z
M 2472 1994 
Q 2472 2297 2450 2537 
Q 2428 2778 2386 2962 
Q 2344 3147 2276 3280 
Q 2209 3413 2115 3498 
Q 2022 3584 1901 3623 
Q 1781 3663 1631 3663 
Q 1366 3663 1200 3538 
Q 1034 3413 939 3194 
Q 844 2975 809 2681 
Q 775 2388 775 2050 
Q 775 1597 822 1280 
Q 869 963 970 763 
Q 1072 563 1230 472 
Q 1388 381 1613 381 
Q 1788 381 1920 437 
Q 2053 494 2148 598 
Q 2244 703 2306 850 
Q 2369 997 2406 1175 
Q 2444 1353 2458 1561 
Q 2472 1769 2472 1994 
z
" transform="scale(0.015625)"/>
       </defs>
       <use xlink:href="#Calibri-30"/>
      </g>
     </g>
    </g>
    <g id="xtick_2">
     <g id="line2d_2">
      <g>
       <use xlink:href="#m8d9f526e15" x="72.197744" y="149.059984" style="stroke: #000000; stroke-width: 0.8"/>
      </g>
     </g>
     <g id="text_2">
      <!-- 50 -->
      <g transform="translate(67.128994 162.861546) scale(0.1 -0.1)">
       <defs>
        <path id="Calibri-35" d="M 2869 1300 
Q 2869 975 2759 722 
Q 2650 469 2450 295 
Q 2250 122 1973 31 
Q 1697 -59 1359 -59 
Q 1172 -59 1003 -32 
Q 834 -6 703 33 
Q 572 72 487 109 
Q 403 147 379 169 
Q 356 191 347 209 
Q 338 228 330 254 
Q 322 281 319 322 
Q 316 363 316 419 
Q 316 472 320 514 
Q 325 556 337 582 
Q 350 609 367 621 
Q 384 634 406 634 
Q 438 634 503 595 
Q 569 556 680 511 
Q 791 466 955 425 
Q 1119 384 1344 384 
Q 1553 384 1728 434 
Q 1903 484 2029 590 
Q 2156 697 2228 858 
Q 2300 1019 2300 1250 
Q 2300 1444 2239 1592 
Q 2178 1741 2051 1839 
Q 1925 1938 1731 1986 
Q 1538 2034 1269 2034 
Q 1078 2034 940 2015 
Q 803 1997 684 1997 
Q 597 1997 559 2037 
Q 522 2078 522 2194 
L 522 3841 
Q 522 3944 570 3994 
Q 619 4044 709 4044 
L 2500 4044 
Q 2525 4044 2548 4030 
Q 2572 4016 2587 3987 
Q 2603 3959 2611 3915 
Q 2619 3872 2619 3813 
Q 2619 3700 2587 3637 
Q 2556 3575 2500 3575 
L 991 3575 
L 991 2441 
Q 1100 2456 1214 2459 
Q 1328 2463 1478 2463 
Q 1825 2463 2084 2380 
Q 2344 2297 2517 2145 
Q 2691 1994 2780 1778 
Q 2869 1563 2869 1300 
z
" transform="scale(0.015625)"/>
       </defs>
       <use xlink:href="#Calibri-35"/>
       <use xlink:href="#Calibri-30" x="50.683594"/>
      </g>
     </g>
    </g>
    <g id="xtick_3">
     <g id="line2d_3">
      <g>
       <use xlink:href="#m8d9f526e15" x="103.826499" y="149.059984" style="stroke: #000000; stroke-width: 0.8"/>
      </g>
     </g>
     <g id="text_3">
      <!-- 100 -->
      <g transform="translate(96.223374 162.861546) scale(0.1 -0.1)">
       <defs>
        <path id="Calibri-31" d="M 2897 213 
Q 2897 153 2887 112 
Q 2878 72 2862 47 
Q 2847 22 2826 11 
Q 2806 0 2784 0 
L 672 0 
Q 650 0 631 11 
Q 613 22 595 47 
Q 578 72 568 112 
Q 559 153 559 213 
Q 559 269 568 309 
Q 578 350 592 376 
Q 606 403 626 417 
Q 647 431 672 431 
L 1516 431 
L 1516 3506 
L 734 3041 
Q 675 3009 639 3003 
Q 603 2997 581 3017 
Q 559 3038 551 3084 
Q 544 3131 544 3203 
Q 544 3256 548 3293 
Q 553 3331 562 3356 
Q 572 3381 589 3400 
Q 606 3419 634 3438 
L 1566 4034 
Q 1578 4044 1597 4050 
Q 1616 4056 1644 4062 
Q 1672 4069 1709 4070 
Q 1747 4072 1803 4072 
Q 1878 4072 1928 4065 
Q 1978 4059 2006 4048 
Q 2034 4038 2043 4020 
Q 2053 4003 2053 3984 
L 2053 431 
L 2784 431 
Q 2809 431 2831 417 
Q 2853 403 2867 376 
Q 2881 350 2889 309 
Q 2897 269 2897 213 
z
" transform="scale(0.015625)"/>
       </defs>
       <use xlink:href="#Calibri-31"/>
       <use xlink:href="#Calibri-30" x="50.683594"/>
       <use xlink:href="#Calibri-30" x="101.367188"/>
      </g>
     </g>
    </g>
    <g id="xtick_4">
     <g id="line2d_4">
      <g>
       <use xlink:href="#m8d9f526e15" x="135.455253" y="149.059984" style="stroke: #000000; stroke-width: 0.8"/>
      </g>
     </g>
     <g id="text_4">
      <!-- 150 -->
      <g transform="translate(127.852128 162.861546) scale(0.1 -0.1)">
       <use xlink:href="#Calibri-31"/>
       <use xlink:href="#Calibri-35" x="50.683594"/>
       <use xlink:href="#Calibri-30" x="101.367188"/>
      </g>
     </g>
    </g>
    <g id="xtick_5">
     <g id="line2d_5">
      <g>
       <use xlink:href="#m8d9f526e15" x="167.084008" y="149.059984" style="stroke: #000000; stroke-width: 0.8"/>
      </g>
     </g>
     <g id="text_5">
      <!-- 200 -->
      <g transform="translate(159.480883 162.861546) scale(0.1 -0.1)">
       <defs>
        <path id="Calibri-32" d="M 2888 231 
Q 2888 175 2880 131 
Q 2872 88 2858 58 
Q 2844 28 2820 14 
Q 2797 0 2769 0 
L 534 0 
Q 491 0 458 11 
Q 425 22 401 47 
Q 378 72 367 119 
Q 356 166 356 234 
Q 356 297 361 344 
Q 366 391 381 427 
Q 397 463 420 498 
Q 444 534 481 575 
L 1266 1406 
Q 1538 1694 1702 1922 
Q 1866 2150 1955 2337 
Q 2044 2525 2072 2678 
Q 2100 2831 2100 2966 
Q 2100 3100 2056 3220 
Q 2013 3341 1930 3431 
Q 1847 3522 1722 3575 
Q 1597 3628 1434 3628 
Q 1244 3628 1092 3575 
Q 941 3522 827 3459 
Q 713 3397 636 3344 
Q 559 3291 522 3291 
Q 500 3291 483 3303 
Q 466 3316 455 3344 
Q 444 3372 437 3419 
Q 431 3466 431 3531 
Q 431 3578 434 3612 
Q 438 3647 445 3672 
Q 453 3697 465 3719 
Q 478 3741 515 3773 
Q 553 3806 645 3862 
Q 738 3919 877 3973 
Q 1016 4028 1183 4065 
Q 1350 4103 1534 4103 
Q 1828 4103 2048 4020 
Q 2269 3938 2414 3794 
Q 2559 3650 2631 3459 
Q 2703 3269 2703 3053 
Q 2703 2859 2668 2667 
Q 2634 2475 2523 2251 
Q 2413 2028 2203 1754 
Q 1994 1481 1647 1125 
L 1006 456 
L 2766 456 
Q 2791 456 2814 442 
Q 2838 428 2855 400 
Q 2872 372 2880 330 
Q 2888 288 2888 231 
z
" transform="scale(0.015625)"/>
       </defs>
       <use xlink:href="#Calibri-32"/>
       <use xlink:href="#Calibri-30" x="50.683594"/>
       <use xlink:href="#Calibri-30" x="101.367188"/>
      </g>
     </g>
    </g>
    <g id="xtick_6">
     <g id="line2d_6">
      <g>
       <use xlink:href="#m8d9f526e15" x="198.712762" y="149.059984" style="stroke: #000000; stroke-width: 0.8"/>
      </g>
     </g>
     <g id="text_6">
      <!-- 250 -->
      <g transform="translate(191.109637 162.861546) scale(0.1 -0.1)">
       <use xlink:href="#Calibri-32"/>
       <use xlink:href="#Calibri-35" x="50.683594"/>
       <use xlink:href="#Calibri-30" x="101.367188"/>
      </g>
     </g>
    </g>
    <g id="xtick_7">
     <g id="line2d_7">
      <g>
       <use xlink:href="#m8d9f526e15" x="230.341517" y="149.059984" style="stroke: #000000; stroke-width: 0.8"/>
      </g>
     </g>
     <g id="text_7">
      <!-- 300 -->
      <g transform="translate(222.738392 162.861546) scale(0.1 -0.1)">
       <defs>
        <path id="Calibri-33" d="M 2856 1156 
Q 2856 878 2759 654 
Q 2663 431 2481 272 
Q 2300 113 2034 27 
Q 1769 -59 1434 -59 
Q 1231 -59 1054 -26 
Q 878 6 740 51 
Q 603 97 512 145 
Q 422 194 398 216 
Q 375 238 362 259 
Q 350 281 340 312 
Q 331 344 326 389 
Q 322 434 322 500 
Q 322 613 344 656 
Q 366 700 406 700 
Q 434 700 517 650 
Q 600 600 729 542 
Q 859 484 1032 434 
Q 1206 384 1419 384 
Q 1625 384 1781 437 
Q 1938 491 2044 587 
Q 2150 684 2203 817 
Q 2256 950 2256 1106 
Q 2256 1278 2189 1415 
Q 2122 1553 1992 1653 
Q 1863 1753 1673 1806 
Q 1484 1859 1244 1859 
L 859 1859 
Q 834 1859 811 1870 
Q 788 1881 770 1906 
Q 753 1931 742 1972 
Q 731 2013 731 2078 
Q 731 2138 740 2177 
Q 750 2216 767 2239 
Q 784 2263 806 2273 
Q 828 2284 856 2284 
L 1209 2284 
Q 1416 2284 1580 2337 
Q 1744 2391 1858 2491 
Q 1972 2591 2033 2730 
Q 2094 2869 2094 3041 
Q 2094 3166 2053 3280 
Q 2013 3394 1931 3478 
Q 1850 3563 1723 3611 
Q 1597 3659 1431 3659 
Q 1250 3659 1098 3604 
Q 947 3550 828 3487 
Q 709 3425 631 3370 
Q 553 3316 522 3316 
Q 500 3316 483 3323 
Q 466 3331 455 3354 
Q 444 3378 439 3420 
Q 434 3463 434 3531 
Q 434 3578 437 3614 
Q 441 3650 450 3676 
Q 459 3703 471 3725 
Q 484 3747 514 3776 
Q 544 3806 634 3862 
Q 725 3919 858 3973 
Q 991 4028 1164 4065 
Q 1338 4103 1538 4103 
Q 1819 4103 2031 4031 
Q 2244 3959 2386 3828 
Q 2528 3697 2598 3514 
Q 2669 3331 2669 3109 
Q 2669 2919 2619 2755 
Q 2569 2591 2472 2464 
Q 2375 2338 2234 2248 
Q 2094 2159 1909 2125 
L 1909 2119 
Q 2119 2097 2292 2014 
Q 2466 1931 2591 1806 
Q 2716 1681 2786 1514 
Q 2856 1347 2856 1156 
z
" transform="scale(0.015625)"/>
       </defs>
       <use xlink:href="#Calibri-33"/>
       <use xlink:href="#Calibri-30" x="50.683594"/>
       <use xlink:href="#Calibri-30" x="101.367188"/>
      </g>
     </g>
    </g>
    <g id="text_8">
     <!-- time [sec] -->
     <g transform="translate(115.603691 175.578734) scale(0.1 -0.1)">
      <defs>
       <path id="LiberationSerif-74" d="M 1044 -63 
Q 744 -63 595 115 
Q 447 294 447 616 
L 447 2675 
L 63 2675 
L 63 2816 
L 453 2938 
L 769 3603 
L 966 3603 
L 966 2938 
L 1638 2938 
L 1638 2675 
L 966 2675 
L 966 672 
Q 966 469 1058 366 
Q 1150 263 1300 263 
Q 1481 263 1741 313 
L 1741 109 
Q 1631 34 1425 -14 
Q 1219 -63 1044 -63 
z
" transform="scale(0.015625)"/>
       <path id="LiberationSerif-69" d="M 1184 3897 
Q 1184 3759 1084 3659 
Q 984 3559 844 3559 
Q 706 3559 606 3659 
Q 506 3759 506 3897 
Q 506 4038 606 4138 
Q 706 4238 844 4238 
Q 984 4238 1084 4138 
Q 1184 4038 1184 3897 
z
M 1153 219 
L 1656 141 
L 1656 0 
L 134 0 
L 134 141 
L 634 219 
L 634 2719 
L 219 2797 
L 219 2938 
L 1153 2938 
L 1153 219 
z
" transform="scale(0.015625)"/>
       <path id="LiberationSerif-6d" d="M 1019 2700 
Q 1253 2834 1515 2925 
Q 1778 3016 1978 3016 
Q 2194 3016 2376 2934 
Q 2559 2853 2650 2675 
Q 2891 2809 3214 2912 
Q 3538 3016 3750 3016 
Q 4500 3016 4500 2150 
L 4500 219 
L 4878 141 
L 4878 0 
L 3544 0 
L 3544 141 
L 3981 219 
L 3981 2094 
Q 3981 2631 3481 2631 
Q 3400 2631 3292 2618 
Q 3184 2606 3076 2590 
Q 2969 2575 2870 2554 
Q 2772 2534 2706 2522 
Q 2759 2353 2759 2150 
L 2759 219 
L 3200 141 
L 3200 0 
L 1806 0 
L 1806 141 
L 2241 219 
L 2241 2094 
Q 2241 2353 2108 2492 
Q 1975 2631 1709 2631 
Q 1434 2631 1025 2541 
L 1025 219 
L 1466 141 
L 1466 0 
L 134 0 
L 134 141 
L 506 219 
L 506 2719 
L 134 2797 
L 134 2938 
L 994 2938 
L 1019 2700 
z
" transform="scale(0.015625)"/>
       <path id="LiberationSerif-65" d="M 813 1478 
L 813 1422 
Q 813 991 908 752 
Q 1003 513 1201 388 
Q 1400 263 1722 263 
Q 1891 263 2122 291 
Q 2353 319 2503 353 
L 2503 178 
Q 2353 81 2095 9 
Q 1838 -63 1569 -63 
Q 884 -63 567 306 
Q 250 675 250 1491 
Q 250 2259 572 2637 
Q 894 3016 1491 3016 
Q 2619 3016 2619 1734 
L 2619 1478 
L 813 1478 
z
M 1491 2766 
Q 1166 2766 992 2503 
Q 819 2241 819 1728 
L 2075 1728 
Q 2075 2288 1931 2527 
Q 1788 2766 1491 2766 
z
" transform="scale(0.015625)"/>
       <path id="LiberationSerif-20" transform="scale(0.015625)"/>
       <path id="LiberationSerif-5b" d="M 475 -856 
L 475 4441 
L 1900 4441 
L 1900 4294 
L 972 4166 
L 972 -581 
L 1900 -709 
L 1900 -856 
L 475 -856 
z
" transform="scale(0.015625)"/>
       <path id="LiberationSerif-73" d="M 2259 825 
Q 2259 388 1982 162 
Q 1706 -63 1166 -63 
Q 947 -63 683 -17 
Q 419 28 269 84 
L 269 806 
L 409 806 
L 563 397 
Q 797 184 1172 184 
Q 1778 184 1778 703 
Q 1778 1084 1300 1247 
L 1022 1338 
Q 706 1441 562 1547 
Q 419 1653 341 1808 
Q 263 1963 263 2181 
Q 263 2569 527 2792 
Q 791 3016 1241 3016 
Q 1563 3016 2047 2919 
L 2047 2278 
L 1900 2278 
L 1769 2619 
Q 1603 2766 1247 2766 
Q 994 2766 861 2641 
Q 728 2516 728 2303 
Q 728 2125 848 2003 
Q 969 1881 1213 1800 
Q 1672 1644 1812 1572 
Q 1953 1500 2051 1395 
Q 2150 1291 2204 1156 
Q 2259 1022 2259 825 
z
" transform="scale(0.015625)"/>
       <path id="LiberationSerif-63" d="M 2644 178 
Q 2491 66 2222 1 
Q 1953 -63 1672 -63 
Q 244 -63 244 1491 
Q 244 2225 608 2620 
Q 972 3016 1650 3016 
Q 2072 3016 2572 2919 
L 2572 2100 
L 2400 2100 
L 2266 2619 
Q 2006 2766 1644 2766 
Q 806 2766 806 1491 
Q 806 828 1061 545 
Q 1316 263 1850 263 
Q 2306 263 2644 366 
L 2644 178 
z
" transform="scale(0.015625)"/>
       <path id="LiberationSerif-5d" d="M 231 -856 
L 231 -709 
L 1159 -581 
L 1159 4166 
L 231 4294 
L 231 4441 
L 1656 4441 
L 1656 -856 
L 231 -856 
z
" transform="scale(0.015625)"/>
      </defs>
      <use xlink:href="#LiberationSerif-74"/>
      <use xlink:href="#LiberationSerif-69" x="27.783203"/>
      <use xlink:href="#LiberationSerif-6d" x="55.566406"/>
      <use xlink:href="#LiberationSerif-65" x="133.349609"/>
      <use xlink:href="#LiberationSerif-20" x="177.734375"/>
      <use xlink:href="#LiberationSerif-5b" x="202.734375"/>
      <use xlink:href="#LiberationSerif-73" x="236.035156"/>
      <use xlink:href="#LiberationSerif-65" x="274.951172"/>
      <use xlink:href="#LiberationSerif-63" x="319.335938"/>
      <use xlink:href="#LiberationSerif-5d" x="363.720703"/>
     </g>
    </g>
   </g>
   <g id="matplotlib.axis_2">
    <g id="ytick_1">
     <g id="line2d_8">
      <defs>
       <path id="m8965269561" d="M 0 0 
L -3.5 0 
" style="stroke: #000000; stroke-width: 0.8"/>
      </defs>
      <g>
       <use xlink:href="#m8965269561" x="40.56899" y="143.179211" style="stroke: #000000; stroke-width: 0.8"/>
      </g>
     </g>
     <g id="text_9">
      <!-- $\mathdefault{10^{-1}}$ -->
      <g transform="translate(16.06899 146.579992) scale(0.1 -0.1)">
       <defs>
        <path id="Calibri-2212" d="M 2934 1797 
Q 2934 1681 2904 1628 
Q 2875 1575 2819 1575 
L 356 1575 
Q 297 1575 267 1628 
Q 238 1681 238 1797 
Q 238 1909 267 1964 
Q 297 2019 356 2019 
L 2819 2019 
Q 2875 2019 2904 1966 
Q 2934 1913 2934 1797 
z
" transform="scale(0.015625)"/>
       </defs>
       <use xlink:href="#Calibri-31" transform="translate(0 0.78125)"/>
       <use xlink:href="#Calibri-30" transform="translate(50.683594 0.78125)"/>
       <use xlink:href="#Calibri-2212" transform="translate(102.184219 33.4625) scale(0.7)"/>
       <use xlink:href="#Calibri-31" transform="translate(137.0475 33.4625) scale(0.7)"/>
      </g>
     </g>
    </g>
    <g id="ytick_2">
     <g id="line2d_9">
      <g>
       <use xlink:href="#m8965269561" x="40.56899" y="109.219595" style="stroke: #000000; stroke-width: 0.8"/>
      </g>
     </g>
     <g id="text_10">
      <!-- $\mathdefault{10^{0}}$ -->
      <g transform="translate(19.56899 112.620376) scale(0.1 -0.1)">
       <use xlink:href="#Calibri-31" transform="translate(0 0.442188)"/>
       <use xlink:href="#Calibri-30" transform="translate(50.683594 0.442188)"/>
       <use xlink:href="#Calibri-30" transform="translate(102.184219 33.123438) scale(0.7)"/>
      </g>
     </g>
    </g>
    <g id="ytick_3">
     <g id="line2d_10">
      <g>
       <use xlink:href="#m8965269561" x="40.56899" y="75.259979" style="stroke: #000000; stroke-width: 0.8"/>
      </g>
     </g>
     <g id="text_11">
      <!-- $\mathdefault{10^{1}}$ -->
      <g transform="translate(19.56899 78.66076) scale(0.1 -0.1)">
       <use xlink:href="#Calibri-31" transform="translate(0 0.78125)"/>
       <use xlink:href="#Calibri-30" transform="translate(50.683594 0.78125)"/>
       <use xlink:href="#Calibri-31" transform="translate(102.184219 33.4625) scale(0.7)"/>
      </g>
     </g>
    </g>
    <g id="ytick_4">
     <g id="line2d_11">
      <g>
       <use xlink:href="#m8965269561" x="40.56899" y="41.300363" style="stroke: #000000; stroke-width: 0.8"/>
      </g>
     </g>
     <g id="text_12">
      <!-- $\mathdefault{10^{2}}$ -->
      <g transform="translate(19.56899 44.701144) scale(0.1 -0.1)">
       <use xlink:href="#Calibri-31" transform="translate(0 0.442188)"/>
       <use xlink:href="#Calibri-30" transform="translate(50.683594 0.442188)"/>
       <use xlink:href="#Calibri-32" transform="translate(102.184219 33.123438) scale(0.7)"/>
      </g>
     </g>
    </g>
    <g id="ytick_5">
     <g id="line2d_12">
      <g>
       <use xlink:href="#m8965269561" x="40.56899" y="7.340747" style="stroke: #000000; stroke-width: 0.8"/>
      </g>
     </g>
     <g id="text_13">
      <!-- $\mathdefault{10^{3}}$ -->
      <g transform="translate(19.56899 10.741529) scale(0.1 -0.1)">
       <use xlink:href="#Calibri-31" transform="translate(0 0.442188)"/>
       <use xlink:href="#Calibri-30" transform="translate(50.683594 0.442188)"/>
       <use xlink:href="#Calibri-33" transform="translate(102.184219 33.123438) scale(0.7)"/>
      </g>
     </g>
    </g>
    <g id="ytick_6">
     <g id="line2d_13">
      <defs>
       <path id="m9664ec88b0" d="M 0 0 
L -2 0 
" style="stroke: #000000; stroke-width: 0.6"/>
      </defs>
      <g>
       <use xlink:href="#m9664ec88b0" x="40.56899" y="148.439622" style="stroke: #000000; stroke-width: 0.6"/>
      </g>
     </g>
    </g>
    <g id="ytick_7">
     <g id="line2d_14">
      <g>
       <use xlink:href="#m9664ec88b0" x="40.56899" y="146.470238" style="stroke: #000000; stroke-width: 0.6"/>
      </g>
     </g>
    </g>
    <g id="ytick_8">
     <g id="line2d_15">
      <g>
       <use xlink:href="#m9664ec88b0" x="40.56899" y="144.733118" style="stroke: #000000; stroke-width: 0.6"/>
      </g>
     </g>
    </g>
    <g id="ytick_9">
     <g id="line2d_16">
      <g>
       <use xlink:href="#m9664ec88b0" x="40.56899" y="132.956348" style="stroke: #000000; stroke-width: 0.6"/>
      </g>
     </g>
    </g>
    <g id="ytick_10">
     <g id="line2d_17">
      <g>
       <use xlink:href="#m9664ec88b0" x="40.56899" y="126.976356" style="stroke: #000000; stroke-width: 0.6"/>
      </g>
     </g>
    </g>
    <g id="ytick_11">
     <g id="line2d_18">
      <g>
       <use xlink:href="#m9664ec88b0" x="40.56899" y="122.733485" style="stroke: #000000; stroke-width: 0.6"/>
      </g>
     </g>
    </g>
    <g id="ytick_12">
     <g id="line2d_19">
      <g>
       <use xlink:href="#m9664ec88b0" x="40.56899" y="119.442458" style="stroke: #000000; stroke-width: 0.6"/>
      </g>
     </g>
    </g>
    <g id="ytick_13">
     <g id="line2d_20">
      <g>
       <use xlink:href="#m9664ec88b0" x="40.56899" y="116.753493" style="stroke: #000000; stroke-width: 0.6"/>
      </g>
     </g>
    </g>
    <g id="ytick_14">
     <g id="line2d_21">
      <g>
       <use xlink:href="#m9664ec88b0" x="40.56899" y="114.480006" style="stroke: #000000; stroke-width: 0.6"/>
      </g>
     </g>
    </g>
    <g id="ytick_15">
     <g id="line2d_22">
      <g>
       <use xlink:href="#m9664ec88b0" x="40.56899" y="112.510622" style="stroke: #000000; stroke-width: 0.6"/>
      </g>
     </g>
    </g>
    <g id="ytick_16">
     <g id="line2d_23">
      <g>
       <use xlink:href="#m9664ec88b0" x="40.56899" y="110.773502" style="stroke: #000000; stroke-width: 0.6"/>
      </g>
     </g>
    </g>
    <g id="ytick_17">
     <g id="line2d_24">
      <g>
       <use xlink:href="#m9664ec88b0" x="40.56899" y="98.996732" style="stroke: #000000; stroke-width: 0.6"/>
      </g>
     </g>
    </g>
    <g id="ytick_18">
     <g id="line2d_25">
      <g>
       <use xlink:href="#m9664ec88b0" x="40.56899" y="93.01674" style="stroke: #000000; stroke-width: 0.6"/>
      </g>
     </g>
    </g>
    <g id="ytick_19">
     <g id="line2d_26">
      <g>
       <use xlink:href="#m9664ec88b0" x="40.56899" y="88.773869" style="stroke: #000000; stroke-width: 0.6"/>
      </g>
     </g>
    </g>
    <g id="ytick_20">
     <g id="line2d_27">
      <g>
       <use xlink:href="#m9664ec88b0" x="40.56899" y="85.482842" style="stroke: #000000; stroke-width: 0.6"/>
      </g>
     </g>
    </g>
    <g id="ytick_21">
     <g id="line2d_28">
      <g>
       <use xlink:href="#m9664ec88b0" x="40.56899" y="82.793877" style="stroke: #000000; stroke-width: 0.6"/>
      </g>
     </g>
    </g>
    <g id="ytick_22">
     <g id="line2d_29">
      <g>
       <use xlink:href="#m9664ec88b0" x="40.56899" y="80.52039" style="stroke: #000000; stroke-width: 0.6"/>
      </g>
     </g>
    </g>
    <g id="ytick_23">
     <g id="line2d_30">
      <g>
       <use xlink:href="#m9664ec88b0" x="40.56899" y="78.551006" style="stroke: #000000; stroke-width: 0.6"/>
      </g>
     </g>
    </g>
    <g id="ytick_24">
     <g id="line2d_31">
      <g>
       <use xlink:href="#m9664ec88b0" x="40.56899" y="76.813886" style="stroke: #000000; stroke-width: 0.6"/>
      </g>
     </g>
    </g>
    <g id="ytick_25">
     <g id="line2d_32">
      <g>
       <use xlink:href="#m9664ec88b0" x="40.56899" y="65.037116" style="stroke: #000000; stroke-width: 0.6"/>
      </g>
     </g>
    </g>
    <g id="ytick_26">
     <g id="line2d_33">
      <g>
       <use xlink:href="#m9664ec88b0" x="40.56899" y="59.057124" style="stroke: #000000; stroke-width: 0.6"/>
      </g>
     </g>
    </g>
    <g id="ytick_27">
     <g id="line2d_34">
      <g>
       <use xlink:href="#m9664ec88b0" x="40.56899" y="54.814253" style="stroke: #000000; stroke-width: 0.6"/>
      </g>
     </g>
    </g>
    <g id="ytick_28">
     <g id="line2d_35">
      <g>
       <use xlink:href="#m9664ec88b0" x="40.56899" y="51.523226" style="stroke: #000000; stroke-width: 0.6"/>
      </g>
     </g>
    </g>
    <g id="ytick_29">
     <g id="line2d_36">
      <g>
       <use xlink:href="#m9664ec88b0" x="40.56899" y="48.834261" style="stroke: #000000; stroke-width: 0.6"/>
      </g>
     </g>
    </g>
    <g id="ytick_30">
     <g id="line2d_37">
      <g>
       <use xlink:href="#m9664ec88b0" x="40.56899" y="46.560774" style="stroke: #000000; stroke-width: 0.6"/>
      </g>
     </g>
    </g>
    <g id="ytick_31">
     <g id="line2d_38">
      <g>
       <use xlink:href="#m9664ec88b0" x="40.56899" y="44.59139" style="stroke: #000000; stroke-width: 0.6"/>
      </g>
     </g>
    </g>
    <g id="ytick_32">
     <g id="line2d_39">
      <g>
       <use xlink:href="#m9664ec88b0" x="40.56899" y="42.85427" style="stroke: #000000; stroke-width: 0.6"/>
      </g>
     </g>
    </g>
    <g id="ytick_33">
     <g id="line2d_40">
      <g>
       <use xlink:href="#m9664ec88b0" x="40.56899" y="31.0775" style="stroke: #000000; stroke-width: 0.6"/>
      </g>
     </g>
    </g>
    <g id="ytick_34">
     <g id="line2d_41">
      <g>
       <use xlink:href="#m9664ec88b0" x="40.56899" y="25.097509" style="stroke: #000000; stroke-width: 0.6"/>
      </g>
     </g>
    </g>
    <g id="ytick_35">
     <g id="line2d_42">
      <g>
       <use xlink:href="#m9664ec88b0" x="40.56899" y="20.854637" style="stroke: #000000; stroke-width: 0.6"/>
      </g>
     </g>
    </g>
    <g id="ytick_36">
     <g id="line2d_43">
      <g>
       <use xlink:href="#m9664ec88b0" x="40.56899" y="17.56361" style="stroke: #000000; stroke-width: 0.6"/>
      </g>
     </g>
    </g>
    <g id="ytick_37">
     <g id="line2d_44">
      <g>
       <use xlink:href="#m9664ec88b0" x="40.56899" y="14.874646" style="stroke: #000000; stroke-width: 0.6"/>
      </g>
     </g>
    </g>
    <g id="ytick_38">
     <g id="line2d_45">
      <g>
       <use xlink:href="#m9664ec88b0" x="40.56899" y="12.601158" style="stroke: #000000; stroke-width: 0.6"/>
      </g>
     </g>
    </g>
    <g id="ytick_39">
     <g id="line2d_46">
      <g>
       <use xlink:href="#m9664ec88b0" x="40.56899" y="10.631774" style="stroke: #000000; stroke-width: 0.6"/>
      </g>
     </g>
    </g>
    <g id="ytick_40">
     <g id="line2d_47">
      <g>
       <use xlink:href="#m9664ec88b0" x="40.56899" y="8.894654" style="stroke: #000000; stroke-width: 0.6"/>
      </g>
     </g>
    </g>
    <g id="text_14">
     <!-- $\mathdefault{MSE_f}$ -->
     <g transform="translate(9.939303 87.680112) rotate(-90) scale(0.1 -0.1)">
      <defs>
       <path id="LiberationSerif-4d" d="M 2694 0 
L 2584 0 
L 1050 3603 
L 1050 250 
L 1613 166 
L 1613 0 
L 184 0 
L 184 166 
L 722 250 
L 722 3944 
L 184 4025 
L 184 4191 
L 1453 4191 
L 2816 1003 
L 4303 4191 
L 5503 4191 
L 5503 4025 
L 4966 3944 
L 4966 250 
L 5503 166 
L 5503 0 
L 3803 0 
L 3803 166 
L 4366 250 
L 4366 3603 
L 2694 0 
z
" transform="scale(0.015625)"/>
       <path id="LiberationSerif-53" d="M 434 1128 
L 638 1128 
L 747 563 
Q 863 416 1145 303 
Q 1428 191 1703 191 
Q 2141 191 2386 414 
Q 2631 638 2631 1031 
Q 2631 1256 2536 1403 
Q 2441 1550 2286 1651 
Q 2131 1753 1934 1823 
Q 1738 1894 1530 1966 
Q 1322 2038 1125 2125 
Q 928 2213 773 2347 
Q 619 2481 523 2679 
Q 428 2878 428 3169 
Q 428 3669 803 3953 
Q 1178 4238 1844 4238 
Q 2350 4238 2944 4103 
L 2944 3231 
L 2741 3231 
L 2631 3744 
Q 2313 3975 1844 3975 
Q 1425 3975 1189 3804 
Q 953 3634 953 3334 
Q 953 3131 1048 2997 
Q 1144 2863 1298 2767 
Q 1453 2672 1651 2603 
Q 1850 2534 2058 2461 
Q 2266 2388 2464 2295 
Q 2663 2203 2817 2061 
Q 2972 1919 3067 1714 
Q 3163 1509 3163 1209 
Q 3163 603 2791 270 
Q 2419 -63 1719 -63 
Q 1381 -63 1040 -3 
Q 700 56 434 159 
L 434 1128 
z
" transform="scale(0.015625)"/>
       <path id="LiberationSerif-45" d="M 184 166 
L 722 250 
L 722 3944 
L 184 4025 
L 184 4191 
L 3328 4191 
L 3328 3188 
L 3122 3188 
L 3022 3866 
Q 2672 3909 2009 3909 
L 1325 3909 
L 1325 2272 
L 2456 2272 
L 2553 2772 
L 2753 2772 
L 2753 1484 
L 2553 1484 
L 2456 1991 
L 1325 1991 
L 1325 281 
L 2150 281 
Q 2956 281 3206 331 
L 3384 1106 
L 3591 1106 
L 3531 0 
L 184 0 
L 184 166 
z
" transform="scale(0.015625)"/>
       <path id="LiberationSerif-66" d="M 703 2675 
L 197 2675 
L 197 2828 
L 703 2950 
L 703 3156 
Q 703 3806 961 4156 
Q 1219 4506 1684 4506 
Q 1925 4506 2131 4447 
L 2131 3806 
L 1978 3806 
L 1838 4191 
Q 1731 4256 1581 4256 
Q 1384 4256 1303 4081 
Q 1222 3906 1222 3425 
L 1222 2938 
L 2003 2938 
L 2003 2675 
L 1222 2675 
L 1222 244 
L 1856 141 
L 1856 0 
L 269 0 
L 269 141 
L 703 244 
L 703 2675 
z
" transform="scale(0.015625)"/>
      </defs>
      <use xlink:href="#LiberationSerif-4d" transform="translate(0 0.78125)"/>
      <use xlink:href="#LiberationSerif-53" transform="translate(88.916016 0.78125)"/>
      <use xlink:href="#LiberationSerif-45" transform="translate(144.53125 0.78125)"/>
      <use xlink:href="#LiberationSerif-66" transform="translate(206.418594 -12.990625) scale(0.7)"/>
     </g>
    </g>
   </g>
   <g id="line2d_48">
    <path d="M 40.708157 4.602703 
L 43.580047 4.713363 
L 44.674402 5.551281 
L 45.009667 6.056233 
L 45.654894 7.296568 
L 46.319098 8.75764 
L 48.412921 12.60748 
L 49.127731 14.69386 
L 49.703374 16.693106 
L 50.222086 18.742152 
L 51.272161 22.314617 
L 52.15144 24.415432 
L 52.796666 25.828155 
L 53.245795 26.927096 
L 53.796135 28.400831 
L 55.029657 33.870067 
L 55.459808 35.963459 
L 57.389162 45.913609 
L 57.983782 50.517097 
L 58.382305 52.807584 
L 65.283699 84.881724 
L 66.953697 91.682742 
L 67.592598 94.316123 
L 72.564638 112.937059 
L 74.019561 116.57028 
L 75.019029 118.255598 
L 76.467626 119.803761 
L 77.587284 120.474753 
L 79.946789 121.247577 
L 115.314063 121.137972 
L 116.168039 121.124742 
L 117.072621 121.476032 
L 118.527544 121.39163 
L 127.023028 121.280953 
L 127.402573 121.337864 
L 127.832724 121.358003 
L 127.952913 121.04232 
L 128.066776 120.710734 
L 128.092079 120.736473 
L 128.566511 121.601841 
L 130.426281 121.492971 
L 131.305561 121.486193 
L 133.709346 121.718403 
L 133.753626 121.773577 
L 133.829535 121.6463 
L 133.924422 121.632606 
L 133.949725 121.79432 
L 133.968702 121.629185 
L 134.063588 121.656579 
L 134.114194 121.773577 
L 134.183778 121.533703 
L 134.209081 121.822023 
L 134.303967 121.660007 
L 134.37355 121.832425 
L 134.348247 121.567733 
L 134.449459 121.763216 
L 134.519042 121.663436 
L 134.544345 121.808165 
L 134.563323 121.721846 
L 134.588626 121.697767 
L 134.613929 121.832425 
L 134.708815 121.777032 
L 135.08836 121.828957 
L 135.493208 121.828957 
L 135.6387 121.835894 
L 136.087829 121.822023 
L 136.208018 121.881066 
L 136.35351 121.79432 
L 136.467374 121.884546 
L 136.612866 121.732177 
L 136.638169 121.905446 
L 136.733055 121.846306 
L 136.802638 121.877586 
L 136.872222 121.701204 
L 136.897525 121.870629 
L 136.967108 121.856725 
L 137.043017 121.714962 
L 137.087297 121.735623 
L 137.1126 121.739069 
L 137.137903 121.867152 
L 137.163206 121.718403 
L 137.232789 121.818557 
L 137.327676 121.742516 
L 137.302373 121.870629 
L 137.352979 121.804703 
L 137.466842 121.849778 
L 137.561728 121.783945 
L 137.587031 121.815092 
L 139.13684 121.725289 
L 139.326613 121.653152 
L 139.611272 121.547306 
L 140.326082 121.167784 
L 140.420968 121.37817 
L 140.560134 122.179877 
L 140.636043 121.863676 
L 140.680324 121.749413 
L 140.705627 121.8602 
L 140.920702 122.564845 
L 143.299185 122.333378 
L 144.18479 122.347739 
L 147.0124 122.236807 
L 148.467323 122.137323 
L 148.802588 122.336967 
L 148.821565 122.301118 
L 148.897474 121.881066 
L 149.017663 120.33621 
L 149.061944 120.717164 
L 149.302322 122.986364 
L 149.561678 122.945162 
L 149.922246 123.031444 
L 150.206905 122.597688 
L 150.371374 122.510268 
L 150.611753 122.859383 
L 150.845805 123.054035 
L 151.34554 123.091765 
L 154.343946 123.20173 
L 155.058755 123.197924 
L 155.55849 123.020161 
L 156.013944 122.803707 
L 156.488375 123.34323 
L 156.842617 123.335547 
L 157.013412 123.451222 
L 157.152579 123.428014 
L 157.247465 123.404843 
L 157.272768 123.556111 
L 157.418261 123.362457 
L 157.487844 123.447351 
L 157.633336 123.076661 
L 157.652313 123.673535 
L 157.677616 122.926472 
L 157.7472 123.439613 
L 157.797806 123.236024 
L 157.823109 123.760245 
L 157.848412 123.186513 
L 157.892692 123.673535 
L 157.917995 123.251292 
L 157.943298 123.705007 
L 157.987578 123.466714 
L 158.057161 123.677466 
L 158.038184 123.458966 
L 158.082464 123.544419 
L 158.107767 123.521065 
L 158.13307 123.795865 
L 158.152048 123.439613 
L 158.202654 123.787942 
L 158.227957 123.435746 
L 158.29754 123.540524 
L 158.322843 123.768153 
L 158.417729 123.649975 
L 158.462009 123.622536 
L 158.512615 123.835543 
L 158.537918 123.595148 
L 158.607502 123.6539 
L 158.746668 123.843492 
L 158.84788 123.657825 
L 158.866858 123.811723 
L 158.961744 123.724711 
L 159.01235 123.681397 
L 159.05663 123.843492 
L 159.081933 123.657825 
L 159.176819 123.768153 
L 159.246403 123.6539 
L 159.227425 123.863382 
L 159.271706 123.780023 
L 159.347615 123.83157 
L 159.322312 123.646053 
L 159.391895 123.787942 
L 159.461478 123.891273 
L 159.486781 123.599058 
L 159.581667 123.835543 
L 159.60697 123.689263 
L 159.651251 123.669606 
L 159.701857 123.903242 
L 159.72716 123.53663 
L 159.796743 123.626453 
L 159.866326 123.827599 
L 159.916932 123.728655 
L 159.942235 123.891273 
L 159.961212 123.470589 
L 160.011818 123.764198 
L 160.037121 123.53663 
L 160.056099 123.83157 
L 160.132008 123.630371 
L 160.176288 123.807757 
L 160.271174 123.393271 
L 160.296477 123.772109 
L 160.36606 123.63821 
L 160.511553 123.28953 
L 160.536856 123.532737 
L 160.581136 123.243656 
L 160.606439 123.497747 
L 160.650719 123.274223 
L 160.726628 123.327867 
L 160.821515 123.308686 
L 160.985984 123.661751 
L 161.011287 123.60688 
L 161.055567 123.7326 
L 161.20106 123.823628 
L 161.295946 123.879313 
L 161.416135 123.819659 
L 162.580073 124.152813 
L 162.649657 123.99935 
L 162.630679 124.254654 
L 162.700263 124.096088 
L 162.744543 124.189395 
L 162.769846 123.963236 
L 162.795149 124.291489 
L 162.820452 123.951218 
L 162.864732 124.181258 
L 162.940641 123.939209 
L 162.915338 124.266922 
L 162.984921 124.03958 
L 163.010224 123.99935 
L 163.035527 124.353086 
L 163.054505 123.811723 
L 163.105111 124.177191 
L 163.130414 123.911227 
L 163.149391 124.332525 
L 163.199997 124.209757 
L 163.244277 124.051671 
L 163.294883 123.955223 
L 163.345489 124.435619 
L 163.364466 123.939209 
L 163.440375 124.104178 
L 163.459353 124.443897 
L 163.554239 124.324309 
L 163.604845 124.24648 
L 163.649125 124.535271 
L 163.674428 124.226067 
L 163.750337 124.303788 
L 163.769314 124.506136 
L 163.864201 124.439757 
L 163.914807 124.340746 
L 163.959087 124.522777 
L 163.98439 124.324309 
L 164.079276 124.452181 
L 164.14886 124.344859 
L 164.174163 124.439757 
L 164.199466 124.489513 
L 164.224769 124.291489 
L 164.319655 124.41081 
L 164.389238 124.275106 
L 164.363935 124.435619 
L 164.414541 124.386044 
L 164.439844 124.427345 
L 164.458821 124.209757 
L 164.553708 124.324309 
L 164.629617 124.148754 
L 164.604314 124.38192 
L 164.648594 124.332525 
L 164.673897 124.328417 
L 164.6992 124.096088 
L 164.724503 124.357202 
L 164.794086 124.201609 
L 164.844692 124.30789 
L 164.863669 123.987302 
L 164.939578 123.947214 
L 164.958556 124.283295 
L 165.104048 123.871345 
L 165.198934 124.213833 
L 165.173631 123.807757 
L 165.224237 124.007387 
L 165.268517 124.108225 
L 165.344426 123.931209 
L 165.439313 124.140639 
L 165.41401 123.835543 
L 165.45829 124.051671 
L 165.483593 123.871345 
L 165.508896 124.16906 
L 165.553176 123.991317 
L 165.673365 124.100133 
L 165.742949 124.181258 
L 165.723971 124.023475 
L 165.768252 124.108225 
L 165.844161 124.079921 
L 165.818858 124.21791 
L 165.863138 124.124423 
L 165.888441 124.201609 
L 165.913744 124.083961 
L 165.958024 124.160934 
L 166.078214 124.079921 
L 166.103517 124.112273 
L 166.147797 124.031526 
L 166.198403 124.140639 
L 166.223706 124.015429 
L 166.318592 124.079921 
L 166.72344 124.526941 
L 169.386581 125.108718 
L 169.506771 124.84684 
L 169.557377 125.065467 
L 169.601657 124.766213 
L 169.62696 124.78315 
L 169.652263 125.126054 
L 169.67124 124.435619 
L 169.696543 124.859611 
L 169.766126 123.791903 
L 169.747149 125.309321 
L 169.816732 124.40668 
L 169.842035 124.390169 
L 169.886316 123.951218 
L 169.911619 125.226132 
L 169.981202 125.304931 
L 170.006505 123.673535 
L 170.126694 125.318105 
L 170.151997 124.448038 
L 170.170974 125.37092 
L 170.22158 124.821331 
L 170.246883 125.37533 
L 170.34177 125.247979 
L 170.480936 124.93219 
L 170.790898 123.887285 
L 170.961693 123.595148 
L 170.98067 123.60688 
L 171.126163 123.556111 
L 171.151466 123.53663 
L 171.170443 123.602968 
L 171.360216 125.481562 
L 171.505708 125.410655 
L 171.746086 125.410655 
L 171.935859 123.661751 
L 172.005442 124.291489 
L 172.195215 125.850405 
L 172.290101 126.075297 
L 172.340707 125.964717 
L 172.650669 123.835543 
L 172.764532 124.079921 
L 173.314873 125.606474 
L 173.435062 125.548347 
L 173.745024 125.256726 
L 173.764001 125.274237 
L 174.004379 125.682833 
L 174.194152 125.818556 
L 174.624303 125.633379 
L 175.029151 125.723419 
L 175.339113 125.768646 
L 175.433999 125.868636 
L 175.478279 125.809469 
L 175.718658 125.388567 
L 175.769264 125.446066 
L 176.079226 125.950953 
L 176.338581 125.95554 
L 176.673846 126.029121 
L 176.78771 126.214697 
L 176.838316 126.158779 
L 177.097672 125.570677 
L 177.173581 125.66483 
L 177.458239 126.196034 
L 177.812481 126.266143 
L 178.286913 126.270829 
L 178.552594 125.905164 
L 178.577897 125.923463 
L 179.121912 126.407368 
L 179.577366 126.516563 
L 179.956911 126.593005 
L 181.361228 126.703589 
L 181.955848 126.91748 
L 182.385999 127.055225 
L 182.601075 127.868019 
L 182.645355 127.748387 
L 182.885734 126.800428 
L 182.955317 126.893017 
L 183.334862 127.609176 
L 184.049672 127.425583 
L 185.125049 127.967583 
L 185.428686 128.147444 
L 185.71967 128.046663 
L 186.64323 127.62458 
L 186.814025 127.999164 
L 187.073381 128.623417 
L 187.35804 128.778142 
L 187.693304 128.606936 
L 187.857774 128.046663 
L 187.95266 127.517094 
L 188.003266 127.821091 
L 188.167736 129.671222 
L 188.237319 129.530255 
L 188.408114 129.281012 
L 188.427091 129.292512 
L 188.762356 129.327065 
L 189.451863 129.229374 
L 189.951597 129.013317 
L 191.4508 129.448643 
L 191.665876 129.795682 
L 192.020118 130.316627 
L 192.045421 130.298141 
L 192.216216 129.999443 
L 192.475572 129.60057 
L 193.070193 129.304021 
L 193.215685 129.536102 
L 193.690116 130.98512 
L 193.810305 130.991573 
L 193.829283 130.965778 
L 194.069661 130.490286 
L 194.215154 129.957261 
L 194.329017 129.12095 
L 194.379623 129.36748 
L 194.620002 131.787189 
L 194.664282 131.746372 
L 195.164016 131.017414 
L 195.689053 130.850254 
L 196.068599 131.004488 
L 196.852992 130.914322 
L 197.118673 131.252039 
L 197.472915 131.82129 
L 197.80818 132.027566 
L 197.928369 131.951596 
L 198.092839 131.350911 
L 198.213028 130.114548 
L 198.352195 126.052191 
L 198.428104 127.941317 
L 198.541967 133.00066 
L 198.592573 132.556241 
L 198.636853 132.384994 
L 198.662156 132.506089 
L 198.782346 133.112025 
L 198.832952 133.00066 
L 198.902535 132.846147 
L 198.946815 132.890129 
L 199.092307 133.008058 
L 199.11761 132.993265 
L 199.712231 132.657061 
L 200.661094 131.173415 
L 200.7117 131.252039 
L 200.901472 132.159715 
L 201.160828 133.052526 
L 201.42651 133.07481 
L 201.666888 133.367612 
L 201.685865 133.329747 
L 201.806055 132.765853 
L 201.995827 131.062744 
L 202.046433 131.344299 
L 202.305789 134.355392 
L 202.425978 134.444851 
L 202.451281 134.412258 
L 202.710637 133.596867 
L 202.94469 133.276898 
L 203.185068 133.104575 
L 203.49503 132.773135 
L 203.520333 132.795 
L 203.754386 133.458887 
L 204.064348 134.050462 
L 204.323703 134.154072 
L 204.443893 134.082264 
L 204.589385 133.705085 
L 204.753855 132.498938 
L 204.899347 131.463774 
L 204.943627 131.564082 
L 205.063816 133.05995 
L 205.228286 134.202139 
L 205.253589 134.162072 
L 205.304195 134.106162 
L 205.348475 134.218196 
L 205.538248 135.396696 
L 205.588854 135.155054 
L 205.778626 132.399189 
L 205.848209 133.052526 
L 206.037982 135.440266 
L 206.063285 135.405399 
L 206.158171 135.301292 
L 206.202451 135.344581 
L 206.347944 135.440266 
L 206.373247 135.414108 
L 206.563019 135.129397 
L 206.588322 135.146496 
L 206.778095 135.589374 
L 206.942564 135.740006 
L 207.20192 135.642363 
L 207.416996 135.284012 
L 207.606768 134.584182 
L 208.157108 132.39209 
L 208.201389 132.470369 
L 208.296275 133.261834 
L 208.63154 137.091458 
L 208.67582 137.03301 
L 208.770706 136.339842 
L 208.916199 133.512393 
L 209.011085 131.726006 
L 209.061691 132.131796 
L 209.270441 136.460922 
L 209.295744 136.44223 
L 209.321047 136.423561 
L 209.34635 136.460922 
L 209.536122 137.327596 
L 209.605705 137.199219 
L 209.751198 136.192171 
L 209.890364 135.562951 
L 209.915667 135.607016 
L 210.10544 136.34912 
L 210.175023 136.23816 
L 210.345818 135.775673 
L 210.390099 135.820379 
L 210.579871 136.293536 
L 210.630477 136.155483 
L 210.889833 134.026655 
L 210.959416 134.534856 
L 211.199795 136.118887 
L 211.319984 136.772821 
L 211.41487 137.307773 
L 211.45915 137.169752 
L 211.604643 135.344581 
L 211.674226 134.683332 
L 211.724832 134.900471 
L 211.958885 137.719572 
L 211.984188 137.70939 
L 212.148657 137.130553 
L 212.433316 135.501481 
L 212.578808 134.808214 
L 212.623089 134.89206 
L 212.793884 135.937253 
L 213.078543 137.07195 
L 213.173429 137.238601 
L 213.217709 137.169752 
L 213.363201 136.404916 
L 213.508694 135.856242 
L 213.552974 135.919212 
L 213.673163 136.696601 
L 213.888239 137.935032 
L 213.913542 137.914376 
L 214.052708 137.091458 
L 214.242481 136.173816 
L 214.267784 136.182991 
L 214.432253 136.358405 
L 214.672632 136.687102 
L 214.931988 138.090882 
L 215.007897 138.017947 
L 215.292556 137.003872 
L 215.336836 137.023291 
L 215.362139 136.994173 
L 215.387442 137.091458 
L 215.551911 137.477126 
L 215.88085 135.29265 
L 215.906153 135.571754 
L 216.146532 139.073398 
L 216.311001 136.173816 
L 216.380585 135.991509 
L 216.405888 138.386283 
L 216.500774 135.284012 
L 216.475471 138.482504 
L 216.526077 136.073268 
L 216.55138 138.333097 
L 216.646266 138.038749 
L 216.690546 136.916803 
L 216.715849 139.480902 
L 216.76013 137.081701 
L 216.880319 139.747274 
L 216.905622 139.028806 
L 216.949902 139.959147 
L 216.975205 139.642468 
L 217.025811 140.054299 
L 217.120698 139.971008 
L 217.215584 139.841064 
L 217.405356 138.973257 
L 217.449637 139.118124 
L 217.544523 138.132722 
L 217.569826 138.644281 
L 217.595129 138.829799 
L 217.690015 137.101222 
L 217.715318 138.05958 
L 217.734295 138.503972 
L 217.759598 136.592438 
L 217.810204 138.343719 
L 217.905091 135.973401 
L 217.924068 137.497178 
L 217.974674 136.064161 
L 218.018954 138.873791 
L 218.044257 136.535931 
L 218.094863 139.298398 
L 218.139143 137.87315 
L 218.23403 139.607697 
L 218.259333 139.162986 
L 218.284636 138.764055 
L 218.328916 139.758965 
L 218.354219 139.196723 
L 218.379522 139.309738 
L 218.404825 139.959147 
L 218.449105 138.917915 
L 218.474408 139.817561 
L 218.664181 137.287977 
L 218.759067 138.851778 
L 218.78437 138.840784 
L 218.803347 138.132722 
L 218.853953 139.389368 
L 218.879256 138.917915 
L 218.99312 139.959147 
L 219.018423 139.619278 
L 219.069029 140.042371 
L 219.113309 139.782375 
L 219.163915 139.723919 
L 219.208195 140.162084 
L 219.303082 139.469429 
L 219.284104 140.174108 
L 219.328385 139.899987 
L 219.353688 140.114082 
L 219.448574 138.600967 
L 219.473877 139.735592 
L 219.492854 139.573009 
L 219.594066 136.955437 
L 219.613043 138.785937 
L 219.733233 135.740006 
L 219.758536 138.1432 
L 219.783839 137.945371 
L 219.802816 135.964356 
L 219.853422 138.396944 
L 219.878725 136.801505 
L 219.992588 139.665694 
L 220.017891 138.785937 
L 220.068497 140.066236 
L 220.112778 139.287066 
L 220.21399 140.392249 
L 220.239293 140.126068 
L 220.25827 140.006646 
L 220.378459 140.576531 
L 220.473345 140.054299 
L 220.637815 137.76037 
L 220.80861 140.126068 
L 220.852891 139.923623 
L 220.947777 140.952149 
L 220.97308 140.613665 
L 221.01736 140.800752 
L 221.067966 140.343494 
L 221.093269 140.588898 
L 221.112246 140.174108 
L 221.162852 140.428922 
L 221.257739 139.899987 
L 221.283042 139.923623 
L 221.302019 140.174108 
L 221.352625 139.654076 
L 221.377928 139.85283 
L 221.491791 138.568564 
L 221.517094 139.095744 
L 221.637284 137.327596 
L 221.73217 139.573009 
L 221.757473 139.44651 
L 221.782776 138.028344 
L 221.827056 140.114082 
L 221.852359 138.873791 
L 221.972548 140.800752 
L 221.991526 140.018545 
L 222.042132 140.977533 
L 222.086412 140.514847 
L 222.181298 141.481473 
L 222.206601 141.246744 
L 222.231904 141.285607 
L 222.257207 141.653353 
L 222.326791 141.560553 
L 222.611449 138.785937 
L 222.681033 138.851778 
L 222.845502 140.725632 
L 222.940388 140.294899 
L 222.965691 140.380045 
L 222.990994 140.477961 
L 223.085881 139.829308 
L 223.111184 140.210242 
L 223.275653 141.442091 
L 223.155464 140.018545 
L 223.300956 141.028434 
L 223.326259 140.914154 
L 223.421145 142.044153 
L 223.395842 140.675764 
L 223.440123 141.117935 
L 223.490729 141.800371 
L 223.535009 139.241825 
L 223.560312 141.402814 
L 223.610918 138.644281 
L 223.655198 140.210242 
L 223.680501 138.557779 
L 223.705804 140.926808 
L 223.750084 138.962172 
L 223.870274 141.15646 
L 223.895577 139.923623 
L 223.939857 141.207983 
L 223.990463 140.054299 
L 224.00944 141.143607 
L 224.060046 139.770666 
L 224.104327 140.258558 
L 224.12963 139.747274 
L 224.154933 141.233812 
L 224.199213 140.006646 
L 224.294099 141.881185 
L 224.319402 141.626779 
L 224.344705 141.041187 
L 224.370008 142.167572 
L 224.414288 141.442091 
L 224.464894 142.375593 
L 224.534478 142.361633 
L 224.629364 141.053951 
L 224.654667 141.105116 
L 224.673644 141.786945 
L 224.72425 140.564173 
L 224.749553 141.481473 
L 224.863417 139.607697 
L 224.88872 141.130766 
L 224.939326 139.185469 
L 224.958303 140.825877 
L 225.078492 138.611783 
L 225.148075 138.600967 
L 225.198681 140.114082 
L 225.223984 138.873791 
L 225.268265 140.343494 
L 225.318871 139.584563 
L 225.458037 141.534146 
L 225.578226 143.414097 
L 225.603529 143.28727 
L 225.628832 143.339361 
L 225.64781 143.765918 
L 225.698416 143.242766 
L 225.723719 143.706186 
L 225.913491 141.468334 
L 225.932469 141.840722 
L 225.983075 140.675764 
L 226.008378 140.977533 
L 226.027355 140.588898 
L 226.19815 138.774992 
L 226.217127 139.457965 
L 226.267733 138.428971 
L 226.312014 139.174223 
L 226.337317 138.461068 
L 226.387923 139.688956 
L 226.4069 139.028806 
L 226.602998 142.743264 
L 226.628301 142.600765 
L 226.647278 142.959626 
L 226.742165 143.91554 
L 226.767468 143.845939 
L 226.862354 143.523897 
L 227.12171 141.041187 
L 227.147013 141.143607 
L 227.172316 140.977533 
L 227.197619 140.825877 
L 227.241899 141.169324 
L 227.267202 141.053951 
L 227.292505 141.053951 
L 227.387391 142.403552 
L 227.406368 142.07149 
L 227.456974 143.032459 
L 227.501255 141.442091 
L 227.596141 143.563202 
L 227.577164 141.285607 
L 227.621444 142.264283 
L 227.67205 143.489214 
L 227.71633 140.926808 
L 227.741633 143.284298 
L 227.785914 140.788205 
L 227.83652 141.867685 
L 227.931406 140.588898 
L 227.8808 142.222758 
L 227.956709 141.220892 
L 228.051595 143.032459 
L 228.026292 140.319177 
L 228.070572 141.560553 
L 228.095875 140.126068 
L 228.121178 143.213171 
L 228.165459 140.763144 
L 228.285648 144.007296 
L 228.310951 142.743264 
L 228.355231 144.389738 
L 228.380534 143.462128 
L 228.500723 144.83012 
L 228.526026 144.2305 
L 228.545004 144.179905 
L 228.63989 144.959348 
L 228.734776 143.689382 
L 228.760079 144.187799 
L 228.785382 144.584743 
L 228.880268 141.600253 
L 228.905571 143.853656 
L 228.924549 143.684802 
L 229.019435 138.807851 
L 229.044738 142.333754 
L 229.070041 142.431565 
L 229.164927 137.87315 
L 229.19023 139.899987 
L 229.209207 141.066725 
L 229.23451 138.873791 
L 229.304094 140.564173 
L 229.3547 141.376687 
L 229.544472 144.48289 
L 229.803828 145.501695 
L 229.829131 145.347134 
L 229.873411 145.427647 
L 230.11379 142.901619 
L 230.208676 141.468334 
L 230.233979 141.908221 
L 230.347843 143.709243 
L 230.278259 141.534146 
L 230.347843 143.709243 
" clip-path="url(#p79a8c4a72c)" style="fill: none; stroke: #1f77b4; stroke-width: 0.5; stroke-linecap: square"/>
   </g>
   <g id="line2d_49">
    <path d="M 40.594293 4.602703 
L 44.819895 4.713363 
L 46.395007 5.590523 
L 46.787203 5.961907 
L 47.05921 6.219352 
L 47.470384 6.621167 
L 48.210497 7.281871 
L 48.627997 7.646233 
L 49.387087 8.516094 
L 51.575797 11.893622 
L 52.410796 13.422113 
L 52.853598 14.9832 
L 56.459276 35.115325 
L 58.572077 44.366358 
L 60.317984 51.315271 
L 61.987983 58.332863 
L 63.259458 63.471415 
L 64.220973 67.28727 
L 65.941577 73.535975 
L 67.510363 79.587652 
L 70.458163 91.588731 
L 73.500849 104.037559 
L 76.296831 113.970602 
L 77.258345 116.30085 
L 78.485541 118.494301 
L 79.415426 119.722369 
L 80.07963 120.273663 
L 82.065916 121.131356 
L 83.293112 121.341219 
L 86.190305 121.23758 
L 86.386404 121.019325 
L 86.563525 120.617805 
L 86.582502 120.69467 
L 86.803903 121.533703 
L 86.879812 121.445592 
L 86.981024 121.210952 
L 87.025305 121.247577 
L 87.272009 121.462495 
L 87.740114 121.230918 
L 87.961516 120.963627 
L 88.132311 120.421071 
L 88.182917 120.585895 
L 88.379015 121.516718 
L 88.404318 121.537103 
L 88.423296 121.486193 
L 88.524508 121.194334 
L 88.575114 121.250912 
L 88.796515 121.445592 
L 89.214014 121.284294 
L 89.631514 121.384898 
L 89.827612 121.408471 
L 89.947801 121.06206 
L 89.973105 120.979987 
L 90.023711 121.181053 
L 90.074317 121.492971 
L 90.093294 120.993088 
L 90.1439 120.230038 
L 90.194506 121.002921 
L 90.270415 121.324454 
L 90.314695 121.137972 
L 90.339998 121.128048 
L 90.365301 121.200979 
L 90.44121 121.294324 
L 90.466513 121.264256 
L 90.612005 121.210952 
L 91.054808 121.104919 
L 91.95939 120.983261 
L 92.282004 121.311055 
L 92.598291 121.540503 
L 93.186586 121.509929 
L 94.1481 121.489582 
L 94.590903 121.567733 
L 94.660486 121.384898 
L 94.685789 121.438835 
L 94.736395 121.728733 
L 94.761698 121.660007 
L 94.831281 120.846368 
L 94.881887 121.240911 
L 94.983099 121.673727 
L 95.008402 121.615507 
L 95.077985 121.344574 
L 95.128591 121.405102 
L 95.223478 121.57114 
L 95.274084 121.533703 
L 95.444879 121.472647 
L 95.640977 121.462495 
L 96.08378 121.455731 
L 96.475976 121.557516 
L 96.722681 121.653152 
L 96.823893 121.554112 
L 96.849196 121.608672 
L 96.893476 121.687459 
L 96.918779 121.574548 
L 96.994688 120.989811 
L 97.045294 121.118131 
L 97.165483 121.601841 
L 97.190786 121.567733 
L 97.310976 121.388263 
L 97.361582 121.435459 
L 97.532377 121.476032 
L 97.85499 121.459113 
L 98.443285 121.557516 
L 98.759572 121.605256 
L 98.835482 121.649726 
L 98.860785 121.684025 
L 98.886088 121.649726 
L 98.980974 121.052187 
L 99.056883 121.327805 
L 99.151769 121.629185 
L 99.202375 121.577957 
L 99.37317 121.489582 
L 99.645178 121.513323 
L 100.208169 121.327805 
L 100.530783 120.911397 
L 100.726881 120.522283 
L 100.771161 120.547695 
L 100.992563 120.569967 
L 101.144381 120.589083 
L 101.340479 121.04232 
L 101.631463 121.455731 
L 102.074266 121.523509 
L 103.130666 121.415214 
L 103.276159 121.128048 
L 103.402674 120.649783 
L 103.45328 120.856104 
L 103.598772 121.632606 
L 103.624075 121.625764 
L 103.889756 121.448971 
L 104.920854 121.479418 
L 104.97146 121.39163 
L 104.996763 121.472647 
L 105.047369 121.656579 
L 105.072672 121.465878 
L 105.123278 120.986536 
L 105.167558 121.240911 
L 105.26877 121.618925 
L 105.319376 121.537103 
L 105.414262 121.388263 
L 105.439565 121.411842 
L 105.610361 121.452351 
L 105.882368 121.421959 
L 106.590852 121.526907 
L 107.033655 121.666865 
L 107.109564 121.401732 
L 107.179147 121.191012 
L 107.229753 121.324454 
L 107.375245 121.574548 
L 107.400548 121.560921 
L 107.672556 121.452351 
L 108.507555 121.567733 
L 108.653047 121.415214 
L 108.849145 121.104919 
L 108.899751 121.15784 
L 109.146455 121.432083 
L 109.342554 121.267593 
L 109.538652 121.029176 
L 109.563955 121.065352 
L 109.835962 121.421959 
L 110.006758 121.207627 
L 110.15225 120.911397 
L 110.177553 120.957088 
L 110.424257 121.465878 
L 110.569749 121.29098 
L 110.740545 121.045608 
L 110.765848 121.08842 
L 111.012552 121.486193 
L 111.20865 121.39163 
L 111.404749 121.032461 
L 111.480658 120.966897 
L 111.499635 121.022608 
L 111.676756 121.560921 
L 111.721036 121.520113 
L 112.018346 121.465878 
L 112.163839 121.567733 
L 112.189142 121.547306 
L 112.530732 121.408471 
L 112.72683 121.459113 
L 112.853345 121.30436 
L 112.903951 121.368083 
L 112.929255 121.384898 
L 112.948232 121.351287 
L 113.049444 121.055477 
L 113.10005 121.214278 
L 113.194936 121.482805 
L 113.245542 121.421959 
L 113.466943 121.154527 
L 113.517549 121.247577 
L 113.637739 121.361362 
L 113.663042 121.341219 
L 114.055238 121.114827 
L 114.20073 121.08842 
L 114.447435 120.944019 
L 114.548647 121.254246 
L 114.719442 121.581367 
L 114.744745 121.560921 
L 114.864934 121.567733 
L 114.985124 121.506536 
L 115.086336 121.421959 
L 115.136942 121.462495 
L 115.33304 121.516718 
L 115.775842 121.564326 
L 116.629819 121.601841 
L 116.781637 121.177734 
L 116.85122 121.019325 
L 116.876523 121.081825 
L 117.072621 121.714962 
L 117.097924 121.708081 
L 117.26872 121.530304 
L 117.445841 121.503143 
L 117.787431 121.714962 
L 118.034135 121.660007 
L 118.204931 121.06206 
L 118.255537 121.244244 
L 118.426332 121.749413 
L 118.546521 121.622344 
L 118.673036 121.455731 
L 118.717317 121.486193 
L 119.03993 121.735623 
L 119.286634 121.639452 
L 119.577619 121.39163 
L 119.602922 121.411842 
L 120.020421 121.790861 
L 120.121633 121.763216 
L 120.267126 121.15784 
L 120.317732 121.317753 
L 120.488527 121.832425 
L 120.583413 121.711521 
L 120.709928 121.499752 
L 120.754208 121.550708 
L 121.000913 121.787402 
L 121.222314 121.653152 
L 121.494321 121.595013 
L 122.057313 121.856725 
L 122.158525 121.432083 
L 122.228108 121.058768 
L 122.278714 121.257582 
L 122.44951 121.89151 
L 122.550722 121.625764 
L 122.620305 121.516718 
L 122.670911 121.615507 
L 122.841706 121.822023 
L 123.233903 121.704642 
L 123.556516 121.835894 
L 123.999319 121.725289 
L 124.195417 121.401732 
L 124.290303 121.29098 
L 124.315606 121.337864 
L 124.612916 121.94384 
L 124.707803 121.846306 
L 124.903901 121.499752 
L 124.954507 121.564326 
L 125.226514 121.929867 
L 125.422613 121.870629 
L 125.764203 121.455731 
L 125.814809 121.554112 
L 126.061513 121.971826 
L 126.257612 121.901961 
L 126.479013 121.435459 
L 126.548596 121.577957 
L 126.769997 121.982334 
L 126.91549 121.908932 
L 127.162194 121.588188 
L 127.2128 121.642876 
L 127.554391 122.006883 
L 127.725186 121.91242 
L 127.946587 121.482805 
L 127.997193 121.598427 
L 128.218594 122.020929 
L 128.345109 121.957826 
L 128.541208 121.687459 
L 128.560185 121.701204 
L 128.958707 121.999865 
L 129.274995 121.763216 
L 129.325601 121.832425 
L 129.521699 121.94384 
L 129.692494 121.759764 
L 129.86329 121.677159 
L 130.034085 121.670296 
L 130.306092 121.601841 
L 130.62238 121.732177 
L 131.166394 121.766669 
L 131.362493 121.783945 
L 131.533288 121.445592 
L 131.609197 121.677159 
L 131.628174 121.690894 
L 131.653477 121.5916 
L 131.704083 121.358003 
L 131.754689 121.520113 
L 131.900181 121.915907 
L 132.614991 121.922886 
L 133.007188 121.874107 
L 133.44999 121.711521 
L 133.715672 121.996357 
L 134.379876 121.982334 
L 134.481088 121.801241 
L 134.62658 120.872345 
L 134.677186 121.337864 
L 134.822678 122.123166 
L 134.917565 121.870629 
L 134.968171 121.947335 
L 135.094686 122.034989 
L 135.113663 122.020929 
L 135.335064 121.933359 
L 135.68298 121.919396 
L 136.125783 121.964824 
L 136.366162 122.006883 
L 136.492677 121.82549 
L 136.51798 121.870629 
L 136.56226 122.038506 
L 136.587563 122.003373 
L 136.688775 121.032461 
L 136.714078 121.270932 
L 136.834267 122.162131 
L 136.85957 122.14795 
L 136.935479 121.91242 
L 137.005062 122.034989 
L 137.106274 122.080775 
L 137.131577 122.059625 
L 137.327676 122.010393 
L 137.593357 121.971826 
L 137.890668 121.996357 
L 139.041954 122.052582 
L 139.193772 121.472647 
L 139.212749 121.398364 
L 139.263355 121.520113 
L 139.459454 122.293958 
L 139.535363 122.165679 
L 139.630249 121.936852 
L 139.680855 122.045542 
L 139.85165 122.258213 
L 140.243847 122.197644 
L 140.465248 122.218993 
L 140.838467 122.112557 
L 141.180058 122.286802 
L 141.350853 122.158585 
L 141.521649 121.929867 
L 141.546952 121.957826 
L 141.844262 122.240373 
L 142.04036 122.003373 
L 142.135246 122.020929 
L 142.381951 122.176326 
L 142.875359 122.151494 
L 143.166344 122.162131 
L 143.438351 122.020929 
L 143.659752 121.996357 
L 143.950737 122.211873 
L 143.97604 122.183429 
L 144.077252 122.087832 
L 144.121532 122.14795 
L 144.172138 122.179877 
L 144.197441 122.119629 
L 144.298653 121.801241 
L 144.342933 121.982334 
L 144.520054 122.347739 
L 144.912251 122.304699 
L 145.15263 122.322617 
L 145.816833 122.226116 
L 146.259636 122.455893 
L 146.455734 122.401717 
L 146.556946 122.144407 
L 146.677136 121.516718 
L 146.702439 121.577957 
L 146.898537 122.54299 
L 146.92384 122.5139 
L 147.044029 122.204757 
L 147.094635 122.265355 
L 147.290733 122.441426 
L 147.68293 122.319032 
L 148.049823 122.499377 
L 148.347134 122.441426 
L 148.467323 122.14795 
L 148.593838 121.653152 
L 148.619141 121.721846 
L 148.815239 122.615966 
L 148.85952 122.601342 
L 148.884823 122.532075 
L 148.986035 122.226116 
L 149.036641 122.351331 
L 149.182133 122.615966 
L 149.302322 122.492121 
L 149.428837 122.362114 
L 149.473117 122.401717 
L 149.745125 122.604997 
L 149.941223 122.466752 
L 150.112018 122.36571 
L 150.137321 122.387303 
L 150.504215 122.69666 
L 150.605427 122.557557 
L 150.725616 122.268927 
L 150.750919 122.311863 
L 150.97232 122.715061 
L 151.09251 122.528438 
L 151.168419 122.437812 
L 151.219025 122.499377 
L 151.364517 122.594036 
L 151.38982 122.575785 
L 151.636524 122.459511 
L 151.908532 122.488494 
L 152.345008 122.54663 
L 152.838417 122.583082 
L 153.180007 122.54299 
L 153.426712 122.387303 
L 153.452015 122.423363 
L 153.724022 122.718744 
L 153.945423 122.626944 
L 154.065613 122.503007 
L 154.090916 122.528438 
L 154.3819 122.833374 
L 154.925915 122.774099 
L 155.191596 122.770402 
L 155.634399 122.681955 
L 156.102504 122.956388 
L 156.298603 122.848231 
L 156.469398 122.077248 
L 156.520004 122.459511 
L 156.665496 123.057804 
L 156.741405 122.926472 
L 156.836291 122.711379 
L 156.886897 122.788895 
L 157.082996 122.971369 
L 157.475192 122.866822 
L 157.772503 122.997621 
L 157.968601 122.911537 
L 158.190002 122.564845 
L 158.240608 122.645258 
L 158.436706 123.110666 
L 158.455684 123.103103 
L 158.632805 122.948903 
L 158.727691 122.612309 
L 158.778297 122.737172 
L 158.923789 123.122018 
L 158.949092 123.110666 
L 159.069282 122.948903 
L 159.145191 122.811118 
L 159.195797 122.863102 
L 159.391895 123.080436 
L 159.537387 122.941422 
L 159.638599 122.900345 
L 159.663902 122.922737 
L 159.878978 123.099322 
L 160.100379 122.963876 
L 160.296477 122.855664 
L 160.713977 123.129591 
L 160.935378 123.027682 
L 161.106173 122.351331 
L 161.156779 122.656258 
L 161.257991 123.186513 
L 161.302272 123.133379 
L 161.403484 123.110666 
L 161.504696 122.825952 
L 161.548976 122.933945 
L 161.719771 123.197924 
L 161.871589 123.095543 
L 161.991778 122.948903 
L 162.042384 122.997621 
L 162.333369 123.262753 
L 162.55477 123.209344 
L 162.776172 122.722428 
L 162.826778 122.870543 
L 162.997573 123.324029 
L 163.022876 123.316356 
L 163.218974 123.224584 
L 163.345489 122.919003 
L 163.389769 123.031444 
L 163.585868 123.381708 
L 163.756663 123.335547 
L 163.908481 123.046501 
L 163.959087 123.110666 
L 164.155185 123.443482 
L 164.395564 123.34323 
L 164.522079 123.046501 
L 164.572685 123.110666 
L 164.768783 123.489983 
L 165.009162 123.304853 
L 165.110374 123.140958 
L 165.135677 123.182712 
L 165.357078 123.524955 
L 165.553176 123.431879 
L 165.673365 123.213152 
L 165.698668 123.247473 
L 165.92007 123.567811 
L 165.945373 123.556111 
L 166.116168 123.501631 
L 166.236357 123.247473 
L 166.286963 123.320192 
L 166.457759 123.622536 
L 166.483062 123.60688 
L 166.755069 123.358609 
L 166.805675 123.301021 
L 166.849955 123.377856 
L 167.027076 123.661751 
L 167.046053 123.646053 
L 167.318061 123.404843 
L 167.368667 123.374004 
L 167.39397 123.404843 
L 167.564765 123.716826 
L 167.615371 123.689263 
L 167.931659 123.439613 
L 167.982265 123.540524 
L 168.127757 123.768153 
L 168.15306 123.756293 
L 168.49465 123.517176 
L 168.519953 123.56391 
L 168.690749 123.835543 
L 168.716052 123.823628 
L 169.063968 123.618621 
L 169.089271 123.661751 
L 169.260066 123.927211 
L 169.652263 123.764198 
L 169.677566 123.823628 
L 169.873664 124.0275 
L 170.265861 123.939209 
L 170.461959 124.16906 
L 170.72764 124.019452 
L 170.828852 123.923213 
L 170.854155 123.947214 
L 171.170443 124.299687 
L 171.366541 124.193465 
L 171.543662 123.967244 
L 171.56264 123.99935 
L 171.885253 124.41081 
L 172.081351 124.336635 
L 172.302752 124.015429 
L 172.353358 124.088002 
L 172.593737 124.501979 
L 172.891047 124.423209 
L 173.112449 124.100133 
L 173.137752 124.140639 
L 173.454039 124.597897 
L 173.67544 124.543606 
L 173.871539 124.197536 
L 173.922145 124.287392 
L 174.168849 124.711299 
L 174.459833 124.585351 
L 174.611651 124.303788 
L 174.630629 124.328417 
L 174.953242 124.795866 
L 175.174643 124.715516 
L 175.320136 124.38192 
L 175.345439 124.419075 
L 175.617446 124.902262 
L 175.883127 124.677608 
L 175.984339 124.556117 
L 176.009642 124.597897 
L 176.231044 125.000828 
L 176.250021 124.979345 
L 176.376536 124.97076 
L 176.452445 125.013733 
L 176.471422 124.96218 
L 176.597937 124.501979 
L 176.648543 124.597897 
L 176.794036 125.104387 
L 176.819339 125.095729 
L 177.059717 124.902262 
L 177.135626 124.812838 
L 177.186232 124.889454 
L 177.357027 125.156441 
L 177.38233 125.139069 
L 177.477217 125.087077 
L 177.50252 125.117383 
L 177.578429 125.173833 
L 177.603732 125.121718 
L 177.723921 124.690233 
L 177.774527 124.82558 
L 177.894716 125.247979 
L 177.945322 125.208678 
L 178.046534 125.243607 
L 178.090814 125.243607 
L 178.116117 125.178184 
L 178.21733 124.885187 
L 178.267936 124.987934 
L 178.388125 125.300542 
L 178.413428 125.287384 
L 178.508314 125.252352 
L 178.533617 125.287384 
L 178.584223 125.313713 
L 178.609526 125.269857 
L 178.729715 124.96218 
L 178.755018 125.018038 
L 178.881533 125.357698 
L 178.925814 125.309321 
L 179.001723 125.274237 
L 179.027026 125.318105 
L 179.077632 125.379741 
L 179.102935 125.340088 
L 179.197821 124.94932 
L 179.248427 125.069787 
L 179.343313 125.410655 
L 179.393919 125.344489 
L 179.444525 125.313713 
L 179.469828 125.357698 
L 179.520434 125.441635 
L 179.539411 125.397398 
L 179.640623 125.02665 
L 179.691229 125.21304 
L 179.760813 125.459367 
L 179.811419 125.384153 
L 179.862025 125.362104 
L 179.887328 125.415077 
L 179.931608 125.486005 
L 179.956911 125.4195 
L 180.03282 125.091402 
L 180.083426 125.226132 
L 180.153009 125.499342 
L 180.203615 125.4195 
L 180.254221 125.384153 
L 180.279524 125.441635 
L 180.33013 125.526052 
L 180.349108 125.446066 
L 180.425017 125.117383 
L 180.475623 125.318105 
L 180.526229 125.530508 
L 180.595812 125.392982 
L 180.646418 125.450498 
L 180.697024 125.570677 
L 180.722327 125.47268 
L 180.79191 125.121718 
L 180.842516 125.415077 
L 180.893122 125.566208 
L 180.943728 125.401816 
L 180.962705 125.388567 
L 180.988008 125.47268 
L 181.038614 125.588564 
L 181.063917 125.42835 
L 181.114523 125.082752 
L 181.158804 125.384153 
L 181.20941 125.597516 
L 181.260016 125.384153 
L 181.310622 125.55281 
L 181.335925 125.633379 
L 181.361228 125.490449 
L 181.405508 125.030958 
L 181.456114 125.42835 
L 181.481417 125.610955 
L 181.557326 125.388567 
L 181.576303 125.55281 
L 181.601606 125.660333 
L 181.626909 125.459367 
L 181.677515 124.97076 
L 181.728121 125.534966 
L 181.753424 125.570677 
L 181.898917 124.975052 
L 181.848311 125.687337 
L 181.92422 125.013733 
L 182.069712 125.700857 
L 182.120318 124.96218 
L 182.189901 125.437205 
L 182.215204 125.318105 
L 182.240507 125.50824 
L 182.26581 125.727935 
L 182.291113 125.47268 
L 182.316416 125.056832 
L 182.392325 125.423924 
L 182.411302 125.335689 
L 182.436605 125.50824 
L 182.461908 125.709878 
L 182.487211 125.486005 
L 182.537817 125.104387 
L 182.588423 125.410655 
L 182.607401 125.384153 
L 182.658007 125.696349 
L 182.68331 125.47712 
L 182.733916 125.134729 
L 182.784522 125.446066 
L 182.854105 125.732453 
L 182.879408 125.566208 
L 182.930014 125.18689 
L 182.98062 125.548347 
L 183.050203 125.873197 
L 183.100809 125.579618 
L 183.126112 125.388567 
L 183.176718 125.67833 
L 183.271604 126.158779 
L 183.296907 126.06605 
L 183.347513 125.682833 
L 183.398119 125.969308 
L 183.493006 126.379014 
L 183.518309 126.298975 
L 183.594218 125.905164 
L 183.619521 126.06605 
L 183.689104 126.383736 
L 183.73971 126.303671 
L 183.815619 125.900593 
L 183.859899 126.140186 
L 183.910505 126.247415 
L 183.961111 126.186712 
L 184.030695 125.900593 
L 184.081301 126.098439 
L 184.15721 126.238059 
L 184.207816 126.182053 
L 184.252096 126.06605 
L 184.302702 126.200698 
L 184.378611 126.350715 
L 184.422891 126.317768 
L 184.4988 126.177395 
L 184.549406 126.275516 
L 184.600012 126.360142 
L 184.644292 126.317768 
L 185.087095 125.687337 
L 185.112398 125.71439 
L 185.333799 125.900593 
L 185.63111 126.468988 
L 185.67539 126.369575 
L 185.725996 126.29428 
L 185.751299 126.360142 
L 185.827208 126.631375 
L 185.871488 126.545183 
L 186.023306 126.089178 
L 186.048609 125.868636 
L 186.092889 126.177395 
L 186.143495 126.612178 
L 186.219404 126.397911 
L 186.244707 126.492756 
L 186.27001 126.383736 
L 186.314291 125.673829 
L 186.364897 126.196034 
L 186.485086 126.540409 
L 186.560995 125.960128 
L 186.586298 126.242736 
L 186.706487 126.607382 
L 186.782396 126.242736 
L 186.807699 126.416831 
L 186.927888 126.679479 
L 187.003797 126.383736 
L 187.054404 126.602589 
L 187.174593 126.737411 
L 187.250502 126.464239 
L 187.294782 126.640984 
L 187.4466 126.800428 
L 187.516183 126.459491 
L 187.566789 126.631375 
L 187.712282 126.849087 
L 187.737585 126.849087 
L 187.813494 126.280205 
L 187.8641 126.640984 
L 187.883077 126.834472 
L 187.984289 126.800428 
L 188.009592 126.927276 
L 188.034895 126.737411 
L 188.079175 126.047574 
L 188.129781 126.631375 
L 188.256296 127.000958 
L 188.325879 126.224038 
L 188.376485 126.781009 
L 188.401788 126.751929 
L 188.427091 126.781009 
L 188.477697 127.0256 
L 188.496675 126.732574 
L 188.521978 126.497515 
L 188.572584 126.795571 
L 188.673796 127.07006 
L 188.692773 126.951796 
L 188.743379 126.703589 
L 188.793985 126.90769 
L 188.888871 127.08491 
L 188.914174 126.976356 
L 188.96478 126.815009 
L 189.015386 126.966527 
L 189.110273 127.139488 
L 189.135576 127.089864 
L 189.211485 126.878359 
L 189.262091 127.0256 
L 189.38228 127.179309 
L 189.458189 126.863716 
L 189.502469 126.991112 
L 189.654287 127.259274 
L 189.749173 126.722906 
L 189.799779 126.991112 
L 189.945272 127.324566 
L 190.046484 126.4263 
L 190.090764 126.927276 
L 190.217279 127.349755 
L 190.242582 127.000958 
L 190.293188 126.242736 
L 190.337468 126.732574 
L 190.43868 127.304445 
L 190.463983 127.204251 
L 190.508263 126.473738 
L 190.584173 126.829604 
L 190.660082 127.254263 
L 190.704362 126.912584 
L 190.754968 126.684298 
L 190.805574 126.912584 
L 190.90046 127.2693 
L 190.925763 127.119618 
L 190.976369 126.819872 
L 191.026975 126.937079 
L 191.147164 127.374988 
L 191.19777 127.169344 
L 191.248376 126.937079 
L 191.31796 127.109693 
L 191.444475 127.517094 
L 191.495081 127.430652 
L 191.61527 126.932177 
L 191.640573 126.986192 
L 191.861974 127.712169 
L 191.91258 127.629717 
L 192.108678 126.154129 
L 192.178262 126.761616 
L 192.33008 127.686353 
L 192.355383 127.639999 
L 192.500875 125.401816 
L 192.551481 126.186712 
L 192.646367 127.38004 
L 192.67167 127.224236 
L 192.747579 126.015297 
L 192.772882 126.468988 
L 192.842466 127.405324 
L 192.893072 127.000958 
L 192.943678 126.369575 
L 192.987958 126.961615 
L 193.013261 127.01081 
L 193.063867 126.946889 
L 193.114473 126.732574 
L 193.139776 126.844214 
L 193.259965 127.425583 
L 193.285268 127.390148 
L 193.310571 127.354798 
L 193.335874 127.41545 
L 193.456063 127.805481 
L 193.481366 127.779502 
L 193.531972 127.707002 
L 193.557275 127.753568 
L 193.677465 128.004434 
L 193.728071 127.962326 
L 193.778677 127.925579 
L 193.822957 127.993896 
L 194.019055 128.152768 
L 194.215154 128.216799 
L 194.461858 128.291855 
L 194.759168 128.23285 
L 195.151365 128.513885 
L 195.246251 128.307988 
L 195.398069 127.598917 
L 195.442349 127.883695 
L 195.518258 128.541192 
L 195.568864 128.083713 
L 195.594167 127.862797 
L 195.638447 128.222147 
L 195.790265 128.962606 
L 195.859849 128.778142 
L 195.910455 128.889663 
L 196.011667 129.081204 
L 196.055947 129.041565 
L 196.226742 128.996394 
L 196.422841 128.97386 
L 196.549356 128.579507 
L 196.669545 127.826298 
L 196.694848 127.941317 
L 196.770757 128.867291 
L 196.815037 128.443123 
L 196.84034 128.195424 
L 196.890946 128.645422 
L 197.036438 129.379047 
L 197.112347 129.007673 
L 197.13765 129.12095 
L 197.213559 129.471915 
L 197.283143 129.442831 
L 197.504544 129.413804 
L 197.650036 129.437021 
L 197.801854 129.149405 
L 197.947347 128.152768 
L 197.997953 128.535726 
L 198.042233 129.189335 
L 198.092839 128.717164 
L 198.118142 128.50843 
L 198.143445 128.67849 
L 198.288937 129.795682 
L 198.364846 129.246566 
L 198.415452 129.518569 
L 198.560944 129.85532 
L 198.655831 129.629967 
L 198.706437 129.718511 
L 198.832952 129.873259 
L 198.858255 129.85532 
L 199.07333 129.706675 
L 199.225148 129.559512 
L 199.345337 129.269521 
L 199.395944 129.350146 
L 199.49083 129.795682 
L 199.541436 129.577095 
L 199.617345 128.884066 
L 199.667951 129.229374 
L 199.813443 130.19994 
L 199.838746 130.206059 
L 199.908329 129.712592 
L 199.958935 129.921202 
L 200.060147 130.409404 
L 200.104428 130.378413 
L 200.300526 130.102389 
L 200.376435 130.230558 
L 200.521927 130.366035 
L 200.54723 130.347488 
L 200.692722 130.126716 
L 200.819237 129.460274 
L 200.869843 129.160803 
L 200.914124 129.402209 
L 200.96473 130.029647 
L 201.015336 129.647633 
L 201.065942 129.189335 
L 201.084919 129.624083 
L 201.236737 130.850254 
L 201.30632 129.891219 
L 201.356926 130.659703 
L 201.458138 130.927169 
L 201.483441 130.863045 
L 201.553025 130.34131 
L 201.578328 130.565342 
L 201.698517 130.940028 
L 201.72382 130.901486 
L 201.825032 130.540281 
L 201.850335 130.615593 
L 201.970524 130.959336 
L 202.02113 130.920744 
L 202.286812 130.710276 
L 202.634728 130.933597 
L 202.704311 130.799199 
L 202.805523 129.927205 
L 202.90041 128.31337 
L 202.925713 128.783698 
L 203.026925 128.481183 
L 203.077531 131.27834 
L 203.147114 131.497135 
L 203.19772 129.671222 
L 203.292606 131.114721 
L 203.317909 130.837474 
L 203.343212 130.372223 
L 203.368515 131.27834 
L 203.419121 131.010949 
L 203.514007 131.483781 
L 203.469727 131.004488 
L 203.53931 131.311283 
L 203.589916 131.417197 
L 203.615219 131.18649 
L 203.665825 131.477109 
L 203.691128 131.39728 
L 205.01321 131.503816 
L 205.259915 131.517187 
L 205.506619 131.344299 
L 205.626808 130.120631 
L 205.702717 129.229374 
L 205.721694 129.612322 
L 205.7723 130.521513 
L 205.797603 129.813548 
L 205.822906 129.200764 
L 205.848209 129.897211 
L 205.968399 131.739581 
L 206.019005 130.224429 
L 206.113891 130.502769 
L 206.164497 130.279679 
L 206.215103 131.004488 
L 206.265709 130.347488 
L 206.335292 130.559073 
L 206.360595 130.97867 
L 206.436504 130.780099 
L 206.461807 130.741973 
L 206.48711 130.79283 
L 206.512413 131.05626 
L 206.6073 130.998029 
L 207.341087 132.773135 
L 207.416996 132.765853 
L 207.442299 132.824205 
L 207.537185 132.92688 
L 207.587791 132.882789 
L 208.84029 133.149335 
L 209.086994 133.07481 
L 209.308395 133.806289 
L 209.403281 133.589168 
L 209.574077 132.349567 
L 209.624683 132.055288 
L 209.675289 132.384994 
L 209.744872 133.751708 
L 209.795478 132.831516 
L 209.846084 132.236767 
L 209.871387 132.956348 
L 210.016879 134.138085 
L 210.067485 132.027566 
L 210.162372 132.194689 
L 210.212978 133.712846 
L 210.238281 132.642616 
L 210.263584 131.855469 
L 210.288887 133.428399 
L 210.339493 132.584977 
L 210.434379 134.050462 
L 210.459682 133.806289 
L 210.535591 133.55841 
L 210.510288 134.058406 
L 210.554568 133.845399 
L 210.579871 134.258416 
L 210.65578 134.058406 
L 210.681083 133.868916 
L 210.731689 134.266473 
L 210.750666 134.162072 
L 210.826575 134.106162 
L 210.877181 134.331088 
L 210.972068 134.210165 
L 211.022674 134.395988 
L 211.098583 134.355392 
L 211.123886 134.29067 
L 211.168166 134.420399 
L 211.686877 134.38786 
L 211.712181 134.29067 
L 211.756461 134.485694 
L 211.882976 134.600661 
L 211.952559 134.186099 
L 211.977862 134.363502 
L 212.12968 134.708224 
L 212.199263 134.098192 
L 212.249869 134.469343 
L 212.395362 134.841695 
L 212.496574 134.186099 
L 212.54718 134.543065 
L 212.692672 134.976385 
L 212.743278 134.875252 
L 212.838164 134.355392 
L 212.88877 134.51845 
L 213.084868 135.163616 
L 213.179755 134.976385 
L 213.375853 134.404121 
L 213.401156 134.444851 
L 213.527671 135.197915 
L 213.64786 135.545362 
L 213.673163 135.527794 
L 214.040057 135.180755 
L 214.312064 135.344581 
L 214.457556 135.001777 
L 214.603049 134.51845 
L 214.653655 134.71653 
L 214.754867 135.829337 
L 214.773844 135.249513 
L 214.849753 132.441856 
L 214.875056 133.216731 
L 214.925662 136.064161 
L 215.020548 135.9102 
L 215.071154 133.261834 
L 215.147063 134.194117 
L 215.216646 133.535383 
L 215.267253 135.757829 
L 215.292556 134.858464 
L 215.317859 135.784604 
L 215.368465 134.942597 
L 215.387442 136.23816 
L 215.463351 135.802481 
L 215.488654 135.396696 
L 215.513957 136.284292 
L 215.53926 136.275054 
L 215.58354 136.302785 
L 215.608843 135.9102 
L 215.659449 136.573578 
L 215.735358 136.321302 
L 215.760661 136.339842 
L 215.830244 136.677608 
L 215.855547 136.630231 
L 215.88085 136.489006 
L 215.931456 136.801505 
L 216.00104 136.734662 
L 216.026343 136.639694 
L 216.051646 136.744193 
L 216.127555 136.897524 
L 216.152858 136.849437 
L 216.178161 136.753729 
L 216.222441 136.907161 
L 216.29835 136.955437 
L 216.323653 136.87827 
L 216.348956 136.801505 
L 216.393236 136.955437 
L 216.469145 137.003872 
L 216.494448 136.936108 
L 216.545054 136.811079 
L 216.589334 136.974792 
L 216.665243 137.003872 
L 216.741152 136.725138 
L 216.785433 136.897524 
L 216.861342 136.994173 
L 216.886645 136.936108 
L 216.962554 136.564158 
L 217.006834 136.763272 
L 217.082743 136.945769 
L 217.133349 136.839838 
L 217.202932 136.404916 
L 217.253538 136.517143 
L 217.380053 136.897524 
L 217.399031 136.849437 
L 217.525546 136.247375 
L 217.576152 136.367695 
L 217.721644 136.936108 
L 217.746947 136.907161 
L 217.943045 136.155483 
L 217.993651 136.367695 
L 218.164446 137.209055 
L 218.189749 137.199219 
L 218.335242 136.526534 
L 218.455431 135.937253 
L 218.480734 136.02779 
L 218.702135 137.82178 
L 218.778044 137.719572 
L 218.94884 136.526534 
L 219.043726 135.554154 
L 219.094332 135.901193 
L 219.29043 138.493234 
L 219.315733 138.568564 
L 219.341036 138.514718 
L 219.461225 136.994173 
L 219.511831 137.417132 
L 219.682627 139.062237 
L 219.70793 139.039942 
L 219.783839 138.461068 
L 219.878725 137.497178 
L 219.929331 137.801281 
L 220.125429 139.469429 
L 220.201338 139.10693 
L 220.34683 137.387227 
L 220.397436 137.668733 
L 220.568232 139.794094 
L 220.593535 139.841064 
L 220.637815 139.735592 
L 220.80861 137.638313 
L 220.859216 138.301278 
L 221.030012 140.138063 
L 221.055315 140.150069 
L 221.080618 140.054299 
L 221.22611 138.153686 
L 221.276716 138.731293 
L 221.447511 140.416687 
L 221.472814 140.428922 
L 221.498117 140.33133 
L 221.643609 138.439662 
L 221.694215 138.88481 
L 221.865011 140.638473 
L 221.890314 140.688215 
L 221.915617 140.650893 
L 222.010503 139.492384 
L 222.086412 138.557779 
L 222.137018 139.051085 
L 222.307813 140.838456 
L 222.358419 140.914154 
L 222.383722 140.825877 
L 222.554518 138.731293 
L 222.605124 139.538401 
L 222.750616 141.015693 
L 222.820199 141.182199 
L 222.845502 141.066725 
L 223.016297 138.973257 
L 223.066903 139.864605 
L 223.212396 141.259687 
L 223.288305 141.468334 
L 223.313608 141.389745 
L 223.408494 140.018545 
L 223.484403 139.129327 
L 223.509706 139.298398 
L 223.731107 141.653353 
L 223.781713 141.760129 
L 223.807016 141.653353 
L 223.977811 139.343813 
L 224.022092 140.150069 
L 224.123304 141.82726 
L 224.17391 141.760129 
L 224.268796 142.085178 
L 224.294099 141.962444 
L 224.464894 139.607697 
L 224.5155 140.514847 
L 224.616712 142.126317 
L 224.660993 142.057815 
L 224.762205 142.403552 
L 224.787508 142.278151 
L 224.958303 139.829308 
L 225.008909 140.800752 
L 225.103795 142.417552 
L 225.154401 142.347687 
L 225.249287 142.728952 
L 225.27459 142.600765 
L 225.445386 140.066236 
L 225.495992 141.105116 
L 225.597204 142.714654 
L 225.641484 142.629155 
L 225.742696 143.032459 
L 225.767999 142.887152 
L 225.913491 140.307033 
L 225.964097 140.825877 
L 226.058984 143.032459 
L 226.134893 142.945103 
L 226.210802 143.345326 
L 226.255082 143.105652 
L 226.4069 140.53949 
L 226.45118 141.350607 
L 226.552392 143.324459 
L 226.621975 143.260551 
L 226.697884 143.651262 
L 226.723187 143.55261 
L 226.86868 140.838456 
L 226.944589 142.016866 
L 227.020498 143.611722 
L 227.090081 143.49524 
L 227.16599 143.918641 
L 227.216596 143.686329 
L 227.362088 141.092308 
L 227.387391 141.389745 
L 227.50758 143.893851 
L 227.583489 143.8552 
L 227.653073 144.202019 
L 227.678376 144.03384 
L 227.823868 141.402814 
L 227.874474 142.250429 
L 227.975686 144.221 
L 228.019966 144.099626 
L 228.121178 144.494172 
L 228.146481 144.356155 
L 228.291974 141.773531 
L 228.34258 142.501829 
L 228.437466 144.62373 
L 228.513375 144.578255 
L 228.589284 144.886311 
L 228.614587 144.78894 
L 228.760079 142.278151 
L 228.810685 142.786283 
L 228.98148 145.323236 
L 229.051064 145.614339 
L 229.10167 145.386479 
L 229.247162 142.916099 
L 229.297768 143.60413 
L 229.493866 146.638963 
L 229.544472 146.773841 
L 229.569775 146.672567 
L 229.664662 144.853232 
L 229.740571 143.420093 
L 229.791177 143.948134 
L 229.987275 147.459492 
L 230.031555 147.628026 
L 230.056858 147.518755 
L 230.183373 144.75936 
L 230.252956 143.779737 
L 230.278259 144.227332 
L 230.328865 146.179987 
L 230.347843 144.863148 
" clip-path="url(#p79a8c4a72c)" style="fill: none; stroke-dasharray: 1.85,0.8; stroke-dashoffset: 0; stroke: #1f77b4; stroke-width: 0.5"/>
   </g>
   <g id="line2d_50">
    <path d="M 40.803043 4.432198 
L 49.66542 4.541582 
L 51.297464 4.72571 
L 53.631666 5.202723 
L 54.795604 5.421223 
L 59.925788 6.370479 
L 61.323779 6.962187 
L 62.487717 7.425054 
L 63.189875 7.800621 
L 64.353813 8.409468 
L 66.922068 9.372629 
L 69.483997 10.365041 
L 70.420208 10.986277 
L 72.045926 12.379498 
L 72.748085 12.879781 
L 74.614181 13.918193 
L 75.778119 14.953515 
L 76.246225 15.359393 
L 76.948383 16.241294 
L 78.112322 18.009797 
L 79.27626 19.160185 
L 79.978418 19.746917 
L 80.212471 20.078979 
L 80.440198 20.715188 
L 81.142356 23.470043 
L 82.540347 26.97727 
L 83.476558 28.524353 
L 83.938338 30.734921 
L 85.108602 36.830644 
L 86.27254 42.637915 
L 87.904584 51.653587 
L 88.37269 54.381886 
L 94.432759 96.62455 
L 96.532908 108.669539 
L 97.462794 113.049447 
L 98.392679 116.253251 
L 99.094837 117.991262 
L 99.79067 119.193841 
L 100.492828 120.053741 
L 101.194987 120.624195 
L 102.124872 121.035747 
L 103.28881 121.207627 
L 105.382634 121.194334 
L 115.383646 121.016042 
L 135.138966 121.401732 
L 155.115687 122.155039 
L 166.255335 122.434198 
L 176.699149 122.866822 
L 184.821413 123.144749 
L 201.534047 123.787942 
L 204.55143 124.320202 
L 207.334761 124.460469 
L 214.06536 124.589532 
L 219.632021 124.593714 
L 223.579289 124.915081 
L 227.526558 125.521597 
L 230.309888 126.130899 
L 230.379471 127.274315 
L 230.379471 127.274315 
" clip-path="url(#p79a8c4a72c)" style="fill: none; stroke: #ff7f0e; stroke-width: 0.5; stroke-linecap: square"/>
   </g>
   <g id="line2d_51">
    <path d="M 40.809369 4.432198 
L 51.525191 4.541582 
L 56.048102 4.862213 
L 57.718101 5.113685 
L 59.141395 5.292302 
L 63.430254 6.301592 
L 65.334305 7.092131 
L 66.049115 7.340747 
L 67.004303 7.821938 
L 67.953166 8.264302 
L 68.427597 8.511303 
L 69.142407 8.976818 
L 69.623164 9.278141 
L 70.572027 10.457668 
L 71.286836 11.446605 
L 72.956835 14.108319 
L 73.905697 15.96082 
L 74.860886 17.271552 
L 76.290505 20.99914 
L 78.428609 24.680666 
L 78.909366 25.668877 
L 80.098607 30.072748 
L 80.573039 32.879286 
L 81.04747 36.232939 
L 81.528227 41.139016 
L 82.47709 51.749124 
L 83.906709 65.463554 
L 85.095951 74.303526 
L 87.714811 92.447752 
L 88.904053 100.306857 
L 90.333672 108.276971 
L 91.522913 113.307928 
L 92.478102 116.384519 
L 93.192912 118.085125 
L 93.907722 119.289866 
L 94.622531 120.143172 
L 95.337341 120.701093 
L 96.052151 121.04232 
L 97.001014 121.240911 
L 99.385822 121.428707 
L 104.623544 121.469262 
L 127.959239 121.577957 
L 148.429369 121.985839 
L 179.855699 123.470589 
L 191.520384 124.332525 
L 201.287343 125.274237 
L 206.525065 126.070673 
L 211.047977 126.986192 
L 218.664181 128.822649 
L 224.376334 131.457112 
L 227.235573 133.254307 
L 230.328865 135.249513 
L 230.379471 135.112317 
L 230.379471 135.112317 
" clip-path="url(#p79a8c4a72c)" style="fill: none; stroke-dasharray: 1.85,0.8; stroke-dashoffset: 0; stroke: #ff7f0e; stroke-width: 0.5"/>
   </g>
   <g id="line2d_52">
    <path d="M 42.890541 4.553786 
L 45.212091 4.553786 
L 47.533642 4.553786 
L 49.855192 4.553786 
L 52.176743 4.553786 
L 54.498293 4.553786 
L 56.819844 4.553786 
L 59.141395 4.553786 
L 61.462945 4.553786 
L 63.784496 4.553786 
L 66.106046 4.553786 
L 68.427597 4.553786 
L 70.749148 4.553786 
L 73.070698 4.553786 
L 75.392249 4.553786 
L 77.713799 4.553786 
L 80.03535 4.553786 
L 82.3569 4.553786 
L 84.678451 4.553786 
L 86.993676 4.553786 
L 89.315226 4.553786 
L 91.636777 4.553786 
L 93.958328 4.553786 
L 96.279878 4.553786 
L 98.601429 4.553786 
L 100.922979 4.553786 
L 103.24453 4.553786 
L 105.56608 4.553786 
L 107.887631 4.553786 
L 110.209182 4.553786 
L 112.530732 4.553786 
L 114.852283 4.553786 
L 117.173833 4.553786 
L 119.495384 4.553786 
L 121.816935 4.553786 
L 124.138485 4.553786 
L 126.460036 4.553786 
L 128.781586 4.553786 
L 131.103137 4.553786 
L 133.424687 4.553786 
L 135.746238 4.553786 
L 138.067789 4.553786 
L 140.389339 4.553786 
L 142.71089 4.553786 
L 145.03244 4.553786 
L 147.353991 4.553786 
L 149.675541 4.553786 
L 151.997092 4.553786 
L 154.318643 4.553786 
L 156.640193 4.553786 
L 158.955418 4.553786 
L 161.276969 4.553786 
L 163.598519 4.553786 
L 165.92007 4.553786 
L 168.24162 4.553786 
L 170.563171 4.553786 
L 172.884721 4.553786 
L 175.206272 4.553786 
L 177.527823 4.553786 
L 179.849373 4.553786 
L 182.170924 4.553786 
L 184.492474 4.553786 
L 186.814025 4.553786 
L 189.135576 4.553786 
L 191.457126 4.553786 
L 193.778677 4.553786 
L 196.100227 4.553786 
L 198.421778 4.553786 
L 200.743328 4.553786 
L 203.064879 4.553786 
L 205.38643 4.553786 
L 207.70798 4.553786 
L 210.029531 4.553786 
L 212.351081 4.553786 
L 214.672632 4.553786 
L 216.994182 4.553786 
L 219.315733 4.553786 
L 221.637284 4.553786 
L 223.958834 4.553786 
L 226.274059 4.553786 
L 228.59561 4.553786 
L 230.721062 4.553786 
" clip-path="url(#p79a8c4a72c)" style="fill: none; stroke: #2ca02c; stroke-width: 0.5; stroke-linecap: square"/>
   </g>
   <g id="line2d_53">
    <path d="M 42.947472 4.553786 
L 45.319629 4.553786 
L 47.691786 4.553786 
L 50.063942 4.553786 
L 52.436099 4.553786 
L 54.808255 4.553786 
L 57.180412 4.553786 
L 59.558894 4.553786 
L 61.931051 4.553786 
L 64.303207 4.553786 
L 66.675364 4.553786 
L 69.047521 4.553786 
L 71.419677 4.553786 
L 73.791834 4.553786 
L 76.16399 4.553786 
L 78.542473 4.553786 
L 80.914629 4.553786 
L 83.286786 4.553786 
L 85.658942 4.553786 
L 88.031099 4.553786 
L 90.403256 4.553786 
L 92.775412 4.553786 
L 95.147569 4.553786 
L 97.519725 4.553786 
L 99.898208 4.553786 
L 102.270364 4.553786 
L 104.642521 4.553786 
L 107.014677 4.553786 
L 109.386834 4.553786 
L 111.758991 4.553786 
L 114.131147 4.553786 
L 116.503304 4.553786 
L 118.87546 4.553786 
L 121.253943 4.553786 
L 123.626099 4.553786 
L 125.998256 4.553786 
L 128.370412 4.553786 
L 130.742569 4.553786 
L 133.114726 4.553786 
L 135.486882 4.553786 
L 137.859039 4.553786 
L 140.231195 4.553786 
L 142.603352 4.553786 
L 144.975509 4.553786 
L 147.353991 4.553786 
L 149.726147 4.553786 
L 152.098304 4.553786 
L 154.470461 4.553786 
L 156.842617 4.553786 
L 159.214774 4.553786 
L 161.58693 4.553786 
L 163.959087 4.553786 
L 166.331244 4.553786 
L 168.709726 4.553786 
L 171.081882 4.553786 
L 173.454039 4.553786 
L 175.826196 4.553786 
L 178.198352 4.553786 
L 180.570509 4.553786 
L 182.942665 4.553786 
L 185.314822 4.553786 
L 187.693304 4.553786 
L 190.065461 4.553786 
L 192.437618 4.553786 
L 194.809774 4.553786 
L 197.181931 4.553786 
L 199.554087 4.553786 
L 201.926244 4.553786 
L 204.2984 4.553786 
L 206.670557 4.553786 
L 209.049039 4.553786 
L 211.421196 4.553786 
L 213.793353 4.553786 
L 216.165509 4.553786 
L 218.537666 4.553786 
L 220.909822 4.553786 
L 223.281979 4.553786 
L 225.654135 4.553786 
L 228.026292 4.553786 
L 230.404774 4.553786 
" clip-path="url(#p79a8c4a72c)" style="fill: none; stroke-dasharray: 1.85,0.8; stroke-dashoffset: 0; stroke: #2ca02c; stroke-width: 0.5"/>
   </g>
   <g id="patch_3">
    <path d="M 40.56899 149.059984 
L 40.56899 3.00024 
" style="fill: none; stroke: #000000; stroke-width: 0.8; stroke-linejoin: miter; stroke-linecap: square"/>
   </g>
   <g id="patch_4">
    <path d="M 230.341517 149.059984 
L 230.341517 3.00024 
" style="fill: none; stroke: #000000; stroke-width: 0.8; stroke-linejoin: miter; stroke-linecap: square"/>
   </g>
   <g id="patch_5">
    <path d="M 40.56899 149.059984 
L 230.341517 149.059984 
" style="fill: none; stroke: #000000; stroke-width: 0.8; stroke-linejoin: miter; stroke-linecap: square"/>
   </g>
   <g id="patch_6">
    <path d="M 40.56899 3.00024 
L 230.341517 3.00024 
" style="fill: none; stroke: #000000; stroke-width: 0.8; stroke-linejoin: miter; stroke-linecap: square"/>
   </g>
   <g id="legend_1">
    <g id="patch_7">
     <path d="M 154.041517 56.20024 
L 223.341517 56.20024 
Q 225.341517 56.20024 225.341517 54.20024 
L 225.341517 10.00024 
Q 225.341517 8.00024 223.341517 8.00024 
L 154.041517 8.00024 
Q 152.041517 8.00024 152.041517 10.00024 
L 152.041517 54.20024 
Q 152.041517 56.20024 154.041517 56.20024 
z
" style="fill: #ffffff; opacity: 0.8; stroke: #cccccc; stroke-linejoin: miter"/>
    </g>
    <g id="line2d_54">
     <path d="M 156.041517 16.40024 
L 166.041517 16.40024 
L 176.041517 16.40024 
" style="fill: none; stroke: #1f77b4; stroke-width: 0.5; stroke-linecap: square"/>
    </g>
    <g id="text_15">
     <!-- $\mathdefault{|N_f| = 10^{4}}$ -->
     <g transform="translate(184.041517 19.90024) scale(0.1 -0.1)">
      <defs>
       <path id="LiberationSerif-7c" d="M 481 -1381 
L 481 4441 
L 800 4441 
L 800 -1381 
L 481 -1381 
z
" transform="scale(0.015625)"/>
       <path id="LiberationSerif-4e" d="M 3609 3944 
L 3047 4025 
L 3047 4191 
L 4475 4191 
L 4475 4025 
L 3938 3944 
L 3938 0 
L 3634 0 
L 1050 3769 
L 1050 250 
L 1613 166 
L 1613 0 
L 184 0 
L 184 166 
L 722 250 
L 722 3944 
L 184 4025 
L 184 4191 
L 1453 4191 
L 3609 1088 
L 3609 3944 
z
" transform="scale(0.015625)"/>
       <path id="LiberationSerif-3d" d="M 3297 1644 
L 3297 1325 
L 319 1325 
L 319 1644 
L 3297 1644 
z
M 3297 2925 
L 3297 2606 
L 319 2606 
L 319 2925 
L 3297 2925 
z
" transform="scale(0.015625)"/>
       <path id="LiberationSerif-31" d="M 1959 250 
L 2816 166 
L 2816 0 
L 563 0 
L 563 166 
L 1422 250 
L 1422 3669 
L 575 3366 
L 575 3531 
L 1797 4225 
L 1959 4225 
L 1959 250 
z
" transform="scale(0.015625)"/>
       <path id="LiberationSerif-30" d="M 2956 2113 
Q 2956 -63 1581 -63 
Q 919 -63 581 493 
Q 244 1050 244 2113 
Q 244 3153 581 3704 
Q 919 4256 1606 4256 
Q 2269 4256 2612 3711 
Q 2956 3166 2956 2113 
z
M 2381 2113 
Q 2381 3119 2190 3562 
Q 2000 4006 1581 4006 
Q 1175 4006 997 3587 
Q 819 3169 819 2113 
Q 819 1050 1000 617 
Q 1181 184 1581 184 
Q 1994 184 2187 639 
Q 2381 1094 2381 2113 
z
" transform="scale(0.015625)"/>
       <path id="LiberationSerif-34" d="M 2531 922 
L 2531 0 
L 1994 0 
L 1994 922 
L 125 922 
L 125 1338 
L 2172 4213 
L 2531 4213 
L 2531 1369 
L 3100 1369 
L 3100 922 
L 2531 922 
z
M 1994 3478 
L 1978 3478 
L 478 1369 
L 1994 1369 
L 1994 3478 
z
" transform="scale(0.015625)"/>
      </defs>
      <use xlink:href="#LiberationSerif-7c" transform="translate(0 0.785938)"/>
      <use xlink:href="#LiberationSerif-4e" transform="translate(20.019531 0.785938)"/>
      <use xlink:href="#LiberationSerif-66" transform="translate(93.039687 -12.985937) scale(0.7)"/>
      <use xlink:href="#LiberationSerif-7c" transform="translate(118.645547 0.785938)"/>
      <use xlink:href="#LiberationSerif-3d" transform="translate(158.1475 0.785938)"/>
      <use xlink:href="#LiberationSerif-31" transform="translate(234.026406 0.785938)"/>
      <use xlink:href="#LiberationSerif-30" transform="translate(284.026406 0.785938)"/>
      <use xlink:href="#LiberationSerif-34" transform="translate(334.829766 32.920313) scale(0.7)"/>
     </g>
    </g>
    <g id="line2d_55">
     <path d="M 156.041517 31.40024 
L 166.041517 31.40024 
L 176.041517 31.40024 
" style="fill: none; stroke: #ff7f0e; stroke-width: 0.5; stroke-linecap: square"/>
    </g>
    <g id="text_16">
     <!-- $\mathdefault{|N_f| = 10^{5}}$ -->
     <g transform="translate(184.041517 34.90024) scale(0.1 -0.1)">
      <defs>
       <path id="LiberationSerif-35" d="M 1516 2450 
Q 2241 2450 2595 2153 
Q 2950 1856 2950 1247 
Q 2950 616 2565 276 
Q 2181 -63 1466 -63 
Q 872 -63 406 72 
L 372 953 
L 578 953 
L 719 366 
Q 856 291 1048 244 
Q 1241 197 1416 197 
Q 1909 197 2142 430 
Q 2375 663 2375 1216 
Q 2375 1603 2275 1801 
Q 2175 2000 1956 2094 
Q 1738 2188 1369 2188 
Q 1084 2188 813 2113 
L 513 2113 
L 513 4191 
L 2638 4191 
L 2638 3713 
L 794 3713 
L 794 2375 
Q 1131 2450 1516 2450 
z
" transform="scale(0.015625)"/>
      </defs>
      <use xlink:href="#LiberationSerif-7c" transform="translate(0 0.026563)"/>
      <use xlink:href="#LiberationSerif-4e" transform="translate(20.019531 0.026563)"/>
      <use xlink:href="#LiberationSerif-66" transform="translate(93.039687 -13.745312) scale(0.7)"/>
      <use xlink:href="#LiberationSerif-7c" transform="translate(118.645547 0.026563)"/>
      <use xlink:href="#LiberationSerif-3d" transform="translate(158.1475 0.026563)"/>
      <use xlink:href="#LiberationSerif-31" transform="translate(234.026406 0.026563)"/>
      <use xlink:href="#LiberationSerif-30" transform="translate(284.026406 0.026563)"/>
      <use xlink:href="#LiberationSerif-35" transform="translate(334.829766 32.160938) scale(0.7)"/>
     </g>
    </g>
    <g id="line2d_56">
     <path d="M 156.041517 46.50024 
L 166.041517 46.50024 
L 176.041517 46.50024 
" style="fill: none; stroke: #2ca02c; stroke-width: 0.5; stroke-linecap: square"/>
    </g>
    <g id="text_17">
     <!-- $\mathdefault{|N_f| = 10^{6}}$ -->
     <g transform="translate(184.041517 50.00024) scale(0.1 -0.1)">
      <defs>
       <path id="LiberationSerif-36" d="M 3009 1300 
Q 3009 647 2679 292 
Q 2350 -63 1728 -63 
Q 1022 -63 648 487 
Q 275 1038 275 2069 
Q 275 2744 472 3234 
Q 669 3725 1023 3981 
Q 1378 4238 1844 4238 
Q 2300 4238 2753 4128 
L 2753 3406 
L 2547 3406 
L 2438 3834 
Q 2334 3891 2159 3933 
Q 1984 3975 1844 3975 
Q 1388 3975 1133 3533 
Q 878 3091 853 2241 
Q 1363 2509 1875 2509 
Q 2428 2509 2718 2198 
Q 3009 1888 3009 1300 
z
M 1716 184 
Q 2094 184 2262 429 
Q 2431 675 2431 1241 
Q 2431 1753 2270 1981 
Q 2109 2209 1759 2209 
Q 1331 2209 850 2053 
Q 850 1100 1065 642 
Q 1281 184 1716 184 
z
" transform="scale(0.015625)"/>
      </defs>
      <use xlink:href="#LiberationSerif-7c" transform="translate(0 0.5125)"/>
      <use xlink:href="#LiberationSerif-4e" transform="translate(20.019531 0.5125)"/>
      <use xlink:href="#LiberationSerif-66" transform="translate(93.039687 -13.259375) scale(0.7)"/>
      <use xlink:href="#LiberationSerif-7c" transform="translate(118.645547 0.5125)"/>
      <use xlink:href="#LiberationSerif-3d" transform="translate(158.1475 0.5125)"/>
      <use xlink:href="#LiberationSerif-31" transform="translate(234.026406 0.5125)"/>
      <use xlink:href="#LiberationSerif-30" transform="translate(284.026406 0.5125)"/>
      <use xlink:href="#LiberationSerif-36" transform="translate(334.829766 32.646875) scale(0.7)"/>
     </g>
    </g>
   </g>
  </g>
 </g>
 <defs>
  <clipPath id="p79a8c4a72c">
   <rect x="40.56899" y="3.00024" width="189.772527" height="146.059744"/>
  </clipPath>
 </defs>
</svg>
