<?xml version="1.0" encoding="utf-8" standalone="no"?>
<!DOCTYPE svg PUBLIC "-//W3C//DTD SVG 1.1//EN"
  "http://www.w3.org/Graphics/SVG/1.1/DTD/svg11.dtd">
<svg xmlns:xlink="http://www.w3.org/1999/xlink" width="240.944882pt" height="481.889764pt" viewBox="0 0 240.944882 481.889764" xmlns="http://www.w3.org/2000/svg" version="1.1">
 <metadata>
  <rdf:RDF xmlns:dc="http://purl.org/dc/elements/1.1/" xmlns:cc="http://creativecommons.org/ns#" xmlns:rdf="http://www.w3.org/1999/02/22-rdf-syntax-ns#">
   <cc:Work>
    <dc:type rdf:resource="http://purl.org/dc/dcmitype/StillImage"/>
    <dc:date>2023-06-19T18:16:42.153761</dc:date>
    <dc:format>image/svg+xml</dc:format>
    <dc:creator>
     <cc:Agent>
      <dc:title>Matplotlib v3.7.1, https://matplotlib.org/</dc:title>
     </cc:Agent>
    </dc:creator>
   </cc:Work>
  </rdf:RDF>
 </metadata>
 <defs>
  <style type="text/css">*{stroke-linejoin: round; stroke-linecap: butt}</style>
 </defs>
 <g id="figure_1">
  <g id="patch_1">
   <path d="M 0 481.889764 
L 240.944882 481.889764 
L 240.944882 0 
L 0 0 
z
" style="fill: #ffffff"/>
  </g>
  <g id="axes_1">
   <g id="patch_2">
    <path d="M 22.66274 222.364954 
L 231.613392 222.364954 
L 231.613392 17.162115 
L 22.66274 17.162115 
z
" style="fill: #ffffff"/>
   </g>
   <g id="PathCollection_1">
    <defs>
     <path id="m1849a6447b" d="M 0 1.581139 
C 0.419323 1.581139 0.821528 1.41454 1.118034 1.118034 
C 1.41454 0.821528 1.581139 0.419323 1.581139 0 
C 1.581139 -0.419323 1.41454 -0.821528 1.118034 -1.118034 
C 0.821528 -1.41454 0.419323 -1.581139 0 -1.581139 
C -0.419323 -1.581139 -0.821528 -1.41454 -1.118034 -1.118034 
C -1.41454 -0.821528 -1.581139 -0.419323 -1.581139 0 
C -1.581139 0.419323 -1.41454 0.821528 -1.118034 1.118034 
C -0.821528 1.41454 -0.419323 1.581139 0 1.581139 
z
" style="stroke: #1f77b4"/>
    </defs>
    <g clip-path="url(#p9905b744a6)">
     <use xlink:href="#m1849a6447b" x="105.36649" y="33.178371" style="fill: #1f77b4; stroke: #1f77b4"/>
     <use xlink:href="#m1849a6447b" x="181.214364" y="144.153799" style="fill: #1f77b4; stroke: #1f77b4"/>
     <use xlink:href="#m1849a6447b" x="28.142502" y="148.620367" style="fill: #1f77b4; stroke: #1f77b4"/>
     <use xlink:href="#m1849a6447b" x="188.433586" y="62.088703" style="fill: #1f77b4; stroke: #1f77b4"/>
     <use xlink:href="#m1849a6447b" x="119.688026" y="92.484763" style="fill: #1f77b4; stroke: #1f77b4"/>
     <use xlink:href="#m1849a6447b" x="162.439598" y="175.12045" style="fill: #1f77b4; stroke: #1f77b4"/>
     <use xlink:href="#m1849a6447b" x="189.875573" y="71.48388" style="fill: #1f77b4; stroke: #1f77b4"/>
     <use xlink:href="#m1849a6447b" x="178.901078" y="107.767781" style="fill: #1f77b4; stroke: #1f77b4"/>
     <use xlink:href="#m1849a6447b" x="152.746901" y="49.398605" style="fill: #1f77b4; stroke: #1f77b4"/>
     <use xlink:href="#m1849a6447b" x="150.235926" y="196.754155" style="fill: #1f77b4; stroke: #1f77b4"/>
     <use xlink:href="#m1849a6447b" x="195.35536" y="178.924071" style="fill: #1f77b4; stroke: #1f77b4"/>
     <use xlink:href="#m1849a6447b" x="201.822198" y="134.490651" style="fill: #1f77b4; stroke: #1f77b4"/>
     <use xlink:href="#m1849a6447b" x="105.484969" y="192.821703" style="fill: #1f77b4; stroke: #1f77b4"/>
     <use xlink:href="#m1849a6447b" x="23.362754" y="27.346598" style="fill: #1f77b4; stroke: #1f77b4"/>
     <use xlink:href="#m1849a6447b" x="68.501616" y="163.004746" style="fill: #1f77b4; stroke: #1f77b4"/>
     <use xlink:href="#m1849a6447b" x="164.42197" y="119.824458" style="fill: #1f77b4; stroke: #1f77b4"/>
     <use xlink:href="#m1849a6447b" x="213.732792" y="164.224633" style="fill: #1f77b4; stroke: #1f77b4"/>
     <use xlink:href="#m1849a6447b" x="142.580786" y="172.217094" style="fill: #1f77b4; stroke: #1f77b4"/>
     <use xlink:href="#m1849a6447b" x="74.396509" y="197.534776" style="fill: #1f77b4; stroke: #1f77b4"/>
     <use xlink:href="#m1849a6447b" x="166.184284" y="86.573708" style="fill: #1f77b4; stroke: #1f77b4"/>
     <use xlink:href="#m1849a6447b" x="130.646242" y="35.863391" style="fill: #1f77b4; stroke: #1f77b4"/>
     <use xlink:href="#m1849a6447b" x="206.511103" y="79.767378" style="fill: #1f77b4; stroke: #1f77b4"/>
     <use xlink:href="#m1849a6447b" x="118.966217" y="196.439939" style="fill: #1f77b4; stroke: #1f77b4"/>
     <use xlink:href="#m1849a6447b" x="154.972047" y="123.065402" style="fill: #1f77b4; stroke: #1f77b4"/>
     <use xlink:href="#m1849a6447b" x="185.208711" y="33.99258" style="fill: #1f77b4; stroke: #1f77b4"/>
     <use xlink:href="#m1849a6447b" x="38.706586" y="23.470825" style="fill: #1f77b4; stroke: #1f77b4"/>
     <use xlink:href="#m1849a6447b" x="84.42377" y="73.571756" style="fill: #1f77b4; stroke: #1f77b4"/>
     <use xlink:href="#m1849a6447b" x="136.283154" y="70.455629" style="fill: #1f77b4; stroke: #1f77b4"/>
     <use xlink:href="#m1849a6447b" x="89.759235" y="118.858474" style="fill: #1f77b4; stroke: #1f77b4"/>
     <use xlink:href="#m1849a6447b" x="157.699206" y="32.654394" style="fill: #1f77b4; stroke: #1f77b4"/>
     <use xlink:href="#m1849a6447b" x="138.86847" y="35.284545" style="fill: #1f77b4; stroke: #1f77b4"/>
     <use xlink:href="#m1849a6447b" x="117.505312" y="106.847004" style="fill: #1f77b4; stroke: #1f77b4"/>
     <use xlink:href="#m1849a6447b" x="196.636933" y="18.745705" style="fill: #1f77b4; stroke: #1f77b4"/>
     <use xlink:href="#m1849a6447b" x="165.152858" y="84.969778" style="fill: #1f77b4; stroke: #1f77b4"/>
     <use xlink:href="#m1849a6447b" x="92.251578" y="177.087825" style="fill: #1f77b4; stroke: #1f77b4"/>
     <use xlink:href="#m1849a6447b" x="151.78299" y="86.942866" style="fill: #1f77b4; stroke: #1f77b4"/>
     <use xlink:href="#m1849a6447b" x="122.702433" y="217.042262" style="fill: #1f77b4; stroke: #1f77b4"/>
     <use xlink:href="#m1849a6447b" x="46.563064" y="162.906017" style="fill: #1f77b4; stroke: #1f77b4"/>
     <use xlink:href="#m1849a6447b" x="106.573163" y="114.862507" style="fill: #1f77b4; stroke: #1f77b4"/>
     <use xlink:href="#m1849a6447b" x="24.787677" y="143.698364" style="fill: #1f77b4; stroke: #1f77b4"/>
     <use xlink:href="#m1849a6447b" x="197.085903" y="23.890448" style="fill: #1f77b4; stroke: #1f77b4"/>
     <use xlink:href="#m1849a6447b" x="203.91763" y="177.828341" style="fill: #1f77b4; stroke: #1f77b4"/>
     <use xlink:href="#m1849a6447b" x="227.389609" y="152.054171" style="fill: #1f77b4; stroke: #1f77b4"/>
     <use xlink:href="#m1849a6447b" x="45.256071" y="187.998428" style="fill: #1f77b4; stroke: #1f77b4"/>
     <use xlink:href="#m1849a6447b" x="128.250707" y="163.47761" style="fill: #1f77b4; stroke: #1f77b4"/>
     <use xlink:href="#m1849a6447b" x="52.08263" y="173.910824" style="fill: #1f77b4; stroke: #1f77b4"/>
     <use xlink:href="#m1849a6447b" x="105.01941" y="133.845513" style="fill: #1f77b4; stroke: #1f77b4"/>
     <use xlink:href="#m1849a6447b" x="118.313044" y="196.449443" style="fill: #1f77b4; stroke: #1f77b4"/>
     <use xlink:href="#m1849a6447b" x="154.638866" y="209.878907" style="fill: #1f77b4; stroke: #1f77b4"/>
     <use xlink:href="#m1849a6447b" x="225.930872" y="22.810361" style="fill: #1f77b4; stroke: #1f77b4"/>
     <use xlink:href="#m1849a6447b" x="195.561418" y="43.120032" style="fill: #1f77b4; stroke: #1f77b4"/>
     <use xlink:href="#m1849a6447b" x="73.180882" y="40.029198" style="fill: #1f77b4; stroke: #1f77b4"/>
     <use xlink:href="#m1849a6447b" x="102.90552" y="126.299486" style="fill: #1f77b4; stroke: #1f77b4"/>
     <use xlink:href="#m1849a6447b" x="106.047324" y="24.382907" style="fill: #1f77b4; stroke: #1f77b4"/>
     <use xlink:href="#m1849a6447b" x="134.933057" y="189.442743" style="fill: #1f77b4; stroke: #1f77b4"/>
     <use xlink:href="#m1849a6447b" x="80.536593" y="23.982805" style="fill: #1f77b4; stroke: #1f77b4"/>
     <use xlink:href="#m1849a6447b" x="179.274474" y="105.967983" style="fill: #1f77b4; stroke: #1f77b4"/>
     <use xlink:href="#m1849a6447b" x="39.374044" y="216.399007" style="fill: #1f77b4; stroke: #1f77b4"/>
     <use xlink:href="#m1849a6447b" x="83.077284" y="220.330345" style="fill: #1f77b4; stroke: #1f77b4"/>
     <use xlink:href="#m1849a6447b" x="208.663715" y="191.809609" style="fill: #1f77b4; stroke: #1f77b4"/>
     <use xlink:href="#m1849a6447b" x="80.64882" y="220.572483" style="fill: #1f77b4; stroke: #1f77b4"/>
     <use xlink:href="#m1849a6447b" x="142.73836" y="93.753391" style="fill: #1f77b4; stroke: #1f77b4"/>
     <use xlink:href="#m1849a6447b" x="121.868834" y="167.059887" style="fill: #1f77b4; stroke: #1f77b4"/>
     <use xlink:href="#m1849a6447b" x="211.13136" y="140.46499" style="fill: #1f77b4; stroke: #1f77b4"/>
     <use xlink:href="#m1849a6447b" x="207.969654" y="43.815697" style="fill: #1f77b4; stroke: #1f77b4"/>
     <use xlink:href="#m1849a6447b" x="111.602872" y="105.707168" style="fill: #1f77b4; stroke: #1f77b4"/>
     <use xlink:href="#m1849a6447b" x="50.083184" y="25.745873" style="fill: #1f77b4; stroke: #1f77b4"/>
     <use xlink:href="#m1849a6447b" x="161.86373" y="121.992618" style="fill: #1f77b4; stroke: #1f77b4"/>
     <use xlink:href="#m1849a6447b" x="118.268918" y="168.311233" style="fill: #1f77b4; stroke: #1f77b4"/>
     <use xlink:href="#m1849a6447b" x="214.000911" y="182.152125" style="fill: #1f77b4; stroke: #1f77b4"/>
     <use xlink:href="#m1849a6447b" x="177.21374" y="53.738179" style="fill: #1f77b4; stroke: #1f77b4"/>
     <use xlink:href="#m1849a6447b" x="148.297494" y="213.873052" style="fill: #1f77b4; stroke: #1f77b4"/>
     <use xlink:href="#m1849a6447b" x="183.541897" y="85.101128" style="fill: #1f77b4; stroke: #1f77b4"/>
     <use xlink:href="#m1849a6447b" x="102.241437" y="167.530024" style="fill: #1f77b4; stroke: #1f77b4"/>
     <use xlink:href="#m1849a6447b" x="107.977798" y="137.656143" style="fill: #1f77b4; stroke: #1f77b4"/>
     <use xlink:href="#m1849a6447b" x="211.775105" y="182.219359" style="fill: #1f77b4; stroke: #1f77b4"/>
     <use xlink:href="#m1849a6447b" x="202.476092" y="141.55096" style="fill: #1f77b4; stroke: #1f77b4"/>
     <use xlink:href="#m1849a6447b" x="160.652275" y="111.801664" style="fill: #1f77b4; stroke: #1f77b4"/>
     <use xlink:href="#m1849a6447b" x="93.180603" y="105.06724" style="fill: #1f77b4; stroke: #1f77b4"/>
     <use xlink:href="#m1849a6447b" x="127.052815" y="22.495889" style="fill: #1f77b4; stroke: #1f77b4"/>
     <use xlink:href="#m1849a6447b" x="33.338652" y="181.953823" style="fill: #1f77b4; stroke: #1f77b4"/>
     <use xlink:href="#m1849a6447b" x="151.633276" y="124.096504" style="fill: #1f77b4; stroke: #1f77b4"/>
     <use xlink:href="#m1849a6447b" x="172.915604" y="66.975603" style="fill: #1f77b4; stroke: #1f77b4"/>
     <use xlink:href="#m1849a6447b" x="125.418657" y="135.512139" style="fill: #1f77b4; stroke: #1f77b4"/>
     <use xlink:href="#m1849a6447b" x="45.027719" y="18.735088" style="fill: #1f77b4; stroke: #1f77b4"/>
     <use xlink:href="#m1849a6447b" x="122.69166" y="54.33887" style="fill: #1f77b4; stroke: #1f77b4"/>
     <use xlink:href="#m1849a6447b" x="99.965801" y="40.450387" style="fill: #1f77b4; stroke: #1f77b4"/>
     <use xlink:href="#m1849a6447b" x="41.091995" y="204.672336" style="fill: #1f77b4; stroke: #1f77b4"/>
     <use xlink:href="#m1849a6447b" x="71.196593" y="120.488383" style="fill: #1f77b4; stroke: #1f77b4"/>
     <use xlink:href="#m1849a6447b" x="115.280565" y="208.822426" style="fill: #1f77b4; stroke: #1f77b4"/>
     <use xlink:href="#m1849a6447b" x="194.441753" y="210.903648" style="fill: #1f77b4; stroke: #1f77b4"/>
     <use xlink:href="#m1849a6447b" x="181.448769" y="116.136859" style="fill: #1f77b4; stroke: #1f77b4"/>
     <use xlink:href="#m1849a6447b" x="207.580777" y="202.138896" style="fill: #1f77b4; stroke: #1f77b4"/>
     <use xlink:href="#m1849a6447b" x="23.293432" y="51.955247" style="fill: #1f77b4; stroke: #1f77b4"/>
     <use xlink:href="#m1849a6447b" x="67.579266" y="115.418041" style="fill: #1f77b4; stroke: #1f77b4"/>
     <use xlink:href="#m1849a6447b" x="188.662586" y="135.127387" style="fill: #1f77b4; stroke: #1f77b4"/>
     <use xlink:href="#m1849a6447b" x="178.035271" y="218.010923" style="fill: #1f77b4; stroke: #1f77b4"/>
     <use xlink:href="#m1849a6447b" x="34.984256" y="27.306688" style="fill: #1f77b4; stroke: #1f77b4"/>
     <use xlink:href="#m1849a6447b" x="35.644154" y="108.689145" style="fill: #1f77b4; stroke: #1f77b4"/>
     <use xlink:href="#m1849a6447b" x="124.257045" y="58.352682" style="fill: #1f77b4; stroke: #1f77b4"/>
    </g>
   </g>
   <g id="matplotlib.axis_1">
    <g id="xtick_1">
     <g id="line2d_1">
      <path d="M 22.66274 222.364954 
L 22.66274 17.162115 
" clip-path="url(#p9905b744a6)" style="fill: none; stroke: #b0b0b0; stroke-width: 0.8; stroke-linecap: square"/>
     </g>
     <g id="line2d_2">
      <defs>
       <path id="m55bd23ee4f" d="M 0 0 
L 0 3.5 
" style="stroke: #000000; stroke-width: 0.8"/>
      </defs>
      <g>
       <use xlink:href="#m55bd23ee4f" x="22.66274" y="222.364954" style="stroke: #000000; stroke-width: 0.8"/>
      </g>
     </g>
     <g id="text_1">
      <!-- 0.0 -->
      <g transform="translate(16.33149 236.166517) scale(0.1 -0.1)">
       <defs>
        <path id="Calibri-30" d="M 3022 2031 
Q 3022 1566 2948 1181 
Q 2875 797 2704 520 
Q 2534 244 2259 92 
Q 1984 -59 1581 -59 
Q 1200 -59 939 77 
Q 678 213 518 477 
Q 359 741 292 1127 
Q 225 1513 225 2013 
Q 225 2475 300 2861 
Q 375 3247 544 3523 
Q 713 3800 988 3951 
Q 1263 4103 1663 4103 
Q 2047 4103 2308 3967 
Q 2569 3831 2728 3567 
Q 2888 3303 2955 2917 
Q 3022 2531 3022 2031 
z
M 2472 1994 
Q 2472 2297 2450 2537 
Q 2428 2778 2386 2962 
Q 2344 3147 2276 3280 
Q 2209 3413 2115 3498 
Q 2022 3584 1901 3623 
Q 1781 3663 1631 3663 
Q 1366 3663 1200 3538 
Q 1034 3413 939 3194 
Q 844 2975 809 2681 
Q 775 2388 775 2050 
Q 775 1597 822 1280 
Q 869 963 970 763 
Q 1072 563 1230 472 
Q 1388 381 1613 381 
Q 1788 381 1920 437 
Q 2053 494 2148 598 
Q 2244 703 2306 850 
Q 2369 997 2406 1175 
Q 2444 1353 2458 1561 
Q 2472 1769 2472 1994 
z
" transform="scale(0.015625)"/>
        <path id="Calibri-2e" d="M 1144 341 
Q 1144 119 1070 45 
Q 997 -28 803 -28 
Q 616 -28 544 44 
Q 472 116 472 331 
Q 472 553 545 626 
Q 619 700 813 700 
Q 1000 700 1072 628 
Q 1144 556 1144 341 
z
" transform="scale(0.015625)"/>
       </defs>
       <use xlink:href="#Calibri-30"/>
       <use xlink:href="#Calibri-2e" x="50.683594"/>
       <use xlink:href="#Calibri-30" x="75.927734"/>
      </g>
     </g>
    </g>
    <g id="xtick_2">
     <g id="line2d_3">
      <path d="M 64.45287 222.364954 
L 64.45287 17.162115 
" clip-path="url(#p9905b744a6)" style="fill: none; stroke: #b0b0b0; stroke-width: 0.8; stroke-linecap: square"/>
     </g>
     <g id="line2d_4">
      <g>
       <use xlink:href="#m55bd23ee4f" x="64.45287" y="222.364954" style="stroke: #000000; stroke-width: 0.8"/>
      </g>
     </g>
     <g id="text_2">
      <!-- 0.2 -->
      <g transform="translate(58.12162 236.166517) scale(0.1 -0.1)">
       <defs>
        <path id="Calibri-32" d="M 2888 231 
Q 2888 175 2880 131 
Q 2872 88 2858 58 
Q 2844 28 2820 14 
Q 2797 0 2769 0 
L 534 0 
Q 491 0 458 11 
Q 425 22 401 47 
Q 378 72 367 119 
Q 356 166 356 234 
Q 356 297 361 344 
Q 366 391 381 427 
Q 397 463 420 498 
Q 444 534 481 575 
L 1266 1406 
Q 1538 1694 1702 1922 
Q 1866 2150 1955 2337 
Q 2044 2525 2072 2678 
Q 2100 2831 2100 2966 
Q 2100 3100 2056 3220 
Q 2013 3341 1930 3431 
Q 1847 3522 1722 3575 
Q 1597 3628 1434 3628 
Q 1244 3628 1092 3575 
Q 941 3522 827 3459 
Q 713 3397 636 3344 
Q 559 3291 522 3291 
Q 500 3291 483 3303 
Q 466 3316 455 3344 
Q 444 3372 437 3419 
Q 431 3466 431 3531 
Q 431 3578 434 3612 
Q 438 3647 445 3672 
Q 453 3697 465 3719 
Q 478 3741 515 3773 
Q 553 3806 645 3862 
Q 738 3919 877 3973 
Q 1016 4028 1183 4065 
Q 1350 4103 1534 4103 
Q 1828 4103 2048 4020 
Q 2269 3938 2414 3794 
Q 2559 3650 2631 3459 
Q 2703 3269 2703 3053 
Q 2703 2859 2668 2667 
Q 2634 2475 2523 2251 
Q 2413 2028 2203 1754 
Q 1994 1481 1647 1125 
L 1006 456 
L 2766 456 
Q 2791 456 2814 442 
Q 2838 428 2855 400 
Q 2872 372 2880 330 
Q 2888 288 2888 231 
z
" transform="scale(0.015625)"/>
       </defs>
       <use xlink:href="#Calibri-30"/>
       <use xlink:href="#Calibri-2e" x="50.683594"/>
       <use xlink:href="#Calibri-32" x="75.927734"/>
      </g>
     </g>
    </g>
    <g id="xtick_3">
     <g id="line2d_5">
      <path d="M 106.243001 222.364954 
L 106.243001 17.162115 
" clip-path="url(#p9905b744a6)" style="fill: none; stroke: #b0b0b0; stroke-width: 0.8; stroke-linecap: square"/>
     </g>
     <g id="line2d_6">
      <g>
       <use xlink:href="#m55bd23ee4f" x="106.243001" y="222.364954" style="stroke: #000000; stroke-width: 0.8"/>
      </g>
     </g>
     <g id="text_3">
      <!-- 0.4 -->
      <g transform="translate(99.911751 236.166517) scale(0.1 -0.1)">
       <defs>
        <path id="Calibri-34" d="M 3059 1150 
Q 3059 1047 3028 987 
Q 2997 928 2941 928 
L 2484 928 
L 2484 78 
Q 2484 53 2471 36 
Q 2459 19 2428 6 
Q 2397 -6 2347 -12 
Q 2297 -19 2219 -19 
Q 2144 -19 2094 -12 
Q 2044 -6 2014 6 
Q 1984 19 1973 36 
Q 1963 53 1963 78 
L 1963 928 
L 294 928 
Q 256 928 231 937 
Q 206 947 186 972 
Q 166 997 158 1044 
Q 150 1091 150 1166 
Q 150 1225 153 1272 
Q 156 1319 165 1358 
Q 175 1397 190 1433 
Q 206 1469 228 1509 
L 1684 3966 
Q 1700 3991 1729 4009 
Q 1759 4028 1806 4040 
Q 1853 4053 1922 4058 
Q 1991 4063 2084 4063 
Q 2188 4063 2264 4055 
Q 2341 4047 2387 4034 
Q 2434 4022 2459 4001 
Q 2484 3981 2484 3953 
L 2484 1372 
L 2941 1372 
Q 2994 1372 3026 1317 
Q 3059 1263 3059 1150 
z
M 1963 3591 
L 1956 3591 
L 641 1372 
L 1963 1372 
L 1963 3591 
z
" transform="scale(0.015625)"/>
       </defs>
       <use xlink:href="#Calibri-30"/>
       <use xlink:href="#Calibri-2e" x="50.683594"/>
       <use xlink:href="#Calibri-34" x="75.927734"/>
      </g>
     </g>
    </g>
    <g id="xtick_4">
     <g id="line2d_7">
      <path d="M 148.033131 222.364954 
L 148.033131 17.162115 
" clip-path="url(#p9905b744a6)" style="fill: none; stroke: #b0b0b0; stroke-width: 0.8; stroke-linecap: square"/>
     </g>
     <g id="line2d_8">
      <g>
       <use xlink:href="#m55bd23ee4f" x="148.033131" y="222.364954" style="stroke: #000000; stroke-width: 0.8"/>
      </g>
     </g>
     <g id="text_4">
      <!-- 0.6 -->
      <g transform="translate(141.701881 236.166517) scale(0.1 -0.1)">
       <defs>
        <path id="Calibri-36" d="M 2991 1309 
Q 2991 1044 2909 795 
Q 2828 547 2659 358 
Q 2491 169 2231 55 
Q 1972 -59 1619 -59 
Q 1366 -59 1172 3 
Q 978 66 834 181 
Q 691 297 595 465 
Q 500 634 442 850 
Q 384 1066 359 1322 
Q 334 1578 334 1872 
Q 334 2131 362 2397 
Q 391 2663 462 2909 
Q 534 3156 657 3373 
Q 781 3591 967 3752 
Q 1153 3913 1412 4006 
Q 1672 4100 2016 4100 
Q 2131 4100 2250 4086 
Q 2369 4072 2469 4048 
Q 2569 4025 2637 3997 
Q 2706 3969 2728 3951 
Q 2750 3934 2761 3914 
Q 2772 3894 2778 3870 
Q 2784 3847 2787 3817 
Q 2791 3788 2791 3744 
Q 2791 3688 2789 3647 
Q 2788 3606 2777 3581 
Q 2766 3556 2748 3543 
Q 2731 3531 2703 3531 
Q 2669 3531 2609 3553 
Q 2550 3575 2465 3601 
Q 2381 3628 2261 3650 
Q 2141 3672 1981 3672 
Q 1691 3672 1481 3553 
Q 1272 3434 1139 3234 
Q 1006 3034 942 2770 
Q 878 2506 869 2219 
Q 950 2266 1051 2312 
Q 1153 2359 1273 2396 
Q 1394 2434 1528 2457 
Q 1663 2481 1816 2481 
Q 2144 2481 2369 2392 
Q 2594 2303 2733 2145 
Q 2872 1988 2931 1773 
Q 2991 1559 2991 1309 
z
M 2447 1259 
Q 2447 1441 2411 1589 
Q 2375 1738 2290 1841 
Q 2206 1944 2065 2000 
Q 1925 2056 1719 2056 
Q 1603 2056 1487 2036 
Q 1372 2016 1264 1980 
Q 1156 1944 1057 1895 
Q 959 1847 878 1791 
Q 878 1388 929 1116 
Q 981 844 1079 680 
Q 1178 516 1325 445 
Q 1472 375 1669 375 
Q 1869 375 2016 450 
Q 2163 525 2259 651 
Q 2356 778 2401 936 
Q 2447 1094 2447 1259 
z
" transform="scale(0.015625)"/>
       </defs>
       <use xlink:href="#Calibri-30"/>
       <use xlink:href="#Calibri-2e" x="50.683594"/>
       <use xlink:href="#Calibri-36" x="75.927734"/>
      </g>
     </g>
    </g>
    <g id="xtick_5">
     <g id="line2d_9">
      <path d="M 189.823262 222.364954 
L 189.823262 17.162115 
" clip-path="url(#p9905b744a6)" style="fill: none; stroke: #b0b0b0; stroke-width: 0.8; stroke-linecap: square"/>
     </g>
     <g id="line2d_10">
      <g>
       <use xlink:href="#m55bd23ee4f" x="189.823262" y="222.364954" style="stroke: #000000; stroke-width: 0.8"/>
      </g>
     </g>
     <g id="text_5">
      <!-- 0.8 -->
      <g transform="translate(183.492012 236.166517) scale(0.1 -0.1)">
       <defs>
        <path id="Calibri-38" d="M 2981 1038 
Q 2981 775 2887 570 
Q 2794 366 2617 225 
Q 2441 84 2181 12 
Q 1922 -59 1588 -59 
Q 1275 -59 1028 6 
Q 781 72 609 200 
Q 438 328 347 515 
Q 256 703 256 944 
Q 256 1134 318 1293 
Q 381 1453 498 1587 
Q 616 1722 787 1839 
Q 959 1956 1175 2063 
Q 988 2159 844 2267 
Q 700 2375 600 2501 
Q 500 2628 448 2772 
Q 397 2916 397 3084 
Q 397 3297 473 3483 
Q 550 3669 704 3806 
Q 859 3944 1098 4023 
Q 1338 4103 1656 4103 
Q 1963 4103 2186 4029 
Q 2409 3956 2554 3829 
Q 2700 3703 2769 3531 
Q 2838 3359 2838 3163 
Q 2838 3003 2786 2856 
Q 2734 2709 2634 2578 
Q 2534 2447 2389 2333 
Q 2244 2219 2056 2119 
Q 2278 2009 2451 1893 
Q 2625 1778 2742 1645 
Q 2859 1513 2920 1364 
Q 2981 1216 2981 1038 
z
M 2306 3113 
Q 2306 3244 2261 3350 
Q 2216 3456 2128 3531 
Q 2041 3606 1911 3645 
Q 1781 3684 1616 3684 
Q 1278 3684 1104 3531 
Q 931 3378 931 3113 
Q 931 2991 973 2886 
Q 1016 2781 1105 2687 
Q 1194 2594 1330 2505 
Q 1466 2416 1653 2319 
Q 1969 2481 2137 2678 
Q 2306 2875 2306 3113 
z
M 2438 981 
Q 2438 1125 2384 1242 
Q 2331 1359 2223 1461 
Q 2116 1563 1955 1658 
Q 1794 1753 1581 1856 
Q 1384 1759 1236 1662 
Q 1088 1566 992 1462 
Q 897 1359 848 1245 
Q 800 1131 800 994 
Q 800 691 1008 525 
Q 1216 359 1628 359 
Q 2028 359 2233 526 
Q 2438 694 2438 981 
z
" transform="scale(0.015625)"/>
       </defs>
       <use xlink:href="#Calibri-30"/>
       <use xlink:href="#Calibri-2e" x="50.683594"/>
       <use xlink:href="#Calibri-38" x="75.927734"/>
      </g>
     </g>
    </g>
    <g id="xtick_6">
     <g id="line2d_11">
      <path d="M 231.613392 222.364954 
L 231.613392 17.162115 
" clip-path="url(#p9905b744a6)" style="fill: none; stroke: #b0b0b0; stroke-width: 0.8; stroke-linecap: square"/>
     </g>
     <g id="line2d_12">
      <g>
       <use xlink:href="#m55bd23ee4f" x="231.613392" y="222.364954" style="stroke: #000000; stroke-width: 0.8"/>
      </g>
     </g>
     <g id="text_6">
      <!-- 1.0 -->
      <g transform="translate(225.282142 236.166517) scale(0.1 -0.1)">
       <defs>
        <path id="Calibri-31" d="M 2897 213 
Q 2897 153 2887 112 
Q 2878 72 2862 47 
Q 2847 22 2826 11 
Q 2806 0 2784 0 
L 672 0 
Q 650 0 631 11 
Q 613 22 595 47 
Q 578 72 568 112 
Q 559 153 559 213 
Q 559 269 568 309 
Q 578 350 592 376 
Q 606 403 626 417 
Q 647 431 672 431 
L 1516 431 
L 1516 3506 
L 734 3041 
Q 675 3009 639 3003 
Q 603 2997 581 3017 
Q 559 3038 551 3084 
Q 544 3131 544 3203 
Q 544 3256 548 3293 
Q 553 3331 562 3356 
Q 572 3381 589 3400 
Q 606 3419 634 3438 
L 1566 4034 
Q 1578 4044 1597 4050 
Q 1616 4056 1644 4062 
Q 1672 4069 1709 4070 
Q 1747 4072 1803 4072 
Q 1878 4072 1928 4065 
Q 1978 4059 2006 4048 
Q 2034 4038 2043 4020 
Q 2053 4003 2053 3984 
L 2053 431 
L 2784 431 
Q 2809 431 2831 417 
Q 2853 403 2867 376 
Q 2881 350 2889 309 
Q 2897 269 2897 213 
z
" transform="scale(0.015625)"/>
       </defs>
       <use xlink:href="#Calibri-31"/>
       <use xlink:href="#Calibri-2e" x="50.683594"/>
       <use xlink:href="#Calibri-30" x="75.927734"/>
      </g>
     </g>
    </g>
   </g>
   <g id="matplotlib.axis_2">
    <g id="ytick_1">
     <g id="line2d_13">
      <path d="M 22.66274 222.364954 
L 231.613392 222.364954 
" clip-path="url(#p9905b744a6)" style="fill: none; stroke: #b0b0b0; stroke-width: 0.8; stroke-linecap: square"/>
     </g>
     <g id="line2d_14">
      <defs>
       <path id="mb6caca0233" d="M 0 0 
L -3.5 0 
" style="stroke: #000000; stroke-width: 0.8"/>
      </defs>
      <g>
       <use xlink:href="#mb6caca0233" x="22.66274" y="222.364954" style="stroke: #000000; stroke-width: 0.8"/>
      </g>
     </g>
     <g id="text_7">
      <!-- 0.0 -->
      <g transform="translate(3.00024 225.765736) scale(0.1 -0.1)">
       <use xlink:href="#Calibri-30"/>
       <use xlink:href="#Calibri-2e" x="50.683594"/>
       <use xlink:href="#Calibri-30" x="75.927734"/>
      </g>
     </g>
    </g>
    <g id="ytick_2">
     <g id="line2d_15">
      <path d="M 22.66274 181.324387 
L 231.613392 181.324387 
" clip-path="url(#p9905b744a6)" style="fill: none; stroke: #b0b0b0; stroke-width: 0.8; stroke-linecap: square"/>
     </g>
     <g id="line2d_16">
      <g>
       <use xlink:href="#mb6caca0233" x="22.66274" y="181.324387" style="stroke: #000000; stroke-width: 0.8"/>
      </g>
     </g>
     <g id="text_8">
      <!-- 0.2 -->
      <g transform="translate(3.00024 184.725168) scale(0.1 -0.1)">
       <use xlink:href="#Calibri-30"/>
       <use xlink:href="#Calibri-2e" x="50.683594"/>
       <use xlink:href="#Calibri-32" x="75.927734"/>
      </g>
     </g>
    </g>
    <g id="ytick_3">
     <g id="line2d_17">
      <path d="M 22.66274 140.283819 
L 231.613392 140.283819 
" clip-path="url(#p9905b744a6)" style="fill: none; stroke: #b0b0b0; stroke-width: 0.8; stroke-linecap: square"/>
     </g>
     <g id="line2d_18">
      <g>
       <use xlink:href="#mb6caca0233" x="22.66274" y="140.283819" style="stroke: #000000; stroke-width: 0.8"/>
      </g>
     </g>
     <g id="text_9">
      <!-- 0.4 -->
      <g transform="translate(3.00024 143.6846) scale(0.1 -0.1)">
       <use xlink:href="#Calibri-30"/>
       <use xlink:href="#Calibri-2e" x="50.683594"/>
       <use xlink:href="#Calibri-34" x="75.927734"/>
      </g>
     </g>
    </g>
    <g id="ytick_4">
     <g id="line2d_19">
      <path d="M 22.66274 99.243251 
L 231.613392 99.243251 
" clip-path="url(#p9905b744a6)" style="fill: none; stroke: #b0b0b0; stroke-width: 0.8; stroke-linecap: square"/>
     </g>
     <g id="line2d_20">
      <g>
       <use xlink:href="#mb6caca0233" x="22.66274" y="99.243251" style="stroke: #000000; stroke-width: 0.8"/>
      </g>
     </g>
     <g id="text_10">
      <!-- 0.6 -->
      <g transform="translate(3.00024 102.644032) scale(0.1 -0.1)">
       <use xlink:href="#Calibri-30"/>
       <use xlink:href="#Calibri-2e" x="50.683594"/>
       <use xlink:href="#Calibri-36" x="75.927734"/>
      </g>
     </g>
    </g>
    <g id="ytick_5">
     <g id="line2d_21">
      <path d="M 22.66274 58.202683 
L 231.613392 58.202683 
" clip-path="url(#p9905b744a6)" style="fill: none; stroke: #b0b0b0; stroke-width: 0.8; stroke-linecap: square"/>
     </g>
     <g id="line2d_22">
      <g>
       <use xlink:href="#mb6caca0233" x="22.66274" y="58.202683" style="stroke: #000000; stroke-width: 0.8"/>
      </g>
     </g>
     <g id="text_11">
      <!-- 0.8 -->
      <g transform="translate(3.00024 61.603464) scale(0.1 -0.1)">
       <use xlink:href="#Calibri-30"/>
       <use xlink:href="#Calibri-2e" x="50.683594"/>
       <use xlink:href="#Calibri-38" x="75.927734"/>
      </g>
     </g>
    </g>
    <g id="ytick_6">
     <g id="line2d_23">
      <path d="M 22.66274 17.162115 
L 231.613392 17.162115 
" clip-path="url(#p9905b744a6)" style="fill: none; stroke: #b0b0b0; stroke-width: 0.8; stroke-linecap: square"/>
     </g>
     <g id="line2d_24">
      <g>
       <use xlink:href="#mb6caca0233" x="22.66274" y="17.162115" style="stroke: #000000; stroke-width: 0.8"/>
      </g>
     </g>
     <g id="text_12">
      <!-- 1.0 -->
      <g transform="translate(3.00024 20.562896) scale(0.1 -0.1)">
       <use xlink:href="#Calibri-31"/>
       <use xlink:href="#Calibri-2e" x="50.683594"/>
       <use xlink:href="#Calibri-30" x="75.927734"/>
      </g>
     </g>
    </g>
   </g>
   <g id="patch_3">
    <path d="M 22.66274 222.364954 
L 22.66274 17.162115 
" style="fill: none; stroke: #000000; stroke-width: 0.8; stroke-linejoin: miter; stroke-linecap: square"/>
   </g>
   <g id="patch_4">
    <path d="M 231.613392 222.364954 
L 231.613392 17.162115 
" style="fill: none; stroke: #000000; stroke-width: 0.8; stroke-linejoin: miter; stroke-linecap: square"/>
   </g>
   <g id="patch_5">
    <path d="M 22.66274 222.364954 
L 231.613392 222.364954 
" style="fill: none; stroke: #000000; stroke-width: 0.8; stroke-linejoin: miter; stroke-linecap: square"/>
   </g>
   <g id="patch_6">
    <path d="M 22.66274 17.162115 
L 231.613392 17.162115 
" style="fill: none; stroke: #000000; stroke-width: 0.8; stroke-linejoin: miter; stroke-linecap: square"/>
   </g>
   <g id="text_13">
    <!-- Случайный генератор -->
    <g transform="translate(71.506816 11.162115) scale(0.12 -0.12)">
     <defs>
      <path id="Calibri-421" d="M 3238 572 
Q 3238 522 3234 484 
Q 3231 447 3223 419 
Q 3216 391 3203 369 
Q 3191 347 3159 315 
Q 3128 284 3028 220 
Q 2928 156 2779 95 
Q 2631 34 2439 -8 
Q 2247 -50 2019 -50 
Q 1625 -50 1308 81 
Q 991 213 767 469 
Q 544 725 423 1101 
Q 303 1478 303 1969 
Q 303 2472 433 2865 
Q 563 3259 797 3532 
Q 1031 3806 1357 3950 
Q 1684 4094 2081 4094 
Q 2256 4094 2422 4061 
Q 2588 4028 2728 3978 
Q 2869 3928 2978 3862 
Q 3088 3797 3130 3755 
Q 3172 3713 3184 3691 
Q 3197 3669 3205 3639 
Q 3213 3609 3217 3568 
Q 3222 3528 3222 3472 
Q 3222 3409 3215 3365 
Q 3209 3322 3196 3292 
Q 3184 3263 3167 3248 
Q 3150 3234 3125 3234 
Q 3081 3234 3003 3295 
Q 2925 3356 2801 3429 
Q 2678 3503 2501 3564 
Q 2325 3625 2078 3625 
Q 1809 3625 1589 3517 
Q 1369 3409 1212 3200 
Q 1056 2991 970 2689 
Q 884 2388 884 2000 
Q 884 1616 967 1320 
Q 1050 1025 1204 826 
Q 1359 628 1584 526 
Q 1809 425 2094 425 
Q 2334 425 2514 484 
Q 2694 544 2820 617 
Q 2947 691 3028 750 
Q 3109 809 3156 809 
Q 3178 809 3193 800 
Q 3209 791 3218 764 
Q 3228 738 3233 691 
Q 3238 644 3238 572 
z
" transform="scale(0.015625)"/>
      <path id="Calibri-43b" d="M 2788 78 
Q 2788 53 2775 36 
Q 2763 19 2734 6 
Q 2706 -6 2656 -12 
Q 2606 -19 2531 -19 
Q 2453 -19 2403 -12 
Q 2353 -6 2323 6 
Q 2294 19 2281 36 
Q 2269 53 2269 78 
L 2269 2534 
L 1494 2534 
Q 1444 2038 1373 1650 
Q 1303 1263 1215 975 
Q 1128 688 1018 491 
Q 909 294 779 173 
Q 650 53 498 0 
Q 347 -53 175 -53 
Q 147 -53 126 -43 
Q 106 -34 93 -9 
Q 81 16 75 61 
Q 69 106 69 178 
Q 69 253 73 300 
Q 78 347 89 375 
Q 100 403 117 412 
Q 134 422 159 422 
Q 263 422 356 470 
Q 450 519 531 630 
Q 613 741 684 920 
Q 756 1100 815 1362 
Q 875 1625 928 1976 
Q 981 2328 1028 2784 
Q 1034 2878 1073 2923 
Q 1113 2969 1184 2969 
L 2628 2969 
Q 2703 2969 2745 2923 
Q 2788 2878 2788 2784 
L 2788 78 
z
" transform="scale(0.015625)"/>
      <path id="Calibri-443" d="M 1759 0 
L 1384 -1034 
Q 1366 -1084 1289 -1111 
Q 1213 -1138 1056 -1138 
Q 975 -1138 925 -1130 
Q 875 -1122 848 -1103 
Q 822 -1084 819 -1053 
Q 816 -1022 834 -978 
L 1222 0 
Q 1194 13 1169 41 
Q 1144 69 1134 100 
L 131 2788 
Q 106 2853 106 2890 
Q 106 2928 131 2950 
Q 156 2972 212 2980 
Q 269 2988 363 2988 
Q 456 2988 509 2983 
Q 563 2978 594 2965 
Q 625 2953 639 2929 
Q 653 2906 669 2866 
L 1472 609 
L 1481 609 
L 2256 2878 
Q 2275 2938 2301 2955 
Q 2328 2972 2381 2980 
Q 2434 2988 2534 2988 
Q 2622 2988 2678 2980 
Q 2734 2972 2761 2950 
Q 2788 2928 2788 2890 
Q 2788 2853 2769 2797 
L 1759 0 
z
" transform="scale(0.015625)"/>
      <path id="Calibri-447" d="M 2522 78 
Q 2522 53 2509 36 
Q 2497 19 2469 6 
Q 2441 -6 2391 -12 
Q 2341 -19 2266 -19 
Q 2191 -19 2139 -12 
Q 2088 -6 2058 6 
Q 2028 19 2017 36 
Q 2006 53 2006 78 
L 2006 1209 
Q 1831 1131 1636 1086 
Q 1441 1041 1213 1041 
Q 922 1041 728 1116 
Q 534 1191 418 1322 
Q 303 1453 254 1634 
Q 206 1816 206 2091 
L 206 2891 
Q 206 2916 217 2933 
Q 228 2950 259 2964 
Q 291 2978 339 2983 
Q 388 2988 463 2988 
Q 541 2988 591 2983 
Q 641 2978 669 2964 
Q 697 2950 711 2933 
Q 725 2916 725 2891 
L 725 2172 
Q 725 1919 762 1794 
Q 800 1669 872 1595 
Q 944 1522 1048 1492 
Q 1153 1463 1294 1463 
Q 1478 1463 1654 1509 
Q 1831 1556 2006 1644 
L 2006 2891 
Q 2006 2916 2017 2933 
Q 2028 2950 2058 2964 
Q 2088 2978 2139 2983 
Q 2191 2988 2266 2988 
Q 2341 2988 2391 2983 
Q 2441 2978 2469 2964 
Q 2497 2950 2509 2933 
Q 2522 2916 2522 2891 
L 2522 78 
z
" transform="scale(0.015625)"/>
      <path id="Calibri-430" d="M 2597 75 
Q 2597 38 2572 19 
Q 2547 0 2503 -9 
Q 2459 -19 2375 -19 
Q 2294 -19 2245 -9 
Q 2197 0 2175 19 
Q 2153 38 2153 75 
L 2153 356 
Q 1969 159 1742 50 
Q 1516 -59 1263 -59 
Q 1041 -59 861 -1 
Q 681 56 554 165 
Q 428 275 358 434 
Q 288 594 288 797 
Q 288 1034 384 1209 
Q 481 1384 662 1500 
Q 844 1616 1106 1673 
Q 1369 1731 1697 1731 
L 2084 1731 
L 2084 1950 
Q 2084 2113 2050 2238 
Q 2016 2363 1939 2445 
Q 1863 2528 1741 2570 
Q 1619 2613 1441 2613 
Q 1250 2613 1098 2567 
Q 947 2522 833 2467 
Q 719 2413 642 2367 
Q 566 2322 528 2322 
Q 503 2322 484 2334 
Q 466 2347 452 2372 
Q 438 2397 431 2436 
Q 425 2475 425 2522 
Q 425 2600 436 2645 
Q 447 2691 489 2731 
Q 531 2772 634 2826 
Q 738 2881 872 2926 
Q 1006 2972 1165 3001 
Q 1325 3031 1488 3031 
Q 1791 3031 2003 2962 
Q 2216 2894 2347 2761 
Q 2478 2628 2537 2431 
Q 2597 2234 2597 1972 
L 2597 75 
z
M 2084 1359 
L 1644 1359 
Q 1431 1359 1275 1323 
Q 1119 1288 1016 1217 
Q 913 1147 864 1048 
Q 816 950 816 822 
Q 816 603 955 473 
Q 1094 344 1344 344 
Q 1547 344 1720 447 
Q 1894 550 2084 763 
L 2084 1359 
z
" transform="scale(0.015625)"/>
      <path id="Calibri-439" d="M 2981 75 
Q 2981 53 2968 34 
Q 2956 16 2928 5 
Q 2900 -6 2850 -12 
Q 2800 -19 2725 -19 
Q 2650 -19 2600 -12 
Q 2550 -6 2519 5 
Q 2488 16 2475 34 
Q 2463 53 2463 75 
L 2463 1694 
Q 2463 1816 2469 1942 
Q 2475 2069 2484 2191 
Q 2413 2066 2327 1945 
Q 2241 1825 2153 1706 
L 959 75 
Q 938 50 920 31 
Q 903 13 876 2 
Q 850 -9 809 -14 
Q 769 -19 709 -19 
Q 641 -19 597 -12 
Q 553 -6 526 5 
Q 500 16 489 34 
Q 478 53 478 75 
L 478 2894 
Q 478 2916 489 2934 
Q 500 2953 529 2965 
Q 559 2978 609 2983 
Q 659 2988 731 2988 
Q 881 2988 937 2964 
Q 994 2941 994 2894 
L 994 1266 
Q 994 1144 987 1023 
Q 981 903 972 784 
Q 1044 903 1117 1017 
Q 1191 1131 1275 1241 
L 2484 2894 
Q 2503 2919 2523 2937 
Q 2544 2956 2573 2967 
Q 2603 2978 2643 2983 
Q 2684 2988 2750 2988 
Q 2816 2988 2861 2983 
Q 2906 2978 2932 2965 
Q 2959 2953 2970 2934 
Q 2981 2916 2981 2891 
L 2981 75 
z
M 2707 4219 
Q 2707 4041 2654 3884 
Q 2601 3728 2485 3611 
Q 2370 3494 2188 3426 
Q 2007 3359 1748 3359 
Q 1510 3359 1330 3418 
Q 1151 3478 1030 3589 
Q 910 3700 849 3859 
Q 789 4019 789 4219 
Q 789 4250 799 4272 
Q 810 4294 840 4306 
Q 870 4319 918 4325 
Q 967 4331 1035 4331 
Q 1110 4331 1154 4323 
Q 1198 4316 1221 4300 
Q 1245 4284 1252 4259 
Q 1260 4234 1260 4200 
Q 1260 4100 1291 4015 
Q 1323 3931 1387 3868 
Q 1451 3806 1541 3772 
Q 1632 3738 1751 3738 
Q 1867 3738 1956 3772 
Q 2045 3806 2107 3868 
Q 2170 3931 2201 4018 
Q 2232 4106 2232 4206 
Q 2232 4238 2240 4261 
Q 2248 4284 2271 4300 
Q 2295 4316 2337 4323 
Q 2379 4331 2451 4331 
Q 2526 4331 2574 4325 
Q 2623 4319 2652 4306 
Q 2682 4294 2694 4272 
Q 2707 4250 2707 4219 
z
M 376 2972 
L 376 2972 
z
" transform="scale(0.015625)"/>
      <path id="Calibri-43d" d="M 2944 78 
Q 2944 53 2931 36 
Q 2919 19 2891 6 
Q 2863 -6 2813 -12 
Q 2763 -19 2688 -19 
Q 2609 -19 2559 -12 
Q 2509 -6 2481 6 
Q 2453 19 2440 36 
Q 2428 53 2428 78 
L 2428 1313 
L 994 1313 
L 994 78 
Q 994 53 981 36 
Q 969 19 941 6 
Q 913 -6 863 -12 
Q 813 -19 734 -19 
Q 659 -19 609 -12 
Q 559 -6 529 6 
Q 500 19 489 36 
Q 478 53 478 78 
L 478 2891 
Q 478 2916 489 2933 
Q 500 2950 529 2964 
Q 559 2978 609 2983 
Q 659 2988 734 2988 
Q 813 2988 863 2983 
Q 913 2978 941 2964 
Q 969 2950 981 2933 
Q 994 2916 994 2891 
L 994 1747 
L 2428 1747 
L 2428 2891 
Q 2428 2916 2440 2933 
Q 2453 2950 2481 2964 
Q 2509 2978 2559 2983 
Q 2609 2988 2688 2988 
Q 2763 2988 2813 2983 
Q 2863 2978 2891 2964 
Q 2919 2950 2931 2933 
Q 2944 2916 2944 2891 
L 2944 78 
z
" transform="scale(0.015625)"/>
      <path id="Calibri-44b" d="M 3784 78 
Q 3784 53 3771 36 
Q 3759 19 3731 6 
Q 3703 -6 3653 -12 
Q 3603 -19 3525 -19 
Q 3450 -19 3400 -12 
Q 3350 -6 3320 6 
Q 3291 19 3280 36 
Q 3269 53 3269 78 
L 3269 2891 
Q 3269 2916 3280 2933 
Q 3291 2950 3320 2964 
Q 3350 2978 3400 2983 
Q 3450 2988 3525 2988 
Q 3603 2988 3653 2983 
Q 3703 2978 3731 2964 
Q 3759 2950 3771 2933 
Q 3784 2916 3784 2891 
L 3784 78 
z
M 994 1900 
Q 1109 1909 1226 1914 
Q 1344 1919 1481 1919 
Q 1816 1919 2053 1851 
Q 2291 1784 2445 1659 
Q 2600 1534 2672 1361 
Q 2744 1188 2744 972 
Q 2744 756 2667 568 
Q 2591 381 2427 243 
Q 2263 106 2006 26 
Q 1750 -53 1391 -53 
Q 1306 -53 1222 -51 
Q 1138 -50 1056 -45 
Q 975 -41 895 -34 
Q 816 -28 734 -19 
Q 603 -3 540 65 
Q 478 134 478 275 
L 478 2891 
Q 478 2916 489 2933 
Q 500 2950 529 2964 
Q 559 2978 607 2983 
Q 656 2988 728 2988 
Q 878 2988 936 2964 
Q 994 2941 994 2891 
L 994 1900 
z
M 2206 938 
Q 2206 1066 2167 1170 
Q 2128 1275 2039 1348 
Q 1950 1422 1803 1461 
Q 1656 1500 1444 1500 
Q 1316 1500 1206 1494 
Q 1097 1488 994 1478 
L 994 397 
Q 1103 384 1209 375 
Q 1316 366 1469 366 
Q 1850 366 2028 517 
Q 2206 669 2206 938 
z
" transform="scale(0.015625)"/>
      <path id="Calibri-20" transform="scale(0.015625)"/>
      <path id="Calibri-433" d="M 2156 2741 
Q 2156 2678 2148 2634 
Q 2141 2591 2127 2562 
Q 2113 2534 2095 2521 
Q 2078 2509 2053 2509 
L 994 2509 
L 994 78 
Q 994 53 981 36 
Q 969 19 941 6 
Q 913 -6 863 -12 
Q 813 -19 734 -19 
Q 659 -19 609 -12 
Q 559 -6 529 6 
Q 500 19 489 36 
Q 478 53 478 78 
L 478 2788 
Q 478 2881 520 2926 
Q 563 2972 638 2972 
L 2053 2972 
Q 2078 2972 2095 2958 
Q 2113 2944 2127 2914 
Q 2141 2884 2148 2842 
Q 2156 2800 2156 2741 
z
" transform="scale(0.015625)"/>
      <path id="Calibri-435" d="M 2878 1606 
Q 2878 1484 2817 1432 
Q 2756 1381 2678 1381 
L 834 1381 
Q 834 1147 881 959 
Q 928 772 1037 637 
Q 1147 503 1322 431 
Q 1497 359 1750 359 
Q 1950 359 2106 392 
Q 2263 425 2377 465 
Q 2491 506 2564 539 
Q 2638 572 2675 572 
Q 2697 572 2714 561 
Q 2731 550 2740 528 
Q 2750 506 2754 467 
Q 2759 428 2759 372 
Q 2759 331 2756 301 
Q 2753 272 2748 248 
Q 2744 225 2733 206 
Q 2722 188 2705 170 
Q 2688 153 2603 114 
Q 2519 75 2384 37 
Q 2250 0 2073 -29 
Q 1897 -59 1697 -59 
Q 1350 -59 1089 37 
Q 828 134 650 325 
Q 472 516 381 803 
Q 291 1091 291 1472 
Q 291 1834 384 2123 
Q 478 2413 654 2614 
Q 831 2816 1081 2923 
Q 1331 3031 1641 3031 
Q 1972 3031 2205 2925 
Q 2438 2819 2588 2639 
Q 2738 2459 2808 2217 
Q 2878 1975 2878 1700 
L 2878 1606 
z
M 2359 1759 
Q 2369 2166 2180 2397 
Q 1991 2628 1619 2628 
Q 1428 2628 1284 2556 
Q 1141 2484 1044 2365 
Q 947 2247 894 2089 
Q 841 1931 834 1759 
L 2359 1759 
z
" transform="scale(0.015625)"/>
      <path id="Calibri-440" d="M 3066 1528 
Q 3066 1159 2986 865 
Q 2906 572 2751 367 
Q 2597 163 2369 52 
Q 2141 -59 1847 -59 
Q 1722 -59 1615 -34 
Q 1509 -9 1407 44 
Q 1306 97 1206 178 
Q 1106 259 994 369 
L 994 -1038 
Q 994 -1063 981 -1081 
Q 969 -1100 941 -1112 
Q 913 -1125 863 -1131 
Q 813 -1138 734 -1138 
Q 659 -1138 609 -1131 
Q 559 -1125 529 -1112 
Q 500 -1100 489 -1081 
Q 478 -1063 478 -1038 
L 478 2891 
Q 478 2919 487 2936 
Q 497 2953 525 2965 
Q 553 2978 597 2983 
Q 641 2988 703 2988 
Q 769 2988 811 2983 
Q 853 2978 881 2965 
Q 909 2953 920 2936 
Q 931 2919 931 2891 
L 931 2513 
Q 1059 2644 1178 2741 
Q 1297 2838 1417 2902 
Q 1538 2966 1664 2998 
Q 1791 3031 1931 3031 
Q 2238 3031 2453 2912 
Q 2669 2794 2805 2587 
Q 2941 2381 3003 2107 
Q 3066 1834 3066 1528 
z
M 2522 1469 
Q 2522 1684 2489 1886 
Q 2456 2088 2376 2244 
Q 2297 2400 2162 2494 
Q 2028 2588 1828 2588 
Q 1728 2588 1631 2558 
Q 1534 2528 1434 2464 
Q 1334 2400 1225 2295 
Q 1116 2191 994 2038 
L 994 919 
Q 1206 659 1397 521 
Q 1588 384 1797 384 
Q 1991 384 2130 478 
Q 2269 572 2355 728 
Q 2441 884 2481 1078 
Q 2522 1272 2522 1469 
z
" transform="scale(0.015625)"/>
      <path id="Calibri-442" d="M 2447 2738 
Q 2447 2675 2440 2631 
Q 2434 2588 2420 2559 
Q 2406 2531 2387 2517 
Q 2369 2503 2341 2503 
L 1497 2503 
L 1497 78 
Q 1497 53 1484 36 
Q 1472 19 1444 6 
Q 1416 -6 1366 -12 
Q 1316 -19 1238 -19 
Q 1163 -19 1113 -12 
Q 1063 -6 1033 6 
Q 1003 19 992 36 
Q 981 53 981 78 
L 981 2503 
L 138 2503 
Q 113 2503 92 2517 
Q 72 2531 59 2559 
Q 47 2588 39 2633 
Q 31 2678 31 2741 
Q 31 2797 39 2840 
Q 47 2884 61 2914 
Q 75 2944 94 2958 
Q 113 2972 138 2972 
L 2341 2972 
Q 2366 2972 2386 2958 
Q 2406 2944 2418 2914 
Q 2431 2884 2439 2839 
Q 2447 2794 2447 2738 
z
" transform="scale(0.015625)"/>
      <path id="Calibri-43e" d="M 3094 1516 
Q 3094 1172 3003 883 
Q 2913 594 2733 384 
Q 2553 175 2283 58 
Q 2013 -59 1656 -59 
Q 1309 -59 1051 44 
Q 794 147 622 344 
Q 450 541 365 822 
Q 281 1103 281 1459 
Q 281 1803 370 2092 
Q 459 2381 639 2590 
Q 819 2800 1087 2915 
Q 1356 3031 1716 3031 
Q 2063 3031 2320 2928 
Q 2578 2825 2750 2628 
Q 2922 2431 3008 2150 
Q 3094 1869 3094 1516 
z
M 2550 1481 
Q 2550 1709 2508 1912 
Q 2466 2116 2369 2269 
Q 2272 2422 2106 2511 
Q 1941 2600 1694 2600 
Q 1466 2600 1302 2519 
Q 1138 2438 1031 2289 
Q 925 2141 873 1937 
Q 822 1734 822 1494 
Q 822 1263 864 1059 
Q 906 856 1004 704 
Q 1103 553 1268 464 
Q 1434 375 1681 375 
Q 1906 375 2072 456 
Q 2238 538 2344 684 
Q 2450 831 2500 1034 
Q 2550 1238 2550 1481 
z
" transform="scale(0.015625)"/>
     </defs>
     <use xlink:href="#Calibri-421"/>
     <use xlink:href="#Calibri-43b" x="53.320312"/>
     <use xlink:href="#Calibri-443" x="104.345703"/>
     <use xlink:href="#Calibri-447" x="149.609375"/>
     <use xlink:href="#Calibri-430" x="196.484375"/>
     <use xlink:href="#Calibri-439" x="244.384766"/>
     <use xlink:href="#Calibri-43d" x="298.4375"/>
     <use xlink:href="#Calibri-44b" x="351.904297"/>
     <use xlink:href="#Calibri-439" x="418.505859"/>
     <use xlink:href="#Calibri-20" x="472.558594"/>
     <use xlink:href="#Calibri-433" x="495.166016"/>
     <use xlink:href="#Calibri-435" x="529.736328"/>
     <use xlink:href="#Calibri-43d" x="579.492188"/>
     <use xlink:href="#Calibri-435" x="632.958984"/>
     <use xlink:href="#Calibri-440" x="682.714844"/>
     <use xlink:href="#Calibri-430" x="735.253906"/>
     <use xlink:href="#Calibri-442" x="783.154297"/>
     <use xlink:href="#Calibri-43e" x="821.875"/>
     <use xlink:href="#Calibri-440" x="874.609375"/>
    </g>
   </g>
  </g>
  <g id="axes_2">
   <g id="patch_7">
    <path d="M 22.66274 463.309836 
L 231.613392 463.309836 
L 231.613392 258.106997 
L 22.66274 258.106997 
z
" style="fill: #ffffff"/>
   </g>
   <g id="PathCollection_2">
    <g clip-path="url(#p17d592f0d2)">
     <use xlink:href="#m1849a6447b" x="50.872356" y="385.053096" style="fill: #1f77b4; stroke: #1f77b4"/>
     <use xlink:href="#m1849a6447b" x="207.503236" y="340.017297" style="fill: #1f77b4; stroke: #1f77b4"/>
     <use xlink:href="#m1849a6447b" x="152.167297" y="457.640573" style="fill: #1f77b4; stroke: #1f77b4"/>
     <use xlink:href="#m1849a6447b" x="99.653065" y="258.600789" style="fill: #1f77b4; stroke: #1f77b4"/>
     <use xlink:href="#m1849a6447b" x="111.093261" y="431.88243" style="fill: #1f77b4; stroke: #1f77b4"/>
     <use xlink:href="#m1849a6447b" x="163.607475" y="284.34032" style="fill: #1f77b4; stroke: #1f77b4"/>
     <use xlink:href="#m1849a6447b" x="192.799076" y="410.783631" style="fill: #1f77b4; stroke: #1f77b4"/>
     <use xlink:href="#m1849a6447b" x="36.168217" y="314.243103" style="fill: #1f77b4; stroke: #1f77b4"/>
     <use xlink:href="#m1849a6447b" x="25.833694" y="439.365348" style="fill: #1f77b4; stroke: #1f77b4"/>
     <use xlink:href="#m1849a6447b" x="181.911451" y="279.198696" style="fill: #1f77b4; stroke: #1f77b4"/>
     <use xlink:href="#m1849a6447b" x="179.194181" y="364.37395" style="fill: #1f77b4; stroke: #1f77b4"/>
     <use xlink:href="#m1849a6447b" x="126.52207" y="358.21129" style="fill: #1f77b4; stroke: #1f77b4"/>
     <use xlink:href="#m1849a6447b" x="85.69901" y="390.132482" style="fill: #1f77b4; stroke: #1f77b4"/>
     <use xlink:href="#m1849a6447b" x="138.371089" y="332.471367" style="fill: #1f77b4; stroke: #1f77b4"/>
     <use xlink:href="#m1849a6447b" x="219.470361" y="413.635207" style="fill: #1f77b4; stroke: #1f77b4"/>
     <use xlink:href="#m1849a6447b" x="63.392632" y="304.972498" style="fill: #1f77b4; stroke: #1f77b4"/>
     <use xlink:href="#m1849a6447b" x="71.512848" y="422.63142" style="fill: #1f77b4; stroke: #1f77b4"/>
     <use xlink:href="#m1849a6447b" x="227.635161" y="300.742649" style="fill: #1f77b4; stroke: #1f77b4"/>
     <use xlink:href="#m1849a6447b" x="133.65502" y="395.934057" style="fill: #1f77b4; stroke: #1f77b4"/>
     <use xlink:href="#m1849a6447b" x="80.632274" y="325.047064" style="fill: #1f77b4; stroke: #1f77b4"/>
     <use xlink:href="#m1849a6447b" x="118.16577" y="370.194422" style="fill: #1f77b4; stroke: #1f77b4"/>
     <use xlink:href="#m1849a6447b" x="171.188548" y="350.8057" style="fill: #1f77b4; stroke: #1f77b4"/>
     <use xlink:href="#m1849a6447b" x="186.837701" y="448.405317" style="fill: #1f77b4; stroke: #1f77b4"/>
     <use xlink:href="#m1849a6447b" x="30.715359" y="275.012805" style="fill: #1f77b4; stroke: #1f77b4"/>
     <use xlink:href="#m1849a6447b" x="44.460753" y="400.185041" style="fill: #1f77b4; stroke: #1f77b4"/>
     <use xlink:href="#m1849a6447b" x="200.842968" y="316.870587" style="fill: #1f77b4; stroke: #1f77b4"/>
     <use xlink:href="#m1849a6447b" x="158.617458" y="430.889526" style="fill: #1f77b4; stroke: #1f77b4"/>
     <use xlink:href="#m1849a6447b" x="106.249858" y="296.573283" style="fill: #1f77b4; stroke: #1f77b4"/>
     <use xlink:href="#m1849a6447b" x="91.571111" y="456.628767" style="fill: #1f77b4; stroke: #1f77b4"/>
     <use xlink:href="#m1849a6447b" x="143.93873" y="270.815038" style="fill: #1f77b4; stroke: #1f77b4"/>
     <use xlink:href="#m1849a6447b" x="212.257565" y="374.410755" style="fill: #1f77b4; stroke: #1f77b4"/>
     <use xlink:href="#m1849a6447b" x="55.875328" y="342.600823" style="fill: #1f77b4; stroke: #1f77b4"/>
     <use xlink:href="#m1849a6447b" x="60.125788" y="462.198039" style="fill: #1f77b4; stroke: #1f77b4"/>
     <use xlink:href="#m1849a6447b" x="216.206702" y="263.656098" style="fill: #1f77b4; stroke: #1f77b4"/>
     <use xlink:href="#m1849a6447b" x="141.637139" y="380.091891" style="fill: #1f77b4; stroke: #1f77b4"/>
     <use xlink:href="#m1849a6447b" x="88.961871" y="335.353551" style="fill: #1f77b4; stroke: #1f77b4"/>
     <use xlink:href="#m1849a6447b" x="103.666897" y="405.624981" style="fill: #1f77b4; stroke: #1f77b4"/>
     <use xlink:href="#m1849a6447b" x="156.342196" y="309.788973" style="fill: #1f77b4; stroke: #1f77b4"/>
     <use xlink:href="#m1849a6447b" x="204.767421" y="436.643241" style="fill: #1f77b4; stroke: #1f77b4"/>
     <use xlink:href="#m1849a6447b" x="48.686477" y="289.204459" style="fill: #1f77b4; stroke: #1f77b4"/>
     <use xlink:href="#m1849a6447b" x="32.901373" y="363.022762" style="fill: #1f77b4; stroke: #1f77b4"/>
     <use xlink:href="#m1849a6447b" x="189.535417" y="356.36225" style="fill: #1f77b4; stroke: #1f77b4"/>
     <use xlink:href="#m1849a6447b" x="166.873524" y="441.120275" style="fill: #1f77b4; stroke: #1f77b4"/>
     <use xlink:href="#m1849a6447b" x="114.356122" y="280.656171" style="fill: #1f77b4; stroke: #1f77b4"/>
     <use xlink:href="#m1849a6447b" x="76.797891" y="415.587575" style="fill: #1f77b4; stroke: #1f77b4"/>
     <use xlink:href="#m1849a6447b" x="129.315312" y="306.220358" style="fill: #1f77b4; stroke: #1f77b4"/>
     <use xlink:href="#m1849a6447b" x="230.359206" y="388.577953" style="fill: #1f77b4; stroke: #1f77b4"/>
     <use xlink:href="#m1849a6447b" x="73.725141" y="330.813499" style="fill: #1f77b4; stroke: #1f77b4"/>
     <use xlink:href="#m1849a6447b" x="65.667894" y="397.191298" style="fill: #1f77b4; stroke: #1f77b4"/>
     <use xlink:href="#m1849a6447b" x="222.053322" y="327.002563" style="fill: #1f77b4; stroke: #1f77b4"/>
     <use xlink:href="#m1849a6447b" x="134.145364" y="420.982993" style="fill: #1f77b4; stroke: #1f77b4"/>
     <use xlink:href="#m1849a6447b" x="81.774557" y="299.191288" style="fill: #1f77b4; stroke: #1f77b4"/>
     <use xlink:href="#m1849a6447b" x="122.572932" y="446.546892" style="fill: #1f77b4; stroke: #1f77b4"/>
     <use xlink:href="#m1849a6447b" x="174.943721" y="273.658498" style="fill: #1f77b4; stroke: #1f77b4"/>
     <use xlink:href="#m1849a6447b" x="184.520691" y="371.642455" style="fill: #1f77b4; stroke: #1f77b4"/>
     <use xlink:href="#m1849a6447b" x="28.135286" y="352.557454" style="fill: #1f77b4; stroke: #1f77b4"/>
     <use xlink:href="#m1849a6447b" x="40.507927" y="426.425954" style="fill: #1f77b4; stroke: #1f77b4"/>
     <use xlink:href="#m1849a6447b" x="196.633458" y="291.411465" style="fill: #1f77b4; stroke: #1f77b4"/>
     <use xlink:href="#m1849a6447b" x="161.395182" y="405.039799" style="fill: #1f77b4; stroke: #1f77b4"/>
     <use xlink:href="#m1849a6447b" x="108.369216" y="321.628267" style="fill: #1f77b4; stroke: #1f77b4"/>
     <use xlink:href="#m1849a6447b" x="96.955348" y="379.475508" style="fill: #1f77b4; stroke: #1f77b4"/>
     <use xlink:href="#m1849a6447b" x="149.981283" y="347.161461" style="fill: #1f77b4; stroke: #1f77b4"/>
     <use xlink:href="#m1849a6447b" x="211.312884" y="451.974408" style="fill: #1f77b4; stroke: #1f77b4"/>
     <use xlink:href="#m1849a6447b" x="55.18738" y="265.856964" style="fill: #1f77b4; stroke: #1f77b4"/>
     <use xlink:href="#m1849a6447b" x="53.079878" y="434.710155" style="fill: #1f77b4; stroke: #1f77b4"/>
     <use xlink:href="#m1849a6447b" x="210.181038" y="287.072551" style="fill: #1f77b4; stroke: #1f77b4"/>
     <use xlink:href="#m1849a6447b" x="147.854677" y="407.902493" style="fill: #1f77b4; stroke: #1f77b4"/>
     <use xlink:href="#m1849a6447b" x="95.791587" y="311.463733" style="fill: #1f77b4; stroke: #1f77b4"/>
     <use xlink:href="#m1849a6447b" x="110.495853" y="382.175272" style="fill: #1f77b4; stroke: #1f77b4"/>
     <use xlink:href="#m1849a6447b" x="162.558911" y="337.234967" style="fill: #1f77b4; stroke: #1f77b4"/>
     <use xlink:href="#m1849a6447b" x="198.740934" y="460.471613" style="fill: #1f77b4; stroke: #1f77b4"/>
     <use xlink:href="#m1849a6447b" x="41.639802" y="261.33006" style="fill: #1f77b4; stroke: #1f77b4"/>
     <use xlink:href="#m1849a6447b" x="26.059672" y="386.502401" style="fill: #1f77b4; stroke: #1f77b4"/>
     <use xlink:href="#m1849a6447b" x="183.305948" y="328.93678" style="fill: #1f77b4; stroke: #1f77b4"/>
     <use xlink:href="#m1849a6447b" x="172.887258" y="417.318701" style="fill: #1f77b4; stroke: #1f77b4"/>
     <use xlink:href="#m1849a6447b" x="121.390054" y="308.554225" style="fill: #1f77b4; stroke: #1f77b4"/>
     <use xlink:href="#m1849a6447b" x="83.831038" y="443.045528" style="fill: #1f77b4; stroke: #1f77b4"/>
     <use xlink:href="#m1849a6447b" x="135.328223" y="282.783382" style="fill: #1f77b4; stroke: #1f77b4"/>
     <use xlink:href="#m1849a6447b" x="224.128915" y="360.740554" style="fill: #1f77b4; stroke: #1f77b4"/>
     <use xlink:href="#m1849a6447b" x="66.882662" y="354.679662" style="fill: #1f77b4; stroke: #1f77b4"/>
     <use xlink:href="#m1849a6447b" x="71.694178" y="372.974385" style="fill: #1f77b4; stroke: #1f77b4"/>
     <use xlink:href="#m1849a6447b" x="229.099802" y="353.687419" style="fill: #1f77b4; stroke: #1f77b4"/>
     <use xlink:href="#m1849a6447b" x="127.316214" y="445.672114" style="fill: #1f77b4; stroke: #1f77b4"/>
     <use xlink:href="#m1849a6447b" x="75.557636" y="272.184095" style="fill: #1f77b4; stroke: #1f77b4"/>
     <use xlink:href="#m1849a6447b" x="116.355202" y="419.901555" style="fill: #1f77b4; stroke: #1f77b4"/>
     <use xlink:href="#m1849a6447b" x="168.113799" y="297.911028" style="fill: #1f77b4; stroke: #1f77b4"/>
     <use xlink:href="#m1849a6447b" x="191.566398" y="398.717359" style="fill: #1f77b4; stroke: #1f77b4"/>
     <use xlink:href="#m1849a6447b" x="34.160755" y="327.925872" style="fill: #1f77b4; stroke: #1f77b4"/>
     <use xlink:href="#m1849a6447b" x="46.738421" y="453.048013" style="fill: #1f77b4; stroke: #1f77b4"/>
     <use xlink:href="#m1849a6447b" x="203.476133" y="267.132528" style="fill: #1f77b4; stroke: #1f77b4"/>
     <use xlink:href="#m1849a6447b" x="154.362228" y="377.94475" style="fill: #1f77b4; stroke: #1f77b4"/>
     <use xlink:href="#m1849a6447b" x="102.35651" y="346.230324" style="fill: #1f77b4; stroke: #1f77b4"/>
     <use xlink:href="#m1849a6447b" x="90.941808" y="403.715697" style="fill: #1f77b4; stroke: #1f77b4"/>
     <use xlink:href="#m1849a6447b" x="142.947557" y="320.502999" style="fill: #1f77b4; stroke: #1f77b4"/>
     <use xlink:href="#m1849a6447b" x="218.154787" y="427.305433" style="fill: #1f77b4; stroke: #1f77b4"/>
     <use xlink:href="#m1849a6447b" x="61.417045" y="292.893684" style="fill: #1f77b4; stroke: #1f77b4"/>
     <use xlink:href="#m1849a6447b" x="57.090089" y="409.259943" style="fill: #1f77b4; stroke: #1f77b4"/>
     <use xlink:href="#m1849a6447b" x="214.333158" y="313.319035" style="fill: #1f77b4; stroke: #1f77b4"/>
     <use xlink:href="#m1849a6447b" x="145.121589" y="432.961495" style="fill: #1f77b4; stroke: #1f77b4"/>
     <use xlink:href="#m1849a6447b" x="93.627593" y="285.621338" style="fill: #1f77b4; stroke: #1f77b4"/>
    </g>
   </g>
   <g id="matplotlib.axis_3">
    <g id="xtick_7">
     <g id="line2d_25">
      <path d="M 22.66274 463.309836 
L 22.66274 258.106997 
" clip-path="url(#p17d592f0d2)" style="fill: none; stroke: #b0b0b0; stroke-width: 0.8; stroke-linecap: square"/>
     </g>
     <g id="line2d_26">
      <g>
       <use xlink:href="#m55bd23ee4f" x="22.66274" y="463.309836" style="stroke: #000000; stroke-width: 0.8"/>
      </g>
     </g>
     <g id="text_14">
      <!-- 0.0 -->
      <g transform="translate(16.33149 477.111399) scale(0.1 -0.1)">
       <use xlink:href="#Calibri-30"/>
       <use xlink:href="#Calibri-2e" x="50.683594"/>
       <use xlink:href="#Calibri-30" x="75.927734"/>
      </g>
     </g>
    </g>
    <g id="xtick_8">
     <g id="line2d_27">
      <path d="M 64.45287 463.309836 
L 64.45287 258.106997 
" clip-path="url(#p17d592f0d2)" style="fill: none; stroke: #b0b0b0; stroke-width: 0.8; stroke-linecap: square"/>
     </g>
     <g id="line2d_28">
      <g>
       <use xlink:href="#m55bd23ee4f" x="64.45287" y="463.309836" style="stroke: #000000; stroke-width: 0.8"/>
      </g>
     </g>
     <g id="text_15">
      <!-- 0.2 -->
      <g transform="translate(58.12162 477.111399) scale(0.1 -0.1)">
       <use xlink:href="#Calibri-30"/>
       <use xlink:href="#Calibri-2e" x="50.683594"/>
       <use xlink:href="#Calibri-32" x="75.927734"/>
      </g>
     </g>
    </g>
    <g id="xtick_9">
     <g id="line2d_29">
      <path d="M 106.243001 463.309836 
L 106.243001 258.106997 
" clip-path="url(#p17d592f0d2)" style="fill: none; stroke: #b0b0b0; stroke-width: 0.8; stroke-linecap: square"/>
     </g>
     <g id="line2d_30">
      <g>
       <use xlink:href="#m55bd23ee4f" x="106.243001" y="463.309836" style="stroke: #000000; stroke-width: 0.8"/>
      </g>
     </g>
     <g id="text_16">
      <!-- 0.4 -->
      <g transform="translate(99.911751 477.111399) scale(0.1 -0.1)">
       <use xlink:href="#Calibri-30"/>
       <use xlink:href="#Calibri-2e" x="50.683594"/>
       <use xlink:href="#Calibri-34" x="75.927734"/>
      </g>
     </g>
    </g>
    <g id="xtick_10">
     <g id="line2d_31">
      <path d="M 148.033131 463.309836 
L 148.033131 258.106997 
" clip-path="url(#p17d592f0d2)" style="fill: none; stroke: #b0b0b0; stroke-width: 0.8; stroke-linecap: square"/>
     </g>
     <g id="line2d_32">
      <g>
       <use xlink:href="#m55bd23ee4f" x="148.033131" y="463.309836" style="stroke: #000000; stroke-width: 0.8"/>
      </g>
     </g>
     <g id="text_17">
      <!-- 0.6 -->
      <g transform="translate(141.701881 477.111399) scale(0.1 -0.1)">
       <use xlink:href="#Calibri-30"/>
       <use xlink:href="#Calibri-2e" x="50.683594"/>
       <use xlink:href="#Calibri-36" x="75.927734"/>
      </g>
     </g>
    </g>
    <g id="xtick_11">
     <g id="line2d_33">
      <path d="M 189.823262 463.309836 
L 189.823262 258.106997 
" clip-path="url(#p17d592f0d2)" style="fill: none; stroke: #b0b0b0; stroke-width: 0.8; stroke-linecap: square"/>
     </g>
     <g id="line2d_34">
      <g>
       <use xlink:href="#m55bd23ee4f" x="189.823262" y="463.309836" style="stroke: #000000; stroke-width: 0.8"/>
      </g>
     </g>
     <g id="text_18">
      <!-- 0.8 -->
      <g transform="translate(183.492012 477.111399) scale(0.1 -0.1)">
       <use xlink:href="#Calibri-30"/>
       <use xlink:href="#Calibri-2e" x="50.683594"/>
       <use xlink:href="#Calibri-38" x="75.927734"/>
      </g>
     </g>
    </g>
    <g id="xtick_12">
     <g id="line2d_35">
      <path d="M 231.613392 463.309836 
L 231.613392 258.106997 
" clip-path="url(#p17d592f0d2)" style="fill: none; stroke: #b0b0b0; stroke-width: 0.8; stroke-linecap: square"/>
     </g>
     <g id="line2d_36">
      <g>
       <use xlink:href="#m55bd23ee4f" x="231.613392" y="463.309836" style="stroke: #000000; stroke-width: 0.8"/>
      </g>
     </g>
     <g id="text_19">
      <!-- 1.0 -->
      <g transform="translate(225.282142 477.111399) scale(0.1 -0.1)">
       <use xlink:href="#Calibri-31"/>
       <use xlink:href="#Calibri-2e" x="50.683594"/>
       <use xlink:href="#Calibri-30" x="75.927734"/>
      </g>
     </g>
    </g>
   </g>
   <g id="matplotlib.axis_4">
    <g id="ytick_7">
     <g id="line2d_37">
      <path d="M 22.66274 463.309836 
L 231.613392 463.309836 
" clip-path="url(#p17d592f0d2)" style="fill: none; stroke: #b0b0b0; stroke-width: 0.8; stroke-linecap: square"/>
     </g>
     <g id="line2d_38">
      <g>
       <use xlink:href="#mb6caca0233" x="22.66274" y="463.309836" style="stroke: #000000; stroke-width: 0.8"/>
      </g>
     </g>
     <g id="text_20">
      <!-- 0.0 -->
      <g transform="translate(3.00024 466.710618) scale(0.1 -0.1)">
       <use xlink:href="#Calibri-30"/>
       <use xlink:href="#Calibri-2e" x="50.683594"/>
       <use xlink:href="#Calibri-30" x="75.927734"/>
      </g>
     </g>
    </g>
    <g id="ytick_8">
     <g id="line2d_39">
      <path d="M 22.66274 422.269268 
L 231.613392 422.269268 
" clip-path="url(#p17d592f0d2)" style="fill: none; stroke: #b0b0b0; stroke-width: 0.8; stroke-linecap: square"/>
     </g>
     <g id="line2d_40">
      <g>
       <use xlink:href="#mb6caca0233" x="22.66274" y="422.269268" style="stroke: #000000; stroke-width: 0.8"/>
      </g>
     </g>
     <g id="text_21">
      <!-- 0.2 -->
      <g transform="translate(3.00024 425.67005) scale(0.1 -0.1)">
       <use xlink:href="#Calibri-30"/>
       <use xlink:href="#Calibri-2e" x="50.683594"/>
       <use xlink:href="#Calibri-32" x="75.927734"/>
      </g>
     </g>
    </g>
    <g id="ytick_9">
     <g id="line2d_41">
      <path d="M 22.66274 381.228701 
L 231.613392 381.228701 
" clip-path="url(#p17d592f0d2)" style="fill: none; stroke: #b0b0b0; stroke-width: 0.8; stroke-linecap: square"/>
     </g>
     <g id="line2d_42">
      <g>
       <use xlink:href="#mb6caca0233" x="22.66274" y="381.228701" style="stroke: #000000; stroke-width: 0.8"/>
      </g>
     </g>
     <g id="text_22">
      <!-- 0.4 -->
      <g transform="translate(3.00024 384.629482) scale(0.1 -0.1)">
       <use xlink:href="#Calibri-30"/>
       <use xlink:href="#Calibri-2e" x="50.683594"/>
       <use xlink:href="#Calibri-34" x="75.927734"/>
      </g>
     </g>
    </g>
    <g id="ytick_10">
     <g id="line2d_43">
      <path d="M 22.66274 340.188133 
L 231.613392 340.188133 
" clip-path="url(#p17d592f0d2)" style="fill: none; stroke: #b0b0b0; stroke-width: 0.8; stroke-linecap: square"/>
     </g>
     <g id="line2d_44">
      <g>
       <use xlink:href="#mb6caca0233" x="22.66274" y="340.188133" style="stroke: #000000; stroke-width: 0.8"/>
      </g>
     </g>
     <g id="text_23">
      <!-- 0.6 -->
      <g transform="translate(3.00024 343.588914) scale(0.1 -0.1)">
       <use xlink:href="#Calibri-30"/>
       <use xlink:href="#Calibri-2e" x="50.683594"/>
       <use xlink:href="#Calibri-36" x="75.927734"/>
      </g>
     </g>
    </g>
    <g id="ytick_11">
     <g id="line2d_45">
      <path d="M 22.66274 299.147565 
L 231.613392 299.147565 
" clip-path="url(#p17d592f0d2)" style="fill: none; stroke: #b0b0b0; stroke-width: 0.8; stroke-linecap: square"/>
     </g>
     <g id="line2d_46">
      <g>
       <use xlink:href="#mb6caca0233" x="22.66274" y="299.147565" style="stroke: #000000; stroke-width: 0.8"/>
      </g>
     </g>
     <g id="text_24">
      <!-- 0.8 -->
      <g transform="translate(3.00024 302.548346) scale(0.1 -0.1)">
       <use xlink:href="#Calibri-30"/>
       <use xlink:href="#Calibri-2e" x="50.683594"/>
       <use xlink:href="#Calibri-38" x="75.927734"/>
      </g>
     </g>
    </g>
    <g id="ytick_12">
     <g id="line2d_47">
      <path d="M 22.66274 258.106997 
L 231.613392 258.106997 
" clip-path="url(#p17d592f0d2)" style="fill: none; stroke: #b0b0b0; stroke-width: 0.8; stroke-linecap: square"/>
     </g>
     <g id="line2d_48">
      <g>
       <use xlink:href="#mb6caca0233" x="22.66274" y="258.106997" style="stroke: #000000; stroke-width: 0.8"/>
      </g>
     </g>
     <g id="text_25">
      <!-- 1.0 -->
      <g transform="translate(3.00024 261.507778) scale(0.1 -0.1)">
       <use xlink:href="#Calibri-31"/>
       <use xlink:href="#Calibri-2e" x="50.683594"/>
       <use xlink:href="#Calibri-30" x="75.927734"/>
      </g>
     </g>
    </g>
   </g>
   <g id="patch_8">
    <path d="M 22.66274 463.309836 
L 22.66274 258.106997 
" style="fill: none; stroke: #000000; stroke-width: 0.8; stroke-linejoin: miter; stroke-linecap: square"/>
   </g>
   <g id="patch_9">
    <path d="M 231.613392 463.309836 
L 231.613392 258.106997 
" style="fill: none; stroke: #000000; stroke-width: 0.8; stroke-linejoin: miter; stroke-linecap: square"/>
   </g>
   <g id="patch_10">
    <path d="M 22.66274 463.309836 
L 231.613392 463.309836 
" style="fill: none; stroke: #000000; stroke-width: 0.8; stroke-linejoin: miter; stroke-linecap: square"/>
   </g>
   <g id="patch_11">
    <path d="M 22.66274 258.106997 
L 231.613392 258.106997 
" style="fill: none; stroke: #000000; stroke-width: 0.8; stroke-linejoin: miter; stroke-linecap: square"/>
   </g>
   <g id="text_26">
    <!-- Квазислучайный генератор -->
    <g transform="translate(57.383378 252.106997) scale(0.12 -0.12)">
     <defs>
      <path id="Calibri-41a" d="M 3228 84 
Q 3228 56 3215 37 
Q 3203 19 3173 6 
Q 3144 -6 3091 -12 
Q 3038 -19 2959 -19 
Q 2869 -19 2814 -11 
Q 2759 -3 2726 12 
Q 2694 28 2676 51 
Q 2659 75 2650 109 
L 2278 1097 
Q 2203 1297 2112 1437 
Q 2022 1578 1905 1670 
Q 1788 1763 1638 1806 
Q 1488 1850 1300 1850 
L 1075 1850 
L 1075 81 
Q 1075 56 1062 37 
Q 1050 19 1019 8 
Q 988 -3 936 -11 
Q 884 -19 806 -19 
Q 731 -19 678 -11 
Q 625 -3 594 8 
Q 563 19 550 37 
Q 538 56 538 81 
L 538 3966 
Q 538 3988 550 4006 
Q 563 4025 594 4036 
Q 625 4047 678 4055 
Q 731 4063 806 4063 
Q 884 4063 936 4055 
Q 988 4047 1019 4036 
Q 1050 4025 1062 4006 
Q 1075 3988 1075 3966 
L 1075 2313 
L 1300 2313 
Q 1488 2313 1628 2358 
Q 1769 2403 1876 2493 
Q 1984 2584 2067 2723 
Q 2150 2863 2216 3053 
L 2522 3934 
Q 2531 3966 2547 3991 
Q 2563 4016 2594 4031 
Q 2625 4047 2679 4055 
Q 2734 4063 2822 4063 
Q 2903 4063 2953 4056 
Q 3003 4050 3033 4037 
Q 3063 4025 3072 4006 
Q 3081 3988 3081 3963 
Q 3081 3928 3070 3886 
Q 3059 3844 3041 3788 
L 2719 2947 
Q 2650 2756 2576 2618 
Q 2503 2481 2415 2382 
Q 2328 2284 2225 2220 
Q 2122 2156 1994 2119 
L 1994 2113 
Q 2141 2059 2255 1989 
Q 2369 1919 2466 1816 
Q 2563 1713 2644 1567 
Q 2725 1422 2803 1219 
L 3184 256 
Q 3216 175 3222 142 
Q 3228 109 3228 84 
z
" transform="scale(0.015625)"/>
      <path id="Calibri-432" d="M 2788 888 
Q 2788 666 2703 492 
Q 2619 319 2453 201 
Q 2288 84 2041 23 
Q 1794 -38 1466 -38 
Q 1363 -38 1266 -36 
Q 1169 -34 1078 -29 
Q 988 -25 898 -19 
Q 809 -13 722 -3 
Q 597 13 537 80 
Q 478 147 478 278 
L 478 2700 
Q 478 2828 536 2897 
Q 594 2966 713 2978 
Q 794 2988 886 2994 
Q 978 3000 1075 3004 
Q 1172 3009 1275 3012 
Q 1378 3016 1484 3016 
Q 1788 3016 2009 2966 
Q 2231 2916 2378 2819 
Q 2525 2722 2595 2581 
Q 2666 2441 2666 2259 
Q 2666 2022 2539 1853 
Q 2413 1684 2166 1613 
Q 2475 1547 2631 1359 
Q 2788 1172 2788 888 
z
M 2166 2194 
Q 2166 2297 2128 2378 
Q 2091 2459 2005 2515 
Q 1919 2572 1783 2600 
Q 1647 2628 1453 2628 
Q 1306 2628 1184 2620 
Q 1063 2613 978 2603 
L 978 1728 
L 1503 1728 
Q 1825 1728 1995 1848 
Q 2166 1969 2166 2194 
z
M 2259 878 
Q 2259 1003 2215 1098 
Q 2172 1194 2076 1256 
Q 1981 1319 1832 1350 
Q 1684 1381 1481 1381 
L 978 1381 
L 978 384 
Q 1038 375 1102 370 
Q 1166 366 1233 361 
Q 1300 356 1367 353 
Q 1434 350 1491 350 
Q 1694 350 1837 386 
Q 1981 422 2076 490 
Q 2172 559 2215 657 
Q 2259 756 2259 878 
z
" transform="scale(0.015625)"/>
      <path id="Calibri-437" d="M 2425 856 
Q 2425 644 2340 475 
Q 2256 306 2098 186 
Q 1941 66 1712 3 
Q 1484 -59 1194 -59 
Q 1031 -59 889 -36 
Q 747 -13 630 23 
Q 513 59 433 101 
Q 353 144 320 172 
Q 288 200 272 223 
Q 256 247 250 275 
Q 244 303 239 343 
Q 234 384 234 441 
Q 234 491 240 525 
Q 247 559 256 581 
Q 266 603 278 614 
Q 291 625 313 625 
Q 347 625 408 583 
Q 469 541 572 489 
Q 675 438 826 394 
Q 978 350 1200 350 
Q 1356 350 1481 383 
Q 1606 416 1693 480 
Q 1781 544 1829 641 
Q 1878 738 1878 866 
Q 1878 975 1831 1062 
Q 1784 1150 1684 1211 
Q 1584 1272 1428 1306 
Q 1272 1341 1050 1341 
L 738 1341 
Q 706 1341 687 1352 
Q 669 1363 655 1386 
Q 641 1409 636 1448 
Q 631 1488 631 1541 
Q 631 1591 637 1628 
Q 644 1666 656 1687 
Q 669 1709 687 1720 
Q 706 1731 734 1731 
L 1038 1731 
Q 1234 1731 1376 1762 
Q 1519 1794 1614 1855 
Q 1709 1916 1754 2005 
Q 1800 2094 1800 2209 
Q 1800 2313 1756 2391 
Q 1713 2469 1639 2520 
Q 1566 2572 1459 2598 
Q 1353 2625 1231 2625 
Q 1041 2625 892 2581 
Q 744 2538 636 2486 
Q 528 2434 459 2392 
Q 391 2350 363 2350 
Q 347 2350 333 2358 
Q 319 2366 308 2386 
Q 297 2406 292 2442 
Q 288 2478 288 2528 
Q 288 2619 302 2672 
Q 316 2725 353 2762 
Q 391 2800 484 2850 
Q 578 2900 704 2939 
Q 831 2978 979 3004 
Q 1128 3031 1284 3031 
Q 1513 3031 1703 2982 
Q 1894 2934 2030 2836 
Q 2166 2738 2241 2592 
Q 2316 2447 2316 2253 
Q 2316 2138 2278 2033 
Q 2241 1928 2170 1840 
Q 2100 1753 1997 1684 
Q 1894 1616 1769 1578 
L 1763 1575 
Q 1884 1563 2003 1505 
Q 2122 1447 2215 1355 
Q 2309 1263 2367 1136 
Q 2425 1009 2425 856 
z
" transform="scale(0.015625)"/>
      <path id="Calibri-438" d="M 2981 75 
Q 2981 53 2968 34 
Q 2956 16 2928 5 
Q 2900 -6 2850 -12 
Q 2800 -19 2725 -19 
Q 2650 -19 2600 -12 
Q 2550 -6 2519 5 
Q 2488 16 2475 34 
Q 2463 53 2463 75 
L 2463 1694 
Q 2463 1816 2469 1942 
Q 2475 2069 2484 2191 
Q 2413 2066 2327 1945 
Q 2241 1825 2153 1706 
L 959 75 
Q 938 50 920 31 
Q 903 13 876 2 
Q 850 -9 809 -14 
Q 769 -19 709 -19 
Q 641 -19 597 -12 
Q 553 -6 526 5 
Q 500 16 489 34 
Q 478 53 478 75 
L 478 2894 
Q 478 2916 489 2934 
Q 500 2953 529 2965 
Q 559 2978 609 2983 
Q 659 2988 731 2988 
Q 881 2988 937 2964 
Q 994 2941 994 2894 
L 994 1266 
Q 994 1144 987 1023 
Q 981 903 972 784 
Q 1044 903 1117 1017 
Q 1191 1131 1275 1241 
L 2484 2894 
Q 2503 2919 2523 2937 
Q 2544 2956 2573 2967 
Q 2603 2978 2643 2983 
Q 2684 2988 2750 2988 
Q 2816 2988 2861 2983 
Q 2906 2978 2932 2965 
Q 2959 2953 2970 2934 
Q 2981 2916 2981 2891 
L 2981 75 
z
" transform="scale(0.015625)"/>
      <path id="Calibri-441" d="M 2500 506 
Q 2500 453 2497 414 
Q 2494 375 2486 348 
Q 2478 322 2467 301 
Q 2456 281 2417 242 
Q 2378 203 2284 145 
Q 2191 88 2073 42 
Q 1956 -3 1818 -31 
Q 1681 -59 1534 -59 
Q 1231 -59 997 41 
Q 763 141 605 333 
Q 447 525 364 804 
Q 281 1084 281 1450 
Q 281 1866 382 2164 
Q 484 2463 661 2653 
Q 838 2844 1077 2936 
Q 1316 3028 1594 3028 
Q 1728 3028 1854 3003 
Q 1981 2978 2087 2937 
Q 2194 2897 2276 2844 
Q 2359 2791 2396 2753 
Q 2434 2716 2448 2694 
Q 2463 2672 2472 2642 
Q 2481 2613 2484 2575 
Q 2488 2538 2488 2481 
Q 2488 2359 2459 2311 
Q 2431 2263 2391 2263 
Q 2344 2263 2283 2314 
Q 2222 2366 2128 2428 
Q 2034 2491 1901 2542 
Q 1769 2594 1588 2594 
Q 1216 2594 1017 2308 
Q 819 2022 819 1478 
Q 819 1206 870 1001 
Q 922 797 1022 659 
Q 1122 522 1267 455 
Q 1413 388 1600 388 
Q 1778 388 1912 444 
Q 2047 500 2145 567 
Q 2244 634 2311 689 
Q 2378 744 2416 744 
Q 2438 744 2453 731 
Q 2469 719 2480 689 
Q 2491 659 2495 614 
Q 2500 569 2500 506 
z
" transform="scale(0.015625)"/>
     </defs>
     <use xlink:href="#Calibri-41a"/>
     <use xlink:href="#Calibri-432" x="54.296875"/>
     <use xlink:href="#Calibri-430" x="102.197266"/>
     <use xlink:href="#Calibri-437" x="150.097656"/>
     <use xlink:href="#Calibri-438" x="192.382812"/>
     <use xlink:href="#Calibri-441" x="246.435547"/>
     <use xlink:href="#Calibri-43b" x="288.720703"/>
     <use xlink:href="#Calibri-443" x="339.746094"/>
     <use xlink:href="#Calibri-447" x="385.009766"/>
     <use xlink:href="#Calibri-430" x="431.884766"/>
     <use xlink:href="#Calibri-439" x="479.785156"/>
     <use xlink:href="#Calibri-43d" x="533.837891"/>
     <use xlink:href="#Calibri-44b" x="587.304688"/>
     <use xlink:href="#Calibri-439" x="653.90625"/>
     <use xlink:href="#Calibri-20" x="707.958984"/>
     <use xlink:href="#Calibri-433" x="730.566406"/>
     <use xlink:href="#Calibri-435" x="765.136719"/>
     <use xlink:href="#Calibri-43d" x="814.892578"/>
     <use xlink:href="#Calibri-435" x="868.359375"/>
     <use xlink:href="#Calibri-440" x="918.115234"/>
     <use xlink:href="#Calibri-430" x="970.654297"/>
     <use xlink:href="#Calibri-442" x="1018.554688"/>
     <use xlink:href="#Calibri-43e" x="1057.275391"/>
     <use xlink:href="#Calibri-440" x="1110.009766"/>
    </g>
   </g>
  </g>
 </g>
 <defs>
  <clipPath id="p9905b744a6">
   <rect x="22.66274" y="17.162115" width="208.950652" height="205.202839"/>
  </clipPath>
  <clipPath id="p17d592f0d2">
   <rect x="22.66274" y="258.106997" width="208.950652" height="205.202839"/>
  </clipPath>
 </defs>
</svg>
